0, 0, Header, 1, 17, 96
1, 0, Start_track
1, 0, Tempo, 300000
1, 0, Key_signature, 0, "major"
1, 0, Time_signature, 4, 2, 24, 8
1, 0, End_track
2, 0, Start_track
2, 0, Control_c, 0, 0, 0
2, 0, Control_c, 0, 32, 0
2, 0, Program_c, 0, 47
2, 0, Title_t, "Slap Bass"
2, 0, Control_c, 0, 7, 127
2, 0, Control_c, 0, 10, 64
2, 0, Control_c, 0, 7, 100
2, 0, Pitch_bend_c, 0, 8192
2, 0, Control_c, 0, 10, 64
2, 0, Control_c, 0, 7, 100
2, 0, Pitch_bend_c, 0, 8192
2, 0, Control_c, 0, 10, 64
2, 0, Control_c, 0, 7, 100
2, 0, Pitch_bend_c, 0, 8192
2, 0, Control_c, 0, 10, 64
2, 0, Control_c, 0, 7, 100
2, 0, Pitch_bend_c, 0, 8192
2, 0, Note_on_c, 0, 36, 127
2, 48, Note_off_c, 0, 36, 0
2, 48, Note_on_c, 0, 48, 127
2, 96, Note_off_c, 0, 48, 0
2, 96, Note_on_c, 0, 35, 127
2, 144, Note_off_c, 0, 35, 0
2, 144, Note_on_c, 0, 47, 127
2, 192, Note_off_c, 0, 47, 0
2, 192, Note_on_c, 0, 34, 127
2, 240, Note_off_c, 0, 34, 0
2, 240, Note_on_c, 0, 46, 127
2, 288, Note_off_c, 0, 46, 0
2, 288, Note_on_c, 0, 33, 127
2, 336, Note_off_c, 0, 33, 0
2, 336, Note_on_c, 0, 45, 127
2, 384, Note_off_c, 0, 45, 0
2, 384, Note_on_c, 0, 43, 127
2, 432, Note_off_c, 0, 43, 0
2, 432, Note_on_c, 0, 67, 127
2, 432, Note_on_c, 0, 55, 127
2, 480, Note_off_c, 0, 55, 0
2, 480, Note_off_c, 0, 67, 0
2, 480, Note_on_c, 0, 43, 127
2, 528, Note_off_c, 0, 43, 0
2, 528, Note_on_c, 0, 55, 127
2, 528, Note_on_c, 0, 67, 127
2, 576, Note_off_c, 0, 67, 0
2, 576, Note_off_c, 0, 55, 0
2, 576, Note_on_c, 0, 54, 127
2, 576, Note_on_c, 0, 66, 127
2, 672, Note_off_c, 0, 66, 0
2, 672, Note_off_c, 0, 54, 0
2, 672, Note_on_c, 0, 42, 127
2, 672, Note_on_c, 0, 54, 127
2, 768, Note_off_c, 0, 54, 0
2, 768, Note_off_c, 0, 42, 0
2, 768, Note_on_c, 0, 36, 127
2, 816, Note_off_c, 0, 36, 0
2, 816, Note_on_c, 0, 48, 127
2, 816, Note_on_c, 0, 60, 127
2, 864, Note_off_c, 0, 60, 0
2, 864, Note_off_c, 0, 48, 0
2, 864, Note_on_c, 0, 43, 127
2, 888, Note_off_c, 0, 43, 0
2, 888, Note_on_c, 0, 36, 127
2, 912, Note_off_c, 0, 36, 0
2, 912, Note_on_c, 0, 43, 127
2, 912, Note_on_c, 0, 60, 127
2, 936, Note_off_c, 0, 43, 0
2, 936, Note_on_c, 0, 48, 127
2, 960, Note_off_c, 0, 48, 0
2, 960, Note_off_c, 0, 60, 0
2, 960, Note_on_c, 0, 36, 127
2, 1008, Note_off_c, 0, 36, 0
2, 1008, Note_on_c, 0, 48, 127
2, 1008, Note_on_c, 0, 60, 127
2, 1056, Note_off_c, 0, 60, 0
2, 1056, Note_off_c, 0, 48, 0
2, 1056, Note_on_c, 0, 43, 127
2, 1080, Note_off_c, 0, 43, 0
2, 1080, Note_on_c, 0, 36, 127
2, 1104, Note_off_c, 0, 36, 0
2, 1104, Note_on_c, 0, 43, 127
2, 1104, Note_on_c, 0, 60, 127
2, 1128, Note_off_c, 0, 43, 0
2, 1128, Note_on_c, 0, 48, 127
2, 1152, Note_off_c, 0, 48, 0
2, 1152, Note_off_c, 0, 60, 0
2, 1152, Note_on_c, 0, 37, 127
2, 1200, Note_off_c, 0, 37, 0
2, 1200, Note_on_c, 0, 49, 127
2, 1200, Note_on_c, 0, 61, 127
2, 1248, Note_off_c, 0, 61, 0
2, 1248, Note_off_c, 0, 49, 0
2, 1248, Note_on_c, 0, 44, 127
2, 1272, Note_off_c, 0, 44, 0
2, 1272, Note_on_c, 0, 37, 127
2, 1296, Note_off_c, 0, 37, 0
2, 1296, Note_on_c, 0, 44, 127
2, 1296, Note_on_c, 0, 61, 127
2, 1320, Note_off_c, 0, 44, 0
2, 1320, Note_on_c, 0, 49, 127
2, 1344, Note_off_c, 0, 49, 0
2, 1344, Note_off_c, 0, 61, 0
2, 1344, Note_on_c, 0, 39, 127
2, 1392, Note_off_c, 0, 39, 0
2, 1392, Note_on_c, 0, 51, 127
2, 1392, Note_on_c, 0, 63, 127
2, 1440, Note_off_c, 0, 63, 0
2, 1440, Note_off_c, 0, 51, 0
2, 1440, Note_on_c, 0, 46, 127
2, 1464, Note_off_c, 0, 46, 0
2, 1464, Note_on_c, 0, 39, 127
2, 1488, Note_off_c, 0, 39, 0
2, 1488, Note_on_c, 0, 46, 127
2, 1488, Note_on_c, 0, 63, 127
2, 1512, Note_off_c, 0, 46, 0
2, 1512, Note_on_c, 0, 51, 127
2, 1536, Note_off_c, 0, 51, 0
2, 1536, Note_off_c, 0, 63, 0
2, 1536, Note_on_c, 0, 36, 127
2, 1584, Note_off_c, 0, 36, 0
2, 1584, Note_on_c, 0, 48, 127
2, 1584, Note_on_c, 0, 60, 127
2, 1632, Note_off_c, 0, 60, 0
2, 1632, Note_off_c, 0, 48, 0
2, 1632, Note_on_c, 0, 43, 127
2, 1656, Note_off_c, 0, 43, 0
2, 1656, Note_on_c, 0, 36, 127
2, 1680, Note_off_c, 0, 36, 0
2, 1680, Note_on_c, 0, 43, 127
2, 1680, Note_on_c, 0, 60, 127
2, 1704, Note_off_c, 0, 43, 0
2, 1704, Note_on_c, 0, 48, 127
2, 1728, Note_off_c, 0, 48, 0
2, 1728, Note_off_c, 0, 60, 0
2, 1728, Note_on_c, 0, 36, 127
2, 1776, Note_off_c, 0, 36, 0
2, 1776, Note_on_c, 0, 48, 127
2, 1776, Note_on_c, 0, 60, 127
2, 1824, Note_off_c, 0, 60, 0
2, 1824, Note_off_c, 0, 48, 0
2, 1824, Note_on_c, 0, 43, 127
2, 1848, Note_off_c, 0, 43, 0
2, 1848, Note_on_c, 0, 36, 127
2, 1872, Note_off_c, 0, 36, 0
2, 1872, Note_on_c, 0, 43, 127
2, 1872, Note_on_c, 0, 60, 127
2, 1896, Note_off_c, 0, 43, 0
2, 1896, Note_on_c, 0, 48, 127
2, 1920, Note_off_c, 0, 48, 0
2, 1920, Note_off_c, 0, 60, 0
2, 1920, Note_on_c, 0, 32, 127
2, 1968, Note_off_c, 0, 32, 0
2, 1968, Note_on_c, 0, 44, 127
2, 1968, Note_on_c, 0, 56, 127
2, 2016, Note_off_c, 0, 56, 0
2, 2016, Note_off_c, 0, 44, 0
2, 2016, Note_on_c, 0, 39, 127
2, 2040, Note_off_c, 0, 39, 0
2, 2040, Note_on_c, 0, 32, 127
2, 2064, Note_off_c, 0, 32, 0
2, 2064, Note_on_c, 0, 39, 127
2, 2064, Note_on_c, 0, 56, 127
2, 2088, Note_off_c, 0, 39, 0
2, 2088, Note_on_c, 0, 44, 127
2, 2112, Note_off_c, 0, 44, 0
2, 2112, Note_off_c, 0, 56, 0
2, 2112, Note_on_c, 0, 31, 127
2, 2160, Note_off_c, 0, 31, 0
2, 2160, Note_on_c, 0, 43, 127
2, 2160, Note_on_c, 0, 55, 127
2, 2208, Note_off_c, 0, 55, 0
2, 2208, Note_off_c, 0, 43, 0
2, 2208, Note_on_c, 0, 38, 127
2, 2232, Note_off_c, 0, 38, 0
2, 2232, Note_on_c, 0, 31, 127
2, 2256, Note_off_c, 0, 31, 0
2, 2256, Note_on_c, 0, 38, 127
2, 2256, Note_on_c, 0, 55, 127
2, 2280, Note_off_c, 0, 38, 0
2, 2280, Note_on_c, 0, 43, 127
2, 2304, Note_off_c, 0, 43, 0
2, 2304, Note_off_c, 0, 55, 0
2, 2304, Note_on_c, 0, 36, 127
2, 2352, Note_off_c, 0, 36, 0
2, 2352, Note_on_c, 0, 48, 127
2, 2352, Note_on_c, 0, 60, 127
2, 2400, Note_off_c, 0, 60, 0
2, 2400, Note_off_c, 0, 48, 0
2, 2400, Note_on_c, 0, 43, 127
2, 2424, Note_off_c, 0, 43, 0
2, 2424, Note_on_c, 0, 36, 127
2, 2448, Note_off_c, 0, 36, 0
2, 2448, Note_on_c, 0, 43, 127
2, 2448, Note_on_c, 0, 60, 127
2, 2472, Note_off_c, 0, 43, 0
2, 2472, Note_on_c, 0, 48, 127
2, 2496, Note_off_c, 0, 48, 0
2, 2496, Note_off_c, 0, 60, 0
2, 2496, Note_on_c, 0, 36, 127
2, 2544, Note_off_c, 0, 36, 0
2, 2544, Note_on_c, 0, 48, 127
2, 2544, Note_on_c, 0, 60, 127
2, 2592, Note_off_c, 0, 60, 0
2, 2592, Note_off_c, 0, 48, 0
2, 2592, Note_on_c, 0, 43, 127
2, 2616, Note_off_c, 0, 43, 0
2, 2616, Note_on_c, 0, 36, 127
2, 2640, Note_off_c, 0, 36, 0
2, 2640, Note_on_c, 0, 43, 127
2, 2640, Note_on_c, 0, 60, 127
2, 2664, Note_off_c, 0, 43, 0
2, 2664, Note_on_c, 0, 48, 127
2, 2688, Note_off_c, 0, 48, 0
2, 2688, Note_off_c, 0, 60, 0
2, 2688, Note_on_c, 0, 37, 127
2, 2736, Note_off_c, 0, 37, 0
2, 2736, Note_on_c, 0, 49, 127
2, 2736, Note_on_c, 0, 61, 127
2, 2784, Note_off_c, 0, 61, 0
2, 2784, Note_off_c, 0, 49, 0
2, 2784, Note_on_c, 0, 44, 127
2, 2808, Note_off_c, 0, 44, 0
2, 2808, Note_on_c, 0, 37, 127
2, 2832, Note_off_c, 0, 37, 0
2, 2832, Note_on_c, 0, 44, 127
2, 2832, Note_on_c, 0, 61, 127
2, 2856, Note_off_c, 0, 44, 0
2, 2856, Note_on_c, 0, 49, 127
2, 2880, Note_off_c, 0, 49, 0
2, 2880, Note_off_c, 0, 61, 0
2, 2880, Note_on_c, 0, 39, 127
2, 2928, Note_off_c, 0, 39, 0
2, 2928, Note_on_c, 0, 51, 127
2, 2928, Note_on_c, 0, 63, 127
2, 2976, Note_off_c, 0, 63, 0
2, 2976, Note_off_c, 0, 51, 0
2, 2976, Note_on_c, 0, 46, 127
2, 3000, Note_off_c, 0, 46, 0
2, 3000, Note_on_c, 0, 39, 127
2, 3024, Note_off_c, 0, 39, 0
2, 3024, Note_on_c, 0, 46, 127
2, 3024, Note_on_c, 0, 63, 127
2, 3048, Note_off_c, 0, 46, 0
2, 3048, Note_on_c, 0, 51, 127
2, 3072, Note_off_c, 0, 51, 0
2, 3072, Note_off_c, 0, 63, 0
2, 3072, Note_on_c, 0, 36, 127
2, 3120, Note_off_c, 0, 36, 0
2, 3120, Note_on_c, 0, 48, 127
2, 3120, Note_on_c, 0, 60, 127
2, 3168, Note_off_c, 0, 60, 0
2, 3168, Note_off_c, 0, 48, 0
2, 3168, Note_on_c, 0, 43, 127
2, 3192, Note_off_c, 0, 43, 0
2, 3192, Note_on_c, 0, 36, 127
2, 3216, Note_off_c, 0, 36, 0
2, 3216, Note_on_c, 0, 43, 127
2, 3216, Note_on_c, 0, 60, 127
2, 3240, Note_off_c, 0, 43, 0
2, 3240, Note_on_c, 0, 48, 127
2, 3264, Note_off_c, 0, 48, 0
2, 3264, Note_off_c, 0, 60, 0
2, 3264, Note_on_c, 0, 36, 127
2, 3312, Note_off_c, 0, 36, 0
2, 3312, Note_on_c, 0, 48, 127
2, 3312, Note_on_c, 0, 60, 127
2, 3360, Note_off_c, 0, 60, 0
2, 3360, Note_off_c, 0, 48, 0
2, 3360, Note_on_c, 0, 43, 127
2, 3384, Note_off_c, 0, 43, 0
2, 3384, Note_on_c, 0, 36, 127
2, 3408, Note_off_c, 0, 36, 0
2, 3408, Note_on_c, 0, 43, 127
2, 3408, Note_on_c, 0, 60, 127
2, 3432, Note_off_c, 0, 43, 0
2, 3432, Note_on_c, 0, 48, 127
2, 3456, Note_off_c, 0, 48, 0
2, 3456, Note_off_c, 0, 60, 0
2, 3456, Note_on_c, 0, 32, 127
2, 3504, Note_off_c, 0, 32, 0
2, 3504, Note_on_c, 0, 44, 127
2, 3504, Note_on_c, 0, 56, 127
2, 3552, Note_off_c, 0, 56, 0
2, 3552, Note_off_c, 0, 44, 0
2, 3552, Note_on_c, 0, 39, 127
2, 3576, Note_off_c, 0, 39, 0
2, 3576, Note_on_c, 0, 32, 127
2, 3600, Note_off_c, 0, 32, 0
2, 3600, Note_on_c, 0, 39, 127
2, 3600, Note_on_c, 0, 56, 127
2, 3624, Note_off_c, 0, 39, 0
2, 3624, Note_on_c, 0, 44, 127
2, 3648, Note_off_c, 0, 44, 0
2, 3648, Note_off_c, 0, 56, 0
2, 3648, Note_on_c, 0, 31, 127
2, 3696, Note_off_c, 0, 31, 0
2, 3696, Note_on_c, 0, 43, 127
2, 3696, Note_on_c, 0, 55, 127
2, 3744, Note_off_c, 0, 55, 0
2, 3744, Note_off_c, 0, 43, 0
2, 3744, Note_on_c, 0, 38, 127
2, 3768, Note_off_c, 0, 38, 0
2, 3768, Note_on_c, 0, 31, 127
2, 3792, Note_off_c, 0, 31, 0
2, 3792, Note_on_c, 0, 38, 127
2, 3792, Note_on_c, 0, 55, 127
2, 3816, Note_off_c, 0, 38, 0
2, 3816, Note_on_c, 0, 43, 127
2, 3840, Note_off_c, 0, 43, 0
2, 3840, Note_off_c, 0, 55, 0
2, 3840, Note_on_c, 0, 36, 127
2, 3888, Note_off_c, 0, 36, 0
2, 3888, Note_on_c, 0, 48, 127
2, 3888, Note_on_c, 0, 60, 127
2, 3936, Note_off_c, 0, 60, 0
2, 3936, Note_off_c, 0, 48, 0
2, 3936, Note_on_c, 0, 43, 127
2, 3960, Note_off_c, 0, 43, 0
2, 3960, Note_on_c, 0, 36, 127
2, 3984, Note_off_c, 0, 36, 0
2, 3984, Note_on_c, 0, 43, 127
2, 3984, Note_on_c, 0, 60, 127
2, 4008, Note_off_c, 0, 43, 0
2, 4008, Note_on_c, 0, 48, 127
2, 4032, Note_off_c, 0, 48, 0
2, 4032, Note_off_c, 0, 60, 0
2, 4032, Note_on_c, 0, 36, 127
2, 4080, Note_off_c, 0, 36, 0
2, 4080, Note_on_c, 0, 48, 127
2, 4080, Note_on_c, 0, 60, 127
2, 4128, Note_off_c, 0, 60, 0
2, 4128, Note_off_c, 0, 48, 0
2, 4128, Note_on_c, 0, 43, 127
2, 4152, Note_off_c, 0, 43, 0
2, 4152, Note_on_c, 0, 36, 127
2, 4176, Note_off_c, 0, 36, 0
2, 4176, Note_on_c, 0, 43, 127
2, 4176, Note_on_c, 0, 60, 127
2, 4200, Note_off_c, 0, 43, 0
2, 4200, Note_on_c, 0, 48, 127
2, 4224, Note_off_c, 0, 48, 0
2, 4224, Note_off_c, 0, 60, 0
2, 4224, Note_on_c, 0, 37, 127
2, 4272, Note_off_c, 0, 37, 0
2, 4272, Note_on_c, 0, 49, 127
2, 4272, Note_on_c, 0, 61, 127
2, 4320, Note_off_c, 0, 61, 0
2, 4320, Note_off_c, 0, 49, 0
2, 4320, Note_on_c, 0, 44, 127
2, 4344, Note_off_c, 0, 44, 0
2, 4344, Note_on_c, 0, 37, 127
2, 4368, Note_off_c, 0, 37, 0
2, 4368, Note_on_c, 0, 44, 127
2, 4368, Note_on_c, 0, 61, 127
2, 4392, Note_off_c, 0, 44, 0
2, 4392, Note_on_c, 0, 49, 127
2, 4416, Note_off_c, 0, 49, 0
2, 4416, Note_off_c, 0, 61, 0
2, 4416, Note_on_c, 0, 39, 127
2, 4464, Note_off_c, 0, 39, 0
2, 4464, Note_on_c, 0, 51, 127
2, 4464, Note_on_c, 0, 63, 127
2, 4512, Note_off_c, 0, 63, 0
2, 4512, Note_off_c, 0, 51, 0
2, 4512, Note_on_c, 0, 46, 127
2, 4536, Note_off_c, 0, 46, 0
2, 4536, Note_on_c, 0, 39, 127
2, 4560, Note_off_c, 0, 39, 0
2, 4560, Note_on_c, 0, 46, 127
2, 4560, Note_on_c, 0, 63, 127
2, 4584, Note_off_c, 0, 46, 0
2, 4584, Note_on_c, 0, 51, 127
2, 4608, Note_off_c, 0, 51, 0
2, 4608, Note_off_c, 0, 63, 0
2, 4608, Note_on_c, 0, 36, 127
2, 4656, Note_off_c, 0, 36, 0
2, 4656, Note_on_c, 0, 48, 127
2, 4656, Note_on_c, 0, 60, 127
2, 4704, Note_off_c, 0, 60, 0
2, 4704, Note_off_c, 0, 48, 0
2, 4704, Note_on_c, 0, 43, 127
2, 4728, Note_off_c, 0, 43, 0
2, 4728, Note_on_c, 0, 36, 127
2, 4752, Note_off_c, 0, 36, 0
2, 4752, Note_on_c, 0, 43, 127
2, 4752, Note_on_c, 0, 60, 127
2, 4776, Note_off_c, 0, 43, 0
2, 4776, Note_on_c, 0, 48, 127
2, 4800, Note_off_c, 0, 48, 0
2, 4800, Note_off_c, 0, 60, 0
2, 4800, Note_on_c, 0, 36, 127
2, 4848, Note_off_c, 0, 36, 0
2, 4848, Note_on_c, 0, 48, 127
2, 4848, Note_on_c, 0, 60, 127
2, 4896, Note_off_c, 0, 60, 0
2, 4896, Note_off_c, 0, 48, 0
2, 4896, Note_on_c, 0, 43, 127
2, 4920, Note_off_c, 0, 43, 0
2, 4920, Note_on_c, 0, 36, 127
2, 4944, Note_off_c, 0, 36, 0
2, 4944, Note_on_c, 0, 43, 127
2, 4944, Note_on_c, 0, 60, 127
2, 4968, Note_off_c, 0, 43, 0
2, 4968, Note_on_c, 0, 48, 127
2, 4992, Note_off_c, 0, 48, 0
2, 4992, Note_off_c, 0, 60, 0
2, 4992, Note_on_c, 0, 32, 127
2, 5040, Note_off_c, 0, 32, 0
2, 5040, Note_on_c, 0, 44, 127
2, 5040, Note_on_c, 0, 56, 127
2, 5088, Note_off_c, 0, 56, 0
2, 5088, Note_off_c, 0, 44, 0
2, 5088, Note_on_c, 0, 39, 127
2, 5112, Note_off_c, 0, 39, 0
2, 5112, Note_on_c, 0, 32, 127
2, 5136, Note_off_c, 0, 32, 0
2, 5136, Note_on_c, 0, 39, 127
2, 5136, Note_on_c, 0, 56, 127
2, 5160, Note_off_c, 0, 39, 0
2, 5160, Note_on_c, 0, 44, 127
2, 5184, Note_off_c, 0, 44, 0
2, 5184, Note_off_c, 0, 56, 0
2, 5184, Note_on_c, 0, 31, 127
2, 5232, Note_off_c, 0, 31, 0
2, 5232, Note_on_c, 0, 43, 127
2, 5232, Note_on_c, 0, 55, 127
2, 5280, Note_off_c, 0, 55, 0
2, 5280, Note_off_c, 0, 43, 0
2, 5280, Note_on_c, 0, 38, 127
2, 5304, Note_off_c, 0, 38, 0
2, 5304, Note_on_c, 0, 31, 127
2, 5328, Note_off_c, 0, 31, 0
2, 5328, Note_on_c, 0, 38, 127
2, 5328, Note_on_c, 0, 55, 127
2, 5352, Note_off_c, 0, 38, 0
2, 5352, Note_on_c, 0, 43, 127
2, 5376, Note_off_c, 0, 43, 0
2, 5376, Note_off_c, 0, 55, 0
2, 5376, Note_on_c, 0, 36, 127
2, 5424, Note_off_c, 0, 36, 0
2, 5424, Note_on_c, 0, 48, 127
2, 5424, Note_on_c, 0, 60, 127
2, 5472, Note_off_c, 0, 60, 0
2, 5472, Note_off_c, 0, 48, 0
2, 5472, Note_on_c, 0, 43, 127
2, 5496, Note_off_c, 0, 43, 0
2, 5496, Note_on_c, 0, 36, 127
2, 5520, Note_off_c, 0, 36, 0
2, 5520, Note_on_c, 0, 43, 127
2, 5520, Note_on_c, 0, 60, 127
2, 5544, Note_off_c, 0, 43, 0
2, 5544, Note_on_c, 0, 48, 127
2, 5568, Note_off_c, 0, 48, 0
2, 5568, Note_off_c, 0, 60, 0
2, 5568, Note_on_c, 0, 36, 127
2, 5616, Note_off_c, 0, 36, 0
2, 5616, Note_on_c, 0, 48, 127
2, 5616, Note_on_c, 0, 60, 127
2, 5664, Note_off_c, 0, 60, 0
2, 5664, Note_off_c, 0, 48, 0
2, 5664, Note_on_c, 0, 43, 127
2, 5688, Note_off_c, 0, 43, 0
2, 5688, Note_on_c, 0, 36, 127
2, 5712, Note_off_c, 0, 36, 0
2, 5712, Note_on_c, 0, 43, 127
2, 5712, Note_on_c, 0, 60, 127
2, 5736, Note_off_c, 0, 43, 0
2, 5736, Note_on_c, 0, 48, 127
2, 5760, Note_off_c, 0, 48, 0
2, 5760, Note_off_c, 0, 60, 0
2, 5760, Note_on_c, 0, 37, 127
2, 5808, Note_off_c, 0, 37, 0
2, 5808, Note_on_c, 0, 49, 127
2, 5808, Note_on_c, 0, 61, 127
2, 5856, Note_off_c, 0, 61, 0
2, 5856, Note_off_c, 0, 49, 0
2, 5856, Note_on_c, 0, 44, 127
2, 5880, Note_off_c, 0, 44, 0
2, 5880, Note_on_c, 0, 37, 127
2, 5904, Note_off_c, 0, 37, 0
2, 5904, Note_on_c, 0, 44, 127
2, 5904, Note_on_c, 0, 61, 127
2, 5928, Note_off_c, 0, 44, 0
2, 5928, Note_on_c, 0, 49, 127
2, 5952, Note_off_c, 0, 49, 0
2, 5952, Note_off_c, 0, 61, 0
2, 5952, Note_on_c, 0, 39, 127
2, 6000, Note_off_c, 0, 39, 0
2, 6000, Note_on_c, 0, 51, 127
2, 6000, Note_on_c, 0, 63, 127
2, 6048, Note_off_c, 0, 63, 0
2, 6048, Note_off_c, 0, 51, 0
2, 6048, Note_on_c, 0, 46, 127
2, 6072, Note_off_c, 0, 46, 0
2, 6072, Note_on_c, 0, 39, 127
2, 6096, Note_off_c, 0, 39, 0
2, 6096, Note_on_c, 0, 46, 127
2, 6096, Note_on_c, 0, 63, 127
2, 6120, Note_off_c, 0, 46, 0
2, 6120, Note_on_c, 0, 51, 127
2, 6144, Note_off_c, 0, 51, 0
2, 6144, Note_off_c, 0, 63, 0
2, 6144, Note_on_c, 0, 36, 127
2, 6192, Note_off_c, 0, 36, 0
2, 6192, Note_on_c, 0, 48, 127
2, 6192, Note_on_c, 0, 60, 127
2, 6240, Note_off_c, 0, 60, 0
2, 6240, Note_off_c, 0, 48, 0
2, 6240, Note_on_c, 0, 43, 127
2, 6264, Note_off_c, 0, 43, 0
2, 6264, Note_on_c, 0, 36, 127
2, 6288, Note_off_c, 0, 36, 0
2, 6288, Note_on_c, 0, 43, 127
2, 6288, Note_on_c, 0, 60, 127
2, 6312, Note_off_c, 0, 43, 0
2, 6312, Note_on_c, 0, 48, 127
2, 6336, Note_off_c, 0, 48, 0
2, 6336, Note_off_c, 0, 60, 0
2, 6336, Note_on_c, 0, 36, 127
2, 6384, Note_off_c, 0, 36, 0
2, 6384, Note_on_c, 0, 48, 127
2, 6384, Note_on_c, 0, 60, 127
2, 6432, Note_off_c, 0, 60, 0
2, 6432, Note_off_c, 0, 48, 0
2, 6432, Note_on_c, 0, 43, 127
2, 6456, Note_off_c, 0, 43, 0
2, 6456, Note_on_c, 0, 36, 127
2, 6480, Note_off_c, 0, 36, 0
2, 6480, Note_on_c, 0, 43, 127
2, 6480, Note_on_c, 0, 60, 127
2, 6504, Note_off_c, 0, 43, 0
2, 6504, Note_on_c, 0, 48, 127
2, 6528, Note_off_c, 0, 48, 0
2, 6528, Note_off_c, 0, 60, 0
2, 6528, Note_on_c, 0, 32, 127
2, 6576, Note_off_c, 0, 32, 0
2, 6576, Note_on_c, 0, 44, 127
2, 6576, Note_on_c, 0, 56, 127
2, 6624, Note_off_c, 0, 56, 0
2, 6624, Note_off_c, 0, 44, 0
2, 6624, Note_on_c, 0, 39, 127
2, 6648, Note_off_c, 0, 39, 0
2, 6648, Note_on_c, 0, 32, 127
2, 6672, Note_off_c, 0, 32, 0
2, 6672, Note_on_c, 0, 39, 127
2, 6672, Note_on_c, 0, 56, 127
2, 6696, Note_off_c, 0, 39, 0
2, 6696, Note_on_c, 0, 44, 127
2, 6720, Note_off_c, 0, 44, 0
2, 6720, Note_off_c, 0, 56, 0
2, 6720, Note_on_c, 0, 31, 127
2, 6768, Note_off_c, 0, 31, 0
2, 6768, Note_on_c, 0, 43, 127
2, 6768, Note_on_c, 0, 55, 127
2, 6816, Note_off_c, 0, 55, 0
2, 6816, Note_off_c, 0, 43, 0
2, 6816, Note_on_c, 0, 38, 127
2, 6840, Note_off_c, 0, 38, 0
2, 6840, Note_on_c, 0, 31, 127
2, 6864, Note_off_c, 0, 31, 0
2, 6864, Note_on_c, 0, 38, 127
2, 6864, Note_on_c, 0, 55, 127
2, 6888, Note_off_c, 0, 38, 0
2, 6888, Note_on_c, 0, 43, 127
2, 6912, Note_off_c, 0, 43, 0
2, 6912, Note_off_c, 0, 55, 0
2, 6912, Note_on_c, 0, 32, 127
2, 6960, Note_off_c, 0, 32, 0
2, 6960, Note_on_c, 0, 44, 127
2, 6960, Note_on_c, 0, 56, 127
2, 7008, Note_off_c, 0, 56, 0
2, 7008, Note_off_c, 0, 44, 0
2, 7008, Note_on_c, 0, 39, 127
2, 7032, Note_off_c, 0, 39, 0
2, 7032, Note_on_c, 0, 32, 127
2, 7056, Note_off_c, 0, 32, 0
2, 7056, Note_on_c, 0, 39, 127
2, 7056, Note_on_c, 0, 56, 127
2, 7080, Note_off_c, 0, 39, 0
2, 7080, Note_on_c, 0, 44, 127
2, 7104, Note_off_c, 0, 44, 0
2, 7104, Note_off_c, 0, 56, 0
2, 7104, Note_on_c, 0, 32, 127
2, 7152, Note_off_c, 0, 32, 0
2, 7152, Note_on_c, 0, 44, 127
2, 7152, Note_on_c, 0, 56, 127
2, 7200, Note_off_c, 0, 56, 0
2, 7200, Note_off_c, 0, 44, 0
2, 7200, Note_on_c, 0, 39, 127
2, 7224, Note_off_c, 0, 39, 0
2, 7224, Note_on_c, 0, 32, 127
2, 7248, Note_off_c, 0, 32, 0
2, 7248, Note_on_c, 0, 39, 127
2, 7248, Note_on_c, 0, 56, 127
2, 7272, Note_off_c, 0, 39, 0
2, 7272, Note_on_c, 0, 44, 127
2, 7296, Note_off_c, 0, 44, 0
2, 7296, Note_off_c, 0, 56, 0
2, 7296, Note_on_c, 0, 32, 127
2, 7344, Note_off_c, 0, 32, 0
2, 7344, Note_on_c, 0, 44, 127
2, 7344, Note_on_c, 0, 56, 127
2, 7392, Note_off_c, 0, 56, 0
2, 7392, Note_off_c, 0, 44, 0
2, 7392, Note_on_c, 0, 39, 127
2, 7416, Note_off_c, 0, 39, 0
2, 7416, Note_on_c, 0, 32, 127
2, 7440, Note_off_c, 0, 32, 0
2, 7440, Note_on_c, 0, 39, 127
2, 7440, Note_on_c, 0, 56, 127
2, 7464, Note_off_c, 0, 39, 0
2, 7464, Note_on_c, 0, 44, 127
2, 7488, Note_off_c, 0, 44, 0
2, 7488, Note_off_c, 0, 56, 0
2, 7488, Note_on_c, 0, 32, 127
2, 7536, Note_off_c, 0, 32, 0
2, 7536, Note_on_c, 0, 44, 127
2, 7536, Note_on_c, 0, 56, 127
2, 7584, Note_off_c, 0, 56, 0
2, 7584, Note_off_c, 0, 44, 0
2, 7584, Note_on_c, 0, 39, 127
2, 7608, Note_off_c, 0, 39, 0
2, 7608, Note_on_c, 0, 32, 127
2, 7632, Note_off_c, 0, 32, 0
2, 7632, Note_on_c, 0, 39, 127
2, 7632, Note_on_c, 0, 56, 127
2, 7656, Note_off_c, 0, 39, 0
2, 7656, Note_on_c, 0, 44, 127
2, 7680, Note_off_c, 0, 44, 0
2, 7680, Note_off_c, 0, 56, 0
2, 7680, Note_on_c, 0, 31, 127
2, 7728, Note_off_c, 0, 31, 0
2, 7728, Note_on_c, 0, 43, 127
2, 7728, Note_on_c, 0, 55, 127
2, 7776, Note_off_c, 0, 55, 0
2, 7776, Note_off_c, 0, 43, 0
2, 7776, Note_on_c, 0, 38, 127
2, 7800, Note_off_c, 0, 38, 0
2, 7800, Note_on_c, 0, 31, 127
2, 7824, Note_off_c, 0, 31, 0
2, 7824, Note_on_c, 0, 38, 127
2, 7824, Note_on_c, 0, 55, 127
2, 7848, Note_off_c, 0, 38, 0
2, 7848, Note_on_c, 0, 43, 127
2, 7872, Note_off_c, 0, 43, 0
2, 7872, Note_off_c, 0, 55, 0
2, 7872, Note_on_c, 0, 31, 127
2, 7920, Note_off_c, 0, 31, 0
2, 7920, Note_on_c, 0, 43, 127
2, 7920, Note_on_c, 0, 55, 127
2, 7968, Note_off_c, 0, 55, 0
2, 7968, Note_off_c, 0, 43, 0
2, 7968, Note_on_c, 0, 38, 127
2, 7992, Note_off_c, 0, 38, 0
2, 7992, Note_on_c, 0, 31, 127
2, 8016, Note_off_c, 0, 31, 0
2, 8016, Note_on_c, 0, 38, 127
2, 8016, Note_on_c, 0, 55, 127
2, 8040, Note_off_c, 0, 38, 0
2, 8040, Note_on_c, 0, 43, 127
2, 8064, Note_off_c, 0, 43, 0
2, 8064, Note_off_c, 0, 55, 0
2, 8064, Note_on_c, 0, 31, 127
2, 8112, Note_off_c, 0, 31, 0
2, 8112, Note_on_c, 0, 43, 127
2, 8112, Note_on_c, 0, 55, 127
2, 8160, Note_off_c, 0, 55, 0
2, 8160, Note_off_c, 0, 43, 0
2, 8160, Note_on_c, 0, 38, 127
2, 8184, Note_off_c, 0, 38, 0
2, 8184, Note_on_c, 0, 31, 127
2, 8208, Note_off_c, 0, 31, 0
2, 8208, Note_on_c, 0, 38, 127
2, 8208, Note_on_c, 0, 55, 127
2, 8232, Note_off_c, 0, 38, 0
2, 8232, Note_on_c, 0, 43, 127
2, 8256, Note_off_c, 0, 43, 0
2, 8256, Note_off_c, 0, 55, 0
2, 8256, Note_on_c, 0, 31, 127
2, 8304, Note_off_c, 0, 31, 0
2, 8304, Note_on_c, 0, 43, 127
2, 8304, Note_on_c, 0, 55, 127
2, 8352, Note_off_c, 0, 55, 0
2, 8352, Note_off_c, 0, 43, 0
2, 8352, Note_on_c, 0, 38, 127
2, 8376, Note_off_c, 0, 38, 0
2, 8376, Note_on_c, 0, 31, 127
2, 8400, Note_off_c, 0, 31, 0
2, 8400, Note_on_c, 0, 38, 127
2, 8400, Note_on_c, 0, 55, 127
2, 8424, Note_off_c, 0, 38, 0
2, 8424, Note_on_c, 0, 43, 127
2, 8448, Note_off_c, 0, 43, 0
2, 8448, Note_off_c, 0, 55, 0
2, 8448, Note_on_c, 0, 32, 127
2, 8496, Note_off_c, 0, 32, 0
2, 8496, Note_on_c, 0, 44, 127
2, 8496, Note_on_c, 0, 56, 127
2, 8544, Note_off_c, 0, 56, 0
2, 8544, Note_off_c, 0, 44, 0
2, 8544, Note_on_c, 0, 39, 127
2, 8568, Note_off_c, 0, 39, 0
2, 8568, Note_on_c, 0, 32, 127
2, 8592, Note_off_c, 0, 32, 0
2, 8592, Note_on_c, 0, 39, 127
2, 8592, Note_on_c, 0, 56, 127
2, 8616, Note_off_c, 0, 39, 0
2, 8616, Note_on_c, 0, 44, 127
2, 8640, Note_off_c, 0, 44, 0
2, 8640, Note_off_c, 0, 56, 0
2, 8640, Note_on_c, 0, 32, 127
2, 8688, Note_off_c, 0, 32, 0
2, 8688, Note_on_c, 0, 44, 127
2, 8688, Note_on_c, 0, 56, 127
2, 8736, Note_off_c, 0, 56, 0
2, 8736, Note_off_c, 0, 44, 0
2, 8736, Note_on_c, 0, 39, 127
2, 8760, Note_off_c, 0, 39, 0
2, 8760, Note_on_c, 0, 32, 127
2, 8784, Note_off_c, 0, 32, 0
2, 8784, Note_on_c, 0, 39, 127
2, 8784, Note_on_c, 0, 56, 127
2, 8808, Note_off_c, 0, 39, 0
2, 8808, Note_on_c, 0, 44, 127
2, 8832, Note_off_c, 0, 44, 0
2, 8832, Note_off_c, 0, 56, 0
2, 8832, Note_on_c, 0, 32, 127
2, 8880, Note_off_c, 0, 32, 0
2, 8880, Note_on_c, 0, 44, 127
2, 8880, Note_on_c, 0, 56, 127
2, 8928, Note_off_c, 0, 56, 0
2, 8928, Note_off_c, 0, 44, 0
2, 8928, Note_on_c, 0, 39, 127
2, 8952, Note_off_c, 0, 39, 0
2, 8952, Note_on_c, 0, 32, 127
2, 8976, Note_off_c, 0, 32, 0
2, 8976, Note_on_c, 0, 39, 127
2, 8976, Note_on_c, 0, 56, 127
2, 9000, Note_off_c, 0, 39, 0
2, 9000, Note_on_c, 0, 44, 127
2, 9024, Note_off_c, 0, 44, 0
2, 9024, Note_off_c, 0, 56, 0
2, 9024, Note_on_c, 0, 32, 127
2, 9072, Note_off_c, 0, 32, 0
2, 9072, Note_on_c, 0, 44, 127
2, 9072, Note_on_c, 0, 56, 127
2, 9120, Note_off_c, 0, 56, 0
2, 9120, Note_off_c, 0, 44, 0
2, 9120, Note_on_c, 0, 39, 127
2, 9144, Note_off_c, 0, 39, 0
2, 9144, Note_on_c, 0, 32, 127
2, 9168, Note_off_c, 0, 32, 0
2, 9168, Note_on_c, 0, 39, 127
2, 9168, Note_on_c, 0, 56, 127
2, 9192, Note_off_c, 0, 39, 0
2, 9192, Note_on_c, 0, 44, 127
2, 9216, Note_off_c, 0, 44, 0
2, 9216, Note_off_c, 0, 56, 0
2, 9216, Note_on_c, 0, 31, 127
2, 9264, Note_off_c, 0, 31, 0
2, 9264, Note_on_c, 0, 43, 127
2, 9264, Note_on_c, 0, 55, 127
2, 9312, Note_off_c, 0, 55, 0
2, 9312, Note_off_c, 0, 43, 0
2, 9312, Note_on_c, 0, 38, 127
2, 9336, Note_off_c, 0, 38, 0
2, 9336, Note_on_c, 0, 31, 127
2, 9360, Note_off_c, 0, 31, 0
2, 9360, Note_on_c, 0, 38, 127
2, 9360, Note_on_c, 0, 55, 127
2, 9384, Note_off_c, 0, 38, 0
2, 9384, Note_on_c, 0, 43, 127
2, 9408, Note_off_c, 0, 43, 0
2, 9408, Note_off_c, 0, 55, 0
2, 9408, Note_on_c, 0, 31, 127
2, 9456, Note_off_c, 0, 31, 0
2, 9456, Note_on_c, 0, 43, 127
2, 9456, Note_on_c, 0, 55, 127
2, 9504, Note_off_c, 0, 55, 0
2, 9504, Note_off_c, 0, 43, 0
2, 9504, Note_on_c, 0, 38, 127
2, 9528, Note_off_c, 0, 38, 0
2, 9528, Note_on_c, 0, 31, 127
2, 9552, Note_off_c, 0, 31, 0
2, 9552, Note_on_c, 0, 38, 127
2, 9552, Note_on_c, 0, 55, 127
2, 9576, Note_off_c, 0, 38, 0
2, 9576, Note_on_c, 0, 43, 127
2, 9600, Note_off_c, 0, 43, 0
2, 9600, Note_off_c, 0, 55, 0
2, 9600, Note_on_c, 0, 31, 127
2, 9648, Note_off_c, 0, 31, 0
2, 9648, Note_on_c, 0, 43, 127
2, 9648, Note_on_c, 0, 55, 127
2, 9696, Note_off_c, 0, 55, 0
2, 9696, Note_off_c, 0, 43, 0
2, 9696, Note_on_c, 0, 38, 127
2, 9720, Note_off_c, 0, 38, 0
2, 9720, Note_on_c, 0, 31, 127
2, 9744, Note_off_c, 0, 31, 0
2, 9744, Note_on_c, 0, 38, 127
2, 9744, Note_on_c, 0, 55, 127
2, 9768, Note_off_c, 0, 38, 0
2, 9768, Note_on_c, 0, 43, 127
2, 9792, Note_off_c, 0, 43, 0
2, 9792, Note_off_c, 0, 55, 0
2, 9792, Note_on_c, 0, 31, 127
2, 9840, Note_off_c, 0, 31, 0
2, 9840, Note_on_c, 0, 43, 127
2, 9840, Note_on_c, 0, 55, 127
2, 9888, Note_off_c, 0, 55, 0
2, 9888, Note_off_c, 0, 43, 0
2, 9888, Note_on_c, 0, 38, 127
2, 9912, Note_off_c, 0, 38, 0
2, 9912, Note_on_c, 0, 31, 127
2, 9936, Note_off_c, 0, 31, 0
2, 9936, Note_on_c, 0, 38, 127
2, 9936, Note_on_c, 0, 55, 127
2, 9960, Note_off_c, 0, 38, 0
2, 9960, Note_on_c, 0, 43, 127
2, 9984, Note_off_c, 0, 43, 0
2, 9984, Note_off_c, 0, 55, 0
2, 9984, Note_on_c, 0, 32, 127
2, 10032, Note_off_c, 0, 32, 0
2, 10032, Note_on_c, 0, 44, 127
2, 10032, Note_on_c, 0, 56, 127
2, 10080, Note_off_c, 0, 56, 0
2, 10080, Note_off_c, 0, 44, 0
2, 10080, Note_on_c, 0, 39, 127
2, 10104, Note_off_c, 0, 39, 0
2, 10104, Note_on_c, 0, 32, 127
2, 10128, Note_off_c, 0, 32, 0
2, 10128, Note_on_c, 0, 39, 127
2, 10128, Note_on_c, 0, 56, 127
2, 10152, Note_off_c, 0, 39, 0
2, 10152, Note_on_c, 0, 44, 127
2, 10176, Note_off_c, 0, 44, 0
2, 10176, Note_off_c, 0, 56, 0
2, 10176, Note_on_c, 0, 32, 127
2, 10224, Note_off_c, 0, 32, 0
2, 10224, Note_on_c, 0, 44, 127
2, 10224, Note_on_c, 0, 56, 127
2, 10272, Note_off_c, 0, 56, 0
2, 10272, Note_off_c, 0, 44, 0
2, 10272, Note_on_c, 0, 39, 127
2, 10296, Note_off_c, 0, 39, 0
2, 10296, Note_on_c, 0, 32, 127
2, 10320, Note_off_c, 0, 32, 0
2, 10320, Note_on_c, 0, 39, 127
2, 10320, Note_on_c, 0, 56, 127
2, 10344, Note_off_c, 0, 39, 0
2, 10344, Note_on_c, 0, 44, 127
2, 10368, Note_off_c, 0, 44, 0
2, 10368, Note_off_c, 0, 56, 0
2, 10368, Note_on_c, 0, 32, 127
2, 10416, Note_off_c, 0, 32, 0
2, 10416, Note_on_c, 0, 44, 127
2, 10416, Note_on_c, 0, 56, 127
2, 10464, Note_off_c, 0, 56, 0
2, 10464, Note_off_c, 0, 44, 0
2, 10464, Note_on_c, 0, 39, 127
2, 10488, Note_off_c, 0, 39, 0
2, 10488, Note_on_c, 0, 32, 127
2, 10512, Note_off_c, 0, 32, 0
2, 10512, Note_on_c, 0, 39, 127
2, 10512, Note_on_c, 0, 56, 127
2, 10536, Note_off_c, 0, 39, 0
2, 10536, Note_on_c, 0, 44, 127
2, 10560, Note_off_c, 0, 44, 0
2, 10560, Note_off_c, 0, 56, 0
2, 10560, Note_on_c, 0, 32, 127
2, 10608, Note_off_c, 0, 32, 0
2, 10608, Note_on_c, 0, 44, 127
2, 10608, Note_on_c, 0, 56, 127
2, 10656, Note_off_c, 0, 56, 0
2, 10656, Note_off_c, 0, 44, 0
2, 10656, Note_on_c, 0, 39, 127
2, 10680, Note_off_c, 0, 39, 0
2, 10680, Note_on_c, 0, 32, 127
2, 10704, Note_off_c, 0, 32, 0
2, 10704, Note_on_c, 0, 39, 127
2, 10704, Note_on_c, 0, 56, 127
2, 10728, Note_off_c, 0, 39, 0
2, 10728, Note_on_c, 0, 44, 127
2, 10752, Note_off_c, 0, 44, 0
2, 10752, Note_off_c, 0, 56, 0
2, 10752, Note_on_c, 0, 31, 127
2, 10800, Note_off_c, 0, 31, 0
2, 10800, Note_on_c, 0, 43, 127
2, 10800, Note_on_c, 0, 55, 127
2, 10848, Note_off_c, 0, 55, 0
2, 10848, Note_off_c, 0, 43, 0
2, 10848, Note_on_c, 0, 38, 127
2, 10872, Note_off_c, 0, 38, 0
2, 10872, Note_on_c, 0, 31, 127
2, 10896, Note_off_c, 0, 31, 0
2, 10896, Note_on_c, 0, 38, 127
2, 10896, Note_on_c, 0, 55, 127
2, 10920, Note_off_c, 0, 38, 0
2, 10920, Note_on_c, 0, 43, 127
2, 10944, Note_off_c, 0, 43, 0
2, 10944, Note_off_c, 0, 55, 0
2, 10944, Note_on_c, 0, 31, 127
2, 10992, Note_off_c, 0, 31, 0
2, 10992, Note_on_c, 0, 43, 127
2, 10992, Note_on_c, 0, 55, 127
2, 11040, Note_off_c, 0, 55, 0
2, 11040, Note_off_c, 0, 43, 0
2, 11040, Note_on_c, 0, 38, 127
2, 11064, Note_off_c, 0, 38, 0
2, 11064, Note_on_c, 0, 31, 127
2, 11088, Note_off_c, 0, 31, 0
2, 11088, Note_on_c, 0, 38, 127
2, 11088, Note_on_c, 0, 55, 127
2, 11112, Note_off_c, 0, 38, 0
2, 11112, Note_on_c, 0, 43, 127
2, 11136, Note_off_c, 0, 43, 0
2, 11136, Note_off_c, 0, 55, 0
2, 11136, Note_on_c, 0, 31, 127
2, 11184, Note_off_c, 0, 31, 0
2, 11184, Note_on_c, 0, 43, 127
2, 11184, Note_on_c, 0, 55, 127
2, 11232, Note_off_c, 0, 55, 0
2, 11232, Note_off_c, 0, 43, 0
2, 11232, Note_on_c, 0, 38, 127
2, 11256, Note_off_c, 0, 38, 0
2, 11256, Note_on_c, 0, 31, 127
2, 11280, Note_off_c, 0, 31, 0
2, 11280, Note_on_c, 0, 38, 127
2, 11280, Note_on_c, 0, 55, 127
2, 11304, Note_off_c, 0, 38, 0
2, 11304, Note_on_c, 0, 43, 127
2, 11328, Note_off_c, 0, 43, 0
2, 11328, Note_off_c, 0, 55, 0
2, 11328, Note_on_c, 0, 31, 127
2, 11376, Note_off_c, 0, 31, 0
2, 11376, Note_on_c, 0, 43, 127
2, 11376, Note_on_c, 0, 55, 127
2, 11424, Note_off_c, 0, 55, 0
2, 11424, Note_off_c, 0, 43, 0
2, 11424, Note_on_c, 0, 38, 127
2, 11448, Note_off_c, 0, 38, 0
2, 11448, Note_on_c, 0, 31, 127
2, 11472, Note_off_c, 0, 31, 0
2, 11472, Note_on_c, 0, 38, 127
2, 11472, Note_on_c, 0, 55, 127
2, 11496, Note_off_c, 0, 38, 0
2, 11496, Note_on_c, 0, 43, 127
2, 11520, Note_off_c, 0, 43, 0
2, 11520, Note_off_c, 0, 55, 0
2, 11520, Note_on_c, 0, 32, 127
2, 11568, Note_off_c, 0, 32, 0
2, 11568, Note_on_c, 0, 44, 127
2, 11568, Note_on_c, 0, 56, 127
2, 11616, Note_off_c, 0, 56, 0
2, 11616, Note_off_c, 0, 44, 0
2, 11616, Note_on_c, 0, 39, 127
2, 11640, Note_off_c, 0, 39, 0
2, 11640, Note_on_c, 0, 32, 127
2, 11664, Note_off_c, 0, 32, 0
2, 11664, Note_on_c, 0, 39, 127
2, 11664, Note_on_c, 0, 56, 127
2, 11688, Note_off_c, 0, 39, 0
2, 11688, Note_on_c, 0, 44, 127
2, 11712, Note_off_c, 0, 44, 0
2, 11712, Note_off_c, 0, 56, 0
2, 11712, Note_on_c, 0, 32, 127
2, 11760, Note_off_c, 0, 32, 0
2, 11760, Note_on_c, 0, 44, 127
2, 11760, Note_on_c, 0, 56, 127
2, 11808, Note_off_c, 0, 56, 0
2, 11808, Note_off_c, 0, 44, 0
2, 11808, Note_on_c, 0, 39, 127
2, 11832, Note_off_c, 0, 39, 0
2, 11832, Note_on_c, 0, 32, 127
2, 11856, Note_off_c, 0, 32, 0
2, 11856, Note_on_c, 0, 39, 127
2, 11856, Note_on_c, 0, 56, 127
2, 11880, Note_off_c, 0, 39, 0
2, 11880, Note_on_c, 0, 44, 127
2, 11904, Note_off_c, 0, 44, 0
2, 11904, Note_off_c, 0, 56, 0
2, 11904, Note_on_c, 0, 32, 127
2, 11952, Note_off_c, 0, 32, 0
2, 11952, Note_on_c, 0, 44, 127
2, 11952, Note_on_c, 0, 56, 127
2, 12000, Note_off_c, 0, 56, 0
2, 12000, Note_off_c, 0, 44, 0
2, 12000, Note_on_c, 0, 39, 127
2, 12024, Note_off_c, 0, 39, 0
2, 12024, Note_on_c, 0, 32, 127
2, 12048, Note_off_c, 0, 32, 0
2, 12048, Note_on_c, 0, 39, 127
2, 12048, Note_on_c, 0, 56, 127
2, 12072, Note_off_c, 0, 39, 0
2, 12072, Note_on_c, 0, 44, 127
2, 12096, Note_off_c, 0, 44, 0
2, 12096, Note_off_c, 0, 56, 0
2, 12096, Note_on_c, 0, 32, 127
2, 12144, Note_off_c, 0, 32, 0
2, 12144, Note_on_c, 0, 44, 127
2, 12144, Note_on_c, 0, 56, 127
2, 12192, Note_off_c, 0, 56, 0
2, 12192, Note_off_c, 0, 44, 0
2, 12192, Note_on_c, 0, 39, 127
2, 12216, Note_off_c, 0, 39, 0
2, 12216, Note_on_c, 0, 32, 127
2, 12240, Note_off_c, 0, 32, 0
2, 12240, Note_on_c, 0, 39, 127
2, 12240, Note_on_c, 0, 56, 127
2, 12264, Note_off_c, 0, 39, 0
2, 12264, Note_on_c, 0, 44, 127
2, 12288, Note_off_c, 0, 44, 0
2, 12288, Note_off_c, 0, 56, 0
2, 12288, Note_on_c, 0, 31, 127
2, 12336, Note_off_c, 0, 31, 0
2, 12336, Note_on_c, 0, 43, 127
2, 12336, Note_on_c, 0, 55, 127
2, 12384, Note_off_c, 0, 55, 0
2, 12384, Note_off_c, 0, 43, 0
2, 12384, Note_on_c, 0, 38, 127
2, 12408, Note_off_c, 0, 38, 0
2, 12408, Note_on_c, 0, 31, 127
2, 12432, Note_off_c, 0, 31, 0
2, 12432, Note_on_c, 0, 38, 127
2, 12432, Note_on_c, 0, 55, 127
2, 12456, Note_off_c, 0, 38, 0
2, 12456, Note_on_c, 0, 43, 127
2, 12480, Note_off_c, 0, 43, 0
2, 12480, Note_off_c, 0, 55, 0
2, 12480, Note_on_c, 0, 31, 127
2, 12528, Note_off_c, 0, 31, 0
2, 12528, Note_on_c, 0, 43, 127
2, 12528, Note_on_c, 0, 55, 127
2, 12576, Note_off_c, 0, 55, 0
2, 12576, Note_off_c, 0, 43, 0
2, 12576, Note_on_c, 0, 38, 127
2, 12600, Note_off_c, 0, 38, 0
2, 12600, Note_on_c, 0, 31, 127
2, 12624, Note_off_c, 0, 31, 0
2, 12624, Note_on_c, 0, 38, 127
2, 12624, Note_on_c, 0, 55, 127
2, 12648, Note_off_c, 0, 38, 0
2, 12648, Note_on_c, 0, 43, 127
2, 12672, Note_off_c, 0, 43, 0
2, 12672, Note_off_c, 0, 55, 0
2, 12672, Note_on_c, 0, 31, 127
2, 12720, Note_off_c, 0, 31, 0
2, 12720, Note_on_c, 0, 43, 127
2, 12720, Note_on_c, 0, 55, 127
2, 12768, Note_off_c, 0, 55, 0
2, 12768, Note_off_c, 0, 43, 0
2, 12768, Note_on_c, 0, 38, 127
2, 12792, Note_off_c, 0, 38, 0
2, 12792, Note_on_c, 0, 31, 127
2, 12816, Note_off_c, 0, 31, 0
2, 12816, Note_on_c, 0, 38, 127
2, 12816, Note_on_c, 0, 55, 127
2, 12840, Note_off_c, 0, 38, 0
2, 12840, Note_on_c, 0, 43, 127
2, 12864, Note_off_c, 0, 43, 0
2, 12864, Note_off_c, 0, 55, 0
2, 12864, Note_on_c, 0, 31, 127
2, 12912, Note_off_c, 0, 31, 0
2, 12912, Note_on_c, 0, 43, 127
2, 12912, Note_on_c, 0, 55, 127
2, 12960, Note_off_c, 0, 55, 0
2, 12960, Note_off_c, 0, 43, 0
2, 12960, Note_on_c, 0, 38, 127
2, 12984, Note_off_c, 0, 38, 0
2, 12984, Note_on_c, 0, 31, 127
2, 13008, Note_off_c, 0, 31, 0
2, 13008, Note_on_c, 0, 38, 127
2, 13008, Note_on_c, 0, 55, 127
2, 13032, Note_off_c, 0, 38, 0
2, 13032, Note_on_c, 0, 43, 127
2, 13056, Note_off_c, 0, 43, 0
2, 13056, Note_off_c, 0, 55, 0
2, 13056, Note_on_c, 0, 36, 127
2, 13104, Note_off_c, 0, 36, 0
2, 13104, Note_on_c, 0, 48, 127
2, 13104, Note_on_c, 0, 60, 127
2, 13152, Note_off_c, 0, 60, 0
2, 13152, Note_off_c, 0, 48, 0
2, 13152, Note_on_c, 0, 43, 127
2, 13176, Note_off_c, 0, 43, 0
2, 13176, Note_on_c, 0, 36, 127
2, 13200, Note_off_c, 0, 36, 0
2, 13200, Note_on_c, 0, 43, 127
2, 13200, Note_on_c, 0, 60, 127
2, 13224, Note_off_c, 0, 43, 0
2, 13224, Note_on_c, 0, 48, 127
2, 13248, Note_off_c, 0, 48, 0
2, 13248, Note_off_c, 0, 60, 0
2, 13248, Note_on_c, 0, 36, 127
2, 13296, Note_off_c, 0, 36, 0
2, 13296, Note_on_c, 0, 48, 127
2, 13296, Note_on_c, 0, 60, 127
2, 13344, Note_off_c, 0, 60, 0
2, 13344, Note_off_c, 0, 48, 0
2, 13344, Note_on_c, 0, 43, 127
2, 13368, Note_off_c, 0, 43, 0
2, 13368, Note_on_c, 0, 36, 127
2, 13392, Note_off_c, 0, 36, 0
2, 13392, Note_on_c, 0, 43, 127
2, 13392, Note_on_c, 0, 60, 127
2, 13416, Note_off_c, 0, 43, 0
2, 13416, Note_on_c, 0, 48, 127
2, 13440, Note_off_c, 0, 48, 0
2, 13440, Note_off_c, 0, 60, 0
2, 13440, Note_on_c, 0, 36, 127
2, 13488, Note_off_c, 0, 36, 0
2, 13488, Note_on_c, 0, 48, 127
2, 13488, Note_on_c, 0, 60, 127
2, 13536, Note_off_c, 0, 60, 0
2, 13536, Note_off_c, 0, 48, 0
2, 13536, Note_on_c, 0, 43, 127
2, 13560, Note_off_c, 0, 43, 0
2, 13560, Note_on_c, 0, 36, 127
2, 13584, Note_off_c, 0, 36, 0
2, 13584, Note_on_c, 0, 43, 127
2, 13584, Note_on_c, 0, 60, 127
2, 13608, Note_off_c, 0, 43, 0
2, 13608, Note_on_c, 0, 48, 127
2, 13632, Note_off_c, 0, 48, 0
2, 13632, Note_off_c, 0, 60, 0
2, 13632, Note_on_c, 0, 34, 127
2, 13680, Note_off_c, 0, 34, 0
2, 13680, Note_on_c, 0, 46, 127
2, 13680, Note_on_c, 0, 58, 127
2, 13728, Note_off_c, 0, 58, 0
2, 13728, Note_off_c, 0, 46, 0
2, 13728, Note_on_c, 0, 41, 127
2, 13752, Note_off_c, 0, 41, 0
2, 13752, Note_on_c, 0, 34, 127
2, 13776, Note_off_c, 0, 34, 0
2, 13776, Note_on_c, 0, 41, 127
2, 13776, Note_on_c, 0, 58, 127
2, 13800, Note_off_c, 0, 41, 0
2, 13800, Note_on_c, 0, 46, 127
2, 13824, Note_off_c, 0, 46, 0
2, 13824, Note_off_c, 0, 58, 0
2, 13824, Note_on_c, 0, 32, 127
2, 13872, Note_off_c, 0, 32, 0
2, 13872, Note_on_c, 0, 44, 127
2, 13872, Note_on_c, 0, 56, 127
2, 13920, Note_off_c, 0, 56, 0
2, 13920, Note_off_c, 0, 44, 0
2, 13920, Note_on_c, 0, 39, 127
2, 13944, Note_off_c, 0, 39, 0
2, 13944, Note_on_c, 0, 32, 127
2, 13968, Note_off_c, 0, 32, 0
2, 13968, Note_on_c, 0, 39, 127
2, 13968, Note_on_c, 0, 56, 127
2, 13992, Note_off_c, 0, 39, 0
2, 13992, Note_on_c, 0, 44, 127
2, 14016, Note_off_c, 0, 44, 0
2, 14016, Note_off_c, 0, 56, 0
2, 14016, Note_on_c, 0, 32, 127
2, 14064, Note_off_c, 0, 32, 0
2, 14064, Note_on_c, 0, 44, 127
2, 14064, Note_on_c, 0, 56, 127
2, 14112, Note_off_c, 0, 56, 0
2, 14112, Note_off_c, 0, 44, 0
2, 14112, Note_on_c, 0, 39, 127
2, 14136, Note_off_c, 0, 39, 0
2, 14136, Note_on_c, 0, 32, 127
2, 14160, Note_off_c, 0, 32, 0
2, 14160, Note_on_c, 0, 39, 127
2, 14160, Note_on_c, 0, 56, 127
2, 14184, Note_off_c, 0, 39, 0
2, 14184, Note_on_c, 0, 44, 127
2, 14208, Note_off_c, 0, 44, 0
2, 14208, Note_off_c, 0, 56, 0
2, 14208, Note_on_c, 0, 32, 127
2, 14256, Note_off_c, 0, 32, 0
2, 14256, Note_on_c, 0, 44, 127
2, 14256, Note_on_c, 0, 56, 127
2, 14304, Note_off_c, 0, 56, 0
2, 14304, Note_off_c, 0, 44, 0
2, 14304, Note_on_c, 0, 39, 127
2, 14328, Note_off_c, 0, 39, 0
2, 14328, Note_on_c, 0, 32, 127
2, 14352, Note_off_c, 0, 32, 0
2, 14352, Note_on_c, 0, 39, 127
2, 14352, Note_on_c, 0, 56, 127
2, 14376, Note_off_c, 0, 39, 0
2, 14376, Note_on_c, 0, 44, 127
2, 14400, Note_off_c, 0, 44, 0
2, 14400, Note_off_c, 0, 56, 0
2, 14400, Note_on_c, 0, 34, 127
2, 14448, Note_off_c, 0, 34, 0
2, 14448, Note_on_c, 0, 46, 127
2, 14448, Note_on_c, 0, 58, 127
2, 14496, Note_off_c, 0, 58, 0
2, 14496, Note_off_c, 0, 46, 0
2, 14496, Note_on_c, 0, 41, 127
2, 14520, Note_off_c, 0, 41, 0
2, 14520, Note_on_c, 0, 34, 127
2, 14544, Note_off_c, 0, 34, 0
2, 14544, Note_on_c, 0, 41, 127
2, 14544, Note_on_c, 0, 58, 127
2, 14568, Note_off_c, 0, 41, 0
2, 14568, Note_on_c, 0, 46, 127
2, 14592, Note_off_c, 0, 46, 0
2, 14592, Note_off_c, 0, 58, 0
2, 14592, Note_on_c, 0, 36, 127
2, 14640, Note_off_c, 0, 36, 0
2, 14640, Note_on_c, 0, 48, 127
2, 14640, Note_on_c, 0, 60, 127
2, 14688, Note_off_c, 0, 60, 0
2, 14688, Note_off_c, 0, 48, 0
2, 14688, Note_on_c, 0, 43, 127
2, 14712, Note_off_c, 0, 43, 0
2, 14712, Note_on_c, 0, 36, 127
2, 14736, Note_off_c, 0, 36, 0
2, 14736, Note_on_c, 0, 43, 127
2, 14736, Note_on_c, 0, 60, 127
2, 14760, Note_off_c, 0, 43, 0
2, 14760, Note_on_c, 0, 48, 127
2, 14784, Note_off_c, 0, 48, 0
2, 14784, Note_off_c, 0, 60, 0
2, 14784, Note_on_c, 0, 36, 127
2, 14832, Note_off_c, 0, 36, 0
2, 14832, Note_on_c, 0, 48, 127
2, 14832, Note_on_c, 0, 60, 127
2, 14880, Note_off_c, 0, 60, 0
2, 14880, Note_off_c, 0, 48, 0
2, 14880, Note_on_c, 0, 43, 127
2, 14904, Note_off_c, 0, 43, 0
2, 14904, Note_on_c, 0, 36, 127
2, 14928, Note_off_c, 0, 36, 0
2, 14928, Note_on_c, 0, 43, 127
2, 14928, Note_on_c, 0, 60, 127
2, 14952, Note_off_c, 0, 43, 0
2, 14952, Note_on_c, 0, 48, 127
2, 14976, Note_off_c, 0, 48, 0
2, 14976, Note_off_c, 0, 60, 0
2, 14976, Note_on_c, 0, 36, 127
2, 15024, Note_off_c, 0, 36, 0
2, 15024, Note_on_c, 0, 48, 127
2, 15024, Note_on_c, 0, 60, 127
2, 15072, Note_off_c, 0, 60, 0
2, 15072, Note_off_c, 0, 48, 0
2, 15072, Note_on_c, 0, 43, 127
2, 15096, Note_off_c, 0, 43, 0
2, 15096, Note_on_c, 0, 36, 127
2, 15120, Note_off_c, 0, 36, 0
2, 15120, Note_on_c, 0, 43, 127
2, 15120, Note_on_c, 0, 60, 127
2, 15144, Note_off_c, 0, 43, 0
2, 15144, Note_on_c, 0, 48, 127
2, 15168, Note_off_c, 0, 48, 0
2, 15168, Note_off_c, 0, 60, 0
2, 15168, Note_on_c, 0, 34, 127
2, 15216, Note_off_c, 0, 34, 0
2, 15216, Note_on_c, 0, 46, 127
2, 15216, Note_on_c, 0, 58, 127
2, 15264, Note_off_c, 0, 58, 0
2, 15264, Note_off_c, 0, 46, 0
2, 15264, Note_on_c, 0, 41, 127
2, 15288, Note_off_c, 0, 41, 0
2, 15288, Note_on_c, 0, 34, 127
2, 15312, Note_off_c, 0, 34, 0
2, 15312, Note_on_c, 0, 41, 127
2, 15312, Note_on_c, 0, 58, 127
2, 15336, Note_off_c, 0, 41, 0
2, 15336, Note_on_c, 0, 46, 127
2, 15360, Note_off_c, 0, 46, 0
2, 15360, Note_off_c, 0, 58, 0
2, 15360, Note_on_c, 0, 32, 127
2, 15408, Note_off_c, 0, 32, 0
2, 15408, Note_on_c, 0, 44, 127
2, 15408, Note_on_c, 0, 56, 127
2, 15456, Note_off_c, 0, 56, 0
2, 15456, Note_off_c, 0, 44, 0
2, 15456, Note_on_c, 0, 39, 127
2, 15480, Note_off_c, 0, 39, 0
2, 15480, Note_on_c, 0, 32, 127
2, 15504, Note_off_c, 0, 32, 0
2, 15504, Note_on_c, 0, 39, 127
2, 15504, Note_on_c, 0, 56, 127
2, 15528, Note_off_c, 0, 39, 0
2, 15528, Note_on_c, 0, 44, 127
2, 15552, Note_off_c, 0, 44, 0
2, 15552, Note_off_c, 0, 56, 0
2, 15552, Note_on_c, 0, 32, 127
2, 15600, Note_off_c, 0, 32, 0
2, 15600, Note_on_c, 0, 44, 127
2, 15600, Note_on_c, 0, 56, 127
2, 15648, Note_off_c, 0, 56, 0
2, 15648, Note_off_c, 0, 44, 0
2, 15648, Note_on_c, 0, 39, 127
2, 15672, Note_off_c, 0, 39, 0
2, 15672, Note_on_c, 0, 32, 127
2, 15696, Note_off_c, 0, 32, 0
2, 15696, Note_on_c, 0, 39, 127
2, 15696, Note_on_c, 0, 56, 127
2, 15720, Note_off_c, 0, 39, 0
2, 15720, Note_on_c, 0, 44, 127
2, 15744, Note_off_c, 0, 44, 0
2, 15744, Note_off_c, 0, 56, 0
2, 15744, Note_on_c, 0, 32, 127
2, 15792, Note_off_c, 0, 32, 0
2, 15792, Note_on_c, 0, 44, 127
2, 15792, Note_on_c, 0, 56, 127
2, 15840, Note_off_c, 0, 56, 0
2, 15840, Note_off_c, 0, 44, 0
2, 15840, Note_on_c, 0, 39, 127
2, 15864, Note_off_c, 0, 39, 0
2, 15864, Note_on_c, 0, 32, 127
2, 15888, Note_off_c, 0, 32, 0
2, 15888, Note_on_c, 0, 39, 127
2, 15888, Note_on_c, 0, 56, 127
2, 15912, Note_off_c, 0, 39, 0
2, 15912, Note_on_c, 0, 44, 127
2, 15936, Note_off_c, 0, 44, 0
2, 15936, Note_off_c, 0, 56, 0
2, 15936, Note_on_c, 0, 34, 127
2, 15984, Note_off_c, 0, 34, 0
2, 15984, Note_on_c, 0, 46, 127
2, 15984, Note_on_c, 0, 58, 127
2, 16032, Note_off_c, 0, 58, 0
2, 16032, Note_off_c, 0, 46, 0
2, 16032, Note_on_c, 0, 41, 127
2, 16056, Note_off_c, 0, 41, 0
2, 16056, Note_on_c, 0, 34, 127
2, 16080, Note_off_c, 0, 34, 0
2, 16080, Note_on_c, 0, 41, 127
2, 16080, Note_on_c, 0, 58, 127
2, 16104, Note_off_c, 0, 41, 0
2, 16104, Note_on_c, 0, 46, 127
2, 16128, Note_off_c, 0, 46, 0
2, 16128, Note_off_c, 0, 58, 0
2, 16128, Note_on_c, 0, 36, 127
2, 16176, Note_off_c, 0, 36, 0
2, 16176, Note_on_c, 0, 48, 127
2, 16176, Note_on_c, 0, 60, 127
2, 16224, Note_off_c, 0, 60, 0
2, 16224, Note_off_c, 0, 48, 0
2, 16224, Note_on_c, 0, 43, 127
2, 16248, Note_off_c, 0, 43, 0
2, 16248, Note_on_c, 0, 36, 127
2, 16272, Note_off_c, 0, 36, 0
2, 16272, Note_on_c, 0, 43, 127
2, 16272, Note_on_c, 0, 60, 127
2, 16296, Note_off_c, 0, 43, 0
2, 16296, Note_on_c, 0, 48, 127
2, 16320, Note_off_c, 0, 48, 0
2, 16320, Note_off_c, 0, 60, 0
2, 16320, Note_on_c, 0, 36, 127
2, 16368, Note_off_c, 0, 36, 0
2, 16368, Note_on_c, 0, 48, 127
2, 16368, Note_on_c, 0, 60, 127
2, 16416, Note_off_c, 0, 60, 0
2, 16416, Note_off_c, 0, 48, 0
2, 16416, Note_on_c, 0, 43, 127
2, 16440, Note_off_c, 0, 43, 0
2, 16440, Note_on_c, 0, 36, 127
2, 16464, Note_off_c, 0, 36, 0
2, 16464, Note_on_c, 0, 43, 127
2, 16464, Note_on_c, 0, 60, 127
2, 16488, Note_off_c, 0, 43, 0
2, 16488, Note_on_c, 0, 48, 127
2, 16512, Note_off_c, 0, 48, 0
2, 16512, Note_off_c, 0, 60, 0
2, 16512, Note_on_c, 0, 36, 127
2, 16560, Note_off_c, 0, 36, 0
2, 16560, Note_on_c, 0, 48, 127
2, 16560, Note_on_c, 0, 60, 127
2, 16608, Note_off_c, 0, 60, 0
2, 16608, Note_off_c, 0, 48, 0
2, 16608, Note_on_c, 0, 43, 127
2, 16632, Note_off_c, 0, 43, 0
2, 16632, Note_on_c, 0, 36, 127
2, 16656, Note_off_c, 0, 36, 0
2, 16656, Note_on_c, 0, 43, 127
2, 16656, Note_on_c, 0, 60, 127
2, 16680, Note_off_c, 0, 43, 0
2, 16680, Note_on_c, 0, 48, 127
2, 16704, Note_off_c, 0, 48, 0
2, 16704, Note_off_c, 0, 60, 0
2, 16704, Note_on_c, 0, 34, 127
2, 16752, Note_off_c, 0, 34, 0
2, 16752, Note_on_c, 0, 46, 127
2, 16752, Note_on_c, 0, 58, 127
2, 16800, Note_off_c, 0, 58, 0
2, 16800, Note_off_c, 0, 46, 0
2, 16800, Note_on_c, 0, 41, 127
2, 16824, Note_off_c, 0, 41, 0
2, 16824, Note_on_c, 0, 34, 127
2, 16848, Note_off_c, 0, 34, 0
2, 16848, Note_on_c, 0, 41, 127
2, 16848, Note_on_c, 0, 58, 127
2, 16872, Note_off_c, 0, 41, 0
2, 16872, Note_on_c, 0, 46, 127
2, 16896, Note_off_c, 0, 46, 0
2, 16896, Note_off_c, 0, 58, 0
2, 16896, Note_on_c, 0, 32, 127
2, 16944, Note_off_c, 0, 32, 0
2, 16944, Note_on_c, 0, 44, 127
2, 16944, Note_on_c, 0, 56, 127
2, 16992, Note_off_c, 0, 56, 0
2, 16992, Note_off_c, 0, 44, 0
2, 16992, Note_on_c, 0, 39, 127
2, 17016, Note_off_c, 0, 39, 0
2, 17016, Note_on_c, 0, 32, 127
2, 17040, Note_off_c, 0, 32, 0
2, 17040, Note_on_c, 0, 39, 127
2, 17040, Note_on_c, 0, 56, 127
2, 17064, Note_off_c, 0, 39, 0
2, 17064, Note_on_c, 0, 44, 127
2, 17088, Note_off_c, 0, 44, 0
2, 17088, Note_off_c, 0, 56, 0
2, 17088, Note_on_c, 0, 32, 127
2, 17136, Note_off_c, 0, 32, 0
2, 17136, Note_on_c, 0, 44, 127
2, 17136, Note_on_c, 0, 56, 127
2, 17184, Note_off_c, 0, 56, 0
2, 17184, Note_off_c, 0, 44, 0
2, 17184, Note_on_c, 0, 39, 127
2, 17208, Note_off_c, 0, 39, 0
2, 17208, Note_on_c, 0, 32, 127
2, 17232, Note_off_c, 0, 32, 0
2, 17232, Note_on_c, 0, 39, 127
2, 17232, Note_on_c, 0, 56, 127
2, 17256, Note_off_c, 0, 39, 0
2, 17256, Note_on_c, 0, 44, 127
2, 17280, Note_off_c, 0, 44, 0
2, 17280, Note_off_c, 0, 56, 0
2, 17280, Note_on_c, 0, 32, 127
2, 17328, Note_off_c, 0, 32, 0
2, 17328, Note_on_c, 0, 44, 127
2, 17328, Note_on_c, 0, 56, 127
2, 17376, Note_off_c, 0, 56, 0
2, 17376, Note_off_c, 0, 44, 0
2, 17376, Note_on_c, 0, 39, 127
2, 17400, Note_off_c, 0, 39, 0
2, 17400, Note_on_c, 0, 32, 127
2, 17424, Note_off_c, 0, 32, 0
2, 17424, Note_on_c, 0, 39, 127
2, 17424, Note_on_c, 0, 56, 127
2, 17448, Note_off_c, 0, 39, 0
2, 17448, Note_on_c, 0, 44, 127
2, 17472, Note_off_c, 0, 44, 0
2, 17472, Note_off_c, 0, 56, 0
2, 17472, Note_on_c, 0, 34, 127
2, 17520, Note_off_c, 0, 34, 0
2, 17520, Note_on_c, 0, 46, 127
2, 17520, Note_on_c, 0, 58, 127
2, 17568, Note_off_c, 0, 58, 0
2, 17568, Note_off_c, 0, 46, 0
2, 17568, Note_on_c, 0, 41, 127
2, 17592, Note_off_c, 0, 41, 0
2, 17592, Note_on_c, 0, 34, 127
2, 17616, Note_off_c, 0, 34, 0
2, 17616, Note_on_c, 0, 41, 127
2, 17616, Note_on_c, 0, 58, 127
2, 17640, Note_off_c, 0, 41, 0
2, 17640, Note_on_c, 0, 46, 127
2, 17664, Note_off_c, 0, 46, 0
2, 17664, Note_off_c, 0, 58, 0
2, 17664, Note_on_c, 0, 36, 127
2, 17712, Note_off_c, 0, 36, 0
2, 17712, Note_on_c, 0, 48, 127
2, 17712, Note_on_c, 0, 60, 127
2, 17760, Note_off_c, 0, 60, 0
2, 17760, Note_off_c, 0, 48, 0
2, 17760, Note_on_c, 0, 43, 127
2, 17784, Note_off_c, 0, 43, 0
2, 17784, Note_on_c, 0, 36, 127
2, 17808, Note_off_c, 0, 36, 0
2, 17808, Note_on_c, 0, 43, 127
2, 17808, Note_on_c, 0, 60, 127
2, 17832, Note_off_c, 0, 43, 0
2, 17832, Note_on_c, 0, 48, 127
2, 17856, Note_off_c, 0, 48, 0
2, 17856, Note_off_c, 0, 60, 0
2, 17856, Note_on_c, 0, 36, 127
2, 17904, Note_off_c, 0, 36, 0
2, 17904, Note_on_c, 0, 48, 127
2, 17904, Note_on_c, 0, 60, 127
2, 17952, Note_off_c, 0, 60, 0
2, 17952, Note_off_c, 0, 48, 0
2, 17952, Note_on_c, 0, 43, 127
2, 17976, Note_off_c, 0, 43, 0
2, 17976, Note_on_c, 0, 36, 127
2, 18000, Note_off_c, 0, 36, 0
2, 18000, Note_on_c, 0, 43, 127
2, 18000, Note_on_c, 0, 60, 127
2, 18024, Note_off_c, 0, 43, 0
2, 18024, Note_on_c, 0, 48, 127
2, 18048, Note_off_c, 0, 48, 0
2, 18048, Note_off_c, 0, 60, 0
2, 18048, Note_on_c, 0, 36, 127
2, 18096, Note_off_c, 0, 36, 0
2, 18096, Note_on_c, 0, 48, 127
2, 18096, Note_on_c, 0, 60, 127
2, 18144, Note_off_c, 0, 60, 0
2, 18144, Note_off_c, 0, 48, 0
2, 18144, Note_on_c, 0, 43, 127
2, 18168, Note_off_c, 0, 43, 0
2, 18168, Note_on_c, 0, 36, 127
2, 18192, Note_off_c, 0, 36, 0
2, 18192, Note_on_c, 0, 43, 127
2, 18192, Note_on_c, 0, 60, 127
2, 18216, Note_off_c, 0, 43, 0
2, 18216, Note_on_c, 0, 48, 127
2, 18240, Note_off_c, 0, 48, 0
2, 18240, Note_off_c, 0, 60, 0
2, 18240, Note_on_c, 0, 34, 127
2, 18288, Note_off_c, 0, 34, 0
2, 18288, Note_on_c, 0, 46, 127
2, 18288, Note_on_c, 0, 58, 127
2, 18336, Note_off_c, 0, 58, 0
2, 18336, Note_off_c, 0, 46, 0
2, 18336, Note_on_c, 0, 41, 127
2, 18360, Note_off_c, 0, 41, 0
2, 18360, Note_on_c, 0, 34, 127
2, 18384, Note_off_c, 0, 34, 0
2, 18384, Note_on_c, 0, 41, 127
2, 18384, Note_on_c, 0, 58, 127
2, 18408, Note_off_c, 0, 41, 0
2, 18408, Note_on_c, 0, 46, 127
2, 18432, Note_off_c, 0, 46, 0
2, 18432, Note_off_c, 0, 58, 0
2, 18432, Note_on_c, 0, 32, 127
2, 18480, Note_off_c, 0, 32, 0
2, 18480, Note_on_c, 0, 44, 127
2, 18480, Note_on_c, 0, 56, 127
2, 18528, Note_off_c, 0, 56, 0
2, 18528, Note_off_c, 0, 44, 0
2, 18528, Note_on_c, 0, 39, 127
2, 18552, Note_off_c, 0, 39, 0
2, 18552, Note_on_c, 0, 32, 127
2, 18576, Note_off_c, 0, 32, 0
2, 18576, Note_on_c, 0, 39, 127
2, 18576, Note_on_c, 0, 56, 127
2, 18600, Note_off_c, 0, 39, 0
2, 18600, Note_on_c, 0, 44, 127
2, 18624, Note_off_c, 0, 44, 0
2, 18624, Note_off_c, 0, 56, 0
2, 18624, Note_on_c, 0, 32, 127
2, 18672, Note_off_c, 0, 32, 0
2, 18672, Note_on_c, 0, 44, 127
2, 18672, Note_on_c, 0, 56, 127
2, 18720, Note_off_c, 0, 56, 0
2, 18720, Note_off_c, 0, 44, 0
2, 18720, Note_on_c, 0, 39, 127
2, 18744, Note_off_c, 0, 39, 0
2, 18744, Note_on_c, 0, 32, 127
2, 18768, Note_off_c, 0, 32, 0
2, 18768, Note_on_c, 0, 39, 127
2, 18768, Note_on_c, 0, 56, 127
2, 18792, Note_off_c, 0, 39, 0
2, 18792, Note_on_c, 0, 44, 127
2, 18816, Note_off_c, 0, 44, 0
2, 18816, Note_off_c, 0, 56, 0
2, 18816, Note_on_c, 0, 32, 127
2, 18864, Note_off_c, 0, 32, 0
2, 18864, Note_on_c, 0, 44, 127
2, 18864, Note_on_c, 0, 56, 127
2, 18912, Note_off_c, 0, 56, 0
2, 18912, Note_off_c, 0, 44, 0
2, 18912, Note_on_c, 0, 39, 127
2, 18936, Note_off_c, 0, 39, 0
2, 18936, Note_on_c, 0, 32, 127
2, 18960, Note_off_c, 0, 32, 0
2, 18960, Note_on_c, 0, 39, 127
2, 18960, Note_on_c, 0, 56, 127
2, 18984, Note_off_c, 0, 39, 0
2, 18984, Note_on_c, 0, 44, 127
2, 19008, Note_off_c, 0, 44, 0
2, 19008, Note_off_c, 0, 56, 0
2, 19008, Note_on_c, 0, 34, 127
2, 19056, Note_off_c, 0, 34, 0
2, 19056, Note_on_c, 0, 46, 127
2, 19056, Note_on_c, 0, 58, 127
2, 19104, Note_off_c, 0, 58, 0
2, 19104, Note_off_c, 0, 46, 0
2, 19104, Note_on_c, 0, 41, 127
2, 19128, Note_off_c, 0, 41, 0
2, 19128, Note_on_c, 0, 34, 127
2, 19152, Note_off_c, 0, 34, 0
2, 19152, Note_on_c, 0, 41, 127
2, 19152, Note_on_c, 0, 58, 127
2, 19176, Note_off_c, 0, 41, 0
2, 19176, Note_on_c, 0, 46, 127
2, 19200, Note_off_c, 0, 46, 0
2, 19200, Note_off_c, 0, 58, 0
2, 19200, Note_on_c, 0, 36, 127
2, 19248, Note_off_c, 0, 36, 0
2, 19248, Note_on_c, 0, 60, 127
2, 19248, Note_on_c, 0, 48, 127
2, 19296, Note_off_c, 0, 48, 0
2, 19296, Note_off_c, 0, 60, 0
2, 19296, Note_on_c, 0, 43, 127
2, 19320, Note_off_c, 0, 43, 0
2, 19320, Note_on_c, 0, 36, 127
2, 19344, Note_off_c, 0, 36, 0
2, 19344, Note_on_c, 0, 60, 127
2, 19344, Note_on_c, 0, 43, 127
2, 19368, Note_off_c, 0, 43, 0
2, 19368, Note_on_c, 0, 48, 127
2, 19392, Note_off_c, 0, 48, 0
2, 19392, Note_off_c, 0, 60, 0
2, 19392, Note_on_c, 0, 36, 127
2, 19440, Note_off_c, 0, 36, 0
2, 19440, Note_on_c, 0, 60, 127
2, 19440, Note_on_c, 0, 48, 127
2, 19488, Note_off_c, 0, 48, 0
2, 19488, Note_off_c, 0, 60, 0
2, 19488, Note_on_c, 0, 43, 127
2, 19512, Note_off_c, 0, 43, 0
2, 19512, Note_on_c, 0, 36, 127
2, 19536, Note_off_c, 0, 36, 0
2, 19536, Note_on_c, 0, 60, 127
2, 19536, Note_on_c, 0, 43, 127
2, 19560, Note_off_c, 0, 43, 0
2, 19560, Note_on_c, 0, 48, 127
2, 19584, Note_off_c, 0, 48, 0
2, 19584, Note_off_c, 0, 60, 0
2, 19584, Note_on_c, 0, 35, 127
2, 19632, Note_off_c, 0, 35, 0
2, 19632, Note_on_c, 0, 59, 127
2, 19632, Note_on_c, 0, 47, 127
2, 19680, Note_off_c, 0, 47, 0
2, 19680, Note_off_c, 0, 59, 0
2, 19680, Note_on_c, 0, 43, 127
2, 19704, Note_off_c, 0, 43, 0
2, 19704, Note_on_c, 0, 35, 127
2, 19728, Note_off_c, 0, 35, 0
2, 19728, Note_on_c, 0, 59, 127
2, 19728, Note_on_c, 0, 43, 127
2, 19752, Note_off_c, 0, 43, 0
2, 19752, Note_on_c, 0, 47, 127
2, 19776, Note_off_c, 0, 47, 0
2, 19776, Note_off_c, 0, 59, 0
2, 19776, Note_on_c, 0, 35, 127
2, 19824, Note_off_c, 0, 35, 0
2, 19824, Note_on_c, 0, 59, 127
2, 19824, Note_on_c, 0, 47, 127
2, 19872, Note_off_c, 0, 47, 0
2, 19872, Note_off_c, 0, 59, 0
2, 19872, Note_on_c, 0, 43, 127
2, 19896, Note_off_c, 0, 43, 0
2, 19896, Note_on_c, 0, 35, 127
2, 19920, Note_off_c, 0, 35, 0
2, 19920, Note_on_c, 0, 59, 127
2, 19920, Note_on_c, 0, 43, 127
2, 19944, Note_off_c, 0, 43, 0
2, 19944, Note_on_c, 0, 47, 127
2, 19968, Note_off_c, 0, 47, 0
2, 19968, Note_off_c, 0, 59, 0
2, 19968, Note_on_c, 0, 32, 127
2, 20016, Note_off_c, 0, 32, 0
2, 20016, Note_on_c, 0, 56, 127
2, 20016, Note_on_c, 0, 44, 127
2, 20064, Note_off_c, 0, 44, 0
2, 20064, Note_off_c, 0, 56, 0
2, 20064, Note_on_c, 0, 39, 127
2, 20088, Note_off_c, 0, 39, 0
2, 20088, Note_on_c, 0, 32, 127
2, 20112, Note_off_c, 0, 32, 0
2, 20112, Note_on_c, 0, 56, 127
2, 20112, Note_on_c, 0, 39, 127
2, 20136, Note_off_c, 0, 39, 0
2, 20136, Note_on_c, 0, 44, 127
2, 20160, Note_off_c, 0, 44, 0
2, 20160, Note_off_c, 0, 56, 0
2, 20160, Note_on_c, 0, 32, 127
2, 20208, Note_off_c, 0, 32, 0
2, 20208, Note_on_c, 0, 44, 127
2, 20208, Note_on_c, 0, 56, 127
2, 20256, Note_off_c, 0, 56, 0
2, 20256, Note_off_c, 0, 44, 0
2, 20256, Note_on_c, 0, 39, 127
2, 20280, Note_off_c, 0, 39, 0
2, 20280, Note_on_c, 0, 32, 127
2, 20304, Note_off_c, 0, 32, 0
2, 20304, Note_on_c, 0, 39, 127
2, 20304, Note_on_c, 0, 56, 127
2, 20328, Note_off_c, 0, 39, 0
2, 20328, Note_on_c, 0, 44, 127
2, 20352, Note_off_c, 0, 44, 0
2, 20352, Note_off_c, 0, 56, 0
2, 20352, Note_on_c, 0, 31, 127
2, 20400, Note_off_c, 0, 31, 0
2, 20400, Note_on_c, 0, 43, 127
2, 20400, Note_on_c, 0, 55, 127
2, 20448, Note_off_c, 0, 55, 0
2, 20448, Note_off_c, 0, 43, 0
2, 20448, Note_on_c, 0, 38, 127
2, 20472, Note_off_c, 0, 38, 0
2, 20472, Note_on_c, 0, 31, 127
2, 20496, Note_off_c, 0, 31, 0
2, 20496, Note_on_c, 0, 38, 127
2, 20496, Note_on_c, 0, 55, 127
2, 20520, Note_off_c, 0, 38, 0
2, 20520, Note_on_c, 0, 43, 127
2, 20544, Note_off_c, 0, 43, 0
2, 20544, Note_off_c, 0, 55, 0
2, 20544, Note_on_c, 0, 31, 127
2, 20592, Note_off_c, 0, 31, 0
2, 20592, Note_on_c, 0, 43, 127
2, 20592, Note_on_c, 0, 55, 127
2, 20640, Note_off_c, 0, 55, 0
2, 20640, Note_off_c, 0, 43, 0
2, 20640, Note_on_c, 0, 38, 127
2, 20664, Note_off_c, 0, 38, 0
2, 20664, Note_on_c, 0, 31, 127
2, 20688, Note_off_c, 0, 31, 0
2, 20688, Note_on_c, 0, 38, 127
2, 20688, Note_on_c, 0, 55, 127
2, 20712, Note_off_c, 0, 38, 0
2, 20712, Note_on_c, 0, 43, 127
2, 20736, Note_off_c, 0, 43, 0
2, 20736, Note_off_c, 0, 55, 0
2, 20736, Note_on_c, 0, 36, 127
2, 20784, Note_off_c, 0, 36, 0
2, 20784, Note_on_c, 0, 60, 127
2, 20784, Note_on_c, 0, 48, 127
2, 20832, Note_off_c, 0, 48, 0
2, 20832, Note_off_c, 0, 60, 0
2, 20832, Note_on_c, 0, 43, 127
2, 20856, Note_off_c, 0, 43, 0
2, 20856, Note_on_c, 0, 36, 127
2, 20880, Note_off_c, 0, 36, 0
2, 20880, Note_on_c, 0, 60, 127
2, 20880, Note_on_c, 0, 43, 127
2, 20904, Note_off_c, 0, 43, 0
2, 20904, Note_on_c, 0, 48, 127
2, 20928, Note_off_c, 0, 48, 0
2, 20928, Note_off_c, 0, 60, 0
2, 20928, Note_on_c, 0, 36, 127
2, 20976, Note_off_c, 0, 36, 0
2, 20976, Note_on_c, 0, 60, 127
2, 20976, Note_on_c, 0, 48, 127
2, 21024, Note_off_c, 0, 48, 0
2, 21024, Note_off_c, 0, 60, 0
2, 21024, Note_on_c, 0, 43, 127
2, 21048, Note_off_c, 0, 43, 0
2, 21048, Note_on_c, 0, 36, 127
2, 21072, Note_off_c, 0, 36, 0
2, 21072, Note_on_c, 0, 60, 127
2, 21072, Note_on_c, 0, 43, 127
2, 21096, Note_off_c, 0, 43, 0
2, 21096, Note_on_c, 0, 48, 127
2, 21120, Note_off_c, 0, 48, 0
2, 21120, Note_off_c, 0, 60, 0
2, 21120, Note_on_c, 0, 35, 127
2, 21168, Note_off_c, 0, 35, 0
2, 21168, Note_on_c, 0, 59, 127
2, 21168, Note_on_c, 0, 47, 127
2, 21216, Note_off_c, 0, 47, 0
2, 21216, Note_off_c, 0, 59, 0
2, 21216, Note_on_c, 0, 43, 127
2, 21240, Note_off_c, 0, 43, 0
2, 21240, Note_on_c, 0, 35, 127
2, 21264, Note_off_c, 0, 35, 0
2, 21264, Note_on_c, 0, 59, 127
2, 21264, Note_on_c, 0, 43, 127
2, 21288, Note_off_c, 0, 43, 0
2, 21288, Note_on_c, 0, 47, 127
2, 21312, Note_off_c, 0, 47, 0
2, 21312, Note_off_c, 0, 59, 0
2, 21312, Note_on_c, 0, 35, 127
2, 21360, Note_off_c, 0, 35, 0
2, 21360, Note_on_c, 0, 59, 127
2, 21360, Note_on_c, 0, 47, 127
2, 21408, Note_off_c, 0, 47, 0
2, 21408, Note_off_c, 0, 59, 0
2, 21408, Note_on_c, 0, 43, 127
2, 21432, Note_off_c, 0, 43, 0
2, 21432, Note_on_c, 0, 35, 127
2, 21456, Note_off_c, 0, 35, 0
2, 21456, Note_on_c, 0, 59, 127
2, 21456, Note_on_c, 0, 43, 127
2, 21480, Note_off_c, 0, 43, 0
2, 21480, Note_on_c, 0, 47, 127
2, 21504, Note_off_c, 0, 47, 0
2, 21504, Note_off_c, 0, 59, 0
2, 21504, Note_on_c, 0, 32, 127
2, 21552, Note_off_c, 0, 32, 0
2, 21552, Note_on_c, 0, 56, 127
2, 21552, Note_on_c, 0, 44, 127
2, 21600, Note_off_c, 0, 44, 0
2, 21600, Note_off_c, 0, 56, 0
2, 21600, Note_on_c, 0, 39, 127
2, 21624, Note_off_c, 0, 39, 0
2, 21624, Note_on_c, 0, 32, 127
2, 21648, Note_off_c, 0, 32, 0
2, 21648, Note_on_c, 0, 56, 127
2, 21648, Note_on_c, 0, 39, 127
2, 21672, Note_off_c, 0, 39, 0
2, 21672, Note_on_c, 0, 44, 127
2, 21696, Note_off_c, 0, 44, 0
2, 21696, Note_off_c, 0, 56, 0
2, 21696, Note_on_c, 0, 32, 127
2, 21744, Note_off_c, 0, 32, 0
2, 21744, Note_on_c, 0, 44, 127
2, 21744, Note_on_c, 0, 56, 127
2, 21792, Note_off_c, 0, 56, 0
2, 21792, Note_off_c, 0, 44, 0
2, 21792, Note_on_c, 0, 39, 127
2, 21816, Note_off_c, 0, 39, 0
2, 21816, Note_on_c, 0, 32, 127
2, 21840, Note_off_c, 0, 32, 0
2, 21840, Note_on_c, 0, 39, 127
2, 21840, Note_on_c, 0, 56, 127
2, 21864, Note_off_c, 0, 39, 0
2, 21864, Note_on_c, 0, 44, 127
2, 21888, Note_off_c, 0, 44, 0
2, 21888, Note_off_c, 0, 56, 0
2, 21888, Note_on_c, 0, 31, 127
2, 21936, Note_off_c, 0, 31, 0
2, 21936, Note_on_c, 0, 43, 127
2, 21936, Note_on_c, 0, 55, 127
2, 21984, Note_off_c, 0, 55, 0
2, 21984, Note_off_c, 0, 43, 0
2, 21984, Note_on_c, 0, 38, 127
2, 22008, Note_off_c, 0, 38, 0
2, 22008, Note_on_c, 0, 31, 127
2, 22032, Note_off_c, 0, 31, 0
2, 22032, Note_on_c, 0, 38, 127
2, 22032, Note_on_c, 0, 55, 127
2, 22056, Note_off_c, 0, 38, 0
2, 22056, Note_on_c, 0, 43, 127
2, 22080, Note_off_c, 0, 43, 0
2, 22080, Note_off_c, 0, 55, 0
2, 22080, Note_on_c, 0, 31, 127
2, 22128, Note_off_c, 0, 31, 0
2, 22128, Note_on_c, 0, 43, 127
2, 22128, Note_on_c, 0, 55, 127
2, 22176, Note_off_c, 0, 55, 0
2, 22176, Note_off_c, 0, 43, 0
2, 22176, Note_on_c, 0, 38, 127
2, 22200, Note_off_c, 0, 38, 0
2, 22200, Note_on_c, 0, 31, 127
2, 22224, Note_off_c, 0, 31, 0
2, 22224, Note_on_c, 0, 38, 127
2, 22224, Note_on_c, 0, 55, 127
2, 22248, Note_off_c, 0, 38, 0
2, 22248, Note_on_c, 0, 43, 127
2, 22272, Note_off_c, 0, 43, 0
2, 22272, Note_off_c, 0, 55, 0
2, 22272, Note_on_c, 0, 36, 127
2, 22320, Note_off_c, 0, 36, 0
2, 22320, Note_on_c, 0, 60, 127
2, 22320, Note_on_c, 0, 48, 127
2, 22368, Note_off_c, 0, 48, 0
2, 22368, Note_off_c, 0, 60, 0
2, 22368, Note_on_c, 0, 43, 127
2, 22392, Note_off_c, 0, 43, 0
2, 22392, Note_on_c, 0, 36, 127
2, 22416, Note_off_c, 0, 36, 0
2, 22416, Note_on_c, 0, 60, 127
2, 22416, Note_on_c, 0, 43, 127
2, 22440, Note_off_c, 0, 43, 0
2, 22440, Note_on_c, 0, 48, 127
2, 22464, Note_off_c, 0, 48, 0
2, 22464, Note_off_c, 0, 60, 0
2, 22464, Note_on_c, 0, 36, 127
2, 22512, Note_off_c, 0, 36, 0
2, 22512, Note_on_c, 0, 60, 127
2, 22512, Note_on_c, 0, 48, 127
2, 22560, Note_off_c, 0, 48, 0
2, 22560, Note_off_c, 0, 60, 0
2, 22560, Note_on_c, 0, 43, 127
2, 22584, Note_off_c, 0, 43, 0
2, 22584, Note_on_c, 0, 36, 127
2, 22608, Note_off_c, 0, 36, 0
2, 22608, Note_on_c, 0, 60, 127
2, 22608, Note_on_c, 0, 43, 127
2, 22632, Note_off_c, 0, 43, 0
2, 22632, Note_on_c, 0, 48, 127
2, 22656, Note_off_c, 0, 48, 0
2, 22656, Note_off_c, 0, 60, 0
2, 22656, Note_on_c, 0, 35, 127
2, 22704, Note_off_c, 0, 35, 0
2, 22704, Note_on_c, 0, 59, 127
2, 22704, Note_on_c, 0, 47, 127
2, 22752, Note_off_c, 0, 47, 0
2, 22752, Note_off_c, 0, 59, 0
2, 22752, Note_on_c, 0, 43, 127
2, 22776, Note_off_c, 0, 43, 0
2, 22776, Note_on_c, 0, 35, 127
2, 22800, Note_off_c, 0, 35, 0
2, 22800, Note_on_c, 0, 59, 127
2, 22800, Note_on_c, 0, 43, 127
2, 22824, Note_off_c, 0, 43, 0
2, 22824, Note_on_c, 0, 47, 127
2, 22848, Note_off_c, 0, 47, 0
2, 22848, Note_off_c, 0, 59, 0
2, 22848, Note_on_c, 0, 35, 127
2, 22896, Note_off_c, 0, 35, 0
2, 22896, Note_on_c, 0, 59, 127
2, 22896, Note_on_c, 0, 47, 127
2, 22944, Note_off_c, 0, 47, 0
2, 22944, Note_off_c, 0, 59, 0
2, 22944, Note_on_c, 0, 43, 127
2, 22968, Note_off_c, 0, 43, 0
2, 22968, Note_on_c, 0, 35, 127
2, 22992, Note_off_c, 0, 35, 0
2, 22992, Note_on_c, 0, 59, 127
2, 22992, Note_on_c, 0, 43, 127
2, 23016, Note_off_c, 0, 43, 0
2, 23016, Note_on_c, 0, 47, 127
2, 23040, Note_off_c, 0, 47, 0
2, 23040, Note_off_c, 0, 59, 0
2, 23040, Note_on_c, 0, 32, 127
2, 23088, Note_off_c, 0, 32, 0
2, 23088, Note_on_c, 0, 56, 127
2, 23088, Note_on_c, 0, 44, 127
2, 23136, Note_off_c, 0, 44, 0
2, 23136, Note_off_c, 0, 56, 0
2, 23136, Note_on_c, 0, 39, 127
2, 23160, Note_off_c, 0, 39, 0
2, 23160, Note_on_c, 0, 32, 127
2, 23184, Note_off_c, 0, 32, 0
2, 23184, Note_on_c, 0, 56, 127
2, 23184, Note_on_c, 0, 39, 127
2, 23208, Note_off_c, 0, 39, 0
2, 23208, Note_on_c, 0, 44, 127
2, 23232, Note_off_c, 0, 44, 0
2, 23232, Note_off_c, 0, 56, 0
2, 23232, Note_on_c, 0, 32, 127
2, 23280, Note_off_c, 0, 32, 0
2, 23280, Note_on_c, 0, 44, 127
2, 23280, Note_on_c, 0, 56, 127
2, 23328, Note_off_c, 0, 56, 0
2, 23328, Note_off_c, 0, 44, 0
2, 23328, Note_on_c, 0, 39, 127
2, 23352, Note_off_c, 0, 39, 0
2, 23352, Note_on_c, 0, 32, 127
2, 23376, Note_off_c, 0, 32, 0
2, 23376, Note_on_c, 0, 39, 127
2, 23376, Note_on_c, 0, 56, 127
2, 23400, Note_off_c, 0, 39, 0
2, 23400, Note_on_c, 0, 44, 127
2, 23424, Note_off_c, 0, 44, 0
2, 23424, Note_off_c, 0, 56, 0
2, 23424, Note_on_c, 0, 31, 127
2, 23472, Note_off_c, 0, 31, 0
2, 23472, Note_on_c, 0, 43, 127
2, 23472, Note_on_c, 0, 55, 127
2, 23520, Note_off_c, 0, 55, 0
2, 23520, Note_off_c, 0, 43, 0
2, 23520, Note_on_c, 0, 38, 127
2, 23544, Note_off_c, 0, 38, 0
2, 23544, Note_on_c, 0, 31, 127
2, 23568, Note_off_c, 0, 31, 0
2, 23568, Note_on_c, 0, 38, 127
2, 23568, Note_on_c, 0, 55, 127
2, 23592, Note_off_c, 0, 38, 0
2, 23592, Note_on_c, 0, 43, 127
2, 23616, Note_off_c, 0, 43, 0
2, 23616, Note_off_c, 0, 55, 0
2, 23616, Note_on_c, 0, 31, 127
2, 23664, Note_off_c, 0, 31, 0
2, 23664, Note_on_c, 0, 43, 127
2, 23664, Note_on_c, 0, 55, 127
2, 23712, Note_off_c, 0, 55, 0
2, 23712, Note_off_c, 0, 43, 0
2, 23712, Note_on_c, 0, 38, 127
2, 23736, Note_off_c, 0, 38, 0
2, 23736, Note_on_c, 0, 31, 127
2, 23760, Note_off_c, 0, 31, 0
2, 23760, Note_on_c, 0, 38, 127
2, 23760, Note_on_c, 0, 55, 127
2, 23784, Note_off_c, 0, 38, 0
2, 23784, Note_on_c, 0, 43, 127
2, 23808, Note_off_c, 0, 43, 0
2, 23808, Note_off_c, 0, 55, 0
2, 23808, Note_on_c, 0, 36, 127
2, 23856, Note_off_c, 0, 36, 0
2, 23856, Note_on_c, 0, 60, 127
2, 23856, Note_on_c, 0, 48, 127
2, 23904, Note_off_c, 0, 48, 0
2, 23904, Note_off_c, 0, 60, 0
2, 23904, Note_on_c, 0, 43, 127
2, 23928, Note_off_c, 0, 43, 0
2, 23928, Note_on_c, 0, 36, 127
2, 23952, Note_off_c, 0, 36, 0
2, 23952, Note_on_c, 0, 60, 127
2, 23952, Note_on_c, 0, 43, 127
2, 23976, Note_off_c, 0, 43, 0
2, 23976, Note_on_c, 0, 48, 127
2, 24000, Note_off_c, 0, 48, 0
2, 24000, Note_off_c, 0, 60, 0
2, 24000, Note_on_c, 0, 36, 127
2, 24048, Note_off_c, 0, 36, 0
2, 24048, Note_on_c, 0, 60, 127
2, 24048, Note_on_c, 0, 48, 127
2, 24096, Note_off_c, 0, 48, 0
2, 24096, Note_off_c, 0, 60, 0
2, 24096, Note_on_c, 0, 43, 127
2, 24120, Note_off_c, 0, 43, 0
2, 24120, Note_on_c, 0, 36, 127
2, 24144, Note_off_c, 0, 36, 0
2, 24144, Note_on_c, 0, 60, 127
2, 24144, Note_on_c, 0, 43, 127
2, 24168, Note_off_c, 0, 43, 0
2, 24168, Note_on_c, 0, 48, 127
2, 24192, Note_off_c, 0, 48, 0
2, 24192, Note_off_c, 0, 60, 0
2, 24192, Note_on_c, 0, 35, 127
2, 24240, Note_off_c, 0, 35, 0
2, 24240, Note_on_c, 0, 59, 127
2, 24240, Note_on_c, 0, 47, 127
2, 24288, Note_off_c, 0, 47, 0
2, 24288, Note_off_c, 0, 59, 0
2, 24288, Note_on_c, 0, 43, 127
2, 24312, Note_off_c, 0, 43, 0
2, 24312, Note_on_c, 0, 35, 127
2, 24336, Note_off_c, 0, 35, 0
2, 24336, Note_on_c, 0, 59, 127
2, 24336, Note_on_c, 0, 43, 127
2, 24360, Note_off_c, 0, 43, 0
2, 24360, Note_on_c, 0, 47, 127
2, 24384, Note_off_c, 0, 47, 0
2, 24384, Note_off_c, 0, 59, 0
2, 24384, Note_on_c, 0, 35, 127
2, 24432, Note_off_c, 0, 35, 0
2, 24432, Note_on_c, 0, 59, 127
2, 24432, Note_on_c, 0, 47, 127
2, 24480, Note_off_c, 0, 47, 0
2, 24480, Note_off_c, 0, 59, 0
2, 24480, Note_on_c, 0, 43, 127
2, 24504, Note_off_c, 0, 43, 0
2, 24504, Note_on_c, 0, 35, 127
2, 24528, Note_off_c, 0, 35, 0
2, 24528, Note_on_c, 0, 59, 127
2, 24528, Note_on_c, 0, 43, 127
2, 24552, Note_off_c, 0, 43, 0
2, 24552, Note_on_c, 0, 47, 127
2, 24576, Note_off_c, 0, 47, 0
2, 24576, Note_off_c, 0, 59, 0
2, 24576, Note_on_c, 0, 32, 127
2, 24624, Note_off_c, 0, 32, 0
2, 24624, Note_on_c, 0, 56, 127
2, 24624, Note_on_c, 0, 44, 127
2, 24672, Note_off_c, 0, 44, 0
2, 24672, Note_off_c, 0, 56, 0
2, 24672, Note_on_c, 0, 39, 127
2, 24696, Note_off_c, 0, 39, 0
2, 24696, Note_on_c, 0, 32, 127
2, 24720, Note_off_c, 0, 32, 0
2, 24720, Note_on_c, 0, 56, 127
2, 24720, Note_on_c, 0, 39, 127
2, 24744, Note_off_c, 0, 39, 0
2, 24744, Note_on_c, 0, 44, 127
2, 24768, Note_off_c, 0, 44, 0
2, 24768, Note_off_c, 0, 56, 0
2, 24768, Note_on_c, 0, 32, 127
2, 24816, Note_off_c, 0, 32, 0
2, 24816, Note_on_c, 0, 44, 127
2, 24816, Note_on_c, 0, 56, 127
2, 24864, Note_off_c, 0, 56, 0
2, 24864, Note_off_c, 0, 44, 0
2, 24864, Note_on_c, 0, 39, 127
2, 24888, Note_off_c, 0, 39, 0
2, 24888, Note_on_c, 0, 32, 127
2, 24912, Note_off_c, 0, 32, 0
2, 24912, Note_on_c, 0, 39, 127
2, 24912, Note_on_c, 0, 56, 127
2, 24936, Note_off_c, 0, 39, 0
2, 24936, Note_on_c, 0, 44, 127
2, 24960, Note_off_c, 0, 44, 0
2, 24960, Note_off_c, 0, 56, 0
2, 24960, Note_on_c, 0, 31, 127
2, 25008, Note_off_c, 0, 31, 0
2, 25008, Note_on_c, 0, 43, 127
2, 25008, Note_on_c, 0, 55, 127
2, 25056, Note_off_c, 0, 55, 0
2, 25056, Note_off_c, 0, 43, 0
2, 25056, Note_on_c, 0, 38, 127
2, 25080, Note_off_c, 0, 38, 0
2, 25080, Note_on_c, 0, 31, 127
2, 25104, Note_off_c, 0, 31, 0
2, 25104, Note_on_c, 0, 38, 127
2, 25104, Note_on_c, 0, 55, 127
2, 25128, Note_off_c, 0, 38, 0
2, 25128, Note_on_c, 0, 43, 127
2, 25152, Note_off_c, 0, 43, 0
2, 25152, Note_off_c, 0, 55, 0
2, 25152, Note_on_c, 0, 31, 127
2, 25200, Note_off_c, 0, 31, 0
2, 25200, Note_on_c, 0, 43, 127
2, 25200, Note_on_c, 0, 55, 127
2, 25248, Note_off_c, 0, 55, 0
2, 25248, Note_off_c, 0, 43, 0
2, 25248, Note_on_c, 0, 38, 127
2, 25272, Note_off_c, 0, 38, 0
2, 25272, Note_on_c, 0, 31, 127
2, 25296, Note_off_c, 0, 31, 0
2, 25296, Note_on_c, 0, 38, 127
2, 25296, Note_on_c, 0, 55, 127
2, 25320, Note_off_c, 0, 38, 0
2, 25320, Note_on_c, 0, 43, 127
2, 25344, Note_off_c, 0, 43, 0
2, 25344, Note_off_c, 0, 55, 0
2, 25344, Note_on_c, 0, 32, 127
2, 25392, Note_off_c, 0, 32, 0
2, 25392, Note_on_c, 0, 44, 127
2, 25392, Note_on_c, 0, 56, 127
2, 25440, Note_off_c, 0, 56, 0
2, 25440, Note_off_c, 0, 44, 0
2, 25440, Note_on_c, 0, 39, 127
2, 25464, Note_off_c, 0, 39, 0
2, 25464, Note_on_c, 0, 32, 127
2, 25488, Note_off_c, 0, 32, 0
2, 25488, Note_on_c, 0, 39, 127
2, 25488, Note_on_c, 0, 56, 127
2, 25512, Note_off_c, 0, 39, 0
2, 25512, Note_on_c, 0, 44, 127
2, 25536, Note_off_c, 0, 44, 0
2, 25536, Note_off_c, 0, 56, 0
2, 25536, Note_on_c, 0, 32, 127
2, 25584, Note_off_c, 0, 32, 0
2, 25584, Note_on_c, 0, 44, 127
2, 25584, Note_on_c, 0, 56, 127
2, 25632, Note_off_c, 0, 56, 0
2, 25632, Note_off_c, 0, 44, 0
2, 25632, Note_on_c, 0, 39, 127
2, 25656, Note_off_c, 0, 39, 0
2, 25656, Note_on_c, 0, 32, 127
2, 25680, Note_off_c, 0, 32, 0
2, 25680, Note_on_c, 0, 39, 127
2, 25680, Note_on_c, 0, 56, 127
2, 25704, Note_off_c, 0, 39, 0
2, 25704, Note_on_c, 0, 44, 127
2, 25728, Note_off_c, 0, 44, 0
2, 25728, Note_off_c, 0, 56, 0
2, 25728, Note_on_c, 0, 32, 127
2, 25776, Note_off_c, 0, 32, 0
2, 25776, Note_on_c, 0, 44, 127
2, 25776, Note_on_c, 0, 56, 127
2, 25824, Note_off_c, 0, 56, 0
2, 25824, Note_off_c, 0, 44, 0
2, 25824, Note_on_c, 0, 39, 127
2, 25848, Note_off_c, 0, 39, 0
2, 25848, Note_on_c, 0, 32, 127
2, 25872, Note_off_c, 0, 32, 0
2, 25872, Note_on_c, 0, 39, 127
2, 25872, Note_on_c, 0, 56, 127
2, 25896, Note_off_c, 0, 39, 0
2, 25896, Note_on_c, 0, 44, 127
2, 25920, Note_off_c, 0, 44, 0
2, 25920, Note_off_c, 0, 56, 0
2, 25920, Note_on_c, 0, 32, 127
2, 25968, Note_off_c, 0, 32, 0
2, 25968, Note_on_c, 0, 44, 127
2, 25968, Note_on_c, 0, 56, 127
2, 26016, Note_off_c, 0, 56, 0
2, 26016, Note_off_c, 0, 44, 0
2, 26016, Note_on_c, 0, 39, 127
2, 26040, Note_off_c, 0, 39, 0
2, 26040, Note_on_c, 0, 32, 127
2, 26064, Note_off_c, 0, 32, 0
2, 26064, Note_on_c, 0, 39, 127
2, 26064, Note_on_c, 0, 56, 127
2, 26088, Note_off_c, 0, 39, 0
2, 26088, Note_on_c, 0, 44, 127
2, 26112, Note_off_c, 0, 44, 0
2, 26112, Note_off_c, 0, 56, 0
2, 26112, Note_on_c, 0, 31, 127
2, 26160, Note_off_c, 0, 31, 0
2, 26160, Note_on_c, 0, 43, 127
2, 26160, Note_on_c, 0, 55, 127
2, 26208, Note_off_c, 0, 55, 0
2, 26208, Note_off_c, 0, 43, 0
2, 26208, Note_on_c, 0, 38, 127
2, 26232, Note_off_c, 0, 38, 0
2, 26232, Note_on_c, 0, 31, 127
2, 26256, Note_off_c, 0, 31, 0
2, 26256, Note_on_c, 0, 38, 127
2, 26256, Note_on_c, 0, 55, 127
2, 26280, Note_off_c, 0, 38, 0
2, 26280, Note_on_c, 0, 43, 127
2, 26304, Note_off_c, 0, 43, 0
2, 26304, Note_off_c, 0, 55, 0
2, 26304, Note_on_c, 0, 31, 127
2, 26352, Note_off_c, 0, 31, 0
2, 26352, Note_on_c, 0, 43, 127
2, 26352, Note_on_c, 0, 55, 127
2, 26400, Note_off_c, 0, 55, 0
2, 26400, Note_off_c, 0, 43, 0
2, 26400, Note_on_c, 0, 38, 127
2, 26424, Note_off_c, 0, 38, 0
2, 26424, Note_on_c, 0, 31, 127
2, 26448, Note_off_c, 0, 31, 0
2, 26448, Note_on_c, 0, 38, 127
2, 26448, Note_on_c, 0, 55, 127
2, 26472, Note_off_c, 0, 38, 0
2, 26472, Note_on_c, 0, 43, 127
2, 26496, Note_off_c, 0, 43, 0
2, 26496, Note_off_c, 0, 55, 0
2, 26496, Note_on_c, 0, 31, 127
2, 26544, Note_off_c, 0, 31, 0
2, 26544, Note_on_c, 0, 43, 127
2, 26544, Note_on_c, 0, 55, 127
2, 26592, Note_off_c, 0, 55, 0
2, 26592, Note_off_c, 0, 43, 0
2, 26592, Note_on_c, 0, 38, 127
2, 26616, Note_off_c, 0, 38, 0
2, 26616, Note_on_c, 0, 31, 127
2, 26640, Note_off_c, 0, 31, 0
2, 26640, Note_on_c, 0, 38, 127
2, 26640, Note_on_c, 0, 55, 127
2, 26664, Note_off_c, 0, 38, 0
2, 26664, Note_on_c, 0, 43, 127
2, 26688, Note_off_c, 0, 43, 0
2, 26688, Note_off_c, 0, 55, 0
2, 26688, Note_on_c, 0, 31, 127
2, 26736, Note_off_c, 0, 31, 0
2, 26736, Note_on_c, 0, 43, 127
2, 26736, Note_on_c, 0, 55, 127
2, 26784, Note_off_c, 0, 55, 0
2, 26784, Note_off_c, 0, 43, 0
2, 26784, Note_on_c, 0, 38, 127
2, 26808, Note_off_c, 0, 38, 0
2, 26808, Note_on_c, 0, 31, 127
2, 26832, Note_off_c, 0, 31, 0
2, 26832, Note_on_c, 0, 38, 127
2, 26832, Note_on_c, 0, 55, 127
2, 26856, Note_off_c, 0, 38, 0
2, 26856, Note_on_c, 0, 43, 127
2, 26880, Note_off_c, 0, 43, 0
2, 26880, Note_off_c, 0, 55, 0
2, 26880, Note_on_c, 0, 32, 127
2, 26928, Note_off_c, 0, 32, 0
2, 26928, Note_on_c, 0, 44, 127
2, 26928, Note_on_c, 0, 56, 127
2, 26976, Note_off_c, 0, 56, 0
2, 26976, Note_off_c, 0, 44, 0
2, 26976, Note_on_c, 0, 39, 127
2, 27000, Note_off_c, 0, 39, 0
2, 27000, Note_on_c, 0, 32, 127
2, 27024, Note_off_c, 0, 32, 0
2, 27024, Note_on_c, 0, 39, 127
2, 27024, Note_on_c, 0, 56, 127
2, 27048, Note_off_c, 0, 39, 0
2, 27048, Note_on_c, 0, 44, 127
2, 27072, Note_off_c, 0, 44, 0
2, 27072, Note_off_c, 0, 56, 0
2, 27072, Note_on_c, 0, 32, 127
2, 27120, Note_off_c, 0, 32, 0
2, 27120, Note_on_c, 0, 44, 127
2, 27120, Note_on_c, 0, 56, 127
2, 27168, Note_off_c, 0, 56, 0
2, 27168, Note_off_c, 0, 44, 0
2, 27168, Note_on_c, 0, 39, 127
2, 27192, Note_off_c, 0, 39, 0
2, 27192, Note_on_c, 0, 32, 127
2, 27216, Note_off_c, 0, 32, 0
2, 27216, Note_on_c, 0, 39, 127
2, 27216, Note_on_c, 0, 56, 127
2, 27240, Note_off_c, 0, 39, 0
2, 27240, Note_on_c, 0, 44, 127
2, 27264, Note_off_c, 0, 44, 0
2, 27264, Note_off_c, 0, 56, 0
2, 27264, Note_on_c, 0, 32, 127
2, 27312, Note_off_c, 0, 32, 0
2, 27312, Note_on_c, 0, 44, 127
2, 27312, Note_on_c, 0, 56, 127
2, 27360, Note_off_c, 0, 56, 0
2, 27360, Note_off_c, 0, 44, 0
2, 27360, Note_on_c, 0, 39, 127
2, 27384, Note_off_c, 0, 39, 0
2, 27384, Note_on_c, 0, 32, 127
2, 27408, Note_off_c, 0, 32, 0
2, 27408, Note_on_c, 0, 39, 127
2, 27408, Note_on_c, 0, 56, 127
2, 27432, Note_off_c, 0, 39, 0
2, 27432, Note_on_c, 0, 44, 127
2, 27456, Note_off_c, 0, 44, 0
2, 27456, Note_off_c, 0, 56, 0
2, 27456, Note_on_c, 0, 32, 127
2, 27504, Note_off_c, 0, 32, 0
2, 27504, Note_on_c, 0, 44, 127
2, 27504, Note_on_c, 0, 56, 127
2, 27552, Note_off_c, 0, 56, 0
2, 27552, Note_off_c, 0, 44, 0
2, 27552, Note_on_c, 0, 39, 127
2, 27576, Note_off_c, 0, 39, 0
2, 27576, Note_on_c, 0, 32, 127
2, 27600, Note_off_c, 0, 32, 0
2, 27600, Note_on_c, 0, 39, 127
2, 27600, Note_on_c, 0, 56, 127
2, 27624, Note_off_c, 0, 39, 0
2, 27624, Note_on_c, 0, 44, 127
2, 27648, Note_off_c, 0, 44, 0
2, 27648, Note_off_c, 0, 56, 0
2, 27648, Note_on_c, 0, 31, 127
2, 27696, Note_off_c, 0, 31, 0
2, 27696, Note_on_c, 0, 43, 127
2, 27696, Note_on_c, 0, 55, 127
2, 27744, Note_off_c, 0, 55, 0
2, 27744, Note_off_c, 0, 43, 0
2, 27744, Note_on_c, 0, 38, 127
2, 27768, Note_off_c, 0, 38, 0
2, 27768, Note_on_c, 0, 31, 127
2, 27792, Note_off_c, 0, 31, 0
2, 27792, Note_on_c, 0, 38, 127
2, 27792, Note_on_c, 0, 55, 127
2, 27816, Note_off_c, 0, 38, 0
2, 27816, Note_on_c, 0, 43, 127
2, 27840, Note_off_c, 0, 43, 0
2, 27840, Note_off_c, 0, 55, 0
2, 27840, Note_on_c, 0, 31, 127
2, 27888, Note_off_c, 0, 31, 0
2, 27888, Note_on_c, 0, 43, 127
2, 27888, Note_on_c, 0, 55, 127
2, 27936, Note_off_c, 0, 55, 0
2, 27936, Note_off_c, 0, 43, 0
2, 27936, Note_on_c, 0, 38, 127
2, 27960, Note_off_c, 0, 38, 0
2, 27960, Note_on_c, 0, 31, 127
2, 27984, Note_off_c, 0, 31, 0
2, 27984, Note_on_c, 0, 38, 127
2, 27984, Note_on_c, 0, 55, 127
2, 28008, Note_off_c, 0, 38, 0
2, 28008, Note_on_c, 0, 43, 127
2, 28032, Note_off_c, 0, 43, 0
2, 28032, Note_off_c, 0, 55, 0
2, 28032, Note_on_c, 0, 31, 127
2, 28080, Note_off_c, 0, 31, 0
2, 28080, Note_on_c, 0, 43, 127
2, 28080, Note_on_c, 0, 55, 127
2, 28128, Note_off_c, 0, 55, 0
2, 28128, Note_off_c, 0, 43, 0
2, 28128, Note_on_c, 0, 38, 127
2, 28152, Note_off_c, 0, 38, 0
2, 28152, Note_on_c, 0, 31, 127
2, 28176, Note_off_c, 0, 31, 0
2, 28176, Note_on_c, 0, 38, 127
2, 28176, Note_on_c, 0, 55, 127
2, 28200, Note_off_c, 0, 38, 0
2, 28200, Note_on_c, 0, 43, 127
2, 28224, Note_off_c, 0, 43, 0
2, 28224, Note_off_c, 0, 55, 0
2, 28224, Note_on_c, 0, 31, 127
2, 28272, Note_off_c, 0, 31, 0
2, 28272, Note_on_c, 0, 43, 127
2, 28272, Note_on_c, 0, 55, 127
2, 28320, Note_off_c, 0, 55, 0
2, 28320, Note_off_c, 0, 43, 0
2, 28320, Note_on_c, 0, 38, 127
2, 28344, Note_off_c, 0, 38, 0
2, 28344, Note_on_c, 0, 31, 127
2, 28368, Note_off_c, 0, 31, 0
2, 28368, Note_on_c, 0, 38, 127
2, 28368, Note_on_c, 0, 55, 127
2, 28392, Note_off_c, 0, 38, 0
2, 28392, Note_on_c, 0, 43, 127
2, 28416, Note_off_c, 0, 43, 0
2, 28416, Note_off_c, 0, 55, 0
2, 28416, Note_on_c, 0, 32, 127
2, 28464, Note_off_c, 0, 32, 0
2, 28464, Note_on_c, 0, 44, 127
2, 28464, Note_on_c, 0, 56, 127
2, 28512, Note_off_c, 0, 56, 0
2, 28512, Note_off_c, 0, 44, 0
2, 28512, Note_on_c, 0, 39, 127
2, 28536, Note_off_c, 0, 39, 0
2, 28536, Note_on_c, 0, 32, 127
2, 28560, Note_off_c, 0, 32, 0
2, 28560, Note_on_c, 0, 39, 127
2, 28560, Note_on_c, 0, 56, 127
2, 28584, Note_off_c, 0, 39, 0
2, 28584, Note_on_c, 0, 44, 127
2, 28608, Note_off_c, 0, 44, 0
2, 28608, Note_off_c, 0, 56, 0
2, 28608, Note_on_c, 0, 32, 127
2, 28656, Note_off_c, 0, 32, 0
2, 28656, Note_on_c, 0, 44, 127
2, 28656, Note_on_c, 0, 56, 127
2, 28704, Note_off_c, 0, 56, 0
2, 28704, Note_off_c, 0, 44, 0
2, 28704, Note_on_c, 0, 39, 127
2, 28728, Note_off_c, 0, 39, 0
2, 28728, Note_on_c, 0, 32, 127
2, 28752, Note_off_c, 0, 32, 0
2, 28752, Note_on_c, 0, 39, 127
2, 28752, Note_on_c, 0, 56, 127
2, 28776, Note_off_c, 0, 39, 0
2, 28776, Note_on_c, 0, 44, 127
2, 28800, Note_off_c, 0, 44, 0
2, 28800, Note_off_c, 0, 56, 0
2, 28800, Note_on_c, 0, 32, 127
2, 28848, Note_off_c, 0, 32, 0
2, 28848, Note_on_c, 0, 44, 127
2, 28848, Note_on_c, 0, 56, 127
2, 28896, Note_off_c, 0, 56, 0
2, 28896, Note_off_c, 0, 44, 0
2, 28896, Note_on_c, 0, 39, 127
2, 28920, Note_off_c, 0, 39, 0
2, 28920, Note_on_c, 0, 32, 127
2, 28944, Note_off_c, 0, 32, 0
2, 28944, Note_on_c, 0, 39, 127
2, 28944, Note_on_c, 0, 56, 127
2, 28968, Note_off_c, 0, 39, 0
2, 28968, Note_on_c, 0, 44, 127
2, 28992, Note_off_c, 0, 44, 0
2, 28992, Note_off_c, 0, 56, 0
2, 28992, Note_on_c, 0, 32, 127
2, 29040, Note_off_c, 0, 32, 0
2, 29040, Note_on_c, 0, 44, 127
2, 29040, Note_on_c, 0, 56, 127
2, 29088, Note_off_c, 0, 56, 0
2, 29088, Note_off_c, 0, 44, 0
2, 29088, Note_on_c, 0, 39, 127
2, 29112, Note_off_c, 0, 39, 0
2, 29112, Note_on_c, 0, 32, 127
2, 29136, Note_off_c, 0, 32, 0
2, 29136, Note_on_c, 0, 39, 127
2, 29136, Note_on_c, 0, 56, 127
2, 29160, Note_off_c, 0, 39, 0
2, 29160, Note_on_c, 0, 44, 127
2, 29184, Note_off_c, 0, 44, 0
2, 29184, Note_off_c, 0, 56, 0
2, 29184, Note_on_c, 0, 31, 127
2, 29232, Note_off_c, 0, 31, 0
2, 29232, Note_on_c, 0, 43, 127
2, 29232, Note_on_c, 0, 55, 127
2, 29280, Note_off_c, 0, 55, 0
2, 29280, Note_off_c, 0, 43, 0
2, 29280, Note_on_c, 0, 38, 127
2, 29304, Note_off_c, 0, 38, 0
2, 29304, Note_on_c, 0, 31, 127
2, 29328, Note_off_c, 0, 31, 0
2, 29328, Note_on_c, 0, 38, 127
2, 29328, Note_on_c, 0, 55, 127
2, 29352, Note_off_c, 0, 38, 0
2, 29352, Note_on_c, 0, 43, 127
2, 29376, Note_off_c, 0, 43, 0
2, 29376, Note_off_c, 0, 55, 0
2, 29376, Note_on_c, 0, 31, 127
2, 29424, Note_off_c, 0, 31, 0
2, 29424, Note_on_c, 0, 43, 127
2, 29424, Note_on_c, 0, 55, 127
2, 29472, Note_off_c, 0, 55, 0
2, 29472, Note_off_c, 0, 43, 0
2, 29472, Note_on_c, 0, 38, 127
2, 29496, Note_off_c, 0, 38, 0
2, 29496, Note_on_c, 0, 31, 127
2, 29520, Note_off_c, 0, 31, 0
2, 29520, Note_on_c, 0, 38, 127
2, 29520, Note_on_c, 0, 55, 127
2, 29544, Note_off_c, 0, 38, 0
2, 29544, Note_on_c, 0, 43, 127
2, 29568, Note_off_c, 0, 43, 0
2, 29568, Note_off_c, 0, 55, 0
2, 29568, Note_on_c, 0, 31, 127
2, 29616, Note_off_c, 0, 31, 0
2, 29616, Note_on_c, 0, 43, 127
2, 29616, Note_on_c, 0, 55, 127
2, 29664, Note_off_c, 0, 55, 0
2, 29664, Note_off_c, 0, 43, 0
2, 29664, Note_on_c, 0, 38, 127
2, 29688, Note_off_c, 0, 38, 0
2, 29688, Note_on_c, 0, 31, 127
2, 29712, Note_off_c, 0, 31, 0
2, 29712, Note_on_c, 0, 38, 127
2, 29712, Note_on_c, 0, 55, 127
2, 29736, Note_off_c, 0, 38, 0
2, 29736, Note_on_c, 0, 43, 127
2, 29760, Note_off_c, 0, 43, 0
2, 29760, Note_off_c, 0, 55, 0
2, 29760, Note_on_c, 0, 31, 127
2, 29808, Note_off_c, 0, 31, 0
2, 29808, Note_on_c, 0, 43, 127
2, 29808, Note_on_c, 0, 55, 127
2, 29856, Note_off_c, 0, 55, 0
2, 29856, Note_off_c, 0, 43, 0
2, 29856, Note_on_c, 0, 38, 127
2, 29880, Note_off_c, 0, 38, 0
2, 29880, Note_on_c, 0, 31, 127
2, 29904, Note_off_c, 0, 31, 0
2, 29904, Note_on_c, 0, 38, 127
2, 29904, Note_on_c, 0, 55, 127
2, 29928, Note_off_c, 0, 38, 0
2, 29928, Note_on_c, 0, 43, 127
2, 29952, Note_off_c, 0, 43, 0
2, 29952, Note_off_c, 0, 55, 0
2, 29952, Note_on_c, 0, 32, 127
2, 30000, Note_off_c, 0, 32, 0
2, 30000, Note_on_c, 0, 44, 127
2, 30000, Note_on_c, 0, 56, 127
2, 30048, Note_off_c, 0, 56, 0
2, 30048, Note_off_c, 0, 44, 0
2, 30048, Note_on_c, 0, 39, 127
2, 30072, Note_off_c, 0, 39, 0
2, 30072, Note_on_c, 0, 32, 127
2, 30096, Note_off_c, 0, 32, 0
2, 30096, Note_on_c, 0, 39, 127
2, 30096, Note_on_c, 0, 56, 127
2, 30120, Note_off_c, 0, 39, 0
2, 30120, Note_on_c, 0, 44, 127
2, 30144, Note_off_c, 0, 44, 0
2, 30144, Note_off_c, 0, 56, 0
2, 30144, Note_on_c, 0, 32, 127
2, 30192, Note_off_c, 0, 32, 0
2, 30192, Note_on_c, 0, 44, 127
2, 30192, Note_on_c, 0, 56, 127
2, 30240, Note_off_c, 0, 56, 0
2, 30240, Note_off_c, 0, 44, 0
2, 30240, Note_on_c, 0, 39, 127
2, 30264, Note_off_c, 0, 39, 0
2, 30264, Note_on_c, 0, 32, 127
2, 30288, Note_off_c, 0, 32, 0
2, 30288, Note_on_c, 0, 39, 127
2, 30288, Note_on_c, 0, 56, 127
2, 30312, Note_off_c, 0, 39, 0
2, 30312, Note_on_c, 0, 44, 127
2, 30336, Note_off_c, 0, 44, 0
2, 30336, Note_off_c, 0, 56, 0
2, 30336, Note_on_c, 0, 32, 127
2, 30384, Note_off_c, 0, 32, 0
2, 30384, Note_on_c, 0, 44, 127
2, 30384, Note_on_c, 0, 56, 127
2, 30432, Note_off_c, 0, 56, 0
2, 30432, Note_off_c, 0, 44, 0
2, 30432, Note_on_c, 0, 39, 127
2, 30456, Note_off_c, 0, 39, 0
2, 30456, Note_on_c, 0, 32, 127
2, 30480, Note_off_c, 0, 32, 0
2, 30480, Note_on_c, 0, 39, 127
2, 30480, Note_on_c, 0, 56, 127
2, 30504, Note_off_c, 0, 39, 0
2, 30504, Note_on_c, 0, 44, 127
2, 30528, Note_off_c, 0, 44, 0
2, 30528, Note_off_c, 0, 56, 0
2, 30528, Note_on_c, 0, 32, 127
2, 30576, Note_off_c, 0, 32, 0
2, 30576, Note_on_c, 0, 44, 127
2, 30576, Note_on_c, 0, 56, 127
2, 30624, Note_off_c, 0, 56, 0
2, 30624, Note_off_c, 0, 44, 0
2, 30624, Note_on_c, 0, 39, 127
2, 30648, Note_off_c, 0, 39, 0
2, 30648, Note_on_c, 0, 32, 127
2, 30672, Note_off_c, 0, 32, 0
2, 30672, Note_on_c, 0, 39, 127
2, 30672, Note_on_c, 0, 56, 127
2, 30696, Note_off_c, 0, 39, 0
2, 30696, Note_on_c, 0, 44, 127
2, 30720, Note_off_c, 0, 44, 0
2, 30720, Note_off_c, 0, 56, 0
2, 30720, Note_on_c, 0, 31, 127
2, 30768, Note_off_c, 0, 31, 0
2, 30768, Note_on_c, 0, 43, 127
2, 30768, Note_on_c, 0, 55, 127
2, 30816, Note_off_c, 0, 55, 0
2, 30816, Note_off_c, 0, 43, 0
2, 30816, Note_on_c, 0, 38, 127
2, 30840, Note_off_c, 0, 38, 0
2, 30840, Note_on_c, 0, 31, 127
2, 30864, Note_off_c, 0, 31, 0
2, 30864, Note_on_c, 0, 38, 127
2, 30864, Note_on_c, 0, 55, 127
2, 30888, Note_off_c, 0, 38, 0
2, 30888, Note_on_c, 0, 43, 127
2, 30912, Note_off_c, 0, 43, 0
2, 30912, Note_off_c, 0, 55, 0
2, 30912, Note_on_c, 0, 31, 127
2, 30960, Note_off_c, 0, 31, 0
2, 30960, Note_on_c, 0, 43, 127
2, 30960, Note_on_c, 0, 55, 127
2, 31008, Note_off_c, 0, 55, 0
2, 31008, Note_off_c, 0, 43, 0
2, 31008, Note_on_c, 0, 38, 127
2, 31032, Note_off_c, 0, 38, 0
2, 31032, Note_on_c, 0, 31, 127
2, 31056, Note_off_c, 0, 31, 0
2, 31056, Note_on_c, 0, 38, 127
2, 31056, Note_on_c, 0, 55, 127
2, 31080, Note_off_c, 0, 38, 0
2, 31080, Note_on_c, 0, 43, 127
2, 31104, Note_off_c, 0, 43, 0
2, 31104, Note_off_c, 0, 55, 0
2, 31104, Note_on_c, 0, 31, 127
2, 31152, Note_off_c, 0, 31, 0
2, 31152, Note_on_c, 0, 43, 127
2, 31152, Note_on_c, 0, 55, 127
2, 31200, Note_off_c, 0, 55, 0
2, 31200, Note_off_c, 0, 43, 0
2, 31200, Note_on_c, 0, 38, 127
2, 31224, Note_off_c, 0, 38, 0
2, 31224, Note_on_c, 0, 31, 127
2, 31248, Note_off_c, 0, 31, 0
2, 31248, Note_on_c, 0, 38, 127
2, 31248, Note_on_c, 0, 55, 127
2, 31272, Note_off_c, 0, 38, 0
2, 31272, Note_on_c, 0, 43, 127
2, 31296, Note_off_c, 0, 43, 0
2, 31296, Note_off_c, 0, 55, 0
2, 31296, Note_on_c, 0, 31, 127
2, 31344, Note_off_c, 0, 31, 0
2, 31344, Note_on_c, 0, 43, 127
2, 31344, Note_on_c, 0, 55, 127
2, 31392, Note_off_c, 0, 55, 0
2, 31392, Note_off_c, 0, 43, 0
2, 31392, Note_on_c, 0, 38, 127
2, 31416, Note_off_c, 0, 38, 0
2, 31416, Note_on_c, 0, 31, 127
2, 31440, Note_off_c, 0, 31, 0
2, 31440, Note_on_c, 0, 38, 127
2, 31440, Note_on_c, 0, 55, 127
2, 31464, Note_off_c, 0, 38, 0
2, 31464, Note_on_c, 0, 43, 127
2, 31488, Note_off_c, 0, 43, 0
2, 31488, Note_off_c, 0, 55, 0
2, 31488, Note_on_c, 0, 36, 127
2, 31536, Note_off_c, 0, 36, 0
2, 31536, Note_on_c, 0, 48, 127
2, 31536, Note_on_c, 0, 60, 127
2, 31584, Note_off_c, 0, 60, 0
2, 31584, Note_off_c, 0, 48, 0
2, 31584, Note_on_c, 0, 43, 127
2, 31608, Note_off_c, 0, 43, 0
2, 31608, Note_on_c, 0, 36, 127
2, 31632, Note_off_c, 0, 36, 0
2, 31632, Note_on_c, 0, 43, 127
2, 31632, Note_on_c, 0, 60, 127
2, 31656, Note_off_c, 0, 43, 0
2, 31656, Note_on_c, 0, 48, 127
2, 31680, Note_off_c, 0, 48, 0
2, 31680, Note_off_c, 0, 60, 0
2, 31680, Note_on_c, 0, 36, 127
2, 31728, Note_off_c, 0, 36, 0
2, 31728, Note_on_c, 0, 48, 127
2, 31728, Note_on_c, 0, 60, 127
2, 31776, Note_off_c, 0, 60, 0
2, 31776, Note_off_c, 0, 48, 0
2, 31776, Note_on_c, 0, 43, 127
2, 31800, Note_off_c, 0, 43, 0
2, 31800, Note_on_c, 0, 36, 127
2, 31824, Note_off_c, 0, 36, 0
2, 31824, Note_on_c, 0, 43, 127
2, 31824, Note_on_c, 0, 60, 127
2, 31848, Note_off_c, 0, 43, 0
2, 31848, Note_on_c, 0, 48, 127
2, 31872, Note_off_c, 0, 48, 0
2, 31872, Note_off_c, 0, 60, 0
2, 31872, Note_on_c, 0, 37, 127
2, 31920, Note_off_c, 0, 37, 0
2, 31920, Note_on_c, 0, 49, 127
2, 31920, Note_on_c, 0, 61, 127
2, 31968, Note_off_c, 0, 61, 0
2, 31968, Note_off_c, 0, 49, 0
2, 31968, Note_on_c, 0, 44, 127
2, 31992, Note_off_c, 0, 44, 0
2, 31992, Note_on_c, 0, 37, 127
2, 32016, Note_off_c, 0, 37, 0
2, 32016, Note_on_c, 0, 44, 127
2, 32016, Note_on_c, 0, 61, 127
2, 32040, Note_off_c, 0, 44, 0
2, 32040, Note_on_c, 0, 49, 127
2, 32064, Note_off_c, 0, 49, 0
2, 32064, Note_off_c, 0, 61, 0
2, 32064, Note_on_c, 0, 39, 127
2, 32112, Note_off_c, 0, 39, 0
2, 32112, Note_on_c, 0, 51, 127
2, 32112, Note_on_c, 0, 63, 127
2, 32160, Note_off_c, 0, 63, 0
2, 32160, Note_off_c, 0, 51, 0
2, 32160, Note_on_c, 0, 46, 127
2, 32184, Note_off_c, 0, 46, 0
2, 32184, Note_on_c, 0, 39, 127
2, 32208, Note_off_c, 0, 39, 0
2, 32208, Note_on_c, 0, 46, 127
2, 32208, Note_on_c, 0, 63, 127
2, 32232, Note_off_c, 0, 46, 0
2, 32232, Note_on_c, 0, 51, 127
2, 32256, Note_off_c, 0, 51, 0
2, 32256, Note_off_c, 0, 63, 0
2, 32256, Note_on_c, 0, 36, 127
2, 32304, Note_off_c, 0, 36, 0
2, 32304, Note_on_c, 0, 48, 127
2, 32304, Note_on_c, 0, 60, 127
2, 32352, Note_off_c, 0, 60, 0
2, 32352, Note_off_c, 0, 48, 0
2, 32352, Note_on_c, 0, 43, 127
2, 32376, Note_off_c, 0, 43, 0
2, 32376, Note_on_c, 0, 36, 127
2, 32400, Note_off_c, 0, 36, 0
2, 32400, Note_on_c, 0, 43, 127
2, 32400, Note_on_c, 0, 60, 127
2, 32424, Note_off_c, 0, 43, 0
2, 32424, Note_on_c, 0, 48, 127
2, 32448, Note_off_c, 0, 48, 0
2, 32448, Note_off_c, 0, 60, 0
2, 32448, Note_on_c, 0, 36, 127
2, 32496, Note_off_c, 0, 36, 0
2, 32496, Note_on_c, 0, 48, 127
2, 32496, Note_on_c, 0, 60, 127
2, 32544, Note_off_c, 0, 60, 0
2, 32544, Note_off_c, 0, 48, 0
2, 32544, Note_on_c, 0, 43, 127
2, 32568, Note_off_c, 0, 43, 0
2, 32568, Note_on_c, 0, 36, 127
2, 32592, Note_off_c, 0, 36, 0
2, 32592, Note_on_c, 0, 43, 127
2, 32592, Note_on_c, 0, 60, 127
2, 32616, Note_off_c, 0, 43, 0
2, 32616, Note_on_c, 0, 48, 127
2, 32640, Note_off_c, 0, 48, 0
2, 32640, Note_off_c, 0, 60, 0
2, 32640, Note_on_c, 0, 32, 127
2, 32688, Note_off_c, 0, 32, 0
2, 32688, Note_on_c, 0, 44, 127
2, 32688, Note_on_c, 0, 56, 127
2, 32736, Note_off_c, 0, 56, 0
2, 32736, Note_off_c, 0, 44, 0
2, 32736, Note_on_c, 0, 39, 127
2, 32760, Note_off_c, 0, 39, 0
2, 32760, Note_on_c, 0, 32, 127
2, 32784, Note_off_c, 0, 32, 0
2, 32784, Note_on_c, 0, 39, 127
2, 32784, Note_on_c, 0, 56, 127
2, 32808, Note_off_c, 0, 39, 0
2, 32808, Note_on_c, 0, 44, 127
2, 32832, Note_off_c, 0, 44, 0
2, 32832, Note_off_c, 0, 56, 0
2, 32832, Note_on_c, 0, 31, 127
2, 32880, Note_off_c, 0, 31, 0
2, 32880, Note_on_c, 0, 43, 127
2, 32880, Note_on_c, 0, 55, 127
2, 32928, Note_off_c, 0, 55, 0
2, 32928, Note_off_c, 0, 43, 0
2, 32928, Note_on_c, 0, 38, 127
2, 32952, Note_off_c, 0, 38, 0
2, 32952, Note_on_c, 0, 31, 127
2, 32976, Note_off_c, 0, 31, 0
2, 32976, Note_on_c, 0, 38, 127
2, 32976, Note_on_c, 0, 55, 127
2, 33000, Note_off_c, 0, 38, 0
2, 33000, Note_on_c, 0, 43, 127
2, 33024, Note_off_c, 0, 43, 0
2, 33024, Note_off_c, 0, 55, 0
2, 33024, Note_on_c, 0, 36, 127
2, 33072, Note_off_c, 0, 36, 0
2, 33072, Note_on_c, 0, 48, 127
2, 33072, Note_on_c, 0, 60, 127
2, 33120, Note_off_c, 0, 60, 0
2, 33120, Note_off_c, 0, 48, 0
2, 33120, Note_on_c, 0, 43, 127
2, 33144, Note_off_c, 0, 43, 0
2, 33144, Note_on_c, 0, 36, 127
2, 33168, Note_off_c, 0, 36, 0
2, 33168, Note_on_c, 0, 43, 127
2, 33168, Note_on_c, 0, 60, 127
2, 33192, Note_off_c, 0, 43, 0
2, 33192, Note_on_c, 0, 48, 127
2, 33216, Note_off_c, 0, 48, 0
2, 33216, Note_off_c, 0, 60, 0
2, 33216, Note_on_c, 0, 36, 127
2, 33264, Note_off_c, 0, 36, 0
2, 33264, Note_on_c, 0, 48, 127
2, 33264, Note_on_c, 0, 60, 127
2, 33312, Note_off_c, 0, 60, 0
2, 33312, Note_off_c, 0, 48, 0
2, 33312, Note_on_c, 0, 43, 127
2, 33336, Note_off_c, 0, 43, 0
2, 33336, Note_on_c, 0, 36, 127
2, 33360, Note_off_c, 0, 36, 0
2, 33360, Note_on_c, 0, 43, 127
2, 33360, Note_on_c, 0, 60, 127
2, 33384, Note_off_c, 0, 43, 0
2, 33384, Note_on_c, 0, 48, 127
2, 33408, Note_off_c, 0, 48, 0
2, 33408, Note_off_c, 0, 60, 0
2, 33408, Note_on_c, 0, 37, 127
2, 33456, Note_off_c, 0, 37, 0
2, 33456, Note_on_c, 0, 49, 127
2, 33456, Note_on_c, 0, 61, 127
2, 33504, Note_off_c, 0, 61, 0
2, 33504, Note_off_c, 0, 49, 0
2, 33504, Note_on_c, 0, 44, 127
2, 33528, Note_off_c, 0, 44, 0
2, 33528, Note_on_c, 0, 37, 127
2, 33552, Note_off_c, 0, 37, 0
2, 33552, Note_on_c, 0, 44, 127
2, 33552, Note_on_c, 0, 61, 127
2, 33576, Note_off_c, 0, 44, 0
2, 33576, Note_on_c, 0, 49, 127
2, 33600, Note_off_c, 0, 49, 0
2, 33600, Note_off_c, 0, 61, 0
2, 33600, Note_on_c, 0, 39, 127
2, 33648, Note_off_c, 0, 39, 0
2, 33648, Note_on_c, 0, 51, 127
2, 33648, Note_on_c, 0, 63, 127
2, 33696, Note_off_c, 0, 63, 0
2, 33696, Note_off_c, 0, 51, 0
2, 33696, Note_on_c, 0, 46, 127
2, 33720, Note_off_c, 0, 46, 0
2, 33720, Note_on_c, 0, 39, 127
2, 33744, Note_off_c, 0, 39, 0
2, 33744, Note_on_c, 0, 46, 127
2, 33744, Note_on_c, 0, 63, 127
2, 33768, Note_off_c, 0, 46, 0
2, 33768, Note_on_c, 0, 51, 127
2, 33792, Note_off_c, 0, 51, 0
2, 33792, Note_off_c, 0, 63, 0
2, 33792, Note_on_c, 0, 36, 127
2, 33840, Note_off_c, 0, 36, 0
2, 33840, Note_on_c, 0, 48, 127
2, 33840, Note_on_c, 0, 60, 127
2, 33888, Note_off_c, 0, 60, 0
2, 33888, Note_off_c, 0, 48, 0
2, 33888, Note_on_c, 0, 43, 127
2, 33912, Note_off_c, 0, 43, 0
2, 33912, Note_on_c, 0, 36, 127
2, 33936, Note_off_c, 0, 36, 0
2, 33936, Note_on_c, 0, 43, 127
2, 33936, Note_on_c, 0, 60, 127
2, 33960, Note_off_c, 0, 43, 0
2, 33960, Note_on_c, 0, 48, 127
2, 33984, Note_off_c, 0, 48, 0
2, 33984, Note_off_c, 0, 60, 0
2, 33984, Note_on_c, 0, 36, 127
2, 34032, Note_off_c, 0, 36, 0
2, 34032, Note_on_c, 0, 48, 127
2, 34032, Note_on_c, 0, 60, 127
2, 34080, Note_off_c, 0, 60, 0
2, 34080, Note_off_c, 0, 48, 0
2, 34080, Note_on_c, 0, 43, 127
2, 34104, Note_off_c, 0, 43, 0
2, 34104, Note_on_c, 0, 36, 127
2, 34128, Note_off_c, 0, 36, 0
2, 34128, Note_on_c, 0, 43, 127
2, 34128, Note_on_c, 0, 60, 127
2, 34152, Note_off_c, 0, 43, 0
2, 34152, Note_on_c, 0, 48, 127
2, 34176, Note_off_c, 0, 48, 0
2, 34176, Note_off_c, 0, 60, 0
2, 34176, Note_on_c, 0, 32, 127
2, 34224, Note_off_c, 0, 32, 0
2, 34224, Note_on_c, 0, 44, 127
2, 34224, Note_on_c, 0, 56, 127
2, 34272, Note_off_c, 0, 56, 0
2, 34272, Note_off_c, 0, 44, 0
2, 34272, Note_on_c, 0, 39, 127
2, 34296, Note_off_c, 0, 39, 0
2, 34296, Note_on_c, 0, 32, 127
2, 34320, Note_off_c, 0, 32, 0
2, 34320, Note_on_c, 0, 39, 127
2, 34320, Note_on_c, 0, 56, 127
2, 34344, Note_off_c, 0, 39, 0
2, 34344, Note_on_c, 0, 44, 127
2, 34368, Note_off_c, 0, 44, 0
2, 34368, Note_off_c, 0, 56, 0
2, 34368, Note_on_c, 0, 31, 127
2, 34416, Note_off_c, 0, 31, 0
2, 34416, Note_on_c, 0, 43, 127
2, 34416, Note_on_c, 0, 55, 127
2, 34464, Note_off_c, 0, 55, 0
2, 34464, Note_off_c, 0, 43, 0
2, 34464, Note_on_c, 0, 38, 127
2, 34488, Note_off_c, 0, 38, 0
2, 34488, Note_on_c, 0, 31, 127
2, 34512, Note_off_c, 0, 31, 0
2, 34512, Note_on_c, 0, 38, 127
2, 34512, Note_on_c, 0, 55, 127
2, 34536, Note_off_c, 0, 38, 0
2, 34536, Note_on_c, 0, 43, 127
2, 34560, Note_off_c, 0, 43, 0
2, 34560, Note_off_c, 0, 55, 0
2, 34560, Note_on_c, 0, 36, 127
2, 34608, Note_off_c, 0, 36, 0
2, 34608, Note_on_c, 0, 48, 127
2, 34608, Note_on_c, 0, 60, 127
2, 34656, Note_off_c, 0, 60, 0
2, 34656, Note_off_c, 0, 48, 0
2, 34656, Note_on_c, 0, 43, 127
2, 34680, Note_off_c, 0, 43, 0
2, 34680, Note_on_c, 0, 36, 127
2, 34704, Note_off_c, 0, 36, 0
2, 34704, Note_on_c, 0, 43, 127
2, 34704, Note_on_c, 0, 60, 127
2, 34728, Note_off_c, 0, 43, 0
2, 34728, Note_on_c, 0, 48, 127
2, 34752, Note_off_c, 0, 48, 0
2, 34752, Note_off_c, 0, 60, 0
2, 34752, Note_on_c, 0, 36, 127
2, 34800, Note_off_c, 0, 36, 0
2, 34800, Note_on_c, 0, 48, 127
2, 34800, Note_on_c, 0, 60, 127
2, 34848, Note_off_c, 0, 60, 0
2, 34848, Note_off_c, 0, 48, 0
2, 34848, Note_on_c, 0, 43, 127
2, 34872, Note_off_c, 0, 43, 0
2, 34872, Note_on_c, 0, 36, 127
2, 34896, Note_off_c, 0, 36, 0
2, 34896, Note_on_c, 0, 43, 127
2, 34896, Note_on_c, 0, 60, 127
2, 34920, Note_off_c, 0, 43, 0
2, 34920, Note_on_c, 0, 48, 127
2, 34944, Note_off_c, 0, 48, 0
2, 34944, Note_off_c, 0, 60, 0
2, 34944, Note_on_c, 0, 37, 127
2, 34992, Note_off_c, 0, 37, 0
2, 34992, Note_on_c, 0, 49, 127
2, 34992, Note_on_c, 0, 61, 127
2, 35040, Note_off_c, 0, 61, 0
2, 35040, Note_off_c, 0, 49, 0
2, 35040, Note_on_c, 0, 44, 127
2, 35064, Note_off_c, 0, 44, 0
2, 35064, Note_on_c, 0, 37, 127
2, 35088, Note_off_c, 0, 37, 0
2, 35088, Note_on_c, 0, 44, 127
2, 35088, Note_on_c, 0, 61, 127
2, 35112, Note_off_c, 0, 44, 0
2, 35112, Note_on_c, 0, 49, 127
2, 35136, Note_off_c, 0, 49, 0
2, 35136, Note_off_c, 0, 61, 0
2, 35136, Note_on_c, 0, 39, 127
2, 35184, Note_off_c, 0, 39, 0
2, 35184, Note_on_c, 0, 51, 127
2, 35184, Note_on_c, 0, 63, 127
2, 35232, Note_off_c, 0, 63, 0
2, 35232, Note_off_c, 0, 51, 0
2, 35232, Note_on_c, 0, 46, 127
2, 35256, Note_off_c, 0, 46, 0
2, 35256, Note_on_c, 0, 39, 127
2, 35280, Note_off_c, 0, 39, 0
2, 35280, Note_on_c, 0, 46, 127
2, 35280, Note_on_c, 0, 63, 127
2, 35304, Note_off_c, 0, 46, 0
2, 35304, Note_on_c, 0, 51, 127
2, 35328, Note_off_c, 0, 51, 0
2, 35328, Note_off_c, 0, 63, 0
2, 35328, Note_on_c, 0, 36, 127
2, 35376, Note_off_c, 0, 36, 0
2, 35376, Note_on_c, 0, 48, 127
2, 35376, Note_on_c, 0, 60, 127
2, 35424, Note_off_c, 0, 60, 0
2, 35424, Note_off_c, 0, 48, 0
2, 35424, Note_on_c, 0, 43, 127
2, 35448, Note_off_c, 0, 43, 0
2, 35448, Note_on_c, 0, 36, 127
2, 35472, Note_off_c, 0, 36, 0
2, 35472, Note_on_c, 0, 43, 127
2, 35472, Note_on_c, 0, 60, 127
2, 35496, Note_off_c, 0, 43, 0
2, 35496, Note_on_c, 0, 48, 127
2, 35520, Note_off_c, 0, 48, 0
2, 35520, Note_off_c, 0, 60, 0
2, 35520, Note_on_c, 0, 36, 127
2, 35568, Note_off_c, 0, 36, 0
2, 35568, Note_on_c, 0, 48, 127
2, 35568, Note_on_c, 0, 60, 127
2, 35616, Note_off_c, 0, 60, 0
2, 35616, Note_off_c, 0, 48, 0
2, 35616, Note_on_c, 0, 43, 127
2, 35640, Note_off_c, 0, 43, 0
2, 35640, Note_on_c, 0, 36, 127
2, 35664, Note_off_c, 0, 36, 0
2, 35664, Note_on_c, 0, 43, 127
2, 35664, Note_on_c, 0, 60, 127
2, 35688, Note_off_c, 0, 43, 0
2, 35688, Note_on_c, 0, 48, 127
2, 35712, Note_off_c, 0, 48, 0
2, 35712, Note_off_c, 0, 60, 0
2, 35712, Note_on_c, 0, 32, 127
2, 35760, Note_off_c, 0, 32, 0
2, 35760, Note_on_c, 0, 44, 127
2, 35760, Note_on_c, 0, 56, 127
2, 35808, Note_off_c, 0, 56, 0
2, 35808, Note_off_c, 0, 44, 0
2, 35808, Note_on_c, 0, 39, 127
2, 35832, Note_off_c, 0, 39, 0
2, 35832, Note_on_c, 0, 32, 127
2, 35856, Note_off_c, 0, 32, 0
2, 35856, Note_on_c, 0, 39, 127
2, 35856, Note_on_c, 0, 56, 127
2, 35880, Note_off_c, 0, 39, 0
2, 35880, Note_on_c, 0, 44, 127
2, 35904, Note_off_c, 0, 44, 0
2, 35904, Note_off_c, 0, 56, 0
2, 35904, Note_on_c, 0, 31, 127
2, 35952, Note_off_c, 0, 31, 0
2, 35952, Note_on_c, 0, 43, 127
2, 35952, Note_on_c, 0, 55, 127
2, 36000, Note_off_c, 0, 55, 0
2, 36000, Note_off_c, 0, 43, 0
2, 36000, Note_on_c, 0, 38, 127
2, 36024, Note_off_c, 0, 38, 0
2, 36024, Note_on_c, 0, 31, 127
2, 36048, Note_off_c, 0, 31, 0
2, 36048, Note_on_c, 0, 38, 127
2, 36048, Note_on_c, 0, 55, 127
2, 36072, Note_off_c, 0, 38, 0
2, 36072, Note_on_c, 0, 43, 127
2, 36096, Note_off_c, 0, 43, 0
2, 36096, Note_off_c, 0, 55, 0
2, 36096, Note_on_c, 0, 36, 127
2, 36144, Note_off_c, 0, 36, 0
2, 36144, Note_on_c, 0, 48, 127
2, 36144, Note_on_c, 0, 60, 127
2, 36192, Note_off_c, 0, 60, 0
2, 36192, Note_off_c, 0, 48, 0
2, 36192, Note_on_c, 0, 43, 127
2, 36216, Note_off_c, 0, 43, 0
2, 36216, Note_on_c, 0, 36, 127
2, 36240, Note_off_c, 0, 36, 0
2, 36240, Note_on_c, 0, 43, 127
2, 36240, Note_on_c, 0, 60, 127
2, 36264, Note_off_c, 0, 43, 0
2, 36264, Note_on_c, 0, 48, 127
2, 36288, Note_off_c, 0, 48, 0
2, 36288, Note_off_c, 0, 60, 0
2, 36288, Note_on_c, 0, 36, 127
2, 36336, Note_off_c, 0, 36, 0
2, 36336, Note_on_c, 0, 48, 127
2, 36336, Note_on_c, 0, 60, 127
2, 36384, Note_off_c, 0, 60, 0
2, 36384, Note_off_c, 0, 48, 0
2, 36384, Note_on_c, 0, 43, 127
2, 36408, Note_off_c, 0, 43, 0
2, 36408, Note_on_c, 0, 36, 127
2, 36432, Note_off_c, 0, 36, 0
2, 36432, Note_on_c, 0, 43, 127
2, 36432, Note_on_c, 0, 60, 127
2, 36456, Note_off_c, 0, 43, 0
2, 36456, Note_on_c, 0, 48, 127
2, 36480, Note_off_c, 0, 48, 0
2, 36480, Note_off_c, 0, 60, 0
2, 36480, Note_on_c, 0, 37, 127
2, 36528, Note_off_c, 0, 37, 0
2, 36528, Note_on_c, 0, 49, 127
2, 36528, Note_on_c, 0, 61, 127
2, 36576, Note_off_c, 0, 61, 0
2, 36576, Note_off_c, 0, 49, 0
2, 36576, Note_on_c, 0, 44, 127
2, 36600, Note_off_c, 0, 44, 0
2, 36600, Note_on_c, 0, 37, 127
2, 36624, Note_off_c, 0, 37, 0
2, 36624, Note_on_c, 0, 44, 127
2, 36624, Note_on_c, 0, 61, 127
2, 36648, Note_off_c, 0, 44, 0
2, 36648, Note_on_c, 0, 49, 127
2, 36672, Note_off_c, 0, 49, 0
2, 36672, Note_off_c, 0, 61, 0
2, 36672, Note_on_c, 0, 39, 127
2, 36720, Note_off_c, 0, 39, 0
2, 36720, Note_on_c, 0, 51, 127
2, 36720, Note_on_c, 0, 63, 127
2, 36768, Note_off_c, 0, 63, 0
2, 36768, Note_off_c, 0, 51, 0
2, 36768, Note_on_c, 0, 46, 127
2, 36792, Note_off_c, 0, 46, 0
2, 36792, Note_on_c, 0, 39, 127
2, 36816, Note_off_c, 0, 39, 0
2, 36816, Note_on_c, 0, 46, 127
2, 36816, Note_on_c, 0, 63, 127
2, 36840, Note_off_c, 0, 46, 0
2, 36840, Note_on_c, 0, 51, 127
2, 36864, Note_off_c, 0, 51, 0
2, 36864, Note_off_c, 0, 63, 0
2, 36864, Note_on_c, 0, 36, 127
2, 36912, Note_off_c, 0, 36, 0
2, 36912, Note_on_c, 0, 48, 127
2, 36912, Note_on_c, 0, 60, 127
2, 36960, Note_off_c, 0, 60, 0
2, 36960, Note_off_c, 0, 48, 0
2, 36960, Note_on_c, 0, 43, 127
2, 36984, Note_off_c, 0, 43, 0
2, 36984, Note_on_c, 0, 36, 127
2, 37008, Note_off_c, 0, 36, 0
2, 37008, Note_on_c, 0, 43, 127
2, 37008, Note_on_c, 0, 60, 127
2, 37032, Note_off_c, 0, 43, 0
2, 37032, Note_on_c, 0, 48, 127
2, 37056, Note_off_c, 0, 48, 0
2, 37056, Note_off_c, 0, 60, 0
2, 37056, Note_on_c, 0, 36, 127
2, 37104, Note_off_c, 0, 36, 0
2, 37104, Note_on_c, 0, 48, 127
2, 37104, Note_on_c, 0, 60, 127
2, 37152, Note_off_c, 0, 60, 0
2, 37152, Note_off_c, 0, 48, 0
2, 37152, Note_on_c, 0, 43, 127
2, 37176, Note_off_c, 0, 43, 0
2, 37176, Note_on_c, 0, 36, 127
2, 37200, Note_off_c, 0, 36, 0
2, 37200, Note_on_c, 0, 43, 127
2, 37200, Note_on_c, 0, 60, 127
2, 37224, Note_off_c, 0, 43, 0
2, 37224, Note_on_c, 0, 48, 127
2, 37248, Note_off_c, 0, 48, 0
2, 37248, Note_off_c, 0, 60, 0
2, 37248, Note_on_c, 0, 32, 127
2, 37296, Note_off_c, 0, 32, 0
2, 37296, Note_on_c, 0, 44, 127
2, 37296, Note_on_c, 0, 56, 127
2, 37344, Note_off_c, 0, 56, 0
2, 37344, Note_off_c, 0, 44, 0
2, 37344, Note_on_c, 0, 39, 127
2, 37368, Note_off_c, 0, 39, 0
2, 37368, Note_on_c, 0, 32, 127
2, 37392, Note_off_c, 0, 32, 0
2, 37392, Note_on_c, 0, 39, 127
2, 37392, Note_on_c, 0, 56, 127
2, 37416, Note_off_c, 0, 39, 0
2, 37416, Note_on_c, 0, 44, 127
2, 37440, Note_off_c, 0, 44, 0
2, 37440, Note_off_c, 0, 56, 0
2, 37440, Note_on_c, 0, 31, 127
2, 37488, Note_off_c, 0, 31, 0
2, 37488, Note_on_c, 0, 43, 127
2, 37488, Note_on_c, 0, 55, 127
2, 37536, Note_off_c, 0, 55, 0
2, 37536, Note_off_c, 0, 43, 0
2, 37536, Note_on_c, 0, 38, 127
2, 37560, Note_off_c, 0, 38, 0
2, 37560, Note_on_c, 0, 31, 127
2, 37584, Note_off_c, 0, 31, 0
2, 37584, Note_on_c, 0, 38, 127
2, 37584, Note_on_c, 0, 55, 127
2, 37608, Note_off_c, 0, 38, 0
2, 37608, Note_on_c, 0, 43, 127
2, 37632, Note_off_c, 0, 43, 0
2, 37632, Note_off_c, 0, 55, 0
2, 37632, Note_on_c, 0, 32, 127
2, 37680, Note_off_c, 0, 32, 0
2, 37680, Note_on_c, 0, 44, 127
2, 37680, Note_on_c, 0, 56, 127
2, 37728, Note_off_c, 0, 56, 0
2, 37728, Note_off_c, 0, 44, 0
2, 37728, Note_on_c, 0, 39, 127
2, 37752, Note_off_c, 0, 39, 0
2, 37752, Note_on_c, 0, 32, 127
2, 37776, Note_off_c, 0, 32, 0
2, 37776, Note_on_c, 0, 39, 127
2, 37776, Note_on_c, 0, 56, 127
2, 37800, Note_off_c, 0, 39, 0
2, 37800, Note_on_c, 0, 44, 127
2, 37824, Note_off_c, 0, 44, 0
2, 37824, Note_off_c, 0, 56, 0
2, 37824, Note_on_c, 0, 32, 127
2, 37872, Note_off_c, 0, 32, 0
2, 37872, Note_on_c, 0, 44, 127
2, 37872, Note_on_c, 0, 56, 127
2, 37920, Note_off_c, 0, 56, 0
2, 37920, Note_off_c, 0, 44, 0
2, 37920, Note_on_c, 0, 39, 127
2, 37944, Note_off_c, 0, 39, 0
2, 37944, Note_on_c, 0, 32, 127
2, 37968, Note_off_c, 0, 32, 0
2, 37968, Note_on_c, 0, 39, 127
2, 37968, Note_on_c, 0, 56, 127
2, 37992, Note_off_c, 0, 39, 0
2, 37992, Note_on_c, 0, 44, 127
2, 38016, Note_off_c, 0, 44, 0
2, 38016, Note_off_c, 0, 56, 0
2, 38016, Note_on_c, 0, 32, 127
2, 38064, Note_off_c, 0, 32, 0
2, 38064, Note_on_c, 0, 44, 127
2, 38064, Note_on_c, 0, 56, 127
2, 38112, Note_off_c, 0, 56, 0
2, 38112, Note_off_c, 0, 44, 0
2, 38112, Note_on_c, 0, 39, 127
2, 38136, Note_off_c, 0, 39, 0
2, 38136, Note_on_c, 0, 32, 127
2, 38160, Note_off_c, 0, 32, 0
2, 38160, Note_on_c, 0, 39, 127
2, 38160, Note_on_c, 0, 56, 127
2, 38184, Note_off_c, 0, 39, 0
2, 38184, Note_on_c, 0, 44, 127
2, 38208, Note_off_c, 0, 44, 0
2, 38208, Note_off_c, 0, 56, 0
2, 38208, Note_on_c, 0, 32, 127
2, 38256, Note_off_c, 0, 32, 0
2, 38256, Note_on_c, 0, 44, 127
2, 38256, Note_on_c, 0, 56, 127
2, 38304, Note_off_c, 0, 56, 0
2, 38304, Note_off_c, 0, 44, 0
2, 38304, Note_on_c, 0, 39, 127
2, 38328, Note_off_c, 0, 39, 0
2, 38328, Note_on_c, 0, 32, 127
2, 38352, Note_off_c, 0, 32, 0
2, 38352, Note_on_c, 0, 39, 127
2, 38352, Note_on_c, 0, 56, 127
2, 38376, Note_off_c, 0, 39, 0
2, 38376, Note_on_c, 0, 44, 127
2, 38400, Note_off_c, 0, 44, 0
2, 38400, Note_off_c, 0, 56, 0
2, 38400, Note_on_c, 0, 31, 127
2, 38448, Note_off_c, 0, 31, 0
2, 38448, Note_on_c, 0, 43, 127
2, 38448, Note_on_c, 0, 55, 127
2, 38496, Note_off_c, 0, 55, 0
2, 38496, Note_off_c, 0, 43, 0
2, 38496, Note_on_c, 0, 38, 127
2, 38520, Note_off_c, 0, 38, 0
2, 38520, Note_on_c, 0, 31, 127
2, 38544, Note_off_c, 0, 31, 0
2, 38544, Note_on_c, 0, 38, 127
2, 38544, Note_on_c, 0, 55, 127
2, 38568, Note_off_c, 0, 38, 0
2, 38568, Note_on_c, 0, 43, 127
2, 38592, Note_off_c, 0, 43, 0
2, 38592, Note_off_c, 0, 55, 0
2, 38592, Note_on_c, 0, 31, 127
2, 38640, Note_off_c, 0, 31, 0
2, 38640, Note_on_c, 0, 43, 127
2, 38640, Note_on_c, 0, 55, 127
2, 38688, Note_off_c, 0, 55, 0
2, 38688, Note_off_c, 0, 43, 0
2, 38688, Note_on_c, 0, 38, 127
2, 38712, Note_off_c, 0, 38, 0
2, 38712, Note_on_c, 0, 31, 127
2, 38736, Note_off_c, 0, 31, 0
2, 38736, Note_on_c, 0, 38, 127
2, 38736, Note_on_c, 0, 55, 127
2, 38760, Note_off_c, 0, 38, 0
2, 38760, Note_on_c, 0, 43, 127
2, 38784, Note_off_c, 0, 43, 0
2, 38784, Note_off_c, 0, 55, 0
2, 38784, Note_on_c, 0, 31, 127
2, 38832, Note_off_c, 0, 31, 0
2, 38832, Note_on_c, 0, 43, 127
2, 38832, Note_on_c, 0, 55, 127
2, 38880, Note_off_c, 0, 55, 0
2, 38880, Note_off_c, 0, 43, 0
2, 38880, Note_on_c, 0, 38, 127
2, 38904, Note_off_c, 0, 38, 0
2, 38904, Note_on_c, 0, 31, 127
2, 38928, Note_off_c, 0, 31, 0
2, 38928, Note_on_c, 0, 38, 127
2, 38928, Note_on_c, 0, 55, 127
2, 38952, Note_off_c, 0, 38, 0
2, 38952, Note_on_c, 0, 43, 127
2, 38976, Note_off_c, 0, 43, 0
2, 38976, Note_off_c, 0, 55, 0
2, 38976, Note_on_c, 0, 31, 127
2, 39024, Note_off_c, 0, 31, 0
2, 39024, Note_on_c, 0, 43, 127
2, 39024, Note_on_c, 0, 55, 127
2, 39072, Note_off_c, 0, 55, 0
2, 39072, Note_off_c, 0, 43, 0
2, 39072, Note_on_c, 0, 38, 127
2, 39096, Note_off_c, 0, 38, 0
2, 39096, Note_on_c, 0, 31, 127
2, 39120, Note_off_c, 0, 31, 0
2, 39120, Note_on_c, 0, 38, 127
2, 39120, Note_on_c, 0, 55, 127
2, 39144, Note_off_c, 0, 38, 0
2, 39144, Note_on_c, 0, 43, 127
2, 39168, Note_off_c, 0, 43, 0
2, 39168, Note_off_c, 0, 55, 0
2, 39168, Note_on_c, 0, 32, 127
2, 39216, Note_off_c, 0, 32, 0
2, 39216, Note_on_c, 0, 44, 127
2, 39216, Note_on_c, 0, 56, 127
2, 39264, Note_off_c, 0, 56, 0
2, 39264, Note_off_c, 0, 44, 0
2, 39264, Note_on_c, 0, 39, 127
2, 39288, Note_off_c, 0, 39, 0
2, 39288, Note_on_c, 0, 32, 127
2, 39312, Note_off_c, 0, 32, 0
2, 39312, Note_on_c, 0, 39, 127
2, 39312, Note_on_c, 0, 56, 127
2, 39336, Note_off_c, 0, 39, 0
2, 39336, Note_on_c, 0, 44, 127
2, 39360, Note_off_c, 0, 44, 0
2, 39360, Note_off_c, 0, 56, 0
2, 39360, Note_on_c, 0, 32, 127
2, 39408, Note_off_c, 0, 32, 0
2, 39408, Note_on_c, 0, 44, 127
2, 39408, Note_on_c, 0, 56, 127
2, 39456, Note_off_c, 0, 56, 0
2, 39456, Note_off_c, 0, 44, 0
2, 39456, Note_on_c, 0, 39, 127
2, 39480, Note_off_c, 0, 39, 0
2, 39480, Note_on_c, 0, 32, 127
2, 39504, Note_off_c, 0, 32, 0
2, 39504, Note_on_c, 0, 39, 127
2, 39504, Note_on_c, 0, 56, 127
2, 39528, Note_off_c, 0, 39, 0
2, 39528, Note_on_c, 0, 44, 127
2, 39552, Note_off_c, 0, 44, 0
2, 39552, Note_off_c, 0, 56, 0
2, 39552, Note_on_c, 0, 32, 127
2, 39600, Note_off_c, 0, 32, 0
2, 39600, Note_on_c, 0, 44, 127
2, 39600, Note_on_c, 0, 56, 127
2, 39648, Note_off_c, 0, 56, 0
2, 39648, Note_off_c, 0, 44, 0
2, 39648, Note_on_c, 0, 39, 127
2, 39672, Note_off_c, 0, 39, 0
2, 39672, Note_on_c, 0, 32, 127
2, 39696, Note_off_c, 0, 32, 0
2, 39696, Note_on_c, 0, 39, 127
2, 39696, Note_on_c, 0, 56, 127
2, 39720, Note_off_c, 0, 39, 0
2, 39720, Note_on_c, 0, 44, 127
2, 39744, Note_off_c, 0, 44, 0
2, 39744, Note_off_c, 0, 56, 0
2, 39744, Note_on_c, 0, 32, 127
2, 39792, Note_off_c, 0, 32, 0
2, 39792, Note_on_c, 0, 44, 127
2, 39792, Note_on_c, 0, 56, 127
2, 39840, Note_off_c, 0, 56, 0
2, 39840, Note_off_c, 0, 44, 0
2, 39840, Note_on_c, 0, 39, 127
2, 39864, Note_off_c, 0, 39, 0
2, 39864, Note_on_c, 0, 32, 127
2, 39888, Note_off_c, 0, 32, 0
2, 39888, Note_on_c, 0, 39, 127
2, 39888, Note_on_c, 0, 56, 127
2, 39912, Note_off_c, 0, 39, 0
2, 39912, Note_on_c, 0, 44, 127
2, 39936, Note_off_c, 0, 44, 0
2, 39936, Note_off_c, 0, 56, 0
2, 39936, Note_on_c, 0, 31, 127
2, 39984, Note_off_c, 0, 31, 0
2, 39984, Note_on_c, 0, 43, 127
2, 39984, Note_on_c, 0, 55, 127
2, 40032, Note_off_c, 0, 55, 0
2, 40032, Note_off_c, 0, 43, 0
2, 40032, Note_on_c, 0, 38, 127
2, 40056, Note_off_c, 0, 38, 0
2, 40056, Note_on_c, 0, 31, 127
2, 40080, Note_off_c, 0, 31, 0
2, 40080, Note_on_c, 0, 38, 127
2, 40080, Note_on_c, 0, 55, 127
2, 40104, Note_off_c, 0, 38, 0
2, 40104, Note_on_c, 0, 43, 127
2, 40128, Note_off_c, 0, 43, 0
2, 40128, Note_off_c, 0, 55, 0
2, 40128, Note_on_c, 0, 31, 127
2, 40176, Note_off_c, 0, 31, 0
2, 40176, Note_on_c, 0, 43, 127
2, 40176, Note_on_c, 0, 55, 127
2, 40224, Note_off_c, 0, 55, 0
2, 40224, Note_off_c, 0, 43, 0
2, 40224, Note_on_c, 0, 38, 127
2, 40248, Note_off_c, 0, 38, 0
2, 40248, Note_on_c, 0, 31, 127
2, 40272, Note_off_c, 0, 31, 0
2, 40272, Note_on_c, 0, 38, 127
2, 40272, Note_on_c, 0, 55, 127
2, 40296, Note_off_c, 0, 38, 0
2, 40296, Note_on_c, 0, 43, 127
2, 40320, Note_off_c, 0, 43, 0
2, 40320, Note_off_c, 0, 55, 0
2, 40320, Note_on_c, 0, 31, 127
2, 40368, Note_off_c, 0, 31, 0
2, 40368, Note_on_c, 0, 43, 127
2, 40368, Note_on_c, 0, 55, 127
2, 40416, Note_off_c, 0, 55, 0
2, 40416, Note_off_c, 0, 43, 0
2, 40416, Note_on_c, 0, 38, 127
2, 40440, Note_off_c, 0, 38, 0
2, 40440, Note_on_c, 0, 31, 127
2, 40464, Note_off_c, 0, 31, 0
2, 40464, Note_on_c, 0, 38, 127
2, 40464, Note_on_c, 0, 55, 127
2, 40488, Note_off_c, 0, 38, 0
2, 40488, Note_on_c, 0, 43, 127
2, 40512, Note_off_c, 0, 43, 0
2, 40512, Note_off_c, 0, 55, 0
2, 40512, Note_on_c, 0, 31, 127
2, 40560, Note_off_c, 0, 31, 0
2, 40560, Note_on_c, 0, 43, 127
2, 40560, Note_on_c, 0, 55, 127
2, 40608, Note_off_c, 0, 55, 0
2, 40608, Note_off_c, 0, 43, 0
2, 40608, Note_on_c, 0, 38, 127
2, 40632, Note_off_c, 0, 38, 0
2, 40632, Note_on_c, 0, 31, 127
2, 40656, Note_off_c, 0, 31, 0
2, 40656, Note_on_c, 0, 38, 127
2, 40656, Note_on_c, 0, 55, 127
2, 40680, Note_off_c, 0, 38, 0
2, 40680, Note_on_c, 0, 43, 127
2, 40704, Note_off_c, 0, 43, 0
2, 40704, Note_off_c, 0, 55, 0
2, 40704, Note_on_c, 0, 32, 127
2, 40752, Note_off_c, 0, 32, 0
2, 40752, Note_on_c, 0, 44, 127
2, 40752, Note_on_c, 0, 56, 127
2, 40800, Note_off_c, 0, 56, 0
2, 40800, Note_off_c, 0, 44, 0
2, 40800, Note_on_c, 0, 39, 127
2, 40824, Note_off_c, 0, 39, 0
2, 40824, Note_on_c, 0, 32, 127
2, 40848, Note_off_c, 0, 32, 0
2, 40848, Note_on_c, 0, 39, 127
2, 40848, Note_on_c, 0, 56, 127
2, 40872, Note_off_c, 0, 39, 0
2, 40872, Note_on_c, 0, 44, 127
2, 40896, Note_off_c, 0, 44, 0
2, 40896, Note_off_c, 0, 56, 0
2, 40896, Note_on_c, 0, 32, 127
2, 40944, Note_off_c, 0, 32, 0
2, 40944, Note_on_c, 0, 44, 127
2, 40944, Note_on_c, 0, 56, 127
2, 40992, Note_off_c, 0, 56, 0
2, 40992, Note_off_c, 0, 44, 0
2, 40992, Note_on_c, 0, 39, 127
2, 41016, Note_off_c, 0, 39, 0
2, 41016, Note_on_c, 0, 32, 127
2, 41040, Note_off_c, 0, 32, 0
2, 41040, Note_on_c, 0, 39, 127
2, 41040, Note_on_c, 0, 56, 127
2, 41064, Note_off_c, 0, 39, 0
2, 41064, Note_on_c, 0, 44, 127
2, 41088, Note_off_c, 0, 44, 0
2, 41088, Note_off_c, 0, 56, 0
2, 41088, Note_on_c, 0, 32, 127
2, 41136, Note_off_c, 0, 32, 0
2, 41136, Note_on_c, 0, 44, 127
2, 41136, Note_on_c, 0, 56, 127
2, 41184, Note_off_c, 0, 56, 0
2, 41184, Note_off_c, 0, 44, 0
2, 41184, Note_on_c, 0, 39, 127
2, 41208, Note_off_c, 0, 39, 0
2, 41208, Note_on_c, 0, 32, 127
2, 41232, Note_off_c, 0, 32, 0
2, 41232, Note_on_c, 0, 39, 127
2, 41232, Note_on_c, 0, 56, 127
2, 41256, Note_off_c, 0, 39, 0
2, 41256, Note_on_c, 0, 44, 127
2, 41280, Note_off_c, 0, 44, 0
2, 41280, Note_off_c, 0, 56, 0
2, 41280, Note_on_c, 0, 32, 127
2, 41328, Note_off_c, 0, 32, 0
2, 41328, Note_on_c, 0, 44, 127
2, 41328, Note_on_c, 0, 56, 127
2, 41376, Note_off_c, 0, 56, 0
2, 41376, Note_off_c, 0, 44, 0
2, 41376, Note_on_c, 0, 39, 127
2, 41400, Note_off_c, 0, 39, 0
2, 41400, Note_on_c, 0, 32, 127
2, 41424, Note_off_c, 0, 32, 0
2, 41424, Note_on_c, 0, 39, 127
2, 41424, Note_on_c, 0, 56, 127
2, 41448, Note_off_c, 0, 39, 0
2, 41448, Note_on_c, 0, 44, 127
2, 41472, Note_off_c, 0, 44, 0
2, 41472, Note_off_c, 0, 56, 0
2, 41472, Note_on_c, 0, 31, 127
2, 41520, Note_off_c, 0, 31, 0
2, 41520, Note_on_c, 0, 43, 127
2, 41520, Note_on_c, 0, 55, 127
2, 41568, Note_off_c, 0, 55, 0
2, 41568, Note_off_c, 0, 43, 0
2, 41568, Note_on_c, 0, 38, 127
2, 41592, Note_off_c, 0, 38, 0
2, 41592, Note_on_c, 0, 31, 127
2, 41616, Note_off_c, 0, 31, 0
2, 41616, Note_on_c, 0, 38, 127
2, 41616, Note_on_c, 0, 55, 127
2, 41640, Note_off_c, 0, 38, 0
2, 41640, Note_on_c, 0, 43, 127
2, 41664, Note_off_c, 0, 43, 0
2, 41664, Note_off_c, 0, 55, 0
2, 41664, Note_on_c, 0, 31, 127
2, 41712, Note_off_c, 0, 31, 0
2, 41712, Note_on_c, 0, 43, 127
2, 41712, Note_on_c, 0, 55, 127
2, 41760, Note_off_c, 0, 55, 0
2, 41760, Note_off_c, 0, 43, 0
2, 41760, Note_on_c, 0, 38, 127
2, 41784, Note_off_c, 0, 38, 0
2, 41784, Note_on_c, 0, 31, 127
2, 41808, Note_off_c, 0, 31, 0
2, 41808, Note_on_c, 0, 38, 127
2, 41808, Note_on_c, 0, 55, 127
2, 41832, Note_off_c, 0, 38, 0
2, 41832, Note_on_c, 0, 43, 127
2, 41856, Note_off_c, 0, 43, 0
2, 41856, Note_off_c, 0, 55, 0
2, 41856, Note_on_c, 0, 31, 127
2, 41904, Note_off_c, 0, 31, 0
2, 41904, Note_on_c, 0, 43, 127
2, 41904, Note_on_c, 0, 55, 127
2, 41952, Note_off_c, 0, 55, 0
2, 41952, Note_off_c, 0, 43, 0
2, 41952, Note_on_c, 0, 38, 127
2, 41976, Note_off_c, 0, 38, 0
2, 41976, Note_on_c, 0, 31, 127
2, 42000, Note_off_c, 0, 31, 0
2, 42000, Note_on_c, 0, 38, 127
2, 42000, Note_on_c, 0, 55, 127
2, 42024, Note_off_c, 0, 38, 0
2, 42024, Note_on_c, 0, 43, 127
2, 42048, Note_off_c, 0, 43, 0
2, 42048, Note_off_c, 0, 55, 0
2, 42048, Note_on_c, 0, 31, 127
2, 42096, Note_off_c, 0, 31, 0
2, 42096, Note_on_c, 0, 43, 127
2, 42096, Note_on_c, 0, 55, 127
2, 42144, Note_off_c, 0, 55, 0
2, 42144, Note_off_c, 0, 43, 0
2, 42144, Note_on_c, 0, 38, 127
2, 42168, Note_off_c, 0, 38, 0
2, 42168, Note_on_c, 0, 31, 127
2, 42192, Note_off_c, 0, 31, 0
2, 42192, Note_on_c, 0, 38, 127
2, 42192, Note_on_c, 0, 55, 127
2, 42216, Note_off_c, 0, 38, 0
2, 42216, Note_on_c, 0, 43, 127
2, 42240, Note_off_c, 0, 43, 0
2, 42240, Note_off_c, 0, 55, 0
2, 42240, Note_on_c, 0, 32, 127
2, 42288, Note_off_c, 0, 32, 0
2, 42288, Note_on_c, 0, 44, 127
2, 42288, Note_on_c, 0, 56, 127
2, 42336, Note_off_c, 0, 56, 0
2, 42336, Note_off_c, 0, 44, 0
2, 42336, Note_on_c, 0, 39, 127
2, 42360, Note_off_c, 0, 39, 0
2, 42360, Note_on_c, 0, 32, 127
2, 42384, Note_off_c, 0, 32, 0
2, 42384, Note_on_c, 0, 39, 127
2, 42384, Note_on_c, 0, 56, 127
2, 42408, Note_off_c, 0, 39, 0
2, 42408, Note_on_c, 0, 44, 127
2, 42432, Note_off_c, 0, 44, 0
2, 42432, Note_off_c, 0, 56, 0
2, 42432, Note_on_c, 0, 32, 127
2, 42480, Note_off_c, 0, 32, 0
2, 42480, Note_on_c, 0, 44, 127
2, 42480, Note_on_c, 0, 56, 127
2, 42528, Note_off_c, 0, 56, 0
2, 42528, Note_off_c, 0, 44, 0
2, 42528, Note_on_c, 0, 39, 127
2, 42552, Note_off_c, 0, 39, 0
2, 42552, Note_on_c, 0, 32, 127
2, 42576, Note_off_c, 0, 32, 0
2, 42576, Note_on_c, 0, 39, 127
2, 42576, Note_on_c, 0, 56, 127
2, 42600, Note_off_c, 0, 39, 0
2, 42600, Note_on_c, 0, 44, 127
2, 42624, Note_off_c, 0, 44, 0
2, 42624, Note_off_c, 0, 56, 0
2, 42624, Note_on_c, 0, 32, 127
2, 42672, Note_off_c, 0, 32, 0
2, 42672, Note_on_c, 0, 44, 127
2, 42672, Note_on_c, 0, 56, 127
2, 42720, Note_off_c, 0, 56, 0
2, 42720, Note_off_c, 0, 44, 0
2, 42720, Note_on_c, 0, 39, 127
2, 42744, Note_off_c, 0, 39, 0
2, 42744, Note_on_c, 0, 32, 127
2, 42768, Note_off_c, 0, 32, 0
2, 42768, Note_on_c, 0, 39, 127
2, 42768, Note_on_c, 0, 56, 127
2, 42792, Note_off_c, 0, 39, 0
2, 42792, Note_on_c, 0, 44, 127
2, 42816, Note_off_c, 0, 44, 0
2, 42816, Note_off_c, 0, 56, 0
2, 42816, Note_on_c, 0, 32, 127
2, 42864, Note_off_c, 0, 32, 0
2, 42864, Note_on_c, 0, 44, 127
2, 42864, Note_on_c, 0, 56, 127
2, 42912, Note_off_c, 0, 56, 0
2, 42912, Note_off_c, 0, 44, 0
2, 42912, Note_on_c, 0, 39, 127
2, 42936, Note_off_c, 0, 39, 0
2, 42936, Note_on_c, 0, 32, 127
2, 42960, Note_off_c, 0, 32, 0
2, 42960, Note_on_c, 0, 39, 127
2, 42960, Note_on_c, 0, 56, 127
2, 42984, Note_off_c, 0, 39, 0
2, 42984, Note_on_c, 0, 44, 127
2, 43008, Note_off_c, 0, 44, 0
2, 43008, Note_off_c, 0, 56, 0
2, 43008, Note_on_c, 0, 31, 127
2, 43056, Note_off_c, 0, 31, 0
2, 43056, Note_on_c, 0, 43, 127
2, 43056, Note_on_c, 0, 55, 127
2, 43104, Note_off_c, 0, 55, 0
2, 43104, Note_off_c, 0, 43, 0
2, 43104, Note_on_c, 0, 38, 127
2, 43128, Note_off_c, 0, 38, 0
2, 43128, Note_on_c, 0, 31, 127
2, 43152, Note_off_c, 0, 31, 0
2, 43152, Note_on_c, 0, 38, 127
2, 43152, Note_on_c, 0, 55, 127
2, 43176, Note_off_c, 0, 38, 0
2, 43176, Note_on_c, 0, 43, 127
2, 43200, Note_off_c, 0, 43, 0
2, 43200, Note_off_c, 0, 55, 0
2, 43200, Note_on_c, 0, 31, 127
2, 43248, Note_off_c, 0, 31, 0
2, 43248, Note_on_c, 0, 43, 127
2, 43248, Note_on_c, 0, 55, 127
2, 43296, Note_off_c, 0, 55, 0
2, 43296, Note_off_c, 0, 43, 0
2, 43296, Note_on_c, 0, 38, 127
2, 43320, Note_off_c, 0, 38, 0
2, 43320, Note_on_c, 0, 31, 127
2, 43344, Note_off_c, 0, 31, 0
2, 43344, Note_on_c, 0, 38, 127
2, 43344, Note_on_c, 0, 55, 127
2, 43368, Note_off_c, 0, 38, 0
2, 43368, Note_on_c, 0, 43, 127
2, 43392, Note_off_c, 0, 43, 0
2, 43392, Note_off_c, 0, 55, 0
2, 43392, Note_on_c, 0, 31, 127
2, 43440, Note_off_c, 0, 31, 0
2, 43440, Note_on_c, 0, 43, 127
2, 43440, Note_on_c, 0, 55, 127
2, 43488, Note_off_c, 0, 55, 0
2, 43488, Note_off_c, 0, 43, 0
2, 43488, Note_on_c, 0, 38, 127
2, 43512, Note_off_c, 0, 38, 0
2, 43512, Note_on_c, 0, 31, 127
2, 43536, Note_off_c, 0, 31, 0
2, 43536, Note_on_c, 0, 38, 127
2, 43536, Note_on_c, 0, 55, 127
2, 43560, Note_off_c, 0, 38, 0
2, 43560, Note_on_c, 0, 43, 127
2, 43584, Note_off_c, 0, 43, 0
2, 43584, Note_off_c, 0, 55, 0
2, 43584, Note_on_c, 0, 31, 127
2, 43632, Note_off_c, 0, 31, 0
2, 43632, Note_on_c, 0, 43, 127
2, 43632, Note_on_c, 0, 55, 127
2, 43680, Note_off_c, 0, 55, 0
2, 43680, Note_off_c, 0, 43, 0
2, 43680, Note_on_c, 0, 38, 127
2, 43704, Note_off_c, 0, 38, 0
2, 43704, Note_on_c, 0, 31, 127
2, 43728, Note_off_c, 0, 31, 0
2, 43728, Note_on_c, 0, 38, 127
2, 43728, Note_on_c, 0, 55, 127
2, 43752, Note_off_c, 0, 38, 0
2, 43752, Note_on_c, 0, 43, 127
2, 43776, Note_off_c, 0, 43, 0
2, 43776, Note_off_c, 0, 55, 0
2, 43776, Note_on_c, 0, 36, 127
2, 43824, Note_off_c, 0, 36, 0
2, 43824, Note_on_c, 0, 48, 127
2, 43824, Note_on_c, 0, 60, 127
2, 43872, Note_off_c, 0, 60, 0
2, 43872, Note_off_c, 0, 48, 0
2, 43872, Note_on_c, 0, 43, 127
2, 43896, Note_off_c, 0, 43, 0
2, 43896, Note_on_c, 0, 36, 127
2, 43920, Note_off_c, 0, 36, 0
2, 43920, Note_on_c, 0, 43, 127
2, 43920, Note_on_c, 0, 60, 127
2, 43944, Note_off_c, 0, 43, 0
2, 43944, Note_on_c, 0, 48, 127
2, 43968, Note_off_c, 0, 48, 0
2, 43968, Note_off_c, 0, 60, 0
2, 43968, Note_on_c, 0, 36, 127
2, 44016, Note_off_c, 0, 36, 0
2, 44016, Note_on_c, 0, 48, 127
2, 44016, Note_on_c, 0, 60, 127
2, 44064, Note_off_c, 0, 60, 0
2, 44064, Note_off_c, 0, 48, 0
2, 44064, Note_on_c, 0, 43, 127
2, 44088, Note_off_c, 0, 43, 0
2, 44088, Note_on_c, 0, 36, 127
2, 44112, Note_off_c, 0, 36, 0
2, 44112, Note_on_c, 0, 43, 127
2, 44112, Note_on_c, 0, 60, 127
2, 44136, Note_off_c, 0, 43, 0
2, 44136, Note_on_c, 0, 48, 127
2, 44160, Note_off_c, 0, 48, 0
2, 44160, Note_off_c, 0, 60, 0
2, 44160, Note_on_c, 0, 36, 127
2, 44208, Note_off_c, 0, 36, 0
2, 44208, Note_on_c, 0, 48, 127
2, 44208, Note_on_c, 0, 60, 127
2, 44256, Note_off_c, 0, 60, 0
2, 44256, Note_off_c, 0, 48, 0
2, 44256, Note_on_c, 0, 43, 127
2, 44280, Note_off_c, 0, 43, 0
2, 44280, Note_on_c, 0, 36, 127
2, 44304, Note_off_c, 0, 36, 0
2, 44304, Note_on_c, 0, 43, 127
2, 44304, Note_on_c, 0, 60, 127
2, 44328, Note_off_c, 0, 43, 0
2, 44328, Note_on_c, 0, 48, 127
2, 44352, Note_off_c, 0, 48, 0
2, 44352, Note_off_c, 0, 60, 0
2, 44352, Note_on_c, 0, 34, 127
2, 44400, Note_off_c, 0, 34, 0
2, 44400, Note_on_c, 0, 46, 127
2, 44400, Note_on_c, 0, 58, 127
2, 44448, Note_off_c, 0, 58, 0
2, 44448, Note_off_c, 0, 46, 0
2, 44448, Note_on_c, 0, 41, 127
2, 44472, Note_off_c, 0, 41, 0
2, 44472, Note_on_c, 0, 34, 127
2, 44496, Note_off_c, 0, 34, 0
2, 44496, Note_on_c, 0, 41, 127
2, 44496, Note_on_c, 0, 58, 127
2, 44520, Note_off_c, 0, 41, 0
2, 44520, Note_on_c, 0, 46, 127
2, 44544, Note_off_c, 0, 46, 0
2, 44544, Note_off_c, 0, 58, 0
2, 44544, Note_on_c, 0, 32, 127
2, 44592, Note_off_c, 0, 32, 0
2, 44592, Note_on_c, 0, 44, 127
2, 44592, Note_on_c, 0, 56, 127
2, 44640, Note_off_c, 0, 56, 0
2, 44640, Note_off_c, 0, 44, 0
2, 44640, Note_on_c, 0, 39, 127
2, 44664, Note_off_c, 0, 39, 0
2, 44664, Note_on_c, 0, 32, 127
2, 44688, Note_off_c, 0, 32, 0
2, 44688, Note_on_c, 0, 39, 127
2, 44688, Note_on_c, 0, 56, 127
2, 44712, Note_off_c, 0, 39, 0
2, 44712, Note_on_c, 0, 44, 127
2, 44736, Note_off_c, 0, 44, 0
2, 44736, Note_off_c, 0, 56, 0
2, 44736, Note_on_c, 0, 32, 127
2, 44784, Note_off_c, 0, 32, 0
2, 44784, Note_on_c, 0, 44, 127
2, 44784, Note_on_c, 0, 56, 127
2, 44832, Note_off_c, 0, 56, 0
2, 44832, Note_off_c, 0, 44, 0
2, 44832, Note_on_c, 0, 39, 127
2, 44856, Note_off_c, 0, 39, 0
2, 44856, Note_on_c, 0, 32, 127
2, 44880, Note_off_c, 0, 32, 0
2, 44880, Note_on_c, 0, 39, 127
2, 44880, Note_on_c, 0, 56, 127
2, 44904, Note_off_c, 0, 39, 0
2, 44904, Note_on_c, 0, 44, 127
2, 44928, Note_off_c, 0, 44, 0
2, 44928, Note_off_c, 0, 56, 0
2, 44928, Note_on_c, 0, 32, 127
2, 44976, Note_off_c, 0, 32, 0
2, 44976, Note_on_c, 0, 44, 127
2, 44976, Note_on_c, 0, 56, 127
2, 45024, Note_off_c, 0, 56, 0
2, 45024, Note_off_c, 0, 44, 0
2, 45024, Note_on_c, 0, 39, 127
2, 45048, Note_off_c, 0, 39, 0
2, 45048, Note_on_c, 0, 32, 127
2, 45072, Note_off_c, 0, 32, 0
2, 45072, Note_on_c, 0, 39, 127
2, 45072, Note_on_c, 0, 56, 127
2, 45096, Note_off_c, 0, 39, 0
2, 45096, Note_on_c, 0, 44, 127
2, 45120, Note_off_c, 0, 44, 0
2, 45120, Note_off_c, 0, 56, 0
2, 45120, Note_on_c, 0, 34, 127
2, 45168, Note_off_c, 0, 34, 0
2, 45168, Note_on_c, 0, 46, 127
2, 45168, Note_on_c, 0, 58, 127
2, 45216, Note_off_c, 0, 58, 0
2, 45216, Note_off_c, 0, 46, 0
2, 45216, Note_on_c, 0, 41, 127
2, 45240, Note_off_c, 0, 41, 0
2, 45240, Note_on_c, 0, 34, 127
2, 45264, Note_off_c, 0, 34, 0
2, 45264, Note_on_c, 0, 41, 127
2, 45264, Note_on_c, 0, 58, 127
2, 45288, Note_off_c, 0, 41, 0
2, 45288, Note_on_c, 0, 46, 127
2, 45312, Note_off_c, 0, 46, 0
2, 45312, Note_off_c, 0, 58, 0
2, 45312, Note_on_c, 0, 36, 127
2, 45360, Note_off_c, 0, 36, 0
2, 45360, Note_on_c, 0, 48, 127
2, 45360, Note_on_c, 0, 60, 127
2, 45408, Note_off_c, 0, 60, 0
2, 45408, Note_off_c, 0, 48, 0
2, 45408, Note_on_c, 0, 43, 127
2, 45432, Note_off_c, 0, 43, 0
2, 45432, Note_on_c, 0, 36, 127
2, 45456, Note_off_c, 0, 36, 0
2, 45456, Note_on_c, 0, 43, 127
2, 45456, Note_on_c, 0, 60, 127
2, 45480, Note_off_c, 0, 43, 0
2, 45480, Note_on_c, 0, 48, 127
2, 45504, Note_off_c, 0, 48, 0
2, 45504, Note_off_c, 0, 60, 0
2, 45504, Note_on_c, 0, 36, 127
2, 45552, Note_off_c, 0, 36, 0
2, 45552, Note_on_c, 0, 48, 127
2, 45552, Note_on_c, 0, 60, 127
2, 45600, Note_off_c, 0, 60, 0
2, 45600, Note_off_c, 0, 48, 0
2, 45600, Note_on_c, 0, 43, 127
2, 45624, Note_off_c, 0, 43, 0
2, 45624, Note_on_c, 0, 36, 127
2, 45648, Note_off_c, 0, 36, 0
2, 45648, Note_on_c, 0, 43, 127
2, 45648, Note_on_c, 0, 60, 127
2, 45672, Note_off_c, 0, 43, 0
2, 45672, Note_on_c, 0, 48, 127
2, 45696, Note_off_c, 0, 48, 0
2, 45696, Note_off_c, 0, 60, 0
2, 45696, Note_on_c, 0, 36, 127
2, 45744, Note_off_c, 0, 36, 0
2, 45744, Note_on_c, 0, 48, 127
2, 45744, Note_on_c, 0, 60, 127
2, 45792, Note_off_c, 0, 60, 0
2, 45792, Note_off_c, 0, 48, 0
2, 45792, Note_on_c, 0, 43, 127
2, 45816, Note_off_c, 0, 43, 0
2, 45816, Note_on_c, 0, 36, 127
2, 45840, Note_off_c, 0, 36, 0
2, 45840, Note_on_c, 0, 43, 127
2, 45840, Note_on_c, 0, 60, 127
2, 45864, Note_off_c, 0, 43, 0
2, 45864, Note_on_c, 0, 48, 127
2, 45888, Note_off_c, 0, 48, 0
2, 45888, Note_off_c, 0, 60, 0
2, 45888, Note_on_c, 0, 34, 127
2, 45936, Note_off_c, 0, 34, 0
2, 45936, Note_on_c, 0, 46, 127
2, 45936, Note_on_c, 0, 58, 127
2, 45984, Note_off_c, 0, 58, 0
2, 45984, Note_off_c, 0, 46, 0
2, 45984, Note_on_c, 0, 41, 127
2, 46008, Note_off_c, 0, 41, 0
2, 46008, Note_on_c, 0, 34, 127
2, 46032, Note_off_c, 0, 34, 0
2, 46032, Note_on_c, 0, 41, 127
2, 46032, Note_on_c, 0, 58, 127
2, 46056, Note_off_c, 0, 41, 0
2, 46056, Note_on_c, 0, 46, 127
2, 46080, Note_off_c, 0, 46, 0
2, 46080, Note_off_c, 0, 58, 0
2, 46080, Note_on_c, 0, 32, 127
2, 46128, Note_off_c, 0, 32, 0
2, 46128, Note_on_c, 0, 44, 127
2, 46128, Note_on_c, 0, 56, 127
2, 46176, Note_off_c, 0, 56, 0
2, 46176, Note_off_c, 0, 44, 0
2, 46176, Note_on_c, 0, 39, 127
2, 46200, Note_off_c, 0, 39, 0
2, 46200, Note_on_c, 0, 32, 127
2, 46224, Note_off_c, 0, 32, 0
2, 46224, Note_on_c, 0, 39, 127
2, 46224, Note_on_c, 0, 56, 127
2, 46248, Note_off_c, 0, 39, 0
2, 46248, Note_on_c, 0, 44, 127
2, 46272, Note_off_c, 0, 44, 0
2, 46272, Note_off_c, 0, 56, 0
2, 46272, Note_on_c, 0, 32, 127
2, 46320, Note_off_c, 0, 32, 0
2, 46320, Note_on_c, 0, 44, 127
2, 46320, Note_on_c, 0, 56, 127
2, 46368, Note_off_c, 0, 56, 0
2, 46368, Note_off_c, 0, 44, 0
2, 46368, Note_on_c, 0, 39, 127
2, 46392, Note_off_c, 0, 39, 0
2, 46392, Note_on_c, 0, 32, 127
2, 46416, Note_off_c, 0, 32, 0
2, 46416, Note_on_c, 0, 39, 127
2, 46416, Note_on_c, 0, 56, 127
2, 46440, Note_off_c, 0, 39, 0
2, 46440, Note_on_c, 0, 44, 127
2, 46464, Note_off_c, 0, 44, 0
2, 46464, Note_off_c, 0, 56, 0
2, 46464, Note_on_c, 0, 32, 127
2, 46512, Note_off_c, 0, 32, 0
2, 46512, Note_on_c, 0, 44, 127
2, 46512, Note_on_c, 0, 56, 127
2, 46560, Note_off_c, 0, 56, 0
2, 46560, Note_off_c, 0, 44, 0
2, 46560, Note_on_c, 0, 39, 127
2, 46584, Note_off_c, 0, 39, 0
2, 46584, Note_on_c, 0, 32, 127
2, 46608, Note_off_c, 0, 32, 0
2, 46608, Note_on_c, 0, 39, 127
2, 46608, Note_on_c, 0, 56, 127
2, 46632, Note_off_c, 0, 39, 0
2, 46632, Note_on_c, 0, 44, 127
2, 46656, Note_off_c, 0, 44, 0
2, 46656, Note_off_c, 0, 56, 0
2, 46656, Note_on_c, 0, 34, 127
2, 46704, Note_off_c, 0, 34, 0
2, 46704, Note_on_c, 0, 46, 127
2, 46704, Note_on_c, 0, 58, 127
2, 46752, Note_off_c, 0, 58, 0
2, 46752, Note_off_c, 0, 46, 0
2, 46752, Note_on_c, 0, 41, 127
2, 46776, Note_off_c, 0, 41, 0
2, 46776, Note_on_c, 0, 34, 127
2, 46800, Note_off_c, 0, 34, 0
2, 46800, Note_on_c, 0, 41, 127
2, 46800, Note_on_c, 0, 58, 127
2, 46824, Note_off_c, 0, 41, 0
2, 46824, Note_on_c, 0, 46, 127
2, 46848, Note_off_c, 0, 46, 0
2, 46848, Note_off_c, 0, 58, 0
2, 46848, Note_on_c, 0, 36, 127
2, 46896, Note_off_c, 0, 36, 0
2, 46896, Note_on_c, 0, 48, 127
2, 46896, Note_on_c, 0, 60, 127
2, 46944, Note_off_c, 0, 60, 0
2, 46944, Note_off_c, 0, 48, 0
2, 46944, Note_on_c, 0, 43, 127
2, 46968, Note_off_c, 0, 43, 0
2, 46968, Note_on_c, 0, 36, 127
2, 46992, Note_off_c, 0, 36, 0
2, 46992, Note_on_c, 0, 43, 127
2, 46992, Note_on_c, 0, 60, 127
2, 47016, Note_off_c, 0, 43, 0
2, 47016, Note_on_c, 0, 48, 127
2, 47040, Note_off_c, 0, 48, 0
2, 47040, Note_off_c, 0, 60, 0
2, 47040, Note_on_c, 0, 36, 127
2, 47088, Note_off_c, 0, 36, 0
2, 47088, Note_on_c, 0, 48, 127
2, 47088, Note_on_c, 0, 60, 127
2, 47136, Note_off_c, 0, 60, 0
2, 47136, Note_off_c, 0, 48, 0
2, 47136, Note_on_c, 0, 43, 127
2, 47160, Note_off_c, 0, 43, 0
2, 47160, Note_on_c, 0, 36, 127
2, 47184, Note_off_c, 0, 36, 0
2, 47184, Note_on_c, 0, 43, 127
2, 47184, Note_on_c, 0, 60, 127
2, 47208, Note_off_c, 0, 43, 0
2, 47208, Note_on_c, 0, 48, 127
2, 47232, Note_off_c, 0, 48, 0
2, 47232, Note_off_c, 0, 60, 0
2, 47232, Note_on_c, 0, 36, 127
2, 47280, Note_off_c, 0, 36, 0
2, 47280, Note_on_c, 0, 48, 127
2, 47280, Note_on_c, 0, 60, 127
2, 47328, Note_off_c, 0, 60, 0
2, 47328, Note_off_c, 0, 48, 0
2, 47328, Note_on_c, 0, 43, 127
2, 47352, Note_off_c, 0, 43, 0
2, 47352, Note_on_c, 0, 36, 127
2, 47376, Note_off_c, 0, 36, 0
2, 47376, Note_on_c, 0, 43, 127
2, 47376, Note_on_c, 0, 60, 127
2, 47400, Note_off_c, 0, 43, 0
2, 47400, Note_on_c, 0, 48, 127
2, 47424, Note_off_c, 0, 48, 0
2, 47424, Note_off_c, 0, 60, 0
2, 47424, Note_on_c, 0, 34, 127
2, 47472, Note_off_c, 0, 34, 0
2, 47472, Note_on_c, 0, 46, 127
2, 47472, Note_on_c, 0, 58, 127
2, 47520, Note_off_c, 0, 58, 0
2, 47520, Note_off_c, 0, 46, 0
2, 47520, Note_on_c, 0, 41, 127
2, 47544, Note_off_c, 0, 41, 0
2, 47544, Note_on_c, 0, 34, 127
2, 47568, Note_off_c, 0, 34, 0
2, 47568, Note_on_c, 0, 41, 127
2, 47568, Note_on_c, 0, 58, 127
2, 47592, Note_off_c, 0, 41, 0
2, 47592, Note_on_c, 0, 46, 127
2, 47616, Note_off_c, 0, 46, 0
2, 47616, Note_off_c, 0, 58, 0
2, 47616, Note_on_c, 0, 32, 127
2, 47664, Note_off_c, 0, 32, 0
2, 47664, Note_on_c, 0, 44, 127
2, 47664, Note_on_c, 0, 56, 127
2, 47712, Note_off_c, 0, 56, 0
2, 47712, Note_off_c, 0, 44, 0
2, 47712, Note_on_c, 0, 39, 127
2, 47736, Note_off_c, 0, 39, 0
2, 47736, Note_on_c, 0, 32, 127
2, 47760, Note_off_c, 0, 32, 0
2, 47760, Note_on_c, 0, 39, 127
2, 47760, Note_on_c, 0, 56, 127
2, 47784, Note_off_c, 0, 39, 0
2, 47784, Note_on_c, 0, 44, 127
2, 47808, Note_off_c, 0, 44, 0
2, 47808, Note_off_c, 0, 56, 0
2, 47808, Note_on_c, 0, 32, 127
2, 47856, Note_off_c, 0, 32, 0
2, 47856, Note_on_c, 0, 44, 127
2, 47856, Note_on_c, 0, 56, 127
2, 47904, Note_off_c, 0, 56, 0
2, 47904, Note_off_c, 0, 44, 0
2, 47904, Note_on_c, 0, 39, 127
2, 47928, Note_off_c, 0, 39, 0
2, 47928, Note_on_c, 0, 32, 127
2, 47952, Note_off_c, 0, 32, 0
2, 47952, Note_on_c, 0, 39, 127
2, 47952, Note_on_c, 0, 56, 127
2, 47976, Note_off_c, 0, 39, 0
2, 47976, Note_on_c, 0, 44, 127
2, 48000, Note_off_c, 0, 44, 0
2, 48000, Note_off_c, 0, 56, 0
2, 48000, Note_on_c, 0, 32, 127
2, 48048, Note_off_c, 0, 32, 0
2, 48048, Note_on_c, 0, 44, 127
2, 48048, Note_on_c, 0, 56, 127
2, 48096, Note_off_c, 0, 56, 0
2, 48096, Note_off_c, 0, 44, 0
2, 48096, Note_on_c, 0, 39, 127
2, 48120, Note_off_c, 0, 39, 0
2, 48120, Note_on_c, 0, 32, 127
2, 48144, Note_off_c, 0, 32, 0
2, 48144, Note_on_c, 0, 39, 127
2, 48144, Note_on_c, 0, 56, 127
2, 48168, Note_off_c, 0, 39, 0
2, 48168, Note_on_c, 0, 44, 127
2, 48192, Note_off_c, 0, 44, 0
2, 48192, Note_off_c, 0, 56, 0
2, 48192, Note_on_c, 0, 34, 127
2, 48240, Note_off_c, 0, 34, 0
2, 48240, Note_on_c, 0, 46, 127
2, 48240, Note_on_c, 0, 58, 127
2, 48288, Note_off_c, 0, 58, 0
2, 48288, Note_off_c, 0, 46, 0
2, 48288, Note_on_c, 0, 41, 127
2, 48312, Note_off_c, 0, 41, 0
2, 48312, Note_on_c, 0, 34, 127
2, 48336, Note_off_c, 0, 34, 0
2, 48336, Note_on_c, 0, 41, 127
2, 48336, Note_on_c, 0, 58, 127
2, 48360, Note_off_c, 0, 41, 0
2, 48360, Note_on_c, 0, 46, 127
2, 48384, Note_off_c, 0, 46, 0
2, 48384, Note_off_c, 0, 58, 0
2, 48384, Note_on_c, 0, 36, 127
2, 48432, Note_off_c, 0, 36, 0
2, 48432, Note_on_c, 0, 48, 127
2, 48432, Note_on_c, 0, 60, 127
2, 48480, Note_off_c, 0, 60, 0
2, 48480, Note_off_c, 0, 48, 0
2, 48480, Note_on_c, 0, 43, 127
2, 48504, Note_off_c, 0, 43, 0
2, 48504, Note_on_c, 0, 36, 127
2, 48528, Note_off_c, 0, 36, 0
2, 48528, Note_on_c, 0, 43, 127
2, 48528, Note_on_c, 0, 60, 127
2, 48552, Note_off_c, 0, 43, 0
2, 48552, Note_on_c, 0, 48, 127
2, 48576, Note_off_c, 0, 48, 0
2, 48576, Note_off_c, 0, 60, 0
2, 48576, Note_on_c, 0, 36, 127
2, 48624, Note_off_c, 0, 36, 0
2, 48624, Note_on_c, 0, 48, 127
2, 48624, Note_on_c, 0, 60, 127
2, 48672, Note_off_c, 0, 60, 0
2, 48672, Note_off_c, 0, 48, 0
2, 48672, Note_on_c, 0, 43, 127
2, 48696, Note_off_c, 0, 43, 0
2, 48696, Note_on_c, 0, 36, 127
2, 48720, Note_off_c, 0, 36, 0
2, 48720, Note_on_c, 0, 43, 127
2, 48720, Note_on_c, 0, 60, 127
2, 48744, Note_off_c, 0, 43, 0
2, 48744, Note_on_c, 0, 48, 127
2, 48768, Note_off_c, 0, 48, 0
2, 48768, Note_off_c, 0, 60, 0
2, 48768, Note_on_c, 0, 36, 127
2, 48816, Note_off_c, 0, 36, 0
2, 48816, Note_on_c, 0, 48, 127
2, 48816, Note_on_c, 0, 60, 127
2, 48864, Note_off_c, 0, 60, 0
2, 48864, Note_off_c, 0, 48, 0
2, 48864, Note_on_c, 0, 43, 127
2, 48888, Note_off_c, 0, 43, 0
2, 48888, Note_on_c, 0, 36, 127
2, 48912, Note_off_c, 0, 36, 0
2, 48912, Note_on_c, 0, 43, 127
2, 48912, Note_on_c, 0, 60, 127
2, 48936, Note_off_c, 0, 43, 0
2, 48936, Note_on_c, 0, 48, 127
2, 48960, Note_off_c, 0, 48, 0
2, 48960, Note_off_c, 0, 60, 0
2, 48960, Note_on_c, 0, 34, 127
2, 49008, Note_off_c, 0, 34, 0
2, 49008, Note_on_c, 0, 46, 127
2, 49008, Note_on_c, 0, 58, 127
2, 49056, Note_off_c, 0, 58, 0
2, 49056, Note_off_c, 0, 46, 0
2, 49056, Note_on_c, 0, 41, 127
2, 49080, Note_off_c, 0, 41, 0
2, 49080, Note_on_c, 0, 34, 127
2, 49104, Note_off_c, 0, 34, 0
2, 49104, Note_on_c, 0, 41, 127
2, 49104, Note_on_c, 0, 58, 127
2, 49128, Note_off_c, 0, 41, 0
2, 49128, Note_on_c, 0, 46, 127
2, 49152, Note_off_c, 0, 46, 0
2, 49152, Note_off_c, 0, 58, 0
2, 49152, Note_on_c, 0, 32, 127
2, 49200, Note_off_c, 0, 32, 0
2, 49200, Note_on_c, 0, 44, 127
2, 49200, Note_on_c, 0, 56, 127
2, 49248, Note_off_c, 0, 56, 0
2, 49248, Note_off_c, 0, 44, 0
2, 49248, Note_on_c, 0, 39, 127
2, 49272, Note_off_c, 0, 39, 0
2, 49272, Note_on_c, 0, 32, 127
2, 49296, Note_off_c, 0, 32, 0
2, 49296, Note_on_c, 0, 39, 127
2, 49296, Note_on_c, 0, 56, 127
2, 49320, Note_off_c, 0, 39, 0
2, 49320, Note_on_c, 0, 44, 127
2, 49344, Note_off_c, 0, 44, 0
2, 49344, Note_off_c, 0, 56, 0
2, 49344, Note_on_c, 0, 32, 127
2, 49392, Note_off_c, 0, 32, 0
2, 49392, Note_on_c, 0, 44, 127
2, 49392, Note_on_c, 0, 56, 127
2, 49440, Note_off_c, 0, 56, 0
2, 49440, Note_off_c, 0, 44, 0
2, 49440, Note_on_c, 0, 39, 127
2, 49464, Note_off_c, 0, 39, 0
2, 49464, Note_on_c, 0, 32, 127
2, 49488, Note_off_c, 0, 32, 0
2, 49488, Note_on_c, 0, 39, 127
2, 49488, Note_on_c, 0, 56, 127
2, 49512, Note_off_c, 0, 39, 0
2, 49512, Note_on_c, 0, 44, 127
2, 49536, Note_off_c, 0, 44, 0
2, 49536, Note_off_c, 0, 56, 0
2, 49536, Note_on_c, 0, 32, 127
2, 49584, Note_off_c, 0, 32, 0
2, 49584, Note_on_c, 0, 44, 127
2, 49584, Note_on_c, 0, 56, 127
2, 49632, Note_off_c, 0, 56, 0
2, 49632, Note_off_c, 0, 44, 0
2, 49632, Note_on_c, 0, 39, 127
2, 49656, Note_off_c, 0, 39, 0
2, 49656, Note_on_c, 0, 32, 127
2, 49680, Note_off_c, 0, 32, 0
2, 49680, Note_on_c, 0, 39, 127
2, 49680, Note_on_c, 0, 56, 127
2, 49704, Note_off_c, 0, 39, 0
2, 49704, Note_on_c, 0, 44, 127
2, 49728, Note_off_c, 0, 44, 0
2, 49728, Note_off_c, 0, 56, 0
2, 49728, Note_on_c, 0, 34, 127
2, 49776, Note_off_c, 0, 34, 0
2, 49776, Note_on_c, 0, 46, 127
2, 49776, Note_on_c, 0, 58, 127
2, 49824, Note_off_c, 0, 58, 0
2, 49824, Note_off_c, 0, 46, 0
2, 49824, Note_on_c, 0, 41, 127
2, 49848, Note_off_c, 0, 41, 0
2, 49848, Note_on_c, 0, 34, 127
2, 49872, Note_off_c, 0, 34, 0
2, 49872, Note_on_c, 0, 41, 127
2, 49872, Note_on_c, 0, 58, 127
2, 49896, Note_off_c, 0, 41, 0
2, 49896, Note_on_c, 0, 46, 127
2, 49920, Note_off_c, 0, 46, 0
2, 49920, Note_off_c, 0, 58, 0
2, 49920, Note_on_c, 0, 36, 127
2, 49968, Note_off_c, 0, 36, 0
2, 49968, Note_on_c, 0, 60, 127
2, 49968, Note_on_c, 0, 48, 127
2, 50016, Note_off_c, 0, 48, 0
2, 50016, Note_off_c, 0, 60, 0
2, 50016, Note_on_c, 0, 43, 127
2, 50040, Note_off_c, 0, 43, 0
2, 50040, Note_on_c, 0, 36, 127
2, 50064, Note_off_c, 0, 36, 0
2, 50064, Note_on_c, 0, 60, 127
2, 50064, Note_on_c, 0, 43, 127
2, 50088, Note_off_c, 0, 43, 0
2, 50088, Note_on_c, 0, 48, 127
2, 50112, Note_off_c, 0, 48, 0
2, 50112, Note_off_c, 0, 60, 0
2, 50112, Note_on_c, 0, 36, 127
2, 50160, Note_off_c, 0, 36, 0
2, 50160, Note_on_c, 0, 60, 127
2, 50160, Note_on_c, 0, 48, 127
2, 50208, Note_off_c, 0, 48, 0
2, 50208, Note_off_c, 0, 60, 0
2, 50208, Note_on_c, 0, 43, 127
2, 50232, Note_off_c, 0, 43, 0
2, 50232, Note_on_c, 0, 36, 127
2, 50256, Note_off_c, 0, 36, 0
2, 50256, Note_on_c, 0, 60, 127
2, 50256, Note_on_c, 0, 43, 127
2, 50280, Note_off_c, 0, 43, 0
2, 50280, Note_on_c, 0, 48, 127
2, 50304, Note_off_c, 0, 48, 0
2, 50304, Note_off_c, 0, 60, 0
2, 50304, Note_on_c, 0, 35, 127
2, 50352, Note_off_c, 0, 35, 0
2, 50352, Note_on_c, 0, 59, 127
2, 50352, Note_on_c, 0, 47, 127
2, 50400, Note_off_c, 0, 47, 0
2, 50400, Note_off_c, 0, 59, 0
2, 50400, Note_on_c, 0, 43, 127
2, 50424, Note_off_c, 0, 43, 0
2, 50424, Note_on_c, 0, 35, 127
2, 50448, Note_off_c, 0, 35, 0
2, 50448, Note_on_c, 0, 59, 127
2, 50448, Note_on_c, 0, 43, 127
2, 50472, Note_off_c, 0, 43, 0
2, 50472, Note_on_c, 0, 47, 127
2, 50496, Note_off_c, 0, 47, 0
2, 50496, Note_off_c, 0, 59, 0
2, 50496, Note_on_c, 0, 35, 127
2, 50544, Note_off_c, 0, 35, 0
2, 50544, Note_on_c, 0, 59, 127
2, 50544, Note_on_c, 0, 47, 127
2, 50592, Note_off_c, 0, 47, 0
2, 50592, Note_off_c, 0, 59, 0
2, 50592, Note_on_c, 0, 43, 127
2, 50616, Note_off_c, 0, 43, 0
2, 50616, Note_on_c, 0, 35, 127
2, 50640, Note_off_c, 0, 35, 0
2, 50640, Note_on_c, 0, 59, 127
2, 50640, Note_on_c, 0, 43, 127
2, 50664, Note_off_c, 0, 43, 0
2, 50664, Note_on_c, 0, 47, 127
2, 50688, Note_off_c, 0, 47, 0
2, 50688, Note_off_c, 0, 59, 0
2, 50688, Note_on_c, 0, 32, 127
2, 50736, Note_off_c, 0, 32, 0
2, 50736, Note_on_c, 0, 56, 127
2, 50736, Note_on_c, 0, 44, 127
2, 50784, Note_off_c, 0, 44, 0
2, 50784, Note_off_c, 0, 56, 0
2, 50784, Note_on_c, 0, 39, 127
2, 50808, Note_off_c, 0, 39, 0
2, 50808, Note_on_c, 0, 32, 127
2, 50832, Note_off_c, 0, 32, 0
2, 50832, Note_on_c, 0, 56, 127
2, 50832, Note_on_c, 0, 39, 127
2, 50856, Note_off_c, 0, 39, 0
2, 50856, Note_on_c, 0, 44, 127
2, 50880, Note_off_c, 0, 44, 0
2, 50880, Note_off_c, 0, 56, 0
2, 50880, Note_on_c, 0, 32, 127
2, 50928, Note_off_c, 0, 32, 0
2, 50928, Note_on_c, 0, 44, 127
2, 50928, Note_on_c, 0, 56, 127
2, 50976, Note_off_c, 0, 56, 0
2, 50976, Note_off_c, 0, 44, 0
2, 50976, Note_on_c, 0, 39, 127
2, 51000, Note_off_c, 0, 39, 0
2, 51000, Note_on_c, 0, 32, 127
2, 51024, Note_off_c, 0, 32, 0
2, 51024, Note_on_c, 0, 39, 127
2, 51024, Note_on_c, 0, 56, 127
2, 51048, Note_off_c, 0, 39, 0
2, 51048, Note_on_c, 0, 44, 127
2, 51072, Note_off_c, 0, 44, 0
2, 51072, Note_off_c, 0, 56, 0
2, 51072, Note_on_c, 0, 31, 127
2, 51120, Note_off_c, 0, 31, 0
2, 51120, Note_on_c, 0, 43, 127
2, 51120, Note_on_c, 0, 55, 127
2, 51168, Note_off_c, 0, 55, 0
2, 51168, Note_off_c, 0, 43, 0
2, 51168, Note_on_c, 0, 38, 127
2, 51192, Note_off_c, 0, 38, 0
2, 51192, Note_on_c, 0, 31, 127
2, 51216, Note_off_c, 0, 31, 0
2, 51216, Note_on_c, 0, 38, 127
2, 51216, Note_on_c, 0, 55, 127
2, 51240, Note_off_c, 0, 38, 0
2, 51240, Note_on_c, 0, 43, 127
2, 51264, Note_off_c, 0, 43, 0
2, 51264, Note_off_c, 0, 55, 0
2, 51264, Note_on_c, 0, 31, 127
2, 51312, Note_off_c, 0, 31, 0
2, 51312, Note_on_c, 0, 43, 127
2, 51312, Note_on_c, 0, 55, 127
2, 51360, Note_off_c, 0, 55, 0
2, 51360, Note_off_c, 0, 43, 0
2, 51360, Note_on_c, 0, 38, 127
2, 51384, Note_off_c, 0, 38, 0
2, 51384, Note_on_c, 0, 31, 127
2, 51408, Note_off_c, 0, 31, 0
2, 51408, Note_on_c, 0, 38, 127
2, 51408, Note_on_c, 0, 55, 127
2, 51432, Note_off_c, 0, 38, 0
2, 51432, Note_on_c, 0, 43, 127
2, 51456, Note_off_c, 0, 43, 0
2, 51456, Note_off_c, 0, 55, 0
2, 51456, Note_on_c, 0, 36, 127
2, 51504, Note_off_c, 0, 36, 0
2, 51504, Note_on_c, 0, 60, 127
2, 51504, Note_on_c, 0, 48, 127
2, 51552, Note_off_c, 0, 48, 0
2, 51552, Note_off_c, 0, 60, 0
2, 51552, Note_on_c, 0, 43, 127
2, 51576, Note_off_c, 0, 43, 0
2, 51576, Note_on_c, 0, 36, 127
2, 51600, Note_off_c, 0, 36, 0
2, 51600, Note_on_c, 0, 60, 127
2, 51600, Note_on_c, 0, 43, 127
2, 51624, Note_off_c, 0, 43, 0
2, 51624, Note_on_c, 0, 48, 127
2, 51648, Note_off_c, 0, 48, 0
2, 51648, Note_off_c, 0, 60, 0
2, 51648, Note_on_c, 0, 36, 127
2, 51696, Note_off_c, 0, 36, 0
2, 51696, Note_on_c, 0, 60, 127
2, 51696, Note_on_c, 0, 48, 127
2, 51744, Note_off_c, 0, 48, 0
2, 51744, Note_off_c, 0, 60, 0
2, 51744, Note_on_c, 0, 43, 127
2, 51768, Note_off_c, 0, 43, 0
2, 51768, Note_on_c, 0, 36, 127
2, 51792, Note_off_c, 0, 36, 0
2, 51792, Note_on_c, 0, 60, 127
2, 51792, Note_on_c, 0, 43, 127
2, 51816, Note_off_c, 0, 43, 0
2, 51816, Note_on_c, 0, 48, 127
2, 51840, Note_off_c, 0, 48, 0
2, 51840, Note_off_c, 0, 60, 0
2, 51840, Note_on_c, 0, 35, 127
2, 51888, Note_off_c, 0, 35, 0
2, 51888, Note_on_c, 0, 59, 127
2, 51888, Note_on_c, 0, 47, 127
2, 51936, Note_off_c, 0, 47, 0
2, 51936, Note_off_c, 0, 59, 0
2, 51936, Note_on_c, 0, 43, 127
2, 51960, Note_off_c, 0, 43, 0
2, 51960, Note_on_c, 0, 35, 127
2, 51984, Note_off_c, 0, 35, 0
2, 51984, Note_on_c, 0, 59, 127
2, 51984, Note_on_c, 0, 43, 127
2, 52008, Note_off_c, 0, 43, 0
2, 52008, Note_on_c, 0, 47, 127
2, 52032, Note_off_c, 0, 47, 0
2, 52032, Note_off_c, 0, 59, 0
2, 52032, Note_on_c, 0, 35, 127
2, 52080, Note_off_c, 0, 35, 0
2, 52080, Note_on_c, 0, 59, 127
2, 52080, Note_on_c, 0, 47, 127
2, 52128, Note_off_c, 0, 47, 0
2, 52128, Note_off_c, 0, 59, 0
2, 52128, Note_on_c, 0, 43, 127
2, 52152, Note_off_c, 0, 43, 0
2, 52152, Note_on_c, 0, 35, 127
2, 52176, Note_off_c, 0, 35, 0
2, 52176, Note_on_c, 0, 59, 127
2, 52176, Note_on_c, 0, 43, 127
2, 52200, Note_off_c, 0, 43, 0
2, 52200, Note_on_c, 0, 47, 127
2, 52224, Note_off_c, 0, 47, 0
2, 52224, Note_off_c, 0, 59, 0
2, 52224, Note_on_c, 0, 32, 127
2, 52272, Note_off_c, 0, 32, 0
2, 52272, Note_on_c, 0, 56, 127
2, 52272, Note_on_c, 0, 44, 127
2, 52320, Note_off_c, 0, 44, 0
2, 52320, Note_off_c, 0, 56, 0
2, 52320, Note_on_c, 0, 39, 127
2, 52344, Note_off_c, 0, 39, 0
2, 52344, Note_on_c, 0, 32, 127
2, 52368, Note_off_c, 0, 32, 0
2, 52368, Note_on_c, 0, 56, 127
2, 52368, Note_on_c, 0, 39, 127
2, 52392, Note_off_c, 0, 39, 0
2, 52392, Note_on_c, 0, 44, 127
2, 52416, Note_off_c, 0, 44, 0
2, 52416, Note_off_c, 0, 56, 0
2, 52416, Note_on_c, 0, 32, 127
2, 52464, Note_off_c, 0, 32, 0
2, 52464, Note_on_c, 0, 44, 127
2, 52464, Note_on_c, 0, 56, 127
2, 52512, Note_off_c, 0, 56, 0
2, 52512, Note_off_c, 0, 44, 0
2, 52512, Note_on_c, 0, 39, 127
2, 52536, Note_off_c, 0, 39, 0
2, 52536, Note_on_c, 0, 32, 127
2, 52560, Note_off_c, 0, 32, 0
2, 52560, Note_on_c, 0, 39, 127
2, 52560, Note_on_c, 0, 56, 127
2, 52584, Note_off_c, 0, 39, 0
2, 52584, Note_on_c, 0, 44, 127
2, 52608, Note_off_c, 0, 44, 0
2, 52608, Note_off_c, 0, 56, 0
2, 52608, Note_on_c, 0, 31, 127
2, 52656, Note_off_c, 0, 31, 0
2, 52656, Note_on_c, 0, 43, 127
2, 52656, Note_on_c, 0, 55, 127
2, 52704, Note_off_c, 0, 55, 0
2, 52704, Note_off_c, 0, 43, 0
2, 52704, Note_on_c, 0, 38, 127
2, 52728, Note_off_c, 0, 38, 0
2, 52728, Note_on_c, 0, 31, 127
2, 52752, Note_off_c, 0, 31, 0
2, 52752, Note_on_c, 0, 38, 127
2, 52752, Note_on_c, 0, 55, 127
2, 52776, Note_off_c, 0, 38, 0
2, 52776, Note_on_c, 0, 43, 127
2, 52800, Note_off_c, 0, 43, 0
2, 52800, Note_off_c, 0, 55, 0
2, 52800, Note_on_c, 0, 31, 127
2, 52848, Note_off_c, 0, 31, 0
2, 52848, Note_on_c, 0, 43, 127
2, 52848, Note_on_c, 0, 55, 127
2, 52896, Note_off_c, 0, 55, 0
2, 52896, Note_off_c, 0, 43, 0
2, 52896, Note_on_c, 0, 38, 127
2, 52920, Note_off_c, 0, 38, 0
2, 52920, Note_on_c, 0, 31, 127
2, 52944, Note_off_c, 0, 31, 0
2, 52944, Note_on_c, 0, 38, 127
2, 52944, Note_on_c, 0, 55, 127
2, 52968, Note_off_c, 0, 38, 0
2, 52968, Note_on_c, 0, 43, 127
2, 52992, Note_off_c, 0, 43, 0
2, 52992, Note_off_c, 0, 55, 0
2, 52992, Note_on_c, 0, 36, 127
2, 53040, Note_off_c, 0, 36, 0
2, 53040, Note_on_c, 0, 60, 127
2, 53040, Note_on_c, 0, 48, 127
2, 53088, Note_off_c, 0, 48, 0
2, 53088, Note_off_c, 0, 60, 0
2, 53088, Note_on_c, 0, 43, 127
2, 53112, Note_off_c, 0, 43, 0
2, 53112, Note_on_c, 0, 36, 127
2, 53136, Note_off_c, 0, 36, 0
2, 53136, Note_on_c, 0, 60, 127
2, 53136, Note_on_c, 0, 43, 127
2, 53160, Note_off_c, 0, 43, 0
2, 53160, Note_on_c, 0, 48, 127
2, 53184, Note_off_c, 0, 48, 0
2, 53184, Note_off_c, 0, 60, 0
2, 53184, Note_on_c, 0, 36, 127
2, 53232, Note_off_c, 0, 36, 0
2, 53232, Note_on_c, 0, 60, 127
2, 53232, Note_on_c, 0, 48, 127
2, 53280, Note_off_c, 0, 48, 0
2, 53280, Note_off_c, 0, 60, 0
2, 53280, Note_on_c, 0, 43, 127
2, 53304, Note_off_c, 0, 43, 0
2, 53304, Note_on_c, 0, 36, 127
2, 53328, Note_off_c, 0, 36, 0
2, 53328, Note_on_c, 0, 60, 127
2, 53328, Note_on_c, 0, 43, 127
2, 53352, Note_off_c, 0, 43, 0
2, 53352, Note_on_c, 0, 48, 127
2, 53376, Note_off_c, 0, 48, 0
2, 53376, Note_off_c, 0, 60, 0
2, 53376, Note_on_c, 0, 35, 127
2, 53424, Note_off_c, 0, 35, 0
2, 53424, Note_on_c, 0, 59, 127
2, 53424, Note_on_c, 0, 47, 127
2, 53472, Note_off_c, 0, 47, 0
2, 53472, Note_off_c, 0, 59, 0
2, 53472, Note_on_c, 0, 43, 127
2, 53496, Note_off_c, 0, 43, 0
2, 53496, Note_on_c, 0, 35, 127
2, 53520, Note_off_c, 0, 35, 0
2, 53520, Note_on_c, 0, 59, 127
2, 53520, Note_on_c, 0, 43, 127
2, 53544, Note_off_c, 0, 43, 0
2, 53544, Note_on_c, 0, 47, 127
2, 53568, Note_off_c, 0, 47, 0
2, 53568, Note_off_c, 0, 59, 0
2, 53568, Note_on_c, 0, 35, 127
2, 53616, Note_off_c, 0, 35, 0
2, 53616, Note_on_c, 0, 59, 127
2, 53616, Note_on_c, 0, 47, 127
2, 53664, Note_off_c, 0, 47, 0
2, 53664, Note_off_c, 0, 59, 0
2, 53664, Note_on_c, 0, 43, 127
2, 53688, Note_off_c, 0, 43, 0
2, 53688, Note_on_c, 0, 35, 127
2, 53712, Note_off_c, 0, 35, 0
2, 53712, Note_on_c, 0, 59, 127
2, 53712, Note_on_c, 0, 43, 127
2, 53736, Note_off_c, 0, 43, 0
2, 53736, Note_on_c, 0, 47, 127
2, 53760, Note_off_c, 0, 47, 0
2, 53760, Note_off_c, 0, 59, 0
2, 53760, Note_on_c, 0, 32, 127
2, 53808, Note_off_c, 0, 32, 0
2, 53808, Note_on_c, 0, 56, 127
2, 53808, Note_on_c, 0, 44, 127
2, 53856, Note_off_c, 0, 44, 0
2, 53856, Note_off_c, 0, 56, 0
2, 53856, Note_on_c, 0, 39, 127
2, 53880, Note_off_c, 0, 39, 0
2, 53880, Note_on_c, 0, 32, 127
2, 53904, Note_off_c, 0, 32, 0
2, 53904, Note_on_c, 0, 56, 127
2, 53904, Note_on_c, 0, 39, 127
2, 53928, Note_off_c, 0, 39, 0
2, 53928, Note_on_c, 0, 44, 127
2, 53952, Note_off_c, 0, 44, 0
2, 53952, Note_off_c, 0, 56, 0
2, 53952, Note_on_c, 0, 32, 127
2, 54000, Note_off_c, 0, 32, 0
2, 54000, Note_on_c, 0, 44, 127
2, 54000, Note_on_c, 0, 56, 127
2, 54048, Note_off_c, 0, 56, 0
2, 54048, Note_off_c, 0, 44, 0
2, 54048, Note_on_c, 0, 39, 127
2, 54072, Note_off_c, 0, 39, 0
2, 54072, Note_on_c, 0, 32, 127
2, 54096, Note_off_c, 0, 32, 0
2, 54096, Note_on_c, 0, 39, 127
2, 54096, Note_on_c, 0, 56, 127
2, 54120, Note_off_c, 0, 39, 0
2, 54120, Note_on_c, 0, 44, 127
2, 54144, Note_off_c, 0, 44, 0
2, 54144, Note_off_c, 0, 56, 0
2, 54144, Note_on_c, 0, 31, 127
2, 54192, Note_off_c, 0, 31, 0
2, 54192, Note_on_c, 0, 43, 127
2, 54192, Note_on_c, 0, 55, 127
2, 54240, Note_off_c, 0, 55, 0
2, 54240, Note_off_c, 0, 43, 0
2, 54240, Note_on_c, 0, 38, 127
2, 54264, Note_off_c, 0, 38, 0
2, 54264, Note_on_c, 0, 31, 127
2, 54288, Note_off_c, 0, 31, 0
2, 54288, Note_on_c, 0, 38, 127
2, 54288, Note_on_c, 0, 55, 127
2, 54312, Note_off_c, 0, 38, 0
2, 54312, Note_on_c, 0, 43, 127
2, 54336, Note_off_c, 0, 43, 0
2, 54336, Note_off_c, 0, 55, 0
2, 54336, Note_on_c, 0, 31, 127
2, 54384, Note_off_c, 0, 31, 0
2, 54384, Note_on_c, 0, 43, 127
2, 54384, Note_on_c, 0, 55, 127
2, 54432, Note_off_c, 0, 55, 0
2, 54432, Note_off_c, 0, 43, 0
2, 54432, Note_on_c, 0, 38, 127
2, 54456, Note_off_c, 0, 38, 0
2, 54456, Note_on_c, 0, 31, 127
2, 54480, Note_off_c, 0, 31, 0
2, 54480, Note_on_c, 0, 38, 127
2, 54480, Note_on_c, 0, 55, 127
2, 54504, Note_off_c, 0, 38, 0
2, 54504, Note_on_c, 0, 43, 127
2, 54528, Note_off_c, 0, 43, 0
2, 54528, Note_off_c, 0, 55, 0
2, 54528, Note_on_c, 0, 36, 127
2, 54576, Note_off_c, 0, 36, 0
2, 54576, Note_on_c, 0, 60, 127
2, 54576, Note_on_c, 0, 48, 127
2, 54624, Note_off_c, 0, 48, 0
2, 54624, Note_off_c, 0, 60, 0
2, 54624, Note_on_c, 0, 43, 127
2, 54648, Note_off_c, 0, 43, 0
2, 54648, Note_on_c, 0, 36, 127
2, 54672, Note_off_c, 0, 36, 0
2, 54672, Note_on_c, 0, 60, 127
2, 54672, Note_on_c, 0, 43, 127
2, 54696, Note_off_c, 0, 43, 0
2, 54696, Note_on_c, 0, 48, 127
2, 54720, Note_off_c, 0, 48, 0
2, 54720, Note_off_c, 0, 60, 0
2, 54720, Note_on_c, 0, 36, 127
2, 54768, Note_off_c, 0, 36, 0
2, 54768, Note_on_c, 0, 60, 127
2, 54768, Note_on_c, 0, 48, 127
2, 54816, Note_off_c, 0, 48, 0
2, 54816, Note_off_c, 0, 60, 0
2, 54816, Note_on_c, 0, 43, 127
2, 54840, Note_off_c, 0, 43, 0
2, 54840, Note_on_c, 0, 36, 127
2, 54864, Note_off_c, 0, 36, 0
2, 54864, Note_on_c, 0, 60, 127
2, 54864, Note_on_c, 0, 43, 127
2, 54888, Note_off_c, 0, 43, 0
2, 54888, Note_on_c, 0, 48, 127
2, 54912, Note_off_c, 0, 48, 0
2, 54912, Note_off_c, 0, 60, 0
2, 54912, Note_on_c, 0, 35, 127
2, 54960, Note_off_c, 0, 35, 0
2, 54960, Note_on_c, 0, 59, 127
2, 54960, Note_on_c, 0, 47, 127
2, 55008, Note_off_c, 0, 47, 0
2, 55008, Note_off_c, 0, 59, 0
2, 55008, Note_on_c, 0, 43, 127
2, 55032, Note_off_c, 0, 43, 0
2, 55032, Note_on_c, 0, 35, 127
2, 55056, Note_off_c, 0, 35, 0
2, 55056, Note_on_c, 0, 59, 127
2, 55056, Note_on_c, 0, 43, 127
2, 55080, Note_off_c, 0, 43, 0
2, 55080, Note_on_c, 0, 47, 127
2, 55104, Note_off_c, 0, 47, 0
2, 55104, Note_off_c, 0, 59, 0
2, 55104, Note_on_c, 0, 35, 127
2, 55152, Note_off_c, 0, 35, 0
2, 55152, Note_on_c, 0, 59, 127
2, 55152, Note_on_c, 0, 47, 127
2, 55200, Note_off_c, 0, 47, 0
2, 55200, Note_off_c, 0, 59, 0
2, 55200, Note_on_c, 0, 43, 127
2, 55224, Note_off_c, 0, 43, 0
2, 55224, Note_on_c, 0, 35, 127
2, 55248, Note_off_c, 0, 35, 0
2, 55248, Note_on_c, 0, 59, 127
2, 55248, Note_on_c, 0, 43, 127
2, 55272, Note_off_c, 0, 43, 0
2, 55272, Note_on_c, 0, 47, 127
2, 55296, Note_off_c, 0, 47, 0
2, 55296, Note_off_c, 0, 59, 0
2, 55296, Note_on_c, 0, 32, 127
2, 55344, Note_off_c, 0, 32, 0
2, 55344, Note_on_c, 0, 56, 127
2, 55344, Note_on_c, 0, 44, 127
2, 55392, Note_off_c, 0, 44, 0
2, 55392, Note_off_c, 0, 56, 0
2, 55392, Note_on_c, 0, 39, 127
2, 55416, Note_off_c, 0, 39, 0
2, 55416, Note_on_c, 0, 32, 127
2, 55440, Note_off_c, 0, 32, 0
2, 55440, Note_on_c, 0, 56, 127
2, 55440, Note_on_c, 0, 39, 127
2, 55464, Note_off_c, 0, 39, 0
2, 55464, Note_on_c, 0, 44, 127
2, 55488, Note_off_c, 0, 44, 0
2, 55488, Note_off_c, 0, 56, 0
2, 55488, Note_on_c, 0, 32, 127
2, 55536, Note_off_c, 0, 32, 0
2, 55536, Note_on_c, 0, 44, 127
2, 55536, Note_on_c, 0, 56, 127
2, 55584, Note_off_c, 0, 56, 0
2, 55584, Note_off_c, 0, 44, 0
2, 55584, Note_on_c, 0, 39, 127
2, 55608, Note_off_c, 0, 39, 0
2, 55608, Note_on_c, 0, 32, 127
2, 55632, Note_off_c, 0, 32, 0
2, 55632, Note_on_c, 0, 39, 127
2, 55632, Note_on_c, 0, 56, 127
2, 55656, Note_off_c, 0, 39, 0
2, 55656, Note_on_c, 0, 44, 127
2, 55680, Note_off_c, 0, 44, 0
2, 55680, Note_off_c, 0, 56, 0
2, 55680, Note_on_c, 0, 31, 127
2, 55728, Note_off_c, 0, 31, 0
2, 55728, Note_on_c, 0, 43, 127
2, 55728, Note_on_c, 0, 55, 127
2, 55776, Note_off_c, 0, 55, 0
2, 55776, Note_off_c, 0, 43, 0
2, 55776, Note_on_c, 0, 38, 127
2, 55800, Note_off_c, 0, 38, 0
2, 55800, Note_on_c, 0, 31, 127
2, 55824, Note_off_c, 0, 31, 0
2, 55824, Note_on_c, 0, 38, 127
2, 55824, Note_on_c, 0, 55, 127
2, 55848, Note_off_c, 0, 38, 0
2, 55848, Note_on_c, 0, 43, 127
2, 55872, Note_off_c, 0, 43, 0
2, 55872, Note_off_c, 0, 55, 0
2, 55872, Note_on_c, 0, 31, 127
2, 55920, Note_off_c, 0, 31, 0
2, 55920, Note_on_c, 0, 43, 127
2, 55920, Note_on_c, 0, 55, 127
2, 55968, Note_off_c, 0, 55, 0
2, 55968, Note_off_c, 0, 43, 0
2, 55968, Note_on_c, 0, 38, 127
2, 55992, Note_off_c, 0, 38, 0
2, 55992, Note_on_c, 0, 31, 127
2, 56016, Note_off_c, 0, 31, 0
2, 56016, Note_on_c, 0, 38, 127
2, 56016, Note_on_c, 0, 55, 127
2, 56040, Note_off_c, 0, 38, 0
2, 56040, Note_on_c, 0, 43, 127
2, 56064, Note_off_c, 0, 43, 0
2, 56064, Note_off_c, 0, 55, 0
2, 56064, Note_on_c, 0, 32, 127
2, 56112, Note_off_c, 0, 32, 0
2, 56112, Note_on_c, 0, 44, 127
2, 56112, Note_on_c, 0, 56, 127
2, 56160, Note_off_c, 0, 56, 0
2, 56160, Note_off_c, 0, 44, 0
2, 56160, Note_on_c, 0, 39, 127
2, 56184, Note_off_c, 0, 39, 0
2, 56184, Note_on_c, 0, 32, 127
2, 56208, Note_off_c, 0, 32, 0
2, 56208, Note_on_c, 0, 39, 127
2, 56208, Note_on_c, 0, 56, 127
2, 56232, Note_off_c, 0, 39, 0
2, 56232, Note_on_c, 0, 44, 127
2, 56256, Note_off_c, 0, 44, 0
2, 56256, Note_off_c, 0, 56, 0
2, 56256, Note_on_c, 0, 32, 127
2, 56304, Note_off_c, 0, 32, 0
2, 56304, Note_on_c, 0, 44, 127
2, 56304, Note_on_c, 0, 56, 127
2, 56352, Note_off_c, 0, 56, 0
2, 56352, Note_off_c, 0, 44, 0
2, 56352, Note_on_c, 0, 39, 127
2, 56376, Note_off_c, 0, 39, 0
2, 56376, Note_on_c, 0, 32, 127
2, 56400, Note_off_c, 0, 32, 0
2, 56400, Note_on_c, 0, 39, 127
2, 56400, Note_on_c, 0, 56, 127
2, 56424, Note_off_c, 0, 39, 0
2, 56424, Note_on_c, 0, 44, 127
2, 56448, Note_off_c, 0, 44, 0
2, 56448, Note_off_c, 0, 56, 0
2, 56448, Note_on_c, 0, 32, 127
2, 56496, Note_off_c, 0, 32, 0
2, 56496, Note_on_c, 0, 44, 127
2, 56496, Note_on_c, 0, 56, 127
2, 56544, Note_off_c, 0, 56, 0
2, 56544, Note_off_c, 0, 44, 0
2, 56544, Note_on_c, 0, 39, 127
2, 56568, Note_off_c, 0, 39, 0
2, 56568, Note_on_c, 0, 32, 127
2, 56592, Note_off_c, 0, 32, 0
2, 56592, Note_on_c, 0, 39, 127
2, 56592, Note_on_c, 0, 56, 127
2, 56616, Note_off_c, 0, 39, 0
2, 56616, Note_on_c, 0, 44, 127
2, 56640, Note_off_c, 0, 44, 0
2, 56640, Note_off_c, 0, 56, 0
2, 56640, Note_on_c, 0, 32, 127
2, 56688, Note_off_c, 0, 32, 0
2, 56688, Note_on_c, 0, 44, 127
2, 56688, Note_on_c, 0, 56, 127
2, 56736, Note_off_c, 0, 56, 0
2, 56736, Note_off_c, 0, 44, 0
2, 56736, Note_on_c, 0, 39, 127
2, 56760, Note_off_c, 0, 39, 0
2, 56760, Note_on_c, 0, 32, 127
2, 56784, Note_off_c, 0, 32, 0
2, 56784, Note_on_c, 0, 39, 127
2, 56784, Note_on_c, 0, 56, 127
2, 56808, Note_off_c, 0, 39, 0
2, 56808, Note_on_c, 0, 44, 127
2, 56832, Note_off_c, 0, 44, 0
2, 56832, Note_off_c, 0, 56, 0
2, 56832, Note_on_c, 0, 31, 127
2, 56880, Note_off_c, 0, 31, 0
2, 56880, Note_on_c, 0, 43, 127
2, 56880, Note_on_c, 0, 55, 127
2, 56928, Note_off_c, 0, 55, 0
2, 56928, Note_off_c, 0, 43, 0
2, 56928, Note_on_c, 0, 38, 127
2, 56952, Note_off_c, 0, 38, 0
2, 56952, Note_on_c, 0, 31, 127
2, 56976, Note_off_c, 0, 31, 0
2, 56976, Note_on_c, 0, 38, 127
2, 56976, Note_on_c, 0, 55, 127
2, 57000, Note_off_c, 0, 38, 0
2, 57000, Note_on_c, 0, 43, 127
2, 57024, Note_off_c, 0, 43, 0
2, 57024, Note_off_c, 0, 55, 0
2, 57024, Note_on_c, 0, 31, 127
2, 57072, Note_off_c, 0, 31, 0
2, 57072, Note_on_c, 0, 43, 127
2, 57072, Note_on_c, 0, 55, 127
2, 57120, Note_off_c, 0, 55, 0
2, 57120, Note_off_c, 0, 43, 0
2, 57120, Note_on_c, 0, 38, 127
2, 57144, Note_off_c, 0, 38, 0
2, 57144, Note_on_c, 0, 31, 127
2, 57168, Note_off_c, 0, 31, 0
2, 57168, Note_on_c, 0, 38, 127
2, 57168, Note_on_c, 0, 55, 127
2, 57192, Note_off_c, 0, 38, 0
2, 57192, Note_on_c, 0, 43, 127
2, 57216, Note_off_c, 0, 43, 0
2, 57216, Note_off_c, 0, 55, 0
2, 57216, Note_on_c, 0, 31, 127
2, 57264, Note_off_c, 0, 31, 0
2, 57264, Note_on_c, 0, 43, 127
2, 57264, Note_on_c, 0, 55, 127
2, 57312, Note_off_c, 0, 55, 0
2, 57312, Note_off_c, 0, 43, 0
2, 57312, Note_on_c, 0, 38, 127
2, 57336, Note_off_c, 0, 38, 0
2, 57336, Note_on_c, 0, 31, 127
2, 57360, Note_off_c, 0, 31, 0
2, 57360, Note_on_c, 0, 38, 127
2, 57360, Note_on_c, 0, 55, 127
2, 57384, Note_off_c, 0, 38, 0
2, 57384, Note_on_c, 0, 43, 127
2, 57408, Note_off_c, 0, 43, 0
2, 57408, Note_off_c, 0, 55, 0
2, 57408, Note_on_c, 0, 31, 127
2, 57456, Note_off_c, 0, 31, 0
2, 57456, Note_on_c, 0, 43, 127
2, 57456, Note_on_c, 0, 55, 127
2, 57504, Note_off_c, 0, 55, 0
2, 57504, Note_off_c, 0, 43, 0
2, 57504, Note_on_c, 0, 38, 127
2, 57528, Note_off_c, 0, 38, 0
2, 57528, Note_on_c, 0, 31, 127
2, 57552, Note_off_c, 0, 31, 0
2, 57552, Note_on_c, 0, 38, 127
2, 57552, Note_on_c, 0, 55, 127
2, 57576, Note_off_c, 0, 38, 0
2, 57576, Note_on_c, 0, 43, 127
2, 57600, Note_off_c, 0, 43, 0
2, 57600, Note_off_c, 0, 55, 0
2, 57600, Note_on_c, 0, 32, 127
2, 57648, Note_off_c, 0, 32, 0
2, 57648, Note_on_c, 0, 44, 127
2, 57648, Note_on_c, 0, 56, 127
2, 57696, Note_off_c, 0, 56, 0
2, 57696, Note_off_c, 0, 44, 0
2, 57696, Note_on_c, 0, 39, 127
2, 57720, Note_off_c, 0, 39, 0
2, 57720, Note_on_c, 0, 32, 127
2, 57744, Note_off_c, 0, 32, 0
2, 57744, Note_on_c, 0, 39, 127
2, 57744, Note_on_c, 0, 56, 127
2, 57768, Note_off_c, 0, 39, 0
2, 57768, Note_on_c, 0, 44, 127
2, 57792, Note_off_c, 0, 44, 0
2, 57792, Note_off_c, 0, 56, 0
2, 57792, Note_on_c, 0, 32, 127
2, 57840, Note_off_c, 0, 32, 0
2, 57840, Note_on_c, 0, 44, 127
2, 57840, Note_on_c, 0, 56, 127
2, 57888, Note_off_c, 0, 56, 0
2, 57888, Note_off_c, 0, 44, 0
2, 57888, Note_on_c, 0, 39, 127
2, 57912, Note_off_c, 0, 39, 0
2, 57912, Note_on_c, 0, 32, 127
2, 57936, Note_off_c, 0, 32, 0
2, 57936, Note_on_c, 0, 39, 127
2, 57936, Note_on_c, 0, 56, 127
2, 57960, Note_off_c, 0, 39, 0
2, 57960, Note_on_c, 0, 44, 127
2, 57984, Note_off_c, 0, 44, 0
2, 57984, Note_off_c, 0, 56, 0
2, 57984, Note_on_c, 0, 32, 127
2, 58032, Note_off_c, 0, 32, 0
2, 58032, Note_on_c, 0, 44, 127
2, 58032, Note_on_c, 0, 56, 127
2, 58080, Note_off_c, 0, 56, 0
2, 58080, Note_off_c, 0, 44, 0
2, 58080, Note_on_c, 0, 39, 127
2, 58104, Note_off_c, 0, 39, 0
2, 58104, Note_on_c, 0, 32, 127
2, 58128, Note_off_c, 0, 32, 0
2, 58128, Note_on_c, 0, 39, 127
2, 58128, Note_on_c, 0, 56, 127
2, 58152, Note_off_c, 0, 39, 0
2, 58152, Note_on_c, 0, 44, 127
2, 58176, Note_off_c, 0, 44, 0
2, 58176, Note_off_c, 0, 56, 0
2, 58176, Note_on_c, 0, 32, 127
2, 58224, Note_off_c, 0, 32, 0
2, 58224, Note_on_c, 0, 44, 127
2, 58224, Note_on_c, 0, 56, 127
2, 58272, Note_off_c, 0, 56, 0
2, 58272, Note_off_c, 0, 44, 0
2, 58272, Note_on_c, 0, 39, 127
2, 58296, Note_off_c, 0, 39, 0
2, 58296, Note_on_c, 0, 32, 127
2, 58320, Note_off_c, 0, 32, 0
2, 58320, Note_on_c, 0, 39, 127
2, 58320, Note_on_c, 0, 56, 127
2, 58344, Note_off_c, 0, 39, 0
2, 58344, Note_on_c, 0, 44, 127
2, 58368, Note_off_c, 0, 44, 0
2, 58368, Note_off_c, 0, 56, 0
2, 58368, Note_on_c, 0, 31, 127
2, 58416, Note_off_c, 0, 31, 0
2, 58416, Note_on_c, 0, 43, 127
2, 58416, Note_on_c, 0, 55, 127
2, 58464, Note_off_c, 0, 55, 0
2, 58464, Note_off_c, 0, 43, 0
2, 58464, Note_on_c, 0, 38, 127
2, 58488, Note_off_c, 0, 38, 0
2, 58488, Note_on_c, 0, 31, 127
2, 58512, Note_off_c, 0, 31, 0
2, 58512, Note_on_c, 0, 38, 127
2, 58512, Note_on_c, 0, 55, 127
2, 58536, Note_off_c, 0, 38, 0
2, 58536, Note_on_c, 0, 43, 127
2, 58560, Note_off_c, 0, 43, 0
2, 58560, Note_off_c, 0, 55, 0
2, 58560, Note_on_c, 0, 31, 127
2, 58608, Note_off_c, 0, 31, 0
2, 58608, Note_on_c, 0, 43, 127
2, 58608, Note_on_c, 0, 55, 127
2, 58656, Note_off_c, 0, 55, 0
2, 58656, Note_off_c, 0, 43, 0
2, 58656, Note_on_c, 0, 38, 127
2, 58680, Note_off_c, 0, 38, 0
2, 58680, Note_on_c, 0, 31, 127
2, 58704, Note_off_c, 0, 31, 0
2, 58704, Note_on_c, 0, 38, 127
2, 58704, Note_on_c, 0, 55, 127
2, 58728, Note_off_c, 0, 38, 0
2, 58728, Note_on_c, 0, 43, 127
2, 58752, Note_off_c, 0, 43, 0
2, 58752, Note_off_c, 0, 55, 0
2, 58752, Note_on_c, 0, 31, 127
2, 58800, Note_off_c, 0, 31, 0
2, 58800, Note_on_c, 0, 43, 127
2, 58800, Note_on_c, 0, 55, 127
2, 58848, Note_off_c, 0, 55, 0
2, 58848, Note_off_c, 0, 43, 0
2, 58848, Note_on_c, 0, 38, 127
2, 58872, Note_off_c, 0, 38, 0
2, 58872, Note_on_c, 0, 31, 127
2, 58896, Note_off_c, 0, 31, 0
2, 58896, Note_on_c, 0, 38, 127
2, 58896, Note_on_c, 0, 55, 127
2, 58920, Note_off_c, 0, 38, 0
2, 58920, Note_on_c, 0, 43, 127
2, 58944, Note_off_c, 0, 43, 0
2, 58944, Note_off_c, 0, 55, 0
2, 58944, Note_on_c, 0, 31, 127
2, 58992, Note_off_c, 0, 31, 0
2, 58992, Note_on_c, 0, 43, 127
2, 58992, Note_on_c, 0, 55, 127
2, 59040, Note_off_c, 0, 55, 0
2, 59040, Note_off_c, 0, 43, 0
2, 59040, Note_on_c, 0, 38, 127
2, 59064, Note_off_c, 0, 38, 0
2, 59064, Note_on_c, 0, 31, 127
2, 59088, Note_off_c, 0, 31, 0
2, 59088, Note_on_c, 0, 38, 127
2, 59088, Note_on_c, 0, 55, 127
2, 59112, Note_off_c, 0, 38, 0
2, 59112, Note_on_c, 0, 43, 127
2, 59136, Note_off_c, 0, 43, 0
2, 59136, Note_off_c, 0, 55, 0
2, 59136, Note_on_c, 0, 32, 127
2, 59184, Note_off_c, 0, 32, 0
2, 59184, Note_on_c, 0, 44, 127
2, 59184, Note_on_c, 0, 56, 127
2, 59232, Note_off_c, 0, 56, 0
2, 59232, Note_off_c, 0, 44, 0
2, 59232, Note_on_c, 0, 39, 127
2, 59256, Note_off_c, 0, 39, 0
2, 59256, Note_on_c, 0, 32, 127
2, 59280, Note_off_c, 0, 32, 0
2, 59280, Note_on_c, 0, 39, 127
2, 59280, Note_on_c, 0, 56, 127
2, 59304, Note_off_c, 0, 39, 0
2, 59304, Note_on_c, 0, 44, 127
2, 59328, Note_off_c, 0, 44, 0
2, 59328, Note_off_c, 0, 56, 0
2, 59328, Note_on_c, 0, 32, 127
2, 59376, Note_off_c, 0, 32, 0
2, 59376, Note_on_c, 0, 44, 127
2, 59376, Note_on_c, 0, 56, 127
2, 59424, Note_off_c, 0, 56, 0
2, 59424, Note_off_c, 0, 44, 0
2, 59424, Note_on_c, 0, 39, 127
2, 59448, Note_off_c, 0, 39, 0
2, 59448, Note_on_c, 0, 32, 127
2, 59472, Note_off_c, 0, 32, 0
2, 59472, Note_on_c, 0, 39, 127
2, 59472, Note_on_c, 0, 56, 127
2, 59496, Note_off_c, 0, 39, 0
2, 59496, Note_on_c, 0, 44, 127
2, 59520, Note_off_c, 0, 44, 0
2, 59520, Note_off_c, 0, 56, 0
2, 59520, Note_on_c, 0, 32, 127
2, 59568, Note_off_c, 0, 32, 0
2, 59568, Note_on_c, 0, 44, 127
2, 59568, Note_on_c, 0, 56, 127
2, 59616, Note_off_c, 0, 56, 0
2, 59616, Note_off_c, 0, 44, 0
2, 59616, Note_on_c, 0, 39, 127
2, 59640, Note_off_c, 0, 39, 0
2, 59640, Note_on_c, 0, 32, 127
2, 59664, Note_off_c, 0, 32, 0
2, 59664, Note_on_c, 0, 39, 127
2, 59664, Note_on_c, 0, 56, 127
2, 59688, Note_off_c, 0, 39, 0
2, 59688, Note_on_c, 0, 44, 127
2, 59712, Note_off_c, 0, 44, 0
2, 59712, Note_off_c, 0, 56, 0
2, 59712, Note_on_c, 0, 32, 127
2, 59760, Note_off_c, 0, 32, 0
2, 59760, Note_on_c, 0, 44, 127
2, 59760, Note_on_c, 0, 56, 127
2, 59808, Note_off_c, 0, 56, 0
2, 59808, Note_off_c, 0, 44, 0
2, 59808, Note_on_c, 0, 39, 127
2, 59832, Note_off_c, 0, 39, 0
2, 59832, Note_on_c, 0, 32, 127
2, 59856, Note_off_c, 0, 32, 0
2, 59856, Note_on_c, 0, 39, 127
2, 59856, Note_on_c, 0, 56, 127
2, 59880, Note_off_c, 0, 39, 0
2, 59880, Note_on_c, 0, 44, 127
2, 59904, Note_off_c, 0, 44, 0
2, 59904, Note_off_c, 0, 56, 0
2, 59904, Note_on_c, 0, 31, 127
2, 59952, Note_off_c, 0, 31, 0
2, 59952, Note_on_c, 0, 43, 127
2, 59952, Note_on_c, 0, 55, 127
2, 60000, Note_off_c, 0, 55, 0
2, 60000, Note_off_c, 0, 43, 0
2, 60000, Note_on_c, 0, 38, 127
2, 60024, Note_off_c, 0, 38, 0
2, 60024, Note_on_c, 0, 31, 127
2, 60048, Note_off_c, 0, 31, 0
2, 60048, Note_on_c, 0, 38, 127
2, 60048, Note_on_c, 0, 55, 127
2, 60072, Note_off_c, 0, 38, 0
2, 60072, Note_on_c, 0, 43, 127
2, 60096, Note_off_c, 0, 43, 0
2, 60096, Note_off_c, 0, 55, 0
2, 60096, Note_on_c, 0, 31, 127
2, 60144, Note_off_c, 0, 31, 0
2, 60144, Note_on_c, 0, 43, 127
2, 60144, Note_on_c, 0, 55, 127
2, 60192, Note_off_c, 0, 55, 0
2, 60192, Note_off_c, 0, 43, 0
2, 60192, Note_on_c, 0, 38, 127
2, 60216, Note_off_c, 0, 38, 0
2, 60216, Note_on_c, 0, 31, 127
2, 60240, Note_off_c, 0, 31, 0
2, 60240, Note_on_c, 0, 38, 127
2, 60240, Note_on_c, 0, 55, 127
2, 60264, Note_off_c, 0, 38, 0
2, 60264, Note_on_c, 0, 43, 127
2, 60288, Note_off_c, 0, 43, 0
2, 60288, Note_off_c, 0, 55, 0
2, 60288, Note_on_c, 0, 31, 127
2, 60336, Note_off_c, 0, 31, 0
2, 60336, Note_on_c, 0, 43, 127
2, 60336, Note_on_c, 0, 55, 127
2, 60384, Note_off_c, 0, 55, 0
2, 60384, Note_off_c, 0, 43, 0
2, 60384, Note_on_c, 0, 38, 127
2, 60408, Note_off_c, 0, 38, 0
2, 60408, Note_on_c, 0, 31, 127
2, 60432, Note_off_c, 0, 31, 0
2, 60432, Note_on_c, 0, 38, 127
2, 60432, Note_on_c, 0, 55, 127
2, 60456, Note_off_c, 0, 38, 0
2, 60456, Note_on_c, 0, 43, 127
2, 60480, Note_off_c, 0, 43, 0
2, 60480, Note_off_c, 0, 55, 0
2, 60480, Note_on_c, 0, 31, 127
2, 60528, Note_off_c, 0, 31, 0
2, 60528, Note_on_c, 0, 43, 127
2, 60528, Note_on_c, 0, 55, 127
2, 60576, Note_off_c, 0, 55, 0
2, 60576, Note_off_c, 0, 43, 0
2, 60576, Note_on_c, 0, 38, 127
2, 60600, Note_off_c, 0, 38, 0
2, 60600, Note_on_c, 0, 31, 127
2, 60624, Note_off_c, 0, 31, 0
2, 60624, Note_on_c, 0, 38, 127
2, 60624, Note_on_c, 0, 55, 127
2, 60648, Note_off_c, 0, 38, 0
2, 60648, Note_on_c, 0, 43, 127
2, 60672, Note_off_c, 0, 43, 0
2, 60672, Note_off_c, 0, 55, 0
2, 60672, Note_on_c, 0, 32, 127
2, 60720, Note_off_c, 0, 32, 0
2, 60720, Note_on_c, 0, 44, 127
2, 60720, Note_on_c, 0, 56, 127
2, 60768, Note_off_c, 0, 56, 0
2, 60768, Note_off_c, 0, 44, 0
2, 60768, Note_on_c, 0, 39, 127
2, 60792, Note_off_c, 0, 39, 0
2, 60792, Note_on_c, 0, 32, 127
2, 60816, Note_off_c, 0, 32, 0
2, 60816, Note_on_c, 0, 39, 127
2, 60816, Note_on_c, 0, 56, 127
2, 60840, Note_off_c, 0, 39, 0
2, 60840, Note_on_c, 0, 44, 127
2, 60864, Note_off_c, 0, 44, 0
2, 60864, Note_off_c, 0, 56, 0
2, 60864, Note_on_c, 0, 32, 127
2, 60912, Note_off_c, 0, 32, 0
2, 60912, Note_on_c, 0, 44, 127
2, 60912, Note_on_c, 0, 56, 127
2, 60960, Note_off_c, 0, 56, 0
2, 60960, Note_off_c, 0, 44, 0
2, 60960, Note_on_c, 0, 39, 127
2, 60984, Note_off_c, 0, 39, 0
2, 60984, Note_on_c, 0, 32, 127
2, 61008, Note_off_c, 0, 32, 0
2, 61008, Note_on_c, 0, 39, 127
2, 61008, Note_on_c, 0, 56, 127
2, 61032, Note_off_c, 0, 39, 0
2, 61032, Note_on_c, 0, 44, 127
2, 61056, Note_off_c, 0, 44, 0
2, 61056, Note_off_c, 0, 56, 0
2, 61056, Note_on_c, 0, 32, 127
2, 61104, Note_off_c, 0, 32, 0
2, 61104, Note_on_c, 0, 44, 127
2, 61104, Note_on_c, 0, 56, 127
2, 61152, Note_off_c, 0, 56, 0
2, 61152, Note_off_c, 0, 44, 0
2, 61152, Note_on_c, 0, 39, 127
2, 61176, Note_off_c, 0, 39, 0
2, 61176, Note_on_c, 0, 32, 127
2, 61200, Note_off_c, 0, 32, 0
2, 61200, Note_on_c, 0, 39, 127
2, 61200, Note_on_c, 0, 56, 127
2, 61224, Note_off_c, 0, 39, 0
2, 61224, Note_on_c, 0, 44, 127
2, 61248, Note_off_c, 0, 44, 0
2, 61248, Note_off_c, 0, 56, 0
2, 61248, Note_on_c, 0, 32, 127
2, 61296, Note_off_c, 0, 32, 0
2, 61296, Note_on_c, 0, 44, 127
2, 61296, Note_on_c, 0, 56, 127
2, 61344, Note_off_c, 0, 56, 0
2, 61344, Note_off_c, 0, 44, 0
2, 61344, Note_on_c, 0, 39, 127
2, 61368, Note_off_c, 0, 39, 0
2, 61368, Note_on_c, 0, 32, 127
2, 61392, Note_off_c, 0, 32, 0
2, 61392, Note_on_c, 0, 39, 127
2, 61392, Note_on_c, 0, 56, 127
2, 61416, Note_off_c, 0, 39, 0
2, 61416, Note_on_c, 0, 44, 127
2, 61440, Note_off_c, 0, 44, 0
2, 61440, Note_off_c, 0, 56, 0
2, 61440, Note_on_c, 0, 31, 127
2, 61488, Note_off_c, 0, 31, 0
2, 61488, Note_on_c, 0, 43, 127
2, 61488, Note_on_c, 0, 55, 127
2, 61536, Note_off_c, 0, 55, 0
2, 61536, Note_off_c, 0, 43, 0
2, 61536, Note_on_c, 0, 38, 127
2, 61560, Note_off_c, 0, 38, 0
2, 61560, Note_on_c, 0, 31, 127
2, 61584, Note_off_c, 0, 31, 0
2, 61584, Note_on_c, 0, 38, 127
2, 61584, Note_on_c, 0, 55, 127
2, 61608, Note_off_c, 0, 38, 0
2, 61608, Note_on_c, 0, 43, 127
2, 61632, Note_off_c, 0, 43, 0
2, 61632, Note_off_c, 0, 55, 0
2, 61632, Note_on_c, 0, 31, 127
2, 61680, Note_off_c, 0, 31, 0
2, 61680, Note_on_c, 0, 43, 127
2, 61680, Note_on_c, 0, 55, 127
2, 61728, Note_off_c, 0, 55, 0
2, 61728, Note_off_c, 0, 43, 0
2, 61728, Note_on_c, 0, 38, 127
2, 61752, Note_off_c, 0, 38, 0
2, 61752, Note_on_c, 0, 31, 127
2, 61776, Note_off_c, 0, 31, 0
2, 61776, Note_on_c, 0, 38, 127
2, 61776, Note_on_c, 0, 55, 127
2, 61800, Note_off_c, 0, 38, 0
2, 61800, Note_on_c, 0, 43, 127
2, 61824, Note_off_c, 0, 43, 0
2, 61824, Note_off_c, 0, 55, 0
2, 61824, Note_on_c, 0, 31, 127
2, 61872, Note_off_c, 0, 31, 0
2, 61872, Note_on_c, 0, 43, 127
2, 61872, Note_on_c, 0, 55, 127
2, 61920, Note_off_c, 0, 55, 0
2, 61920, Note_off_c, 0, 43, 0
2, 61920, Note_on_c, 0, 38, 127
2, 61944, Note_off_c, 0, 38, 0
2, 61944, Note_on_c, 0, 31, 127
2, 61968, Note_off_c, 0, 31, 0
2, 61968, Note_on_c, 0, 38, 127
2, 61968, Note_on_c, 0, 55, 127
2, 61992, Note_off_c, 0, 38, 0
2, 61992, Note_on_c, 0, 43, 127
2, 62016, Note_off_c, 0, 43, 0
2, 62016, Note_off_c, 0, 55, 0
2, 62016, Note_on_c, 0, 31, 127
2, 62064, Note_off_c, 0, 31, 0
2, 62064, Note_on_c, 0, 43, 127
2, 62064, Note_on_c, 0, 55, 127
2, 62112, Note_off_c, 0, 55, 0
2, 62112, Note_off_c, 0, 43, 0
2, 62112, Note_on_c, 0, 38, 127
2, 62136, Note_off_c, 0, 38, 0
2, 62136, Note_on_c, 0, 31, 127
2, 62160, Note_off_c, 0, 31, 0
2, 62160, Note_on_c, 0, 38, 127
2, 62160, Note_on_c, 0, 55, 127
2, 62184, Note_off_c, 0, 38, 0
2, 62184, Note_on_c, 0, 43, 127
2, 62208, Note_off_c, 0, 43, 0
2, 62208, Note_off_c, 0, 55, 0
2, 62208, Note_on_c, 0, 43, 127
2, 62256, Note_off_c, 0, 43, 0
2, 62256, Note_on_c, 0, 67, 127
2, 62256, Note_on_c, 0, 55, 127
2, 62304, Note_off_c, 0, 55, 0
2, 62304, Note_off_c, 0, 67, 0
2, 62304, Note_on_c, 0, 43, 127
2, 62352, Note_off_c, 0, 43, 0
2, 62352, Note_on_c, 0, 55, 127
2, 62352, Note_on_c, 0, 67, 127
2, 62400, Note_off_c, 0, 67, 0
2, 62400, Note_off_c, 0, 55, 0
2, 62400, Note_on_c, 0, 54, 127
2, 62400, Note_on_c, 0, 66, 127
2, 62496, Note_off_c, 0, 66, 0
2, 62496, Note_off_c, 0, 54, 0
2, 62496, Note_on_c, 0, 42, 127
2, 62496, Note_on_c, 0, 54, 127
2, 62592, Note_off_c, 0, 54, 0
2, 62592, Note_off_c, 0, 42, 0
2, 62592, Note_on_c, 0, 36, 127
2, 62592, Note_on_c, 0, 48, 127
2, 62688, Note_off_c, 0, 48, 0
2, 62688, Note_off_c, 0, 36, 0
2, 62976, Control_c, 0, 10, 64
2, 62976, Control_c, 0, 7, 100
2, 62976, Pitch_bend_c, 0, 8192
2, 62976, Program_c, 0, 37
2, 62976, End_track
3, 0, Start_track
3, 0, Control_c, 1, 0, 0
3, 0, Control_c, 1, 32, 0
3, 0, Program_c, 1, 30
3, 0, Title_t, "Guitar"
3, 0, Control_c, 1, 7, 127
3, 0, Control_c, 1, 10, 0
3, 0, Control_c, 1, 7, 100
3, 0, Pitch_bend_c, 1, 8192
3, 0, Control_c, 1, 7, 100
3, 0, Pitch_bend_c, 1, 8192
3, 0, Control_c, 1, 7, 100
3, 0, Pitch_bend_c, 1, 8192
3, 0, Program_c, 1, 30
3, 0, Control_c, 1, 7, 100
3, 0, Pitch_bend_c, 1, 8192
3, 0, Program_c, 1, 30
3, 0, Note_on_c, 1, 36, 127
3, 48, Note_off_c, 1, 36, 0
3, 48, Note_on_c, 1, 48, 127
3, 96, Note_off_c, 1, 48, 0
3, 96, Note_on_c, 1, 35, 127
3, 144, Note_off_c, 1, 35, 0
3, 144, Note_on_c, 1, 47, 127
3, 192, Note_off_c, 1, 47, 0
3, 192, Note_on_c, 1, 34, 127
3, 240, Note_off_c, 1, 34, 0
3, 240, Note_on_c, 1, 46, 127
3, 288, Note_off_c, 1, 46, 0
3, 288, Note_on_c, 1, 33, 127
3, 336, Note_off_c, 1, 33, 0
3, 336, Note_on_c, 1, 45, 127
3, 384, Note_off_c, 1, 45, 0
3, 384, Note_on_c, 1, 43, 127
3, 432, Note_off_c, 1, 43, 0
3, 432, Note_on_c, 1, 55, 127
3, 480, Note_off_c, 1, 55, 0
3, 480, Note_on_c, 1, 43, 127
3, 528, Note_off_c, 1, 43, 0
3, 528, Note_on_c, 1, 55, 127
3, 576, Note_off_c, 1, 55, 0
3, 576, Note_on_c, 1, 54, 127
3, 672, Note_off_c, 1, 54, 0
3, 672, Note_on_c, 1, 42, 127
3, 768, Note_off_c, 1, 42, 0
3, 768, Note_on_c, 1, 36, 127
3, 816, Note_off_c, 1, 36, 0
3, 816, Note_on_c, 1, 48, 127
3, 864, Note_off_c, 1, 48, 0
3, 864, Note_on_c, 1, 43, 127
3, 888, Note_off_c, 1, 43, 0
3, 888, Note_on_c, 1, 36, 127
3, 912, Note_off_c, 1, 36, 0
3, 912, Note_on_c, 1, 43, 127
3, 936, Note_off_c, 1, 43, 0
3, 936, Note_on_c, 1, 48, 127
3, 960, Note_off_c, 1, 48, 0
3, 960, Note_on_c, 1, 36, 127
3, 1008, Note_off_c, 1, 36, 0
3, 1008, Note_on_c, 1, 48, 127
3, 1056, Note_off_c, 1, 48, 0
3, 1056, Note_on_c, 1, 43, 127
3, 1080, Note_off_c, 1, 43, 0
3, 1080, Note_on_c, 1, 36, 127
3, 1104, Note_off_c, 1, 36, 0
3, 1104, Note_on_c, 1, 43, 127
3, 1128, Note_off_c, 1, 43, 0
3, 1128, Note_on_c, 1, 48, 127
3, 1152, Note_off_c, 1, 48, 0
3, 1152, Note_on_c, 1, 37, 127
3, 1200, Note_off_c, 1, 37, 0
3, 1200, Note_on_c, 1, 49, 127
3, 1248, Note_off_c, 1, 49, 0
3, 1248, Note_on_c, 1, 44, 127
3, 1272, Note_off_c, 1, 44, 0
3, 1272, Note_on_c, 1, 37, 127
3, 1296, Note_off_c, 1, 37, 0
3, 1296, Note_on_c, 1, 44, 127
3, 1320, Note_off_c, 1, 44, 0
3, 1320, Note_on_c, 1, 49, 127
3, 1344, Note_off_c, 1, 49, 0
3, 1344, Note_on_c, 1, 39, 127
3, 1392, Note_off_c, 1, 39, 0
3, 1392, Note_on_c, 1, 51, 127
3, 1440, Note_off_c, 1, 51, 0
3, 1440, Note_on_c, 1, 46, 127
3, 1464, Note_off_c, 1, 46, 0
3, 1464, Note_on_c, 1, 39, 127
3, 1488, Note_off_c, 1, 39, 0
3, 1488, Note_on_c, 1, 46, 127
3, 1512, Note_off_c, 1, 46, 0
3, 1512, Note_on_c, 1, 51, 127
3, 1536, Note_off_c, 1, 51, 0
3, 1536, Note_on_c, 1, 36, 127
3, 1584, Note_off_c, 1, 36, 0
3, 1584, Note_on_c, 1, 48, 127
3, 1632, Note_off_c, 1, 48, 0
3, 1632, Note_on_c, 1, 43, 127
3, 1656, Note_off_c, 1, 43, 0
3, 1656, Note_on_c, 1, 36, 127
3, 1680, Note_off_c, 1, 36, 0
3, 1680, Note_on_c, 1, 43, 127
3, 1704, Note_off_c, 1, 43, 0
3, 1704, Note_on_c, 1, 48, 127
3, 1728, Note_off_c, 1, 48, 0
3, 1728, Note_on_c, 1, 36, 127
3, 1776, Note_off_c, 1, 36, 0
3, 1776, Note_on_c, 1, 48, 127
3, 1824, Note_off_c, 1, 48, 0
3, 1824, Note_on_c, 1, 43, 127
3, 1848, Note_off_c, 1, 43, 0
3, 1848, Note_on_c, 1, 36, 127
3, 1872, Note_off_c, 1, 36, 0
3, 1872, Note_on_c, 1, 43, 127
3, 1896, Note_off_c, 1, 43, 0
3, 1896, Note_on_c, 1, 48, 127
3, 1920, Note_off_c, 1, 48, 0
3, 1920, Note_on_c, 1, 32, 127
3, 1968, Note_off_c, 1, 32, 0
3, 1968, Note_on_c, 1, 44, 127
3, 2016, Note_off_c, 1, 44, 0
3, 2016, Note_on_c, 1, 39, 127
3, 2040, Note_off_c, 1, 39, 0
3, 2040, Note_on_c, 1, 32, 127
3, 2064, Note_off_c, 1, 32, 0
3, 2064, Note_on_c, 1, 39, 127
3, 2088, Note_off_c, 1, 39, 0
3, 2088, Note_on_c, 1, 44, 127
3, 2112, Note_off_c, 1, 44, 0
3, 2112, Note_on_c, 1, 31, 127
3, 2160, Note_off_c, 1, 31, 0
3, 2160, Note_on_c, 1, 43, 127
3, 2208, Note_off_c, 1, 43, 0
3, 2208, Note_on_c, 1, 38, 127
3, 2232, Note_off_c, 1, 38, 0
3, 2232, Note_on_c, 1, 31, 127
3, 2256, Note_off_c, 1, 31, 0
3, 2256, Note_on_c, 1, 38, 127
3, 2280, Note_off_c, 1, 38, 0
3, 2280, Note_on_c, 1, 43, 127
3, 2304, Note_off_c, 1, 43, 0
3, 2304, Note_on_c, 1, 36, 127
3, 2352, Note_off_c, 1, 36, 0
3, 2352, Note_on_c, 1, 48, 127
3, 2400, Note_off_c, 1, 48, 0
3, 2400, Note_on_c, 1, 43, 127
3, 2424, Note_off_c, 1, 43, 0
3, 2424, Note_on_c, 1, 36, 127
3, 2448, Note_off_c, 1, 36, 0
3, 2448, Note_on_c, 1, 43, 127
3, 2472, Note_off_c, 1, 43, 0
3, 2472, Note_on_c, 1, 48, 127
3, 2496, Note_off_c, 1, 48, 0
3, 2496, Note_on_c, 1, 36, 127
3, 2544, Note_off_c, 1, 36, 0
3, 2544, Note_on_c, 1, 48, 127
3, 2592, Note_off_c, 1, 48, 0
3, 2592, Note_on_c, 1, 43, 127
3, 2616, Note_off_c, 1, 43, 0
3, 2616, Note_on_c, 1, 36, 127
3, 2640, Note_off_c, 1, 36, 0
3, 2640, Note_on_c, 1, 43, 127
3, 2664, Note_off_c, 1, 43, 0
3, 2664, Note_on_c, 1, 48, 127
3, 2688, Note_off_c, 1, 48, 0
3, 2688, Note_on_c, 1, 37, 127
3, 2736, Note_off_c, 1, 37, 0
3, 2736, Note_on_c, 1, 49, 127
3, 2784, Note_off_c, 1, 49, 0
3, 2784, Note_on_c, 1, 44, 127
3, 2808, Note_off_c, 1, 44, 0
3, 2808, Note_on_c, 1, 37, 127
3, 2832, Note_off_c, 1, 37, 0
3, 2832, Note_on_c, 1, 44, 127
3, 2856, Note_off_c, 1, 44, 0
3, 2856, Note_on_c, 1, 49, 127
3, 2880, Note_off_c, 1, 49, 0
3, 2880, Note_on_c, 1, 39, 127
3, 2928, Note_off_c, 1, 39, 0
3, 2928, Note_on_c, 1, 51, 127
3, 2976, Note_off_c, 1, 51, 0
3, 2976, Note_on_c, 1, 46, 127
3, 3000, Note_off_c, 1, 46, 0
3, 3000, Note_on_c, 1, 39, 127
3, 3024, Note_off_c, 1, 39, 0
3, 3024, Note_on_c, 1, 46, 127
3, 3048, Note_off_c, 1, 46, 0
3, 3048, Note_on_c, 1, 51, 127
3, 3072, Note_off_c, 1, 51, 0
3, 3072, Note_on_c, 1, 36, 127
3, 3120, Note_off_c, 1, 36, 0
3, 3120, Note_on_c, 1, 48, 127
3, 3168, Note_off_c, 1, 48, 0
3, 3168, Note_on_c, 1, 43, 127
3, 3192, Note_off_c, 1, 43, 0
3, 3192, Note_on_c, 1, 36, 127
3, 3216, Note_off_c, 1, 36, 0
3, 3216, Note_on_c, 1, 43, 127
3, 3240, Note_off_c, 1, 43, 0
3, 3240, Note_on_c, 1, 48, 127
3, 3264, Note_off_c, 1, 48, 0
3, 3264, Note_on_c, 1, 36, 127
3, 3312, Note_off_c, 1, 36, 0
3, 3312, Note_on_c, 1, 48, 127
3, 3360, Note_off_c, 1, 48, 0
3, 3360, Note_on_c, 1, 43, 127
3, 3384, Note_off_c, 1, 43, 0
3, 3384, Note_on_c, 1, 36, 127
3, 3408, Note_off_c, 1, 36, 0
3, 3408, Note_on_c, 1, 43, 127
3, 3432, Note_off_c, 1, 43, 0
3, 3432, Note_on_c, 1, 48, 127
3, 3456, Note_off_c, 1, 48, 0
3, 3456, Note_on_c, 1, 32, 127
3, 3504, Note_off_c, 1, 32, 0
3, 3504, Note_on_c, 1, 44, 127
3, 3552, Note_off_c, 1, 44, 0
3, 3552, Note_on_c, 1, 39, 127
3, 3576, Note_off_c, 1, 39, 0
3, 3576, Note_on_c, 1, 32, 127
3, 3600, Note_off_c, 1, 32, 0
3, 3600, Note_on_c, 1, 39, 127
3, 3624, Note_off_c, 1, 39, 0
3, 3624, Note_on_c, 1, 44, 127
3, 3648, Note_off_c, 1, 44, 0
3, 3648, Note_on_c, 1, 31, 127
3, 3696, Note_off_c, 1, 31, 0
3, 3696, Note_on_c, 1, 43, 127
3, 3744, Note_off_c, 1, 43, 0
3, 3744, Note_on_c, 1, 38, 127
3, 3768, Note_off_c, 1, 38, 0
3, 3768, Note_on_c, 1, 31, 127
3, 3792, Note_off_c, 1, 31, 0
3, 3792, Note_on_c, 1, 38, 127
3, 3816, Note_off_c, 1, 38, 0
3, 3816, Note_on_c, 1, 43, 127
3, 3840, Note_off_c, 1, 43, 0
3, 3840, Note_on_c, 1, 36, 127
3, 3888, Note_off_c, 1, 36, 0
3, 3888, Note_on_c, 1, 48, 127
3, 3936, Note_off_c, 1, 48, 0
3, 3936, Note_on_c, 1, 43, 127
3, 3960, Note_off_c, 1, 43, 0
3, 3960, Note_on_c, 1, 36, 127
3, 3984, Note_off_c, 1, 36, 0
3, 3984, Note_on_c, 1, 43, 127
3, 4008, Note_off_c, 1, 43, 0
3, 4008, Note_on_c, 1, 48, 127
3, 4032, Note_off_c, 1, 48, 0
3, 4032, Note_on_c, 1, 36, 127
3, 4080, Note_off_c, 1, 36, 0
3, 4080, Note_on_c, 1, 48, 127
3, 4128, Note_off_c, 1, 48, 0
3, 4128, Note_on_c, 1, 43, 127
3, 4152, Note_off_c, 1, 43, 0
3, 4152, Note_on_c, 1, 36, 127
3, 4176, Note_off_c, 1, 36, 0
3, 4176, Note_on_c, 1, 43, 127
3, 4200, Note_off_c, 1, 43, 0
3, 4200, Note_on_c, 1, 48, 127
3, 4224, Note_off_c, 1, 48, 0
3, 4224, Note_on_c, 1, 37, 127
3, 4272, Note_off_c, 1, 37, 0
3, 4272, Note_on_c, 1, 49, 127
3, 4320, Note_off_c, 1, 49, 0
3, 4320, Note_on_c, 1, 44, 127
3, 4344, Note_off_c, 1, 44, 0
3, 4344, Note_on_c, 1, 37, 127
3, 4368, Note_off_c, 1, 37, 0
3, 4368, Note_on_c, 1, 44, 127
3, 4392, Note_off_c, 1, 44, 0
3, 4392, Note_on_c, 1, 49, 127
3, 4416, Note_off_c, 1, 49, 0
3, 4416, Note_on_c, 1, 39, 127
3, 4464, Note_off_c, 1, 39, 0
3, 4464, Note_on_c, 1, 51, 127
3, 4512, Note_off_c, 1, 51, 0
3, 4512, Note_on_c, 1, 46, 127
3, 4536, Note_off_c, 1, 46, 0
3, 4536, Note_on_c, 1, 39, 127
3, 4560, Note_off_c, 1, 39, 0
3, 4560, Note_on_c, 1, 46, 127
3, 4584, Note_off_c, 1, 46, 0
3, 4584, Note_on_c, 1, 51, 127
3, 4608, Note_off_c, 1, 51, 0
3, 4608, Note_on_c, 1, 36, 127
3, 4656, Note_off_c, 1, 36, 0
3, 4656, Note_on_c, 1, 48, 127
3, 4704, Note_off_c, 1, 48, 0
3, 4704, Note_on_c, 1, 43, 127
3, 4728, Note_off_c, 1, 43, 0
3, 4728, Note_on_c, 1, 36, 127
3, 4752, Note_off_c, 1, 36, 0
3, 4752, Note_on_c, 1, 43, 127
3, 4776, Note_off_c, 1, 43, 0
3, 4776, Note_on_c, 1, 48, 127
3, 4800, Note_off_c, 1, 48, 0
3, 4800, Note_on_c, 1, 36, 127
3, 4848, Note_off_c, 1, 36, 0
3, 4848, Note_on_c, 1, 48, 127
3, 4896, Note_off_c, 1, 48, 0
3, 4896, Note_on_c, 1, 43, 127
3, 4920, Note_off_c, 1, 43, 0
3, 4920, Note_on_c, 1, 36, 127
3, 4944, Note_off_c, 1, 36, 0
3, 4944, Note_on_c, 1, 43, 127
3, 4968, Note_off_c, 1, 43, 0
3, 4968, Note_on_c, 1, 48, 127
3, 4992, Note_off_c, 1, 48, 0
3, 4992, Note_on_c, 1, 32, 127
3, 5040, Note_off_c, 1, 32, 0
3, 5040, Note_on_c, 1, 44, 127
3, 5088, Note_off_c, 1, 44, 0
3, 5088, Note_on_c, 1, 39, 127
3, 5112, Note_off_c, 1, 39, 0
3, 5112, Note_on_c, 1, 32, 127
3, 5136, Note_off_c, 1, 32, 0
3, 5136, Note_on_c, 1, 39, 127
3, 5160, Note_off_c, 1, 39, 0
3, 5160, Note_on_c, 1, 44, 127
3, 5184, Note_off_c, 1, 44, 0
3, 5184, Note_on_c, 1, 31, 127
3, 5232, Note_off_c, 1, 31, 0
3, 5232, Note_on_c, 1, 43, 127
3, 5280, Note_off_c, 1, 43, 0
3, 5280, Note_on_c, 1, 38, 127
3, 5304, Note_off_c, 1, 38, 0
3, 5304, Note_on_c, 1, 31, 127
3, 5328, Note_off_c, 1, 31, 0
3, 5328, Note_on_c, 1, 38, 127
3, 5352, Note_off_c, 1, 38, 0
3, 5352, Note_on_c, 1, 43, 127
3, 5376, Note_off_c, 1, 43, 0
3, 5376, Note_on_c, 1, 36, 127
3, 5424, Note_off_c, 1, 36, 0
3, 5424, Note_on_c, 1, 48, 127
3, 5472, Note_off_c, 1, 48, 0
3, 5472, Note_on_c, 1, 43, 127
3, 5496, Note_off_c, 1, 43, 0
3, 5496, Note_on_c, 1, 36, 127
3, 5520, Note_off_c, 1, 36, 0
3, 5520, Note_on_c, 1, 43, 127
3, 5544, Note_off_c, 1, 43, 0
3, 5544, Note_on_c, 1, 48, 127
3, 5568, Note_off_c, 1, 48, 0
3, 5568, Note_on_c, 1, 36, 127
3, 5616, Note_off_c, 1, 36, 0
3, 5616, Note_on_c, 1, 48, 127
3, 5664, Note_off_c, 1, 48, 0
3, 5664, Note_on_c, 1, 43, 127
3, 5688, Note_off_c, 1, 43, 0
3, 5688, Note_on_c, 1, 36, 127
3, 5712, Note_off_c, 1, 36, 0
3, 5712, Note_on_c, 1, 43, 127
3, 5736, Note_off_c, 1, 43, 0
3, 5736, Note_on_c, 1, 48, 127
3, 5760, Note_off_c, 1, 48, 0
3, 5760, Note_on_c, 1, 37, 127
3, 5808, Note_off_c, 1, 37, 0
3, 5808, Note_on_c, 1, 49, 127
3, 5856, Note_off_c, 1, 49, 0
3, 5856, Note_on_c, 1, 44, 127
3, 5880, Note_off_c, 1, 44, 0
3, 5880, Note_on_c, 1, 37, 127
3, 5904, Note_off_c, 1, 37, 0
3, 5904, Note_on_c, 1, 44, 127
3, 5928, Note_off_c, 1, 44, 0
3, 5928, Note_on_c, 1, 49, 127
3, 5952, Note_off_c, 1, 49, 0
3, 5952, Note_on_c, 1, 39, 127
3, 6000, Note_off_c, 1, 39, 0
3, 6000, Note_on_c, 1, 51, 127
3, 6048, Note_off_c, 1, 51, 0
3, 6048, Note_on_c, 1, 46, 127
3, 6072, Note_off_c, 1, 46, 0
3, 6072, Note_on_c, 1, 39, 127
3, 6096, Note_off_c, 1, 39, 0
3, 6096, Note_on_c, 1, 46, 127
3, 6120, Note_off_c, 1, 46, 0
3, 6120, Note_on_c, 1, 51, 127
3, 6144, Note_off_c, 1, 51, 0
3, 6144, Note_on_c, 1, 36, 127
3, 6192, Note_off_c, 1, 36, 0
3, 6192, Note_on_c, 1, 48, 127
3, 6240, Note_off_c, 1, 48, 0
3, 6240, Note_on_c, 1, 43, 127
3, 6264, Note_off_c, 1, 43, 0
3, 6264, Note_on_c, 1, 36, 127
3, 6288, Note_off_c, 1, 36, 0
3, 6288, Note_on_c, 1, 43, 127
3, 6312, Note_off_c, 1, 43, 0
3, 6312, Note_on_c, 1, 48, 127
3, 6336, Note_off_c, 1, 48, 0
3, 6336, Note_on_c, 1, 36, 127
3, 6384, Note_off_c, 1, 36, 0
3, 6384, Note_on_c, 1, 48, 127
3, 6432, Note_off_c, 1, 48, 0
3, 6432, Note_on_c, 1, 43, 127
3, 6456, Note_off_c, 1, 43, 0
3, 6456, Note_on_c, 1, 36, 127
3, 6480, Note_off_c, 1, 36, 0
3, 6480, Note_on_c, 1, 43, 127
3, 6504, Note_off_c, 1, 43, 0
3, 6504, Note_on_c, 1, 48, 127
3, 6528, Note_off_c, 1, 48, 0
3, 6528, Note_on_c, 1, 32, 127
3, 6576, Note_off_c, 1, 32, 0
3, 6576, Note_on_c, 1, 44, 127
3, 6624, Note_off_c, 1, 44, 0
3, 6624, Note_on_c, 1, 39, 127
3, 6648, Note_off_c, 1, 39, 0
3, 6648, Note_on_c, 1, 32, 127
3, 6672, Note_off_c, 1, 32, 0
3, 6672, Note_on_c, 1, 39, 127
3, 6696, Note_off_c, 1, 39, 0
3, 6696, Note_on_c, 1, 44, 127
3, 6720, Note_off_c, 1, 44, 0
3, 6720, Note_on_c, 1, 31, 127
3, 6768, Note_off_c, 1, 31, 0
3, 6768, Note_on_c, 1, 43, 127
3, 6816, Note_off_c, 1, 43, 0
3, 6816, Note_on_c, 1, 38, 127
3, 6840, Note_off_c, 1, 38, 0
3, 6840, Note_on_c, 1, 31, 127
3, 6864, Note_off_c, 1, 31, 0
3, 6864, Note_on_c, 1, 38, 127
3, 6888, Note_off_c, 1, 38, 0
3, 6888, Note_on_c, 1, 43, 127
3, 6912, Note_off_c, 1, 43, 0
3, 6912, Note_on_c, 1, 32, 127
3, 6960, Note_off_c, 1, 32, 0
3, 6960, Note_on_c, 1, 44, 127
3, 7008, Note_off_c, 1, 44, 0
3, 7008, Note_on_c, 1, 39, 127
3, 7032, Note_off_c, 1, 39, 0
3, 7032, Note_on_c, 1, 32, 127
3, 7056, Note_off_c, 1, 32, 0
3, 7056, Note_on_c, 1, 39, 127
3, 7080, Note_off_c, 1, 39, 0
3, 7080, Note_on_c, 1, 44, 127
3, 7104, Note_off_c, 1, 44, 0
3, 7104, Note_on_c, 1, 32, 127
3, 7152, Note_off_c, 1, 32, 0
3, 7152, Note_on_c, 1, 44, 127
3, 7200, Note_off_c, 1, 44, 0
3, 7200, Note_on_c, 1, 39, 127
3, 7224, Note_off_c, 1, 39, 0
3, 7224, Note_on_c, 1, 32, 127
3, 7248, Note_off_c, 1, 32, 0
3, 7248, Note_on_c, 1, 39, 127
3, 7272, Note_off_c, 1, 39, 0
3, 7272, Note_on_c, 1, 44, 127
3, 7296, Note_off_c, 1, 44, 0
3, 7296, Note_on_c, 1, 32, 127
3, 7344, Note_off_c, 1, 32, 0
3, 7344, Note_on_c, 1, 44, 127
3, 7392, Note_off_c, 1, 44, 0
3, 7392, Note_on_c, 1, 39, 127
3, 7416, Note_off_c, 1, 39, 0
3, 7416, Note_on_c, 1, 32, 127
3, 7440, Note_off_c, 1, 32, 0
3, 7440, Note_on_c, 1, 39, 127
3, 7464, Note_off_c, 1, 39, 0
3, 7464, Note_on_c, 1, 44, 127
3, 7488, Note_off_c, 1, 44, 0
3, 7488, Note_on_c, 1, 32, 127
3, 7536, Note_off_c, 1, 32, 0
3, 7536, Note_on_c, 1, 44, 127
3, 7584, Note_off_c, 1, 44, 0
3, 7584, Note_on_c, 1, 39, 127
3, 7608, Note_off_c, 1, 39, 0
3, 7608, Note_on_c, 1, 32, 127
3, 7632, Note_off_c, 1, 32, 0
3, 7632, Note_on_c, 1, 39, 127
3, 7656, Note_off_c, 1, 39, 0
3, 7656, Note_on_c, 1, 44, 127
3, 7680, Note_off_c, 1, 44, 0
3, 7680, Note_on_c, 1, 31, 127
3, 7728, Note_off_c, 1, 31, 0
3, 7728, Note_on_c, 1, 43, 127
3, 7776, Note_off_c, 1, 43, 0
3, 7776, Note_on_c, 1, 38, 127
3, 7800, Note_off_c, 1, 38, 0
3, 7800, Note_on_c, 1, 31, 127
3, 7824, Note_off_c, 1, 31, 0
3, 7824, Note_on_c, 1, 38, 127
3, 7848, Note_off_c, 1, 38, 0
3, 7848, Note_on_c, 1, 43, 127
3, 7872, Note_off_c, 1, 43, 0
3, 7872, Note_on_c, 1, 31, 127
3, 7920, Note_off_c, 1, 31, 0
3, 7920, Note_on_c, 1, 43, 127
3, 7968, Note_off_c, 1, 43, 0
3, 7968, Note_on_c, 1, 38, 127
3, 7992, Note_off_c, 1, 38, 0
3, 7992, Note_on_c, 1, 31, 127
3, 8016, Note_off_c, 1, 31, 0
3, 8016, Note_on_c, 1, 38, 127
3, 8040, Note_off_c, 1, 38, 0
3, 8040, Note_on_c, 1, 43, 127
3, 8064, Note_off_c, 1, 43, 0
3, 8064, Note_on_c, 1, 31, 127
3, 8112, Note_off_c, 1, 31, 0
3, 8112, Note_on_c, 1, 43, 127
3, 8160, Note_off_c, 1, 43, 0
3, 8160, Note_on_c, 1, 38, 127
3, 8184, Note_off_c, 1, 38, 0
3, 8184, Note_on_c, 1, 31, 127
3, 8208, Note_off_c, 1, 31, 0
3, 8208, Note_on_c, 1, 38, 127
3, 8232, Note_off_c, 1, 38, 0
3, 8232, Note_on_c, 1, 43, 127
3, 8256, Note_off_c, 1, 43, 0
3, 8256, Note_on_c, 1, 31, 127
3, 8304, Note_off_c, 1, 31, 0
3, 8304, Note_on_c, 1, 43, 127
3, 8352, Note_off_c, 1, 43, 0
3, 8352, Note_on_c, 1, 38, 127
3, 8376, Note_off_c, 1, 38, 0
3, 8376, Note_on_c, 1, 31, 127
3, 8400, Note_off_c, 1, 31, 0
3, 8400, Note_on_c, 1, 38, 127
3, 8424, Note_off_c, 1, 38, 0
3, 8424, Note_on_c, 1, 43, 127
3, 8448, Note_off_c, 1, 43, 0
3, 8448, Note_on_c, 1, 32, 127
3, 8496, Note_off_c, 1, 32, 0
3, 8496, Note_on_c, 1, 44, 127
3, 8544, Note_off_c, 1, 44, 0
3, 8544, Note_on_c, 1, 39, 127
3, 8568, Note_off_c, 1, 39, 0
3, 8568, Note_on_c, 1, 32, 127
3, 8592, Note_off_c, 1, 32, 0
3, 8592, Note_on_c, 1, 39, 127
3, 8616, Note_off_c, 1, 39, 0
3, 8616, Note_on_c, 1, 44, 127
3, 8640, Note_off_c, 1, 44, 0
3, 8640, Note_on_c, 1, 32, 127
3, 8688, Note_off_c, 1, 32, 0
3, 8688, Note_on_c, 1, 44, 127
3, 8736, Note_off_c, 1, 44, 0
3, 8736, Note_on_c, 1, 39, 127
3, 8760, Note_off_c, 1, 39, 0
3, 8760, Note_on_c, 1, 32, 127
3, 8784, Note_off_c, 1, 32, 0
3, 8784, Note_on_c, 1, 39, 127
3, 8808, Note_off_c, 1, 39, 0
3, 8808, Note_on_c, 1, 44, 127
3, 8832, Note_off_c, 1, 44, 0
3, 8832, Note_on_c, 1, 32, 127
3, 8880, Note_off_c, 1, 32, 0
3, 8880, Note_on_c, 1, 44, 127
3, 8928, Note_off_c, 1, 44, 0
3, 8928, Note_on_c, 1, 39, 127
3, 8952, Note_off_c, 1, 39, 0
3, 8952, Note_on_c, 1, 32, 127
3, 8976, Note_off_c, 1, 32, 0
3, 8976, Note_on_c, 1, 39, 127
3, 9000, Note_off_c, 1, 39, 0
3, 9000, Note_on_c, 1, 44, 127
3, 9024, Note_off_c, 1, 44, 0
3, 9024, Note_on_c, 1, 32, 127
3, 9072, Note_off_c, 1, 32, 0
3, 9072, Note_on_c, 1, 44, 127
3, 9120, Note_off_c, 1, 44, 0
3, 9120, Note_on_c, 1, 39, 127
3, 9144, Note_off_c, 1, 39, 0
3, 9144, Note_on_c, 1, 32, 127
3, 9168, Note_off_c, 1, 32, 0
3, 9168, Note_on_c, 1, 39, 127
3, 9192, Note_off_c, 1, 39, 0
3, 9192, Note_on_c, 1, 44, 127
3, 9216, Note_off_c, 1, 44, 0
3, 9216, Note_on_c, 1, 31, 127
3, 9264, Note_off_c, 1, 31, 0
3, 9264, Note_on_c, 1, 43, 127
3, 9312, Note_off_c, 1, 43, 0
3, 9312, Note_on_c, 1, 38, 127
3, 9336, Note_off_c, 1, 38, 0
3, 9336, Note_on_c, 1, 31, 127
3, 9360, Note_off_c, 1, 31, 0
3, 9360, Note_on_c, 1, 38, 127
3, 9384, Note_off_c, 1, 38, 0
3, 9384, Note_on_c, 1, 43, 127
3, 9408, Note_off_c, 1, 43, 0
3, 9408, Note_on_c, 1, 31, 127
3, 9456, Note_off_c, 1, 31, 0
3, 9456, Note_on_c, 1, 43, 127
3, 9504, Note_off_c, 1, 43, 0
3, 9504, Note_on_c, 1, 38, 127
3, 9528, Note_off_c, 1, 38, 0
3, 9528, Note_on_c, 1, 31, 127
3, 9552, Note_off_c, 1, 31, 0
3, 9552, Note_on_c, 1, 38, 127
3, 9576, Note_off_c, 1, 38, 0
3, 9576, Note_on_c, 1, 43, 127
3, 9600, Note_off_c, 1, 43, 0
3, 9600, Note_on_c, 1, 31, 127
3, 9648, Note_off_c, 1, 31, 0
3, 9648, Note_on_c, 1, 43, 127
3, 9696, Note_off_c, 1, 43, 0
3, 9696, Note_on_c, 1, 38, 127
3, 9720, Note_off_c, 1, 38, 0
3, 9720, Note_on_c, 1, 31, 127
3, 9744, Note_off_c, 1, 31, 0
3, 9744, Note_on_c, 1, 38, 127
3, 9768, Note_off_c, 1, 38, 0
3, 9768, Note_on_c, 1, 43, 127
3, 9792, Note_off_c, 1, 43, 0
3, 9792, Note_on_c, 1, 31, 127
3, 9840, Note_off_c, 1, 31, 0
3, 9840, Note_on_c, 1, 43, 127
3, 9888, Note_off_c, 1, 43, 0
3, 9888, Note_on_c, 1, 38, 127
3, 9912, Note_off_c, 1, 38, 0
3, 9912, Note_on_c, 1, 31, 127
3, 9936, Note_off_c, 1, 31, 0
3, 9936, Note_on_c, 1, 38, 127
3, 9960, Note_off_c, 1, 38, 0
3, 9960, Note_on_c, 1, 43, 127
3, 9984, Note_off_c, 1, 43, 0
3, 9984, Note_on_c, 1, 32, 127
3, 10032, Note_off_c, 1, 32, 0
3, 10032, Note_on_c, 1, 44, 127
3, 10080, Note_off_c, 1, 44, 0
3, 10080, Note_on_c, 1, 39, 127
3, 10104, Note_off_c, 1, 39, 0
3, 10104, Note_on_c, 1, 32, 127
3, 10128, Note_off_c, 1, 32, 0
3, 10128, Note_on_c, 1, 39, 127
3, 10152, Note_off_c, 1, 39, 0
3, 10152, Note_on_c, 1, 44, 127
3, 10176, Note_off_c, 1, 44, 0
3, 10176, Note_on_c, 1, 32, 127
3, 10224, Note_off_c, 1, 32, 0
3, 10224, Note_on_c, 1, 44, 127
3, 10272, Note_off_c, 1, 44, 0
3, 10272, Note_on_c, 1, 39, 127
3, 10296, Note_off_c, 1, 39, 0
3, 10296, Note_on_c, 1, 32, 127
3, 10320, Note_off_c, 1, 32, 0
3, 10320, Note_on_c, 1, 39, 127
3, 10344, Note_off_c, 1, 39, 0
3, 10344, Note_on_c, 1, 44, 127
3, 10368, Note_off_c, 1, 44, 0
3, 10368, Note_on_c, 1, 32, 127
3, 10416, Note_off_c, 1, 32, 0
3, 10416, Note_on_c, 1, 44, 127
3, 10464, Note_off_c, 1, 44, 0
3, 10464, Note_on_c, 1, 39, 127
3, 10488, Note_off_c, 1, 39, 0
3, 10488, Note_on_c, 1, 32, 127
3, 10512, Note_off_c, 1, 32, 0
3, 10512, Note_on_c, 1, 39, 127
3, 10536, Note_off_c, 1, 39, 0
3, 10536, Note_on_c, 1, 44, 127
3, 10560, Note_off_c, 1, 44, 0
3, 10560, Note_on_c, 1, 32, 127
3, 10608, Note_off_c, 1, 32, 0
3, 10608, Note_on_c, 1, 44, 127
3, 10656, Note_off_c, 1, 44, 0
3, 10656, Note_on_c, 1, 39, 127
3, 10680, Note_off_c, 1, 39, 0
3, 10680, Note_on_c, 1, 32, 127
3, 10704, Note_off_c, 1, 32, 0
3, 10704, Note_on_c, 1, 39, 127
3, 10728, Note_off_c, 1, 39, 0
3, 10728, Note_on_c, 1, 44, 127
3, 10752, Note_off_c, 1, 44, 0
3, 10752, Note_on_c, 1, 31, 127
3, 10800, Note_off_c, 1, 31, 0
3, 10800, Note_on_c, 1, 43, 127
3, 10848, Note_off_c, 1, 43, 0
3, 10848, Note_on_c, 1, 38, 127
3, 10872, Note_off_c, 1, 38, 0
3, 10872, Note_on_c, 1, 31, 127
3, 10896, Note_off_c, 1, 31, 0
3, 10896, Note_on_c, 1, 38, 127
3, 10920, Note_off_c, 1, 38, 0
3, 10920, Note_on_c, 1, 43, 127
3, 10944, Note_off_c, 1, 43, 0
3, 10944, Note_on_c, 1, 31, 127
3, 10992, Note_off_c, 1, 31, 0
3, 10992, Note_on_c, 1, 43, 127
3, 11040, Note_off_c, 1, 43, 0
3, 11040, Note_on_c, 1, 38, 127
3, 11064, Note_off_c, 1, 38, 0
3, 11064, Note_on_c, 1, 31, 127
3, 11088, Note_off_c, 1, 31, 0
3, 11088, Note_on_c, 1, 38, 127
3, 11112, Note_off_c, 1, 38, 0
3, 11112, Note_on_c, 1, 43, 127
3, 11136, Note_off_c, 1, 43, 0
3, 11136, Note_on_c, 1, 31, 127
3, 11184, Note_off_c, 1, 31, 0
3, 11184, Note_on_c, 1, 43, 127
3, 11232, Note_off_c, 1, 43, 0
3, 11232, Note_on_c, 1, 38, 127
3, 11256, Note_off_c, 1, 38, 0
3, 11256, Note_on_c, 1, 31, 127
3, 11280, Note_off_c, 1, 31, 0
3, 11280, Note_on_c, 1, 38, 127
3, 11304, Note_off_c, 1, 38, 0
3, 11304, Note_on_c, 1, 43, 127
3, 11328, Note_off_c, 1, 43, 0
3, 11328, Note_on_c, 1, 31, 127
3, 11376, Note_off_c, 1, 31, 0
3, 11376, Note_on_c, 1, 43, 127
3, 11424, Note_off_c, 1, 43, 0
3, 11424, Note_on_c, 1, 38, 127
3, 11448, Note_off_c, 1, 38, 0
3, 11448, Note_on_c, 1, 31, 127
3, 11472, Note_off_c, 1, 31, 0
3, 11472, Note_on_c, 1, 38, 127
3, 11496, Note_off_c, 1, 38, 0
3, 11496, Note_on_c, 1, 43, 127
3, 11520, Note_off_c, 1, 43, 0
3, 11520, Note_on_c, 1, 32, 127
3, 11568, Note_off_c, 1, 32, 0
3, 11568, Note_on_c, 1, 44, 127
3, 11616, Note_off_c, 1, 44, 0
3, 11616, Note_on_c, 1, 39, 127
3, 11640, Note_off_c, 1, 39, 0
3, 11640, Note_on_c, 1, 32, 127
3, 11664, Note_off_c, 1, 32, 0
3, 11664, Note_on_c, 1, 39, 127
3, 11688, Note_off_c, 1, 39, 0
3, 11688, Note_on_c, 1, 44, 127
3, 11712, Note_off_c, 1, 44, 0
3, 11712, Note_on_c, 1, 32, 127
3, 11760, Note_off_c, 1, 32, 0
3, 11760, Note_on_c, 1, 44, 127
3, 11808, Note_off_c, 1, 44, 0
3, 11808, Note_on_c, 1, 39, 127
3, 11832, Note_off_c, 1, 39, 0
3, 11832, Note_on_c, 1, 32, 127
3, 11856, Note_off_c, 1, 32, 0
3, 11856, Note_on_c, 1, 39, 127
3, 11880, Note_off_c, 1, 39, 0
3, 11880, Note_on_c, 1, 44, 127
3, 11904, Note_off_c, 1, 44, 0
3, 11904, Note_on_c, 1, 32, 127
3, 11952, Note_off_c, 1, 32, 0
3, 11952, Note_on_c, 1, 44, 127
3, 12000, Note_off_c, 1, 44, 0
3, 12000, Note_on_c, 1, 39, 127
3, 12024, Note_off_c, 1, 39, 0
3, 12024, Note_on_c, 1, 32, 127
3, 12048, Note_off_c, 1, 32, 0
3, 12048, Note_on_c, 1, 39, 127
3, 12072, Note_off_c, 1, 39, 0
3, 12072, Note_on_c, 1, 44, 127
3, 12096, Note_off_c, 1, 44, 0
3, 12096, Note_on_c, 1, 32, 127
3, 12144, Note_off_c, 1, 32, 0
3, 12144, Note_on_c, 1, 44, 127
3, 12192, Note_off_c, 1, 44, 0
3, 12192, Note_on_c, 1, 39, 127
3, 12216, Note_off_c, 1, 39, 0
3, 12216, Note_on_c, 1, 32, 127
3, 12240, Note_off_c, 1, 32, 0
3, 12240, Note_on_c, 1, 39, 127
3, 12264, Note_off_c, 1, 39, 0
3, 12264, Note_on_c, 1, 44, 127
3, 12288, Note_off_c, 1, 44, 0
3, 12288, Note_on_c, 1, 31, 127
3, 12336, Note_off_c, 1, 31, 0
3, 12336, Note_on_c, 1, 43, 127
3, 12384, Note_off_c, 1, 43, 0
3, 12384, Note_on_c, 1, 38, 127
3, 12408, Note_off_c, 1, 38, 0
3, 12408, Note_on_c, 1, 31, 127
3, 12432, Note_off_c, 1, 31, 0
3, 12432, Note_on_c, 1, 38, 127
3, 12456, Note_off_c, 1, 38, 0
3, 12456, Note_on_c, 1, 43, 127
3, 12480, Note_off_c, 1, 43, 0
3, 12480, Note_on_c, 1, 31, 127
3, 12528, Note_off_c, 1, 31, 0
3, 12528, Note_on_c, 1, 43, 127
3, 12576, Note_off_c, 1, 43, 0
3, 12576, Note_on_c, 1, 38, 127
3, 12600, Note_off_c, 1, 38, 0
3, 12600, Note_on_c, 1, 31, 127
3, 12624, Note_off_c, 1, 31, 0
3, 12624, Note_on_c, 1, 38, 127
3, 12648, Note_off_c, 1, 38, 0
3, 12648, Note_on_c, 1, 43, 127
3, 12672, Note_off_c, 1, 43, 0
3, 12672, Note_on_c, 1, 31, 127
3, 12720, Note_off_c, 1, 31, 0
3, 12720, Note_on_c, 1, 43, 127
3, 12768, Note_off_c, 1, 43, 0
3, 12768, Note_on_c, 1, 38, 127
3, 12792, Note_off_c, 1, 38, 0
3, 12792, Note_on_c, 1, 31, 127
3, 12816, Note_off_c, 1, 31, 0
3, 12816, Note_on_c, 1, 38, 127
3, 12840, Note_off_c, 1, 38, 0
3, 12840, Note_on_c, 1, 43, 127
3, 12864, Note_off_c, 1, 43, 0
3, 12864, Note_on_c, 1, 31, 127
3, 12912, Note_off_c, 1, 31, 0
3, 12912, Note_on_c, 1, 43, 127
3, 12960, Note_off_c, 1, 43, 0
3, 12960, Note_on_c, 1, 38, 127
3, 12984, Note_off_c, 1, 38, 0
3, 12984, Note_on_c, 1, 31, 127
3, 13008, Note_off_c, 1, 31, 0
3, 13008, Note_on_c, 1, 38, 127
3, 13032, Note_off_c, 1, 38, 0
3, 13032, Note_on_c, 1, 43, 127
3, 13056, Note_off_c, 1, 43, 0
3, 13056, Note_on_c, 1, 36, 127
3, 13104, Note_off_c, 1, 36, 0
3, 13104, Note_on_c, 1, 48, 127
3, 13152, Note_off_c, 1, 48, 0
3, 13152, Note_on_c, 1, 43, 127
3, 13176, Note_off_c, 1, 43, 0
3, 13176, Note_on_c, 1, 36, 127
3, 13200, Note_off_c, 1, 36, 0
3, 13200, Note_on_c, 1, 43, 127
3, 13224, Note_off_c, 1, 43, 0
3, 13224, Note_on_c, 1, 48, 127
3, 13248, Note_off_c, 1, 48, 0
3, 13248, Note_on_c, 1, 36, 127
3, 13296, Note_off_c, 1, 36, 0
3, 13296, Note_on_c, 1, 48, 127
3, 13344, Note_off_c, 1, 48, 0
3, 13344, Note_on_c, 1, 43, 127
3, 13368, Note_off_c, 1, 43, 0
3, 13368, Note_on_c, 1, 36, 127
3, 13392, Note_off_c, 1, 36, 0
3, 13392, Note_on_c, 1, 43, 127
3, 13416, Note_off_c, 1, 43, 0
3, 13416, Note_on_c, 1, 48, 127
3, 13440, Note_off_c, 1, 48, 0
3, 13440, Note_on_c, 1, 36, 127
3, 13488, Note_off_c, 1, 36, 0
3, 13488, Note_on_c, 1, 48, 127
3, 13536, Note_off_c, 1, 48, 0
3, 13536, Note_on_c, 1, 43, 127
3, 13560, Note_off_c, 1, 43, 0
3, 13560, Note_on_c, 1, 36, 127
3, 13584, Note_off_c, 1, 36, 0
3, 13584, Note_on_c, 1, 43, 127
3, 13608, Note_off_c, 1, 43, 0
3, 13608, Note_on_c, 1, 48, 127
3, 13632, Note_off_c, 1, 48, 0
3, 13632, Note_on_c, 1, 34, 127
3, 13680, Note_off_c, 1, 34, 0
3, 13680, Note_on_c, 1, 46, 127
3, 13728, Note_off_c, 1, 46, 0
3, 13728, Note_on_c, 1, 41, 127
3, 13752, Note_off_c, 1, 41, 0
3, 13752, Note_on_c, 1, 34, 127
3, 13776, Note_off_c, 1, 34, 0
3, 13776, Note_on_c, 1, 41, 127
3, 13800, Note_off_c, 1, 41, 0
3, 13800, Note_on_c, 1, 46, 127
3, 13824, Note_off_c, 1, 46, 0
3, 13824, Note_on_c, 1, 32, 127
3, 13872, Note_off_c, 1, 32, 0
3, 13872, Note_on_c, 1, 44, 127
3, 13920, Note_off_c, 1, 44, 0
3, 13920, Note_on_c, 1, 39, 127
3, 13944, Note_off_c, 1, 39, 0
3, 13944, Note_on_c, 1, 32, 127
3, 13968, Note_off_c, 1, 32, 0
3, 13968, Note_on_c, 1, 39, 127
3, 13992, Note_off_c, 1, 39, 0
3, 13992, Note_on_c, 1, 44, 127
3, 14016, Note_off_c, 1, 44, 0
3, 14016, Note_on_c, 1, 32, 127
3, 14064, Note_off_c, 1, 32, 0
3, 14064, Note_on_c, 1, 44, 127
3, 14112, Note_off_c, 1, 44, 0
3, 14112, Note_on_c, 1, 39, 127
3, 14136, Note_off_c, 1, 39, 0
3, 14136, Note_on_c, 1, 32, 127
3, 14160, Note_off_c, 1, 32, 0
3, 14160, Note_on_c, 1, 39, 127
3, 14184, Note_off_c, 1, 39, 0
3, 14184, Note_on_c, 1, 44, 127
3, 14208, Note_off_c, 1, 44, 0
3, 14208, Note_on_c, 1, 32, 127
3, 14256, Note_off_c, 1, 32, 0
3, 14256, Note_on_c, 1, 44, 127
3, 14304, Note_off_c, 1, 44, 0
3, 14304, Note_on_c, 1, 39, 127
3, 14328, Note_off_c, 1, 39, 0
3, 14328, Note_on_c, 1, 32, 127
3, 14352, Note_off_c, 1, 32, 0
3, 14352, Note_on_c, 1, 39, 127
3, 14376, Note_off_c, 1, 39, 0
3, 14376, Note_on_c, 1, 44, 127
3, 14400, Note_off_c, 1, 44, 0
3, 14400, Note_on_c, 1, 34, 127
3, 14448, Note_off_c, 1, 34, 0
3, 14448, Note_on_c, 1, 46, 127
3, 14496, Note_off_c, 1, 46, 0
3, 14496, Note_on_c, 1, 41, 127
3, 14520, Note_off_c, 1, 41, 0
3, 14520, Note_on_c, 1, 34, 127
3, 14544, Note_off_c, 1, 34, 0
3, 14544, Note_on_c, 1, 41, 127
3, 14568, Note_off_c, 1, 41, 0
3, 14568, Note_on_c, 1, 46, 127
3, 14592, Note_off_c, 1, 46, 0
3, 14592, Note_on_c, 1, 36, 127
3, 14640, Note_off_c, 1, 36, 0
3, 14640, Note_on_c, 1, 48, 127
3, 14688, Note_off_c, 1, 48, 0
3, 14688, Note_on_c, 1, 43, 127
3, 14712, Note_off_c, 1, 43, 0
3, 14712, Note_on_c, 1, 36, 127
3, 14736, Note_off_c, 1, 36, 0
3, 14736, Note_on_c, 1, 43, 127
3, 14760, Note_off_c, 1, 43, 0
3, 14760, Note_on_c, 1, 48, 127
3, 14784, Note_off_c, 1, 48, 0
3, 14784, Note_on_c, 1, 36, 127
3, 14832, Note_off_c, 1, 36, 0
3, 14832, Note_on_c, 1, 48, 127
3, 14880, Note_off_c, 1, 48, 0
3, 14880, Note_on_c, 1, 43, 127
3, 14904, Note_off_c, 1, 43, 0
3, 14904, Note_on_c, 1, 36, 127
3, 14928, Note_off_c, 1, 36, 0
3, 14928, Note_on_c, 1, 43, 127
3, 14952, Note_off_c, 1, 43, 0
3, 14952, Note_on_c, 1, 48, 127
3, 14976, Note_off_c, 1, 48, 0
3, 14976, Note_on_c, 1, 36, 127
3, 15024, Note_off_c, 1, 36, 0
3, 15024, Note_on_c, 1, 48, 127
3, 15072, Note_off_c, 1, 48, 0
3, 15072, Note_on_c, 1, 43, 127
3, 15096, Note_off_c, 1, 43, 0
3, 15096, Note_on_c, 1, 36, 127
3, 15120, Note_off_c, 1, 36, 0
3, 15120, Note_on_c, 1, 43, 127
3, 15144, Note_off_c, 1, 43, 0
3, 15144, Note_on_c, 1, 48, 127
3, 15168, Note_off_c, 1, 48, 0
3, 15168, Note_on_c, 1, 34, 127
3, 15216, Note_off_c, 1, 34, 0
3, 15216, Note_on_c, 1, 46, 127
3, 15264, Note_off_c, 1, 46, 0
3, 15264, Note_on_c, 1, 41, 127
3, 15288, Note_off_c, 1, 41, 0
3, 15288, Note_on_c, 1, 34, 127
3, 15312, Note_off_c, 1, 34, 0
3, 15312, Note_on_c, 1, 41, 127
3, 15336, Note_off_c, 1, 41, 0
3, 15336, Note_on_c, 1, 46, 127
3, 15360, Note_off_c, 1, 46, 0
3, 15360, Note_on_c, 1, 32, 127
3, 15408, Note_off_c, 1, 32, 0
3, 15408, Note_on_c, 1, 44, 127
3, 15456, Note_off_c, 1, 44, 0
3, 15456, Note_on_c, 1, 39, 127
3, 15480, Note_off_c, 1, 39, 0
3, 15480, Note_on_c, 1, 32, 127
3, 15504, Note_off_c, 1, 32, 0
3, 15504, Note_on_c, 1, 39, 127
3, 15528, Note_off_c, 1, 39, 0
3, 15528, Note_on_c, 1, 44, 127
3, 15552, Note_off_c, 1, 44, 0
3, 15552, Note_on_c, 1, 32, 127
3, 15600, Note_off_c, 1, 32, 0
3, 15600, Note_on_c, 1, 44, 127
3, 15648, Note_off_c, 1, 44, 0
3, 15648, Note_on_c, 1, 39, 127
3, 15672, Note_off_c, 1, 39, 0
3, 15672, Note_on_c, 1, 32, 127
3, 15696, Note_off_c, 1, 32, 0
3, 15696, Note_on_c, 1, 39, 127
3, 15720, Note_off_c, 1, 39, 0
3, 15720, Note_on_c, 1, 44, 127
3, 15744, Note_off_c, 1, 44, 0
3, 15744, Note_on_c, 1, 32, 127
3, 15792, Note_off_c, 1, 32, 0
3, 15792, Note_on_c, 1, 44, 127
3, 15840, Note_off_c, 1, 44, 0
3, 15840, Note_on_c, 1, 39, 127
3, 15864, Note_off_c, 1, 39, 0
3, 15864, Note_on_c, 1, 32, 127
3, 15888, Note_off_c, 1, 32, 0
3, 15888, Note_on_c, 1, 39, 127
3, 15912, Note_off_c, 1, 39, 0
3, 15912, Note_on_c, 1, 44, 127
3, 15936, Note_off_c, 1, 44, 0
3, 15936, Note_on_c, 1, 34, 127
3, 15984, Note_off_c, 1, 34, 0
3, 15984, Note_on_c, 1, 46, 127
3, 16032, Note_off_c, 1, 46, 0
3, 16032, Note_on_c, 1, 41, 127
3, 16056, Note_off_c, 1, 41, 0
3, 16056, Note_on_c, 1, 34, 127
3, 16080, Note_off_c, 1, 34, 0
3, 16080, Note_on_c, 1, 41, 127
3, 16104, Note_off_c, 1, 41, 0
3, 16104, Note_on_c, 1, 46, 127
3, 16128, Note_off_c, 1, 46, 0
3, 16128, Note_on_c, 1, 36, 127
3, 16176, Note_off_c, 1, 36, 0
3, 16176, Note_on_c, 1, 48, 127
3, 16224, Note_off_c, 1, 48, 0
3, 16224, Note_on_c, 1, 43, 127
3, 16248, Note_off_c, 1, 43, 0
3, 16248, Note_on_c, 1, 36, 127
3, 16272, Note_off_c, 1, 36, 0
3, 16272, Note_on_c, 1, 43, 127
3, 16296, Note_off_c, 1, 43, 0
3, 16296, Note_on_c, 1, 48, 127
3, 16320, Note_off_c, 1, 48, 0
3, 16320, Note_on_c, 1, 36, 127
3, 16368, Note_off_c, 1, 36, 0
3, 16368, Note_on_c, 1, 48, 127
3, 16416, Note_off_c, 1, 48, 0
3, 16416, Note_on_c, 1, 43, 127
3, 16440, Note_off_c, 1, 43, 0
3, 16440, Note_on_c, 1, 36, 127
3, 16464, Note_off_c, 1, 36, 0
3, 16464, Note_on_c, 1, 43, 127
3, 16488, Note_off_c, 1, 43, 0
3, 16488, Note_on_c, 1, 48, 127
3, 16512, Note_off_c, 1, 48, 0
3, 16512, Note_on_c, 1, 36, 127
3, 16560, Note_off_c, 1, 36, 0
3, 16560, Note_on_c, 1, 48, 127
3, 16608, Note_off_c, 1, 48, 0
3, 16608, Note_on_c, 1, 43, 127
3, 16632, Note_off_c, 1, 43, 0
3, 16632, Note_on_c, 1, 36, 127
3, 16656, Note_off_c, 1, 36, 0
3, 16656, Note_on_c, 1, 43, 127
3, 16680, Note_off_c, 1, 43, 0
3, 16680, Note_on_c, 1, 48, 127
3, 16704, Note_off_c, 1, 48, 0
3, 16704, Note_on_c, 1, 34, 127
3, 16752, Note_off_c, 1, 34, 0
3, 16752, Note_on_c, 1, 46, 127
3, 16800, Note_off_c, 1, 46, 0
3, 16800, Note_on_c, 1, 41, 127
3, 16824, Note_off_c, 1, 41, 0
3, 16824, Note_on_c, 1, 34, 127
3, 16848, Note_off_c, 1, 34, 0
3, 16848, Note_on_c, 1, 41, 127
3, 16872, Note_off_c, 1, 41, 0
3, 16872, Note_on_c, 1, 46, 127
3, 16896, Note_off_c, 1, 46, 0
3, 16896, Note_on_c, 1, 32, 127
3, 16944, Note_off_c, 1, 32, 0
3, 16944, Note_on_c, 1, 44, 127
3, 16992, Note_off_c, 1, 44, 0
3, 16992, Note_on_c, 1, 39, 127
3, 17016, Note_off_c, 1, 39, 0
3, 17016, Note_on_c, 1, 32, 127
3, 17040, Note_off_c, 1, 32, 0
3, 17040, Note_on_c, 1, 39, 127
3, 17064, Note_off_c, 1, 39, 0
3, 17064, Note_on_c, 1, 44, 127
3, 17088, Note_off_c, 1, 44, 0
3, 17088, Note_on_c, 1, 32, 127
3, 17136, Note_off_c, 1, 32, 0
3, 17136, Note_on_c, 1, 44, 127
3, 17184, Note_off_c, 1, 44, 0
3, 17184, Note_on_c, 1, 39, 127
3, 17208, Note_off_c, 1, 39, 0
3, 17208, Note_on_c, 1, 32, 127
3, 17232, Note_off_c, 1, 32, 0
3, 17232, Note_on_c, 1, 39, 127
3, 17256, Note_off_c, 1, 39, 0
3, 17256, Note_on_c, 1, 44, 127
3, 17280, Note_off_c, 1, 44, 0
3, 17280, Note_on_c, 1, 32, 127
3, 17328, Note_off_c, 1, 32, 0
3, 17328, Note_on_c, 1, 44, 127
3, 17376, Note_off_c, 1, 44, 0
3, 17376, Note_on_c, 1, 39, 127
3, 17400, Note_off_c, 1, 39, 0
3, 17400, Note_on_c, 1, 32, 127
3, 17424, Note_off_c, 1, 32, 0
3, 17424, Note_on_c, 1, 39, 127
3, 17448, Note_off_c, 1, 39, 0
3, 17448, Note_on_c, 1, 44, 127
3, 17472, Note_off_c, 1, 44, 0
3, 17472, Note_on_c, 1, 34, 127
3, 17520, Note_off_c, 1, 34, 0
3, 17520, Note_on_c, 1, 46, 127
3, 17568, Note_off_c, 1, 46, 0
3, 17568, Note_on_c, 1, 41, 127
3, 17592, Note_off_c, 1, 41, 0
3, 17592, Note_on_c, 1, 34, 127
3, 17616, Note_off_c, 1, 34, 0
3, 17616, Note_on_c, 1, 41, 127
3, 17640, Note_off_c, 1, 41, 0
3, 17640, Note_on_c, 1, 46, 127
3, 17664, Note_off_c, 1, 46, 0
3, 17664, Note_on_c, 1, 36, 127
3, 17712, Note_off_c, 1, 36, 0
3, 17712, Note_on_c, 1, 48, 127
3, 17760, Note_off_c, 1, 48, 0
3, 17760, Note_on_c, 1, 43, 127
3, 17784, Note_off_c, 1, 43, 0
3, 17784, Note_on_c, 1, 36, 127
3, 17808, Note_off_c, 1, 36, 0
3, 17808, Note_on_c, 1, 43, 127
3, 17832, Note_off_c, 1, 43, 0
3, 17832, Note_on_c, 1, 48, 127
3, 17856, Note_off_c, 1, 48, 0
3, 17856, Note_on_c, 1, 36, 127
3, 17904, Note_off_c, 1, 36, 0
3, 17904, Note_on_c, 1, 48, 127
3, 17952, Note_off_c, 1, 48, 0
3, 17952, Note_on_c, 1, 43, 127
3, 17976, Note_off_c, 1, 43, 0
3, 17976, Note_on_c, 1, 36, 127
3, 18000, Note_off_c, 1, 36, 0
3, 18000, Note_on_c, 1, 43, 127
3, 18024, Note_off_c, 1, 43, 0
3, 18024, Note_on_c, 1, 48, 127
3, 18048, Note_off_c, 1, 48, 0
3, 18048, Note_on_c, 1, 36, 127
3, 18096, Note_off_c, 1, 36, 0
3, 18096, Note_on_c, 1, 48, 127
3, 18144, Note_off_c, 1, 48, 0
3, 18144, Note_on_c, 1, 43, 127
3, 18168, Note_off_c, 1, 43, 0
3, 18168, Note_on_c, 1, 36, 127
3, 18192, Note_off_c, 1, 36, 0
3, 18192, Note_on_c, 1, 43, 127
3, 18216, Note_off_c, 1, 43, 0
3, 18216, Note_on_c, 1, 48, 127
3, 18240, Note_off_c, 1, 48, 0
3, 18240, Note_on_c, 1, 34, 127
3, 18288, Note_off_c, 1, 34, 0
3, 18288, Note_on_c, 1, 46, 127
3, 18336, Note_off_c, 1, 46, 0
3, 18336, Note_on_c, 1, 41, 127
3, 18360, Note_off_c, 1, 41, 0
3, 18360, Note_on_c, 1, 34, 127
3, 18384, Note_off_c, 1, 34, 0
3, 18384, Note_on_c, 1, 41, 127
3, 18408, Note_off_c, 1, 41, 0
3, 18408, Note_on_c, 1, 46, 127
3, 18432, Note_off_c, 1, 46, 0
3, 18432, Note_on_c, 1, 32, 127
3, 18480, Note_off_c, 1, 32, 0
3, 18480, Note_on_c, 1, 44, 127
3, 18528, Note_off_c, 1, 44, 0
3, 18528, Note_on_c, 1, 39, 127
3, 18552, Note_off_c, 1, 39, 0
3, 18552, Note_on_c, 1, 32, 127
3, 18576, Note_off_c, 1, 32, 0
3, 18576, Note_on_c, 1, 39, 127
3, 18600, Note_off_c, 1, 39, 0
3, 18600, Note_on_c, 1, 44, 127
3, 18624, Note_off_c, 1, 44, 0
3, 18624, Note_on_c, 1, 32, 127
3, 18672, Note_off_c, 1, 32, 0
3, 18672, Note_on_c, 1, 44, 127
3, 18720, Note_off_c, 1, 44, 0
3, 18720, Note_on_c, 1, 39, 127
3, 18744, Note_off_c, 1, 39, 0
3, 18744, Note_on_c, 1, 32, 127
3, 18768, Note_off_c, 1, 32, 0
3, 18768, Note_on_c, 1, 39, 127
3, 18792, Note_off_c, 1, 39, 0
3, 18792, Note_on_c, 1, 44, 127
3, 18816, Note_off_c, 1, 44, 0
3, 18816, Note_on_c, 1, 32, 127
3, 18864, Note_off_c, 1, 32, 0
3, 18864, Note_on_c, 1, 44, 127
3, 18912, Note_off_c, 1, 44, 0
3, 18912, Note_on_c, 1, 39, 127
3, 18936, Note_off_c, 1, 39, 0
3, 18936, Note_on_c, 1, 32, 127
3, 18960, Note_off_c, 1, 32, 0
3, 18960, Note_on_c, 1, 39, 127
3, 18984, Note_off_c, 1, 39, 0
3, 18984, Note_on_c, 1, 44, 127
3, 19008, Note_off_c, 1, 44, 0
3, 19008, Note_on_c, 1, 34, 127
3, 19056, Note_off_c, 1, 34, 0
3, 19056, Note_on_c, 1, 46, 127
3, 19104, Note_off_c, 1, 46, 0
3, 19104, Note_on_c, 1, 41, 127
3, 19128, Note_off_c, 1, 41, 0
3, 19128, Note_on_c, 1, 34, 127
3, 19152, Note_off_c, 1, 34, 0
3, 19152, Note_on_c, 1, 41, 127
3, 19176, Note_off_c, 1, 41, 0
3, 19176, Note_on_c, 1, 46, 127
3, 19200, Note_off_c, 1, 46, 0
3, 22272, Note_on_c, 1, 36, 127
3, 22320, Note_off_c, 1, 36, 0
3, 22320, Note_on_c, 1, 48, 127
3, 22368, Note_off_c, 1, 48, 0
3, 22368, Note_on_c, 1, 43, 127
3, 22392, Note_off_c, 1, 43, 0
3, 22392, Note_on_c, 1, 36, 127
3, 22416, Note_off_c, 1, 36, 0
3, 22416, Note_on_c, 1, 43, 127
3, 22440, Note_off_c, 1, 43, 0
3, 22440, Note_on_c, 1, 48, 127
3, 22464, Note_off_c, 1, 48, 0
3, 22464, Note_on_c, 1, 36, 127
3, 22512, Note_off_c, 1, 36, 0
3, 22512, Note_on_c, 1, 48, 127
3, 22560, Note_off_c, 1, 48, 0
3, 22560, Note_on_c, 1, 43, 127
3, 22584, Note_off_c, 1, 43, 0
3, 22584, Note_on_c, 1, 36, 127
3, 22608, Note_off_c, 1, 36, 0
3, 22608, Note_on_c, 1, 43, 127
3, 22632, Note_off_c, 1, 43, 0
3, 22632, Note_on_c, 1, 48, 127
3, 22656, Note_off_c, 1, 48, 0
3, 22656, Note_on_c, 1, 35, 127
3, 22704, Note_off_c, 1, 35, 0
3, 22704, Note_on_c, 1, 47, 127
3, 22752, Note_off_c, 1, 47, 0
3, 22752, Note_on_c, 1, 43, 127
3, 22776, Note_off_c, 1, 43, 0
3, 22776, Note_on_c, 1, 35, 127
3, 22800, Note_off_c, 1, 35, 0
3, 22800, Note_on_c, 1, 43, 127
3, 22824, Note_off_c, 1, 43, 0
3, 22824, Note_on_c, 1, 47, 127
3, 22848, Note_off_c, 1, 47, 0
3, 22848, Note_on_c, 1, 35, 127
3, 22896, Note_off_c, 1, 35, 0
3, 22896, Note_on_c, 1, 47, 127
3, 22944, Note_off_c, 1, 47, 0
3, 22944, Note_on_c, 1, 43, 127
3, 22968, Note_off_c, 1, 43, 0
3, 22968, Note_on_c, 1, 35, 127
3, 22992, Note_off_c, 1, 35, 0
3, 22992, Note_on_c, 1, 43, 127
3, 23016, Note_off_c, 1, 43, 0
3, 23016, Note_on_c, 1, 47, 127
3, 23040, Note_off_c, 1, 47, 0
3, 23040, Note_on_c, 1, 32, 127
3, 23088, Note_off_c, 1, 32, 0
3, 23088, Note_on_c, 1, 44, 127
3, 23136, Note_off_c, 1, 44, 0
3, 23136, Note_on_c, 1, 39, 127
3, 23160, Note_off_c, 1, 39, 0
3, 23160, Note_on_c, 1, 32, 127
3, 23184, Note_off_c, 1, 32, 0
3, 23184, Note_on_c, 1, 39, 127
3, 23208, Note_off_c, 1, 39, 0
3, 23208, Note_on_c, 1, 44, 127
3, 23232, Note_off_c, 1, 44, 0
3, 23232, Note_on_c, 1, 32, 127
3, 23280, Note_off_c, 1, 32, 0
3, 23280, Note_on_c, 1, 44, 127
3, 23328, Note_off_c, 1, 44, 0
3, 23328, Note_on_c, 1, 39, 127
3, 23352, Note_off_c, 1, 39, 0
3, 23352, Note_on_c, 1, 32, 127
3, 23376, Note_off_c, 1, 32, 0
3, 23376, Note_on_c, 1, 39, 127
3, 23400, Note_off_c, 1, 39, 0
3, 23400, Note_on_c, 1, 44, 127
3, 23424, Note_off_c, 1, 44, 0
3, 23424, Note_on_c, 1, 31, 127
3, 23472, Note_off_c, 1, 31, 0
3, 23472, Note_on_c, 1, 43, 127
3, 23520, Note_off_c, 1, 43, 0
3, 23520, Note_on_c, 1, 38, 127
3, 23544, Note_off_c, 1, 38, 0
3, 23544, Note_on_c, 1, 31, 127
3, 23568, Note_off_c, 1, 31, 0
3, 23568, Note_on_c, 1, 38, 127
3, 23592, Note_off_c, 1, 38, 0
3, 23592, Note_on_c, 1, 43, 127
3, 23616, Note_off_c, 1, 43, 0
3, 23616, Note_on_c, 1, 31, 127
3, 23664, Note_off_c, 1, 31, 0
3, 23664, Note_on_c, 1, 43, 127
3, 23712, Note_off_c, 1, 43, 0
3, 23712, Note_on_c, 1, 38, 127
3, 23736, Note_off_c, 1, 38, 0
3, 23736, Note_on_c, 1, 31, 127
3, 23760, Note_off_c, 1, 31, 0
3, 23760, Note_on_c, 1, 38, 127
3, 23784, Note_off_c, 1, 38, 0
3, 23784, Note_on_c, 1, 43, 127
3, 23808, Note_off_c, 1, 43, 0
3, 23808, Note_on_c, 1, 36, 127
3, 23856, Note_off_c, 1, 36, 0
3, 23856, Note_on_c, 1, 48, 127
3, 23904, Note_off_c, 1, 48, 0
3, 23904, Note_on_c, 1, 43, 127
3, 23928, Note_off_c, 1, 43, 0
3, 23928, Note_on_c, 1, 36, 127
3, 23952, Note_off_c, 1, 36, 0
3, 23952, Note_on_c, 1, 43, 127
3, 23976, Note_off_c, 1, 43, 0
3, 23976, Note_on_c, 1, 48, 127
3, 24000, Note_off_c, 1, 48, 0
3, 24000, Note_on_c, 1, 36, 127
3, 24048, Note_off_c, 1, 36, 0
3, 24048, Note_on_c, 1, 48, 127
3, 24096, Note_off_c, 1, 48, 0
3, 24096, Note_on_c, 1, 43, 127
3, 24120, Note_off_c, 1, 43, 0
3, 24120, Note_on_c, 1, 36, 127
3, 24144, Note_off_c, 1, 36, 0
3, 24144, Note_on_c, 1, 43, 127
3, 24168, Note_off_c, 1, 43, 0
3, 24168, Note_on_c, 1, 48, 127
3, 24192, Note_off_c, 1, 48, 0
3, 24192, Note_on_c, 1, 35, 127
3, 24240, Note_off_c, 1, 35, 0
3, 24240, Note_on_c, 1, 47, 127
3, 24288, Note_off_c, 1, 47, 0
3, 24288, Note_on_c, 1, 43, 127
3, 24312, Note_off_c, 1, 43, 0
3, 24312, Note_on_c, 1, 35, 127
3, 24336, Note_off_c, 1, 35, 0
3, 24336, Note_on_c, 1, 43, 127
3, 24360, Note_off_c, 1, 43, 0
3, 24360, Note_on_c, 1, 47, 127
3, 24384, Note_off_c, 1, 47, 0
3, 24384, Note_on_c, 1, 35, 127
3, 24432, Note_off_c, 1, 35, 0
3, 24432, Note_on_c, 1, 47, 127
3, 24480, Note_off_c, 1, 47, 0
3, 24480, Note_on_c, 1, 43, 127
3, 24504, Note_off_c, 1, 43, 0
3, 24504, Note_on_c, 1, 35, 127
3, 24528, Note_off_c, 1, 35, 0
3, 24528, Note_on_c, 1, 43, 127
3, 24552, Note_off_c, 1, 43, 0
3, 24552, Note_on_c, 1, 47, 127
3, 24576, Note_off_c, 1, 47, 0
3, 24576, Note_on_c, 1, 32, 127
3, 24624, Note_off_c, 1, 32, 0
3, 24624, Note_on_c, 1, 44, 127
3, 24672, Note_off_c, 1, 44, 0
3, 24672, Note_on_c, 1, 39, 127
3, 24696, Note_off_c, 1, 39, 0
3, 24696, Note_on_c, 1, 32, 127
3, 24720, Note_off_c, 1, 32, 0
3, 24720, Note_on_c, 1, 39, 127
3, 24744, Note_off_c, 1, 39, 0
3, 24744, Note_on_c, 1, 44, 127
3, 24768, Note_off_c, 1, 44, 0
3, 24768, Note_on_c, 1, 32, 127
3, 24816, Note_off_c, 1, 32, 0
3, 24816, Note_on_c, 1, 44, 127
3, 24864, Note_off_c, 1, 44, 0
3, 24864, Note_on_c, 1, 39, 127
3, 24888, Note_off_c, 1, 39, 0
3, 24888, Note_on_c, 1, 32, 127
3, 24912, Note_off_c, 1, 32, 0
3, 24912, Note_on_c, 1, 39, 127
3, 24936, Note_off_c, 1, 39, 0
3, 24936, Note_on_c, 1, 44, 127
3, 24960, Note_off_c, 1, 44, 0
3, 24960, Note_on_c, 1, 31, 127
3, 25008, Note_off_c, 1, 31, 0
3, 25008, Note_on_c, 1, 43, 127
3, 25056, Note_off_c, 1, 43, 0
3, 25056, Note_on_c, 1, 38, 127
3, 25080, Note_off_c, 1, 38, 0
3, 25080, Note_on_c, 1, 31, 127
3, 25104, Note_off_c, 1, 31, 0
3, 25104, Note_on_c, 1, 38, 127
3, 25128, Note_off_c, 1, 38, 0
3, 25128, Note_on_c, 1, 43, 127
3, 25152, Note_off_c, 1, 43, 0
3, 25152, Note_on_c, 1, 31, 127
3, 25200, Note_off_c, 1, 31, 0
3, 25200, Note_on_c, 1, 43, 127
3, 25248, Note_off_c, 1, 43, 0
3, 25248, Note_on_c, 1, 38, 127
3, 25272, Note_off_c, 1, 38, 0
3, 25272, Note_on_c, 1, 31, 127
3, 25296, Note_off_c, 1, 31, 0
3, 25296, Note_on_c, 1, 38, 127
3, 25320, Note_off_c, 1, 38, 0
3, 25320, Note_on_c, 1, 43, 127
3, 25344, Note_off_c, 1, 43, 0
3, 25344, Note_on_c, 1, 32, 127
3, 25392, Note_off_c, 1, 32, 0
3, 25392, Note_on_c, 1, 44, 127
3, 25440, Note_off_c, 1, 44, 0
3, 25440, Note_on_c, 1, 39, 127
3, 25464, Note_off_c, 1, 39, 0
3, 25464, Note_on_c, 1, 32, 127
3, 25488, Note_off_c, 1, 32, 0
3, 25488, Note_on_c, 1, 39, 127
3, 25512, Note_off_c, 1, 39, 0
3, 25512, Note_on_c, 1, 44, 127
3, 25536, Note_off_c, 1, 44, 0
3, 25536, Note_on_c, 1, 32, 127
3, 25584, Note_off_c, 1, 32, 0
3, 25584, Note_on_c, 1, 44, 127
3, 25632, Note_off_c, 1, 44, 0
3, 25632, Note_on_c, 1, 39, 127
3, 25656, Note_off_c, 1, 39, 0
3, 25656, Note_on_c, 1, 32, 127
3, 25680, Note_off_c, 1, 32, 0
3, 25680, Note_on_c, 1, 39, 127
3, 25704, Note_off_c, 1, 39, 0
3, 25704, Note_on_c, 1, 44, 127
3, 25728, Note_off_c, 1, 44, 0
3, 25728, Note_on_c, 1, 32, 127
3, 25776, Note_off_c, 1, 32, 0
3, 25776, Note_on_c, 1, 44, 127
3, 25824, Note_off_c, 1, 44, 0
3, 25824, Note_on_c, 1, 39, 127
3, 25848, Note_off_c, 1, 39, 0
3, 25848, Note_on_c, 1, 32, 127
3, 25872, Note_off_c, 1, 32, 0
3, 25872, Note_on_c, 1, 39, 127
3, 25896, Note_off_c, 1, 39, 0
3, 25896, Note_on_c, 1, 44, 127
3, 25920, Note_off_c, 1, 44, 0
3, 25920, Note_on_c, 1, 32, 127
3, 25968, Note_off_c, 1, 32, 0
3, 25968, Note_on_c, 1, 44, 127
3, 26016, Note_off_c, 1, 44, 0
3, 26016, Note_on_c, 1, 39, 127
3, 26040, Note_off_c, 1, 39, 0
3, 26040, Note_on_c, 1, 32, 127
3, 26064, Note_off_c, 1, 32, 0
3, 26064, Note_on_c, 1, 39, 127
3, 26088, Note_off_c, 1, 39, 0
3, 26088, Note_on_c, 1, 44, 127
3, 26112, Note_off_c, 1, 44, 0
3, 26112, Note_on_c, 1, 31, 127
3, 26160, Note_off_c, 1, 31, 0
3, 26160, Note_on_c, 1, 43, 127
3, 26208, Note_off_c, 1, 43, 0
3, 26208, Note_on_c, 1, 38, 127
3, 26232, Note_off_c, 1, 38, 0
3, 26232, Note_on_c, 1, 31, 127
3, 26256, Note_off_c, 1, 31, 0
3, 26256, Note_on_c, 1, 38, 127
3, 26280, Note_off_c, 1, 38, 0
3, 26280, Note_on_c, 1, 43, 127
3, 26304, Note_off_c, 1, 43, 0
3, 26304, Note_on_c, 1, 31, 127
3, 26352, Note_off_c, 1, 31, 0
3, 26352, Note_on_c, 1, 43, 127
3, 26400, Note_off_c, 1, 43, 0
3, 26400, Note_on_c, 1, 38, 127
3, 26424, Note_off_c, 1, 38, 0
3, 26424, Note_on_c, 1, 31, 127
3, 26448, Note_off_c, 1, 31, 0
3, 26448, Note_on_c, 1, 38, 127
3, 26472, Note_off_c, 1, 38, 0
3, 26472, Note_on_c, 1, 43, 127
3, 26496, Note_off_c, 1, 43, 0
3, 26496, Note_on_c, 1, 31, 127
3, 26544, Note_off_c, 1, 31, 0
3, 26544, Note_on_c, 1, 43, 127
3, 26592, Note_off_c, 1, 43, 0
3, 26592, Note_on_c, 1, 38, 127
3, 26616, Note_off_c, 1, 38, 0
3, 26616, Note_on_c, 1, 31, 127
3, 26640, Note_off_c, 1, 31, 0
3, 26640, Note_on_c, 1, 38, 127
3, 26664, Note_off_c, 1, 38, 0
3, 26664, Note_on_c, 1, 43, 127
3, 26688, Note_off_c, 1, 43, 0
3, 26688, Note_on_c, 1, 31, 127
3, 26736, Note_off_c, 1, 31, 0
3, 26736, Note_on_c, 1, 43, 127
3, 26784, Note_off_c, 1, 43, 0
3, 26784, Note_on_c, 1, 38, 127
3, 26808, Note_off_c, 1, 38, 0
3, 26808, Note_on_c, 1, 31, 127
3, 26832, Note_off_c, 1, 31, 0
3, 26832, Note_on_c, 1, 38, 127
3, 26856, Note_off_c, 1, 38, 0
3, 26856, Note_on_c, 1, 43, 127
3, 26880, Note_off_c, 1, 43, 0
3, 26880, Note_on_c, 1, 32, 127
3, 26928, Note_off_c, 1, 32, 0
3, 26928, Note_on_c, 1, 44, 127
3, 26976, Note_off_c, 1, 44, 0
3, 26976, Note_on_c, 1, 39, 127
3, 27000, Note_off_c, 1, 39, 0
3, 27000, Note_on_c, 1, 32, 127
3, 27024, Note_off_c, 1, 32, 0
3, 27024, Note_on_c, 1, 39, 127
3, 27048, Note_off_c, 1, 39, 0
3, 27048, Note_on_c, 1, 44, 127
3, 27072, Note_off_c, 1, 44, 0
3, 27072, Note_on_c, 1, 32, 127
3, 27120, Note_off_c, 1, 32, 0
3, 27120, Note_on_c, 1, 44, 127
3, 27168, Note_off_c, 1, 44, 0
3, 27168, Note_on_c, 1, 39, 127
3, 27192, Note_off_c, 1, 39, 0
3, 27192, Note_on_c, 1, 32, 127
3, 27216, Note_off_c, 1, 32, 0
3, 27216, Note_on_c, 1, 39, 127
3, 27240, Note_off_c, 1, 39, 0
3, 27240, Note_on_c, 1, 44, 127
3, 27264, Note_off_c, 1, 44, 0
3, 27264, Note_on_c, 1, 32, 127
3, 27312, Note_off_c, 1, 32, 0
3, 27312, Note_on_c, 1, 44, 127
3, 27360, Note_off_c, 1, 44, 0
3, 27360, Note_on_c, 1, 39, 127
3, 27384, Note_off_c, 1, 39, 0
3, 27384, Note_on_c, 1, 32, 127
3, 27408, Note_off_c, 1, 32, 0
3, 27408, Note_on_c, 1, 39, 127
3, 27432, Note_off_c, 1, 39, 0
3, 27432, Note_on_c, 1, 44, 127
3, 27456, Note_off_c, 1, 44, 0
3, 27456, Note_on_c, 1, 32, 127
3, 27504, Note_off_c, 1, 32, 0
3, 27504, Note_on_c, 1, 44, 127
3, 27552, Note_off_c, 1, 44, 0
3, 27552, Note_on_c, 1, 39, 127
3, 27576, Note_off_c, 1, 39, 0
3, 27576, Note_on_c, 1, 32, 127
3, 27600, Note_off_c, 1, 32, 0
3, 27600, Note_on_c, 1, 39, 127
3, 27624, Note_off_c, 1, 39, 0
3, 27624, Note_on_c, 1, 44, 127
3, 27648, Note_off_c, 1, 44, 0
3, 27648, Note_on_c, 1, 31, 127
3, 27696, Note_off_c, 1, 31, 0
3, 27696, Note_on_c, 1, 43, 127
3, 27744, Note_off_c, 1, 43, 0
3, 27744, Note_on_c, 1, 38, 127
3, 27768, Note_off_c, 1, 38, 0
3, 27768, Note_on_c, 1, 31, 127
3, 27792, Note_off_c, 1, 31, 0
3, 27792, Note_on_c, 1, 38, 127
3, 27816, Note_off_c, 1, 38, 0
3, 27816, Note_on_c, 1, 43, 127
3, 27840, Note_off_c, 1, 43, 0
3, 27840, Note_on_c, 1, 31, 127
3, 27888, Note_off_c, 1, 31, 0
3, 27888, Note_on_c, 1, 43, 127
3, 27936, Note_off_c, 1, 43, 0
3, 27936, Note_on_c, 1, 38, 127
3, 27960, Note_off_c, 1, 38, 0
3, 27960, Note_on_c, 1, 31, 127
3, 27984, Note_off_c, 1, 31, 0
3, 27984, Note_on_c, 1, 38, 127
3, 28008, Note_off_c, 1, 38, 0
3, 28008, Note_on_c, 1, 43, 127
3, 28032, Note_off_c, 1, 43, 0
3, 28032, Note_on_c, 1, 31, 127
3, 28080, Note_off_c, 1, 31, 0
3, 28080, Note_on_c, 1, 43, 127
3, 28128, Note_off_c, 1, 43, 0
3, 28128, Note_on_c, 1, 38, 127
3, 28152, Note_off_c, 1, 38, 0
3, 28152, Note_on_c, 1, 31, 127
3, 28176, Note_off_c, 1, 31, 0
3, 28176, Note_on_c, 1, 38, 127
3, 28200, Note_off_c, 1, 38, 0
3, 28200, Note_on_c, 1, 43, 127
3, 28224, Note_off_c, 1, 43, 0
3, 28224, Note_on_c, 1, 31, 127
3, 28272, Note_off_c, 1, 31, 0
3, 28272, Note_on_c, 1, 43, 127
3, 28320, Note_off_c, 1, 43, 0
3, 28320, Note_on_c, 1, 38, 127
3, 28344, Note_off_c, 1, 38, 0
3, 28344, Note_on_c, 1, 31, 127
3, 28368, Note_off_c, 1, 31, 0
3, 28368, Note_on_c, 1, 38, 127
3, 28392, Note_off_c, 1, 38, 0
3, 28392, Note_on_c, 1, 43, 127
3, 28416, Note_off_c, 1, 43, 0
3, 28416, Note_on_c, 1, 32, 127
3, 28464, Note_off_c, 1, 32, 0
3, 28464, Note_on_c, 1, 44, 127
3, 28512, Note_off_c, 1, 44, 0
3, 28512, Note_on_c, 1, 39, 127
3, 28536, Note_off_c, 1, 39, 0
3, 28536, Note_on_c, 1, 32, 127
3, 28560, Note_off_c, 1, 32, 0
3, 28560, Note_on_c, 1, 39, 127
3, 28584, Note_off_c, 1, 39, 0
3, 28584, Note_on_c, 1, 44, 127
3, 28608, Note_off_c, 1, 44, 0
3, 28608, Note_on_c, 1, 32, 127
3, 28656, Note_off_c, 1, 32, 0
3, 28656, Note_on_c, 1, 44, 127
3, 28704, Note_off_c, 1, 44, 0
3, 28704, Note_on_c, 1, 39, 127
3, 28728, Note_off_c, 1, 39, 0
3, 28728, Note_on_c, 1, 32, 127
3, 28752, Note_off_c, 1, 32, 0
3, 28752, Note_on_c, 1, 39, 127
3, 28776, Note_off_c, 1, 39, 0
3, 28776, Note_on_c, 1, 44, 127
3, 28800, Note_off_c, 1, 44, 0
3, 28800, Note_on_c, 1, 32, 127
3, 28848, Note_off_c, 1, 32, 0
3, 28848, Note_on_c, 1, 44, 127
3, 28896, Note_off_c, 1, 44, 0
3, 28896, Note_on_c, 1, 39, 127
3, 28920, Note_off_c, 1, 39, 0
3, 28920, Note_on_c, 1, 32, 127
3, 28944, Note_off_c, 1, 32, 0
3, 28944, Note_on_c, 1, 39, 127
3, 28968, Note_off_c, 1, 39, 0
3, 28968, Note_on_c, 1, 44, 127
3, 28992, Note_off_c, 1, 44, 0
3, 28992, Note_on_c, 1, 32, 127
3, 29040, Note_off_c, 1, 32, 0
3, 29040, Note_on_c, 1, 44, 127
3, 29088, Note_off_c, 1, 44, 0
3, 29088, Note_on_c, 1, 39, 127
3, 29112, Note_off_c, 1, 39, 0
3, 29112, Note_on_c, 1, 32, 127
3, 29136, Note_off_c, 1, 32, 0
3, 29136, Note_on_c, 1, 39, 127
3, 29160, Note_off_c, 1, 39, 0
3, 29160, Note_on_c, 1, 44, 127
3, 29184, Note_off_c, 1, 44, 0
3, 29184, Note_on_c, 1, 31, 127
3, 29232, Note_off_c, 1, 31, 0
3, 29232, Note_on_c, 1, 43, 127
3, 29280, Note_off_c, 1, 43, 0
3, 29280, Note_on_c, 1, 38, 127
3, 29304, Note_off_c, 1, 38, 0
3, 29304, Note_on_c, 1, 31, 127
3, 29328, Note_off_c, 1, 31, 0
3, 29328, Note_on_c, 1, 38, 127
3, 29352, Note_off_c, 1, 38, 0
3, 29352, Note_on_c, 1, 43, 127
3, 29376, Note_off_c, 1, 43, 0
3, 29376, Note_on_c, 1, 31, 127
3, 29424, Note_off_c, 1, 31, 0
3, 29424, Note_on_c, 1, 43, 127
3, 29472, Note_off_c, 1, 43, 0
3, 29472, Note_on_c, 1, 38, 127
3, 29496, Note_off_c, 1, 38, 0
3, 29496, Note_on_c, 1, 31, 127
3, 29520, Note_off_c, 1, 31, 0
3, 29520, Note_on_c, 1, 38, 127
3, 29544, Note_off_c, 1, 38, 0
3, 29544, Note_on_c, 1, 43, 127
3, 29568, Note_off_c, 1, 43, 0
3, 29568, Note_on_c, 1, 31, 127
3, 29616, Note_off_c, 1, 31, 0
3, 29616, Note_on_c, 1, 43, 127
3, 29664, Note_off_c, 1, 43, 0
3, 29664, Note_on_c, 1, 38, 127
3, 29688, Note_off_c, 1, 38, 0
3, 29688, Note_on_c, 1, 31, 127
3, 29712, Note_off_c, 1, 31, 0
3, 29712, Note_on_c, 1, 38, 127
3, 29736, Note_off_c, 1, 38, 0
3, 29736, Note_on_c, 1, 43, 127
3, 29760, Note_off_c, 1, 43, 0
3, 29760, Note_on_c, 1, 31, 127
3, 29808, Note_off_c, 1, 31, 0
3, 29808, Note_on_c, 1, 43, 127
3, 29856, Note_off_c, 1, 43, 0
3, 29856, Note_on_c, 1, 38, 127
3, 29880, Note_off_c, 1, 38, 0
3, 29880, Note_on_c, 1, 31, 127
3, 29904, Note_off_c, 1, 31, 0
3, 29904, Note_on_c, 1, 38, 127
3, 29928, Note_off_c, 1, 38, 0
3, 29928, Note_on_c, 1, 43, 127
3, 29952, Note_off_c, 1, 43, 0
3, 29952, Note_on_c, 1, 32, 127
3, 30000, Note_off_c, 1, 32, 0
3, 30000, Note_on_c, 1, 44, 127
3, 30048, Note_off_c, 1, 44, 0
3, 30048, Note_on_c, 1, 39, 127
3, 30072, Note_off_c, 1, 39, 0
3, 30072, Note_on_c, 1, 32, 127
3, 30096, Note_off_c, 1, 32, 0
3, 30096, Note_on_c, 1, 39, 127
3, 30120, Note_off_c, 1, 39, 0
3, 30120, Note_on_c, 1, 44, 127
3, 30144, Note_off_c, 1, 44, 0
3, 30144, Note_on_c, 1, 32, 127
3, 30192, Note_off_c, 1, 32, 0
3, 30192, Note_on_c, 1, 44, 127
3, 30240, Note_off_c, 1, 44, 0
3, 30240, Note_on_c, 1, 39, 127
3, 30264, Note_off_c, 1, 39, 0
3, 30264, Note_on_c, 1, 32, 127
3, 30288, Note_off_c, 1, 32, 0
3, 30288, Note_on_c, 1, 39, 127
3, 30312, Note_off_c, 1, 39, 0
3, 30312, Note_on_c, 1, 44, 127
3, 30336, Note_off_c, 1, 44, 0
3, 30336, Note_on_c, 1, 32, 127
3, 30384, Note_off_c, 1, 32, 0
3, 30384, Note_on_c, 1, 44, 127
3, 30432, Note_off_c, 1, 44, 0
3, 30432, Note_on_c, 1, 39, 127
3, 30456, Note_off_c, 1, 39, 0
3, 30456, Note_on_c, 1, 32, 127
3, 30480, Note_off_c, 1, 32, 0
3, 30480, Note_on_c, 1, 39, 127
3, 30504, Note_off_c, 1, 39, 0
3, 30504, Note_on_c, 1, 44, 127
3, 30528, Note_off_c, 1, 44, 0
3, 30528, Note_on_c, 1, 32, 127
3, 30576, Note_off_c, 1, 32, 0
3, 30576, Note_on_c, 1, 44, 127
3, 30624, Note_off_c, 1, 44, 0
3, 30624, Note_on_c, 1, 39, 127
3, 30648, Note_off_c, 1, 39, 0
3, 30648, Note_on_c, 1, 32, 127
3, 30672, Note_off_c, 1, 32, 0
3, 30672, Note_on_c, 1, 39, 127
3, 30696, Note_off_c, 1, 39, 0
3, 30696, Note_on_c, 1, 44, 127
3, 30720, Note_off_c, 1, 44, 0
3, 30720, Note_on_c, 1, 31, 127
3, 30768, Note_off_c, 1, 31, 0
3, 30768, Note_on_c, 1, 43, 127
3, 30816, Note_off_c, 1, 43, 0
3, 30816, Note_on_c, 1, 38, 127
3, 30840, Note_off_c, 1, 38, 0
3, 30840, Note_on_c, 1, 31, 127
3, 30864, Note_off_c, 1, 31, 0
3, 30864, Note_on_c, 1, 38, 127
3, 30888, Note_off_c, 1, 38, 0
3, 30888, Note_on_c, 1, 43, 127
3, 30912, Note_off_c, 1, 43, 0
3, 30912, Note_on_c, 1, 31, 127
3, 30960, Note_off_c, 1, 31, 0
3, 30960, Note_on_c, 1, 43, 127
3, 31008, Note_off_c, 1, 43, 0
3, 31008, Note_on_c, 1, 38, 127
3, 31032, Note_off_c, 1, 38, 0
3, 31032, Note_on_c, 1, 31, 127
3, 31056, Note_off_c, 1, 31, 0
3, 31056, Note_on_c, 1, 38, 127
3, 31080, Note_off_c, 1, 38, 0
3, 31080, Note_on_c, 1, 43, 127
3, 31104, Note_off_c, 1, 43, 0
3, 31104, Note_on_c, 1, 31, 127
3, 31152, Note_off_c, 1, 31, 0
3, 31152, Note_on_c, 1, 43, 127
3, 31200, Note_off_c, 1, 43, 0
3, 31200, Note_on_c, 1, 38, 127
3, 31224, Note_off_c, 1, 38, 0
3, 31224, Note_on_c, 1, 31, 127
3, 31248, Note_off_c, 1, 31, 0
3, 31248, Note_on_c, 1, 38, 127
3, 31272, Note_off_c, 1, 38, 0
3, 31272, Note_on_c, 1, 43, 127
3, 31296, Note_off_c, 1, 43, 0
3, 31296, Note_on_c, 1, 31, 127
3, 31344, Note_off_c, 1, 31, 0
3, 31344, Note_on_c, 1, 43, 127
3, 31392, Note_off_c, 1, 43, 0
3, 31392, Note_on_c, 1, 38, 127
3, 31416, Note_off_c, 1, 38, 0
3, 31416, Note_on_c, 1, 31, 127
3, 31440, Note_off_c, 1, 31, 0
3, 31440, Note_on_c, 1, 38, 127
3, 31464, Note_off_c, 1, 38, 0
3, 31464, Note_on_c, 1, 43, 127
3, 31488, Note_off_c, 1, 43, 0
3, 31488, Note_on_c, 1, 36, 127
3, 31536, Note_off_c, 1, 36, 0
3, 31536, Note_on_c, 1, 48, 127
3, 31584, Note_off_c, 1, 48, 0
3, 31584, Note_on_c, 1, 43, 127
3, 31608, Note_off_c, 1, 43, 0
3, 31608, Note_on_c, 1, 36, 127
3, 31632, Note_off_c, 1, 36, 0
3, 31632, Note_on_c, 1, 43, 127
3, 31656, Note_off_c, 1, 43, 0
3, 31656, Note_on_c, 1, 48, 127
3, 31680, Note_off_c, 1, 48, 0
3, 31680, Note_on_c, 1, 36, 127
3, 31728, Note_off_c, 1, 36, 0
3, 31728, Note_on_c, 1, 48, 127
3, 31776, Note_off_c, 1, 48, 0
3, 31776, Note_on_c, 1, 43, 127
3, 31800, Note_off_c, 1, 43, 0
3, 31800, Note_on_c, 1, 36, 127
3, 31824, Note_off_c, 1, 36, 0
3, 31824, Note_on_c, 1, 43, 127
3, 31848, Note_off_c, 1, 43, 0
3, 31848, Note_on_c, 1, 48, 127
3, 31872, Note_off_c, 1, 48, 0
3, 31872, Note_on_c, 1, 37, 127
3, 31920, Note_off_c, 1, 37, 0
3, 31920, Note_on_c, 1, 49, 127
3, 31968, Note_off_c, 1, 49, 0
3, 31968, Note_on_c, 1, 44, 127
3, 31992, Note_off_c, 1, 44, 0
3, 31992, Note_on_c, 1, 37, 127
3, 32016, Note_off_c, 1, 37, 0
3, 32016, Note_on_c, 1, 44, 127
3, 32040, Note_off_c, 1, 44, 0
3, 32040, Note_on_c, 1, 49, 127
3, 32064, Note_off_c, 1, 49, 0
3, 32064, Note_on_c, 1, 39, 127
3, 32112, Note_off_c, 1, 39, 0
3, 32112, Note_on_c, 1, 51, 127
3, 32160, Note_off_c, 1, 51, 0
3, 32160, Note_on_c, 1, 46, 127
3, 32184, Note_off_c, 1, 46, 0
3, 32184, Note_on_c, 1, 39, 127
3, 32208, Note_off_c, 1, 39, 0
3, 32208, Note_on_c, 1, 46, 127
3, 32232, Note_off_c, 1, 46, 0
3, 32232, Note_on_c, 1, 51, 127
3, 32256, Note_off_c, 1, 51, 0
3, 32256, Note_on_c, 1, 36, 127
3, 32304, Note_off_c, 1, 36, 0
3, 32304, Note_on_c, 1, 48, 127
3, 32352, Note_off_c, 1, 48, 0
3, 32352, Note_on_c, 1, 43, 127
3, 32376, Note_off_c, 1, 43, 0
3, 32376, Note_on_c, 1, 36, 127
3, 32400, Note_off_c, 1, 36, 0
3, 32400, Note_on_c, 1, 43, 127
3, 32424, Note_off_c, 1, 43, 0
3, 32424, Note_on_c, 1, 48, 127
3, 32448, Note_off_c, 1, 48, 0
3, 32448, Note_on_c, 1, 36, 127
3, 32496, Note_off_c, 1, 36, 0
3, 32496, Note_on_c, 1, 48, 127
3, 32544, Note_off_c, 1, 48, 0
3, 32544, Note_on_c, 1, 43, 127
3, 32568, Note_off_c, 1, 43, 0
3, 32568, Note_on_c, 1, 36, 127
3, 32592, Note_off_c, 1, 36, 0
3, 32592, Note_on_c, 1, 43, 127
3, 32616, Note_off_c, 1, 43, 0
3, 32616, Note_on_c, 1, 48, 127
3, 32640, Note_off_c, 1, 48, 0
3, 32640, Note_on_c, 1, 32, 127
3, 32688, Note_off_c, 1, 32, 0
3, 32688, Note_on_c, 1, 44, 127
3, 32736, Note_off_c, 1, 44, 0
3, 32736, Note_on_c, 1, 39, 127
3, 32760, Note_off_c, 1, 39, 0
3, 32760, Note_on_c, 1, 32, 127
3, 32784, Note_off_c, 1, 32, 0
3, 32784, Note_on_c, 1, 39, 127
3, 32808, Note_off_c, 1, 39, 0
3, 32808, Note_on_c, 1, 44, 127
3, 32832, Note_off_c, 1, 44, 0
3, 32832, Note_on_c, 1, 31, 127
3, 32880, Note_off_c, 1, 31, 0
3, 32880, Note_on_c, 1, 43, 127
3, 32928, Note_off_c, 1, 43, 0
3, 32928, Note_on_c, 1, 38, 127
3, 32952, Note_off_c, 1, 38, 0
3, 32952, Note_on_c, 1, 31, 127
3, 32976, Note_off_c, 1, 31, 0
3, 32976, Note_on_c, 1, 38, 127
3, 33000, Note_off_c, 1, 38, 0
3, 33000, Note_on_c, 1, 43, 127
3, 33024, Note_off_c, 1, 43, 0
3, 33024, Note_on_c, 1, 36, 127
3, 33072, Note_off_c, 1, 36, 0
3, 33072, Note_on_c, 1, 48, 127
3, 33120, Note_off_c, 1, 48, 0
3, 33120, Note_on_c, 1, 43, 127
3, 33144, Note_off_c, 1, 43, 0
3, 33144, Note_on_c, 1, 36, 127
3, 33168, Note_off_c, 1, 36, 0
3, 33168, Note_on_c, 1, 43, 127
3, 33192, Note_off_c, 1, 43, 0
3, 33192, Note_on_c, 1, 48, 127
3, 33216, Note_off_c, 1, 48, 0
3, 33216, Note_on_c, 1, 36, 127
3, 33264, Note_off_c, 1, 36, 0
3, 33264, Note_on_c, 1, 48, 127
3, 33312, Note_off_c, 1, 48, 0
3, 33312, Note_on_c, 1, 43, 127
3, 33336, Note_off_c, 1, 43, 0
3, 33336, Note_on_c, 1, 36, 127
3, 33360, Note_off_c, 1, 36, 0
3, 33360, Note_on_c, 1, 43, 127
3, 33384, Note_off_c, 1, 43, 0
3, 33384, Note_on_c, 1, 48, 127
3, 33408, Note_off_c, 1, 48, 0
3, 33408, Note_on_c, 1, 37, 127
3, 33456, Note_off_c, 1, 37, 0
3, 33456, Note_on_c, 1, 49, 127
3, 33504, Note_off_c, 1, 49, 0
3, 33504, Note_on_c, 1, 44, 127
3, 33528, Note_off_c, 1, 44, 0
3, 33528, Note_on_c, 1, 37, 127
3, 33552, Note_off_c, 1, 37, 0
3, 33552, Note_on_c, 1, 44, 127
3, 33576, Note_off_c, 1, 44, 0
3, 33576, Note_on_c, 1, 49, 127
3, 33600, Note_off_c, 1, 49, 0
3, 33600, Note_on_c, 1, 39, 127
3, 33648, Note_off_c, 1, 39, 0
3, 33648, Note_on_c, 1, 51, 127
3, 33696, Note_off_c, 1, 51, 0
3, 33696, Note_on_c, 1, 46, 127
3, 33720, Note_off_c, 1, 46, 0
3, 33720, Note_on_c, 1, 39, 127
3, 33744, Note_off_c, 1, 39, 0
3, 33744, Note_on_c, 1, 46, 127
3, 33768, Note_off_c, 1, 46, 0
3, 33768, Note_on_c, 1, 51, 127
3, 33792, Note_off_c, 1, 51, 0
3, 33792, Note_on_c, 1, 36, 127
3, 33840, Note_off_c, 1, 36, 0
3, 33840, Note_on_c, 1, 48, 127
3, 33888, Note_off_c, 1, 48, 0
3, 33888, Note_on_c, 1, 43, 127
3, 33912, Note_off_c, 1, 43, 0
3, 33912, Note_on_c, 1, 36, 127
3, 33936, Note_off_c, 1, 36, 0
3, 33936, Note_on_c, 1, 43, 127
3, 33960, Note_off_c, 1, 43, 0
3, 33960, Note_on_c, 1, 48, 127
3, 33984, Note_off_c, 1, 48, 0
3, 33984, Note_on_c, 1, 36, 127
3, 34032, Note_off_c, 1, 36, 0
3, 34032, Note_on_c, 1, 48, 127
3, 34080, Note_off_c, 1, 48, 0
3, 34080, Note_on_c, 1, 43, 127
3, 34104, Note_off_c, 1, 43, 0
3, 34104, Note_on_c, 1, 36, 127
3, 34128, Note_off_c, 1, 36, 0
3, 34128, Note_on_c, 1, 43, 127
3, 34152, Note_off_c, 1, 43, 0
3, 34152, Note_on_c, 1, 48, 127
3, 34176, Note_off_c, 1, 48, 0
3, 34176, Note_on_c, 1, 32, 127
3, 34224, Note_off_c, 1, 32, 0
3, 34224, Note_on_c, 1, 44, 127
3, 34272, Note_off_c, 1, 44, 0
3, 34272, Note_on_c, 1, 39, 127
3, 34296, Note_off_c, 1, 39, 0
3, 34296, Note_on_c, 1, 32, 127
3, 34320, Note_off_c, 1, 32, 0
3, 34320, Note_on_c, 1, 39, 127
3, 34344, Note_off_c, 1, 39, 0
3, 34344, Note_on_c, 1, 44, 127
3, 34368, Note_off_c, 1, 44, 0
3, 34368, Note_on_c, 1, 31, 127
3, 34416, Note_off_c, 1, 31, 0
3, 34416, Note_on_c, 1, 43, 127
3, 34464, Note_off_c, 1, 43, 0
3, 34464, Note_on_c, 1, 38, 127
3, 34488, Note_off_c, 1, 38, 0
3, 34488, Note_on_c, 1, 31, 127
3, 34512, Note_off_c, 1, 31, 0
3, 34512, Note_on_c, 1, 38, 127
3, 34536, Note_off_c, 1, 38, 0
3, 34536, Note_on_c, 1, 43, 127
3, 34560, Note_off_c, 1, 43, 0
3, 34560, Note_on_c, 1, 36, 127
3, 34608, Note_off_c, 1, 36, 0
3, 34608, Note_on_c, 1, 48, 127
3, 34656, Note_off_c, 1, 48, 0
3, 34656, Note_on_c, 1, 43, 127
3, 34680, Note_off_c, 1, 43, 0
3, 34680, Note_on_c, 1, 36, 127
3, 34704, Note_off_c, 1, 36, 0
3, 34704, Note_on_c, 1, 43, 127
3, 34728, Note_off_c, 1, 43, 0
3, 34728, Note_on_c, 1, 48, 127
3, 34752, Note_off_c, 1, 48, 0
3, 34752, Note_on_c, 1, 36, 127
3, 34800, Note_off_c, 1, 36, 0
3, 34800, Note_on_c, 1, 48, 127
3, 34848, Note_off_c, 1, 48, 0
3, 34848, Note_on_c, 1, 43, 127
3, 34872, Note_off_c, 1, 43, 0
3, 34872, Note_on_c, 1, 36, 127
3, 34896, Note_off_c, 1, 36, 0
3, 34896, Note_on_c, 1, 43, 127
3, 34920, Note_off_c, 1, 43, 0
3, 34920, Note_on_c, 1, 48, 127
3, 34944, Note_off_c, 1, 48, 0
3, 34944, Note_on_c, 1, 37, 127
3, 34992, Note_off_c, 1, 37, 0
3, 34992, Note_on_c, 1, 49, 127
3, 35040, Note_off_c, 1, 49, 0
3, 35040, Note_on_c, 1, 44, 127
3, 35064, Note_off_c, 1, 44, 0
3, 35064, Note_on_c, 1, 37, 127
3, 35088, Note_off_c, 1, 37, 0
3, 35088, Note_on_c, 1, 44, 127
3, 35112, Note_off_c, 1, 44, 0
3, 35112, Note_on_c, 1, 49, 127
3, 35136, Note_off_c, 1, 49, 0
3, 35136, Note_on_c, 1, 39, 127
3, 35184, Note_off_c, 1, 39, 0
3, 35184, Note_on_c, 1, 51, 127
3, 35232, Note_off_c, 1, 51, 0
3, 35232, Note_on_c, 1, 46, 127
3, 35256, Note_off_c, 1, 46, 0
3, 35256, Note_on_c, 1, 39, 127
3, 35280, Note_off_c, 1, 39, 0
3, 35280, Note_on_c, 1, 46, 127
3, 35304, Note_off_c, 1, 46, 0
3, 35304, Note_on_c, 1, 51, 127
3, 35328, Note_off_c, 1, 51, 0
3, 35328, Note_on_c, 1, 36, 127
3, 35376, Note_off_c, 1, 36, 0
3, 35376, Note_on_c, 1, 48, 127
3, 35424, Note_off_c, 1, 48, 0
3, 35424, Note_on_c, 1, 43, 127
3, 35448, Note_off_c, 1, 43, 0
3, 35448, Note_on_c, 1, 36, 127
3, 35472, Note_off_c, 1, 36, 0
3, 35472, Note_on_c, 1, 43, 127
3, 35496, Note_off_c, 1, 43, 0
3, 35496, Note_on_c, 1, 48, 127
3, 35520, Note_off_c, 1, 48, 0
3, 35520, Note_on_c, 1, 36, 127
3, 35568, Note_off_c, 1, 36, 0
3, 35568, Note_on_c, 1, 48, 127
3, 35616, Note_off_c, 1, 48, 0
3, 35616, Note_on_c, 1, 43, 127
3, 35640, Note_off_c, 1, 43, 0
3, 35640, Note_on_c, 1, 36, 127
3, 35664, Note_off_c, 1, 36, 0
3, 35664, Note_on_c, 1, 43, 127
3, 35688, Note_off_c, 1, 43, 0
3, 35688, Note_on_c, 1, 48, 127
3, 35712, Note_off_c, 1, 48, 0
3, 35712, Note_on_c, 1, 32, 127
3, 35760, Note_off_c, 1, 32, 0
3, 35760, Note_on_c, 1, 44, 127
3, 35808, Note_off_c, 1, 44, 0
3, 35808, Note_on_c, 1, 39, 127
3, 35832, Note_off_c, 1, 39, 0
3, 35832, Note_on_c, 1, 32, 127
3, 35856, Note_off_c, 1, 32, 0
3, 35856, Note_on_c, 1, 39, 127
3, 35880, Note_off_c, 1, 39, 0
3, 35880, Note_on_c, 1, 44, 127
3, 35904, Note_off_c, 1, 44, 0
3, 35904, Note_on_c, 1, 31, 127
3, 35952, Note_off_c, 1, 31, 0
3, 35952, Note_on_c, 1, 43, 127
3, 36000, Note_off_c, 1, 43, 0
3, 36000, Note_on_c, 1, 38, 127
3, 36024, Note_off_c, 1, 38, 0
3, 36024, Note_on_c, 1, 31, 127
3, 36048, Note_off_c, 1, 31, 0
3, 36048, Note_on_c, 1, 38, 127
3, 36072, Note_off_c, 1, 38, 0
3, 36072, Note_on_c, 1, 43, 127
3, 36096, Note_off_c, 1, 43, 0
3, 36096, Note_on_c, 1, 36, 127
3, 36144, Note_off_c, 1, 36, 0
3, 36144, Note_on_c, 1, 48, 127
3, 36192, Note_off_c, 1, 48, 0
3, 36192, Note_on_c, 1, 43, 127
3, 36216, Note_off_c, 1, 43, 0
3, 36216, Note_on_c, 1, 36, 127
3, 36240, Note_off_c, 1, 36, 0
3, 36240, Note_on_c, 1, 43, 127
3, 36264, Note_off_c, 1, 43, 0
3, 36264, Note_on_c, 1, 48, 127
3, 36288, Note_off_c, 1, 48, 0
3, 36288, Note_on_c, 1, 36, 127
3, 36336, Note_off_c, 1, 36, 0
3, 36336, Note_on_c, 1, 48, 127
3, 36384, Note_off_c, 1, 48, 0
3, 36384, Note_on_c, 1, 43, 127
3, 36408, Note_off_c, 1, 43, 0
3, 36408, Note_on_c, 1, 36, 127
3, 36432, Note_off_c, 1, 36, 0
3, 36432, Note_on_c, 1, 43, 127
3, 36456, Note_off_c, 1, 43, 0
3, 36456, Note_on_c, 1, 48, 127
3, 36480, Note_off_c, 1, 48, 0
3, 36480, Note_on_c, 1, 37, 127
3, 36528, Note_off_c, 1, 37, 0
3, 36528, Note_on_c, 1, 49, 127
3, 36576, Note_off_c, 1, 49, 0
3, 36576, Note_on_c, 1, 44, 127
3, 36600, Note_off_c, 1, 44, 0
3, 36600, Note_on_c, 1, 37, 127
3, 36624, Note_off_c, 1, 37, 0
3, 36624, Note_on_c, 1, 44, 127
3, 36648, Note_off_c, 1, 44, 0
3, 36648, Note_on_c, 1, 49, 127
3, 36672, Note_off_c, 1, 49, 0
3, 36672, Note_on_c, 1, 39, 127
3, 36720, Note_off_c, 1, 39, 0
3, 36720, Note_on_c, 1, 51, 127
3, 36768, Note_off_c, 1, 51, 0
3, 36768, Note_on_c, 1, 46, 127
3, 36792, Note_off_c, 1, 46, 0
3, 36792, Note_on_c, 1, 39, 127
3, 36816, Note_off_c, 1, 39, 0
3, 36816, Note_on_c, 1, 46, 127
3, 36840, Note_off_c, 1, 46, 0
3, 36840, Note_on_c, 1, 51, 127
3, 36864, Note_off_c, 1, 51, 0
3, 36864, Note_on_c, 1, 36, 127
3, 36912, Note_off_c, 1, 36, 0
3, 36912, Note_on_c, 1, 48, 127
3, 36960, Note_off_c, 1, 48, 0
3, 36960, Note_on_c, 1, 43, 127
3, 36984, Note_off_c, 1, 43, 0
3, 36984, Note_on_c, 1, 36, 127
3, 37008, Note_off_c, 1, 36, 0
3, 37008, Note_on_c, 1, 43, 127
3, 37032, Note_off_c, 1, 43, 0
3, 37032, Note_on_c, 1, 48, 127
3, 37056, Note_off_c, 1, 48, 0
3, 37056, Note_on_c, 1, 36, 127
3, 37104, Note_off_c, 1, 36, 0
3, 37104, Note_on_c, 1, 48, 127
3, 37152, Note_off_c, 1, 48, 0
3, 37152, Note_on_c, 1, 43, 127
3, 37176, Note_off_c, 1, 43, 0
3, 37176, Note_on_c, 1, 36, 127
3, 37200, Note_off_c, 1, 36, 0
3, 37200, Note_on_c, 1, 43, 127
3, 37224, Note_off_c, 1, 43, 0
3, 37224, Note_on_c, 1, 48, 127
3, 37248, Note_off_c, 1, 48, 0
3, 37248, Note_on_c, 1, 32, 127
3, 37296, Note_off_c, 1, 32, 0
3, 37296, Note_on_c, 1, 44, 127
3, 37344, Note_off_c, 1, 44, 0
3, 37344, Note_on_c, 1, 39, 127
3, 37368, Note_off_c, 1, 39, 0
3, 37368, Note_on_c, 1, 32, 127
3, 37392, Note_off_c, 1, 32, 0
3, 37392, Note_on_c, 1, 39, 127
3, 37416, Note_off_c, 1, 39, 0
3, 37416, Note_on_c, 1, 44, 127
3, 37440, Note_off_c, 1, 44, 0
3, 37440, Note_on_c, 1, 31, 127
3, 37488, Note_off_c, 1, 31, 0
3, 37488, Note_on_c, 1, 43, 127
3, 37536, Note_off_c, 1, 43, 0
3, 37536, Note_on_c, 1, 38, 127
3, 37560, Note_off_c, 1, 38, 0
3, 37560, Note_on_c, 1, 31, 127
3, 37584, Note_off_c, 1, 31, 0
3, 37584, Note_on_c, 1, 38, 127
3, 37608, Note_off_c, 1, 38, 0
3, 37608, Note_on_c, 1, 43, 127
3, 37632, Note_off_c, 1, 43, 0
3, 37632, Note_on_c, 1, 32, 127
3, 37680, Note_off_c, 1, 32, 0
3, 37680, Note_on_c, 1, 44, 127
3, 37728, Note_off_c, 1, 44, 0
3, 37728, Note_on_c, 1, 39, 127
3, 37752, Note_off_c, 1, 39, 0
3, 37752, Note_on_c, 1, 32, 127
3, 37776, Note_off_c, 1, 32, 0
3, 37776, Note_on_c, 1, 39, 127
3, 37800, Note_off_c, 1, 39, 0
3, 37800, Note_on_c, 1, 44, 127
3, 37824, Note_off_c, 1, 44, 0
3, 37824, Note_on_c, 1, 32, 127
3, 37872, Note_off_c, 1, 32, 0
3, 37872, Note_on_c, 1, 44, 127
3, 37920, Note_off_c, 1, 44, 0
3, 37920, Note_on_c, 1, 39, 127
3, 37944, Note_off_c, 1, 39, 0
3, 37944, Note_on_c, 1, 32, 127
3, 37968, Note_off_c, 1, 32, 0
3, 37968, Note_on_c, 1, 39, 127
3, 37992, Note_off_c, 1, 39, 0
3, 37992, Note_on_c, 1, 44, 127
3, 38016, Note_off_c, 1, 44, 0
3, 38016, Note_on_c, 1, 32, 127
3, 38064, Note_off_c, 1, 32, 0
3, 38064, Note_on_c, 1, 44, 127
3, 38112, Note_off_c, 1, 44, 0
3, 38112, Note_on_c, 1, 39, 127
3, 38136, Note_off_c, 1, 39, 0
3, 38136, Note_on_c, 1, 32, 127
3, 38160, Note_off_c, 1, 32, 0
3, 38160, Note_on_c, 1, 39, 127
3, 38184, Note_off_c, 1, 39, 0
3, 38184, Note_on_c, 1, 44, 127
3, 38208, Note_off_c, 1, 44, 0
3, 38208, Note_on_c, 1, 32, 127
3, 38256, Note_off_c, 1, 32, 0
3, 38256, Note_on_c, 1, 44, 127
3, 38304, Note_off_c, 1, 44, 0
3, 38304, Note_on_c, 1, 39, 127
3, 38328, Note_off_c, 1, 39, 0
3, 38328, Note_on_c, 1, 32, 127
3, 38352, Note_off_c, 1, 32, 0
3, 38352, Note_on_c, 1, 39, 127
3, 38376, Note_off_c, 1, 39, 0
3, 38376, Note_on_c, 1, 44, 127
3, 38400, Note_off_c, 1, 44, 0
3, 38400, Note_on_c, 1, 31, 127
3, 38448, Note_off_c, 1, 31, 0
3, 38448, Note_on_c, 1, 43, 127
3, 38496, Note_off_c, 1, 43, 0
3, 38496, Note_on_c, 1, 38, 127
3, 38520, Note_off_c, 1, 38, 0
3, 38520, Note_on_c, 1, 31, 127
3, 38544, Note_off_c, 1, 31, 0
3, 38544, Note_on_c, 1, 38, 127
3, 38568, Note_off_c, 1, 38, 0
3, 38568, Note_on_c, 1, 43, 127
3, 38592, Note_off_c, 1, 43, 0
3, 38592, Note_on_c, 1, 31, 127
3, 38640, Note_off_c, 1, 31, 0
3, 38640, Note_on_c, 1, 43, 127
3, 38688, Note_off_c, 1, 43, 0
3, 38688, Note_on_c, 1, 38, 127
3, 38712, Note_off_c, 1, 38, 0
3, 38712, Note_on_c, 1, 31, 127
3, 38736, Note_off_c, 1, 31, 0
3, 38736, Note_on_c, 1, 38, 127
3, 38760, Note_off_c, 1, 38, 0
3, 38760, Note_on_c, 1, 43, 127
3, 38784, Note_off_c, 1, 43, 0
3, 38784, Note_on_c, 1, 31, 127
3, 38832, Note_off_c, 1, 31, 0
3, 38832, Note_on_c, 1, 43, 127
3, 38880, Note_off_c, 1, 43, 0
3, 38880, Note_on_c, 1, 38, 127
3, 38904, Note_off_c, 1, 38, 0
3, 38904, Note_on_c, 1, 31, 127
3, 38928, Note_off_c, 1, 31, 0
3, 38928, Note_on_c, 1, 38, 127
3, 38952, Note_off_c, 1, 38, 0
3, 38952, Note_on_c, 1, 43, 127
3, 38976, Note_off_c, 1, 43, 0
3, 38976, Note_on_c, 1, 31, 127
3, 39024, Note_off_c, 1, 31, 0
3, 39024, Note_on_c, 1, 43, 127
3, 39072, Note_off_c, 1, 43, 0
3, 39072, Note_on_c, 1, 38, 127
3, 39096, Note_off_c, 1, 38, 0
3, 39096, Note_on_c, 1, 31, 127
3, 39120, Note_off_c, 1, 31, 0
3, 39120, Note_on_c, 1, 38, 127
3, 39144, Note_off_c, 1, 38, 0
3, 39144, Note_on_c, 1, 43, 127
3, 39168, Note_off_c, 1, 43, 0
3, 39168, Note_on_c, 1, 32, 127
3, 39216, Note_off_c, 1, 32, 0
3, 39216, Note_on_c, 1, 44, 127
3, 39264, Note_off_c, 1, 44, 0
3, 39264, Note_on_c, 1, 39, 127
3, 39288, Note_off_c, 1, 39, 0
3, 39288, Note_on_c, 1, 32, 127
3, 39312, Note_off_c, 1, 32, 0
3, 39312, Note_on_c, 1, 39, 127
3, 39336, Note_off_c, 1, 39, 0
3, 39336, Note_on_c, 1, 44, 127
3, 39360, Note_off_c, 1, 44, 0
3, 39360, Note_on_c, 1, 32, 127
3, 39408, Note_off_c, 1, 32, 0
3, 39408, Note_on_c, 1, 44, 127
3, 39456, Note_off_c, 1, 44, 0
3, 39456, Note_on_c, 1, 39, 127
3, 39480, Note_off_c, 1, 39, 0
3, 39480, Note_on_c, 1, 32, 127
3, 39504, Note_off_c, 1, 32, 0
3, 39504, Note_on_c, 1, 39, 127
3, 39528, Note_off_c, 1, 39, 0
3, 39528, Note_on_c, 1, 44, 127
3, 39552, Note_off_c, 1, 44, 0
3, 39552, Note_on_c, 1, 32, 127
3, 39600, Note_off_c, 1, 32, 0
3, 39600, Note_on_c, 1, 44, 127
3, 39648, Note_off_c, 1, 44, 0
3, 39648, Note_on_c, 1, 39, 127
3, 39672, Note_off_c, 1, 39, 0
3, 39672, Note_on_c, 1, 32, 127
3, 39696, Note_off_c, 1, 32, 0
3, 39696, Note_on_c, 1, 39, 127
3, 39720, Note_off_c, 1, 39, 0
3, 39720, Note_on_c, 1, 44, 127
3, 39744, Note_off_c, 1, 44, 0
3, 39744, Note_on_c, 1, 32, 127
3, 39792, Note_off_c, 1, 32, 0
3, 39792, Note_on_c, 1, 44, 127
3, 39840, Note_off_c, 1, 44, 0
3, 39840, Note_on_c, 1, 39, 127
3, 39864, Note_off_c, 1, 39, 0
3, 39864, Note_on_c, 1, 32, 127
3, 39888, Note_off_c, 1, 32, 0
3, 39888, Note_on_c, 1, 39, 127
3, 39912, Note_off_c, 1, 39, 0
3, 39912, Note_on_c, 1, 44, 127
3, 39936, Note_off_c, 1, 44, 0
3, 39936, Note_on_c, 1, 31, 127
3, 39984, Note_off_c, 1, 31, 0
3, 39984, Note_on_c, 1, 43, 127
3, 40032, Note_off_c, 1, 43, 0
3, 40032, Note_on_c, 1, 38, 127
3, 40056, Note_off_c, 1, 38, 0
3, 40056, Note_on_c, 1, 31, 127
3, 40080, Note_off_c, 1, 31, 0
3, 40080, Note_on_c, 1, 38, 127
3, 40104, Note_off_c, 1, 38, 0
3, 40104, Note_on_c, 1, 43, 127
3, 40128, Note_off_c, 1, 43, 0
3, 40128, Note_on_c, 1, 31, 127
3, 40176, Note_off_c, 1, 31, 0
3, 40176, Note_on_c, 1, 43, 127
3, 40224, Note_off_c, 1, 43, 0
3, 40224, Note_on_c, 1, 38, 127
3, 40248, Note_off_c, 1, 38, 0
3, 40248, Note_on_c, 1, 31, 127
3, 40272, Note_off_c, 1, 31, 0
3, 40272, Note_on_c, 1, 38, 127
3, 40296, Note_off_c, 1, 38, 0
3, 40296, Note_on_c, 1, 43, 127
3, 40320, Note_off_c, 1, 43, 0
3, 40320, Note_on_c, 1, 31, 127
3, 40368, Note_off_c, 1, 31, 0
3, 40368, Note_on_c, 1, 43, 127
3, 40416, Note_off_c, 1, 43, 0
3, 40416, Note_on_c, 1, 38, 127
3, 40440, Note_off_c, 1, 38, 0
3, 40440, Note_on_c, 1, 31, 127
3, 40464, Note_off_c, 1, 31, 0
3, 40464, Note_on_c, 1, 38, 127
3, 40488, Note_off_c, 1, 38, 0
3, 40488, Note_on_c, 1, 43, 127
3, 40512, Note_off_c, 1, 43, 0
3, 40512, Note_on_c, 1, 31, 127
3, 40560, Note_off_c, 1, 31, 0
3, 40560, Note_on_c, 1, 43, 127
3, 40608, Note_off_c, 1, 43, 0
3, 40608, Note_on_c, 1, 38, 127
3, 40632, Note_off_c, 1, 38, 0
3, 40632, Note_on_c, 1, 31, 127
3, 40656, Note_off_c, 1, 31, 0
3, 40656, Note_on_c, 1, 38, 127
3, 40680, Note_off_c, 1, 38, 0
3, 40680, Note_on_c, 1, 43, 127
3, 40704, Note_off_c, 1, 43, 0
3, 40704, Note_on_c, 1, 32, 127
3, 40752, Note_off_c, 1, 32, 0
3, 40752, Note_on_c, 1, 44, 127
3, 40800, Note_off_c, 1, 44, 0
3, 40800, Note_on_c, 1, 39, 127
3, 40824, Note_off_c, 1, 39, 0
3, 40824, Note_on_c, 1, 32, 127
3, 40848, Note_off_c, 1, 32, 0
3, 40848, Note_on_c, 1, 39, 127
3, 40872, Note_off_c, 1, 39, 0
3, 40872, Note_on_c, 1, 44, 127
3, 40896, Note_off_c, 1, 44, 0
3, 40896, Note_on_c, 1, 32, 127
3, 40944, Note_off_c, 1, 32, 0
3, 40944, Note_on_c, 1, 44, 127
3, 40992, Note_off_c, 1, 44, 0
3, 40992, Note_on_c, 1, 39, 127
3, 41016, Note_off_c, 1, 39, 0
3, 41016, Note_on_c, 1, 32, 127
3, 41040, Note_off_c, 1, 32, 0
3, 41040, Note_on_c, 1, 39, 127
3, 41064, Note_off_c, 1, 39, 0
3, 41064, Note_on_c, 1, 44, 127
3, 41088, Note_off_c, 1, 44, 0
3, 41088, Note_on_c, 1, 32, 127
3, 41136, Note_off_c, 1, 32, 0
3, 41136, Note_on_c, 1, 44, 127
3, 41184, Note_off_c, 1, 44, 0
3, 41184, Note_on_c, 1, 39, 127
3, 41208, Note_off_c, 1, 39, 0
3, 41208, Note_on_c, 1, 32, 127
3, 41232, Note_off_c, 1, 32, 0
3, 41232, Note_on_c, 1, 39, 127
3, 41256, Note_off_c, 1, 39, 0
3, 41256, Note_on_c, 1, 44, 127
3, 41280, Note_off_c, 1, 44, 0
3, 41280, Note_on_c, 1, 32, 127
3, 41328, Note_off_c, 1, 32, 0
3, 41328, Note_on_c, 1, 44, 127
3, 41376, Note_off_c, 1, 44, 0
3, 41376, Note_on_c, 1, 39, 127
3, 41400, Note_off_c, 1, 39, 0
3, 41400, Note_on_c, 1, 32, 127
3, 41424, Note_off_c, 1, 32, 0
3, 41424, Note_on_c, 1, 39, 127
3, 41448, Note_off_c, 1, 39, 0
3, 41448, Note_on_c, 1, 44, 127
3, 41472, Note_off_c, 1, 44, 0
3, 41472, Note_on_c, 1, 31, 127
3, 41520, Note_off_c, 1, 31, 0
3, 41520, Note_on_c, 1, 43, 127
3, 41568, Note_off_c, 1, 43, 0
3, 41568, Note_on_c, 1, 38, 127
3, 41592, Note_off_c, 1, 38, 0
3, 41592, Note_on_c, 1, 31, 127
3, 41616, Note_off_c, 1, 31, 0
3, 41616, Note_on_c, 1, 38, 127
3, 41640, Note_off_c, 1, 38, 0
3, 41640, Note_on_c, 1, 43, 127
3, 41664, Note_off_c, 1, 43, 0
3, 41664, Note_on_c, 1, 31, 127
3, 41712, Note_off_c, 1, 31, 0
3, 41712, Note_on_c, 1, 43, 127
3, 41760, Note_off_c, 1, 43, 0
3, 41760, Note_on_c, 1, 38, 127
3, 41784, Note_off_c, 1, 38, 0
3, 41784, Note_on_c, 1, 31, 127
3, 41808, Note_off_c, 1, 31, 0
3, 41808, Note_on_c, 1, 38, 127
3, 41832, Note_off_c, 1, 38, 0
3, 41832, Note_on_c, 1, 43, 127
3, 41856, Note_off_c, 1, 43, 0
3, 41856, Note_on_c, 1, 31, 127
3, 41904, Note_off_c, 1, 31, 0
3, 41904, Note_on_c, 1, 43, 127
3, 41952, Note_off_c, 1, 43, 0
3, 41952, Note_on_c, 1, 38, 127
3, 41976, Note_off_c, 1, 38, 0
3, 41976, Note_on_c, 1, 31, 127
3, 42000, Note_off_c, 1, 31, 0
3, 42000, Note_on_c, 1, 38, 127
3, 42024, Note_off_c, 1, 38, 0
3, 42024, Note_on_c, 1, 43, 127
3, 42048, Note_off_c, 1, 43, 0
3, 42048, Note_on_c, 1, 31, 127
3, 42096, Note_off_c, 1, 31, 0
3, 42096, Note_on_c, 1, 43, 127
3, 42144, Note_off_c, 1, 43, 0
3, 42144, Note_on_c, 1, 38, 127
3, 42168, Note_off_c, 1, 38, 0
3, 42168, Note_on_c, 1, 31, 127
3, 42192, Note_off_c, 1, 31, 0
3, 42192, Note_on_c, 1, 38, 127
3, 42216, Note_off_c, 1, 38, 0
3, 42216, Note_on_c, 1, 43, 127
3, 42240, Note_off_c, 1, 43, 0
3, 42240, Note_on_c, 1, 32, 127
3, 42288, Note_off_c, 1, 32, 0
3, 42288, Note_on_c, 1, 44, 127
3, 42336, Note_off_c, 1, 44, 0
3, 42336, Note_on_c, 1, 39, 127
3, 42360, Note_off_c, 1, 39, 0
3, 42360, Note_on_c, 1, 32, 127
3, 42384, Note_off_c, 1, 32, 0
3, 42384, Note_on_c, 1, 39, 127
3, 42408, Note_off_c, 1, 39, 0
3, 42408, Note_on_c, 1, 44, 127
3, 42432, Note_off_c, 1, 44, 0
3, 42432, Note_on_c, 1, 32, 127
3, 42480, Note_off_c, 1, 32, 0
3, 42480, Note_on_c, 1, 44, 127
3, 42528, Note_off_c, 1, 44, 0
3, 42528, Note_on_c, 1, 39, 127
3, 42552, Note_off_c, 1, 39, 0
3, 42552, Note_on_c, 1, 32, 127
3, 42576, Note_off_c, 1, 32, 0
3, 42576, Note_on_c, 1, 39, 127
3, 42600, Note_off_c, 1, 39, 0
3, 42600, Note_on_c, 1, 44, 127
3, 42624, Note_off_c, 1, 44, 0
3, 42624, Note_on_c, 1, 32, 127
3, 42672, Note_off_c, 1, 32, 0
3, 42672, Note_on_c, 1, 44, 127
3, 42720, Note_off_c, 1, 44, 0
3, 42720, Note_on_c, 1, 39, 127
3, 42744, Note_off_c, 1, 39, 0
3, 42744, Note_on_c, 1, 32, 127
3, 42768, Note_off_c, 1, 32, 0
3, 42768, Note_on_c, 1, 39, 127
3, 42792, Note_off_c, 1, 39, 0
3, 42792, Note_on_c, 1, 44, 127
3, 42816, Note_off_c, 1, 44, 0
3, 42816, Note_on_c, 1, 32, 127
3, 42864, Note_off_c, 1, 32, 0
3, 42864, Note_on_c, 1, 44, 127
3, 42912, Note_off_c, 1, 44, 0
3, 42912, Note_on_c, 1, 39, 127
3, 42936, Note_off_c, 1, 39, 0
3, 42936, Note_on_c, 1, 32, 127
3, 42960, Note_off_c, 1, 32, 0
3, 42960, Note_on_c, 1, 39, 127
3, 42984, Note_off_c, 1, 39, 0
3, 42984, Note_on_c, 1, 44, 127
3, 43008, Note_off_c, 1, 44, 0
3, 43008, Note_on_c, 1, 31, 127
3, 43056, Note_off_c, 1, 31, 0
3, 43056, Note_on_c, 1, 43, 127
3, 43104, Note_off_c, 1, 43, 0
3, 43104, Note_on_c, 1, 38, 127
3, 43128, Note_off_c, 1, 38, 0
3, 43128, Note_on_c, 1, 31, 127
3, 43152, Note_off_c, 1, 31, 0
3, 43152, Note_on_c, 1, 38, 127
3, 43176, Note_off_c, 1, 38, 0
3, 43176, Note_on_c, 1, 43, 127
3, 43200, Note_off_c, 1, 43, 0
3, 43200, Note_on_c, 1, 31, 127
3, 43248, Note_off_c, 1, 31, 0
3, 43248, Note_on_c, 1, 43, 127
3, 43296, Note_off_c, 1, 43, 0
3, 43296, Note_on_c, 1, 38, 127
3, 43320, Note_off_c, 1, 38, 0
3, 43320, Note_on_c, 1, 31, 127
3, 43344, Note_off_c, 1, 31, 0
3, 43344, Note_on_c, 1, 38, 127
3, 43368, Note_off_c, 1, 38, 0
3, 43368, Note_on_c, 1, 43, 127
3, 43392, Note_off_c, 1, 43, 0
3, 43392, Note_on_c, 1, 31, 127
3, 43440, Note_off_c, 1, 31, 0
3, 43440, Note_on_c, 1, 43, 127
3, 43488, Note_off_c, 1, 43, 0
3, 43488, Note_on_c, 1, 38, 127
3, 43512, Note_off_c, 1, 38, 0
3, 43512, Note_on_c, 1, 31, 127
3, 43536, Note_off_c, 1, 31, 0
3, 43536, Note_on_c, 1, 38, 127
3, 43560, Note_off_c, 1, 38, 0
3, 43560, Note_on_c, 1, 43, 127
3, 43584, Note_off_c, 1, 43, 0
3, 43584, Note_on_c, 1, 31, 127
3, 43632, Note_off_c, 1, 31, 0
3, 43632, Note_on_c, 1, 43, 127
3, 43680, Note_off_c, 1, 43, 0
3, 43680, Note_on_c, 1, 38, 127
3, 43704, Note_off_c, 1, 38, 0
3, 43704, Note_on_c, 1, 31, 127
3, 43728, Note_off_c, 1, 31, 0
3, 43728, Note_on_c, 1, 38, 127
3, 43752, Note_off_c, 1, 38, 0
3, 43752, Note_on_c, 1, 43, 127
3, 43776, Note_off_c, 1, 43, 0
3, 43776, Note_on_c, 1, 36, 127
3, 43824, Note_off_c, 1, 36, 0
3, 43824, Note_on_c, 1, 48, 127
3, 43872, Note_off_c, 1, 48, 0
3, 43872, Note_on_c, 1, 43, 127
3, 43896, Note_off_c, 1, 43, 0
3, 43896, Note_on_c, 1, 36, 127
3, 43920, Note_off_c, 1, 36, 0
3, 43920, Note_on_c, 1, 43, 127
3, 43944, Note_off_c, 1, 43, 0
3, 43944, Note_on_c, 1, 48, 127
3, 43968, Note_off_c, 1, 48, 0
3, 43968, Note_on_c, 1, 36, 127
3, 44016, Note_off_c, 1, 36, 0
3, 44016, Note_on_c, 1, 48, 127
3, 44064, Note_off_c, 1, 48, 0
3, 44064, Note_on_c, 1, 43, 127
3, 44088, Note_off_c, 1, 43, 0
3, 44088, Note_on_c, 1, 36, 127
3, 44112, Note_off_c, 1, 36, 0
3, 44112, Note_on_c, 1, 43, 127
3, 44136, Note_off_c, 1, 43, 0
3, 44136, Note_on_c, 1, 48, 127
3, 44160, Note_off_c, 1, 48, 0
3, 44160, Note_on_c, 1, 36, 127
3, 44208, Note_off_c, 1, 36, 0
3, 44208, Note_on_c, 1, 48, 127
3, 44256, Note_off_c, 1, 48, 0
3, 44256, Note_on_c, 1, 43, 127
3, 44280, Note_off_c, 1, 43, 0
3, 44280, Note_on_c, 1, 36, 127
3, 44304, Note_off_c, 1, 36, 0
3, 44304, Note_on_c, 1, 43, 127
3, 44328, Note_off_c, 1, 43, 0
3, 44328, Note_on_c, 1, 48, 127
3, 44352, Note_off_c, 1, 48, 0
3, 44352, Note_on_c, 1, 34, 127
3, 44400, Note_off_c, 1, 34, 0
3, 44400, Note_on_c, 1, 46, 127
3, 44448, Note_off_c, 1, 46, 0
3, 44448, Note_on_c, 1, 41, 127
3, 44472, Note_off_c, 1, 41, 0
3, 44472, Note_on_c, 1, 34, 127
3, 44496, Note_off_c, 1, 34, 0
3, 44496, Note_on_c, 1, 41, 127
3, 44520, Note_off_c, 1, 41, 0
3, 44520, Note_on_c, 1, 46, 127
3, 44544, Note_off_c, 1, 46, 0
3, 44544, Note_on_c, 1, 32, 127
3, 44592, Note_off_c, 1, 32, 0
3, 44592, Note_on_c, 1, 44, 127
3, 44640, Note_off_c, 1, 44, 0
3, 44640, Note_on_c, 1, 39, 127
3, 44664, Note_off_c, 1, 39, 0
3, 44664, Note_on_c, 1, 32, 127
3, 44688, Note_off_c, 1, 32, 0
3, 44688, Note_on_c, 1, 39, 127
3, 44712, Note_off_c, 1, 39, 0
3, 44712, Note_on_c, 1, 44, 127
3, 44736, Note_off_c, 1, 44, 0
3, 44736, Note_on_c, 1, 32, 127
3, 44784, Note_off_c, 1, 32, 0
3, 44784, Note_on_c, 1, 44, 127
3, 44832, Note_off_c, 1, 44, 0
3, 44832, Note_on_c, 1, 39, 127
3, 44856, Note_off_c, 1, 39, 0
3, 44856, Note_on_c, 1, 32, 127
3, 44880, Note_off_c, 1, 32, 0
3, 44880, Note_on_c, 1, 39, 127
3, 44904, Note_off_c, 1, 39, 0
3, 44904, Note_on_c, 1, 44, 127
3, 44928, Note_off_c, 1, 44, 0
3, 44928, Note_on_c, 1, 32, 127
3, 44976, Note_off_c, 1, 32, 0
3, 44976, Note_on_c, 1, 44, 127
3, 45024, Note_off_c, 1, 44, 0
3, 45024, Note_on_c, 1, 39, 127
3, 45048, Note_off_c, 1, 39, 0
3, 45048, Note_on_c, 1, 32, 127
3, 45072, Note_off_c, 1, 32, 0
3, 45072, Note_on_c, 1, 39, 127
3, 45096, Note_off_c, 1, 39, 0
3, 45096, Note_on_c, 1, 44, 127
3, 45120, Note_off_c, 1, 44, 0
3, 45120, Note_on_c, 1, 34, 127
3, 45168, Note_off_c, 1, 34, 0
3, 45168, Note_on_c, 1, 46, 127
3, 45216, Note_off_c, 1, 46, 0
3, 45216, Note_on_c, 1, 41, 127
3, 45240, Note_off_c, 1, 41, 0
3, 45240, Note_on_c, 1, 34, 127
3, 45264, Note_off_c, 1, 34, 0
3, 45264, Note_on_c, 1, 41, 127
3, 45288, Note_off_c, 1, 41, 0
3, 45288, Note_on_c, 1, 46, 127
3, 45312, Note_off_c, 1, 46, 0
3, 45312, Note_on_c, 1, 36, 127
3, 45360, Note_off_c, 1, 36, 0
3, 45360, Note_on_c, 1, 48, 127
3, 45408, Note_off_c, 1, 48, 0
3, 45408, Note_on_c, 1, 43, 127
3, 45432, Note_off_c, 1, 43, 0
3, 45432, Note_on_c, 1, 36, 127
3, 45456, Note_off_c, 1, 36, 0
3, 45456, Note_on_c, 1, 43, 127
3, 45480, Note_off_c, 1, 43, 0
3, 45480, Note_on_c, 1, 48, 127
3, 45504, Note_off_c, 1, 48, 0
3, 45504, Note_on_c, 1, 36, 127
3, 45552, Note_off_c, 1, 36, 0
3, 45552, Note_on_c, 1, 48, 127
3, 45600, Note_off_c, 1, 48, 0
3, 45600, Note_on_c, 1, 43, 127
3, 45624, Note_off_c, 1, 43, 0
3, 45624, Note_on_c, 1, 36, 127
3, 45648, Note_off_c, 1, 36, 0
3, 45648, Note_on_c, 1, 43, 127
3, 45672, Note_off_c, 1, 43, 0
3, 45672, Note_on_c, 1, 48, 127
3, 45696, Note_off_c, 1, 48, 0
3, 45696, Note_on_c, 1, 36, 127
3, 45744, Note_off_c, 1, 36, 0
3, 45744, Note_on_c, 1, 48, 127
3, 45792, Note_off_c, 1, 48, 0
3, 45792, Note_on_c, 1, 43, 127
3, 45816, Note_off_c, 1, 43, 0
3, 45816, Note_on_c, 1, 36, 127
3, 45840, Note_off_c, 1, 36, 0
3, 45840, Note_on_c, 1, 43, 127
3, 45864, Note_off_c, 1, 43, 0
3, 45864, Note_on_c, 1, 48, 127
3, 45888, Note_off_c, 1, 48, 0
3, 45888, Note_on_c, 1, 34, 127
3, 45936, Note_off_c, 1, 34, 0
3, 45936, Note_on_c, 1, 46, 127
3, 45984, Note_off_c, 1, 46, 0
3, 45984, Note_on_c, 1, 41, 127
3, 46008, Note_off_c, 1, 41, 0
3, 46008, Note_on_c, 1, 34, 127
3, 46032, Note_off_c, 1, 34, 0
3, 46032, Note_on_c, 1, 41, 127
3, 46056, Note_off_c, 1, 41, 0
3, 46056, Note_on_c, 1, 46, 127
3, 46080, Note_off_c, 1, 46, 0
3, 46080, Note_on_c, 1, 32, 127
3, 46128, Note_off_c, 1, 32, 0
3, 46128, Note_on_c, 1, 44, 127
3, 46176, Note_off_c, 1, 44, 0
3, 46176, Note_on_c, 1, 39, 127
3, 46200, Note_off_c, 1, 39, 0
3, 46200, Note_on_c, 1, 32, 127
3, 46224, Note_off_c, 1, 32, 0
3, 46224, Note_on_c, 1, 39, 127
3, 46248, Note_off_c, 1, 39, 0
3, 46248, Note_on_c, 1, 44, 127
3, 46272, Note_off_c, 1, 44, 0
3, 46272, Note_on_c, 1, 32, 127
3, 46320, Note_off_c, 1, 32, 0
3, 46320, Note_on_c, 1, 44, 127
3, 46368, Note_off_c, 1, 44, 0
3, 46368, Note_on_c, 1, 39, 127
3, 46392, Note_off_c, 1, 39, 0
3, 46392, Note_on_c, 1, 32, 127
3, 46416, Note_off_c, 1, 32, 0
3, 46416, Note_on_c, 1, 39, 127
3, 46440, Note_off_c, 1, 39, 0
3, 46440, Note_on_c, 1, 44, 127
3, 46464, Note_off_c, 1, 44, 0
3, 46464, Note_on_c, 1, 32, 127
3, 46512, Note_off_c, 1, 32, 0
3, 46512, Note_on_c, 1, 44, 127
3, 46560, Note_off_c, 1, 44, 0
3, 46560, Note_on_c, 1, 39, 127
3, 46584, Note_off_c, 1, 39, 0
3, 46584, Note_on_c, 1, 32, 127
3, 46608, Note_off_c, 1, 32, 0
3, 46608, Note_on_c, 1, 39, 127
3, 46632, Note_off_c, 1, 39, 0
3, 46632, Note_on_c, 1, 44, 127
3, 46656, Note_off_c, 1, 44, 0
3, 46656, Note_on_c, 1, 34, 127
3, 46704, Note_off_c, 1, 34, 0
3, 46704, Note_on_c, 1, 46, 127
3, 46752, Note_off_c, 1, 46, 0
3, 46752, Note_on_c, 1, 41, 127
3, 46776, Note_off_c, 1, 41, 0
3, 46776, Note_on_c, 1, 34, 127
3, 46800, Note_off_c, 1, 34, 0
3, 46800, Note_on_c, 1, 41, 127
3, 46824, Note_off_c, 1, 41, 0
3, 46824, Note_on_c, 1, 46, 127
3, 46848, Note_off_c, 1, 46, 0
3, 46848, Note_on_c, 1, 36, 127
3, 46896, Note_off_c, 1, 36, 0
3, 46896, Note_on_c, 1, 48, 127
3, 46944, Note_off_c, 1, 48, 0
3, 46944, Note_on_c, 1, 43, 127
3, 46968, Note_off_c, 1, 43, 0
3, 46968, Note_on_c, 1, 36, 127
3, 46992, Note_off_c, 1, 36, 0
3, 46992, Note_on_c, 1, 43, 127
3, 47016, Note_off_c, 1, 43, 0
3, 47016, Note_on_c, 1, 48, 127
3, 47040, Note_off_c, 1, 48, 0
3, 47040, Note_on_c, 1, 36, 127
3, 47088, Note_off_c, 1, 36, 0
3, 47088, Note_on_c, 1, 48, 127
3, 47136, Note_off_c, 1, 48, 0
3, 47136, Note_on_c, 1, 43, 127
3, 47160, Note_off_c, 1, 43, 0
3, 47160, Note_on_c, 1, 36, 127
3, 47184, Note_off_c, 1, 36, 0
3, 47184, Note_on_c, 1, 43, 127
3, 47208, Note_off_c, 1, 43, 0
3, 47208, Note_on_c, 1, 48, 127
3, 47232, Note_off_c, 1, 48, 0
3, 47232, Note_on_c, 1, 36, 127
3, 47280, Note_off_c, 1, 36, 0
3, 47280, Note_on_c, 1, 48, 127
3, 47328, Note_off_c, 1, 48, 0
3, 47328, Note_on_c, 1, 43, 127
3, 47352, Note_off_c, 1, 43, 0
3, 47352, Note_on_c, 1, 36, 127
3, 47376, Note_off_c, 1, 36, 0
3, 47376, Note_on_c, 1, 43, 127
3, 47400, Note_off_c, 1, 43, 0
3, 47400, Note_on_c, 1, 48, 127
3, 47424, Note_off_c, 1, 48, 0
3, 47424, Note_on_c, 1, 34, 127
3, 47472, Note_off_c, 1, 34, 0
3, 47472, Note_on_c, 1, 46, 127
3, 47520, Note_off_c, 1, 46, 0
3, 47520, Note_on_c, 1, 41, 127
3, 47544, Note_off_c, 1, 41, 0
3, 47544, Note_on_c, 1, 34, 127
3, 47568, Note_off_c, 1, 34, 0
3, 47568, Note_on_c, 1, 41, 127
3, 47592, Note_off_c, 1, 41, 0
3, 47592, Note_on_c, 1, 46, 127
3, 47616, Note_off_c, 1, 46, 0
3, 47616, Note_on_c, 1, 32, 127
3, 47664, Note_off_c, 1, 32, 0
3, 47664, Note_on_c, 1, 44, 127
3, 47712, Note_off_c, 1, 44, 0
3, 47712, Note_on_c, 1, 39, 127
3, 47736, Note_off_c, 1, 39, 0
3, 47736, Note_on_c, 1, 32, 127
3, 47760, Note_off_c, 1, 32, 0
3, 47760, Note_on_c, 1, 39, 127
3, 47784, Note_off_c, 1, 39, 0
3, 47784, Note_on_c, 1, 44, 127
3, 47808, Note_off_c, 1, 44, 0
3, 47808, Note_on_c, 1, 32, 127
3, 47856, Note_off_c, 1, 32, 0
3, 47856, Note_on_c, 1, 44, 127
3, 47904, Note_off_c, 1, 44, 0
3, 47904, Note_on_c, 1, 39, 127
3, 47928, Note_off_c, 1, 39, 0
3, 47928, Note_on_c, 1, 32, 127
3, 47952, Note_off_c, 1, 32, 0
3, 47952, Note_on_c, 1, 39, 127
3, 47976, Note_off_c, 1, 39, 0
3, 47976, Note_on_c, 1, 44, 127
3, 48000, Note_off_c, 1, 44, 0
3, 48000, Note_on_c, 1, 32, 127
3, 48048, Note_off_c, 1, 32, 0
3, 48048, Note_on_c, 1, 44, 127
3, 48096, Note_off_c, 1, 44, 0
3, 48096, Note_on_c, 1, 39, 127
3, 48120, Note_off_c, 1, 39, 0
3, 48120, Note_on_c, 1, 32, 127
3, 48144, Note_off_c, 1, 32, 0
3, 48144, Note_on_c, 1, 39, 127
3, 48168, Note_off_c, 1, 39, 0
3, 48168, Note_on_c, 1, 44, 127
3, 48192, Note_off_c, 1, 44, 0
3, 48192, Note_on_c, 1, 34, 127
3, 48240, Note_off_c, 1, 34, 0
3, 48240, Note_on_c, 1, 46, 127
3, 48288, Note_off_c, 1, 46, 0
3, 48288, Note_on_c, 1, 41, 127
3, 48312, Note_off_c, 1, 41, 0
3, 48312, Note_on_c, 1, 34, 127
3, 48336, Note_off_c, 1, 34, 0
3, 48336, Note_on_c, 1, 41, 127
3, 48360, Note_off_c, 1, 41, 0
3, 48360, Note_on_c, 1, 46, 127
3, 48384, Note_off_c, 1, 46, 0
3, 48384, Note_on_c, 1, 36, 127
3, 48432, Note_off_c, 1, 36, 0
3, 48432, Note_on_c, 1, 48, 127
3, 48480, Note_off_c, 1, 48, 0
3, 48480, Note_on_c, 1, 43, 127
3, 48504, Note_off_c, 1, 43, 0
3, 48504, Note_on_c, 1, 36, 127
3, 48528, Note_off_c, 1, 36, 0
3, 48528, Note_on_c, 1, 43, 127
3, 48552, Note_off_c, 1, 43, 0
3, 48552, Note_on_c, 1, 48, 127
3, 48576, Note_off_c, 1, 48, 0
3, 48576, Note_on_c, 1, 36, 127
3, 48624, Note_off_c, 1, 36, 0
3, 48624, Note_on_c, 1, 48, 127
3, 48672, Note_off_c, 1, 48, 0
3, 48672, Note_on_c, 1, 43, 127
3, 48696, Note_off_c, 1, 43, 0
3, 48696, Note_on_c, 1, 36, 127
3, 48720, Note_off_c, 1, 36, 0
3, 48720, Note_on_c, 1, 43, 127
3, 48744, Note_off_c, 1, 43, 0
3, 48744, Note_on_c, 1, 48, 127
3, 48768, Note_off_c, 1, 48, 0
3, 48768, Note_on_c, 1, 36, 127
3, 48816, Note_off_c, 1, 36, 0
3, 48816, Note_on_c, 1, 48, 127
3, 48864, Note_off_c, 1, 48, 0
3, 48864, Note_on_c, 1, 43, 127
3, 48888, Note_off_c, 1, 43, 0
3, 48888, Note_on_c, 1, 36, 127
3, 48912, Note_off_c, 1, 36, 0
3, 48912, Note_on_c, 1, 43, 127
3, 48936, Note_off_c, 1, 43, 0
3, 48936, Note_on_c, 1, 48, 127
3, 48960, Note_off_c, 1, 48, 0
3, 48960, Note_on_c, 1, 34, 127
3, 49008, Note_off_c, 1, 34, 0
3, 49008, Note_on_c, 1, 46, 127
3, 49056, Note_off_c, 1, 46, 0
3, 49056, Note_on_c, 1, 41, 127
3, 49080, Note_off_c, 1, 41, 0
3, 49080, Note_on_c, 1, 34, 127
3, 49104, Note_off_c, 1, 34, 0
3, 49104, Note_on_c, 1, 41, 127
3, 49128, Note_off_c, 1, 41, 0
3, 49128, Note_on_c, 1, 46, 127
3, 49152, Note_off_c, 1, 46, 0
3, 49152, Note_on_c, 1, 32, 127
3, 49200, Note_off_c, 1, 32, 0
3, 49200, Note_on_c, 1, 44, 127
3, 49248, Note_off_c, 1, 44, 0
3, 49248, Note_on_c, 1, 39, 127
3, 49272, Note_off_c, 1, 39, 0
3, 49272, Note_on_c, 1, 32, 127
3, 49296, Note_off_c, 1, 32, 0
3, 49296, Note_on_c, 1, 39, 127
3, 49320, Note_off_c, 1, 39, 0
3, 49320, Note_on_c, 1, 44, 127
3, 49344, Note_off_c, 1, 44, 0
3, 49344, Note_on_c, 1, 32, 127
3, 49392, Note_off_c, 1, 32, 0
3, 49392, Note_on_c, 1, 44, 127
3, 49440, Note_off_c, 1, 44, 0
3, 49440, Note_on_c, 1, 39, 127
3, 49464, Note_off_c, 1, 39, 0
3, 49464, Note_on_c, 1, 32, 127
3, 49488, Note_off_c, 1, 32, 0
3, 49488, Note_on_c, 1, 39, 127
3, 49512, Note_off_c, 1, 39, 0
3, 49512, Note_on_c, 1, 44, 127
3, 49536, Note_off_c, 1, 44, 0
3, 49536, Note_on_c, 1, 32, 127
3, 49584, Note_off_c, 1, 32, 0
3, 49584, Note_on_c, 1, 44, 127
3, 49632, Note_off_c, 1, 44, 0
3, 49632, Note_on_c, 1, 39, 127
3, 49656, Note_off_c, 1, 39, 0
3, 49656, Note_on_c, 1, 32, 127
3, 49680, Note_off_c, 1, 32, 0
3, 49680, Note_on_c, 1, 39, 127
3, 49704, Note_off_c, 1, 39, 0
3, 49704, Note_on_c, 1, 44, 127
3, 49728, Note_off_c, 1, 44, 0
3, 49728, Note_on_c, 1, 34, 127
3, 49776, Note_off_c, 1, 34, 0
3, 49776, Note_on_c, 1, 46, 127
3, 49824, Note_off_c, 1, 46, 0
3, 49824, Note_on_c, 1, 41, 127
3, 49848, Note_off_c, 1, 41, 0
3, 49848, Note_on_c, 1, 34, 127
3, 49872, Note_off_c, 1, 34, 0
3, 49872, Note_on_c, 1, 41, 127
3, 49896, Note_off_c, 1, 41, 0
3, 49896, Note_on_c, 1, 46, 127
3, 49920, Note_off_c, 1, 46, 0
3, 52992, Note_on_c, 1, 36, 127
3, 53040, Note_off_c, 1, 36, 0
3, 53040, Note_on_c, 1, 48, 127
3, 53088, Note_off_c, 1, 48, 0
3, 53088, Note_on_c, 1, 43, 127
3, 53112, Note_off_c, 1, 43, 0
3, 53112, Note_on_c, 1, 36, 127
3, 53136, Note_off_c, 1, 36, 0
3, 53136, Note_on_c, 1, 43, 127
3, 53160, Note_off_c, 1, 43, 0
3, 53160, Note_on_c, 1, 48, 127
3, 53184, Note_off_c, 1, 48, 0
3, 53184, Note_on_c, 1, 36, 127
3, 53232, Note_off_c, 1, 36, 0
3, 53232, Note_on_c, 1, 48, 127
3, 53280, Note_off_c, 1, 48, 0
3, 53280, Note_on_c, 1, 43, 127
3, 53304, Note_off_c, 1, 43, 0
3, 53304, Note_on_c, 1, 36, 127
3, 53328, Note_off_c, 1, 36, 0
3, 53328, Note_on_c, 1, 43, 127
3, 53352, Note_off_c, 1, 43, 0
3, 53352, Note_on_c, 1, 48, 127
3, 53376, Note_off_c, 1, 48, 0
3, 53376, Note_on_c, 1, 35, 127
3, 53424, Note_off_c, 1, 35, 0
3, 53424, Note_on_c, 1, 47, 127
3, 53472, Note_off_c, 1, 47, 0
3, 53472, Note_on_c, 1, 43, 127
3, 53496, Note_off_c, 1, 43, 0
3, 53496, Note_on_c, 1, 35, 127
3, 53520, Note_off_c, 1, 35, 0
3, 53520, Note_on_c, 1, 43, 127
3, 53544, Note_off_c, 1, 43, 0
3, 53544, Note_on_c, 1, 47, 127
3, 53568, Note_off_c, 1, 47, 0
3, 53568, Note_on_c, 1, 35, 127
3, 53616, Note_off_c, 1, 35, 0
3, 53616, Note_on_c, 1, 47, 127
3, 53664, Note_off_c, 1, 47, 0
3, 53664, Note_on_c, 1, 43, 127
3, 53688, Note_off_c, 1, 43, 0
3, 53688, Note_on_c, 1, 35, 127
3, 53712, Note_off_c, 1, 35, 0
3, 53712, Note_on_c, 1, 43, 127
3, 53736, Note_off_c, 1, 43, 0
3, 53736, Note_on_c, 1, 47, 127
3, 53760, Note_off_c, 1, 47, 0
3, 53760, Note_on_c, 1, 32, 127
3, 53808, Note_off_c, 1, 32, 0
3, 53808, Note_on_c, 1, 44, 127
3, 53856, Note_off_c, 1, 44, 0
3, 53856, Note_on_c, 1, 39, 127
3, 53880, Note_off_c, 1, 39, 0
3, 53880, Note_on_c, 1, 32, 127
3, 53904, Note_off_c, 1, 32, 0
3, 53904, Note_on_c, 1, 39, 127
3, 53928, Note_off_c, 1, 39, 0
3, 53928, Note_on_c, 1, 44, 127
3, 53952, Note_off_c, 1, 44, 0
3, 53952, Note_on_c, 1, 32, 127
3, 54000, Note_off_c, 1, 32, 0
3, 54000, Note_on_c, 1, 44, 127
3, 54048, Note_off_c, 1, 44, 0
3, 54048, Note_on_c, 1, 39, 127
3, 54072, Note_off_c, 1, 39, 0
3, 54072, Note_on_c, 1, 32, 127
3, 54096, Note_off_c, 1, 32, 0
3, 54096, Note_on_c, 1, 39, 127
3, 54120, Note_off_c, 1, 39, 0
3, 54120, Note_on_c, 1, 44, 127
3, 54144, Note_off_c, 1, 44, 0
3, 54144, Note_on_c, 1, 31, 127
3, 54192, Note_off_c, 1, 31, 0
3, 54192, Note_on_c, 1, 43, 127
3, 54240, Note_off_c, 1, 43, 0
3, 54240, Note_on_c, 1, 38, 127
3, 54264, Note_off_c, 1, 38, 0
3, 54264, Note_on_c, 1, 31, 127
3, 54288, Note_off_c, 1, 31, 0
3, 54288, Note_on_c, 1, 38, 127
3, 54312, Note_off_c, 1, 38, 0
3, 54312, Note_on_c, 1, 43, 127
3, 54336, Note_off_c, 1, 43, 0
3, 54336, Note_on_c, 1, 31, 127
3, 54384, Note_off_c, 1, 31, 0
3, 54384, Note_on_c, 1, 43, 127
3, 54432, Note_off_c, 1, 43, 0
3, 54432, Note_on_c, 1, 38, 127
3, 54456, Note_off_c, 1, 38, 0
3, 54456, Note_on_c, 1, 31, 127
3, 54480, Note_off_c, 1, 31, 0
3, 54480, Note_on_c, 1, 38, 127
3, 54504, Note_off_c, 1, 38, 0
3, 54504, Note_on_c, 1, 43, 127
3, 54528, Note_off_c, 1, 43, 0
3, 54528, Note_on_c, 1, 36, 127
3, 54576, Note_off_c, 1, 36, 0
3, 54576, Note_on_c, 1, 48, 127
3, 54624, Note_off_c, 1, 48, 0
3, 54624, Note_on_c, 1, 43, 127
3, 54648, Note_off_c, 1, 43, 0
3, 54648, Note_on_c, 1, 36, 127
3, 54672, Note_off_c, 1, 36, 0
3, 54672, Note_on_c, 1, 43, 127
3, 54696, Note_off_c, 1, 43, 0
3, 54696, Note_on_c, 1, 48, 127
3, 54720, Note_off_c, 1, 48, 0
3, 54720, Note_on_c, 1, 36, 127
3, 54768, Note_off_c, 1, 36, 0
3, 54768, Note_on_c, 1, 48, 127
3, 54816, Note_off_c, 1, 48, 0
3, 54816, Note_on_c, 1, 43, 127
3, 54840, Note_off_c, 1, 43, 0
3, 54840, Note_on_c, 1, 36, 127
3, 54864, Note_off_c, 1, 36, 0
3, 54864, Note_on_c, 1, 43, 127
3, 54888, Note_off_c, 1, 43, 0
3, 54888, Note_on_c, 1, 48, 127
3, 54912, Note_off_c, 1, 48, 0
3, 54912, Note_on_c, 1, 35, 127
3, 54960, Note_off_c, 1, 35, 0
3, 54960, Note_on_c, 1, 47, 127
3, 55008, Note_off_c, 1, 47, 0
3, 55008, Note_on_c, 1, 43, 127
3, 55032, Note_off_c, 1, 43, 0
3, 55032, Note_on_c, 1, 35, 127
3, 55056, Note_off_c, 1, 35, 0
3, 55056, Note_on_c, 1, 43, 127
3, 55080, Note_off_c, 1, 43, 0
3, 55080, Note_on_c, 1, 47, 127
3, 55104, Note_off_c, 1, 47, 0
3, 55104, Note_on_c, 1, 35, 127
3, 55152, Note_off_c, 1, 35, 0
3, 55152, Note_on_c, 1, 47, 127
3, 55200, Note_off_c, 1, 47, 0
3, 55200, Note_on_c, 1, 43, 127
3, 55224, Note_off_c, 1, 43, 0
3, 55224, Note_on_c, 1, 35, 127
3, 55248, Note_off_c, 1, 35, 0
3, 55248, Note_on_c, 1, 43, 127
3, 55272, Note_off_c, 1, 43, 0
3, 55272, Note_on_c, 1, 47, 127
3, 55296, Note_off_c, 1, 47, 0
3, 55296, Note_on_c, 1, 32, 127
3, 55344, Note_off_c, 1, 32, 0
3, 55344, Note_on_c, 1, 44, 127
3, 55392, Note_off_c, 1, 44, 0
3, 55392, Note_on_c, 1, 39, 127
3, 55416, Note_off_c, 1, 39, 0
3, 55416, Note_on_c, 1, 32, 127
3, 55440, Note_off_c, 1, 32, 0
3, 55440, Note_on_c, 1, 39, 127
3, 55464, Note_off_c, 1, 39, 0
3, 55464, Note_on_c, 1, 44, 127
3, 55488, Note_off_c, 1, 44, 0
3, 55488, Note_on_c, 1, 32, 127
3, 55536, Note_off_c, 1, 32, 0
3, 55536, Note_on_c, 1, 44, 127
3, 55584, Note_off_c, 1, 44, 0
3, 55584, Note_on_c, 1, 39, 127
3, 55608, Note_off_c, 1, 39, 0
3, 55608, Note_on_c, 1, 32, 127
3, 55632, Note_off_c, 1, 32, 0
3, 55632, Note_on_c, 1, 39, 127
3, 55656, Note_off_c, 1, 39, 0
3, 55656, Note_on_c, 1, 44, 127
3, 55680, Note_off_c, 1, 44, 0
3, 55680, Note_on_c, 1, 31, 127
3, 55728, Note_off_c, 1, 31, 0
3, 55728, Note_on_c, 1, 43, 127
3, 55776, Note_off_c, 1, 43, 0
3, 55776, Note_on_c, 1, 38, 127
3, 55800, Note_off_c, 1, 38, 0
3, 55800, Note_on_c, 1, 31, 127
3, 55824, Note_off_c, 1, 31, 0
3, 55824, Note_on_c, 1, 38, 127
3, 55848, Note_off_c, 1, 38, 0
3, 55848, Note_on_c, 1, 43, 127
3, 55872, Note_off_c, 1, 43, 0
3, 55872, Note_on_c, 1, 31, 127
3, 55920, Note_off_c, 1, 31, 0
3, 55920, Note_on_c, 1, 43, 127
3, 55968, Note_off_c, 1, 43, 0
3, 55968, Note_on_c, 1, 38, 127
3, 55992, Note_off_c, 1, 38, 0
3, 55992, Note_on_c, 1, 31, 127
3, 56016, Note_off_c, 1, 31, 0
3, 56016, Note_on_c, 1, 38, 127
3, 56040, Note_off_c, 1, 38, 0
3, 56040, Note_on_c, 1, 43, 127
3, 56064, Note_off_c, 1, 43, 0
3, 56064, Note_on_c, 1, 32, 127
3, 56112, Note_off_c, 1, 32, 0
3, 56112, Note_on_c, 1, 44, 127
3, 56160, Note_off_c, 1, 44, 0
3, 56160, Note_on_c, 1, 39, 127
3, 56184, Note_off_c, 1, 39, 0
3, 56184, Note_on_c, 1, 32, 127
3, 56208, Note_off_c, 1, 32, 0
3, 56208, Note_on_c, 1, 39, 127
3, 56232, Note_off_c, 1, 39, 0
3, 56232, Note_on_c, 1, 44, 127
3, 56256, Note_off_c, 1, 44, 0
3, 56256, Note_on_c, 1, 32, 127
3, 56304, Note_off_c, 1, 32, 0
3, 56304, Note_on_c, 1, 44, 127
3, 56352, Note_off_c, 1, 44, 0
3, 56352, Note_on_c, 1, 39, 127
3, 56376, Note_off_c, 1, 39, 0
3, 56376, Note_on_c, 1, 32, 127
3, 56400, Note_off_c, 1, 32, 0
3, 56400, Note_on_c, 1, 39, 127
3, 56424, Note_off_c, 1, 39, 0
3, 56424, Note_on_c, 1, 44, 127
3, 56448, Note_off_c, 1, 44, 0
3, 56448, Note_on_c, 1, 32, 127
3, 56496, Note_off_c, 1, 32, 0
3, 56496, Note_on_c, 1, 44, 127
3, 56544, Note_off_c, 1, 44, 0
3, 56544, Note_on_c, 1, 39, 127
3, 56568, Note_off_c, 1, 39, 0
3, 56568, Note_on_c, 1, 32, 127
3, 56592, Note_off_c, 1, 32, 0
3, 56592, Note_on_c, 1, 39, 127
3, 56616, Note_off_c, 1, 39, 0
3, 56616, Note_on_c, 1, 44, 127
3, 56640, Note_off_c, 1, 44, 0
3, 56640, Note_on_c, 1, 32, 127
3, 56688, Note_off_c, 1, 32, 0
3, 56688, Note_on_c, 1, 44, 127
3, 56736, Note_off_c, 1, 44, 0
3, 56736, Note_on_c, 1, 39, 127
3, 56760, Note_off_c, 1, 39, 0
3, 56760, Note_on_c, 1, 32, 127
3, 56784, Note_off_c, 1, 32, 0
3, 56784, Note_on_c, 1, 39, 127
3, 56808, Note_off_c, 1, 39, 0
3, 56808, Note_on_c, 1, 44, 127
3, 56832, Note_off_c, 1, 44, 0
3, 56832, Note_on_c, 1, 31, 127
3, 56880, Note_off_c, 1, 31, 0
3, 56880, Note_on_c, 1, 43, 127
3, 56928, Note_off_c, 1, 43, 0
3, 56928, Note_on_c, 1, 38, 127
3, 56952, Note_off_c, 1, 38, 0
3, 56952, Note_on_c, 1, 31, 127
3, 56976, Note_off_c, 1, 31, 0
3, 56976, Note_on_c, 1, 38, 127
3, 57000, Note_off_c, 1, 38, 0
3, 57000, Note_on_c, 1, 43, 127
3, 57024, Note_off_c, 1, 43, 0
3, 57024, Note_on_c, 1, 31, 127
3, 57072, Note_off_c, 1, 31, 0
3, 57072, Note_on_c, 1, 43, 127
3, 57120, Note_off_c, 1, 43, 0
3, 57120, Note_on_c, 1, 38, 127
3, 57144, Note_off_c, 1, 38, 0
3, 57144, Note_on_c, 1, 31, 127
3, 57168, Note_off_c, 1, 31, 0
3, 57168, Note_on_c, 1, 38, 127
3, 57192, Note_off_c, 1, 38, 0
3, 57192, Note_on_c, 1, 43, 127
3, 57216, Note_off_c, 1, 43, 0
3, 57216, Note_on_c, 1, 31, 127
3, 57264, Note_off_c, 1, 31, 0
3, 57264, Note_on_c, 1, 43, 127
3, 57312, Note_off_c, 1, 43, 0
3, 57312, Note_on_c, 1, 38, 127
3, 57336, Note_off_c, 1, 38, 0
3, 57336, Note_on_c, 1, 31, 127
3, 57360, Note_off_c, 1, 31, 0
3, 57360, Note_on_c, 1, 38, 127
3, 57384, Note_off_c, 1, 38, 0
3, 57384, Note_on_c, 1, 43, 127
3, 57408, Note_off_c, 1, 43, 0
3, 57408, Note_on_c, 1, 31, 127
3, 57456, Note_off_c, 1, 31, 0
3, 57456, Note_on_c, 1, 43, 127
3, 57504, Note_off_c, 1, 43, 0
3, 57504, Note_on_c, 1, 38, 127
3, 57528, Note_off_c, 1, 38, 0
3, 57528, Note_on_c, 1, 31, 127
3, 57552, Note_off_c, 1, 31, 0
3, 57552, Note_on_c, 1, 38, 127
3, 57576, Note_off_c, 1, 38, 0
3, 57576, Note_on_c, 1, 43, 127
3, 57600, Note_off_c, 1, 43, 0
3, 57600, Note_on_c, 1, 32, 127
3, 57648, Note_off_c, 1, 32, 0
3, 57648, Note_on_c, 1, 44, 127
3, 57696, Note_off_c, 1, 44, 0
3, 57696, Note_on_c, 1, 39, 127
3, 57720, Note_off_c, 1, 39, 0
3, 57720, Note_on_c, 1, 32, 127
3, 57744, Note_off_c, 1, 32, 0
3, 57744, Note_on_c, 1, 39, 127
3, 57768, Note_off_c, 1, 39, 0
3, 57768, Note_on_c, 1, 44, 127
3, 57792, Note_off_c, 1, 44, 0
3, 57792, Note_on_c, 1, 32, 127
3, 57840, Note_off_c, 1, 32, 0
3, 57840, Note_on_c, 1, 44, 127
3, 57888, Note_off_c, 1, 44, 0
3, 57888, Note_on_c, 1, 39, 127
3, 57912, Note_off_c, 1, 39, 0
3, 57912, Note_on_c, 1, 32, 127
3, 57936, Note_off_c, 1, 32, 0
3, 57936, Note_on_c, 1, 39, 127
3, 57960, Note_off_c, 1, 39, 0
3, 57960, Note_on_c, 1, 44, 127
3, 57984, Note_off_c, 1, 44, 0
3, 57984, Note_on_c, 1, 32, 127
3, 58032, Note_off_c, 1, 32, 0
3, 58032, Note_on_c, 1, 44, 127
3, 58080, Note_off_c, 1, 44, 0
3, 58080, Note_on_c, 1, 39, 127
3, 58104, Note_off_c, 1, 39, 0
3, 58104, Note_on_c, 1, 32, 127
3, 58128, Note_off_c, 1, 32, 0
3, 58128, Note_on_c, 1, 39, 127
3, 58152, Note_off_c, 1, 39, 0
3, 58152, Note_on_c, 1, 44, 127
3, 58176, Note_off_c, 1, 44, 0
3, 58176, Note_on_c, 1, 32, 127
3, 58224, Note_off_c, 1, 32, 0
3, 58224, Note_on_c, 1, 44, 127
3, 58272, Note_off_c, 1, 44, 0
3, 58272, Note_on_c, 1, 39, 127
3, 58296, Note_off_c, 1, 39, 0
3, 58296, Note_on_c, 1, 32, 127
3, 58320, Note_off_c, 1, 32, 0
3, 58320, Note_on_c, 1, 39, 127
3, 58344, Note_off_c, 1, 39, 0
3, 58344, Note_on_c, 1, 44, 127
3, 58368, Note_off_c, 1, 44, 0
3, 58368, Note_on_c, 1, 31, 127
3, 58416, Note_off_c, 1, 31, 0
3, 58416, Note_on_c, 1, 43, 127
3, 58464, Note_off_c, 1, 43, 0
3, 58464, Note_on_c, 1, 38, 127
3, 58488, Note_off_c, 1, 38, 0
3, 58488, Note_on_c, 1, 31, 127
3, 58512, Note_off_c, 1, 31, 0
3, 58512, Note_on_c, 1, 38, 127
3, 58536, Note_off_c, 1, 38, 0
3, 58536, Note_on_c, 1, 43, 127
3, 58560, Note_off_c, 1, 43, 0
3, 58560, Note_on_c, 1, 31, 127
3, 58608, Note_off_c, 1, 31, 0
3, 58608, Note_on_c, 1, 43, 127
3, 58656, Note_off_c, 1, 43, 0
3, 58656, Note_on_c, 1, 38, 127
3, 58680, Note_off_c, 1, 38, 0
3, 58680, Note_on_c, 1, 31, 127
3, 58704, Note_off_c, 1, 31, 0
3, 58704, Note_on_c, 1, 38, 127
3, 58728, Note_off_c, 1, 38, 0
3, 58728, Note_on_c, 1, 43, 127
3, 58752, Note_off_c, 1, 43, 0
3, 58752, Note_on_c, 1, 31, 127
3, 58800, Note_off_c, 1, 31, 0
3, 58800, Note_on_c, 1, 43, 127
3, 58848, Note_off_c, 1, 43, 0
3, 58848, Note_on_c, 1, 38, 127
3, 58872, Note_off_c, 1, 38, 0
3, 58872, Note_on_c, 1, 31, 127
3, 58896, Note_off_c, 1, 31, 0
3, 58896, Note_on_c, 1, 38, 127
3, 58920, Note_off_c, 1, 38, 0
3, 58920, Note_on_c, 1, 43, 127
3, 58944, Note_off_c, 1, 43, 0
3, 58944, Note_on_c, 1, 31, 127
3, 58992, Note_off_c, 1, 31, 0
3, 58992, Note_on_c, 1, 43, 127
3, 59040, Note_off_c, 1, 43, 0
3, 59040, Note_on_c, 1, 38, 127
3, 59064, Note_off_c, 1, 38, 0
3, 59064, Note_on_c, 1, 31, 127
3, 59088, Note_off_c, 1, 31, 0
3, 59088, Note_on_c, 1, 38, 127
3, 59112, Note_off_c, 1, 38, 0
3, 59112, Note_on_c, 1, 43, 127
3, 59136, Note_off_c, 1, 43, 0
3, 59136, Note_on_c, 1, 32, 127
3, 59184, Note_off_c, 1, 32, 0
3, 59184, Note_on_c, 1, 44, 127
3, 59232, Note_off_c, 1, 44, 0
3, 59232, Note_on_c, 1, 39, 127
3, 59256, Note_off_c, 1, 39, 0
3, 59256, Note_on_c, 1, 32, 127
3, 59280, Note_off_c, 1, 32, 0
3, 59280, Note_on_c, 1, 39, 127
3, 59304, Note_off_c, 1, 39, 0
3, 59304, Note_on_c, 1, 44, 127
3, 59328, Note_off_c, 1, 44, 0
3, 59328, Note_on_c, 1, 32, 127
3, 59376, Note_off_c, 1, 32, 0
3, 59376, Note_on_c, 1, 44, 127
3, 59424, Note_off_c, 1, 44, 0
3, 59424, Note_on_c, 1, 39, 127
3, 59448, Note_off_c, 1, 39, 0
3, 59448, Note_on_c, 1, 32, 127
3, 59472, Note_off_c, 1, 32, 0
3, 59472, Note_on_c, 1, 39, 127
3, 59496, Note_off_c, 1, 39, 0
3, 59496, Note_on_c, 1, 44, 127
3, 59520, Note_off_c, 1, 44, 0
3, 59520, Note_on_c, 1, 32, 127
3, 59568, Note_off_c, 1, 32, 0
3, 59568, Note_on_c, 1, 44, 127
3, 59616, Note_off_c, 1, 44, 0
3, 59616, Note_on_c, 1, 39, 127
3, 59640, Note_off_c, 1, 39, 0
3, 59640, Note_on_c, 1, 32, 127
3, 59664, Note_off_c, 1, 32, 0
3, 59664, Note_on_c, 1, 39, 127
3, 59688, Note_off_c, 1, 39, 0
3, 59688, Note_on_c, 1, 44, 127
3, 59712, Note_off_c, 1, 44, 0
3, 59712, Note_on_c, 1, 32, 127
3, 59760, Note_off_c, 1, 32, 0
3, 59760, Note_on_c, 1, 44, 127
3, 59808, Note_off_c, 1, 44, 0
3, 59808, Note_on_c, 1, 39, 127
3, 59832, Note_off_c, 1, 39, 0
3, 59832, Note_on_c, 1, 32, 127
3, 59856, Note_off_c, 1, 32, 0
3, 59856, Note_on_c, 1, 39, 127
3, 59880, Note_off_c, 1, 39, 0
3, 59880, Note_on_c, 1, 44, 127
3, 59904, Note_off_c, 1, 44, 0
3, 59904, Note_on_c, 1, 31, 127
3, 59952, Note_off_c, 1, 31, 0
3, 59952, Note_on_c, 1, 43, 127
3, 60000, Note_off_c, 1, 43, 0
3, 60000, Note_on_c, 1, 38, 127
3, 60024, Note_off_c, 1, 38, 0
3, 60024, Note_on_c, 1, 31, 127
3, 60048, Note_off_c, 1, 31, 0
3, 60048, Note_on_c, 1, 38, 127
3, 60072, Note_off_c, 1, 38, 0
3, 60072, Note_on_c, 1, 43, 127
3, 60096, Note_off_c, 1, 43, 0
3, 60096, Note_on_c, 1, 31, 127
3, 60144, Note_off_c, 1, 31, 0
3, 60144, Note_on_c, 1, 43, 127
3, 60192, Note_off_c, 1, 43, 0
3, 60192, Note_on_c, 1, 38, 127
3, 60216, Note_off_c, 1, 38, 0
3, 60216, Note_on_c, 1, 31, 127
3, 60240, Note_off_c, 1, 31, 0
3, 60240, Note_on_c, 1, 38, 127
3, 60264, Note_off_c, 1, 38, 0
3, 60264, Note_on_c, 1, 43, 127
3, 60288, Note_off_c, 1, 43, 0
3, 60288, Note_on_c, 1, 31, 127
3, 60336, Note_off_c, 1, 31, 0
3, 60336, Note_on_c, 1, 43, 127
3, 60384, Note_off_c, 1, 43, 0
3, 60384, Note_on_c, 1, 38, 127
3, 60408, Note_off_c, 1, 38, 0
3, 60408, Note_on_c, 1, 31, 127
3, 60432, Note_off_c, 1, 31, 0
3, 60432, Note_on_c, 1, 38, 127
3, 60456, Note_off_c, 1, 38, 0
3, 60456, Note_on_c, 1, 43, 127
3, 60480, Note_off_c, 1, 43, 0
3, 60480, Note_on_c, 1, 31, 127
3, 60528, Note_off_c, 1, 31, 0
3, 60528, Note_on_c, 1, 43, 127
3, 60576, Note_off_c, 1, 43, 0
3, 60576, Note_on_c, 1, 38, 127
3, 60600, Note_off_c, 1, 38, 0
3, 60600, Note_on_c, 1, 31, 127
3, 60624, Note_off_c, 1, 31, 0
3, 60624, Note_on_c, 1, 38, 127
3, 60648, Note_off_c, 1, 38, 0
3, 60648, Note_on_c, 1, 43, 127
3, 60672, Note_off_c, 1, 43, 0
3, 60672, Note_on_c, 1, 32, 127
3, 60720, Note_off_c, 1, 32, 0
3, 60720, Note_on_c, 1, 44, 127
3, 60768, Note_off_c, 1, 44, 0
3, 60768, Note_on_c, 1, 39, 127
3, 60792, Note_off_c, 1, 39, 0
3, 60792, Note_on_c, 1, 32, 127
3, 60816, Note_off_c, 1, 32, 0
3, 60816, Note_on_c, 1, 39, 127
3, 60840, Note_off_c, 1, 39, 0
3, 60840, Note_on_c, 1, 44, 127
3, 60864, Note_off_c, 1, 44, 0
3, 60864, Note_on_c, 1, 32, 127
3, 60912, Note_off_c, 1, 32, 0
3, 60912, Note_on_c, 1, 44, 127
3, 60960, Note_off_c, 1, 44, 0
3, 60960, Note_on_c, 1, 39, 127
3, 60984, Note_off_c, 1, 39, 0
3, 60984, Note_on_c, 1, 32, 127
3, 61008, Note_off_c, 1, 32, 0
3, 61008, Note_on_c, 1, 39, 127
3, 61032, Note_off_c, 1, 39, 0
3, 61032, Note_on_c, 1, 44, 127
3, 61056, Note_off_c, 1, 44, 0
3, 61056, Note_on_c, 1, 32, 127
3, 61104, Note_off_c, 1, 32, 0
3, 61104, Note_on_c, 1, 44, 127
3, 61152, Note_off_c, 1, 44, 0
3, 61152, Note_on_c, 1, 39, 127
3, 61176, Note_off_c, 1, 39, 0
3, 61176, Note_on_c, 1, 32, 127
3, 61200, Note_off_c, 1, 32, 0
3, 61200, Note_on_c, 1, 39, 127
3, 61224, Note_off_c, 1, 39, 0
3, 61224, Note_on_c, 1, 44, 127
3, 61248, Note_off_c, 1, 44, 0
3, 61248, Note_on_c, 1, 32, 127
3, 61296, Note_off_c, 1, 32, 0
3, 61296, Note_on_c, 1, 44, 127
3, 61344, Note_off_c, 1, 44, 0
3, 61344, Note_on_c, 1, 39, 127
3, 61368, Note_off_c, 1, 39, 0
3, 61368, Note_on_c, 1, 32, 127
3, 61392, Note_off_c, 1, 32, 0
3, 61392, Note_on_c, 1, 39, 127
3, 61416, Note_off_c, 1, 39, 0
3, 61416, Note_on_c, 1, 44, 127
3, 61440, Note_off_c, 1, 44, 0
3, 61440, Note_on_c, 1, 31, 127
3, 61488, Note_off_c, 1, 31, 0
3, 61488, Note_on_c, 1, 43, 127
3, 61536, Note_off_c, 1, 43, 0
3, 61536, Note_on_c, 1, 38, 127
3, 61560, Note_off_c, 1, 38, 0
3, 61560, Note_on_c, 1, 31, 127
3, 61584, Note_off_c, 1, 31, 0
3, 61584, Note_on_c, 1, 38, 127
3, 61608, Note_off_c, 1, 38, 0
3, 61608, Note_on_c, 1, 43, 127
3, 61632, Note_off_c, 1, 43, 0
3, 61632, Note_on_c, 1, 31, 127
3, 61680, Note_off_c, 1, 31, 0
3, 61680, Note_on_c, 1, 43, 127
3, 61728, Note_off_c, 1, 43, 0
3, 61728, Note_on_c, 1, 38, 127
3, 61752, Note_off_c, 1, 38, 0
3, 61752, Note_on_c, 1, 31, 127
3, 61776, Note_off_c, 1, 31, 0
3, 61776, Note_on_c, 1, 38, 127
3, 61800, Note_off_c, 1, 38, 0
3, 61800, Note_on_c, 1, 43, 127
3, 61824, Note_off_c, 1, 43, 0
3, 61824, Note_on_c, 1, 31, 127
3, 61872, Note_off_c, 1, 31, 0
3, 61872, Note_on_c, 1, 43, 127
3, 61920, Note_off_c, 1, 43, 0
3, 61920, Note_on_c, 1, 38, 127
3, 61944, Note_off_c, 1, 38, 0
3, 61944, Note_on_c, 1, 31, 127
3, 61968, Note_off_c, 1, 31, 0
3, 61968, Note_on_c, 1, 38, 127
3, 61992, Note_off_c, 1, 38, 0
3, 61992, Note_on_c, 1, 43, 127
3, 62016, Note_off_c, 1, 43, 0
3, 62016, Note_on_c, 1, 31, 127
3, 62064, Note_off_c, 1, 31, 0
3, 62064, Note_on_c, 1, 43, 127
3, 62112, Note_off_c, 1, 43, 0
3, 62112, Note_on_c, 1, 38, 127
3, 62136, Note_off_c, 1, 38, 0
3, 62136, Note_on_c, 1, 31, 127
3, 62160, Note_off_c, 1, 31, 0
3, 62160, Note_on_c, 1, 38, 127
3, 62184, Note_off_c, 1, 38, 0
3, 62184, Note_on_c, 1, 43, 127
3, 62208, Note_off_c, 1, 43, 0
3, 62208, Note_on_c, 1, 43, 127
3, 62256, Note_off_c, 1, 43, 0
3, 62256, Note_on_c, 1, 55, 127
3, 62304, Note_off_c, 1, 55, 0
3, 62304, Note_on_c, 1, 43, 127
3, 62352, Note_off_c, 1, 43, 0
3, 62352, Note_on_c, 1, 55, 127
3, 62400, Note_off_c, 1, 55, 0
3, 62400, Note_on_c, 1, 54, 127
3, 62496, Note_off_c, 1, 54, 0
3, 62496, Note_on_c, 1, 42, 127
3, 62592, Note_off_c, 1, 42, 0
3, 62976, Control_c, 1, 7, 100
3, 62976, Pitch_bend_c, 1, 8192
3, 62976, Program_c, 1, 30
3, 62976, End_track
4, 0, Start_track
4, 0, Control_c, 2, 0, 0
4, 0, Control_c, 2, 32, 0
4, 0, Program_c, 2, 84
4, 0, Title_t, "Guitar #2"
4, 0, Control_c, 2, 7, 127
4, 0, Control_c, 2, 10, 127
4, 0, Control_c, 2, 7, 100
4, 0, Pitch_bend_c, 2, 8192
4, 0, Control_c, 2, 10, 127
4, 0, Control_c, 2, 7, 100
4, 0, Pitch_bend_c, 2, 8192
4, 0, Control_c, 2, 10, 127
4, 0, Control_c, 2, 7, 100
4, 0, Pitch_bend_c, 2, 8192
4, 0, Program_c, 2, 84
4, 0, Control_c, 2, 10, 127
4, 0, Control_c, 2, 7, 100
4, 0, Pitch_bend_c, 2, 8192
4, 0, Program_c, 2, 84
4, 0, Note_on_c, 2, 36, 127
4, 48, Note_off_c, 2, 36, 0
4, 48, Note_on_c, 2, 48, 127
4, 96, Note_off_c, 2, 48, 0
4, 96, Note_on_c, 2, 35, 127
4, 144, Note_off_c, 2, 35, 0
4, 144, Note_on_c, 2, 47, 127
4, 192, Note_off_c, 2, 47, 0
4, 192, Note_on_c, 2, 34, 127
4, 240, Note_off_c, 2, 34, 0
4, 240, Note_on_c, 2, 46, 127
4, 288, Note_off_c, 2, 46, 0
4, 288, Note_on_c, 2, 33, 127
4, 336, Note_off_c, 2, 33, 0
4, 336, Note_on_c, 2, 45, 127
4, 384, Note_off_c, 2, 45, 0
4, 384, Note_on_c, 2, 43, 127
4, 432, Note_off_c, 2, 43, 0
4, 432, Note_on_c, 2, 55, 127
4, 480, Note_off_c, 2, 55, 0
4, 480, Note_on_c, 2, 43, 127
4, 528, Note_off_c, 2, 43, 0
4, 528, Note_on_c, 2, 55, 127
4, 576, Note_off_c, 2, 55, 0
4, 576, Note_on_c, 2, 54, 127
4, 672, Note_off_c, 2, 54, 0
4, 672, Note_on_c, 2, 42, 127
4, 768, Note_off_c, 2, 42, 0
4, 768, Note_on_c, 2, 36, 127
4, 816, Note_off_c, 2, 36, 0
4, 816, Note_on_c, 2, 48, 127
4, 864, Note_off_c, 2, 48, 0
4, 864, Note_on_c, 2, 43, 127
4, 888, Note_off_c, 2, 43, 0
4, 888, Note_on_c, 2, 36, 127
4, 912, Note_off_c, 2, 36, 0
4, 912, Note_on_c, 2, 43, 127
4, 936, Note_off_c, 2, 43, 0
4, 936, Note_on_c, 2, 48, 127
4, 960, Note_off_c, 2, 48, 0
4, 960, Note_on_c, 2, 36, 127
4, 1008, Note_off_c, 2, 36, 0
4, 1008, Note_on_c, 2, 48, 127
4, 1056, Note_off_c, 2, 48, 0
4, 1056, Note_on_c, 2, 43, 127
4, 1080, Note_off_c, 2, 43, 0
4, 1080, Note_on_c, 2, 36, 127
4, 1104, Note_off_c, 2, 36, 0
4, 1104, Note_on_c, 2, 43, 127
4, 1128, Note_off_c, 2, 43, 0
4, 1128, Note_on_c, 2, 48, 127
4, 1152, Note_off_c, 2, 48, 0
4, 1152, Note_on_c, 2, 37, 127
4, 1200, Note_off_c, 2, 37, 0
4, 1200, Note_on_c, 2, 49, 127
4, 1248, Note_off_c, 2, 49, 0
4, 1248, Note_on_c, 2, 44, 127
4, 1272, Note_off_c, 2, 44, 0
4, 1272, Note_on_c, 2, 37, 127
4, 1296, Note_off_c, 2, 37, 0
4, 1296, Note_on_c, 2, 44, 127
4, 1320, Note_off_c, 2, 44, 0
4, 1320, Note_on_c, 2, 49, 127
4, 1344, Note_off_c, 2, 49, 0
4, 1344, Note_on_c, 2, 39, 127
4, 1392, Note_off_c, 2, 39, 0
4, 1392, Note_on_c, 2, 51, 127
4, 1440, Note_off_c, 2, 51, 0
4, 1440, Note_on_c, 2, 46, 127
4, 1464, Note_off_c, 2, 46, 0
4, 1464, Note_on_c, 2, 39, 127
4, 1488, Note_off_c, 2, 39, 0
4, 1488, Note_on_c, 2, 46, 127
4, 1512, Note_off_c, 2, 46, 0
4, 1512, Note_on_c, 2, 51, 127
4, 1536, Note_off_c, 2, 51, 0
4, 1536, Note_on_c, 2, 36, 127
4, 1584, Note_off_c, 2, 36, 0
4, 1584, Note_on_c, 2, 48, 127
4, 1632, Note_off_c, 2, 48, 0
4, 1632, Note_on_c, 2, 43, 127
4, 1656, Note_off_c, 2, 43, 0
4, 1656, Note_on_c, 2, 36, 127
4, 1680, Note_off_c, 2, 36, 0
4, 1680, Note_on_c, 2, 43, 127
4, 1704, Note_off_c, 2, 43, 0
4, 1704, Note_on_c, 2, 48, 127
4, 1728, Note_off_c, 2, 48, 0
4, 1728, Note_on_c, 2, 36, 127
4, 1776, Note_off_c, 2, 36, 0
4, 1776, Note_on_c, 2, 48, 127
4, 1824, Note_off_c, 2, 48, 0
4, 1824, Note_on_c, 2, 43, 127
4, 1848, Note_off_c, 2, 43, 0
4, 1848, Note_on_c, 2, 36, 127
4, 1872, Note_off_c, 2, 36, 0
4, 1872, Note_on_c, 2, 43, 127
4, 1896, Note_off_c, 2, 43, 0
4, 1896, Note_on_c, 2, 48, 127
4, 1920, Note_off_c, 2, 48, 0
4, 1920, Note_on_c, 2, 32, 127
4, 1968, Note_off_c, 2, 32, 0
4, 1968, Note_on_c, 2, 44, 127
4, 2016, Note_off_c, 2, 44, 0
4, 2016, Note_on_c, 2, 39, 127
4, 2040, Note_off_c, 2, 39, 0
4, 2040, Note_on_c, 2, 32, 127
4, 2064, Note_off_c, 2, 32, 0
4, 2064, Note_on_c, 2, 39, 127
4, 2088, Note_off_c, 2, 39, 0
4, 2088, Note_on_c, 2, 44, 127
4, 2112, Note_off_c, 2, 44, 0
4, 2112, Note_on_c, 2, 31, 127
4, 2160, Note_off_c, 2, 31, 0
4, 2160, Note_on_c, 2, 43, 127
4, 2208, Note_off_c, 2, 43, 0
4, 2208, Note_on_c, 2, 38, 127
4, 2232, Note_off_c, 2, 38, 0
4, 2232, Note_on_c, 2, 31, 127
4, 2256, Note_off_c, 2, 31, 0
4, 2256, Note_on_c, 2, 38, 127
4, 2280, Note_off_c, 2, 38, 0
4, 2280, Note_on_c, 2, 43, 127
4, 2304, Note_off_c, 2, 43, 0
4, 2304, Note_on_c, 2, 36, 127
4, 2352, Note_off_c, 2, 36, 0
4, 2352, Note_on_c, 2, 48, 127
4, 2400, Note_off_c, 2, 48, 0
4, 2400, Note_on_c, 2, 43, 127
4, 2424, Note_off_c, 2, 43, 0
4, 2424, Note_on_c, 2, 36, 127
4, 2448, Note_off_c, 2, 36, 0
4, 2448, Note_on_c, 2, 43, 127
4, 2472, Note_off_c, 2, 43, 0
4, 2472, Note_on_c, 2, 48, 127
4, 2496, Note_off_c, 2, 48, 0
4, 2496, Note_on_c, 2, 36, 127
4, 2544, Note_off_c, 2, 36, 0
4, 2544, Note_on_c, 2, 48, 127
4, 2592, Note_off_c, 2, 48, 0
4, 2592, Note_on_c, 2, 43, 127
4, 2616, Note_off_c, 2, 43, 0
4, 2616, Note_on_c, 2, 36, 127
4, 2640, Note_off_c, 2, 36, 0
4, 2640, Note_on_c, 2, 43, 127
4, 2664, Note_off_c, 2, 43, 0
4, 2664, Note_on_c, 2, 48, 127
4, 2688, Note_off_c, 2, 48, 0
4, 2688, Note_on_c, 2, 37, 127
4, 2736, Note_off_c, 2, 37, 0
4, 2736, Note_on_c, 2, 49, 127
4, 2784, Note_off_c, 2, 49, 0
4, 2784, Note_on_c, 2, 44, 127
4, 2808, Note_off_c, 2, 44, 0
4, 2808, Note_on_c, 2, 37, 127
4, 2832, Note_off_c, 2, 37, 0
4, 2832, Note_on_c, 2, 44, 127
4, 2856, Note_off_c, 2, 44, 0
4, 2856, Note_on_c, 2, 49, 127
4, 2880, Note_off_c, 2, 49, 0
4, 2880, Note_on_c, 2, 39, 127
4, 2928, Note_off_c, 2, 39, 0
4, 2928, Note_on_c, 2, 51, 127
4, 2976, Note_off_c, 2, 51, 0
4, 2976, Note_on_c, 2, 46, 127
4, 3000, Note_off_c, 2, 46, 0
4, 3000, Note_on_c, 2, 39, 127
4, 3024, Note_off_c, 2, 39, 0
4, 3024, Note_on_c, 2, 46, 127
4, 3048, Note_off_c, 2, 46, 0
4, 3048, Note_on_c, 2, 51, 127
4, 3072, Note_off_c, 2, 51, 0
4, 3072, Note_on_c, 2, 36, 127
4, 3120, Note_off_c, 2, 36, 0
4, 3120, Note_on_c, 2, 48, 127
4, 3168, Note_off_c, 2, 48, 0
4, 3168, Note_on_c, 2, 43, 127
4, 3192, Note_off_c, 2, 43, 0
4, 3192, Note_on_c, 2, 36, 127
4, 3216, Note_off_c, 2, 36, 0
4, 3216, Note_on_c, 2, 43, 127
4, 3240, Note_off_c, 2, 43, 0
4, 3240, Note_on_c, 2, 48, 127
4, 3264, Note_off_c, 2, 48, 0
4, 3264, Note_on_c, 2, 36, 127
4, 3312, Note_off_c, 2, 36, 0
4, 3312, Note_on_c, 2, 48, 127
4, 3360, Note_off_c, 2, 48, 0
4, 3360, Note_on_c, 2, 43, 127
4, 3384, Note_off_c, 2, 43, 0
4, 3384, Note_on_c, 2, 36, 127
4, 3408, Note_off_c, 2, 36, 0
4, 3408, Note_on_c, 2, 43, 127
4, 3432, Note_off_c, 2, 43, 0
4, 3432, Note_on_c, 2, 48, 127
4, 3456, Note_off_c, 2, 48, 0
4, 3456, Note_on_c, 2, 32, 127
4, 3504, Note_off_c, 2, 32, 0
4, 3504, Note_on_c, 2, 44, 127
4, 3552, Note_off_c, 2, 44, 0
4, 3552, Note_on_c, 2, 39, 127
4, 3576, Note_off_c, 2, 39, 0
4, 3576, Note_on_c, 2, 32, 127
4, 3600, Note_off_c, 2, 32, 0
4, 3600, Note_on_c, 2, 39, 127
4, 3624, Note_off_c, 2, 39, 0
4, 3624, Note_on_c, 2, 44, 127
4, 3648, Note_off_c, 2, 44, 0
4, 3648, Note_on_c, 2, 31, 127
4, 3696, Note_off_c, 2, 31, 0
4, 3696, Note_on_c, 2, 43, 127
4, 3744, Note_off_c, 2, 43, 0
4, 3744, Note_on_c, 2, 38, 127
4, 3768, Note_off_c, 2, 38, 0
4, 3768, Note_on_c, 2, 31, 127
4, 3792, Note_off_c, 2, 31, 0
4, 3792, Note_on_c, 2, 38, 127
4, 3816, Note_off_c, 2, 38, 0
4, 3816, Note_on_c, 2, 43, 127
4, 3840, Note_off_c, 2, 43, 0
4, 3840, Note_on_c, 2, 36, 127
4, 3888, Note_off_c, 2, 36, 0
4, 3888, Note_on_c, 2, 48, 127
4, 3936, Note_off_c, 2, 48, 0
4, 3936, Note_on_c, 2, 43, 127
4, 3960, Note_off_c, 2, 43, 0
4, 3960, Note_on_c, 2, 36, 127
4, 3984, Note_off_c, 2, 36, 0
4, 3984, Note_on_c, 2, 43, 127
4, 4008, Note_off_c, 2, 43, 0
4, 4008, Note_on_c, 2, 48, 127
4, 4032, Note_off_c, 2, 48, 0
4, 4032, Note_on_c, 2, 36, 127
4, 4080, Note_off_c, 2, 36, 0
4, 4080, Note_on_c, 2, 48, 127
4, 4128, Note_off_c, 2, 48, 0
4, 4128, Note_on_c, 2, 43, 127
4, 4152, Note_off_c, 2, 43, 0
4, 4152, Note_on_c, 2, 36, 127
4, 4176, Note_off_c, 2, 36, 0
4, 4176, Note_on_c, 2, 43, 127
4, 4200, Note_off_c, 2, 43, 0
4, 4200, Note_on_c, 2, 48, 127
4, 4224, Note_off_c, 2, 48, 0
4, 4224, Note_on_c, 2, 37, 127
4, 4272, Note_off_c, 2, 37, 0
4, 4272, Note_on_c, 2, 49, 127
4, 4320, Note_off_c, 2, 49, 0
4, 4320, Note_on_c, 2, 44, 127
4, 4344, Note_off_c, 2, 44, 0
4, 4344, Note_on_c, 2, 37, 127
4, 4368, Note_off_c, 2, 37, 0
4, 4368, Note_on_c, 2, 44, 127
4, 4392, Note_off_c, 2, 44, 0
4, 4392, Note_on_c, 2, 49, 127
4, 4416, Note_off_c, 2, 49, 0
4, 4416, Note_on_c, 2, 39, 127
4, 4464, Note_off_c, 2, 39, 0
4, 4464, Note_on_c, 2, 51, 127
4, 4512, Note_off_c, 2, 51, 0
4, 4512, Note_on_c, 2, 46, 127
4, 4536, Note_off_c, 2, 46, 0
4, 4536, Note_on_c, 2, 39, 127
4, 4560, Note_off_c, 2, 39, 0
4, 4560, Note_on_c, 2, 46, 127
4, 4584, Note_off_c, 2, 46, 0
4, 4584, Note_on_c, 2, 51, 127
4, 4608, Note_off_c, 2, 51, 0
4, 4608, Note_on_c, 2, 36, 127
4, 4656, Note_off_c, 2, 36, 0
4, 4656, Note_on_c, 2, 48, 127
4, 4704, Note_off_c, 2, 48, 0
4, 4704, Note_on_c, 2, 43, 127
4, 4728, Note_off_c, 2, 43, 0
4, 4728, Note_on_c, 2, 36, 127
4, 4752, Note_off_c, 2, 36, 0
4, 4752, Note_on_c, 2, 43, 127
4, 4776, Note_off_c, 2, 43, 0
4, 4776, Note_on_c, 2, 48, 127
4, 4800, Note_off_c, 2, 48, 0
4, 4800, Note_on_c, 2, 36, 127
4, 4848, Note_off_c, 2, 36, 0
4, 4848, Note_on_c, 2, 48, 127
4, 4896, Note_off_c, 2, 48, 0
4, 4896, Note_on_c, 2, 43, 127
4, 4920, Note_off_c, 2, 43, 0
4, 4920, Note_on_c, 2, 36, 127
4, 4944, Note_off_c, 2, 36, 0
4, 4944, Note_on_c, 2, 43, 127
4, 4968, Note_off_c, 2, 43, 0
4, 4968, Note_on_c, 2, 48, 127
4, 4992, Note_off_c, 2, 48, 0
4, 4992, Note_on_c, 2, 32, 127
4, 5040, Note_off_c, 2, 32, 0
4, 5040, Note_on_c, 2, 44, 127
4, 5088, Note_off_c, 2, 44, 0
4, 5088, Note_on_c, 2, 39, 127
4, 5112, Note_off_c, 2, 39, 0
4, 5112, Note_on_c, 2, 32, 127
4, 5136, Note_off_c, 2, 32, 0
4, 5136, Note_on_c, 2, 39, 127
4, 5160, Note_off_c, 2, 39, 0
4, 5160, Note_on_c, 2, 44, 127
4, 5184, Note_off_c, 2, 44, 0
4, 5184, Note_on_c, 2, 31, 127
4, 5232, Note_off_c, 2, 31, 0
4, 5232, Note_on_c, 2, 43, 127
4, 5280, Note_off_c, 2, 43, 0
4, 5280, Note_on_c, 2, 38, 127
4, 5304, Note_off_c, 2, 38, 0
4, 5304, Note_on_c, 2, 31, 127
4, 5328, Note_off_c, 2, 31, 0
4, 5328, Note_on_c, 2, 38, 127
4, 5352, Note_off_c, 2, 38, 0
4, 5352, Note_on_c, 2, 43, 127
4, 5376, Note_off_c, 2, 43, 0
4, 5376, Note_on_c, 2, 36, 127
4, 5424, Note_off_c, 2, 36, 0
4, 5424, Note_on_c, 2, 48, 127
4, 5472, Note_off_c, 2, 48, 0
4, 5472, Note_on_c, 2, 43, 127
4, 5496, Note_off_c, 2, 43, 0
4, 5496, Note_on_c, 2, 36, 127
4, 5520, Note_off_c, 2, 36, 0
4, 5520, Note_on_c, 2, 43, 127
4, 5544, Note_off_c, 2, 43, 0
4, 5544, Note_on_c, 2, 48, 127
4, 5568, Note_off_c, 2, 48, 0
4, 5568, Note_on_c, 2, 36, 127
4, 5616, Note_off_c, 2, 36, 0
4, 5616, Note_on_c, 2, 48, 127
4, 5664, Note_off_c, 2, 48, 0
4, 5664, Note_on_c, 2, 43, 127
4, 5688, Note_off_c, 2, 43, 0
4, 5688, Note_on_c, 2, 36, 127
4, 5712, Note_off_c, 2, 36, 0
4, 5712, Note_on_c, 2, 43, 127
4, 5736, Note_off_c, 2, 43, 0
4, 5736, Note_on_c, 2, 48, 127
4, 5760, Note_off_c, 2, 48, 0
4, 5760, Note_on_c, 2, 37, 127
4, 5808, Note_off_c, 2, 37, 0
4, 5808, Note_on_c, 2, 49, 127
4, 5856, Note_off_c, 2, 49, 0
4, 5856, Note_on_c, 2, 44, 127
4, 5880, Note_off_c, 2, 44, 0
4, 5880, Note_on_c, 2, 37, 127
4, 5904, Note_off_c, 2, 37, 0
4, 5904, Note_on_c, 2, 44, 127
4, 5928, Note_off_c, 2, 44, 0
4, 5928, Note_on_c, 2, 49, 127
4, 5952, Note_off_c, 2, 49, 0
4, 5952, Note_on_c, 2, 39, 127
4, 6000, Note_off_c, 2, 39, 0
4, 6000, Note_on_c, 2, 51, 127
4, 6048, Note_off_c, 2, 51, 0
4, 6048, Note_on_c, 2, 46, 127
4, 6072, Note_off_c, 2, 46, 0
4, 6072, Note_on_c, 2, 39, 127
4, 6096, Note_off_c, 2, 39, 0
4, 6096, Note_on_c, 2, 46, 127
4, 6120, Note_off_c, 2, 46, 0
4, 6120, Note_on_c, 2, 51, 127
4, 6144, Note_off_c, 2, 51, 0
4, 6144, Note_on_c, 2, 36, 127
4, 6192, Note_off_c, 2, 36, 0
4, 6192, Note_on_c, 2, 48, 127
4, 6240, Note_off_c, 2, 48, 0
4, 6240, Note_on_c, 2, 43, 127
4, 6264, Note_off_c, 2, 43, 0
4, 6264, Note_on_c, 2, 36, 127
4, 6288, Note_off_c, 2, 36, 0
4, 6288, Note_on_c, 2, 43, 127
4, 6312, Note_off_c, 2, 43, 0
4, 6312, Note_on_c, 2, 48, 127
4, 6336, Note_off_c, 2, 48, 0
4, 6336, Note_on_c, 2, 36, 127
4, 6384, Note_off_c, 2, 36, 0
4, 6384, Note_on_c, 2, 48, 127
4, 6432, Note_off_c, 2, 48, 0
4, 6432, Note_on_c, 2, 43, 127
4, 6456, Note_off_c, 2, 43, 0
4, 6456, Note_on_c, 2, 36, 127
4, 6480, Note_off_c, 2, 36, 0
4, 6480, Note_on_c, 2, 43, 127
4, 6504, Note_off_c, 2, 43, 0
4, 6504, Note_on_c, 2, 48, 127
4, 6528, Note_off_c, 2, 48, 0
4, 6528, Note_on_c, 2, 32, 127
4, 6576, Note_off_c, 2, 32, 0
4, 6576, Note_on_c, 2, 44, 127
4, 6624, Note_off_c, 2, 44, 0
4, 6624, Note_on_c, 2, 39, 127
4, 6648, Note_off_c, 2, 39, 0
4, 6648, Note_on_c, 2, 32, 127
4, 6672, Note_off_c, 2, 32, 0
4, 6672, Note_on_c, 2, 39, 127
4, 6696, Note_off_c, 2, 39, 0
4, 6696, Note_on_c, 2, 44, 127
4, 6720, Note_off_c, 2, 44, 0
4, 6720, Note_on_c, 2, 31, 127
4, 6768, Note_off_c, 2, 31, 0
4, 6768, Note_on_c, 2, 43, 127
4, 6816, Note_off_c, 2, 43, 0
4, 6816, Note_on_c, 2, 38, 127
4, 6840, Note_off_c, 2, 38, 0
4, 6840, Note_on_c, 2, 31, 127
4, 6864, Note_off_c, 2, 31, 0
4, 6864, Note_on_c, 2, 38, 127
4, 6888, Note_off_c, 2, 38, 0
4, 6888, Note_on_c, 2, 43, 127
4, 6912, Note_off_c, 2, 43, 0
4, 6912, Note_on_c, 2, 32, 127
4, 6960, Note_off_c, 2, 32, 0
4, 6960, Note_on_c, 2, 44, 127
4, 7008, Note_off_c, 2, 44, 0
4, 7008, Note_on_c, 2, 39, 127
4, 7032, Note_off_c, 2, 39, 0
4, 7032, Note_on_c, 2, 32, 127
4, 7056, Note_off_c, 2, 32, 0
4, 7056, Note_on_c, 2, 39, 127
4, 7080, Note_off_c, 2, 39, 0
4, 7080, Note_on_c, 2, 44, 127
4, 7104, Note_off_c, 2, 44, 0
4, 7104, Note_on_c, 2, 32, 127
4, 7152, Note_off_c, 2, 32, 0
4, 7152, Note_on_c, 2, 44, 127
4, 7200, Note_off_c, 2, 44, 0
4, 7200, Note_on_c, 2, 39, 127
4, 7224, Note_off_c, 2, 39, 0
4, 7224, Note_on_c, 2, 32, 127
4, 7248, Note_off_c, 2, 32, 0
4, 7248, Note_on_c, 2, 39, 127
4, 7272, Note_off_c, 2, 39, 0
4, 7272, Note_on_c, 2, 44, 127
4, 7296, Note_off_c, 2, 44, 0
4, 7296, Note_on_c, 2, 32, 127
4, 7344, Note_off_c, 2, 32, 0
4, 7344, Note_on_c, 2, 44, 127
4, 7392, Note_off_c, 2, 44, 0
4, 7392, Note_on_c, 2, 39, 127
4, 7416, Note_off_c, 2, 39, 0
4, 7416, Note_on_c, 2, 32, 127
4, 7440, Note_off_c, 2, 32, 0
4, 7440, Note_on_c, 2, 39, 127
4, 7464, Note_off_c, 2, 39, 0
4, 7464, Note_on_c, 2, 44, 127
4, 7488, Note_off_c, 2, 44, 0
4, 7488, Note_on_c, 2, 32, 127
4, 7536, Note_off_c, 2, 32, 0
4, 7536, Note_on_c, 2, 44, 127
4, 7584, Note_off_c, 2, 44, 0
4, 7584, Note_on_c, 2, 39, 127
4, 7608, Note_off_c, 2, 39, 0
4, 7608, Note_on_c, 2, 32, 127
4, 7632, Note_off_c, 2, 32, 0
4, 7632, Note_on_c, 2, 39, 127
4, 7656, Note_off_c, 2, 39, 0
4, 7656, Note_on_c, 2, 44, 127
4, 7680, Note_off_c, 2, 44, 0
4, 7680, Note_on_c, 2, 31, 127
4, 7728, Note_off_c, 2, 31, 0
4, 7728, Note_on_c, 2, 43, 127
4, 7776, Note_off_c, 2, 43, 0
4, 7776, Note_on_c, 2, 38, 127
4, 7800, Note_off_c, 2, 38, 0
4, 7800, Note_on_c, 2, 31, 127
4, 7824, Note_off_c, 2, 31, 0
4, 7824, Note_on_c, 2, 38, 127
4, 7848, Note_off_c, 2, 38, 0
4, 7848, Note_on_c, 2, 43, 127
4, 7872, Note_off_c, 2, 43, 0
4, 7872, Note_on_c, 2, 31, 127
4, 7920, Note_off_c, 2, 31, 0
4, 7920, Note_on_c, 2, 43, 127
4, 7968, Note_off_c, 2, 43, 0
4, 7968, Note_on_c, 2, 38, 127
4, 7992, Note_off_c, 2, 38, 0
4, 7992, Note_on_c, 2, 31, 127
4, 8016, Note_off_c, 2, 31, 0
4, 8016, Note_on_c, 2, 38, 127
4, 8040, Note_off_c, 2, 38, 0
4, 8040, Note_on_c, 2, 43, 127
4, 8064, Note_off_c, 2, 43, 0
4, 8064, Note_on_c, 2, 31, 127
4, 8112, Note_off_c, 2, 31, 0
4, 8112, Note_on_c, 2, 43, 127
4, 8160, Note_off_c, 2, 43, 0
4, 8160, Note_on_c, 2, 38, 127
4, 8184, Note_off_c, 2, 38, 0
4, 8184, Note_on_c, 2, 31, 127
4, 8208, Note_off_c, 2, 31, 0
4, 8208, Note_on_c, 2, 38, 127
4, 8232, Note_off_c, 2, 38, 0
4, 8232, Note_on_c, 2, 43, 127
4, 8256, Note_off_c, 2, 43, 0
4, 8256, Note_on_c, 2, 31, 127
4, 8304, Note_off_c, 2, 31, 0
4, 8304, Note_on_c, 2, 43, 127
4, 8352, Note_off_c, 2, 43, 0
4, 8352, Note_on_c, 2, 38, 127
4, 8376, Note_off_c, 2, 38, 0
4, 8376, Note_on_c, 2, 31, 127
4, 8400, Note_off_c, 2, 31, 0
4, 8400, Note_on_c, 2, 38, 127
4, 8424, Note_off_c, 2, 38, 0
4, 8424, Note_on_c, 2, 43, 127
4, 8448, Note_off_c, 2, 43, 0
4, 8448, Note_on_c, 2, 32, 127
4, 8496, Note_off_c, 2, 32, 0
4, 8496, Note_on_c, 2, 44, 127
4, 8544, Note_off_c, 2, 44, 0
4, 8544, Note_on_c, 2, 39, 127
4, 8568, Note_off_c, 2, 39, 0
4, 8568, Note_on_c, 2, 32, 127
4, 8592, Note_off_c, 2, 32, 0
4, 8592, Note_on_c, 2, 39, 127
4, 8616, Note_off_c, 2, 39, 0
4, 8616, Note_on_c, 2, 44, 127
4, 8640, Note_off_c, 2, 44, 0
4, 8640, Note_on_c, 2, 32, 127
4, 8688, Note_off_c, 2, 32, 0
4, 8688, Note_on_c, 2, 44, 127
4, 8736, Note_off_c, 2, 44, 0
4, 8736, Note_on_c, 2, 39, 127
4, 8760, Note_off_c, 2, 39, 0
4, 8760, Note_on_c, 2, 32, 127
4, 8784, Note_off_c, 2, 32, 0
4, 8784, Note_on_c, 2, 39, 127
4, 8808, Note_off_c, 2, 39, 0
4, 8808, Note_on_c, 2, 44, 127
4, 8832, Note_off_c, 2, 44, 0
4, 8832, Note_on_c, 2, 32, 127
4, 8880, Note_off_c, 2, 32, 0
4, 8880, Note_on_c, 2, 44, 127
4, 8928, Note_off_c, 2, 44, 0
4, 8928, Note_on_c, 2, 39, 127
4, 8952, Note_off_c, 2, 39, 0
4, 8952, Note_on_c, 2, 32, 127
4, 8976, Note_off_c, 2, 32, 0
4, 8976, Note_on_c, 2, 39, 127
4, 9000, Note_off_c, 2, 39, 0
4, 9000, Note_on_c, 2, 44, 127
4, 9024, Note_off_c, 2, 44, 0
4, 9024, Note_on_c, 2, 32, 127
4, 9072, Note_off_c, 2, 32, 0
4, 9072, Note_on_c, 2, 44, 127
4, 9120, Note_off_c, 2, 44, 0
4, 9120, Note_on_c, 2, 39, 127
4, 9144, Note_off_c, 2, 39, 0
4, 9144, Note_on_c, 2, 32, 127
4, 9168, Note_off_c, 2, 32, 0
4, 9168, Note_on_c, 2, 39, 127
4, 9192, Note_off_c, 2, 39, 0
4, 9192, Note_on_c, 2, 44, 127
4, 9216, Note_off_c, 2, 44, 0
4, 9216, Note_on_c, 2, 31, 127
4, 9264, Note_off_c, 2, 31, 0
4, 9264, Note_on_c, 2, 43, 127
4, 9312, Note_off_c, 2, 43, 0
4, 9312, Note_on_c, 2, 38, 127
4, 9336, Note_off_c, 2, 38, 0
4, 9336, Note_on_c, 2, 31, 127
4, 9360, Note_off_c, 2, 31, 0
4, 9360, Note_on_c, 2, 38, 127
4, 9384, Note_off_c, 2, 38, 0
4, 9384, Note_on_c, 2, 43, 127
4, 9408, Note_off_c, 2, 43, 0
4, 9408, Note_on_c, 2, 31, 127
4, 9456, Note_off_c, 2, 31, 0
4, 9456, Note_on_c, 2, 43, 127
4, 9504, Note_off_c, 2, 43, 0
4, 9504, Note_on_c, 2, 38, 127
4, 9528, Note_off_c, 2, 38, 0
4, 9528, Note_on_c, 2, 31, 127
4, 9552, Note_off_c, 2, 31, 0
4, 9552, Note_on_c, 2, 38, 127
4, 9576, Note_off_c, 2, 38, 0
4, 9576, Note_on_c, 2, 43, 127
4, 9600, Note_off_c, 2, 43, 0
4, 9600, Note_on_c, 2, 31, 127
4, 9648, Note_off_c, 2, 31, 0
4, 9648, Note_on_c, 2, 43, 127
4, 9696, Note_off_c, 2, 43, 0
4, 9696, Note_on_c, 2, 38, 127
4, 9720, Note_off_c, 2, 38, 0
4, 9720, Note_on_c, 2, 31, 127
4, 9744, Note_off_c, 2, 31, 0
4, 9744, Note_on_c, 2, 38, 127
4, 9768, Note_off_c, 2, 38, 0
4, 9768, Note_on_c, 2, 43, 127
4, 9792, Note_off_c, 2, 43, 0
4, 9792, Note_on_c, 2, 31, 127
4, 9840, Note_off_c, 2, 31, 0
4, 9840, Note_on_c, 2, 43, 127
4, 9888, Note_off_c, 2, 43, 0
4, 9888, Note_on_c, 2, 38, 127
4, 9912, Note_off_c, 2, 38, 0
4, 9912, Note_on_c, 2, 31, 127
4, 9936, Note_off_c, 2, 31, 0
4, 9936, Note_on_c, 2, 38, 127
4, 9960, Note_off_c, 2, 38, 0
4, 9960, Note_on_c, 2, 43, 127
4, 9984, Note_off_c, 2, 43, 0
4, 9984, Note_on_c, 2, 32, 127
4, 10032, Note_off_c, 2, 32, 0
4, 10032, Note_on_c, 2, 44, 127
4, 10080, Note_off_c, 2, 44, 0
4, 10080, Note_on_c, 2, 39, 127
4, 10104, Note_off_c, 2, 39, 0
4, 10104, Note_on_c, 2, 32, 127
4, 10128, Note_off_c, 2, 32, 0
4, 10128, Note_on_c, 2, 39, 127
4, 10152, Note_off_c, 2, 39, 0
4, 10152, Note_on_c, 2, 44, 127
4, 10176, Note_off_c, 2, 44, 0
4, 10176, Note_on_c, 2, 32, 127
4, 10224, Note_off_c, 2, 32, 0
4, 10224, Note_on_c, 2, 44, 127
4, 10272, Note_off_c, 2, 44, 0
4, 10272, Note_on_c, 2, 39, 127
4, 10296, Note_off_c, 2, 39, 0
4, 10296, Note_on_c, 2, 32, 127
4, 10320, Note_off_c, 2, 32, 0
4, 10320, Note_on_c, 2, 39, 127
4, 10344, Note_off_c, 2, 39, 0
4, 10344, Note_on_c, 2, 44, 127
4, 10368, Note_off_c, 2, 44, 0
4, 10368, Note_on_c, 2, 32, 127
4, 10416, Note_off_c, 2, 32, 0
4, 10416, Note_on_c, 2, 44, 127
4, 10464, Note_off_c, 2, 44, 0
4, 10464, Note_on_c, 2, 39, 127
4, 10488, Note_off_c, 2, 39, 0
4, 10488, Note_on_c, 2, 32, 127
4, 10512, Note_off_c, 2, 32, 0
4, 10512, Note_on_c, 2, 39, 127
4, 10536, Note_off_c, 2, 39, 0
4, 10536, Note_on_c, 2, 44, 127
4, 10560, Note_off_c, 2, 44, 0
4, 10560, Note_on_c, 2, 32, 127
4, 10608, Note_off_c, 2, 32, 0
4, 10608, Note_on_c, 2, 44, 127
4, 10656, Note_off_c, 2, 44, 0
4, 10656, Note_on_c, 2, 39, 127
4, 10680, Note_off_c, 2, 39, 0
4, 10680, Note_on_c, 2, 32, 127
4, 10704, Note_off_c, 2, 32, 0
4, 10704, Note_on_c, 2, 39, 127
4, 10728, Note_off_c, 2, 39, 0
4, 10728, Note_on_c, 2, 44, 127
4, 10752, Note_off_c, 2, 44, 0
4, 10752, Note_on_c, 2, 31, 127
4, 10800, Note_off_c, 2, 31, 0
4, 10800, Note_on_c, 2, 43, 127
4, 10848, Note_off_c, 2, 43, 0
4, 10848, Note_on_c, 2, 38, 127
4, 10872, Note_off_c, 2, 38, 0
4, 10872, Note_on_c, 2, 31, 127
4, 10896, Note_off_c, 2, 31, 0
4, 10896, Note_on_c, 2, 38, 127
4, 10920, Note_off_c, 2, 38, 0
4, 10920, Note_on_c, 2, 43, 127
4, 10944, Note_off_c, 2, 43, 0
4, 10944, Note_on_c, 2, 31, 127
4, 10992, Note_off_c, 2, 31, 0
4, 10992, Note_on_c, 2, 43, 127
4, 11040, Note_off_c, 2, 43, 0
4, 11040, Note_on_c, 2, 38, 127
4, 11064, Note_off_c, 2, 38, 0
4, 11064, Note_on_c, 2, 31, 127
4, 11088, Note_off_c, 2, 31, 0
4, 11088, Note_on_c, 2, 38, 127
4, 11112, Note_off_c, 2, 38, 0
4, 11112, Note_on_c, 2, 43, 127
4, 11136, Note_off_c, 2, 43, 0
4, 11136, Note_on_c, 2, 31, 127
4, 11184, Note_off_c, 2, 31, 0
4, 11184, Note_on_c, 2, 43, 127
4, 11232, Note_off_c, 2, 43, 0
4, 11232, Note_on_c, 2, 38, 127
4, 11256, Note_off_c, 2, 38, 0
4, 11256, Note_on_c, 2, 31, 127
4, 11280, Note_off_c, 2, 31, 0
4, 11280, Note_on_c, 2, 38, 127
4, 11304, Note_off_c, 2, 38, 0
4, 11304, Note_on_c, 2, 43, 127
4, 11328, Note_off_c, 2, 43, 0
4, 11328, Note_on_c, 2, 31, 127
4, 11376, Note_off_c, 2, 31, 0
4, 11376, Note_on_c, 2, 43, 127
4, 11424, Note_off_c, 2, 43, 0
4, 11424, Note_on_c, 2, 38, 127
4, 11448, Note_off_c, 2, 38, 0
4, 11448, Note_on_c, 2, 31, 127
4, 11472, Note_off_c, 2, 31, 0
4, 11472, Note_on_c, 2, 38, 127
4, 11496, Note_off_c, 2, 38, 0
4, 11496, Note_on_c, 2, 43, 127
4, 11520, Note_off_c, 2, 43, 0
4, 11520, Note_on_c, 2, 32, 127
4, 11568, Note_off_c, 2, 32, 0
4, 11568, Note_on_c, 2, 44, 127
4, 11616, Note_off_c, 2, 44, 0
4, 11616, Note_on_c, 2, 39, 127
4, 11640, Note_off_c, 2, 39, 0
4, 11640, Note_on_c, 2, 32, 127
4, 11664, Note_off_c, 2, 32, 0
4, 11664, Note_on_c, 2, 39, 127
4, 11688, Note_off_c, 2, 39, 0
4, 11688, Note_on_c, 2, 44, 127
4, 11712, Note_off_c, 2, 44, 0
4, 11712, Note_on_c, 2, 32, 127
4, 11760, Note_off_c, 2, 32, 0
4, 11760, Note_on_c, 2, 44, 127
4, 11808, Note_off_c, 2, 44, 0
4, 11808, Note_on_c, 2, 39, 127
4, 11832, Note_off_c, 2, 39, 0
4, 11832, Note_on_c, 2, 32, 127
4, 11856, Note_off_c, 2, 32, 0
4, 11856, Note_on_c, 2, 39, 127
4, 11880, Note_off_c, 2, 39, 0
4, 11880, Note_on_c, 2, 44, 127
4, 11904, Note_off_c, 2, 44, 0
4, 11904, Note_on_c, 2, 32, 127
4, 11952, Note_off_c, 2, 32, 0
4, 11952, Note_on_c, 2, 44, 127
4, 12000, Note_off_c, 2, 44, 0
4, 12000, Note_on_c, 2, 39, 127
4, 12024, Note_off_c, 2, 39, 0
4, 12024, Note_on_c, 2, 32, 127
4, 12048, Note_off_c, 2, 32, 0
4, 12048, Note_on_c, 2, 39, 127
4, 12072, Note_off_c, 2, 39, 0
4, 12072, Note_on_c, 2, 44, 127
4, 12096, Note_off_c, 2, 44, 0
4, 12096, Note_on_c, 2, 32, 127
4, 12144, Note_off_c, 2, 32, 0
4, 12144, Note_on_c, 2, 44, 127
4, 12192, Note_off_c, 2, 44, 0
4, 12192, Note_on_c, 2, 39, 127
4, 12216, Note_off_c, 2, 39, 0
4, 12216, Note_on_c, 2, 32, 127
4, 12240, Note_off_c, 2, 32, 0
4, 12240, Note_on_c, 2, 39, 127
4, 12264, Note_off_c, 2, 39, 0
4, 12264, Note_on_c, 2, 44, 127
4, 12288, Note_off_c, 2, 44, 0
4, 12288, Note_on_c, 2, 31, 127
4, 12336, Note_off_c, 2, 31, 0
4, 12336, Note_on_c, 2, 43, 127
4, 12384, Note_off_c, 2, 43, 0
4, 12384, Note_on_c, 2, 38, 127
4, 12408, Note_off_c, 2, 38, 0
4, 12408, Note_on_c, 2, 31, 127
4, 12432, Note_off_c, 2, 31, 0
4, 12432, Note_on_c, 2, 38, 127
4, 12456, Note_off_c, 2, 38, 0
4, 12456, Note_on_c, 2, 43, 127
4, 12480, Note_off_c, 2, 43, 0
4, 12480, Note_on_c, 2, 31, 127
4, 12528, Note_off_c, 2, 31, 0
4, 12528, Note_on_c, 2, 43, 127
4, 12576, Note_off_c, 2, 43, 0
4, 12576, Note_on_c, 2, 38, 127
4, 12600, Note_off_c, 2, 38, 0
4, 12600, Note_on_c, 2, 31, 127
4, 12624, Note_off_c, 2, 31, 0
4, 12624, Note_on_c, 2, 38, 127
4, 12648, Note_off_c, 2, 38, 0
4, 12648, Note_on_c, 2, 43, 127
4, 12672, Note_off_c, 2, 43, 0
4, 12672, Note_on_c, 2, 31, 127
4, 12720, Note_off_c, 2, 31, 0
4, 12720, Note_on_c, 2, 43, 127
4, 12768, Note_off_c, 2, 43, 0
4, 12768, Note_on_c, 2, 38, 127
4, 12792, Note_off_c, 2, 38, 0
4, 12792, Note_on_c, 2, 31, 127
4, 12816, Note_off_c, 2, 31, 0
4, 12816, Note_on_c, 2, 38, 127
4, 12840, Note_off_c, 2, 38, 0
4, 12840, Note_on_c, 2, 43, 127
4, 12864, Note_off_c, 2, 43, 0
4, 12864, Note_on_c, 2, 31, 127
4, 12912, Note_off_c, 2, 31, 0
4, 12912, Note_on_c, 2, 43, 127
4, 12960, Note_off_c, 2, 43, 0
4, 12960, Note_on_c, 2, 38, 127
4, 12984, Note_off_c, 2, 38, 0
4, 12984, Note_on_c, 2, 31, 127
4, 13008, Note_off_c, 2, 31, 0
4, 13008, Note_on_c, 2, 38, 127
4, 13032, Note_off_c, 2, 38, 0
4, 13032, Note_on_c, 2, 43, 127
4, 13056, Note_off_c, 2, 43, 0
4, 13056, Note_on_c, 2, 36, 127
4, 13104, Note_off_c, 2, 36, 0
4, 13104, Note_on_c, 2, 48, 127
4, 13152, Note_off_c, 2, 48, 0
4, 13152, Note_on_c, 2, 43, 127
4, 13176, Note_off_c, 2, 43, 0
4, 13176, Note_on_c, 2, 36, 127
4, 13200, Note_off_c, 2, 36, 0
4, 13200, Note_on_c, 2, 43, 127
4, 13224, Note_off_c, 2, 43, 0
4, 13224, Note_on_c, 2, 48, 127
4, 13248, Note_off_c, 2, 48, 0
4, 13248, Note_on_c, 2, 36, 127
4, 13296, Note_off_c, 2, 36, 0
4, 13296, Note_on_c, 2, 48, 127
4, 13344, Note_off_c, 2, 48, 0
4, 13344, Note_on_c, 2, 43, 127
4, 13368, Note_off_c, 2, 43, 0
4, 13368, Note_on_c, 2, 36, 127
4, 13392, Note_off_c, 2, 36, 0
4, 13392, Note_on_c, 2, 43, 127
4, 13416, Note_off_c, 2, 43, 0
4, 13416, Note_on_c, 2, 48, 127
4, 13440, Note_off_c, 2, 48, 0
4, 13440, Note_on_c, 2, 36, 127
4, 13488, Note_off_c, 2, 36, 0
4, 13488, Note_on_c, 2, 48, 127
4, 13536, Note_off_c, 2, 48, 0
4, 13536, Note_on_c, 2, 43, 127
4, 13560, Note_off_c, 2, 43, 0
4, 13560, Note_on_c, 2, 36, 127
4, 13584, Note_off_c, 2, 36, 0
4, 13584, Note_on_c, 2, 43, 127
4, 13608, Note_off_c, 2, 43, 0
4, 13608, Note_on_c, 2, 48, 127
4, 13632, Note_off_c, 2, 48, 0
4, 13632, Note_on_c, 2, 34, 127
4, 13680, Note_off_c, 2, 34, 0
4, 13680, Note_on_c, 2, 46, 127
4, 13728, Note_off_c, 2, 46, 0
4, 13728, Note_on_c, 2, 41, 127
4, 13752, Note_off_c, 2, 41, 0
4, 13752, Note_on_c, 2, 34, 127
4, 13776, Note_off_c, 2, 34, 0
4, 13776, Note_on_c, 2, 41, 127
4, 13800, Note_off_c, 2, 41, 0
4, 13800, Note_on_c, 2, 46, 127
4, 13824, Note_off_c, 2, 46, 0
4, 13824, Note_on_c, 2, 32, 127
4, 13872, Note_off_c, 2, 32, 0
4, 13872, Note_on_c, 2, 44, 127
4, 13920, Note_off_c, 2, 44, 0
4, 13920, Note_on_c, 2, 39, 127
4, 13944, Note_off_c, 2, 39, 0
4, 13944, Note_on_c, 2, 32, 127
4, 13968, Note_off_c, 2, 32, 0
4, 13968, Note_on_c, 2, 39, 127
4, 13992, Note_off_c, 2, 39, 0
4, 13992, Note_on_c, 2, 44, 127
4, 14016, Note_off_c, 2, 44, 0
4, 14016, Note_on_c, 2, 32, 127
4, 14064, Note_off_c, 2, 32, 0
4, 14064, Note_on_c, 2, 44, 127
4, 14112, Note_off_c, 2, 44, 0
4, 14112, Note_on_c, 2, 39, 127
4, 14136, Note_off_c, 2, 39, 0
4, 14136, Note_on_c, 2, 32, 127
4, 14160, Note_off_c, 2, 32, 0
4, 14160, Note_on_c, 2, 39, 127
4, 14184, Note_off_c, 2, 39, 0
4, 14184, Note_on_c, 2, 44, 127
4, 14208, Note_off_c, 2, 44, 0
4, 14208, Note_on_c, 2, 32, 127
4, 14256, Note_off_c, 2, 32, 0
4, 14256, Note_on_c, 2, 44, 127
4, 14304, Note_off_c, 2, 44, 0
4, 14304, Note_on_c, 2, 39, 127
4, 14328, Note_off_c, 2, 39, 0
4, 14328, Note_on_c, 2, 32, 127
4, 14352, Note_off_c, 2, 32, 0
4, 14352, Note_on_c, 2, 39, 127
4, 14376, Note_off_c, 2, 39, 0
4, 14376, Note_on_c, 2, 44, 127
4, 14400, Note_off_c, 2, 44, 0
4, 14400, Note_on_c, 2, 34, 127
4, 14448, Note_off_c, 2, 34, 0
4, 14448, Note_on_c, 2, 46, 127
4, 14496, Note_off_c, 2, 46, 0
4, 14496, Note_on_c, 2, 41, 127
4, 14520, Note_off_c, 2, 41, 0
4, 14520, Note_on_c, 2, 34, 127
4, 14544, Note_off_c, 2, 34, 0
4, 14544, Note_on_c, 2, 41, 127
4, 14568, Note_off_c, 2, 41, 0
4, 14568, Note_on_c, 2, 46, 127
4, 14592, Note_off_c, 2, 46, 0
4, 14592, Note_on_c, 2, 36, 127
4, 14640, Note_off_c, 2, 36, 0
4, 14640, Note_on_c, 2, 48, 127
4, 14688, Note_off_c, 2, 48, 0
4, 14688, Note_on_c, 2, 43, 127
4, 14712, Note_off_c, 2, 43, 0
4, 14712, Note_on_c, 2, 36, 127
4, 14736, Note_off_c, 2, 36, 0
4, 14736, Note_on_c, 2, 43, 127
4, 14760, Note_off_c, 2, 43, 0
4, 14760, Note_on_c, 2, 48, 127
4, 14784, Note_off_c, 2, 48, 0
4, 14784, Note_on_c, 2, 36, 127
4, 14832, Note_off_c, 2, 36, 0
4, 14832, Note_on_c, 2, 48, 127
4, 14880, Note_off_c, 2, 48, 0
4, 14880, Note_on_c, 2, 43, 127
4, 14904, Note_off_c, 2, 43, 0
4, 14904, Note_on_c, 2, 36, 127
4, 14928, Note_off_c, 2, 36, 0
4, 14928, Note_on_c, 2, 43, 127
4, 14952, Note_off_c, 2, 43, 0
4, 14952, Note_on_c, 2, 48, 127
4, 14976, Note_off_c, 2, 48, 0
4, 14976, Note_on_c, 2, 36, 127
4, 15024, Note_off_c, 2, 36, 0
4, 15024, Note_on_c, 2, 48, 127
4, 15072, Note_off_c, 2, 48, 0
4, 15072, Note_on_c, 2, 43, 127
4, 15096, Note_off_c, 2, 43, 0
4, 15096, Note_on_c, 2, 36, 127
4, 15120, Note_off_c, 2, 36, 0
4, 15120, Note_on_c, 2, 43, 127
4, 15144, Note_off_c, 2, 43, 0
4, 15144, Note_on_c, 2, 48, 127
4, 15168, Note_off_c, 2, 48, 0
4, 15168, Note_on_c, 2, 34, 127
4, 15216, Note_off_c, 2, 34, 0
4, 15216, Note_on_c, 2, 46, 127
4, 15264, Note_off_c, 2, 46, 0
4, 15264, Note_on_c, 2, 41, 127
4, 15288, Note_off_c, 2, 41, 0
4, 15288, Note_on_c, 2, 34, 127
4, 15312, Note_off_c, 2, 34, 0
4, 15312, Note_on_c, 2, 41, 127
4, 15336, Note_off_c, 2, 41, 0
4, 15336, Note_on_c, 2, 46, 127
4, 15360, Note_off_c, 2, 46, 0
4, 15360, Note_on_c, 2, 32, 127
4, 15408, Note_off_c, 2, 32, 0
4, 15408, Note_on_c, 2, 44, 127
4, 15456, Note_off_c, 2, 44, 0
4, 15456, Note_on_c, 2, 39, 127
4, 15480, Note_off_c, 2, 39, 0
4, 15480, Note_on_c, 2, 32, 127
4, 15504, Note_off_c, 2, 32, 0
4, 15504, Note_on_c, 2, 39, 127
4, 15528, Note_off_c, 2, 39, 0
4, 15528, Note_on_c, 2, 44, 127
4, 15552, Note_off_c, 2, 44, 0
4, 15552, Note_on_c, 2, 32, 127
4, 15600, Note_off_c, 2, 32, 0
4, 15600, Note_on_c, 2, 44, 127
4, 15648, Note_off_c, 2, 44, 0
4, 15648, Note_on_c, 2, 39, 127
4, 15672, Note_off_c, 2, 39, 0
4, 15672, Note_on_c, 2, 32, 127
4, 15696, Note_off_c, 2, 32, 0
4, 15696, Note_on_c, 2, 39, 127
4, 15720, Note_off_c, 2, 39, 0
4, 15720, Note_on_c, 2, 44, 127
4, 15744, Note_off_c, 2, 44, 0
4, 15744, Note_on_c, 2, 32, 127
4, 15792, Note_off_c, 2, 32, 0
4, 15792, Note_on_c, 2, 44, 127
4, 15840, Note_off_c, 2, 44, 0
4, 15840, Note_on_c, 2, 39, 127
4, 15864, Note_off_c, 2, 39, 0
4, 15864, Note_on_c, 2, 32, 127
4, 15888, Note_off_c, 2, 32, 0
4, 15888, Note_on_c, 2, 39, 127
4, 15912, Note_off_c, 2, 39, 0
4, 15912, Note_on_c, 2, 44, 127
4, 15936, Note_off_c, 2, 44, 0
4, 15936, Note_on_c, 2, 34, 127
4, 15984, Note_off_c, 2, 34, 0
4, 15984, Note_on_c, 2, 46, 127
4, 16032, Note_off_c, 2, 46, 0
4, 16032, Note_on_c, 2, 41, 127
4, 16056, Note_off_c, 2, 41, 0
4, 16056, Note_on_c, 2, 34, 127
4, 16080, Note_off_c, 2, 34, 0
4, 16080, Note_on_c, 2, 41, 127
4, 16104, Note_off_c, 2, 41, 0
4, 16104, Note_on_c, 2, 46, 127
4, 16128, Note_off_c, 2, 46, 0
4, 16128, Note_on_c, 2, 36, 127
4, 16176, Note_off_c, 2, 36, 0
4, 16176, Note_on_c, 2, 48, 127
4, 16224, Note_off_c, 2, 48, 0
4, 16224, Note_on_c, 2, 43, 127
4, 16248, Note_off_c, 2, 43, 0
4, 16248, Note_on_c, 2, 36, 127
4, 16272, Note_off_c, 2, 36, 0
4, 16272, Note_on_c, 2, 43, 127
4, 16296, Note_off_c, 2, 43, 0
4, 16296, Note_on_c, 2, 48, 127
4, 16320, Note_off_c, 2, 48, 0
4, 16320, Note_on_c, 2, 36, 127
4, 16368, Note_off_c, 2, 36, 0
4, 16368, Note_on_c, 2, 48, 127
4, 16416, Note_off_c, 2, 48, 0
4, 16416, Note_on_c, 2, 43, 127
4, 16440, Note_off_c, 2, 43, 0
4, 16440, Note_on_c, 2, 36, 127
4, 16464, Note_off_c, 2, 36, 0
4, 16464, Note_on_c, 2, 43, 127
4, 16488, Note_off_c, 2, 43, 0
4, 16488, Note_on_c, 2, 48, 127
4, 16512, Note_off_c, 2, 48, 0
4, 16512, Note_on_c, 2, 36, 127
4, 16560, Note_off_c, 2, 36, 0
4, 16560, Note_on_c, 2, 48, 127
4, 16608, Note_off_c, 2, 48, 0
4, 16608, Note_on_c, 2, 43, 127
4, 16632, Note_off_c, 2, 43, 0
4, 16632, Note_on_c, 2, 36, 127
4, 16656, Note_off_c, 2, 36, 0
4, 16656, Note_on_c, 2, 43, 127
4, 16680, Note_off_c, 2, 43, 0
4, 16680, Note_on_c, 2, 48, 127
4, 16704, Note_off_c, 2, 48, 0
4, 16704, Note_on_c, 2, 34, 127
4, 16752, Note_off_c, 2, 34, 0
4, 16752, Note_on_c, 2, 46, 127
4, 16800, Note_off_c, 2, 46, 0
4, 16800, Note_on_c, 2, 41, 127
4, 16824, Note_off_c, 2, 41, 0
4, 16824, Note_on_c, 2, 34, 127
4, 16848, Note_off_c, 2, 34, 0
4, 16848, Note_on_c, 2, 41, 127
4, 16872, Note_off_c, 2, 41, 0
4, 16872, Note_on_c, 2, 46, 127
4, 16896, Note_off_c, 2, 46, 0
4, 16896, Note_on_c, 2, 32, 127
4, 16944, Note_off_c, 2, 32, 0
4, 16944, Note_on_c, 2, 44, 127
4, 16992, Note_off_c, 2, 44, 0
4, 16992, Note_on_c, 2, 39, 127
4, 17016, Note_off_c, 2, 39, 0
4, 17016, Note_on_c, 2, 32, 127
4, 17040, Note_off_c, 2, 32, 0
4, 17040, Note_on_c, 2, 39, 127
4, 17064, Note_off_c, 2, 39, 0
4, 17064, Note_on_c, 2, 44, 127
4, 17088, Note_off_c, 2, 44, 0
4, 17088, Note_on_c, 2, 32, 127
4, 17136, Note_off_c, 2, 32, 0
4, 17136, Note_on_c, 2, 44, 127
4, 17184, Note_off_c, 2, 44, 0
4, 17184, Note_on_c, 2, 39, 127
4, 17208, Note_off_c, 2, 39, 0
4, 17208, Note_on_c, 2, 32, 127
4, 17232, Note_off_c, 2, 32, 0
4, 17232, Note_on_c, 2, 39, 127
4, 17256, Note_off_c, 2, 39, 0
4, 17256, Note_on_c, 2, 44, 127
4, 17280, Note_off_c, 2, 44, 0
4, 17280, Note_on_c, 2, 32, 127
4, 17328, Note_off_c, 2, 32, 0
4, 17328, Note_on_c, 2, 44, 127
4, 17376, Note_off_c, 2, 44, 0
4, 17376, Note_on_c, 2, 39, 127
4, 17400, Note_off_c, 2, 39, 0
4, 17400, Note_on_c, 2, 32, 127
4, 17424, Note_off_c, 2, 32, 0
4, 17424, Note_on_c, 2, 39, 127
4, 17448, Note_off_c, 2, 39, 0
4, 17448, Note_on_c, 2, 44, 127
4, 17472, Note_off_c, 2, 44, 0
4, 17472, Note_on_c, 2, 34, 127
4, 17520, Note_off_c, 2, 34, 0
4, 17520, Note_on_c, 2, 46, 127
4, 17568, Note_off_c, 2, 46, 0
4, 17568, Note_on_c, 2, 41, 127
4, 17592, Note_off_c, 2, 41, 0
4, 17592, Note_on_c, 2, 34, 127
4, 17616, Note_off_c, 2, 34, 0
4, 17616, Note_on_c, 2, 41, 127
4, 17640, Note_off_c, 2, 41, 0
4, 17640, Note_on_c, 2, 46, 127
4, 17664, Note_off_c, 2, 46, 0
4, 17664, Note_on_c, 2, 36, 127
4, 17712, Note_off_c, 2, 36, 0
4, 17712, Note_on_c, 2, 48, 127
4, 17760, Note_off_c, 2, 48, 0
4, 17760, Note_on_c, 2, 43, 127
4, 17784, Note_off_c, 2, 43, 0
4, 17784, Note_on_c, 2, 36, 127
4, 17808, Note_off_c, 2, 36, 0
4, 17808, Note_on_c, 2, 43, 127
4, 17832, Note_off_c, 2, 43, 0
4, 17832, Note_on_c, 2, 48, 127
4, 17856, Note_off_c, 2, 48, 0
4, 17856, Note_on_c, 2, 36, 127
4, 17904, Note_off_c, 2, 36, 0
4, 17904, Note_on_c, 2, 48, 127
4, 17952, Note_off_c, 2, 48, 0
4, 17952, Note_on_c, 2, 43, 127
4, 17976, Note_off_c, 2, 43, 0
4, 17976, Note_on_c, 2, 36, 127
4, 18000, Note_off_c, 2, 36, 0
4, 18000, Note_on_c, 2, 43, 127
4, 18024, Note_off_c, 2, 43, 0
4, 18024, Note_on_c, 2, 48, 127
4, 18048, Note_off_c, 2, 48, 0
4, 18048, Note_on_c, 2, 36, 127
4, 18096, Note_off_c, 2, 36, 0
4, 18096, Note_on_c, 2, 48, 127
4, 18144, Note_off_c, 2, 48, 0
4, 18144, Note_on_c, 2, 43, 127
4, 18168, Note_off_c, 2, 43, 0
4, 18168, Note_on_c, 2, 36, 127
4, 18192, Note_off_c, 2, 36, 0
4, 18192, Note_on_c, 2, 43, 127
4, 18216, Note_off_c, 2, 43, 0
4, 18216, Note_on_c, 2, 48, 127
4, 18240, Note_off_c, 2, 48, 0
4, 18240, Note_on_c, 2, 34, 127
4, 18288, Note_off_c, 2, 34, 0
4, 18288, Note_on_c, 2, 46, 127
4, 18336, Note_off_c, 2, 46, 0
4, 18336, Note_on_c, 2, 41, 127
4, 18360, Note_off_c, 2, 41, 0
4, 18360, Note_on_c, 2, 34, 127
4, 18384, Note_off_c, 2, 34, 0
4, 18384, Note_on_c, 2, 41, 127
4, 18408, Note_off_c, 2, 41, 0
4, 18408, Note_on_c, 2, 46, 127
4, 18432, Note_off_c, 2, 46, 0
4, 18432, Note_on_c, 2, 32, 127
4, 18480, Note_off_c, 2, 32, 0
4, 18480, Note_on_c, 2, 44, 127
4, 18528, Note_off_c, 2, 44, 0
4, 18528, Note_on_c, 2, 39, 127
4, 18552, Note_off_c, 2, 39, 0
4, 18552, Note_on_c, 2, 32, 127
4, 18576, Note_off_c, 2, 32, 0
4, 18576, Note_on_c, 2, 39, 127
4, 18600, Note_off_c, 2, 39, 0
4, 18600, Note_on_c, 2, 44, 127
4, 18624, Note_off_c, 2, 44, 0
4, 18624, Note_on_c, 2, 32, 127
4, 18672, Note_off_c, 2, 32, 0
4, 18672, Note_on_c, 2, 44, 127
4, 18720, Note_off_c, 2, 44, 0
4, 18720, Note_on_c, 2, 39, 127
4, 18744, Note_off_c, 2, 39, 0
4, 18744, Note_on_c, 2, 32, 127
4, 18768, Note_off_c, 2, 32, 0
4, 18768, Note_on_c, 2, 39, 127
4, 18792, Note_off_c, 2, 39, 0
4, 18792, Note_on_c, 2, 44, 127
4, 18816, Note_off_c, 2, 44, 0
4, 18816, Note_on_c, 2, 32, 127
4, 18864, Note_off_c, 2, 32, 0
4, 18864, Note_on_c, 2, 44, 127
4, 18912, Note_off_c, 2, 44, 0
4, 18912, Note_on_c, 2, 39, 127
4, 18936, Note_off_c, 2, 39, 0
4, 18936, Note_on_c, 2, 32, 127
4, 18960, Note_off_c, 2, 32, 0
4, 18960, Note_on_c, 2, 39, 127
4, 18984, Note_off_c, 2, 39, 0
4, 18984, Note_on_c, 2, 44, 127
4, 19008, Note_off_c, 2, 44, 0
4, 19008, Note_on_c, 2, 34, 127
4, 19056, Note_off_c, 2, 34, 0
4, 19056, Note_on_c, 2, 46, 127
4, 19104, Note_off_c, 2, 46, 0
4, 19104, Note_on_c, 2, 41, 127
4, 19128, Note_off_c, 2, 41, 0
4, 19128, Note_on_c, 2, 34, 127
4, 19152, Note_off_c, 2, 34, 0
4, 19152, Note_on_c, 2, 41, 127
4, 19176, Note_off_c, 2, 41, 0
4, 19176, Note_on_c, 2, 46, 127
4, 19200, Note_off_c, 2, 46, 0
4, 22272, Note_on_c, 2, 36, 127
4, 22320, Note_off_c, 2, 36, 0
4, 22320, Note_on_c, 2, 48, 127
4, 22368, Note_off_c, 2, 48, 0
4, 22368, Note_on_c, 2, 43, 127
4, 22392, Note_off_c, 2, 43, 0
4, 22392, Note_on_c, 2, 36, 127
4, 22416, Note_off_c, 2, 36, 0
4, 22416, Note_on_c, 2, 43, 127
4, 22440, Note_off_c, 2, 43, 0
4, 22440, Note_on_c, 2, 48, 127
4, 22464, Note_off_c, 2, 48, 0
4, 22464, Note_on_c, 2, 36, 127
4, 22512, Note_off_c, 2, 36, 0
4, 22512, Note_on_c, 2, 48, 127
4, 22560, Note_off_c, 2, 48, 0
4, 22560, Note_on_c, 2, 43, 127
4, 22584, Note_off_c, 2, 43, 0
4, 22584, Note_on_c, 2, 36, 127
4, 22608, Note_off_c, 2, 36, 0
4, 22608, Note_on_c, 2, 43, 127
4, 22632, Note_off_c, 2, 43, 0
4, 22632, Note_on_c, 2, 48, 127
4, 22656, Note_off_c, 2, 48, 0
4, 22656, Note_on_c, 2, 35, 127
4, 22704, Note_off_c, 2, 35, 0
4, 22704, Note_on_c, 2, 47, 127
4, 22752, Note_off_c, 2, 47, 0
4, 22752, Note_on_c, 2, 43, 127
4, 22776, Note_off_c, 2, 43, 0
4, 22776, Note_on_c, 2, 35, 127
4, 22800, Note_off_c, 2, 35, 0
4, 22800, Note_on_c, 2, 43, 127
4, 22824, Note_off_c, 2, 43, 0
4, 22824, Note_on_c, 2, 47, 127
4, 22848, Note_off_c, 2, 47, 0
4, 22848, Note_on_c, 2, 35, 127
4, 22896, Note_off_c, 2, 35, 0
4, 22896, Note_on_c, 2, 47, 127
4, 22944, Note_off_c, 2, 47, 0
4, 22944, Note_on_c, 2, 43, 127
4, 22968, Note_off_c, 2, 43, 0
4, 22968, Note_on_c, 2, 35, 127
4, 22992, Note_off_c, 2, 35, 0
4, 22992, Note_on_c, 2, 43, 127
4, 23016, Note_off_c, 2, 43, 0
4, 23016, Note_on_c, 2, 47, 127
4, 23040, Note_off_c, 2, 47, 0
4, 23040, Note_on_c, 2, 32, 127
4, 23088, Note_off_c, 2, 32, 0
4, 23088, Note_on_c, 2, 44, 127
4, 23136, Note_off_c, 2, 44, 0
4, 23136, Note_on_c, 2, 39, 127
4, 23160, Note_off_c, 2, 39, 0
4, 23160, Note_on_c, 2, 32, 127
4, 23184, Note_off_c, 2, 32, 0
4, 23184, Note_on_c, 2, 39, 127
4, 23208, Note_off_c, 2, 39, 0
4, 23208, Note_on_c, 2, 44, 127
4, 23232, Note_off_c, 2, 44, 0
4, 23232, Note_on_c, 2, 32, 127
4, 23280, Note_off_c, 2, 32, 0
4, 23280, Note_on_c, 2, 44, 127
4, 23328, Note_off_c, 2, 44, 0
4, 23328, Note_on_c, 2, 39, 127
4, 23352, Note_off_c, 2, 39, 0
4, 23352, Note_on_c, 2, 32, 127
4, 23376, Note_off_c, 2, 32, 0
4, 23376, Note_on_c, 2, 39, 127
4, 23400, Note_off_c, 2, 39, 0
4, 23400, Note_on_c, 2, 44, 127
4, 23424, Note_off_c, 2, 44, 0
4, 23424, Note_on_c, 2, 31, 127
4, 23472, Note_off_c, 2, 31, 0
4, 23472, Note_on_c, 2, 43, 127
4, 23520, Note_off_c, 2, 43, 0
4, 23520, Note_on_c, 2, 38, 127
4, 23544, Note_off_c, 2, 38, 0
4, 23544, Note_on_c, 2, 31, 127
4, 23568, Note_off_c, 2, 31, 0
4, 23568, Note_on_c, 2, 38, 127
4, 23592, Note_off_c, 2, 38, 0
4, 23592, Note_on_c, 2, 43, 127
4, 23616, Note_off_c, 2, 43, 0
4, 23616, Note_on_c, 2, 31, 127
4, 23664, Note_off_c, 2, 31, 0
4, 23664, Note_on_c, 2, 43, 127
4, 23712, Note_off_c, 2, 43, 0
4, 23712, Note_on_c, 2, 38, 127
4, 23736, Note_off_c, 2, 38, 0
4, 23736, Note_on_c, 2, 31, 127
4, 23760, Note_off_c, 2, 31, 0
4, 23760, Note_on_c, 2, 38, 127
4, 23784, Note_off_c, 2, 38, 0
4, 23784, Note_on_c, 2, 43, 127
4, 23808, Note_off_c, 2, 43, 0
4, 23808, Note_on_c, 2, 36, 127
4, 23856, Note_off_c, 2, 36, 0
4, 23856, Note_on_c, 2, 48, 127
4, 23904, Note_off_c, 2, 48, 0
4, 23904, Note_on_c, 2, 43, 127
4, 23928, Note_off_c, 2, 43, 0
4, 23928, Note_on_c, 2, 36, 127
4, 23952, Note_off_c, 2, 36, 0
4, 23952, Note_on_c, 2, 43, 127
4, 23976, Note_off_c, 2, 43, 0
4, 23976, Note_on_c, 2, 48, 127
4, 24000, Note_off_c, 2, 48, 0
4, 24000, Note_on_c, 2, 36, 127
4, 24048, Note_off_c, 2, 36, 0
4, 24048, Note_on_c, 2, 48, 127
4, 24096, Note_off_c, 2, 48, 0
4, 24096, Note_on_c, 2, 43, 127
4, 24120, Note_off_c, 2, 43, 0
4, 24120, Note_on_c, 2, 36, 127
4, 24144, Note_off_c, 2, 36, 0
4, 24144, Note_on_c, 2, 43, 127
4, 24168, Note_off_c, 2, 43, 0
4, 24168, Note_on_c, 2, 48, 127
4, 24192, Note_off_c, 2, 48, 0
4, 24192, Note_on_c, 2, 35, 127
4, 24240, Note_off_c, 2, 35, 0
4, 24240, Note_on_c, 2, 47, 127
4, 24288, Note_off_c, 2, 47, 0
4, 24288, Note_on_c, 2, 43, 127
4, 24312, Note_off_c, 2, 43, 0
4, 24312, Note_on_c, 2, 35, 127
4, 24336, Note_off_c, 2, 35, 0
4, 24336, Note_on_c, 2, 43, 127
4, 24360, Note_off_c, 2, 43, 0
4, 24360, Note_on_c, 2, 47, 127
4, 24384, Note_off_c, 2, 47, 0
4, 24384, Note_on_c, 2, 35, 127
4, 24432, Note_off_c, 2, 35, 0
4, 24432, Note_on_c, 2, 47, 127
4, 24480, Note_off_c, 2, 47, 0
4, 24480, Note_on_c, 2, 43, 127
4, 24504, Note_off_c, 2, 43, 0
4, 24504, Note_on_c, 2, 35, 127
4, 24528, Note_off_c, 2, 35, 0
4, 24528, Note_on_c, 2, 43, 127
4, 24552, Note_off_c, 2, 43, 0
4, 24552, Note_on_c, 2, 47, 127
4, 24576, Note_off_c, 2, 47, 0
4, 24576, Note_on_c, 2, 32, 127
4, 24624, Note_off_c, 2, 32, 0
4, 24624, Note_on_c, 2, 44, 127
4, 24672, Note_off_c, 2, 44, 0
4, 24672, Note_on_c, 2, 39, 127
4, 24696, Note_off_c, 2, 39, 0
4, 24696, Note_on_c, 2, 32, 127
4, 24720, Note_off_c, 2, 32, 0
4, 24720, Note_on_c, 2, 39, 127
4, 24744, Note_off_c, 2, 39, 0
4, 24744, Note_on_c, 2, 44, 127
4, 24768, Note_off_c, 2, 44, 0
4, 24768, Note_on_c, 2, 32, 127
4, 24816, Note_off_c, 2, 32, 0
4, 24816, Note_on_c, 2, 44, 127
4, 24864, Note_off_c, 2, 44, 0
4, 24864, Note_on_c, 2, 39, 127
4, 24888, Note_off_c, 2, 39, 0
4, 24888, Note_on_c, 2, 32, 127
4, 24912, Note_off_c, 2, 32, 0
4, 24912, Note_on_c, 2, 39, 127
4, 24936, Note_off_c, 2, 39, 0
4, 24936, Note_on_c, 2, 44, 127
4, 24960, Note_off_c, 2, 44, 0
4, 24960, Note_on_c, 2, 31, 127
4, 25008, Note_off_c, 2, 31, 0
4, 25008, Note_on_c, 2, 43, 127
4, 25056, Note_off_c, 2, 43, 0
4, 25056, Note_on_c, 2, 38, 127
4, 25080, Note_off_c, 2, 38, 0
4, 25080, Note_on_c, 2, 31, 127
4, 25104, Note_off_c, 2, 31, 0
4, 25104, Note_on_c, 2, 38, 127
4, 25128, Note_off_c, 2, 38, 0
4, 25128, Note_on_c, 2, 43, 127
4, 25152, Note_off_c, 2, 43, 0
4, 25152, Note_on_c, 2, 31, 127
4, 25200, Note_off_c, 2, 31, 0
4, 25200, Note_on_c, 2, 43, 127
4, 25248, Note_off_c, 2, 43, 0
4, 25248, Note_on_c, 2, 38, 127
4, 25272, Note_off_c, 2, 38, 0
4, 25272, Note_on_c, 2, 31, 127
4, 25296, Note_off_c, 2, 31, 0
4, 25296, Note_on_c, 2, 38, 127
4, 25320, Note_off_c, 2, 38, 0
4, 25320, Note_on_c, 2, 43, 127
4, 25344, Note_off_c, 2, 43, 0
4, 25344, Note_on_c, 2, 32, 127
4, 25392, Note_off_c, 2, 32, 0
4, 25392, Note_on_c, 2, 44, 127
4, 25440, Note_off_c, 2, 44, 0
4, 25440, Note_on_c, 2, 39, 127
4, 25464, Note_off_c, 2, 39, 0
4, 25464, Note_on_c, 2, 32, 127
4, 25488, Note_off_c, 2, 32, 0
4, 25488, Note_on_c, 2, 39, 127
4, 25512, Note_off_c, 2, 39, 0
4, 25512, Note_on_c, 2, 44, 127
4, 25536, Note_off_c, 2, 44, 0
4, 25536, Note_on_c, 2, 32, 127
4, 25584, Note_off_c, 2, 32, 0
4, 25584, Note_on_c, 2, 44, 127
4, 25632, Note_off_c, 2, 44, 0
4, 25632, Note_on_c, 2, 39, 127
4, 25656, Note_off_c, 2, 39, 0
4, 25656, Note_on_c, 2, 32, 127
4, 25680, Note_off_c, 2, 32, 0
4, 25680, Note_on_c, 2, 39, 127
4, 25704, Note_off_c, 2, 39, 0
4, 25704, Note_on_c, 2, 44, 127
4, 25728, Note_off_c, 2, 44, 0
4, 25728, Note_on_c, 2, 32, 127
4, 25776, Note_off_c, 2, 32, 0
4, 25776, Note_on_c, 2, 44, 127
4, 25824, Note_off_c, 2, 44, 0
4, 25824, Note_on_c, 2, 39, 127
4, 25848, Note_off_c, 2, 39, 0
4, 25848, Note_on_c, 2, 32, 127
4, 25872, Note_off_c, 2, 32, 0
4, 25872, Note_on_c, 2, 39, 127
4, 25896, Note_off_c, 2, 39, 0
4, 25896, Note_on_c, 2, 44, 127
4, 25920, Note_off_c, 2, 44, 0
4, 25920, Note_on_c, 2, 32, 127
4, 25968, Note_off_c, 2, 32, 0
4, 25968, Note_on_c, 2, 44, 127
4, 26016, Note_off_c, 2, 44, 0
4, 26016, Note_on_c, 2, 39, 127
4, 26040, Note_off_c, 2, 39, 0
4, 26040, Note_on_c, 2, 32, 127
4, 26064, Note_off_c, 2, 32, 0
4, 26064, Note_on_c, 2, 39, 127
4, 26088, Note_off_c, 2, 39, 0
4, 26088, Note_on_c, 2, 44, 127
4, 26112, Note_off_c, 2, 44, 0
4, 26112, Note_on_c, 2, 31, 127
4, 26160, Note_off_c, 2, 31, 0
4, 26160, Note_on_c, 2, 43, 127
4, 26208, Note_off_c, 2, 43, 0
4, 26208, Note_on_c, 2, 38, 127
4, 26232, Note_off_c, 2, 38, 0
4, 26232, Note_on_c, 2, 31, 127
4, 26256, Note_off_c, 2, 31, 0
4, 26256, Note_on_c, 2, 38, 127
4, 26280, Note_off_c, 2, 38, 0
4, 26280, Note_on_c, 2, 43, 127
4, 26304, Note_off_c, 2, 43, 0
4, 26304, Note_on_c, 2, 31, 127
4, 26352, Note_off_c, 2, 31, 0
4, 26352, Note_on_c, 2, 43, 127
4, 26400, Note_off_c, 2, 43, 0
4, 26400, Note_on_c, 2, 38, 127
4, 26424, Note_off_c, 2, 38, 0
4, 26424, Note_on_c, 2, 31, 127
4, 26448, Note_off_c, 2, 31, 0
4, 26448, Note_on_c, 2, 38, 127
4, 26472, Note_off_c, 2, 38, 0
4, 26472, Note_on_c, 2, 43, 127
4, 26496, Note_off_c, 2, 43, 0
4, 26496, Note_on_c, 2, 31, 127
4, 26544, Note_off_c, 2, 31, 0
4, 26544, Note_on_c, 2, 43, 127
4, 26592, Note_off_c, 2, 43, 0
4, 26592, Note_on_c, 2, 38, 127
4, 26616, Note_off_c, 2, 38, 0
4, 26616, Note_on_c, 2, 31, 127
4, 26640, Note_off_c, 2, 31, 0
4, 26640, Note_on_c, 2, 38, 127
4, 26664, Note_off_c, 2, 38, 0
4, 26664, Note_on_c, 2, 43, 127
4, 26688, Note_off_c, 2, 43, 0
4, 26688, Note_on_c, 2, 31, 127
4, 26736, Note_off_c, 2, 31, 0
4, 26736, Note_on_c, 2, 43, 127
4, 26784, Note_off_c, 2, 43, 0
4, 26784, Note_on_c, 2, 38, 127
4, 26808, Note_off_c, 2, 38, 0
4, 26808, Note_on_c, 2, 31, 127
4, 26832, Note_off_c, 2, 31, 0
4, 26832, Note_on_c, 2, 38, 127
4, 26856, Note_off_c, 2, 38, 0
4, 26856, Note_on_c, 2, 43, 127
4, 26880, Note_off_c, 2, 43, 0
4, 26880, Note_on_c, 2, 32, 127
4, 26928, Note_off_c, 2, 32, 0
4, 26928, Note_on_c, 2, 44, 127
4, 26976, Note_off_c, 2, 44, 0
4, 26976, Note_on_c, 2, 39, 127
4, 27000, Note_off_c, 2, 39, 0
4, 27000, Note_on_c, 2, 32, 127
4, 27024, Note_off_c, 2, 32, 0
4, 27024, Note_on_c, 2, 39, 127
4, 27048, Note_off_c, 2, 39, 0
4, 27048, Note_on_c, 2, 44, 127
4, 27072, Note_off_c, 2, 44, 0
4, 27072, Note_on_c, 2, 32, 127
4, 27120, Note_off_c, 2, 32, 0
4, 27120, Note_on_c, 2, 44, 127
4, 27168, Note_off_c, 2, 44, 0
4, 27168, Note_on_c, 2, 39, 127
4, 27192, Note_off_c, 2, 39, 0
4, 27192, Note_on_c, 2, 32, 127
4, 27216, Note_off_c, 2, 32, 0
4, 27216, Note_on_c, 2, 39, 127
4, 27240, Note_off_c, 2, 39, 0
4, 27240, Note_on_c, 2, 44, 127
4, 27264, Note_off_c, 2, 44, 0
4, 27264, Note_on_c, 2, 32, 127
4, 27312, Note_off_c, 2, 32, 0
4, 27312, Note_on_c, 2, 44, 127
4, 27360, Note_off_c, 2, 44, 0
4, 27360, Note_on_c, 2, 39, 127
4, 27384, Note_off_c, 2, 39, 0
4, 27384, Note_on_c, 2, 32, 127
4, 27408, Note_off_c, 2, 32, 0
4, 27408, Note_on_c, 2, 39, 127
4, 27432, Note_off_c, 2, 39, 0
4, 27432, Note_on_c, 2, 44, 127
4, 27456, Note_off_c, 2, 44, 0
4, 27456, Note_on_c, 2, 32, 127
4, 27504, Note_off_c, 2, 32, 0
4, 27504, Note_on_c, 2, 44, 127
4, 27552, Note_off_c, 2, 44, 0
4, 27552, Note_on_c, 2, 39, 127
4, 27576, Note_off_c, 2, 39, 0
4, 27576, Note_on_c, 2, 32, 127
4, 27600, Note_off_c, 2, 32, 0
4, 27600, Note_on_c, 2, 39, 127
4, 27624, Note_off_c, 2, 39, 0
4, 27624, Note_on_c, 2, 44, 127
4, 27648, Note_off_c, 2, 44, 0
4, 27648, Note_on_c, 2, 31, 127
4, 27696, Note_off_c, 2, 31, 0
4, 27696, Note_on_c, 2, 43, 127
4, 27744, Note_off_c, 2, 43, 0
4, 27744, Note_on_c, 2, 38, 127
4, 27768, Note_off_c, 2, 38, 0
4, 27768, Note_on_c, 2, 31, 127
4, 27792, Note_off_c, 2, 31, 0
4, 27792, Note_on_c, 2, 38, 127
4, 27816, Note_off_c, 2, 38, 0
4, 27816, Note_on_c, 2, 43, 127
4, 27840, Note_off_c, 2, 43, 0
4, 27840, Note_on_c, 2, 31, 127
4, 27888, Note_off_c, 2, 31, 0
4, 27888, Note_on_c, 2, 43, 127
4, 27936, Note_off_c, 2, 43, 0
4, 27936, Note_on_c, 2, 38, 127
4, 27960, Note_off_c, 2, 38, 0
4, 27960, Note_on_c, 2, 31, 127
4, 27984, Note_off_c, 2, 31, 0
4, 27984, Note_on_c, 2, 38, 127
4, 28008, Note_off_c, 2, 38, 0
4, 28008, Note_on_c, 2, 43, 127
4, 28032, Note_off_c, 2, 43, 0
4, 28032, Note_on_c, 2, 31, 127
4, 28080, Note_off_c, 2, 31, 0
4, 28080, Note_on_c, 2, 43, 127
4, 28128, Note_off_c, 2, 43, 0
4, 28128, Note_on_c, 2, 38, 127
4, 28152, Note_off_c, 2, 38, 0
4, 28152, Note_on_c, 2, 31, 127
4, 28176, Note_off_c, 2, 31, 0
4, 28176, Note_on_c, 2, 38, 127
4, 28200, Note_off_c, 2, 38, 0
4, 28200, Note_on_c, 2, 43, 127
4, 28224, Note_off_c, 2, 43, 0
4, 28224, Note_on_c, 2, 31, 127
4, 28272, Note_off_c, 2, 31, 0
4, 28272, Note_on_c, 2, 43, 127
4, 28320, Note_off_c, 2, 43, 0
4, 28320, Note_on_c, 2, 38, 127
4, 28344, Note_off_c, 2, 38, 0
4, 28344, Note_on_c, 2, 31, 127
4, 28368, Note_off_c, 2, 31, 0
4, 28368, Note_on_c, 2, 38, 127
4, 28392, Note_off_c, 2, 38, 0
4, 28392, Note_on_c, 2, 43, 127
4, 28416, Note_off_c, 2, 43, 0
4, 28416, Note_on_c, 2, 32, 127
4, 28464, Note_off_c, 2, 32, 0
4, 28464, Note_on_c, 2, 44, 127
4, 28512, Note_off_c, 2, 44, 0
4, 28512, Note_on_c, 2, 39, 127
4, 28536, Note_off_c, 2, 39, 0
4, 28536, Note_on_c, 2, 32, 127
4, 28560, Note_off_c, 2, 32, 0
4, 28560, Note_on_c, 2, 39, 127
4, 28584, Note_off_c, 2, 39, 0
4, 28584, Note_on_c, 2, 44, 127
4, 28608, Note_off_c, 2, 44, 0
4, 28608, Note_on_c, 2, 32, 127
4, 28656, Note_off_c, 2, 32, 0
4, 28656, Note_on_c, 2, 44, 127
4, 28704, Note_off_c, 2, 44, 0
4, 28704, Note_on_c, 2, 39, 127
4, 28728, Note_off_c, 2, 39, 0
4, 28728, Note_on_c, 2, 32, 127
4, 28752, Note_off_c, 2, 32, 0
4, 28752, Note_on_c, 2, 39, 127
4, 28776, Note_off_c, 2, 39, 0
4, 28776, Note_on_c, 2, 44, 127
4, 28800, Note_off_c, 2, 44, 0
4, 28800, Note_on_c, 2, 32, 127
4, 28848, Note_off_c, 2, 32, 0
4, 28848, Note_on_c, 2, 44, 127
4, 28896, Note_off_c, 2, 44, 0
4, 28896, Note_on_c, 2, 39, 127
4, 28920, Note_off_c, 2, 39, 0
4, 28920, Note_on_c, 2, 32, 127
4, 28944, Note_off_c, 2, 32, 0
4, 28944, Note_on_c, 2, 39, 127
4, 28968, Note_off_c, 2, 39, 0
4, 28968, Note_on_c, 2, 44, 127
4, 28992, Note_off_c, 2, 44, 0
4, 28992, Note_on_c, 2, 32, 127
4, 29040, Note_off_c, 2, 32, 0
4, 29040, Note_on_c, 2, 44, 127
4, 29088, Note_off_c, 2, 44, 0
4, 29088, Note_on_c, 2, 39, 127
4, 29112, Note_off_c, 2, 39, 0
4, 29112, Note_on_c, 2, 32, 127
4, 29136, Note_off_c, 2, 32, 0
4, 29136, Note_on_c, 2, 39, 127
4, 29160, Note_off_c, 2, 39, 0
4, 29160, Note_on_c, 2, 44, 127
4, 29184, Note_off_c, 2, 44, 0
4, 29184, Note_on_c, 2, 31, 127
4, 29232, Note_off_c, 2, 31, 0
4, 29232, Note_on_c, 2, 43, 127
4, 29280, Note_off_c, 2, 43, 0
4, 29280, Note_on_c, 2, 38, 127
4, 29304, Note_off_c, 2, 38, 0
4, 29304, Note_on_c, 2, 31, 127
4, 29328, Note_off_c, 2, 31, 0
4, 29328, Note_on_c, 2, 38, 127
4, 29352, Note_off_c, 2, 38, 0
4, 29352, Note_on_c, 2, 43, 127
4, 29376, Note_off_c, 2, 43, 0
4, 29376, Note_on_c, 2, 31, 127
4, 29424, Note_off_c, 2, 31, 0
4, 29424, Note_on_c, 2, 43, 127
4, 29472, Note_off_c, 2, 43, 0
4, 29472, Note_on_c, 2, 38, 127
4, 29496, Note_off_c, 2, 38, 0
4, 29496, Note_on_c, 2, 31, 127
4, 29520, Note_off_c, 2, 31, 0
4, 29520, Note_on_c, 2, 38, 127
4, 29544, Note_off_c, 2, 38, 0
4, 29544, Note_on_c, 2, 43, 127
4, 29568, Note_off_c, 2, 43, 0
4, 29568, Note_on_c, 2, 31, 127
4, 29616, Note_off_c, 2, 31, 0
4, 29616, Note_on_c, 2, 43, 127
4, 29664, Note_off_c, 2, 43, 0
4, 29664, Note_on_c, 2, 38, 127
4, 29688, Note_off_c, 2, 38, 0
4, 29688, Note_on_c, 2, 31, 127
4, 29712, Note_off_c, 2, 31, 0
4, 29712, Note_on_c, 2, 38, 127
4, 29736, Note_off_c, 2, 38, 0
4, 29736, Note_on_c, 2, 43, 127
4, 29760, Note_off_c, 2, 43, 0
4, 29760, Note_on_c, 2, 31, 127
4, 29808, Note_off_c, 2, 31, 0
4, 29808, Note_on_c, 2, 43, 127
4, 29856, Note_off_c, 2, 43, 0
4, 29856, Note_on_c, 2, 38, 127
4, 29880, Note_off_c, 2, 38, 0
4, 29880, Note_on_c, 2, 31, 127
4, 29904, Note_off_c, 2, 31, 0
4, 29904, Note_on_c, 2, 38, 127
4, 29928, Note_off_c, 2, 38, 0
4, 29928, Note_on_c, 2, 43, 127
4, 29952, Note_off_c, 2, 43, 0
4, 29952, Note_on_c, 2, 32, 127
4, 30000, Note_off_c, 2, 32, 0
4, 30000, Note_on_c, 2, 44, 127
4, 30048, Note_off_c, 2, 44, 0
4, 30048, Note_on_c, 2, 39, 127
4, 30072, Note_off_c, 2, 39, 0
4, 30072, Note_on_c, 2, 32, 127
4, 30096, Note_off_c, 2, 32, 0
4, 30096, Note_on_c, 2, 39, 127
4, 30120, Note_off_c, 2, 39, 0
4, 30120, Note_on_c, 2, 44, 127
4, 30144, Note_off_c, 2, 44, 0
4, 30144, Note_on_c, 2, 32, 127
4, 30192, Note_off_c, 2, 32, 0
4, 30192, Note_on_c, 2, 44, 127
4, 30240, Note_off_c, 2, 44, 0
4, 30240, Note_on_c, 2, 39, 127
4, 30264, Note_off_c, 2, 39, 0
4, 30264, Note_on_c, 2, 32, 127
4, 30288, Note_off_c, 2, 32, 0
4, 30288, Note_on_c, 2, 39, 127
4, 30312, Note_off_c, 2, 39, 0
4, 30312, Note_on_c, 2, 44, 127
4, 30336, Note_off_c, 2, 44, 0
4, 30336, Note_on_c, 2, 32, 127
4, 30384, Note_off_c, 2, 32, 0
4, 30384, Note_on_c, 2, 44, 127
4, 30432, Note_off_c, 2, 44, 0
4, 30432, Note_on_c, 2, 39, 127
4, 30456, Note_off_c, 2, 39, 0
4, 30456, Note_on_c, 2, 32, 127
4, 30480, Note_off_c, 2, 32, 0
4, 30480, Note_on_c, 2, 39, 127
4, 30504, Note_off_c, 2, 39, 0
4, 30504, Note_on_c, 2, 44, 127
4, 30528, Note_off_c, 2, 44, 0
4, 30528, Note_on_c, 2, 32, 127
4, 30576, Note_off_c, 2, 32, 0
4, 30576, Note_on_c, 2, 44, 127
4, 30624, Note_off_c, 2, 44, 0
4, 30624, Note_on_c, 2, 39, 127
4, 30648, Note_off_c, 2, 39, 0
4, 30648, Note_on_c, 2, 32, 127
4, 30672, Note_off_c, 2, 32, 0
4, 30672, Note_on_c, 2, 39, 127
4, 30696, Note_off_c, 2, 39, 0
4, 30696, Note_on_c, 2, 44, 127
4, 30720, Note_off_c, 2, 44, 0
4, 30720, Note_on_c, 2, 31, 127
4, 30768, Note_off_c, 2, 31, 0
4, 30768, Note_on_c, 2, 43, 127
4, 30816, Note_off_c, 2, 43, 0
4, 30816, Note_on_c, 2, 38, 127
4, 30840, Note_off_c, 2, 38, 0
4, 30840, Note_on_c, 2, 31, 127
4, 30864, Note_off_c, 2, 31, 0
4, 30864, Note_on_c, 2, 38, 127
4, 30888, Note_off_c, 2, 38, 0
4, 30888, Note_on_c, 2, 43, 127
4, 30912, Note_off_c, 2, 43, 0
4, 30912, Note_on_c, 2, 31, 127
4, 30960, Note_off_c, 2, 31, 0
4, 30960, Note_on_c, 2, 43, 127
4, 31008, Note_off_c, 2, 43, 0
4, 31008, Note_on_c, 2, 38, 127
4, 31032, Note_off_c, 2, 38, 0
4, 31032, Note_on_c, 2, 31, 127
4, 31056, Note_off_c, 2, 31, 0
4, 31056, Note_on_c, 2, 38, 127
4, 31080, Note_off_c, 2, 38, 0
4, 31080, Note_on_c, 2, 43, 127
4, 31104, Note_off_c, 2, 43, 0
4, 31104, Note_on_c, 2, 31, 127
4, 31152, Note_off_c, 2, 31, 0
4, 31152, Note_on_c, 2, 43, 127
4, 31200, Note_off_c, 2, 43, 0
4, 31200, Note_on_c, 2, 38, 127
4, 31224, Note_off_c, 2, 38, 0
4, 31224, Note_on_c, 2, 31, 127
4, 31248, Note_off_c, 2, 31, 0
4, 31248, Note_on_c, 2, 38, 127
4, 31272, Note_off_c, 2, 38, 0
4, 31272, Note_on_c, 2, 43, 127
4, 31296, Note_off_c, 2, 43, 0
4, 31296, Note_on_c, 2, 31, 127
4, 31344, Note_off_c, 2, 31, 0
4, 31344, Note_on_c, 2, 43, 127
4, 31392, Note_off_c, 2, 43, 0
4, 31392, Note_on_c, 2, 38, 127
4, 31416, Note_off_c, 2, 38, 0
4, 31416, Note_on_c, 2, 31, 127
4, 31440, Note_off_c, 2, 31, 0
4, 31440, Note_on_c, 2, 38, 127
4, 31464, Note_off_c, 2, 38, 0
4, 31464, Note_on_c, 2, 43, 127
4, 31488, Note_off_c, 2, 43, 0
4, 31488, Note_on_c, 2, 36, 127
4, 31536, Note_off_c, 2, 36, 0
4, 31536, Note_on_c, 2, 48, 127
4, 31584, Note_off_c, 2, 48, 0
4, 31584, Note_on_c, 2, 43, 127
4, 31608, Note_off_c, 2, 43, 0
4, 31608, Note_on_c, 2, 36, 127
4, 31632, Note_off_c, 2, 36, 0
4, 31632, Note_on_c, 2, 43, 127
4, 31656, Note_off_c, 2, 43, 0
4, 31656, Note_on_c, 2, 48, 127
4, 31680, Note_off_c, 2, 48, 0
4, 31680, Note_on_c, 2, 36, 127
4, 31728, Note_off_c, 2, 36, 0
4, 31728, Note_on_c, 2, 48, 127
4, 31776, Note_off_c, 2, 48, 0
4, 31776, Note_on_c, 2, 43, 127
4, 31800, Note_off_c, 2, 43, 0
4, 31800, Note_on_c, 2, 36, 127
4, 31824, Note_off_c, 2, 36, 0
4, 31824, Note_on_c, 2, 43, 127
4, 31848, Note_off_c, 2, 43, 0
4, 31848, Note_on_c, 2, 48, 127
4, 31872, Note_off_c, 2, 48, 0
4, 31872, Note_on_c, 2, 37, 127
4, 31920, Note_off_c, 2, 37, 0
4, 31920, Note_on_c, 2, 49, 127
4, 31968, Note_off_c, 2, 49, 0
4, 31968, Note_on_c, 2, 44, 127
4, 31992, Note_off_c, 2, 44, 0
4, 31992, Note_on_c, 2, 37, 127
4, 32016, Note_off_c, 2, 37, 0
4, 32016, Note_on_c, 2, 44, 127
4, 32040, Note_off_c, 2, 44, 0
4, 32040, Note_on_c, 2, 49, 127
4, 32064, Note_off_c, 2, 49, 0
4, 32064, Note_on_c, 2, 39, 127
4, 32112, Note_off_c, 2, 39, 0
4, 32112, Note_on_c, 2, 51, 127
4, 32160, Note_off_c, 2, 51, 0
4, 32160, Note_on_c, 2, 46, 127
4, 32184, Note_off_c, 2, 46, 0
4, 32184, Note_on_c, 2, 39, 127
4, 32208, Note_off_c, 2, 39, 0
4, 32208, Note_on_c, 2, 46, 127
4, 32232, Note_off_c, 2, 46, 0
4, 32232, Note_on_c, 2, 51, 127
4, 32256, Note_off_c, 2, 51, 0
4, 32256, Note_on_c, 2, 36, 127
4, 32304, Note_off_c, 2, 36, 0
4, 32304, Note_on_c, 2, 48, 127
4, 32352, Note_off_c, 2, 48, 0
4, 32352, Note_on_c, 2, 43, 127
4, 32376, Note_off_c, 2, 43, 0
4, 32376, Note_on_c, 2, 36, 127
4, 32400, Note_off_c, 2, 36, 0
4, 32400, Note_on_c, 2, 43, 127
4, 32424, Note_off_c, 2, 43, 0
4, 32424, Note_on_c, 2, 48, 127
4, 32448, Note_off_c, 2, 48, 0
4, 32448, Note_on_c, 2, 36, 127
4, 32496, Note_off_c, 2, 36, 0
4, 32496, Note_on_c, 2, 48, 127
4, 32544, Note_off_c, 2, 48, 0
4, 32544, Note_on_c, 2, 43, 127
4, 32568, Note_off_c, 2, 43, 0
4, 32568, Note_on_c, 2, 36, 127
4, 32592, Note_off_c, 2, 36, 0
4, 32592, Note_on_c, 2, 43, 127
4, 32616, Note_off_c, 2, 43, 0
4, 32616, Note_on_c, 2, 48, 127
4, 32640, Note_off_c, 2, 48, 0
4, 32640, Note_on_c, 2, 32, 127
4, 32688, Note_off_c, 2, 32, 0
4, 32688, Note_on_c, 2, 44, 127
4, 32736, Note_off_c, 2, 44, 0
4, 32736, Note_on_c, 2, 39, 127
4, 32760, Note_off_c, 2, 39, 0
4, 32760, Note_on_c, 2, 32, 127
4, 32784, Note_off_c, 2, 32, 0
4, 32784, Note_on_c, 2, 39, 127
4, 32808, Note_off_c, 2, 39, 0
4, 32808, Note_on_c, 2, 44, 127
4, 32832, Note_off_c, 2, 44, 0
4, 32832, Note_on_c, 2, 31, 127
4, 32880, Note_off_c, 2, 31, 0
4, 32880, Note_on_c, 2, 43, 127
4, 32928, Note_off_c, 2, 43, 0
4, 32928, Note_on_c, 2, 38, 127
4, 32952, Note_off_c, 2, 38, 0
4, 32952, Note_on_c, 2, 31, 127
4, 32976, Note_off_c, 2, 31, 0
4, 32976, Note_on_c, 2, 38, 127
4, 33000, Note_off_c, 2, 38, 0
4, 33000, Note_on_c, 2, 43, 127
4, 33024, Note_off_c, 2, 43, 0
4, 33024, Note_on_c, 2, 36, 127
4, 33072, Note_off_c, 2, 36, 0
4, 33072, Note_on_c, 2, 48, 127
4, 33120, Note_off_c, 2, 48, 0
4, 33120, Note_on_c, 2, 43, 127
4, 33144, Note_off_c, 2, 43, 0
4, 33144, Note_on_c, 2, 36, 127
4, 33168, Note_off_c, 2, 36, 0
4, 33168, Note_on_c, 2, 43, 127
4, 33192, Note_off_c, 2, 43, 0
4, 33192, Note_on_c, 2, 48, 127
4, 33216, Note_off_c, 2, 48, 0
4, 33216, Note_on_c, 2, 36, 127
4, 33264, Note_off_c, 2, 36, 0
4, 33264, Note_on_c, 2, 48, 127
4, 33312, Note_off_c, 2, 48, 0
4, 33312, Note_on_c, 2, 43, 127
4, 33336, Note_off_c, 2, 43, 0
4, 33336, Note_on_c, 2, 36, 127
4, 33360, Note_off_c, 2, 36, 0
4, 33360, Note_on_c, 2, 43, 127
4, 33384, Note_off_c, 2, 43, 0
4, 33384, Note_on_c, 2, 48, 127
4, 33408, Note_off_c, 2, 48, 0
4, 33408, Note_on_c, 2, 37, 127
4, 33456, Note_off_c, 2, 37, 0
4, 33456, Note_on_c, 2, 49, 127
4, 33504, Note_off_c, 2, 49, 0
4, 33504, Note_on_c, 2, 44, 127
4, 33528, Note_off_c, 2, 44, 0
4, 33528, Note_on_c, 2, 37, 127
4, 33552, Note_off_c, 2, 37, 0
4, 33552, Note_on_c, 2, 44, 127
4, 33576, Note_off_c, 2, 44, 0
4, 33576, Note_on_c, 2, 49, 127
4, 33600, Note_off_c, 2, 49, 0
4, 33600, Note_on_c, 2, 39, 127
4, 33648, Note_off_c, 2, 39, 0
4, 33648, Note_on_c, 2, 51, 127
4, 33696, Note_off_c, 2, 51, 0
4, 33696, Note_on_c, 2, 46, 127
4, 33720, Note_off_c, 2, 46, 0
4, 33720, Note_on_c, 2, 39, 127
4, 33744, Note_off_c, 2, 39, 0
4, 33744, Note_on_c, 2, 46, 127
4, 33768, Note_off_c, 2, 46, 0
4, 33768, Note_on_c, 2, 51, 127
4, 33792, Note_off_c, 2, 51, 0
4, 33792, Note_on_c, 2, 36, 127
4, 33840, Note_off_c, 2, 36, 0
4, 33840, Note_on_c, 2, 48, 127
4, 33888, Note_off_c, 2, 48, 0
4, 33888, Note_on_c, 2, 43, 127
4, 33912, Note_off_c, 2, 43, 0
4, 33912, Note_on_c, 2, 36, 127
4, 33936, Note_off_c, 2, 36, 0
4, 33936, Note_on_c, 2, 43, 127
4, 33960, Note_off_c, 2, 43, 0
4, 33960, Note_on_c, 2, 48, 127
4, 33984, Note_off_c, 2, 48, 0
4, 33984, Note_on_c, 2, 36, 127
4, 34032, Note_off_c, 2, 36, 0
4, 34032, Note_on_c, 2, 48, 127
4, 34080, Note_off_c, 2, 48, 0
4, 34080, Note_on_c, 2, 43, 127
4, 34104, Note_off_c, 2, 43, 0
4, 34104, Note_on_c, 2, 36, 127
4, 34128, Note_off_c, 2, 36, 0
4, 34128, Note_on_c, 2, 43, 127
4, 34152, Note_off_c, 2, 43, 0
4, 34152, Note_on_c, 2, 48, 127
4, 34176, Note_off_c, 2, 48, 0
4, 34176, Note_on_c, 2, 32, 127
4, 34224, Note_off_c, 2, 32, 0
4, 34224, Note_on_c, 2, 44, 127
4, 34272, Note_off_c, 2, 44, 0
4, 34272, Note_on_c, 2, 39, 127
4, 34296, Note_off_c, 2, 39, 0
4, 34296, Note_on_c, 2, 32, 127
4, 34320, Note_off_c, 2, 32, 0
4, 34320, Note_on_c, 2, 39, 127
4, 34344, Note_off_c, 2, 39, 0
4, 34344, Note_on_c, 2, 44, 127
4, 34368, Note_off_c, 2, 44, 0
4, 34368, Note_on_c, 2, 31, 127
4, 34416, Note_off_c, 2, 31, 0
4, 34416, Note_on_c, 2, 43, 127
4, 34464, Note_off_c, 2, 43, 0
4, 34464, Note_on_c, 2, 38, 127
4, 34488, Note_off_c, 2, 38, 0
4, 34488, Note_on_c, 2, 31, 127
4, 34512, Note_off_c, 2, 31, 0
4, 34512, Note_on_c, 2, 38, 127
4, 34536, Note_off_c, 2, 38, 0
4, 34536, Note_on_c, 2, 43, 127
4, 34560, Note_off_c, 2, 43, 0
4, 34560, Note_on_c, 2, 36, 127
4, 34608, Note_off_c, 2, 36, 0
4, 34608, Note_on_c, 2, 48, 127
4, 34656, Note_off_c, 2, 48, 0
4, 34656, Note_on_c, 2, 43, 127
4, 34680, Note_off_c, 2, 43, 0
4, 34680, Note_on_c, 2, 36, 127
4, 34704, Note_off_c, 2, 36, 0
4, 34704, Note_on_c, 2, 43, 127
4, 34728, Note_off_c, 2, 43, 0
4, 34728, Note_on_c, 2, 48, 127
4, 34752, Note_off_c, 2, 48, 0
4, 34752, Note_on_c, 2, 36, 127
4, 34800, Note_off_c, 2, 36, 0
4, 34800, Note_on_c, 2, 48, 127
4, 34848, Note_off_c, 2, 48, 0
4, 34848, Note_on_c, 2, 43, 127
4, 34872, Note_off_c, 2, 43, 0
4, 34872, Note_on_c, 2, 36, 127
4, 34896, Note_off_c, 2, 36, 0
4, 34896, Note_on_c, 2, 43, 127
4, 34920, Note_off_c, 2, 43, 0
4, 34920, Note_on_c, 2, 48, 127
4, 34944, Note_off_c, 2, 48, 0
4, 34944, Note_on_c, 2, 37, 127
4, 34992, Note_off_c, 2, 37, 0
4, 34992, Note_on_c, 2, 49, 127
4, 35040, Note_off_c, 2, 49, 0
4, 35040, Note_on_c, 2, 44, 127
4, 35064, Note_off_c, 2, 44, 0
4, 35064, Note_on_c, 2, 37, 127
4, 35088, Note_off_c, 2, 37, 0
4, 35088, Note_on_c, 2, 44, 127
4, 35112, Note_off_c, 2, 44, 0
4, 35112, Note_on_c, 2, 49, 127
4, 35136, Note_off_c, 2, 49, 0
4, 35136, Note_on_c, 2, 39, 127
4, 35184, Note_off_c, 2, 39, 0
4, 35184, Note_on_c, 2, 51, 127
4, 35232, Note_off_c, 2, 51, 0
4, 35232, Note_on_c, 2, 46, 127
4, 35256, Note_off_c, 2, 46, 0
4, 35256, Note_on_c, 2, 39, 127
4, 35280, Note_off_c, 2, 39, 0
4, 35280, Note_on_c, 2, 46, 127
4, 35304, Note_off_c, 2, 46, 0
4, 35304, Note_on_c, 2, 51, 127
4, 35328, Note_off_c, 2, 51, 0
4, 35328, Note_on_c, 2, 36, 127
4, 35376, Note_off_c, 2, 36, 0
4, 35376, Note_on_c, 2, 48, 127
4, 35424, Note_off_c, 2, 48, 0
4, 35424, Note_on_c, 2, 43, 127
4, 35448, Note_off_c, 2, 43, 0
4, 35448, Note_on_c, 2, 36, 127
4, 35472, Note_off_c, 2, 36, 0
4, 35472, Note_on_c, 2, 43, 127
4, 35496, Note_off_c, 2, 43, 0
4, 35496, Note_on_c, 2, 48, 127
4, 35520, Note_off_c, 2, 48, 0
4, 35520, Note_on_c, 2, 36, 127
4, 35568, Note_off_c, 2, 36, 0
4, 35568, Note_on_c, 2, 48, 127
4, 35616, Note_off_c, 2, 48, 0
4, 35616, Note_on_c, 2, 43, 127
4, 35640, Note_off_c, 2, 43, 0
4, 35640, Note_on_c, 2, 36, 127
4, 35664, Note_off_c, 2, 36, 0
4, 35664, Note_on_c, 2, 43, 127
4, 35688, Note_off_c, 2, 43, 0
4, 35688, Note_on_c, 2, 48, 127
4, 35712, Note_off_c, 2, 48, 0
4, 35712, Note_on_c, 2, 32, 127
4, 35760, Note_off_c, 2, 32, 0
4, 35760, Note_on_c, 2, 44, 127
4, 35808, Note_off_c, 2, 44, 0
4, 35808, Note_on_c, 2, 39, 127
4, 35832, Note_off_c, 2, 39, 0
4, 35832, Note_on_c, 2, 32, 127
4, 35856, Note_off_c, 2, 32, 0
4, 35856, Note_on_c, 2, 39, 127
4, 35880, Note_off_c, 2, 39, 0
4, 35880, Note_on_c, 2, 44, 127
4, 35904, Note_off_c, 2, 44, 0
4, 35904, Note_on_c, 2, 31, 127
4, 35952, Note_off_c, 2, 31, 0
4, 35952, Note_on_c, 2, 43, 127
4, 36000, Note_off_c, 2, 43, 0
4, 36000, Note_on_c, 2, 38, 127
4, 36024, Note_off_c, 2, 38, 0
4, 36024, Note_on_c, 2, 31, 127
4, 36048, Note_off_c, 2, 31, 0
4, 36048, Note_on_c, 2, 38, 127
4, 36072, Note_off_c, 2, 38, 0
4, 36072, Note_on_c, 2, 43, 127
4, 36096, Note_off_c, 2, 43, 0
4, 36096, Note_on_c, 2, 36, 127
4, 36144, Note_off_c, 2, 36, 0
4, 36144, Note_on_c, 2, 48, 127
4, 36192, Note_off_c, 2, 48, 0
4, 36192, Note_on_c, 2, 43, 127
4, 36216, Note_off_c, 2, 43, 0
4, 36216, Note_on_c, 2, 36, 127
4, 36240, Note_off_c, 2, 36, 0
4, 36240, Note_on_c, 2, 43, 127
4, 36264, Note_off_c, 2, 43, 0
4, 36264, Note_on_c, 2, 48, 127
4, 36288, Note_off_c, 2, 48, 0
4, 36288, Note_on_c, 2, 36, 127
4, 36336, Note_off_c, 2, 36, 0
4, 36336, Note_on_c, 2, 48, 127
4, 36384, Note_off_c, 2, 48, 0
4, 36384, Note_on_c, 2, 43, 127
4, 36408, Note_off_c, 2, 43, 0
4, 36408, Note_on_c, 2, 36, 127
4, 36432, Note_off_c, 2, 36, 0
4, 36432, Note_on_c, 2, 43, 127
4, 36456, Note_off_c, 2, 43, 0
4, 36456, Note_on_c, 2, 48, 127
4, 36480, Note_off_c, 2, 48, 0
4, 36480, Note_on_c, 2, 37, 127
4, 36528, Note_off_c, 2, 37, 0
4, 36528, Note_on_c, 2, 49, 127
4, 36576, Note_off_c, 2, 49, 0
4, 36576, Note_on_c, 2, 44, 127
4, 36600, Note_off_c, 2, 44, 0
4, 36600, Note_on_c, 2, 37, 127
4, 36624, Note_off_c, 2, 37, 0
4, 36624, Note_on_c, 2, 44, 127
4, 36648, Note_off_c, 2, 44, 0
4, 36648, Note_on_c, 2, 49, 127
4, 36672, Note_off_c, 2, 49, 0
4, 36672, Note_on_c, 2, 39, 127
4, 36720, Note_off_c, 2, 39, 0
4, 36720, Note_on_c, 2, 51, 127
4, 36768, Note_off_c, 2, 51, 0
4, 36768, Note_on_c, 2, 46, 127
4, 36792, Note_off_c, 2, 46, 0
4, 36792, Note_on_c, 2, 39, 127
4, 36816, Note_off_c, 2, 39, 0
4, 36816, Note_on_c, 2, 46, 127
4, 36840, Note_off_c, 2, 46, 0
4, 36840, Note_on_c, 2, 51, 127
4, 36864, Note_off_c, 2, 51, 0
4, 36864, Note_on_c, 2, 36, 127
4, 36912, Note_off_c, 2, 36, 0
4, 36912, Note_on_c, 2, 48, 127
4, 36960, Note_off_c, 2, 48, 0
4, 36960, Note_on_c, 2, 43, 127
4, 36984, Note_off_c, 2, 43, 0
4, 36984, Note_on_c, 2, 36, 127
4, 37008, Note_off_c, 2, 36, 0
4, 37008, Note_on_c, 2, 43, 127
4, 37032, Note_off_c, 2, 43, 0
4, 37032, Note_on_c, 2, 48, 127
4, 37056, Note_off_c, 2, 48, 0
4, 37056, Note_on_c, 2, 36, 127
4, 37104, Note_off_c, 2, 36, 0
4, 37104, Note_on_c, 2, 48, 127
4, 37152, Note_off_c, 2, 48, 0
4, 37152, Note_on_c, 2, 43, 127
4, 37176, Note_off_c, 2, 43, 0
4, 37176, Note_on_c, 2, 36, 127
4, 37200, Note_off_c, 2, 36, 0
4, 37200, Note_on_c, 2, 43, 127
4, 37224, Note_off_c, 2, 43, 0
4, 37224, Note_on_c, 2, 48, 127
4, 37248, Note_off_c, 2, 48, 0
4, 37248, Note_on_c, 2, 32, 127
4, 37296, Note_off_c, 2, 32, 0
4, 37296, Note_on_c, 2, 44, 127
4, 37344, Note_off_c, 2, 44, 0
4, 37344, Note_on_c, 2, 39, 127
4, 37368, Note_off_c, 2, 39, 0
4, 37368, Note_on_c, 2, 32, 127
4, 37392, Note_off_c, 2, 32, 0
4, 37392, Note_on_c, 2, 39, 127
4, 37416, Note_off_c, 2, 39, 0
4, 37416, Note_on_c, 2, 44, 127
4, 37440, Note_off_c, 2, 44, 0
4, 37440, Note_on_c, 2, 31, 127
4, 37488, Note_off_c, 2, 31, 0
4, 37488, Note_on_c, 2, 43, 127
4, 37536, Note_off_c, 2, 43, 0
4, 37536, Note_on_c, 2, 38, 127
4, 37560, Note_off_c, 2, 38, 0
4, 37560, Note_on_c, 2, 31, 127
4, 37584, Note_off_c, 2, 31, 0
4, 37584, Note_on_c, 2, 38, 127
4, 37608, Note_off_c, 2, 38, 0
4, 37608, Note_on_c, 2, 43, 127
4, 37632, Note_off_c, 2, 43, 0
4, 37632, Note_on_c, 2, 32, 127
4, 37680, Note_off_c, 2, 32, 0
4, 37680, Note_on_c, 2, 44, 127
4, 37728, Note_off_c, 2, 44, 0
4, 37728, Note_on_c, 2, 39, 127
4, 37752, Note_off_c, 2, 39, 0
4, 37752, Note_on_c, 2, 32, 127
4, 37776, Note_off_c, 2, 32, 0
4, 37776, Note_on_c, 2, 39, 127
4, 37800, Note_off_c, 2, 39, 0
4, 37800, Note_on_c, 2, 44, 127
4, 37824, Note_off_c, 2, 44, 0
4, 37824, Note_on_c, 2, 32, 127
4, 37872, Note_off_c, 2, 32, 0
4, 37872, Note_on_c, 2, 44, 127
4, 37920, Note_off_c, 2, 44, 0
4, 37920, Note_on_c, 2, 39, 127
4, 37944, Note_off_c, 2, 39, 0
4, 37944, Note_on_c, 2, 32, 127
4, 37968, Note_off_c, 2, 32, 0
4, 37968, Note_on_c, 2, 39, 127
4, 37992, Note_off_c, 2, 39, 0
4, 37992, Note_on_c, 2, 44, 127
4, 38016, Note_off_c, 2, 44, 0
4, 38016, Note_on_c, 2, 32, 127
4, 38064, Note_off_c, 2, 32, 0
4, 38064, Note_on_c, 2, 44, 127
4, 38112, Note_off_c, 2, 44, 0
4, 38112, Note_on_c, 2, 39, 127
4, 38136, Note_off_c, 2, 39, 0
4, 38136, Note_on_c, 2, 32, 127
4, 38160, Note_off_c, 2, 32, 0
4, 38160, Note_on_c, 2, 39, 127
4, 38184, Note_off_c, 2, 39, 0
4, 38184, Note_on_c, 2, 44, 127
4, 38208, Note_off_c, 2, 44, 0
4, 38208, Note_on_c, 2, 32, 127
4, 38256, Note_off_c, 2, 32, 0
4, 38256, Note_on_c, 2, 44, 127
4, 38304, Note_off_c, 2, 44, 0
4, 38304, Note_on_c, 2, 39, 127
4, 38328, Note_off_c, 2, 39, 0
4, 38328, Note_on_c, 2, 32, 127
4, 38352, Note_off_c, 2, 32, 0
4, 38352, Note_on_c, 2, 39, 127
4, 38376, Note_off_c, 2, 39, 0
4, 38376, Note_on_c, 2, 44, 127
4, 38400, Note_off_c, 2, 44, 0
4, 38400, Note_on_c, 2, 31, 127
4, 38448, Note_off_c, 2, 31, 0
4, 38448, Note_on_c, 2, 43, 127
4, 38496, Note_off_c, 2, 43, 0
4, 38496, Note_on_c, 2, 38, 127
4, 38520, Note_off_c, 2, 38, 0
4, 38520, Note_on_c, 2, 31, 127
4, 38544, Note_off_c, 2, 31, 0
4, 38544, Note_on_c, 2, 38, 127
4, 38568, Note_off_c, 2, 38, 0
4, 38568, Note_on_c, 2, 43, 127
4, 38592, Note_off_c, 2, 43, 0
4, 38592, Note_on_c, 2, 31, 127
4, 38640, Note_off_c, 2, 31, 0
4, 38640, Note_on_c, 2, 43, 127
4, 38688, Note_off_c, 2, 43, 0
4, 38688, Note_on_c, 2, 38, 127
4, 38712, Note_off_c, 2, 38, 0
4, 38712, Note_on_c, 2, 31, 127
4, 38736, Note_off_c, 2, 31, 0
4, 38736, Note_on_c, 2, 38, 127
4, 38760, Note_off_c, 2, 38, 0
4, 38760, Note_on_c, 2, 43, 127
4, 38784, Note_off_c, 2, 43, 0
4, 38784, Note_on_c, 2, 31, 127
4, 38832, Note_off_c, 2, 31, 0
4, 38832, Note_on_c, 2, 43, 127
4, 38880, Note_off_c, 2, 43, 0
4, 38880, Note_on_c, 2, 38, 127
4, 38904, Note_off_c, 2, 38, 0
4, 38904, Note_on_c, 2, 31, 127
4, 38928, Note_off_c, 2, 31, 0
4, 38928, Note_on_c, 2, 38, 127
4, 38952, Note_off_c, 2, 38, 0
4, 38952, Note_on_c, 2, 43, 127
4, 38976, Note_off_c, 2, 43, 0
4, 38976, Note_on_c, 2, 31, 127
4, 39024, Note_off_c, 2, 31, 0
4, 39024, Note_on_c, 2, 43, 127
4, 39072, Note_off_c, 2, 43, 0
4, 39072, Note_on_c, 2, 38, 127
4, 39096, Note_off_c, 2, 38, 0
4, 39096, Note_on_c, 2, 31, 127
4, 39120, Note_off_c, 2, 31, 0
4, 39120, Note_on_c, 2, 38, 127
4, 39144, Note_off_c, 2, 38, 0
4, 39144, Note_on_c, 2, 43, 127
4, 39168, Note_off_c, 2, 43, 0
4, 39168, Note_on_c, 2, 32, 127
4, 39216, Note_off_c, 2, 32, 0
4, 39216, Note_on_c, 2, 44, 127
4, 39264, Note_off_c, 2, 44, 0
4, 39264, Note_on_c, 2, 39, 127
4, 39288, Note_off_c, 2, 39, 0
4, 39288, Note_on_c, 2, 32, 127
4, 39312, Note_off_c, 2, 32, 0
4, 39312, Note_on_c, 2, 39, 127
4, 39336, Note_off_c, 2, 39, 0
4, 39336, Note_on_c, 2, 44, 127
4, 39360, Note_off_c, 2, 44, 0
4, 39360, Note_on_c, 2, 32, 127
4, 39408, Note_off_c, 2, 32, 0
4, 39408, Note_on_c, 2, 44, 127
4, 39456, Note_off_c, 2, 44, 0
4, 39456, Note_on_c, 2, 39, 127
4, 39480, Note_off_c, 2, 39, 0
4, 39480, Note_on_c, 2, 32, 127
4, 39504, Note_off_c, 2, 32, 0
4, 39504, Note_on_c, 2, 39, 127
4, 39528, Note_off_c, 2, 39, 0
4, 39528, Note_on_c, 2, 44, 127
4, 39552, Note_off_c, 2, 44, 0
4, 39552, Note_on_c, 2, 32, 127
4, 39600, Note_off_c, 2, 32, 0
4, 39600, Note_on_c, 2, 44, 127
4, 39648, Note_off_c, 2, 44, 0
4, 39648, Note_on_c, 2, 39, 127
4, 39672, Note_off_c, 2, 39, 0
4, 39672, Note_on_c, 2, 32, 127
4, 39696, Note_off_c, 2, 32, 0
4, 39696, Note_on_c, 2, 39, 127
4, 39720, Note_off_c, 2, 39, 0
4, 39720, Note_on_c, 2, 44, 127
4, 39744, Note_off_c, 2, 44, 0
4, 39744, Note_on_c, 2, 32, 127
4, 39792, Note_off_c, 2, 32, 0
4, 39792, Note_on_c, 2, 44, 127
4, 39840, Note_off_c, 2, 44, 0
4, 39840, Note_on_c, 2, 39, 127
4, 39864, Note_off_c, 2, 39, 0
4, 39864, Note_on_c, 2, 32, 127
4, 39888, Note_off_c, 2, 32, 0
4, 39888, Note_on_c, 2, 39, 127
4, 39912, Note_off_c, 2, 39, 0
4, 39912, Note_on_c, 2, 44, 127
4, 39936, Note_off_c, 2, 44, 0
4, 39936, Note_on_c, 2, 31, 127
4, 39984, Note_off_c, 2, 31, 0
4, 39984, Note_on_c, 2, 43, 127
4, 40032, Note_off_c, 2, 43, 0
4, 40032, Note_on_c, 2, 38, 127
4, 40056, Note_off_c, 2, 38, 0
4, 40056, Note_on_c, 2, 31, 127
4, 40080, Note_off_c, 2, 31, 0
4, 40080, Note_on_c, 2, 38, 127
4, 40104, Note_off_c, 2, 38, 0
4, 40104, Note_on_c, 2, 43, 127
4, 40128, Note_off_c, 2, 43, 0
4, 40128, Note_on_c, 2, 31, 127
4, 40176, Note_off_c, 2, 31, 0
4, 40176, Note_on_c, 2, 43, 127
4, 40224, Note_off_c, 2, 43, 0
4, 40224, Note_on_c, 2, 38, 127
4, 40248, Note_off_c, 2, 38, 0
4, 40248, Note_on_c, 2, 31, 127
4, 40272, Note_off_c, 2, 31, 0
4, 40272, Note_on_c, 2, 38, 127
4, 40296, Note_off_c, 2, 38, 0
4, 40296, Note_on_c, 2, 43, 127
4, 40320, Note_off_c, 2, 43, 0
4, 40320, Note_on_c, 2, 31, 127
4, 40368, Note_off_c, 2, 31, 0
4, 40368, Note_on_c, 2, 43, 127
4, 40416, Note_off_c, 2, 43, 0
4, 40416, Note_on_c, 2, 38, 127
4, 40440, Note_off_c, 2, 38, 0
4, 40440, Note_on_c, 2, 31, 127
4, 40464, Note_off_c, 2, 31, 0
4, 40464, Note_on_c, 2, 38, 127
4, 40488, Note_off_c, 2, 38, 0
4, 40488, Note_on_c, 2, 43, 127
4, 40512, Note_off_c, 2, 43, 0
4, 40512, Note_on_c, 2, 31, 127
4, 40560, Note_off_c, 2, 31, 0
4, 40560, Note_on_c, 2, 43, 127
4, 40608, Note_off_c, 2, 43, 0
4, 40608, Note_on_c, 2, 38, 127
4, 40632, Note_off_c, 2, 38, 0
4, 40632, Note_on_c, 2, 31, 127
4, 40656, Note_off_c, 2, 31, 0
4, 40656, Note_on_c, 2, 38, 127
4, 40680, Note_off_c, 2, 38, 0
4, 40680, Note_on_c, 2, 43, 127
4, 40704, Note_off_c, 2, 43, 0
4, 40704, Note_on_c, 2, 32, 127
4, 40752, Note_off_c, 2, 32, 0
4, 40752, Note_on_c, 2, 44, 127
4, 40800, Note_off_c, 2, 44, 0
4, 40800, Note_on_c, 2, 39, 127
4, 40824, Note_off_c, 2, 39, 0
4, 40824, Note_on_c, 2, 32, 127
4, 40848, Note_off_c, 2, 32, 0
4, 40848, Note_on_c, 2, 39, 127
4, 40872, Note_off_c, 2, 39, 0
4, 40872, Note_on_c, 2, 44, 127
4, 40896, Note_off_c, 2, 44, 0
4, 40896, Note_on_c, 2, 32, 127
4, 40944, Note_off_c, 2, 32, 0
4, 40944, Note_on_c, 2, 44, 127
4, 40992, Note_off_c, 2, 44, 0
4, 40992, Note_on_c, 2, 39, 127
4, 41016, Note_off_c, 2, 39, 0
4, 41016, Note_on_c, 2, 32, 127
4, 41040, Note_off_c, 2, 32, 0
4, 41040, Note_on_c, 2, 39, 127
4, 41064, Note_off_c, 2, 39, 0
4, 41064, Note_on_c, 2, 44, 127
4, 41088, Note_off_c, 2, 44, 0
4, 41088, Note_on_c, 2, 32, 127
4, 41136, Note_off_c, 2, 32, 0
4, 41136, Note_on_c, 2, 44, 127
4, 41184, Note_off_c, 2, 44, 0
4, 41184, Note_on_c, 2, 39, 127
4, 41208, Note_off_c, 2, 39, 0
4, 41208, Note_on_c, 2, 32, 127
4, 41232, Note_off_c, 2, 32, 0
4, 41232, Note_on_c, 2, 39, 127
4, 41256, Note_off_c, 2, 39, 0
4, 41256, Note_on_c, 2, 44, 127
4, 41280, Note_off_c, 2, 44, 0
4, 41280, Note_on_c, 2, 32, 127
4, 41328, Note_off_c, 2, 32, 0
4, 41328, Note_on_c, 2, 44, 127
4, 41376, Note_off_c, 2, 44, 0
4, 41376, Note_on_c, 2, 39, 127
4, 41400, Note_off_c, 2, 39, 0
4, 41400, Note_on_c, 2, 32, 127
4, 41424, Note_off_c, 2, 32, 0
4, 41424, Note_on_c, 2, 39, 127
4, 41448, Note_off_c, 2, 39, 0
4, 41448, Note_on_c, 2, 44, 127
4, 41472, Note_off_c, 2, 44, 0
4, 41472, Note_on_c, 2, 31, 127
4, 41520, Note_off_c, 2, 31, 0
4, 41520, Note_on_c, 2, 43, 127
4, 41568, Note_off_c, 2, 43, 0
4, 41568, Note_on_c, 2, 38, 127
4, 41592, Note_off_c, 2, 38, 0
4, 41592, Note_on_c, 2, 31, 127
4, 41616, Note_off_c, 2, 31, 0
4, 41616, Note_on_c, 2, 38, 127
4, 41640, Note_off_c, 2, 38, 0
4, 41640, Note_on_c, 2, 43, 127
4, 41664, Note_off_c, 2, 43, 0
4, 41664, Note_on_c, 2, 31, 127
4, 41712, Note_off_c, 2, 31, 0
4, 41712, Note_on_c, 2, 43, 127
4, 41760, Note_off_c, 2, 43, 0
4, 41760, Note_on_c, 2, 38, 127
4, 41784, Note_off_c, 2, 38, 0
4, 41784, Note_on_c, 2, 31, 127
4, 41808, Note_off_c, 2, 31, 0
4, 41808, Note_on_c, 2, 38, 127
4, 41832, Note_off_c, 2, 38, 0
4, 41832, Note_on_c, 2, 43, 127
4, 41856, Note_off_c, 2, 43, 0
4, 41856, Note_on_c, 2, 31, 127
4, 41904, Note_off_c, 2, 31, 0
4, 41904, Note_on_c, 2, 43, 127
4, 41952, Note_off_c, 2, 43, 0
4, 41952, Note_on_c, 2, 38, 127
4, 41976, Note_off_c, 2, 38, 0
4, 41976, Note_on_c, 2, 31, 127
4, 42000, Note_off_c, 2, 31, 0
4, 42000, Note_on_c, 2, 38, 127
4, 42024, Note_off_c, 2, 38, 0
4, 42024, Note_on_c, 2, 43, 127
4, 42048, Note_off_c, 2, 43, 0
4, 42048, Note_on_c, 2, 31, 127
4, 42096, Note_off_c, 2, 31, 0
4, 42096, Note_on_c, 2, 43, 127
4, 42144, Note_off_c, 2, 43, 0
4, 42144, Note_on_c, 2, 38, 127
4, 42168, Note_off_c, 2, 38, 0
4, 42168, Note_on_c, 2, 31, 127
4, 42192, Note_off_c, 2, 31, 0
4, 42192, Note_on_c, 2, 38, 127
4, 42216, Note_off_c, 2, 38, 0
4, 42216, Note_on_c, 2, 43, 127
4, 42240, Note_off_c, 2, 43, 0
4, 42240, Note_on_c, 2, 32, 127
4, 42288, Note_off_c, 2, 32, 0
4, 42288, Note_on_c, 2, 44, 127
4, 42336, Note_off_c, 2, 44, 0
4, 42336, Note_on_c, 2, 39, 127
4, 42360, Note_off_c, 2, 39, 0
4, 42360, Note_on_c, 2, 32, 127
4, 42384, Note_off_c, 2, 32, 0
4, 42384, Note_on_c, 2, 39, 127
4, 42408, Note_off_c, 2, 39, 0
4, 42408, Note_on_c, 2, 44, 127
4, 42432, Note_off_c, 2, 44, 0
4, 42432, Note_on_c, 2, 32, 127
4, 42480, Note_off_c, 2, 32, 0
4, 42480, Note_on_c, 2, 44, 127
4, 42528, Note_off_c, 2, 44, 0
4, 42528, Note_on_c, 2, 39, 127
4, 42552, Note_off_c, 2, 39, 0
4, 42552, Note_on_c, 2, 32, 127
4, 42576, Note_off_c, 2, 32, 0
4, 42576, Note_on_c, 2, 39, 127
4, 42600, Note_off_c, 2, 39, 0
4, 42600, Note_on_c, 2, 44, 127
4, 42624, Note_off_c, 2, 44, 0
4, 42624, Note_on_c, 2, 32, 127
4, 42672, Note_off_c, 2, 32, 0
4, 42672, Note_on_c, 2, 44, 127
4, 42720, Note_off_c, 2, 44, 0
4, 42720, Note_on_c, 2, 39, 127
4, 42744, Note_off_c, 2, 39, 0
4, 42744, Note_on_c, 2, 32, 127
4, 42768, Note_off_c, 2, 32, 0
4, 42768, Note_on_c, 2, 39, 127
4, 42792, Note_off_c, 2, 39, 0
4, 42792, Note_on_c, 2, 44, 127
4, 42816, Note_off_c, 2, 44, 0
4, 42816, Note_on_c, 2, 32, 127
4, 42864, Note_off_c, 2, 32, 0
4, 42864, Note_on_c, 2, 44, 127
4, 42912, Note_off_c, 2, 44, 0
4, 42912, Note_on_c, 2, 39, 127
4, 42936, Note_off_c, 2, 39, 0
4, 42936, Note_on_c, 2, 32, 127
4, 42960, Note_off_c, 2, 32, 0
4, 42960, Note_on_c, 2, 39, 127
4, 42984, Note_off_c, 2, 39, 0
4, 42984, Note_on_c, 2, 44, 127
4, 43008, Note_off_c, 2, 44, 0
4, 43008, Note_on_c, 2, 31, 127
4, 43056, Note_off_c, 2, 31, 0
4, 43056, Note_on_c, 2, 43, 127
4, 43104, Note_off_c, 2, 43, 0
4, 43104, Note_on_c, 2, 38, 127
4, 43128, Note_off_c, 2, 38, 0
4, 43128, Note_on_c, 2, 31, 127
4, 43152, Note_off_c, 2, 31, 0
4, 43152, Note_on_c, 2, 38, 127
4, 43176, Note_off_c, 2, 38, 0
4, 43176, Note_on_c, 2, 43, 127
4, 43200, Note_off_c, 2, 43, 0
4, 43200, Note_on_c, 2, 31, 127
4, 43248, Note_off_c, 2, 31, 0
4, 43248, Note_on_c, 2, 43, 127
4, 43296, Note_off_c, 2, 43, 0
4, 43296, Note_on_c, 2, 38, 127
4, 43320, Note_off_c, 2, 38, 0
4, 43320, Note_on_c, 2, 31, 127
4, 43344, Note_off_c, 2, 31, 0
4, 43344, Note_on_c, 2, 38, 127
4, 43368, Note_off_c, 2, 38, 0
4, 43368, Note_on_c, 2, 43, 127
4, 43392, Note_off_c, 2, 43, 0
4, 43392, Note_on_c, 2, 31, 127
4, 43440, Note_off_c, 2, 31, 0
4, 43440, Note_on_c, 2, 43, 127
4, 43488, Note_off_c, 2, 43, 0
4, 43488, Note_on_c, 2, 38, 127
4, 43512, Note_off_c, 2, 38, 0
4, 43512, Note_on_c, 2, 31, 127
4, 43536, Note_off_c, 2, 31, 0
4, 43536, Note_on_c, 2, 38, 127
4, 43560, Note_off_c, 2, 38, 0
4, 43560, Note_on_c, 2, 43, 127
4, 43584, Note_off_c, 2, 43, 0
4, 43584, Note_on_c, 2, 31, 127
4, 43632, Note_off_c, 2, 31, 0
4, 43632, Note_on_c, 2, 43, 127
4, 43680, Note_off_c, 2, 43, 0
4, 43680, Note_on_c, 2, 38, 127
4, 43704, Note_off_c, 2, 38, 0
4, 43704, Note_on_c, 2, 31, 127
4, 43728, Note_off_c, 2, 31, 0
4, 43728, Note_on_c, 2, 38, 127
4, 43752, Note_off_c, 2, 38, 0
4, 43752, Note_on_c, 2, 43, 127
4, 43776, Note_off_c, 2, 43, 0
4, 43776, Note_on_c, 2, 36, 127
4, 43824, Note_off_c, 2, 36, 0
4, 43824, Note_on_c, 2, 48, 127
4, 43872, Note_off_c, 2, 48, 0
4, 43872, Note_on_c, 2, 43, 127
4, 43896, Note_off_c, 2, 43, 0
4, 43896, Note_on_c, 2, 36, 127
4, 43920, Note_off_c, 2, 36, 0
4, 43920, Note_on_c, 2, 43, 127
4, 43944, Note_off_c, 2, 43, 0
4, 43944, Note_on_c, 2, 48, 127
4, 43968, Note_off_c, 2, 48, 0
4, 43968, Note_on_c, 2, 36, 127
4, 44016, Note_off_c, 2, 36, 0
4, 44016, Note_on_c, 2, 48, 127
4, 44064, Note_off_c, 2, 48, 0
4, 44064, Note_on_c, 2, 43, 127
4, 44088, Note_off_c, 2, 43, 0
4, 44088, Note_on_c, 2, 36, 127
4, 44112, Note_off_c, 2, 36, 0
4, 44112, Note_on_c, 2, 43, 127
4, 44136, Note_off_c, 2, 43, 0
4, 44136, Note_on_c, 2, 48, 127
4, 44160, Note_off_c, 2, 48, 0
4, 44160, Note_on_c, 2, 36, 127
4, 44208, Note_off_c, 2, 36, 0
4, 44208, Note_on_c, 2, 48, 127
4, 44256, Note_off_c, 2, 48, 0
4, 44256, Note_on_c, 2, 43, 127
4, 44280, Note_off_c, 2, 43, 0
4, 44280, Note_on_c, 2, 36, 127
4, 44304, Note_off_c, 2, 36, 0
4, 44304, Note_on_c, 2, 43, 127
4, 44328, Note_off_c, 2, 43, 0
4, 44328, Note_on_c, 2, 48, 127
4, 44352, Note_off_c, 2, 48, 0
4, 44352, Note_on_c, 2, 34, 127
4, 44400, Note_off_c, 2, 34, 0
4, 44400, Note_on_c, 2, 46, 127
4, 44448, Note_off_c, 2, 46, 0
4, 44448, Note_on_c, 2, 41, 127
4, 44472, Note_off_c, 2, 41, 0
4, 44472, Note_on_c, 2, 34, 127
4, 44496, Note_off_c, 2, 34, 0
4, 44496, Note_on_c, 2, 41, 127
4, 44520, Note_off_c, 2, 41, 0
4, 44520, Note_on_c, 2, 46, 127
4, 44544, Note_off_c, 2, 46, 0
4, 44544, Note_on_c, 2, 32, 127
4, 44592, Note_off_c, 2, 32, 0
4, 44592, Note_on_c, 2, 44, 127
4, 44640, Note_off_c, 2, 44, 0
4, 44640, Note_on_c, 2, 39, 127
4, 44664, Note_off_c, 2, 39, 0
4, 44664, Note_on_c, 2, 32, 127
4, 44688, Note_off_c, 2, 32, 0
4, 44688, Note_on_c, 2, 39, 127
4, 44712, Note_off_c, 2, 39, 0
4, 44712, Note_on_c, 2, 44, 127
4, 44736, Note_off_c, 2, 44, 0
4, 44736, Note_on_c, 2, 32, 127
4, 44784, Note_off_c, 2, 32, 0
4, 44784, Note_on_c, 2, 44, 127
4, 44832, Note_off_c, 2, 44, 0
4, 44832, Note_on_c, 2, 39, 127
4, 44856, Note_off_c, 2, 39, 0
4, 44856, Note_on_c, 2, 32, 127
4, 44880, Note_off_c, 2, 32, 0
4, 44880, Note_on_c, 2, 39, 127
4, 44904, Note_off_c, 2, 39, 0
4, 44904, Note_on_c, 2, 44, 127
4, 44928, Note_off_c, 2, 44, 0
4, 44928, Note_on_c, 2, 32, 127
4, 44976, Note_off_c, 2, 32, 0
4, 44976, Note_on_c, 2, 44, 127
4, 45024, Note_off_c, 2, 44, 0
4, 45024, Note_on_c, 2, 39, 127
4, 45048, Note_off_c, 2, 39, 0
4, 45048, Note_on_c, 2, 32, 127
4, 45072, Note_off_c, 2, 32, 0
4, 45072, Note_on_c, 2, 39, 127
4, 45096, Note_off_c, 2, 39, 0
4, 45096, Note_on_c, 2, 44, 127
4, 45120, Note_off_c, 2, 44, 0
4, 45120, Note_on_c, 2, 34, 127
4, 45168, Note_off_c, 2, 34, 0
4, 45168, Note_on_c, 2, 46, 127
4, 45216, Note_off_c, 2, 46, 0
4, 45216, Note_on_c, 2, 41, 127
4, 45240, Note_off_c, 2, 41, 0
4, 45240, Note_on_c, 2, 34, 127
4, 45264, Note_off_c, 2, 34, 0
4, 45264, Note_on_c, 2, 41, 127
4, 45288, Note_off_c, 2, 41, 0
4, 45288, Note_on_c, 2, 46, 127
4, 45312, Note_off_c, 2, 46, 0
4, 45312, Note_on_c, 2, 36, 127
4, 45360, Note_off_c, 2, 36, 0
4, 45360, Note_on_c, 2, 48, 127
4, 45408, Note_off_c, 2, 48, 0
4, 45408, Note_on_c, 2, 43, 127
4, 45432, Note_off_c, 2, 43, 0
4, 45432, Note_on_c, 2, 36, 127
4, 45456, Note_off_c, 2, 36, 0
4, 45456, Note_on_c, 2, 43, 127
4, 45480, Note_off_c, 2, 43, 0
4, 45480, Note_on_c, 2, 48, 127
4, 45504, Note_off_c, 2, 48, 0
4, 45504, Note_on_c, 2, 36, 127
4, 45552, Note_off_c, 2, 36, 0
4, 45552, Note_on_c, 2, 48, 127
4, 45600, Note_off_c, 2, 48, 0
4, 45600, Note_on_c, 2, 43, 127
4, 45624, Note_off_c, 2, 43, 0
4, 45624, Note_on_c, 2, 36, 127
4, 45648, Note_off_c, 2, 36, 0
4, 45648, Note_on_c, 2, 43, 127
4, 45672, Note_off_c, 2, 43, 0
4, 45672, Note_on_c, 2, 48, 127
4, 45696, Note_off_c, 2, 48, 0
4, 45696, Note_on_c, 2, 36, 127
4, 45744, Note_off_c, 2, 36, 0
4, 45744, Note_on_c, 2, 48, 127
4, 45792, Note_off_c, 2, 48, 0
4, 45792, Note_on_c, 2, 43, 127
4, 45816, Note_off_c, 2, 43, 0
4, 45816, Note_on_c, 2, 36, 127
4, 45840, Note_off_c, 2, 36, 0
4, 45840, Note_on_c, 2, 43, 127
4, 45864, Note_off_c, 2, 43, 0
4, 45864, Note_on_c, 2, 48, 127
4, 45888, Note_off_c, 2, 48, 0
4, 45888, Note_on_c, 2, 34, 127
4, 45936, Note_off_c, 2, 34, 0
4, 45936, Note_on_c, 2, 46, 127
4, 45984, Note_off_c, 2, 46, 0
4, 45984, Note_on_c, 2, 41, 127
4, 46008, Note_off_c, 2, 41, 0
4, 46008, Note_on_c, 2, 34, 127
4, 46032, Note_off_c, 2, 34, 0
4, 46032, Note_on_c, 2, 41, 127
4, 46056, Note_off_c, 2, 41, 0
4, 46056, Note_on_c, 2, 46, 127
4, 46080, Note_off_c, 2, 46, 0
4, 46080, Note_on_c, 2, 32, 127
4, 46128, Note_off_c, 2, 32, 0
4, 46128, Note_on_c, 2, 44, 127
4, 46176, Note_off_c, 2, 44, 0
4, 46176, Note_on_c, 2, 39, 127
4, 46200, Note_off_c, 2, 39, 0
4, 46200, Note_on_c, 2, 32, 127
4, 46224, Note_off_c, 2, 32, 0
4, 46224, Note_on_c, 2, 39, 127
4, 46248, Note_off_c, 2, 39, 0
4, 46248, Note_on_c, 2, 44, 127
4, 46272, Note_off_c, 2, 44, 0
4, 46272, Note_on_c, 2, 32, 127
4, 46320, Note_off_c, 2, 32, 0
4, 46320, Note_on_c, 2, 44, 127
4, 46368, Note_off_c, 2, 44, 0
4, 46368, Note_on_c, 2, 39, 127
4, 46392, Note_off_c, 2, 39, 0
4, 46392, Note_on_c, 2, 32, 127
4, 46416, Note_off_c, 2, 32, 0
4, 46416, Note_on_c, 2, 39, 127
4, 46440, Note_off_c, 2, 39, 0
4, 46440, Note_on_c, 2, 44, 127
4, 46464, Note_off_c, 2, 44, 0
4, 46464, Note_on_c, 2, 32, 127
4, 46512, Note_off_c, 2, 32, 0
4, 46512, Note_on_c, 2, 44, 127
4, 46560, Note_off_c, 2, 44, 0
4, 46560, Note_on_c, 2, 39, 127
4, 46584, Note_off_c, 2, 39, 0
4, 46584, Note_on_c, 2, 32, 127
4, 46608, Note_off_c, 2, 32, 0
4, 46608, Note_on_c, 2, 39, 127
4, 46632, Note_off_c, 2, 39, 0
4, 46632, Note_on_c, 2, 44, 127
4, 46656, Note_off_c, 2, 44, 0
4, 46656, Note_on_c, 2, 34, 127
4, 46704, Note_off_c, 2, 34, 0
4, 46704, Note_on_c, 2, 46, 127
4, 46752, Note_off_c, 2, 46, 0
4, 46752, Note_on_c, 2, 41, 127
4, 46776, Note_off_c, 2, 41, 0
4, 46776, Note_on_c, 2, 34, 127
4, 46800, Note_off_c, 2, 34, 0
4, 46800, Note_on_c, 2, 41, 127
4, 46824, Note_off_c, 2, 41, 0
4, 46824, Note_on_c, 2, 46, 127
4, 46848, Note_off_c, 2, 46, 0
4, 46848, Note_on_c, 2, 36, 127
4, 46896, Note_off_c, 2, 36, 0
4, 46896, Note_on_c, 2, 48, 127
4, 46944, Note_off_c, 2, 48, 0
4, 46944, Note_on_c, 2, 43, 127
4, 46968, Note_off_c, 2, 43, 0
4, 46968, Note_on_c, 2, 36, 127
4, 46992, Note_off_c, 2, 36, 0
4, 46992, Note_on_c, 2, 43, 127
4, 47016, Note_off_c, 2, 43, 0
4, 47016, Note_on_c, 2, 48, 127
4, 47040, Note_off_c, 2, 48, 0
4, 47040, Note_on_c, 2, 36, 127
4, 47088, Note_off_c, 2, 36, 0
4, 47088, Note_on_c, 2, 48, 127
4, 47136, Note_off_c, 2, 48, 0
4, 47136, Note_on_c, 2, 43, 127
4, 47160, Note_off_c, 2, 43, 0
4, 47160, Note_on_c, 2, 36, 127
4, 47184, Note_off_c, 2, 36, 0
4, 47184, Note_on_c, 2, 43, 127
4, 47208, Note_off_c, 2, 43, 0
4, 47208, Note_on_c, 2, 48, 127
4, 47232, Note_off_c, 2, 48, 0
4, 47232, Note_on_c, 2, 36, 127
4, 47280, Note_off_c, 2, 36, 0
4, 47280, Note_on_c, 2, 48, 127
4, 47328, Note_off_c, 2, 48, 0
4, 47328, Note_on_c, 2, 43, 127
4, 47352, Note_off_c, 2, 43, 0
4, 47352, Note_on_c, 2, 36, 127
4, 47376, Note_off_c, 2, 36, 0
4, 47376, Note_on_c, 2, 43, 127
4, 47400, Note_off_c, 2, 43, 0
4, 47400, Note_on_c, 2, 48, 127
4, 47424, Note_off_c, 2, 48, 0
4, 47424, Note_on_c, 2, 34, 127
4, 47472, Note_off_c, 2, 34, 0
4, 47472, Note_on_c, 2, 46, 127
4, 47520, Note_off_c, 2, 46, 0
4, 47520, Note_on_c, 2, 41, 127
4, 47544, Note_off_c, 2, 41, 0
4, 47544, Note_on_c, 2, 34, 127
4, 47568, Note_off_c, 2, 34, 0
4, 47568, Note_on_c, 2, 41, 127
4, 47592, Note_off_c, 2, 41, 0
4, 47592, Note_on_c, 2, 46, 127
4, 47616, Note_off_c, 2, 46, 0
4, 47616, Note_on_c, 2, 32, 127
4, 47664, Note_off_c, 2, 32, 0
4, 47664, Note_on_c, 2, 44, 127
4, 47712, Note_off_c, 2, 44, 0
4, 47712, Note_on_c, 2, 39, 127
4, 47736, Note_off_c, 2, 39, 0
4, 47736, Note_on_c, 2, 32, 127
4, 47760, Note_off_c, 2, 32, 0
4, 47760, Note_on_c, 2, 39, 127
4, 47784, Note_off_c, 2, 39, 0
4, 47784, Note_on_c, 2, 44, 127
4, 47808, Note_off_c, 2, 44, 0
4, 47808, Note_on_c, 2, 32, 127
4, 47856, Note_off_c, 2, 32, 0
4, 47856, Note_on_c, 2, 44, 127
4, 47904, Note_off_c, 2, 44, 0
4, 47904, Note_on_c, 2, 39, 127
4, 47928, Note_off_c, 2, 39, 0
4, 47928, Note_on_c, 2, 32, 127
4, 47952, Note_off_c, 2, 32, 0
4, 47952, Note_on_c, 2, 39, 127
4, 47976, Note_off_c, 2, 39, 0
4, 47976, Note_on_c, 2, 44, 127
4, 48000, Note_off_c, 2, 44, 0
4, 48000, Note_on_c, 2, 32, 127
4, 48048, Note_off_c, 2, 32, 0
4, 48048, Note_on_c, 2, 44, 127
4, 48096, Note_off_c, 2, 44, 0
4, 48096, Note_on_c, 2, 39, 127
4, 48120, Note_off_c, 2, 39, 0
4, 48120, Note_on_c, 2, 32, 127
4, 48144, Note_off_c, 2, 32, 0
4, 48144, Note_on_c, 2, 39, 127
4, 48168, Note_off_c, 2, 39, 0
4, 48168, Note_on_c, 2, 44, 127
4, 48192, Note_off_c, 2, 44, 0
4, 48192, Note_on_c, 2, 34, 127
4, 48240, Note_off_c, 2, 34, 0
4, 48240, Note_on_c, 2, 46, 127
4, 48288, Note_off_c, 2, 46, 0
4, 48288, Note_on_c, 2, 41, 127
4, 48312, Note_off_c, 2, 41, 0
4, 48312, Note_on_c, 2, 34, 127
4, 48336, Note_off_c, 2, 34, 0
4, 48336, Note_on_c, 2, 41, 127
4, 48360, Note_off_c, 2, 41, 0
4, 48360, Note_on_c, 2, 46, 127
4, 48384, Note_off_c, 2, 46, 0
4, 48384, Note_on_c, 2, 36, 127
4, 48432, Note_off_c, 2, 36, 0
4, 48432, Note_on_c, 2, 48, 127
4, 48480, Note_off_c, 2, 48, 0
4, 48480, Note_on_c, 2, 43, 127
4, 48504, Note_off_c, 2, 43, 0
4, 48504, Note_on_c, 2, 36, 127
4, 48528, Note_off_c, 2, 36, 0
4, 48528, Note_on_c, 2, 43, 127
4, 48552, Note_off_c, 2, 43, 0
4, 48552, Note_on_c, 2, 48, 127
4, 48576, Note_off_c, 2, 48, 0
4, 48576, Note_on_c, 2, 36, 127
4, 48624, Note_off_c, 2, 36, 0
4, 48624, Note_on_c, 2, 48, 127
4, 48672, Note_off_c, 2, 48, 0
4, 48672, Note_on_c, 2, 43, 127
4, 48696, Note_off_c, 2, 43, 0
4, 48696, Note_on_c, 2, 36, 127
4, 48720, Note_off_c, 2, 36, 0
4, 48720, Note_on_c, 2, 43, 127
4, 48744, Note_off_c, 2, 43, 0
4, 48744, Note_on_c, 2, 48, 127
4, 48768, Note_off_c, 2, 48, 0
4, 48768, Note_on_c, 2, 36, 127
4, 48816, Note_off_c, 2, 36, 0
4, 48816, Note_on_c, 2, 48, 127
4, 48864, Note_off_c, 2, 48, 0
4, 48864, Note_on_c, 2, 43, 127
4, 48888, Note_off_c, 2, 43, 0
4, 48888, Note_on_c, 2, 36, 127
4, 48912, Note_off_c, 2, 36, 0
4, 48912, Note_on_c, 2, 43, 127
4, 48936, Note_off_c, 2, 43, 0
4, 48936, Note_on_c, 2, 48, 127
4, 48960, Note_off_c, 2, 48, 0
4, 48960, Note_on_c, 2, 34, 127
4, 49008, Note_off_c, 2, 34, 0
4, 49008, Note_on_c, 2, 46, 127
4, 49056, Note_off_c, 2, 46, 0
4, 49056, Note_on_c, 2, 41, 127
4, 49080, Note_off_c, 2, 41, 0
4, 49080, Note_on_c, 2, 34, 127
4, 49104, Note_off_c, 2, 34, 0
4, 49104, Note_on_c, 2, 41, 127
4, 49128, Note_off_c, 2, 41, 0
4, 49128, Note_on_c, 2, 46, 127
4, 49152, Note_off_c, 2, 46, 0
4, 49152, Note_on_c, 2, 32, 127
4, 49200, Note_off_c, 2, 32, 0
4, 49200, Note_on_c, 2, 44, 127
4, 49248, Note_off_c, 2, 44, 0
4, 49248, Note_on_c, 2, 39, 127
4, 49272, Note_off_c, 2, 39, 0
4, 49272, Note_on_c, 2, 32, 127
4, 49296, Note_off_c, 2, 32, 0
4, 49296, Note_on_c, 2, 39, 127
4, 49320, Note_off_c, 2, 39, 0
4, 49320, Note_on_c, 2, 44, 127
4, 49344, Note_off_c, 2, 44, 0
4, 49344, Note_on_c, 2, 32, 127
4, 49392, Note_off_c, 2, 32, 0
4, 49392, Note_on_c, 2, 44, 127
4, 49440, Note_off_c, 2, 44, 0
4, 49440, Note_on_c, 2, 39, 127
4, 49464, Note_off_c, 2, 39, 0
4, 49464, Note_on_c, 2, 32, 127
4, 49488, Note_off_c, 2, 32, 0
4, 49488, Note_on_c, 2, 39, 127
4, 49512, Note_off_c, 2, 39, 0
4, 49512, Note_on_c, 2, 44, 127
4, 49536, Note_off_c, 2, 44, 0
4, 49536, Note_on_c, 2, 32, 127
4, 49584, Note_off_c, 2, 32, 0
4, 49584, Note_on_c, 2, 44, 127
4, 49632, Note_off_c, 2, 44, 0
4, 49632, Note_on_c, 2, 39, 127
4, 49656, Note_off_c, 2, 39, 0
4, 49656, Note_on_c, 2, 32, 127
4, 49680, Note_off_c, 2, 32, 0
4, 49680, Note_on_c, 2, 39, 127
4, 49704, Note_off_c, 2, 39, 0
4, 49704, Note_on_c, 2, 44, 127
4, 49728, Note_off_c, 2, 44, 0
4, 49728, Note_on_c, 2, 34, 127
4, 49776, Note_off_c, 2, 34, 0
4, 49776, Note_on_c, 2, 46, 127
4, 49824, Note_off_c, 2, 46, 0
4, 49824, Note_on_c, 2, 41, 127
4, 49848, Note_off_c, 2, 41, 0
4, 49848, Note_on_c, 2, 34, 127
4, 49872, Note_off_c, 2, 34, 0
4, 49872, Note_on_c, 2, 41, 127
4, 49896, Note_off_c, 2, 41, 0
4, 49896, Note_on_c, 2, 46, 127
4, 49920, Note_off_c, 2, 46, 0
4, 52992, Note_on_c, 2, 36, 127
4, 53040, Note_off_c, 2, 36, 0
4, 53040, Note_on_c, 2, 48, 127
4, 53088, Note_off_c, 2, 48, 0
4, 53088, Note_on_c, 2, 43, 127
4, 53112, Note_off_c, 2, 43, 0
4, 53112, Note_on_c, 2, 36, 127
4, 53136, Note_off_c, 2, 36, 0
4, 53136, Note_on_c, 2, 43, 127
4, 53160, Note_off_c, 2, 43, 0
4, 53160, Note_on_c, 2, 48, 127
4, 53184, Note_off_c, 2, 48, 0
4, 53184, Note_on_c, 2, 36, 127
4, 53232, Note_off_c, 2, 36, 0
4, 53232, Note_on_c, 2, 48, 127
4, 53280, Note_off_c, 2, 48, 0
4, 53280, Note_on_c, 2, 43, 127
4, 53304, Note_off_c, 2, 43, 0
4, 53304, Note_on_c, 2, 36, 127
4, 53328, Note_off_c, 2, 36, 0
4, 53328, Note_on_c, 2, 43, 127
4, 53352, Note_off_c, 2, 43, 0
4, 53352, Note_on_c, 2, 48, 127
4, 53376, Note_off_c, 2, 48, 0
4, 53376, Note_on_c, 2, 35, 127
4, 53424, Note_off_c, 2, 35, 0
4, 53424, Note_on_c, 2, 47, 127
4, 53472, Note_off_c, 2, 47, 0
4, 53472, Note_on_c, 2, 43, 127
4, 53496, Note_off_c, 2, 43, 0
4, 53496, Note_on_c, 2, 35, 127
4, 53520, Note_off_c, 2, 35, 0
4, 53520, Note_on_c, 2, 43, 127
4, 53544, Note_off_c, 2, 43, 0
4, 53544, Note_on_c, 2, 47, 127
4, 53568, Note_off_c, 2, 47, 0
4, 53568, Note_on_c, 2, 35, 127
4, 53616, Note_off_c, 2, 35, 0
4, 53616, Note_on_c, 2, 47, 127
4, 53664, Note_off_c, 2, 47, 0
4, 53664, Note_on_c, 2, 43, 127
4, 53688, Note_off_c, 2, 43, 0
4, 53688, Note_on_c, 2, 35, 127
4, 53712, Note_off_c, 2, 35, 0
4, 53712, Note_on_c, 2, 43, 127
4, 53736, Note_off_c, 2, 43, 0
4, 53736, Note_on_c, 2, 47, 127
4, 53760, Note_off_c, 2, 47, 0
4, 53760, Note_on_c, 2, 32, 127
4, 53808, Note_off_c, 2, 32, 0
4, 53808, Note_on_c, 2, 44, 127
4, 53856, Note_off_c, 2, 44, 0
4, 53856, Note_on_c, 2, 39, 127
4, 53880, Note_off_c, 2, 39, 0
4, 53880, Note_on_c, 2, 32, 127
4, 53904, Note_off_c, 2, 32, 0
4, 53904, Note_on_c, 2, 39, 127
4, 53928, Note_off_c, 2, 39, 0
4, 53928, Note_on_c, 2, 44, 127
4, 53952, Note_off_c, 2, 44, 0
4, 53952, Note_on_c, 2, 32, 127
4, 54000, Note_off_c, 2, 32, 0
4, 54000, Note_on_c, 2, 44, 127
4, 54048, Note_off_c, 2, 44, 0
4, 54048, Note_on_c, 2, 39, 127
4, 54072, Note_off_c, 2, 39, 0
4, 54072, Note_on_c, 2, 32, 127
4, 54096, Note_off_c, 2, 32, 0
4, 54096, Note_on_c, 2, 39, 127
4, 54120, Note_off_c, 2, 39, 0
4, 54120, Note_on_c, 2, 44, 127
4, 54144, Note_off_c, 2, 44, 0
4, 54144, Note_on_c, 2, 31, 127
4, 54192, Note_off_c, 2, 31, 0
4, 54192, Note_on_c, 2, 43, 127
4, 54240, Note_off_c, 2, 43, 0
4, 54240, Note_on_c, 2, 38, 127
4, 54264, Note_off_c, 2, 38, 0
4, 54264, Note_on_c, 2, 31, 127
4, 54288, Note_off_c, 2, 31, 0
4, 54288, Note_on_c, 2, 38, 127
4, 54312, Note_off_c, 2, 38, 0
4, 54312, Note_on_c, 2, 43, 127
4, 54336, Note_off_c, 2, 43, 0
4, 54336, Note_on_c, 2, 31, 127
4, 54384, Note_off_c, 2, 31, 0
4, 54384, Note_on_c, 2, 43, 127
4, 54432, Note_off_c, 2, 43, 0
4, 54432, Note_on_c, 2, 38, 127
4, 54456, Note_off_c, 2, 38, 0
4, 54456, Note_on_c, 2, 31, 127
4, 54480, Note_off_c, 2, 31, 0
4, 54480, Note_on_c, 2, 38, 127
4, 54504, Note_off_c, 2, 38, 0
4, 54504, Note_on_c, 2, 43, 127
4, 54528, Note_off_c, 2, 43, 0
4, 54528, Note_on_c, 2, 36, 127
4, 54576, Note_off_c, 2, 36, 0
4, 54576, Note_on_c, 2, 48, 127
4, 54624, Note_off_c, 2, 48, 0
4, 54624, Note_on_c, 2, 43, 127
4, 54648, Note_off_c, 2, 43, 0
4, 54648, Note_on_c, 2, 36, 127
4, 54672, Note_off_c, 2, 36, 0
4, 54672, Note_on_c, 2, 43, 127
4, 54696, Note_off_c, 2, 43, 0
4, 54696, Note_on_c, 2, 48, 127
4, 54720, Note_off_c, 2, 48, 0
4, 54720, Note_on_c, 2, 36, 127
4, 54768, Note_off_c, 2, 36, 0
4, 54768, Note_on_c, 2, 48, 127
4, 54816, Note_off_c, 2, 48, 0
4, 54816, Note_on_c, 2, 43, 127
4, 54840, Note_off_c, 2, 43, 0
4, 54840, Note_on_c, 2, 36, 127
4, 54864, Note_off_c, 2, 36, 0
4, 54864, Note_on_c, 2, 43, 127
4, 54888, Note_off_c, 2, 43, 0
4, 54888, Note_on_c, 2, 48, 127
4, 54912, Note_off_c, 2, 48, 0
4, 54912, Note_on_c, 2, 35, 127
4, 54960, Note_off_c, 2, 35, 0
4, 54960, Note_on_c, 2, 47, 127
4, 55008, Note_off_c, 2, 47, 0
4, 55008, Note_on_c, 2, 43, 127
4, 55032, Note_off_c, 2, 43, 0
4, 55032, Note_on_c, 2, 35, 127
4, 55056, Note_off_c, 2, 35, 0
4, 55056, Note_on_c, 2, 43, 127
4, 55080, Note_off_c, 2, 43, 0
4, 55080, Note_on_c, 2, 47, 127
4, 55104, Note_off_c, 2, 47, 0
4, 55104, Note_on_c, 2, 35, 127
4, 55152, Note_off_c, 2, 35, 0
4, 55152, Note_on_c, 2, 47, 127
4, 55200, Note_off_c, 2, 47, 0
4, 55200, Note_on_c, 2, 43, 127
4, 55224, Note_off_c, 2, 43, 0
4, 55224, Note_on_c, 2, 35, 127
4, 55248, Note_off_c, 2, 35, 0
4, 55248, Note_on_c, 2, 43, 127
4, 55272, Note_off_c, 2, 43, 0
4, 55272, Note_on_c, 2, 47, 127
4, 55296, Note_off_c, 2, 47, 0
4, 55296, Note_on_c, 2, 32, 127
4, 55344, Note_off_c, 2, 32, 0
4, 55344, Note_on_c, 2, 44, 127
4, 55392, Note_off_c, 2, 44, 0
4, 55392, Note_on_c, 2, 39, 127
4, 55416, Note_off_c, 2, 39, 0
4, 55416, Note_on_c, 2, 32, 127
4, 55440, Note_off_c, 2, 32, 0
4, 55440, Note_on_c, 2, 39, 127
4, 55464, Note_off_c, 2, 39, 0
4, 55464, Note_on_c, 2, 44, 127
4, 55488, Note_off_c, 2, 44, 0
4, 55488, Note_on_c, 2, 32, 127
4, 55536, Note_off_c, 2, 32, 0
4, 55536, Note_on_c, 2, 44, 127
4, 55584, Note_off_c, 2, 44, 0
4, 55584, Note_on_c, 2, 39, 127
4, 55608, Note_off_c, 2, 39, 0
4, 55608, Note_on_c, 2, 32, 127
4, 55632, Note_off_c, 2, 32, 0
4, 55632, Note_on_c, 2, 39, 127
4, 55656, Note_off_c, 2, 39, 0
4, 55656, Note_on_c, 2, 44, 127
4, 55680, Note_off_c, 2, 44, 0
4, 55680, Note_on_c, 2, 31, 127
4, 55728, Note_off_c, 2, 31, 0
4, 55728, Note_on_c, 2, 43, 127
4, 55776, Note_off_c, 2, 43, 0
4, 55776, Note_on_c, 2, 38, 127
4, 55800, Note_off_c, 2, 38, 0
4, 55800, Note_on_c, 2, 31, 127
4, 55824, Note_off_c, 2, 31, 0
4, 55824, Note_on_c, 2, 38, 127
4, 55848, Note_off_c, 2, 38, 0
4, 55848, Note_on_c, 2, 43, 127
4, 55872, Note_off_c, 2, 43, 0
4, 55872, Note_on_c, 2, 31, 127
4, 55920, Note_off_c, 2, 31, 0
4, 55920, Note_on_c, 2, 43, 127
4, 55968, Note_off_c, 2, 43, 0
4, 55968, Note_on_c, 2, 38, 127
4, 55992, Note_off_c, 2, 38, 0
4, 55992, Note_on_c, 2, 31, 127
4, 56016, Note_off_c, 2, 31, 0
4, 56016, Note_on_c, 2, 38, 127
4, 56040, Note_off_c, 2, 38, 0
4, 56040, Note_on_c, 2, 43, 127
4, 56064, Note_off_c, 2, 43, 0
4, 56064, Note_on_c, 2, 32, 127
4, 56112, Note_off_c, 2, 32, 0
4, 56112, Note_on_c, 2, 44, 127
4, 56160, Note_off_c, 2, 44, 0
4, 56160, Note_on_c, 2, 39, 127
4, 56184, Note_off_c, 2, 39, 0
4, 56184, Note_on_c, 2, 32, 127
4, 56208, Note_off_c, 2, 32, 0
4, 56208, Note_on_c, 2, 39, 127
4, 56232, Note_off_c, 2, 39, 0
4, 56232, Note_on_c, 2, 44, 127
4, 56256, Note_off_c, 2, 44, 0
4, 56256, Note_on_c, 2, 32, 127
4, 56304, Note_off_c, 2, 32, 0
4, 56304, Note_on_c, 2, 44, 127
4, 56352, Note_off_c, 2, 44, 0
4, 56352, Note_on_c, 2, 39, 127
4, 56376, Note_off_c, 2, 39, 0
4, 56376, Note_on_c, 2, 32, 127
4, 56400, Note_off_c, 2, 32, 0
4, 56400, Note_on_c, 2, 39, 127
4, 56424, Note_off_c, 2, 39, 0
4, 56424, Note_on_c, 2, 44, 127
4, 56448, Note_off_c, 2, 44, 0
4, 56448, Note_on_c, 2, 32, 127
4, 56496, Note_off_c, 2, 32, 0
4, 56496, Note_on_c, 2, 44, 127
4, 56544, Note_off_c, 2, 44, 0
4, 56544, Note_on_c, 2, 39, 127
4, 56568, Note_off_c, 2, 39, 0
4, 56568, Note_on_c, 2, 32, 127
4, 56592, Note_off_c, 2, 32, 0
4, 56592, Note_on_c, 2, 39, 127
4, 56616, Note_off_c, 2, 39, 0
4, 56616, Note_on_c, 2, 44, 127
4, 56640, Note_off_c, 2, 44, 0
4, 56640, Note_on_c, 2, 32, 127
4, 56688, Note_off_c, 2, 32, 0
4, 56688, Note_on_c, 2, 44, 127
4, 56736, Note_off_c, 2, 44, 0
4, 56736, Note_on_c, 2, 39, 127
4, 56760, Note_off_c, 2, 39, 0
4, 56760, Note_on_c, 2, 32, 127
4, 56784, Note_off_c, 2, 32, 0
4, 56784, Note_on_c, 2, 39, 127
4, 56808, Note_off_c, 2, 39, 0
4, 56808, Note_on_c, 2, 44, 127
4, 56832, Note_off_c, 2, 44, 0
4, 56832, Note_on_c, 2, 31, 127
4, 56880, Note_off_c, 2, 31, 0
4, 56880, Note_on_c, 2, 43, 127
4, 56928, Note_off_c, 2, 43, 0
4, 56928, Note_on_c, 2, 38, 127
4, 56952, Note_off_c, 2, 38, 0
4, 56952, Note_on_c, 2, 31, 127
4, 56976, Note_off_c, 2, 31, 0
4, 56976, Note_on_c, 2, 38, 127
4, 57000, Note_off_c, 2, 38, 0
4, 57000, Note_on_c, 2, 43, 127
4, 57024, Note_off_c, 2, 43, 0
4, 57024, Note_on_c, 2, 31, 127
4, 57072, Note_off_c, 2, 31, 0
4, 57072, Note_on_c, 2, 43, 127
4, 57120, Note_off_c, 2, 43, 0
4, 57120, Note_on_c, 2, 38, 127
4, 57144, Note_off_c, 2, 38, 0
4, 57144, Note_on_c, 2, 31, 127
4, 57168, Note_off_c, 2, 31, 0
4, 57168, Note_on_c, 2, 38, 127
4, 57192, Note_off_c, 2, 38, 0
4, 57192, Note_on_c, 2, 43, 127
4, 57216, Note_off_c, 2, 43, 0
4, 57216, Note_on_c, 2, 31, 127
4, 57264, Note_off_c, 2, 31, 0
4, 57264, Note_on_c, 2, 43, 127
4, 57312, Note_off_c, 2, 43, 0
4, 57312, Note_on_c, 2, 38, 127
4, 57336, Note_off_c, 2, 38, 0
4, 57336, Note_on_c, 2, 31, 127
4, 57360, Note_off_c, 2, 31, 0
4, 57360, Note_on_c, 2, 38, 127
4, 57384, Note_off_c, 2, 38, 0
4, 57384, Note_on_c, 2, 43, 127
4, 57408, Note_off_c, 2, 43, 0
4, 57408, Note_on_c, 2, 31, 127
4, 57456, Note_off_c, 2, 31, 0
4, 57456, Note_on_c, 2, 43, 127
4, 57504, Note_off_c, 2, 43, 0
4, 57504, Note_on_c, 2, 38, 127
4, 57528, Note_off_c, 2, 38, 0
4, 57528, Note_on_c, 2, 31, 127
4, 57552, Note_off_c, 2, 31, 0
4, 57552, Note_on_c, 2, 38, 127
4, 57576, Note_off_c, 2, 38, 0
4, 57576, Note_on_c, 2, 43, 127
4, 57600, Note_off_c, 2, 43, 0
4, 57600, Note_on_c, 2, 32, 127
4, 57648, Note_off_c, 2, 32, 0
4, 57648, Note_on_c, 2, 44, 127
4, 57696, Note_off_c, 2, 44, 0
4, 57696, Note_on_c, 2, 39, 127
4, 57720, Note_off_c, 2, 39, 0
4, 57720, Note_on_c, 2, 32, 127
4, 57744, Note_off_c, 2, 32, 0
4, 57744, Note_on_c, 2, 39, 127
4, 57768, Note_off_c, 2, 39, 0
4, 57768, Note_on_c, 2, 44, 127
4, 57792, Note_off_c, 2, 44, 0
4, 57792, Note_on_c, 2, 32, 127
4, 57840, Note_off_c, 2, 32, 0
4, 57840, Note_on_c, 2, 44, 127
4, 57888, Note_off_c, 2, 44, 0
4, 57888, Note_on_c, 2, 39, 127
4, 57912, Note_off_c, 2, 39, 0
4, 57912, Note_on_c, 2, 32, 127
4, 57936, Note_off_c, 2, 32, 0
4, 57936, Note_on_c, 2, 39, 127
4, 57960, Note_off_c, 2, 39, 0
4, 57960, Note_on_c, 2, 44, 127
4, 57984, Note_off_c, 2, 44, 0
4, 57984, Note_on_c, 2, 32, 127
4, 58032, Note_off_c, 2, 32, 0
4, 58032, Note_on_c, 2, 44, 127
4, 58080, Note_off_c, 2, 44, 0
4, 58080, Note_on_c, 2, 39, 127
4, 58104, Note_off_c, 2, 39, 0
4, 58104, Note_on_c, 2, 32, 127
4, 58128, Note_off_c, 2, 32, 0
4, 58128, Note_on_c, 2, 39, 127
4, 58152, Note_off_c, 2, 39, 0
4, 58152, Note_on_c, 2, 44, 127
4, 58176, Note_off_c, 2, 44, 0
4, 58176, Note_on_c, 2, 32, 127
4, 58224, Note_off_c, 2, 32, 0
4, 58224, Note_on_c, 2, 44, 127
4, 58272, Note_off_c, 2, 44, 0
4, 58272, Note_on_c, 2, 39, 127
4, 58296, Note_off_c, 2, 39, 0
4, 58296, Note_on_c, 2, 32, 127
4, 58320, Note_off_c, 2, 32, 0
4, 58320, Note_on_c, 2, 39, 127
4, 58344, Note_off_c, 2, 39, 0
4, 58344, Note_on_c, 2, 44, 127
4, 58368, Note_off_c, 2, 44, 0
4, 58368, Note_on_c, 2, 31, 127
4, 58416, Note_off_c, 2, 31, 0
4, 58416, Note_on_c, 2, 43, 127
4, 58464, Note_off_c, 2, 43, 0
4, 58464, Note_on_c, 2, 38, 127
4, 58488, Note_off_c, 2, 38, 0
4, 58488, Note_on_c, 2, 31, 127
4, 58512, Note_off_c, 2, 31, 0
4, 58512, Note_on_c, 2, 38, 127
4, 58536, Note_off_c, 2, 38, 0
4, 58536, Note_on_c, 2, 43, 127
4, 58560, Note_off_c, 2, 43, 0
4, 58560, Note_on_c, 2, 31, 127
4, 58608, Note_off_c, 2, 31, 0
4, 58608, Note_on_c, 2, 43, 127
4, 58656, Note_off_c, 2, 43, 0
4, 58656, Note_on_c, 2, 38, 127
4, 58680, Note_off_c, 2, 38, 0
4, 58680, Note_on_c, 2, 31, 127
4, 58704, Note_off_c, 2, 31, 0
4, 58704, Note_on_c, 2, 38, 127
4, 58728, Note_off_c, 2, 38, 0
4, 58728, Note_on_c, 2, 43, 127
4, 58752, Note_off_c, 2, 43, 0
4, 58752, Note_on_c, 2, 31, 127
4, 58800, Note_off_c, 2, 31, 0
4, 58800, Note_on_c, 2, 43, 127
4, 58848, Note_off_c, 2, 43, 0
4, 58848, Note_on_c, 2, 38, 127
4, 58872, Note_off_c, 2, 38, 0
4, 58872, Note_on_c, 2, 31, 127
4, 58896, Note_off_c, 2, 31, 0
4, 58896, Note_on_c, 2, 38, 127
4, 58920, Note_off_c, 2, 38, 0
4, 58920, Note_on_c, 2, 43, 127
4, 58944, Note_off_c, 2, 43, 0
4, 58944, Note_on_c, 2, 31, 127
4, 58992, Note_off_c, 2, 31, 0
4, 58992, Note_on_c, 2, 43, 127
4, 59040, Note_off_c, 2, 43, 0
4, 59040, Note_on_c, 2, 38, 127
4, 59064, Note_off_c, 2, 38, 0
4, 59064, Note_on_c, 2, 31, 127
4, 59088, Note_off_c, 2, 31, 0
4, 59088, Note_on_c, 2, 38, 127
4, 59112, Note_off_c, 2, 38, 0
4, 59112, Note_on_c, 2, 43, 127
4, 59136, Note_off_c, 2, 43, 0
4, 59136, Note_on_c, 2, 32, 127
4, 59184, Note_off_c, 2, 32, 0
4, 59184, Note_on_c, 2, 44, 127
4, 59232, Note_off_c, 2, 44, 0
4, 59232, Note_on_c, 2, 39, 127
4, 59256, Note_off_c, 2, 39, 0
4, 59256, Note_on_c, 2, 32, 127
4, 59280, Note_off_c, 2, 32, 0
4, 59280, Note_on_c, 2, 39, 127
4, 59304, Note_off_c, 2, 39, 0
4, 59304, Note_on_c, 2, 44, 127
4, 59328, Note_off_c, 2, 44, 0
4, 59328, Note_on_c, 2, 32, 127
4, 59376, Note_off_c, 2, 32, 0
4, 59376, Note_on_c, 2, 44, 127
4, 59424, Note_off_c, 2, 44, 0
4, 59424, Note_on_c, 2, 39, 127
4, 59448, Note_off_c, 2, 39, 0
4, 59448, Note_on_c, 2, 32, 127
4, 59472, Note_off_c, 2, 32, 0
4, 59472, Note_on_c, 2, 39, 127
4, 59496, Note_off_c, 2, 39, 0
4, 59496, Note_on_c, 2, 44, 127
4, 59520, Note_off_c, 2, 44, 0
4, 59520, Note_on_c, 2, 32, 127
4, 59568, Note_off_c, 2, 32, 0
4, 59568, Note_on_c, 2, 44, 127
4, 59616, Note_off_c, 2, 44, 0
4, 59616, Note_on_c, 2, 39, 127
4, 59640, Note_off_c, 2, 39, 0
4, 59640, Note_on_c, 2, 32, 127
4, 59664, Note_off_c, 2, 32, 0
4, 59664, Note_on_c, 2, 39, 127
4, 59688, Note_off_c, 2, 39, 0
4, 59688, Note_on_c, 2, 44, 127
4, 59712, Note_off_c, 2, 44, 0
4, 59712, Note_on_c, 2, 32, 127
4, 59760, Note_off_c, 2, 32, 0
4, 59760, Note_on_c, 2, 44, 127
4, 59808, Note_off_c, 2, 44, 0
4, 59808, Note_on_c, 2, 39, 127
4, 59832, Note_off_c, 2, 39, 0
4, 59832, Note_on_c, 2, 32, 127
4, 59856, Note_off_c, 2, 32, 0
4, 59856, Note_on_c, 2, 39, 127
4, 59880, Note_off_c, 2, 39, 0
4, 59880, Note_on_c, 2, 44, 127
4, 59904, Note_off_c, 2, 44, 0
4, 59904, Note_on_c, 2, 31, 127
4, 59952, Note_off_c, 2, 31, 0
4, 59952, Note_on_c, 2, 43, 127
4, 60000, Note_off_c, 2, 43, 0
4, 60000, Note_on_c, 2, 38, 127
4, 60024, Note_off_c, 2, 38, 0
4, 60024, Note_on_c, 2, 31, 127
4, 60048, Note_off_c, 2, 31, 0
4, 60048, Note_on_c, 2, 38, 127
4, 60072, Note_off_c, 2, 38, 0
4, 60072, Note_on_c, 2, 43, 127
4, 60096, Note_off_c, 2, 43, 0
4, 60096, Note_on_c, 2, 31, 127
4, 60144, Note_off_c, 2, 31, 0
4, 60144, Note_on_c, 2, 43, 127
4, 60192, Note_off_c, 2, 43, 0
4, 60192, Note_on_c, 2, 38, 127
4, 60216, Note_off_c, 2, 38, 0
4, 60216, Note_on_c, 2, 31, 127
4, 60240, Note_off_c, 2, 31, 0
4, 60240, Note_on_c, 2, 38, 127
4, 60264, Note_off_c, 2, 38, 0
4, 60264, Note_on_c, 2, 43, 127
4, 60288, Note_off_c, 2, 43, 0
4, 60288, Note_on_c, 2, 31, 127
4, 60336, Note_off_c, 2, 31, 0
4, 60336, Note_on_c, 2, 43, 127
4, 60384, Note_off_c, 2, 43, 0
4, 60384, Note_on_c, 2, 38, 127
4, 60408, Note_off_c, 2, 38, 0
4, 60408, Note_on_c, 2, 31, 127
4, 60432, Note_off_c, 2, 31, 0
4, 60432, Note_on_c, 2, 38, 127
4, 60456, Note_off_c, 2, 38, 0
4, 60456, Note_on_c, 2, 43, 127
4, 60480, Note_off_c, 2, 43, 0
4, 60480, Note_on_c, 2, 31, 127
4, 60528, Note_off_c, 2, 31, 0
4, 60528, Note_on_c, 2, 43, 127
4, 60576, Note_off_c, 2, 43, 0
4, 60576, Note_on_c, 2, 38, 127
4, 60600, Note_off_c, 2, 38, 0
4, 60600, Note_on_c, 2, 31, 127
4, 60624, Note_off_c, 2, 31, 0
4, 60624, Note_on_c, 2, 38, 127
4, 60648, Note_off_c, 2, 38, 0
4, 60648, Note_on_c, 2, 43, 127
4, 60672, Note_off_c, 2, 43, 0
4, 60672, Note_on_c, 2, 32, 127
4, 60720, Note_off_c, 2, 32, 0
4, 60720, Note_on_c, 2, 44, 127
4, 60768, Note_off_c, 2, 44, 0
4, 60768, Note_on_c, 2, 39, 127
4, 60792, Note_off_c, 2, 39, 0
4, 60792, Note_on_c, 2, 32, 127
4, 60816, Note_off_c, 2, 32, 0
4, 60816, Note_on_c, 2, 39, 127
4, 60840, Note_off_c, 2, 39, 0
4, 60840, Note_on_c, 2, 44, 127
4, 60864, Note_off_c, 2, 44, 0
4, 60864, Note_on_c, 2, 32, 127
4, 60912, Note_off_c, 2, 32, 0
4, 60912, Note_on_c, 2, 44, 127
4, 60960, Note_off_c, 2, 44, 0
4, 60960, Note_on_c, 2, 39, 127
4, 60984, Note_off_c, 2, 39, 0
4, 60984, Note_on_c, 2, 32, 127
4, 61008, Note_off_c, 2, 32, 0
4, 61008, Note_on_c, 2, 39, 127
4, 61032, Note_off_c, 2, 39, 0
4, 61032, Note_on_c, 2, 44, 127
4, 61056, Note_off_c, 2, 44, 0
4, 61056, Note_on_c, 2, 32, 127
4, 61104, Note_off_c, 2, 32, 0
4, 61104, Note_on_c, 2, 44, 127
4, 61152, Note_off_c, 2, 44, 0
4, 61152, Note_on_c, 2, 39, 127
4, 61176, Note_off_c, 2, 39, 0
4, 61176, Note_on_c, 2, 32, 127
4, 61200, Note_off_c, 2, 32, 0
4, 61200, Note_on_c, 2, 39, 127
4, 61224, Note_off_c, 2, 39, 0
4, 61224, Note_on_c, 2, 44, 127
4, 61248, Note_off_c, 2, 44, 0
4, 61248, Note_on_c, 2, 32, 127
4, 61296, Note_off_c, 2, 32, 0
4, 61296, Note_on_c, 2, 44, 127
4, 61344, Note_off_c, 2, 44, 0
4, 61344, Note_on_c, 2, 39, 127
4, 61368, Note_off_c, 2, 39, 0
4, 61368, Note_on_c, 2, 32, 127
4, 61392, Note_off_c, 2, 32, 0
4, 61392, Note_on_c, 2, 39, 127
4, 61416, Note_off_c, 2, 39, 0
4, 61416, Note_on_c, 2, 44, 127
4, 61440, Note_off_c, 2, 44, 0
4, 61440, Note_on_c, 2, 31, 127
4, 61488, Note_off_c, 2, 31, 0
4, 61488, Note_on_c, 2, 43, 127
4, 61536, Note_off_c, 2, 43, 0
4, 61536, Note_on_c, 2, 38, 127
4, 61560, Note_off_c, 2, 38, 0
4, 61560, Note_on_c, 2, 31, 127
4, 61584, Note_off_c, 2, 31, 0
4, 61584, Note_on_c, 2, 38, 127
4, 61608, Note_off_c, 2, 38, 0
4, 61608, Note_on_c, 2, 43, 127
4, 61632, Note_off_c, 2, 43, 0
4, 61632, Note_on_c, 2, 31, 127
4, 61680, Note_off_c, 2, 31, 0
4, 61680, Note_on_c, 2, 43, 127
4, 61728, Note_off_c, 2, 43, 0
4, 61728, Note_on_c, 2, 38, 127
4, 61752, Note_off_c, 2, 38, 0
4, 61752, Note_on_c, 2, 31, 127
4, 61776, Note_off_c, 2, 31, 0
4, 61776, Note_on_c, 2, 38, 127
4, 61800, Note_off_c, 2, 38, 0
4, 61800, Note_on_c, 2, 43, 127
4, 61824, Note_off_c, 2, 43, 0
4, 61824, Note_on_c, 2, 31, 127
4, 61872, Note_off_c, 2, 31, 0
4, 61872, Note_on_c, 2, 43, 127
4, 61920, Note_off_c, 2, 43, 0
4, 61920, Note_on_c, 2, 38, 127
4, 61944, Note_off_c, 2, 38, 0
4, 61944, Note_on_c, 2, 31, 127
4, 61968, Note_off_c, 2, 31, 0
4, 61968, Note_on_c, 2, 38, 127
4, 61992, Note_off_c, 2, 38, 0
4, 61992, Note_on_c, 2, 43, 127
4, 62016, Note_off_c, 2, 43, 0
4, 62016, Note_on_c, 2, 31, 127
4, 62064, Note_off_c, 2, 31, 0
4, 62064, Note_on_c, 2, 43, 127
4, 62112, Note_off_c, 2, 43, 0
4, 62112, Note_on_c, 2, 38, 127
4, 62136, Note_off_c, 2, 38, 0
4, 62136, Note_on_c, 2, 31, 127
4, 62160, Note_off_c, 2, 31, 0
4, 62160, Note_on_c, 2, 38, 127
4, 62184, Note_off_c, 2, 38, 0
4, 62184, Note_on_c, 2, 43, 127
4, 62208, Note_off_c, 2, 43, 0
4, 62208, Note_on_c, 2, 43, 127
4, 62256, Note_off_c, 2, 43, 0
4, 62256, Note_on_c, 2, 55, 127
4, 62304, Note_off_c, 2, 55, 0
4, 62304, Note_on_c, 2, 43, 127
4, 62352, Note_off_c, 2, 43, 0
4, 62352, Note_on_c, 2, 55, 127
4, 62400, Note_off_c, 2, 55, 0
4, 62400, Note_on_c, 2, 54, 127
4, 62496, Note_off_c, 2, 54, 0
4, 62496, Note_on_c, 2, 42, 127
4, 62592, Note_off_c, 2, 42, 0
4, 62976, Control_c, 2, 10, 127
4, 62976, Control_c, 2, 7, 100
4, 62976, Pitch_bend_c, 2, 8192
4, 62976, Program_c, 2, 84
4, 62976, End_track
5, 0, Start_track
5, 0, Control_c, 3, 0, 0
5, 0, Control_c, 3, 32, 0
5, 0, Program_c, 3, 24
5, 0, Title_t, "Nylon Guitar"
5, 0, Control_c, 3, 7, 127
5, 0, Control_c, 3, 10, 64
5, 0, Control_c, 3, 7, 100
5, 0, Pitch_bend_c, 3, 8192
5, 0, Control_c, 3, 10, 64
5, 0, Control_c, 3, 7, 100
5, 0, Pitch_bend_c, 3, 8192
5, 0, Control_c, 3, 10, 64
5, 0, Control_c, 3, 7, 100
5, 0, Pitch_bend_c, 3, 8192
5, 0, Program_c, 3, 24
5, 0, Control_c, 3, 10, 64
5, 0, Control_c, 3, 7, 100
5, 0, Pitch_bend_c, 3, 8192
5, 0, Program_c, 3, 24
5, 0, Note_on_c, 3, 84, 64
5, 0, Note_on_c, 3, 60, 100
5, 24, Note_off_c, 3, 60, 0
5, 24, Note_off_c, 3, 84, 0
5, 24, Note_on_c, 3, 85, 64
5, 48, Note_off_c, 3, 85, 0
5, 48, Note_on_c, 3, 72, 100
5, 48, Note_on_c, 3, 86, 64
5, 72, Note_off_c, 3, 86, 0
5, 72, Note_off_c, 3, 72, 0
5, 72, Note_on_c, 3, 87, 64
5, 96, Note_off_c, 3, 87, 0
5, 96, Note_on_c, 3, 84, 64
5, 96, Note_on_c, 3, 59, 100
5, 120, Note_off_c, 3, 59, 0
5, 120, Note_off_c, 3, 84, 0
5, 120, Note_on_c, 3, 85, 64
5, 144, Note_off_c, 3, 85, 0
5, 144, Note_on_c, 3, 86, 64
5, 144, Note_on_c, 3, 71, 100
5, 168, Note_off_c, 3, 71, 0
5, 168, Note_off_c, 3, 86, 0
5, 168, Note_on_c, 3, 87, 64
5, 192, Note_off_c, 3, 87, 0
5, 192, Note_on_c, 3, 58, 100
5, 192, Note_on_c, 3, 84, 64
5, 216, Note_off_c, 3, 84, 0
5, 216, Note_off_c, 3, 58, 0
5, 216, Note_on_c, 3, 85, 64
5, 240, Note_off_c, 3, 85, 0
5, 240, Note_on_c, 3, 86, 64
5, 240, Note_on_c, 3, 70, 100
5, 264, Note_off_c, 3, 70, 0
5, 264, Note_off_c, 3, 86, 0
5, 264, Note_on_c, 3, 87, 64
5, 288, Note_off_c, 3, 87, 0
5, 288, Note_on_c, 3, 57, 100
5, 288, Note_on_c, 3, 84, 64
5, 312, Note_off_c, 3, 84, 0
5, 312, Note_off_c, 3, 57, 0
5, 312, Note_on_c, 3, 85, 64
5, 336, Note_off_c, 3, 85, 0
5, 336, Note_on_c, 3, 69, 100
5, 336, Note_on_c, 3, 86, 64
5, 360, Note_off_c, 3, 86, 0
5, 360, Note_off_c, 3, 69, 0
5, 360, Note_on_c, 3, 87, 64
5, 384, Note_off_c, 3, 87, 0
5, 384, Note_on_c, 3, 84, 64
5, 384, Note_on_c, 3, 55, 100
5, 408, Note_off_c, 3, 55, 0
5, 408, Note_off_c, 3, 84, 0
5, 408, Note_on_c, 3, 85, 64
5, 432, Note_off_c, 3, 85, 0
5, 432, Note_on_c, 3, 86, 64
5, 432, Note_on_c, 3, 67, 100
5, 456, Note_off_c, 3, 67, 0
5, 456, Note_off_c, 3, 86, 0
5, 456, Note_on_c, 3, 87, 64
5, 480, Note_off_c, 3, 87, 0
5, 480, Note_on_c, 3, 55, 100
5, 480, Note_on_c, 3, 84, 64
5, 504, Note_off_c, 3, 84, 0
5, 504, Note_off_c, 3, 55, 0
5, 504, Note_on_c, 3, 85, 64
5, 528, Note_off_c, 3, 85, 0
5, 528, Note_on_c, 3, 67, 100
5, 528, Note_on_c, 3, 86, 64
5, 552, Note_off_c, 3, 86, 0
5, 552, Note_off_c, 3, 67, 0
5, 552, Note_on_c, 3, 87, 64
5, 576, Note_off_c, 3, 87, 0
5, 576, Note_on_c, 3, 84, 64
5, 576, Note_on_c, 3, 66, 100
5, 600, Note_off_c, 3, 84, 0
5, 600, Note_on_c, 3, 85, 64
5, 624, Note_off_c, 3, 85, 0
5, 624, Note_on_c, 3, 86, 64
5, 648, Note_off_c, 3, 86, 0
5, 648, Note_on_c, 3, 87, 64
5, 672, Note_off_c, 3, 87, 0
5, 672, Note_off_c, 3, 66, 0
5, 672, Note_on_c, 3, 84, 64
5, 672, Note_on_c, 3, 54, 100
5, 696, Note_off_c, 3, 84, 0
5, 696, Note_on_c, 3, 85, 64
5, 720, Note_off_c, 3, 85, 0
5, 720, Note_on_c, 3, 86, 64
5, 744, Note_off_c, 3, 86, 0
5, 744, Note_on_c, 3, 87, 64
5, 768, Note_off_c, 3, 87, 0
5, 768, Note_off_c, 3, 54, 0
5, 25344, Note_on_c, 3, 72, 100
5, 25368, Note_off_c, 3, 72, 0
5, 25368, Note_on_c, 3, 72, 100
5, 25392, Note_off_c, 3, 72, 0
5, 25392, Note_on_c, 3, 72, 100
5, 25416, Note_off_c, 3, 72, 0
5, 25416, Note_on_c, 3, 72, 100
5, 25440, Note_off_c, 3, 72, 0
5, 25440, Note_on_c, 3, 72, 100
5, 25464, Note_off_c, 3, 72, 0
5, 25464, Note_on_c, 3, 72, 100
5, 25488, Note_off_c, 3, 72, 0
5, 25488, Note_on_c, 3, 72, 100
5, 25512, Note_off_c, 3, 72, 0
5, 25512, Note_on_c, 3, 72, 100
5, 25536, Note_off_c, 3, 72, 0
5, 25536, Note_on_c, 3, 74, 100
5, 25560, Note_off_c, 3, 74, 0
5, 25560, Note_on_c, 3, 74, 100
5, 25584, Note_off_c, 3, 74, 0
5, 25584, Note_on_c, 3, 74, 100
5, 25608, Note_off_c, 3, 74, 0
5, 25608, Note_on_c, 3, 74, 100
5, 25632, Note_off_c, 3, 74, 0
5, 25632, Note_on_c, 3, 75, 100
5, 25656, Note_off_c, 3, 75, 0
5, 25656, Note_on_c, 3, 75, 100
5, 25680, Note_off_c, 3, 75, 0
5, 25680, Note_on_c, 3, 75, 100
5, 25704, Note_off_c, 3, 75, 0
5, 25704, Note_on_c, 3, 75, 100
5, 25728, Note_off_c, 3, 75, 0
5, 25728, Note_on_c, 3, 79, 100
5, 25752, Note_off_c, 3, 79, 0
5, 25752, Note_on_c, 3, 79, 100
5, 25776, Note_off_c, 3, 79, 0
5, 25776, Note_on_c, 3, 79, 100
5, 25800, Note_off_c, 3, 79, 0
5, 25800, Note_on_c, 3, 79, 100
5, 25824, Note_off_c, 3, 79, 0
5, 25824, Note_on_c, 3, 75, 100
5, 25848, Note_off_c, 3, 75, 0
5, 25848, Note_on_c, 3, 75, 100
5, 25872, Note_off_c, 3, 75, 0
5, 25872, Note_on_c, 3, 75, 100
5, 25896, Note_off_c, 3, 75, 0
5, 25896, Note_on_c, 3, 75, 100
5, 25920, Note_off_c, 3, 75, 0
5, 25920, Note_on_c, 3, 74, 100
5, 25944, Note_off_c, 3, 74, 0
5, 25944, Note_on_c, 3, 74, 100
5, 25968, Note_off_c, 3, 74, 0
5, 25968, Note_on_c, 3, 74, 100
5, 25992, Note_off_c, 3, 74, 0
5, 25992, Note_on_c, 3, 74, 100
5, 26016, Note_off_c, 3, 74, 0
5, 26016, Note_on_c, 3, 74, 100
5, 26040, Note_off_c, 3, 74, 0
5, 26040, Note_on_c, 3, 74, 100
5, 26064, Note_off_c, 3, 74, 0
5, 26064, Note_on_c, 3, 74, 100
5, 26088, Note_off_c, 3, 74, 0
5, 26088, Note_on_c, 3, 74, 100
5, 26112, Note_off_c, 3, 74, 0
5, 26112, Note_on_c, 3, 75, 100
5, 26136, Note_off_c, 3, 75, 0
5, 26136, Note_on_c, 3, 75, 100
5, 26160, Note_off_c, 3, 75, 0
5, 26160, Note_on_c, 3, 75, 100
5, 26184, Note_off_c, 3, 75, 0
5, 26184, Note_on_c, 3, 75, 100
5, 26208, Note_off_c, 3, 75, 0
5, 26208, Note_on_c, 3, 75, 100
5, 26232, Note_off_c, 3, 75, 0
5, 26232, Note_on_c, 3, 75, 100
5, 26256, Note_off_c, 3, 75, 0
5, 26256, Note_on_c, 3, 75, 100
5, 26280, Note_off_c, 3, 75, 0
5, 26280, Note_on_c, 3, 75, 100
5, 26304, Note_off_c, 3, 75, 0
5, 26304, Note_on_c, 3, 77, 100
5, 26328, Note_off_c, 3, 77, 0
5, 26328, Note_on_c, 3, 77, 100
5, 26352, Note_off_c, 3, 77, 0
5, 26352, Note_on_c, 3, 77, 100
5, 26376, Note_off_c, 3, 77, 0
5, 26376, Note_on_c, 3, 77, 100
5, 26400, Note_off_c, 3, 77, 0
5, 26400, Note_on_c, 3, 77, 100
5, 26424, Note_off_c, 3, 77, 0
5, 26424, Note_on_c, 3, 77, 100
5, 26448, Note_off_c, 3, 77, 0
5, 26448, Note_on_c, 3, 75, 100
5, 26472, Note_off_c, 3, 75, 0
5, 26472, Note_on_c, 3, 75, 100
5, 26496, Note_off_c, 3, 75, 0
5, 26496, Note_on_c, 3, 74, 100
5, 26520, Note_off_c, 3, 74, 0
5, 26520, Note_on_c, 3, 74, 100
5, 26544, Note_off_c, 3, 74, 0
5, 26544, Note_on_c, 3, 74, 100
5, 26568, Note_off_c, 3, 74, 0
5, 26568, Note_on_c, 3, 74, 100
5, 26592, Note_off_c, 3, 74, 0
5, 26592, Note_on_c, 3, 74, 100
5, 26616, Note_off_c, 3, 74, 0
5, 26616, Note_on_c, 3, 74, 100
5, 26640, Note_off_c, 3, 74, 0
5, 26640, Note_on_c, 3, 74, 100
5, 26664, Note_off_c, 3, 74, 0
5, 26664, Note_on_c, 3, 74, 100
5, 26688, Note_off_c, 3, 74, 0
5, 26688, Note_on_c, 3, 71, 100
5, 26712, Note_off_c, 3, 71, 0
5, 26712, Note_on_c, 3, 71, 100
5, 26736, Note_off_c, 3, 71, 0
5, 26736, Note_on_c, 3, 71, 100
5, 26760, Note_off_c, 3, 71, 0
5, 26760, Note_on_c, 3, 71, 100
5, 26784, Note_off_c, 3, 71, 0
5, 26784, Note_on_c, 3, 71, 100
5, 26808, Note_off_c, 3, 71, 0
5, 26808, Note_on_c, 3, 71, 100
5, 26832, Note_off_c, 3, 71, 0
5, 26832, Note_on_c, 3, 71, 100
5, 26856, Note_off_c, 3, 71, 0
5, 26856, Note_on_c, 3, 71, 100
5, 26880, Note_off_c, 3, 71, 0
5, 26880, Note_on_c, 3, 68, 100
5, 26904, Note_off_c, 3, 68, 0
5, 26904, Note_on_c, 3, 68, 100
5, 26928, Note_off_c, 3, 68, 0
5, 26928, Note_on_c, 3, 68, 100
5, 26952, Note_off_c, 3, 68, 0
5, 26952, Note_on_c, 3, 68, 100
5, 26976, Note_off_c, 3, 68, 0
5, 26976, Note_on_c, 3, 67, 100
5, 27000, Note_off_c, 3, 67, 0
5, 27000, Note_on_c, 3, 67, 100
5, 27024, Note_off_c, 3, 67, 0
5, 27024, Note_on_c, 3, 67, 100
5, 27048, Note_off_c, 3, 67, 0
5, 27048, Note_on_c, 3, 67, 100
5, 27072, Note_off_c, 3, 67, 0
5, 27072, Note_on_c, 3, 68, 100
5, 27096, Note_off_c, 3, 68, 0
5, 27096, Note_on_c, 3, 68, 100
5, 27120, Note_off_c, 3, 68, 0
5, 27120, Note_on_c, 3, 68, 100
5, 27144, Note_off_c, 3, 68, 0
5, 27144, Note_on_c, 3, 68, 100
5, 27168, Note_off_c, 3, 68, 0
5, 27168, Note_on_c, 3, 72, 100
5, 27192, Note_off_c, 3, 72, 0
5, 27192, Note_on_c, 3, 72, 100
5, 27216, Note_off_c, 3, 72, 0
5, 27216, Note_on_c, 3, 72, 100
5, 27240, Note_off_c, 3, 72, 0
5, 27240, Note_on_c, 3, 72, 100
5, 27264, Note_off_c, 3, 72, 0
5, 27264, Note_on_c, 3, 74, 100
5, 27288, Note_off_c, 3, 74, 0
5, 27288, Note_on_c, 3, 74, 100
5, 27312, Note_off_c, 3, 74, 0
5, 27312, Note_on_c, 3, 74, 100
5, 27336, Note_off_c, 3, 74, 0
5, 27336, Note_on_c, 3, 74, 100
5, 27360, Note_off_c, 3, 74, 0
5, 27360, Note_on_c, 3, 75, 100
5, 27384, Note_off_c, 3, 75, 0
5, 27384, Note_on_c, 3, 75, 100
5, 27408, Note_off_c, 3, 75, 0
5, 27408, Note_on_c, 3, 75, 100
5, 27432, Note_off_c, 3, 75, 0
5, 27432, Note_on_c, 3, 75, 100
5, 27456, Note_off_c, 3, 75, 0
5, 27456, Note_on_c, 3, 74, 100
5, 27480, Note_off_c, 3, 74, 0
5, 27480, Note_on_c, 3, 74, 100
5, 27504, Note_off_c, 3, 74, 0
5, 27504, Note_on_c, 3, 74, 100
5, 27528, Note_off_c, 3, 74, 0
5, 27528, Note_on_c, 3, 74, 100
5, 27552, Note_off_c, 3, 74, 0
5, 27552, Note_on_c, 3, 68, 100
5, 27576, Note_off_c, 3, 68, 0
5, 27576, Note_on_c, 3, 68, 100
5, 27600, Note_off_c, 3, 68, 0
5, 27600, Note_on_c, 3, 68, 100
5, 27624, Note_off_c, 3, 68, 0
5, 27624, Note_on_c, 3, 68, 100
5, 27648, Note_off_c, 3, 68, 0
5, 27648, Note_on_c, 3, 67, 100
5, 27672, Note_off_c, 3, 67, 0
5, 27672, Note_on_c, 3, 67, 100
5, 27696, Note_off_c, 3, 67, 0
5, 27696, Note_on_c, 3, 67, 100
5, 27720, Note_off_c, 3, 67, 0
5, 27720, Note_on_c, 3, 67, 100
5, 27744, Note_off_c, 3, 67, 0
5, 27744, Note_on_c, 3, 66, 100
5, 27768, Note_off_c, 3, 66, 0
5, 27768, Note_on_c, 3, 66, 100
5, 27792, Note_off_c, 3, 66, 0
5, 27792, Note_on_c, 3, 66, 100
5, 27816, Note_off_c, 3, 66, 0
5, 27816, Note_on_c, 3, 66, 100
5, 27840, Note_off_c, 3, 66, 0
5, 27840, Note_on_c, 3, 67, 100
5, 27864, Note_off_c, 3, 67, 0
5, 27864, Note_on_c, 3, 67, 100
5, 27888, Note_off_c, 3, 67, 0
5, 27888, Note_on_c, 3, 67, 100
5, 27912, Note_off_c, 3, 67, 0
5, 27912, Note_on_c, 3, 67, 100
5, 27936, Note_off_c, 3, 67, 0
5, 27936, Note_on_c, 3, 71, 100
5, 27960, Note_off_c, 3, 71, 0
5, 27960, Note_on_c, 3, 71, 100
5, 27984, Note_off_c, 3, 71, 0
5, 27984, Note_on_c, 3, 71, 100
5, 28008, Note_off_c, 3, 71, 0
5, 28008, Note_on_c, 3, 71, 100
5, 28032, Note_off_c, 3, 71, 0
5, 28032, Note_on_c, 3, 74, 100
5, 28056, Note_off_c, 3, 74, 0
5, 28056, Note_on_c, 3, 74, 100
5, 28080, Note_off_c, 3, 74, 0
5, 28080, Note_on_c, 3, 74, 100
5, 28104, Note_off_c, 3, 74, 0
5, 28104, Note_on_c, 3, 74, 100
5, 28128, Note_off_c, 3, 74, 0
5, 28128, Note_on_c, 3, 71, 100
5, 28152, Note_off_c, 3, 71, 0
5, 28152, Note_on_c, 3, 71, 100
5, 28176, Note_off_c, 3, 71, 0
5, 28176, Note_on_c, 3, 71, 100
5, 28200, Note_off_c, 3, 71, 0
5, 28200, Note_on_c, 3, 71, 100
5, 28224, Note_off_c, 3, 71, 0
5, 28224, Note_on_c, 3, 67, 100
5, 28248, Note_off_c, 3, 67, 0
5, 28248, Note_on_c, 3, 67, 100
5, 28272, Note_off_c, 3, 67, 0
5, 28272, Note_on_c, 3, 67, 100
5, 28296, Note_off_c, 3, 67, 0
5, 28296, Note_on_c, 3, 67, 100
5, 28320, Note_off_c, 3, 67, 0
5, 28320, Note_on_c, 3, 71, 100
5, 28344, Note_off_c, 3, 71, 0
5, 28344, Note_on_c, 3, 71, 100
5, 28368, Note_off_c, 3, 71, 0
5, 28368, Note_on_c, 3, 71, 100
5, 28392, Note_off_c, 3, 71, 0
5, 28392, Note_on_c, 3, 71, 100
5, 28416, Note_off_c, 3, 71, 0
5, 28416, Note_on_c, 3, 72, 100
5, 28440, Note_off_c, 3, 72, 0
5, 28440, Note_on_c, 3, 72, 100
5, 28464, Note_off_c, 3, 72, 0
5, 28464, Note_on_c, 3, 72, 100
5, 28488, Note_off_c, 3, 72, 0
5, 28488, Note_on_c, 3, 72, 100
5, 28512, Note_off_c, 3, 72, 0
5, 28512, Note_on_c, 3, 72, 100
5, 28536, Note_off_c, 3, 72, 0
5, 28536, Note_on_c, 3, 72, 100
5, 28560, Note_off_c, 3, 72, 0
5, 28560, Note_on_c, 3, 72, 100
5, 28584, Note_off_c, 3, 72, 0
5, 28584, Note_on_c, 3, 72, 100
5, 28608, Note_off_c, 3, 72, 0
5, 28608, Note_on_c, 3, 74, 100
5, 28632, Note_off_c, 3, 74, 0
5, 28632, Note_on_c, 3, 74, 100
5, 28656, Note_off_c, 3, 74, 0
5, 28656, Note_on_c, 3, 74, 100
5, 28680, Note_off_c, 3, 74, 0
5, 28680, Note_on_c, 3, 74, 100
5, 28704, Note_off_c, 3, 74, 0
5, 28704, Note_on_c, 3, 75, 100
5, 28728, Note_off_c, 3, 75, 0
5, 28728, Note_on_c, 3, 75, 100
5, 28752, Note_off_c, 3, 75, 0
5, 28752, Note_on_c, 3, 75, 100
5, 28776, Note_off_c, 3, 75, 0
5, 28776, Note_on_c, 3, 75, 100
5, 28800, Note_off_c, 3, 75, 0
5, 28800, Note_on_c, 3, 79, 100
5, 28824, Note_off_c, 3, 79, 0
5, 28824, Note_on_c, 3, 79, 100
5, 28848, Note_off_c, 3, 79, 0
5, 28848, Note_on_c, 3, 79, 100
5, 28872, Note_off_c, 3, 79, 0
5, 28872, Note_on_c, 3, 79, 100
5, 28896, Note_off_c, 3, 79, 0
5, 28896, Note_on_c, 3, 75, 100
5, 28920, Note_off_c, 3, 75, 0
5, 28920, Note_on_c, 3, 75, 100
5, 28944, Note_off_c, 3, 75, 0
5, 28944, Note_on_c, 3, 75, 100
5, 28968, Note_off_c, 3, 75, 0
5, 28968, Note_on_c, 3, 75, 100
5, 28992, Note_off_c, 3, 75, 0
5, 28992, Note_on_c, 3, 74, 100
5, 29016, Note_off_c, 3, 74, 0
5, 29016, Note_on_c, 3, 74, 100
5, 29040, Note_off_c, 3, 74, 0
5, 29040, Note_on_c, 3, 74, 100
5, 29064, Note_off_c, 3, 74, 0
5, 29064, Note_on_c, 3, 74, 100
5, 29088, Note_off_c, 3, 74, 0
5, 29088, Note_on_c, 3, 74, 100
5, 29112, Note_off_c, 3, 74, 0
5, 29112, Note_on_c, 3, 74, 100
5, 29136, Note_off_c, 3, 74, 0
5, 29136, Note_on_c, 3, 74, 100
5, 29160, Note_off_c, 3, 74, 0
5, 29160, Note_on_c, 3, 74, 100
5, 29184, Note_off_c, 3, 74, 0
5, 29184, Note_on_c, 3, 75, 100
5, 29208, Note_off_c, 3, 75, 0
5, 29208, Note_on_c, 3, 75, 100
5, 29232, Note_off_c, 3, 75, 0
5, 29232, Note_on_c, 3, 75, 100
5, 29256, Note_off_c, 3, 75, 0
5, 29256, Note_on_c, 3, 75, 100
5, 29280, Note_off_c, 3, 75, 0
5, 29280, Note_on_c, 3, 75, 100
5, 29304, Note_off_c, 3, 75, 0
5, 29304, Note_on_c, 3, 75, 100
5, 29328, Note_off_c, 3, 75, 0
5, 29328, Note_on_c, 3, 75, 100
5, 29352, Note_off_c, 3, 75, 0
5, 29352, Note_on_c, 3, 75, 100
5, 29376, Note_off_c, 3, 75, 0
5, 29376, Note_on_c, 3, 77, 100
5, 29400, Note_off_c, 3, 77, 0
5, 29400, Note_on_c, 3, 77, 100
5, 29424, Note_off_c, 3, 77, 0
5, 29424, Note_on_c, 3, 77, 100
5, 29448, Note_off_c, 3, 77, 0
5, 29448, Note_on_c, 3, 77, 100
5, 29472, Note_off_c, 3, 77, 0
5, 29472, Note_on_c, 3, 77, 100
5, 29496, Note_off_c, 3, 77, 0
5, 29496, Note_on_c, 3, 77, 100
5, 29520, Note_off_c, 3, 77, 0
5, 29520, Note_on_c, 3, 75, 100
5, 29544, Note_off_c, 3, 75, 0
5, 29544, Note_on_c, 3, 75, 100
5, 29568, Note_off_c, 3, 75, 0
5, 29568, Note_on_c, 3, 74, 100
5, 29592, Note_off_c, 3, 74, 0
5, 29592, Note_on_c, 3, 74, 100
5, 29616, Note_off_c, 3, 74, 0
5, 29616, Note_on_c, 3, 74, 100
5, 29640, Note_off_c, 3, 74, 0
5, 29640, Note_on_c, 3, 74, 100
5, 29664, Note_off_c, 3, 74, 0
5, 29664, Note_on_c, 3, 74, 100
5, 29688, Note_off_c, 3, 74, 0
5, 29688, Note_on_c, 3, 74, 100
5, 29712, Note_off_c, 3, 74, 0
5, 29712, Note_on_c, 3, 74, 100
5, 29736, Note_off_c, 3, 74, 0
5, 29736, Note_on_c, 3, 74, 100
5, 29760, Note_off_c, 3, 74, 0
5, 29760, Note_on_c, 3, 71, 100
5, 29784, Note_off_c, 3, 71, 0
5, 29784, Note_on_c, 3, 71, 100
5, 29808, Note_off_c, 3, 71, 0
5, 29808, Note_on_c, 3, 71, 100
5, 29832, Note_off_c, 3, 71, 0
5, 29832, Note_on_c, 3, 71, 100
5, 29856, Note_off_c, 3, 71, 0
5, 29856, Note_on_c, 3, 71, 100
5, 29880, Note_off_c, 3, 71, 0
5, 29880, Note_on_c, 3, 71, 100
5, 29904, Note_off_c, 3, 71, 0
5, 29904, Note_on_c, 3, 71, 100
5, 29928, Note_off_c, 3, 71, 0
5, 29928, Note_on_c, 3, 71, 100
5, 29952, Note_off_c, 3, 71, 0
5, 29952, Note_on_c, 3, 68, 100
5, 29976, Note_off_c, 3, 68, 0
5, 29976, Note_on_c, 3, 68, 100
5, 30000, Note_off_c, 3, 68, 0
5, 30000, Note_on_c, 3, 68, 100
5, 30024, Note_off_c, 3, 68, 0
5, 30024, Note_on_c, 3, 68, 100
5, 30048, Note_off_c, 3, 68, 0
5, 30048, Note_on_c, 3, 67, 100
5, 30072, Note_off_c, 3, 67, 0
5, 30072, Note_on_c, 3, 67, 100
5, 30096, Note_off_c, 3, 67, 0
5, 30096, Note_on_c, 3, 67, 100
5, 30120, Note_off_c, 3, 67, 0
5, 30120, Note_on_c, 3, 67, 100
5, 30144, Note_off_c, 3, 67, 0
5, 30144, Note_on_c, 3, 68, 100
5, 30168, Note_off_c, 3, 68, 0
5, 30168, Note_on_c, 3, 68, 100
5, 30192, Note_off_c, 3, 68, 0
5, 30192, Note_on_c, 3, 68, 100
5, 30216, Note_off_c, 3, 68, 0
5, 30216, Note_on_c, 3, 68, 100
5, 30240, Note_off_c, 3, 68, 0
5, 30240, Note_on_c, 3, 72, 100
5, 30264, Note_off_c, 3, 72, 0
5, 30264, Note_on_c, 3, 72, 100
5, 30288, Note_off_c, 3, 72, 0
5, 30288, Note_on_c, 3, 72, 100
5, 30312, Note_off_c, 3, 72, 0
5, 30312, Note_on_c, 3, 72, 100
5, 30336, Note_off_c, 3, 72, 0
5, 30336, Note_on_c, 3, 74, 100
5, 30360, Note_off_c, 3, 74, 0
5, 30360, Note_on_c, 3, 74, 100
5, 30384, Note_off_c, 3, 74, 0
5, 30384, Note_on_c, 3, 74, 100
5, 30408, Note_off_c, 3, 74, 0
5, 30408, Note_on_c, 3, 74, 100
5, 30432, Note_off_c, 3, 74, 0
5, 30432, Note_on_c, 3, 75, 100
5, 30456, Note_off_c, 3, 75, 0
5, 30456, Note_on_c, 3, 75, 100
5, 30480, Note_off_c, 3, 75, 0
5, 30480, Note_on_c, 3, 75, 100
5, 30504, Note_off_c, 3, 75, 0
5, 30504, Note_on_c, 3, 75, 100
5, 30528, Note_off_c, 3, 75, 0
5, 30528, Note_on_c, 3, 74, 100
5, 30552, Note_off_c, 3, 74, 0
5, 30552, Note_on_c, 3, 74, 100
5, 30576, Note_off_c, 3, 74, 0
5, 30576, Note_on_c, 3, 74, 100
5, 30600, Note_off_c, 3, 74, 0
5, 30600, Note_on_c, 3, 74, 100
5, 30624, Note_off_c, 3, 74, 0
5, 30624, Note_on_c, 3, 68, 100
5, 30648, Note_off_c, 3, 68, 0
5, 30648, Note_on_c, 3, 68, 100
5, 30672, Note_off_c, 3, 68, 0
5, 30672, Note_on_c, 3, 68, 100
5, 30696, Note_off_c, 3, 68, 0
5, 30696, Note_on_c, 3, 68, 100
5, 30720, Note_off_c, 3, 68, 0
5, 30720, Note_on_c, 3, 67, 100
5, 30744, Note_off_c, 3, 67, 0
5, 30744, Note_on_c, 3, 67, 100
5, 30768, Note_off_c, 3, 67, 0
5, 30768, Note_on_c, 3, 67, 100
5, 30792, Note_off_c, 3, 67, 0
5, 30792, Note_on_c, 3, 67, 100
5, 30816, Note_off_c, 3, 67, 0
5, 30816, Note_on_c, 3, 66, 100
5, 30840, Note_off_c, 3, 66, 0
5, 30840, Note_on_c, 3, 66, 100
5, 30864, Note_off_c, 3, 66, 0
5, 30864, Note_on_c, 3, 66, 100
5, 30888, Note_off_c, 3, 66, 0
5, 30888, Note_on_c, 3, 66, 100
5, 30912, Note_off_c, 3, 66, 0
5, 30912, Note_on_c, 3, 67, 100
5, 30936, Note_off_c, 3, 67, 0
5, 30936, Note_on_c, 3, 67, 100
5, 30960, Note_off_c, 3, 67, 0
5, 30960, Note_on_c, 3, 67, 100
5, 30984, Note_off_c, 3, 67, 0
5, 30984, Note_on_c, 3, 67, 100
5, 31008, Note_off_c, 3, 67, 0
5, 31008, Note_on_c, 3, 71, 100
5, 31032, Note_off_c, 3, 71, 0
5, 31032, Note_on_c, 3, 71, 100
5, 31056, Note_off_c, 3, 71, 0
5, 31056, Note_on_c, 3, 71, 100
5, 31080, Note_off_c, 3, 71, 0
5, 31080, Note_on_c, 3, 71, 100
5, 31104, Note_off_c, 3, 71, 0
5, 31104, Note_on_c, 3, 74, 100
5, 31128, Note_off_c, 3, 74, 0
5, 31128, Note_on_c, 3, 74, 100
5, 31152, Note_off_c, 3, 74, 0
5, 31152, Note_on_c, 3, 74, 100
5, 31176, Note_off_c, 3, 74, 0
5, 31176, Note_on_c, 3, 74, 100
5, 31200, Note_off_c, 3, 74, 0
5, 31200, Note_on_c, 3, 71, 100
5, 31224, Note_off_c, 3, 71, 0
5, 31224, Note_on_c, 3, 71, 100
5, 31248, Note_off_c, 3, 71, 0
5, 31248, Note_on_c, 3, 71, 100
5, 31272, Note_off_c, 3, 71, 0
5, 31272, Note_on_c, 3, 71, 100
5, 31296, Note_off_c, 3, 71, 0
5, 31296, Note_on_c, 3, 67, 100
5, 31320, Note_off_c, 3, 67, 0
5, 31320, Note_on_c, 3, 67, 100
5, 31344, Note_off_c, 3, 67, 0
5, 31344, Note_on_c, 3, 67, 100
5, 31368, Note_off_c, 3, 67, 0
5, 31368, Note_on_c, 3, 67, 100
5, 31392, Note_off_c, 3, 67, 0
5, 31392, Note_on_c, 3, 71, 100
5, 31416, Note_off_c, 3, 71, 0
5, 31416, Note_on_c, 3, 71, 100
5, 31440, Note_off_c, 3, 71, 0
5, 31440, Note_on_c, 3, 71, 100
5, 31464, Note_off_c, 3, 71, 0
5, 31464, Note_on_c, 3, 71, 100
5, 31488, Note_off_c, 3, 71, 0
5, 56064, Note_on_c, 3, 72, 100
5, 56088, Note_off_c, 3, 72, 0
5, 56088, Note_on_c, 3, 72, 100
5, 56112, Note_off_c, 3, 72, 0
5, 56112, Note_on_c, 3, 72, 100
5, 56136, Note_off_c, 3, 72, 0
5, 56136, Note_on_c, 3, 72, 100
5, 56160, Note_off_c, 3, 72, 0
5, 56160, Note_on_c, 3, 72, 100
5, 56184, Note_off_c, 3, 72, 0
5, 56184, Note_on_c, 3, 72, 100
5, 56208, Note_off_c, 3, 72, 0
5, 56208, Note_on_c, 3, 72, 100
5, 56232, Note_off_c, 3, 72, 0
5, 56232, Note_on_c, 3, 72, 100
5, 56256, Note_off_c, 3, 72, 0
5, 56256, Note_on_c, 3, 74, 100
5, 56280, Note_off_c, 3, 74, 0
5, 56280, Note_on_c, 3, 74, 100
5, 56304, Note_off_c, 3, 74, 0
5, 56304, Note_on_c, 3, 74, 100
5, 56328, Note_off_c, 3, 74, 0
5, 56328, Note_on_c, 3, 74, 100
5, 56352, Note_off_c, 3, 74, 0
5, 56352, Note_on_c, 3, 75, 100
5, 56376, Note_off_c, 3, 75, 0
5, 56376, Note_on_c, 3, 75, 100
5, 56400, Note_off_c, 3, 75, 0
5, 56400, Note_on_c, 3, 75, 100
5, 56424, Note_off_c, 3, 75, 0
5, 56424, Note_on_c, 3, 75, 100
5, 56448, Note_off_c, 3, 75, 0
5, 56448, Note_on_c, 3, 79, 100
5, 56472, Note_off_c, 3, 79, 0
5, 56472, Note_on_c, 3, 79, 100
5, 56496, Note_off_c, 3, 79, 0
5, 56496, Note_on_c, 3, 79, 100
5, 56520, Note_off_c, 3, 79, 0
5, 56520, Note_on_c, 3, 79, 100
5, 56544, Note_off_c, 3, 79, 0
5, 56544, Note_on_c, 3, 75, 100
5, 56568, Note_off_c, 3, 75, 0
5, 56568, Note_on_c, 3, 75, 100
5, 56592, Note_off_c, 3, 75, 0
5, 56592, Note_on_c, 3, 75, 100
5, 56616, Note_off_c, 3, 75, 0
5, 56616, Note_on_c, 3, 75, 100
5, 56640, Note_off_c, 3, 75, 0
5, 56640, Note_on_c, 3, 74, 100
5, 56664, Note_off_c, 3, 74, 0
5, 56664, Note_on_c, 3, 74, 100
5, 56688, Note_off_c, 3, 74, 0
5, 56688, Note_on_c, 3, 74, 100
5, 56712, Note_off_c, 3, 74, 0
5, 56712, Note_on_c, 3, 74, 100
5, 56736, Note_off_c, 3, 74, 0
5, 56736, Note_on_c, 3, 74, 100
5, 56760, Note_off_c, 3, 74, 0
5, 56760, Note_on_c, 3, 74, 100
5, 56784, Note_off_c, 3, 74, 0
5, 56784, Note_on_c, 3, 74, 100
5, 56808, Note_off_c, 3, 74, 0
5, 56808, Note_on_c, 3, 74, 100
5, 56832, Note_off_c, 3, 74, 0
5, 56832, Note_on_c, 3, 75, 100
5, 56856, Note_off_c, 3, 75, 0
5, 56856, Note_on_c, 3, 75, 100
5, 56880, Note_off_c, 3, 75, 0
5, 56880, Note_on_c, 3, 75, 100
5, 56904, Note_off_c, 3, 75, 0
5, 56904, Note_on_c, 3, 75, 100
5, 56928, Note_off_c, 3, 75, 0
5, 56928, Note_on_c, 3, 75, 100
5, 56952, Note_off_c, 3, 75, 0
5, 56952, Note_on_c, 3, 75, 100
5, 56976, Note_off_c, 3, 75, 0
5, 56976, Note_on_c, 3, 75, 100
5, 57000, Note_off_c, 3, 75, 0
5, 57000, Note_on_c, 3, 75, 100
5, 57024, Note_off_c, 3, 75, 0
5, 57024, Note_on_c, 3, 77, 100
5, 57048, Note_off_c, 3, 77, 0
5, 57048, Note_on_c, 3, 77, 100
5, 57072, Note_off_c, 3, 77, 0
5, 57072, Note_on_c, 3, 77, 100
5, 57096, Note_off_c, 3, 77, 0
5, 57096, Note_on_c, 3, 77, 100
5, 57120, Note_off_c, 3, 77, 0
5, 57120, Note_on_c, 3, 77, 100
5, 57144, Note_off_c, 3, 77, 0
5, 57144, Note_on_c, 3, 77, 100
5, 57168, Note_off_c, 3, 77, 0
5, 57168, Note_on_c, 3, 75, 100
5, 57192, Note_off_c, 3, 75, 0
5, 57192, Note_on_c, 3, 75, 100
5, 57216, Note_off_c, 3, 75, 0
5, 57216, Note_on_c, 3, 74, 100
5, 57240, Note_off_c, 3, 74, 0
5, 57240, Note_on_c, 3, 74, 100
5, 57264, Note_off_c, 3, 74, 0
5, 57264, Note_on_c, 3, 74, 100
5, 57288, Note_off_c, 3, 74, 0
5, 57288, Note_on_c, 3, 74, 100
5, 57312, Note_off_c, 3, 74, 0
5, 57312, Note_on_c, 3, 74, 100
5, 57336, Note_off_c, 3, 74, 0
5, 57336, Note_on_c, 3, 74, 100
5, 57360, Note_off_c, 3, 74, 0
5, 57360, Note_on_c, 3, 74, 100
5, 57384, Note_off_c, 3, 74, 0
5, 57384, Note_on_c, 3, 74, 100
5, 57408, Note_off_c, 3, 74, 0
5, 57408, Note_on_c, 3, 71, 100
5, 57432, Note_off_c, 3, 71, 0
5, 57432, Note_on_c, 3, 71, 100
5, 57456, Note_off_c, 3, 71, 0
5, 57456, Note_on_c, 3, 71, 100
5, 57480, Note_off_c, 3, 71, 0
5, 57480, Note_on_c, 3, 71, 100
5, 57504, Note_off_c, 3, 71, 0
5, 57504, Note_on_c, 3, 71, 100
5, 57528, Note_off_c, 3, 71, 0
5, 57528, Note_on_c, 3, 71, 100
5, 57552, Note_off_c, 3, 71, 0
5, 57552, Note_on_c, 3, 71, 100
5, 57576, Note_off_c, 3, 71, 0
5, 57576, Note_on_c, 3, 71, 100
5, 57600, Note_off_c, 3, 71, 0
5, 57600, Note_on_c, 3, 68, 100
5, 57624, Note_off_c, 3, 68, 0
5, 57624, Note_on_c, 3, 68, 100
5, 57648, Note_off_c, 3, 68, 0
5, 57648, Note_on_c, 3, 68, 100
5, 57672, Note_off_c, 3, 68, 0
5, 57672, Note_on_c, 3, 68, 100
5, 57696, Note_off_c, 3, 68, 0
5, 57696, Note_on_c, 3, 67, 100
5, 57720, Note_off_c, 3, 67, 0
5, 57720, Note_on_c, 3, 67, 100
5, 57744, Note_off_c, 3, 67, 0
5, 57744, Note_on_c, 3, 67, 100
5, 57768, Note_off_c, 3, 67, 0
5, 57768, Note_on_c, 3, 67, 100
5, 57792, Note_off_c, 3, 67, 0
5, 57792, Note_on_c, 3, 68, 100
5, 57816, Note_off_c, 3, 68, 0
5, 57816, Note_on_c, 3, 68, 100
5, 57840, Note_off_c, 3, 68, 0
5, 57840, Note_on_c, 3, 68, 100
5, 57864, Note_off_c, 3, 68, 0
5, 57864, Note_on_c, 3, 68, 100
5, 57888, Note_off_c, 3, 68, 0
5, 57888, Note_on_c, 3, 72, 100
5, 57912, Note_off_c, 3, 72, 0
5, 57912, Note_on_c, 3, 72, 100
5, 57936, Note_off_c, 3, 72, 0
5, 57936, Note_on_c, 3, 72, 100
5, 57960, Note_off_c, 3, 72, 0
5, 57960, Note_on_c, 3, 72, 100
5, 57984, Note_off_c, 3, 72, 0
5, 57984, Note_on_c, 3, 74, 100
5, 58008, Note_off_c, 3, 74, 0
5, 58008, Note_on_c, 3, 74, 100
5, 58032, Note_off_c, 3, 74, 0
5, 58032, Note_on_c, 3, 74, 100
5, 58056, Note_off_c, 3, 74, 0
5, 58056, Note_on_c, 3, 74, 100
5, 58080, Note_off_c, 3, 74, 0
5, 58080, Note_on_c, 3, 75, 100
5, 58104, Note_off_c, 3, 75, 0
5, 58104, Note_on_c, 3, 75, 100
5, 58128, Note_off_c, 3, 75, 0
5, 58128, Note_on_c, 3, 75, 100
5, 58152, Note_off_c, 3, 75, 0
5, 58152, Note_on_c, 3, 75, 100
5, 58176, Note_off_c, 3, 75, 0
5, 58176, Note_on_c, 3, 74, 100
5, 58200, Note_off_c, 3, 74, 0
5, 58200, Note_on_c, 3, 74, 100
5, 58224, Note_off_c, 3, 74, 0
5, 58224, Note_on_c, 3, 74, 100
5, 58248, Note_off_c, 3, 74, 0
5, 58248, Note_on_c, 3, 74, 100
5, 58272, Note_off_c, 3, 74, 0
5, 58272, Note_on_c, 3, 68, 100
5, 58296, Note_off_c, 3, 68, 0
5, 58296, Note_on_c, 3, 68, 100
5, 58320, Note_off_c, 3, 68, 0
5, 58320, Note_on_c, 3, 68, 100
5, 58344, Note_off_c, 3, 68, 0
5, 58344, Note_on_c, 3, 68, 100
5, 58368, Note_off_c, 3, 68, 0
5, 58368, Note_on_c, 3, 67, 100
5, 58392, Note_off_c, 3, 67, 0
5, 58392, Note_on_c, 3, 67, 100
5, 58416, Note_off_c, 3, 67, 0
5, 58416, Note_on_c, 3, 67, 100
5, 58440, Note_off_c, 3, 67, 0
5, 58440, Note_on_c, 3, 67, 100
5, 58464, Note_off_c, 3, 67, 0
5, 58464, Note_on_c, 3, 66, 100
5, 58488, Note_off_c, 3, 66, 0
5, 58488, Note_on_c, 3, 66, 100
5, 58512, Note_off_c, 3, 66, 0
5, 58512, Note_on_c, 3, 66, 100
5, 58536, Note_off_c, 3, 66, 0
5, 58536, Note_on_c, 3, 66, 100
5, 58560, Note_off_c, 3, 66, 0
5, 58560, Note_on_c, 3, 67, 100
5, 58584, Note_off_c, 3, 67, 0
5, 58584, Note_on_c, 3, 67, 100
5, 58608, Note_off_c, 3, 67, 0
5, 58608, Note_on_c, 3, 67, 100
5, 58632, Note_off_c, 3, 67, 0
5, 58632, Note_on_c, 3, 67, 100
5, 58656, Note_off_c, 3, 67, 0
5, 58656, Note_on_c, 3, 71, 100
5, 58680, Note_off_c, 3, 71, 0
5, 58680, Note_on_c, 3, 71, 100
5, 58704, Note_off_c, 3, 71, 0
5, 58704, Note_on_c, 3, 71, 100
5, 58728, Note_off_c, 3, 71, 0
5, 58728, Note_on_c, 3, 71, 100
5, 58752, Note_off_c, 3, 71, 0
5, 58752, Note_on_c, 3, 74, 100
5, 58776, Note_off_c, 3, 74, 0
5, 58776, Note_on_c, 3, 74, 100
5, 58800, Note_off_c, 3, 74, 0
5, 58800, Note_on_c, 3, 74, 100
5, 58824, Note_off_c, 3, 74, 0
5, 58824, Note_on_c, 3, 74, 100
5, 58848, Note_off_c, 3, 74, 0
5, 58848, Note_on_c, 3, 71, 100
5, 58872, Note_off_c, 3, 71, 0
5, 58872, Note_on_c, 3, 71, 100
5, 58896, Note_off_c, 3, 71, 0
5, 58896, Note_on_c, 3, 71, 100
5, 58920, Note_off_c, 3, 71, 0
5, 58920, Note_on_c, 3, 71, 100
5, 58944, Note_off_c, 3, 71, 0
5, 58944, Note_on_c, 3, 67, 100
5, 58968, Note_off_c, 3, 67, 0
5, 58968, Note_on_c, 3, 67, 100
5, 58992, Note_off_c, 3, 67, 0
5, 58992, Note_on_c, 3, 67, 100
5, 59016, Note_off_c, 3, 67, 0
5, 59016, Note_on_c, 3, 67, 100
5, 59040, Note_off_c, 3, 67, 0
5, 59040, Note_on_c, 3, 71, 100
5, 59064, Note_off_c, 3, 71, 0
5, 59064, Note_on_c, 3, 71, 100
5, 59088, Note_off_c, 3, 71, 0
5, 59088, Note_on_c, 3, 71, 100
5, 59112, Note_off_c, 3, 71, 0
5, 59112, Note_on_c, 3, 71, 100
5, 59136, Note_off_c, 3, 71, 0
5, 59136, Note_on_c, 3, 72, 100
5, 59160, Note_off_c, 3, 72, 0
5, 59160, Note_on_c, 3, 72, 100
5, 59184, Note_off_c, 3, 72, 0
5, 59184, Note_on_c, 3, 72, 100
5, 59208, Note_off_c, 3, 72, 0
5, 59208, Note_on_c, 3, 72, 100
5, 59232, Note_off_c, 3, 72, 0
5, 59232, Note_on_c, 3, 72, 100
5, 59256, Note_off_c, 3, 72, 0
5, 59256, Note_on_c, 3, 72, 100
5, 59280, Note_off_c, 3, 72, 0
5, 59280, Note_on_c, 3, 72, 100
5, 59304, Note_off_c, 3, 72, 0
5, 59304, Note_on_c, 3, 72, 100
5, 59328, Note_off_c, 3, 72, 0
5, 59328, Note_on_c, 3, 74, 100
5, 59352, Note_off_c, 3, 74, 0
5, 59352, Note_on_c, 3, 74, 100
5, 59376, Note_off_c, 3, 74, 0
5, 59376, Note_on_c, 3, 74, 100
5, 59400, Note_off_c, 3, 74, 0
5, 59400, Note_on_c, 3, 74, 100
5, 59424, Note_off_c, 3, 74, 0
5, 59424, Note_on_c, 3, 75, 100
5, 59448, Note_off_c, 3, 75, 0
5, 59448, Note_on_c, 3, 75, 100
5, 59472, Note_off_c, 3, 75, 0
5, 59472, Note_on_c, 3, 75, 100
5, 59496, Note_off_c, 3, 75, 0
5, 59496, Note_on_c, 3, 75, 100
5, 59520, Note_off_c, 3, 75, 0
5, 59520, Note_on_c, 3, 79, 100
5, 59544, Note_off_c, 3, 79, 0
5, 59544, Note_on_c, 3, 79, 100
5, 59568, Note_off_c, 3, 79, 0
5, 59568, Note_on_c, 3, 79, 100
5, 59592, Note_off_c, 3, 79, 0
5, 59592, Note_on_c, 3, 79, 100
5, 59616, Note_off_c, 3, 79, 0
5, 59616, Note_on_c, 3, 75, 100
5, 59640, Note_off_c, 3, 75, 0
5, 59640, Note_on_c, 3, 75, 100
5, 59664, Note_off_c, 3, 75, 0
5, 59664, Note_on_c, 3, 75, 100
5, 59688, Note_off_c, 3, 75, 0
5, 59688, Note_on_c, 3, 75, 100
5, 59712, Note_off_c, 3, 75, 0
5, 59712, Note_on_c, 3, 74, 100
5, 59736, Note_off_c, 3, 74, 0
5, 59736, Note_on_c, 3, 74, 100
5, 59760, Note_off_c, 3, 74, 0
5, 59760, Note_on_c, 3, 74, 100
5, 59784, Note_off_c, 3, 74, 0
5, 59784, Note_on_c, 3, 74, 100
5, 59808, Note_off_c, 3, 74, 0
5, 59808, Note_on_c, 3, 74, 100
5, 59832, Note_off_c, 3, 74, 0
5, 59832, Note_on_c, 3, 74, 100
5, 59856, Note_off_c, 3, 74, 0
5, 59856, Note_on_c, 3, 74, 100
5, 59880, Note_off_c, 3, 74, 0
5, 59880, Note_on_c, 3, 74, 100
5, 59904, Note_off_c, 3, 74, 0
5, 59904, Note_on_c, 3, 75, 100
5, 59928, Note_off_c, 3, 75, 0
5, 59928, Note_on_c, 3, 75, 100
5, 59952, Note_off_c, 3, 75, 0
5, 59952, Note_on_c, 3, 75, 100
5, 59976, Note_off_c, 3, 75, 0
5, 59976, Note_on_c, 3, 75, 100
5, 60000, Note_off_c, 3, 75, 0
5, 60000, Note_on_c, 3, 75, 100
5, 60024, Note_off_c, 3, 75, 0
5, 60024, Note_on_c, 3, 75, 100
5, 60048, Note_off_c, 3, 75, 0
5, 60048, Note_on_c, 3, 75, 100
5, 60072, Note_off_c, 3, 75, 0
5, 60072, Note_on_c, 3, 75, 100
5, 60096, Note_off_c, 3, 75, 0
5, 60096, Note_on_c, 3, 77, 100
5, 60120, Note_off_c, 3, 77, 0
5, 60120, Note_on_c, 3, 77, 100
5, 60144, Note_off_c, 3, 77, 0
5, 60144, Note_on_c, 3, 77, 100
5, 60168, Note_off_c, 3, 77, 0
5, 60168, Note_on_c, 3, 77, 100
5, 60192, Note_off_c, 3, 77, 0
5, 60192, Note_on_c, 3, 77, 100
5, 60216, Note_off_c, 3, 77, 0
5, 60216, Note_on_c, 3, 77, 100
5, 60240, Note_off_c, 3, 77, 0
5, 60240, Note_on_c, 3, 75, 100
5, 60264, Note_off_c, 3, 75, 0
5, 60264, Note_on_c, 3, 75, 100
5, 60288, Note_off_c, 3, 75, 0
5, 60288, Note_on_c, 3, 74, 100
5, 60312, Note_off_c, 3, 74, 0
5, 60312, Note_on_c, 3, 74, 100
5, 60336, Note_off_c, 3, 74, 0
5, 60336, Note_on_c, 3, 74, 100
5, 60360, Note_off_c, 3, 74, 0
5, 60360, Note_on_c, 3, 74, 100
5, 60384, Note_off_c, 3, 74, 0
5, 60384, Note_on_c, 3, 74, 100
5, 60408, Note_off_c, 3, 74, 0
5, 60408, Note_on_c, 3, 74, 100
5, 60432, Note_off_c, 3, 74, 0
5, 60432, Note_on_c, 3, 74, 100
5, 60456, Note_off_c, 3, 74, 0
5, 60456, Note_on_c, 3, 74, 100
5, 60480, Note_off_c, 3, 74, 0
5, 60480, Note_on_c, 3, 71, 100
5, 60504, Note_off_c, 3, 71, 0
5, 60504, Note_on_c, 3, 71, 100
5, 60528, Note_off_c, 3, 71, 0
5, 60528, Note_on_c, 3, 71, 100
5, 60552, Note_off_c, 3, 71, 0
5, 60552, Note_on_c, 3, 71, 100
5, 60576, Note_off_c, 3, 71, 0
5, 60576, Note_on_c, 3, 71, 100
5, 60600, Note_off_c, 3, 71, 0
5, 60600, Note_on_c, 3, 71, 100
5, 60624, Note_off_c, 3, 71, 0
5, 60624, Note_on_c, 3, 71, 100
5, 60648, Note_off_c, 3, 71, 0
5, 60648, Note_on_c, 3, 71, 100
5, 60672, Note_off_c, 3, 71, 0
5, 60672, Note_on_c, 3, 68, 100
5, 60696, Note_off_c, 3, 68, 0
5, 60696, Note_on_c, 3, 68, 100
5, 60720, Note_off_c, 3, 68, 0
5, 60720, Note_on_c, 3, 68, 100
5, 60744, Note_off_c, 3, 68, 0
5, 60744, Note_on_c, 3, 68, 100
5, 60768, Note_off_c, 3, 68, 0
5, 60768, Note_on_c, 3, 67, 100
5, 60792, Note_off_c, 3, 67, 0
5, 60792, Note_on_c, 3, 67, 100
5, 60816, Note_off_c, 3, 67, 0
5, 60816, Note_on_c, 3, 67, 100
5, 60840, Note_off_c, 3, 67, 0
5, 60840, Note_on_c, 3, 67, 100
5, 60864, Note_off_c, 3, 67, 0
5, 60864, Note_on_c, 3, 68, 100
5, 60888, Note_off_c, 3, 68, 0
5, 60888, Note_on_c, 3, 68, 100
5, 60912, Note_off_c, 3, 68, 0
5, 60912, Note_on_c, 3, 68, 100
5, 60936, Note_off_c, 3, 68, 0
5, 60936, Note_on_c, 3, 68, 100
5, 60960, Note_off_c, 3, 68, 0
5, 60960, Note_on_c, 3, 72, 100
5, 60984, Note_off_c, 3, 72, 0
5, 60984, Note_on_c, 3, 72, 100
5, 61008, Note_off_c, 3, 72, 0
5, 61008, Note_on_c, 3, 72, 100
5, 61032, Note_off_c, 3, 72, 0
5, 61032, Note_on_c, 3, 72, 100
5, 61056, Note_off_c, 3, 72, 0
5, 61056, Note_on_c, 3, 74, 100
5, 61080, Note_off_c, 3, 74, 0
5, 61080, Note_on_c, 3, 74, 100
5, 61104, Note_off_c, 3, 74, 0
5, 61104, Note_on_c, 3, 74, 100
5, 61128, Note_off_c, 3, 74, 0
5, 61128, Note_on_c, 3, 74, 100
5, 61152, Note_off_c, 3, 74, 0
5, 61152, Note_on_c, 3, 75, 100
5, 61176, Note_off_c, 3, 75, 0
5, 61176, Note_on_c, 3, 75, 100
5, 61200, Note_off_c, 3, 75, 0
5, 61200, Note_on_c, 3, 75, 100
5, 61224, Note_off_c, 3, 75, 0
5, 61224, Note_on_c, 3, 75, 100
5, 61248, Note_off_c, 3, 75, 0
5, 61248, Note_on_c, 3, 74, 100
5, 61272, Note_off_c, 3, 74, 0
5, 61272, Note_on_c, 3, 74, 100
5, 61296, Note_off_c, 3, 74, 0
5, 61296, Note_on_c, 3, 74, 100
5, 61320, Note_off_c, 3, 74, 0
5, 61320, Note_on_c, 3, 74, 100
5, 61344, Note_off_c, 3, 74, 0
5, 61344, Note_on_c, 3, 68, 100
5, 61368, Note_off_c, 3, 68, 0
5, 61368, Note_on_c, 3, 68, 100
5, 61392, Note_off_c, 3, 68, 0
5, 61392, Note_on_c, 3, 68, 100
5, 61416, Note_off_c, 3, 68, 0
5, 61416, Note_on_c, 3, 68, 100
5, 61440, Note_off_c, 3, 68, 0
5, 61440, Note_on_c, 3, 67, 100
5, 61464, Note_off_c, 3, 67, 0
5, 61464, Note_on_c, 3, 67, 100
5, 61488, Note_off_c, 3, 67, 0
5, 61488, Note_on_c, 3, 67, 100
5, 61512, Note_off_c, 3, 67, 0
5, 61512, Note_on_c, 3, 67, 100
5, 61536, Note_off_c, 3, 67, 0
5, 61536, Note_on_c, 3, 66, 100
5, 61560, Note_off_c, 3, 66, 0
5, 61560, Note_on_c, 3, 66, 100
5, 61584, Note_off_c, 3, 66, 0
5, 61584, Note_on_c, 3, 66, 100
5, 61608, Note_off_c, 3, 66, 0
5, 61608, Note_on_c, 3, 66, 100
5, 61632, Note_off_c, 3, 66, 0
5, 61632, Note_on_c, 3, 67, 100
5, 61656, Note_off_c, 3, 67, 0
5, 61656, Note_on_c, 3, 67, 100
5, 61680, Note_off_c, 3, 67, 0
5, 61680, Note_on_c, 3, 67, 100
5, 61704, Note_off_c, 3, 67, 0
5, 61704, Note_on_c, 3, 67, 100
5, 61728, Note_off_c, 3, 67, 0
5, 61728, Note_on_c, 3, 71, 100
5, 61752, Note_off_c, 3, 71, 0
5, 61752, Note_on_c, 3, 71, 100
5, 61776, Note_off_c, 3, 71, 0
5, 61776, Note_on_c, 3, 71, 100
5, 61800, Note_off_c, 3, 71, 0
5, 61800, Note_on_c, 3, 71, 100
5, 61824, Note_off_c, 3, 71, 0
5, 61824, Note_on_c, 3, 74, 100
5, 61848, Note_off_c, 3, 74, 0
5, 61848, Note_on_c, 3, 74, 100
5, 61872, Note_off_c, 3, 74, 0
5, 61872, Note_on_c, 3, 74, 100
5, 61896, Note_off_c, 3, 74, 0
5, 61896, Note_on_c, 3, 74, 100
5, 61920, Note_off_c, 3, 74, 0
5, 61920, Note_on_c, 3, 71, 100
5, 61944, Note_off_c, 3, 71, 0
5, 61944, Note_on_c, 3, 71, 100
5, 61968, Note_off_c, 3, 71, 0
5, 61968, Note_on_c, 3, 71, 100
5, 61992, Note_off_c, 3, 71, 0
5, 61992, Note_on_c, 3, 71, 100
5, 62016, Note_off_c, 3, 71, 0
5, 62016, Note_on_c, 3, 67, 100
5, 62040, Note_off_c, 3, 67, 0
5, 62040, Note_on_c, 3, 67, 100
5, 62064, Note_off_c, 3, 67, 0
5, 62064, Note_on_c, 3, 67, 100
5, 62088, Note_off_c, 3, 67, 0
5, 62088, Note_on_c, 3, 67, 100
5, 62112, Note_off_c, 3, 67, 0
5, 62112, Note_on_c, 3, 71, 100
5, 62136, Note_off_c, 3, 71, 0
5, 62136, Note_on_c, 3, 71, 100
5, 62160, Note_off_c, 3, 71, 0
5, 62160, Note_on_c, 3, 71, 100
5, 62184, Note_off_c, 3, 71, 0
5, 62184, Note_on_c, 3, 71, 100
5, 62208, Note_off_c, 3, 71, 0
5, 62976, Control_c, 3, 10, 64
5, 62976, Control_c, 3, 7, 100
5, 62976, Pitch_bend_c, 3, 8192
5, 62976, Program_c, 3, 24
5, 62976, End_track
6, 0, Start_track
6, 0, Control_c, 4, 0, 0
6, 0, Control_c, 4, 32, 0
6, 0, Program_c, 4, 80
6, 0, Title_t, "Square Lead"
6, 0, Control_c, 4, 7, 127
6, 0, Control_c, 4, 10, 64
6, 0, Control_c, 4, 7, 100
6, 0, Pitch_bend_c, 4, 8192
6, 0, Control_c, 4, 10, 64
6, 0, Control_c, 4, 7, 100
6, 0, Pitch_bend_c, 4, 8192
6, 0, Control_c, 4, 10, 64
6, 0, Control_c, 4, 7, 100
6, 0, Pitch_bend_c, 4, 8192
6, 0, Program_c, 4, 80
6, 0, Control_c, 4, 10, 64
6, 0, Control_c, 4, 7, 100
6, 0, Pitch_bend_c, 4, 8192
6, 0, Program_c, 4, 80
6, 0, Note_on_c, 4, 84, 100
6, 24, Note_off_c, 4, 84, 0
6, 24, Note_on_c, 4, 83, 100
6, 48, Note_off_c, 4, 83, 0
6, 48, Note_on_c, 4, 82, 100
6, 72, Note_off_c, 4, 82, 0
6, 72, Note_on_c, 4, 81, 100
6, 96, Note_off_c, 4, 81, 0
6, 96, Note_on_c, 4, 82, 100
6, 120, Note_off_c, 4, 82, 0
6, 120, Note_on_c, 4, 81, 100
6, 144, Note_off_c, 4, 81, 0
6, 144, Note_on_c, 4, 80, 100
6, 168, Note_off_c, 4, 80, 0
6, 168, Note_on_c, 4, 79, 100
6, 192, Note_off_c, 4, 79, 0
6, 192, Note_on_c, 4, 80, 100
6, 216, Note_off_c, 4, 80, 0
6, 216, Note_on_c, 4, 79, 100
6, 240, Note_off_c, 4, 79, 0
6, 240, Note_on_c, 4, 78, 100
6, 264, Note_off_c, 4, 78, 0
6, 264, Note_on_c, 4, 77, 100
6, 288, Note_off_c, 4, 77, 0
6, 288, Note_on_c, 4, 78, 100
6, 312, Note_off_c, 4, 78, 0
6, 312, Note_on_c, 4, 77, 100
6, 336, Note_off_c, 4, 77, 0
6, 336, Note_on_c, 4, 76, 100
6, 360, Note_off_c, 4, 76, 0
6, 360, Note_on_c, 4, 75, 100
6, 384, Note_off_c, 4, 75, 0
6, 384, Note_on_c, 4, 76, 100
6, 408, Note_off_c, 4, 76, 0
6, 408, Note_on_c, 4, 75, 100
6, 432, Note_off_c, 4, 75, 0
6, 432, Note_on_c, 4, 74, 100
6, 456, Note_off_c, 4, 74, 0
6, 456, Note_on_c, 4, 73, 100
6, 480, Note_off_c, 4, 73, 0
6, 480, Note_on_c, 4, 74, 100
6, 504, Note_off_c, 4, 74, 0
6, 504, Note_on_c, 4, 73, 100
6, 528, Note_off_c, 4, 73, 0
6, 528, Note_on_c, 4, 72, 100
6, 552, Note_off_c, 4, 72, 0
6, 552, Note_on_c, 4, 71, 100
6, 576, Note_off_c, 4, 71, 0
6, 576, Note_on_c, 4, 66, 100
6, 600, Note_off_c, 4, 66, 0
6, 600, Note_on_c, 4, 62, 100
6, 624, Note_off_c, 4, 62, 0
6, 624, Note_on_c, 4, 66, 100
6, 648, Note_off_c, 4, 66, 0
6, 648, Note_on_c, 4, 62, 100
6, 672, Note_off_c, 4, 62, 0
6, 672, Note_on_c, 4, 71, 100
6, 696, Note_off_c, 4, 71, 0
6, 696, Note_on_c, 4, 66, 100
6, 720, Note_off_c, 4, 66, 0
6, 720, Note_on_c, 4, 71, 100
6, 744, Note_off_c, 4, 71, 0
6, 744, Note_on_c, 4, 66, 100
6, 768, Note_off_c, 4, 66, 0
6, 768, Note_on_c, 4, 72, 64
6, 816, Note_off_c, 4, 72, 0
6, 912, Note_on_c, 4, 72, 64
6, 960, Note_off_c, 4, 72, 0
6, 1056, Note_on_c, 4, 72, 64
6, 1104, Note_off_c, 4, 72, 0
6, 1248, Note_on_c, 4, 73, 64
6, 1536, Note_off_c, 4, 73, 0
6, 1536, Note_on_c, 4, 72, 64
6, 1584, Note_off_c, 4, 72, 0
6, 1680, Note_on_c, 4, 72, 64
6, 1728, Note_off_c, 4, 72, 0
6, 1824, Note_on_c, 4, 72, 64
6, 1872, Note_off_c, 4, 72, 0
6, 1920, Note_on_c, 4, 79, 64
6, 1968, Note_off_c, 4, 79, 0
6, 1968, Note_on_c, 4, 84, 64
6, 2016, Note_off_c, 4, 84, 0
6, 2016, Note_on_c, 4, 78, 64
6, 2064, Note_off_c, 4, 78, 0
6, 2064, Note_on_c, 4, 79, 64
6, 2112, Note_off_c, 4, 79, 0
6, 2112, Note_on_c, 4, 78, 64
6, 2160, Note_off_c, 4, 78, 0
6, 2160, Note_on_c, 4, 77, 64
6, 2208, Note_off_c, 4, 77, 0
6, 2208, Note_on_c, 4, 75, 64
6, 2256, Note_off_c, 4, 75, 0
6, 2256, Note_on_c, 4, 71, 64
6, 2304, Note_off_c, 4, 71, 0
6, 2304, Note_on_c, 4, 72, 64
6, 2352, Note_off_c, 4, 72, 0
6, 2448, Note_on_c, 4, 72, 64
6, 2496, Note_off_c, 4, 72, 0
6, 2592, Note_on_c, 4, 72, 64
6, 2640, Note_off_c, 4, 72, 0
6, 2784, Note_on_c, 4, 73, 64
6, 3072, Note_off_c, 4, 73, 0
6, 3072, Note_on_c, 4, 72, 64
6, 3120, Note_off_c, 4, 72, 0
6, 3216, Note_on_c, 4, 72, 64
6, 3264, Note_off_c, 4, 72, 0
6, 3360, Note_on_c, 4, 72, 64
6, 3408, Note_off_c, 4, 72, 0
6, 3456, Note_on_c, 4, 79, 64
6, 3504, Note_off_c, 4, 79, 0
6, 3504, Note_on_c, 4, 84, 64
6, 3552, Note_off_c, 4, 84, 0
6, 3552, Note_on_c, 4, 79, 64
6, 3600, Note_off_c, 4, 79, 0
6, 3600, Note_on_c, 4, 78, 64
6, 3648, Note_off_c, 4, 78, 0
6, 3648, Note_on_c, 4, 77, 64
6, 3696, Note_off_c, 4, 77, 0
6, 3696, Note_on_c, 4, 75, 64
6, 3744, Note_off_c, 4, 75, 0
6, 3744, Note_on_c, 4, 72, 64
6, 3792, Note_off_c, 4, 72, 0
6, 3792, Note_on_c, 4, 67, 64
6, 3840, Note_off_c, 4, 67, 0
6, 3840, Note_on_c, 4, 72, 64
6, 3888, Note_off_c, 4, 72, 0
6, 3984, Note_on_c, 4, 72, 64
6, 4032, Note_off_c, 4, 72, 0
6, 4128, Note_on_c, 4, 72, 64
6, 4176, Note_off_c, 4, 72, 0
6, 4320, Note_on_c, 4, 73, 64
6, 4608, Note_off_c, 4, 73, 0
6, 4608, Note_on_c, 4, 72, 64
6, 4656, Note_off_c, 4, 72, 0
6, 4752, Note_on_c, 4, 72, 64
6, 4800, Note_off_c, 4, 72, 0
6, 4896, Note_on_c, 4, 72, 64
6, 4944, Note_off_c, 4, 72, 0
6, 4992, Note_on_c, 4, 79, 64
6, 5040, Note_off_c, 4, 79, 0
6, 5040, Note_on_c, 4, 84, 64
6, 5088, Note_off_c, 4, 84, 0
6, 5088, Note_on_c, 4, 78, 64
6, 5136, Note_off_c, 4, 78, 0
6, 5136, Note_on_c, 4, 79, 64
6, 5184, Note_off_c, 4, 79, 0
6, 5184, Note_on_c, 4, 78, 64
6, 5232, Note_off_c, 4, 78, 0
6, 5232, Note_on_c, 4, 77, 64
6, 5280, Note_off_c, 4, 77, 0
6, 5280, Note_on_c, 4, 75, 64
6, 5328, Note_off_c, 4, 75, 0
6, 5328, Note_on_c, 4, 71, 64
6, 5376, Note_off_c, 4, 71, 0
6, 5376, Note_on_c, 4, 72, 64
6, 5424, Note_off_c, 4, 72, 0
6, 5520, Note_on_c, 4, 72, 64
6, 5568, Note_off_c, 4, 72, 0
6, 5664, Note_on_c, 4, 72, 64
6, 5712, Note_off_c, 4, 72, 0
6, 5856, Note_on_c, 4, 73, 64
6, 6144, Note_off_c, 4, 73, 0
6, 6144, Note_on_c, 4, 72, 64
6, 6192, Note_off_c, 4, 72, 0
6, 6288, Note_on_c, 4, 72, 64
6, 6336, Note_off_c, 4, 72, 0
6, 6432, Note_on_c, 4, 72, 64
6, 6480, Note_off_c, 4, 72, 0
6, 6528, Note_on_c, 4, 79, 64
6, 6576, Note_off_c, 4, 79, 0
6, 6576, Note_on_c, 4, 84, 64
6, 6624, Note_off_c, 4, 84, 0
6, 6624, Note_on_c, 4, 79, 64
6, 6672, Note_off_c, 4, 79, 0
6, 6672, Note_on_c, 4, 78, 64
6, 6720, Note_off_c, 4, 78, 0
6, 6720, Note_on_c, 4, 77, 64
6, 6768, Note_off_c, 4, 77, 0
6, 6768, Note_on_c, 4, 75, 64
6, 6816, Note_off_c, 4, 75, 0
6, 6816, Note_on_c, 4, 72, 64
6, 6864, Note_off_c, 4, 72, 0
6, 6864, Note_on_c, 4, 67, 64
6, 6912, Note_off_c, 4, 67, 0
6, 13104, Note_on_c, 4, 72, 100
6, 13152, Note_off_c, 4, 72, 0
6, 13200, Note_on_c, 4, 72, 100
6, 13248, Note_off_c, 4, 72, 0
6, 13248, Note_on_c, 4, 71, 100
6, 13296, Note_off_c, 4, 71, 0
6, 13296, Note_on_c, 4, 72, 100
6, 13344, Note_off_c, 4, 72, 0
6, 13392, Note_on_c, 4, 72, 100
6, 13440, Note_off_c, 4, 72, 0
6, 13488, Note_on_c, 4, 72, 100
6, 13536, Note_off_c, 4, 72, 0
6, 13584, Note_on_c, 4, 72, 100
6, 13632, Note_off_c, 4, 72, 0
6, 13632, Note_on_c, 4, 71, 100
6, 13680, Note_off_c, 4, 71, 0
6, 13680, Note_on_c, 4, 72, 100
6, 13728, Note_off_c, 4, 72, 0
6, 13728, Note_on_c, 4, 74, 100
6, 13776, Note_off_c, 4, 74, 0
6, 13776, Note_on_c, 4, 71, 100
6, 13824, Note_off_c, 4, 71, 0
6, 13872, Note_on_c, 4, 72, 100
6, 13920, Note_off_c, 4, 72, 0
6, 13968, Note_on_c, 4, 72, 100
6, 14016, Note_off_c, 4, 72, 0
6, 14016, Note_on_c, 4, 71, 100
6, 14064, Note_off_c, 4, 71, 0
6, 14064, Note_on_c, 4, 72, 100
6, 14112, Note_off_c, 4, 72, 0
6, 14160, Note_on_c, 4, 72, 100
6, 14208, Note_off_c, 4, 72, 0
6, 14256, Note_on_c, 4, 72, 100
6, 14304, Note_off_c, 4, 72, 0
6, 14352, Note_on_c, 4, 72, 100
6, 14400, Note_off_c, 4, 72, 0
6, 14400, Note_on_c, 4, 71, 100
6, 14448, Note_off_c, 4, 71, 0
6, 14448, Note_on_c, 4, 67, 100
6, 14496, Note_off_c, 4, 67, 0
6, 14496, Note_on_c, 4, 65, 100
6, 14544, Note_off_c, 4, 65, 0
6, 14544, Note_on_c, 4, 71, 100
6, 14592, Note_off_c, 4, 71, 0
6, 14640, Note_on_c, 4, 72, 100
6, 14688, Note_off_c, 4, 72, 0
6, 14736, Note_on_c, 4, 72, 100
6, 14784, Note_off_c, 4, 72, 0
6, 14784, Note_on_c, 4, 71, 100
6, 14832, Note_off_c, 4, 71, 0
6, 14832, Note_on_c, 4, 72, 100
6, 14880, Note_off_c, 4, 72, 0
6, 14928, Note_on_c, 4, 72, 100
6, 14976, Note_off_c, 4, 72, 0
6, 15024, Note_on_c, 4, 72, 100
6, 15072, Note_off_c, 4, 72, 0
6, 15120, Note_on_c, 4, 72, 100
6, 15168, Note_off_c, 4, 72, 0
6, 15168, Note_on_c, 4, 71, 100
6, 15216, Note_off_c, 4, 71, 0
6, 15216, Note_on_c, 4, 72, 100
6, 15264, Note_off_c, 4, 72, 0
6, 15264, Note_on_c, 4, 74, 100
6, 15312, Note_off_c, 4, 74, 0
6, 15312, Note_on_c, 4, 71, 100
6, 15360, Note_off_c, 4, 71, 0
6, 15408, Note_on_c, 4, 72, 100
6, 15456, Note_off_c, 4, 72, 0
6, 15504, Note_on_c, 4, 72, 100
6, 15552, Note_off_c, 4, 72, 0
6, 15552, Note_on_c, 4, 71, 100
6, 15600, Note_off_c, 4, 71, 0
6, 15600, Note_on_c, 4, 72, 100
6, 15648, Note_off_c, 4, 72, 0
6, 15696, Note_on_c, 4, 72, 100
6, 15744, Note_off_c, 4, 72, 0
6, 15792, Note_on_c, 4, 72, 100
6, 15840, Note_off_c, 4, 72, 0
6, 15888, Note_on_c, 4, 72, 100
6, 15936, Note_off_c, 4, 72, 0
6, 15936, Note_on_c, 4, 71, 100
6, 15984, Note_off_c, 4, 71, 0
6, 15984, Note_on_c, 4, 67, 100
6, 16032, Note_off_c, 4, 67, 0
6, 16032, Note_on_c, 4, 65, 100
6, 16080, Note_off_c, 4, 65, 0
6, 16080, Note_on_c, 4, 71, 100
6, 16128, Note_off_c, 4, 71, 0
6, 16176, Note_on_c, 4, 72, 100
6, 16224, Note_off_c, 4, 72, 0
6, 16272, Note_on_c, 4, 72, 100
6, 16320, Note_off_c, 4, 72, 0
6, 16320, Note_on_c, 4, 71, 100
6, 16368, Note_off_c, 4, 71, 0
6, 16368, Note_on_c, 4, 72, 100
6, 16416, Note_off_c, 4, 72, 0
6, 16464, Note_on_c, 4, 72, 100
6, 16512, Note_off_c, 4, 72, 0
6, 16560, Note_on_c, 4, 72, 100
6, 16608, Note_off_c, 4, 72, 0
6, 16656, Note_on_c, 4, 72, 100
6, 16704, Note_off_c, 4, 72, 0
6, 16704, Note_on_c, 4, 71, 100
6, 16752, Note_off_c, 4, 71, 0
6, 16752, Note_on_c, 4, 72, 100
6, 16800, Note_off_c, 4, 72, 0
6, 16800, Note_on_c, 4, 74, 100
6, 16848, Note_off_c, 4, 74, 0
6, 16848, Note_on_c, 4, 71, 100
6, 16896, Note_off_c, 4, 71, 0
6, 16944, Note_on_c, 4, 72, 100
6, 16992, Note_off_c, 4, 72, 0
6, 17040, Note_on_c, 4, 72, 100
6, 17088, Note_off_c, 4, 72, 0
6, 17088, Note_on_c, 4, 71, 100
6, 17136, Note_off_c, 4, 71, 0
6, 17136, Note_on_c, 4, 72, 100
6, 17184, Note_off_c, 4, 72, 0
6, 17232, Note_on_c, 4, 72, 100
6, 17280, Note_off_c, 4, 72, 0
6, 17328, Note_on_c, 4, 72, 100
6, 17376, Note_off_c, 4, 72, 0
6, 17424, Note_on_c, 4, 72, 100
6, 17472, Note_off_c, 4, 72, 0
6, 17472, Note_on_c, 4, 71, 100
6, 17520, Note_off_c, 4, 71, 0
6, 17520, Note_on_c, 4, 67, 100
6, 17568, Note_off_c, 4, 67, 0
6, 17568, Note_on_c, 4, 65, 100
6, 17616, Note_off_c, 4, 65, 0
6, 17616, Note_on_c, 4, 71, 100
6, 17664, Note_off_c, 4, 71, 0
6, 17712, Note_on_c, 4, 72, 100
6, 17760, Note_off_c, 4, 72, 0
6, 17808, Note_on_c, 4, 72, 100
6, 17856, Note_off_c, 4, 72, 0
6, 17856, Note_on_c, 4, 71, 100
6, 17904, Note_off_c, 4, 71, 0
6, 17904, Note_on_c, 4, 72, 100
6, 17952, Note_off_c, 4, 72, 0
6, 18000, Note_on_c, 4, 72, 100
6, 18048, Note_off_c, 4, 72, 0
6, 18096, Note_on_c, 4, 72, 100
6, 18144, Note_off_c, 4, 72, 0
6, 18192, Note_on_c, 4, 72, 100
6, 18240, Note_off_c, 4, 72, 0
6, 18240, Note_on_c, 4, 71, 100
6, 18288, Note_off_c, 4, 71, 0
6, 18288, Note_on_c, 4, 72, 100
6, 18336, Note_off_c, 4, 72, 0
6, 18336, Note_on_c, 4, 74, 100
6, 18384, Note_off_c, 4, 74, 0
6, 18384, Note_on_c, 4, 71, 100
6, 18432, Note_off_c, 4, 71, 0
6, 18480, Note_on_c, 4, 72, 100
6, 18528, Note_off_c, 4, 72, 0
6, 18576, Note_on_c, 4, 72, 100
6, 18624, Note_off_c, 4, 72, 0
6, 18624, Note_on_c, 4, 71, 100
6, 18672, Note_off_c, 4, 71, 0
6, 18672, Note_on_c, 4, 72, 100
6, 18720, Note_off_c, 4, 72, 0
6, 18768, Note_on_c, 4, 72, 100
6, 18816, Note_off_c, 4, 72, 0
6, 18864, Note_on_c, 4, 72, 100
6, 18912, Note_off_c, 4, 72, 0
6, 18960, Note_on_c, 4, 72, 100
6, 19008, Note_off_c, 4, 72, 0
6, 19008, Note_on_c, 4, 71, 100
6, 19056, Note_off_c, 4, 71, 0
6, 19056, Note_on_c, 4, 67, 100
6, 19104, Note_off_c, 4, 67, 0
6, 19104, Note_on_c, 4, 65, 100
6, 19152, Note_off_c, 4, 65, 0
6, 19152, Note_on_c, 4, 71, 100
6, 19200, Note_off_c, 4, 71, 0
6, 25344, Note_on_c, 4, 60, 100
6, 25536, Note_off_c, 4, 60, 0
6, 25536, Note_on_c, 4, 62, 100
6, 25632, Note_off_c, 4, 62, 0
6, 25632, Note_on_c, 4, 63, 100
6, 25728, Note_off_c, 4, 63, 0
6, 25728, Note_on_c, 4, 67, 100
6, 25824, Note_off_c, 4, 67, 0
6, 25824, Note_on_c, 4, 63, 100
6, 25920, Note_off_c, 4, 63, 0
6, 25920, Note_on_c, 4, 62, 100
6, 26112, Note_off_c, 4, 62, 0
6, 26112, Note_on_c, 4, 63, 100
6, 26304, Note_off_c, 4, 63, 0
6, 26304, Note_on_c, 4, 65, 100
6, 26448, Note_off_c, 4, 65, 0
6, 26448, Note_on_c, 4, 63, 100
6, 26496, Note_off_c, 4, 63, 0
6, 26496, Note_on_c, 4, 62, 100
6, 26688, Note_off_c, 4, 62, 0
6, 26688, Note_on_c, 4, 59, 100
6, 26880, Note_off_c, 4, 59, 0
6, 26880, Note_on_c, 4, 56, 100
6, 26976, Note_off_c, 4, 56, 0
6, 26976, Note_on_c, 4, 55, 100
6, 27072, Note_off_c, 4, 55, 0
6, 27072, Note_on_c, 4, 56, 100
6, 27168, Note_off_c, 4, 56, 0
6, 27168, Note_on_c, 4, 60, 100
6, 27264, Note_off_c, 4, 60, 0
6, 27264, Note_on_c, 4, 62, 100
6, 27360, Note_off_c, 4, 62, 0
6, 27360, Note_on_c, 4, 63, 100
6, 27456, Note_off_c, 4, 63, 0
6, 27456, Note_on_c, 4, 62, 100
6, 27552, Note_off_c, 4, 62, 0
6, 27552, Note_on_c, 4, 56, 100
6, 27648, Note_off_c, 4, 56, 0
6, 27648, Note_on_c, 4, 55, 100
6, 27744, Note_off_c, 4, 55, 0
6, 27744, Note_on_c, 4, 54, 100
6, 27840, Note_off_c, 4, 54, 0
6, 27840, Note_on_c, 4, 55, 100
6, 27936, Note_off_c, 4, 55, 0
6, 27936, Note_on_c, 4, 59, 100
6, 28032, Note_off_c, 4, 59, 0
6, 28032, Note_on_c, 4, 62, 100
6, 28128, Note_off_c, 4, 62, 0
6, 28128, Note_on_c, 4, 59, 100
6, 28224, Note_off_c, 4, 59, 0
6, 28224, Note_on_c, 4, 55, 100
6, 28320, Note_off_c, 4, 55, 0
6, 28320, Note_on_c, 4, 59, 100
6, 28416, Note_off_c, 4, 59, 0
6, 28416, Note_on_c, 4, 60, 100
6, 28608, Note_off_c, 4, 60, 0
6, 28608, Note_on_c, 4, 62, 100
6, 28704, Note_off_c, 4, 62, 0
6, 28704, Note_on_c, 4, 63, 100
6, 28800, Note_off_c, 4, 63, 0
6, 28800, Note_on_c, 4, 67, 100
6, 28896, Note_off_c, 4, 67, 0
6, 28896, Note_on_c, 4, 63, 100
6, 28992, Note_off_c, 4, 63, 0
6, 28992, Note_on_c, 4, 62, 100
6, 29184, Note_off_c, 4, 62, 0
6, 29184, Note_on_c, 4, 63, 100
6, 29376, Note_off_c, 4, 63, 0
6, 29376, Note_on_c, 4, 65, 100
6, 29520, Note_off_c, 4, 65, 0
6, 29520, Note_on_c, 4, 63, 100
6, 29568, Note_off_c, 4, 63, 0
6, 29568, Note_on_c, 4, 62, 100
6, 29760, Note_off_c, 4, 62, 0
6, 29760, Note_on_c, 4, 59, 100
6, 29952, Note_off_c, 4, 59, 0
6, 29952, Note_on_c, 4, 56, 100
6, 30048, Note_off_c, 4, 56, 0
6, 30048, Note_on_c, 4, 55, 100
6, 30144, Note_off_c, 4, 55, 0
6, 30144, Note_on_c, 4, 56, 100
6, 30240, Note_off_c, 4, 56, 0
6, 30240, Note_on_c, 4, 60, 100
6, 30336, Note_off_c, 4, 60, 0
6, 30336, Note_on_c, 4, 62, 100
6, 30432, Note_off_c, 4, 62, 0
6, 30432, Note_on_c, 4, 63, 100
6, 30528, Note_off_c, 4, 63, 0
6, 30528, Note_on_c, 4, 62, 100
6, 30624, Note_off_c, 4, 62, 0
6, 30624, Note_on_c, 4, 56, 100
6, 30720, Note_off_c, 4, 56, 0
6, 30720, Note_on_c, 4, 55, 100
6, 30816, Note_off_c, 4, 55, 0
6, 30816, Note_on_c, 4, 54, 100
6, 30912, Note_off_c, 4, 54, 0
6, 30912, Note_on_c, 4, 55, 100
6, 31008, Note_off_c, 4, 55, 0
6, 31008, Note_on_c, 4, 59, 100
6, 31104, Note_off_c, 4, 59, 0
6, 31104, Note_on_c, 4, 62, 100
6, 31200, Note_off_c, 4, 62, 0
6, 31200, Note_on_c, 4, 59, 100
6, 31296, Note_off_c, 4, 59, 0
6, 31296, Note_on_c, 4, 55, 100
6, 31392, Note_off_c, 4, 55, 0
6, 31392, Note_on_c, 4, 59, 100
6, 31488, Note_off_c, 4, 59, 0
6, 31488, Note_on_c, 4, 72, 64
6, 31536, Note_off_c, 4, 72, 0
6, 31632, Note_on_c, 4, 72, 64
6, 31680, Note_off_c, 4, 72, 0
6, 31776, Note_on_c, 4, 72, 64
6, 31824, Note_off_c, 4, 72, 0
6, 31968, Note_on_c, 4, 73, 64
6, 32256, Note_off_c, 4, 73, 0
6, 32256, Note_on_c, 4, 72, 64
6, 32304, Note_off_c, 4, 72, 0
6, 32400, Note_on_c, 4, 72, 64
6, 32448, Note_off_c, 4, 72, 0
6, 32544, Note_on_c, 4, 72, 64
6, 32592, Note_off_c, 4, 72, 0
6, 32640, Note_on_c, 4, 79, 64
6, 32688, Note_off_c, 4, 79, 0
6, 32688, Note_on_c, 4, 84, 64
6, 32736, Note_off_c, 4, 84, 0
6, 32736, Note_on_c, 4, 78, 64
6, 32784, Note_off_c, 4, 78, 0
6, 32784, Note_on_c, 4, 79, 64
6, 32832, Note_off_c, 4, 79, 0
6, 32832, Note_on_c, 4, 78, 64
6, 32880, Note_off_c, 4, 78, 0
6, 32880, Note_on_c, 4, 77, 64
6, 32928, Note_off_c, 4, 77, 0
6, 32928, Note_on_c, 4, 75, 64
6, 32976, Note_off_c, 4, 75, 0
6, 32976, Note_on_c, 4, 71, 64
6, 33024, Note_off_c, 4, 71, 0
6, 33024, Note_on_c, 4, 72, 64
6, 33072, Note_off_c, 4, 72, 0
6, 33168, Note_on_c, 4, 72, 64
6, 33216, Note_off_c, 4, 72, 0
6, 33312, Note_on_c, 4, 72, 64
6, 33360, Note_off_c, 4, 72, 0
6, 33504, Note_on_c, 4, 73, 64
6, 33792, Note_off_c, 4, 73, 0
6, 33792, Note_on_c, 4, 72, 64
6, 33840, Note_off_c, 4, 72, 0
6, 33936, Note_on_c, 4, 72, 64
6, 33984, Note_off_c, 4, 72, 0
6, 34080, Note_on_c, 4, 72, 64
6, 34128, Note_off_c, 4, 72, 0
6, 34176, Note_on_c, 4, 79, 64
6, 34224, Note_off_c, 4, 79, 0
6, 34224, Note_on_c, 4, 84, 64
6, 34272, Note_off_c, 4, 84, 0
6, 34272, Note_on_c, 4, 79, 64
6, 34320, Note_off_c, 4, 79, 0
6, 34320, Note_on_c, 4, 78, 64
6, 34368, Note_off_c, 4, 78, 0
6, 34368, Note_on_c, 4, 77, 64
6, 34416, Note_off_c, 4, 77, 0
6, 34416, Note_on_c, 4, 75, 64
6, 34464, Note_off_c, 4, 75, 0
6, 34464, Note_on_c, 4, 72, 64
6, 34512, Note_off_c, 4, 72, 0
6, 34512, Note_on_c, 4, 67, 64
6, 34560, Note_off_c, 4, 67, 0
6, 34560, Note_on_c, 4, 72, 64
6, 34608, Note_off_c, 4, 72, 0
6, 34704, Note_on_c, 4, 72, 64
6, 34752, Note_off_c, 4, 72, 0
6, 34848, Note_on_c, 4, 72, 64
6, 34896, Note_off_c, 4, 72, 0
6, 35040, Note_on_c, 4, 73, 64
6, 35328, Note_off_c, 4, 73, 0
6, 35328, Note_on_c, 4, 72, 64
6, 35376, Note_off_c, 4, 72, 0
6, 35472, Note_on_c, 4, 72, 64
6, 35520, Note_off_c, 4, 72, 0
6, 35616, Note_on_c, 4, 72, 64
6, 35664, Note_off_c, 4, 72, 0
6, 35712, Note_on_c, 4, 79, 64
6, 35760, Note_off_c, 4, 79, 0
6, 35760, Note_on_c, 4, 84, 64
6, 35808, Note_off_c, 4, 84, 0
6, 35808, Note_on_c, 4, 78, 64
6, 35856, Note_off_c, 4, 78, 0
6, 35856, Note_on_c, 4, 79, 64
6, 35904, Note_off_c, 4, 79, 0
6, 35904, Note_on_c, 4, 78, 64
6, 35952, Note_off_c, 4, 78, 0
6, 35952, Note_on_c, 4, 77, 64
6, 36000, Note_off_c, 4, 77, 0
6, 36000, Note_on_c, 4, 75, 64
6, 36048, Note_off_c, 4, 75, 0
6, 36048, Note_on_c, 4, 71, 64
6, 36096, Note_off_c, 4, 71, 0
6, 36096, Note_on_c, 4, 72, 64
6, 36144, Note_off_c, 4, 72, 0
6, 36240, Note_on_c, 4, 72, 64
6, 36288, Note_off_c, 4, 72, 0
6, 36384, Note_on_c, 4, 72, 64
6, 36432, Note_off_c, 4, 72, 0
6, 36576, Note_on_c, 4, 73, 64
6, 36864, Note_off_c, 4, 73, 0
6, 36864, Note_on_c, 4, 72, 64
6, 36912, Note_off_c, 4, 72, 0
6, 37008, Note_on_c, 4, 72, 64
6, 37056, Note_off_c, 4, 72, 0
6, 37152, Note_on_c, 4, 72, 64
6, 37200, Note_off_c, 4, 72, 0
6, 37248, Note_on_c, 4, 79, 64
6, 37296, Note_off_c, 4, 79, 0
6, 37296, Note_on_c, 4, 84, 64
6, 37344, Note_off_c, 4, 84, 0
6, 37344, Note_on_c, 4, 79, 64
6, 37392, Note_off_c, 4, 79, 0
6, 37392, Note_on_c, 4, 78, 64
6, 37440, Note_off_c, 4, 78, 0
6, 37440, Note_on_c, 4, 77, 64
6, 37488, Note_off_c, 4, 77, 0
6, 37488, Note_on_c, 4, 75, 64
6, 37536, Note_off_c, 4, 75, 0
6, 37536, Note_on_c, 4, 72, 64
6, 37584, Note_off_c, 4, 72, 0
6, 37584, Note_on_c, 4, 67, 64
6, 37632, Note_off_c, 4, 67, 0
6, 43824, Note_on_c, 4, 72, 100
6, 43872, Note_off_c, 4, 72, 0
6, 43920, Note_on_c, 4, 72, 100
6, 43968, Note_off_c, 4, 72, 0
6, 43968, Note_on_c, 4, 71, 100
6, 44016, Note_off_c, 4, 71, 0
6, 44016, Note_on_c, 4, 72, 100
6, 44064, Note_off_c, 4, 72, 0
6, 44112, Note_on_c, 4, 72, 100
6, 44160, Note_off_c, 4, 72, 0
6, 44208, Note_on_c, 4, 72, 100
6, 44256, Note_off_c, 4, 72, 0
6, 44304, Note_on_c, 4, 72, 100
6, 44352, Note_off_c, 4, 72, 0
6, 44352, Note_on_c, 4, 71, 100
6, 44400, Note_off_c, 4, 71, 0
6, 44400, Note_on_c, 4, 72, 100
6, 44448, Note_off_c, 4, 72, 0
6, 44448, Note_on_c, 4, 74, 100
6, 44496, Note_off_c, 4, 74, 0
6, 44496, Note_on_c, 4, 71, 100
6, 44544, Note_off_c, 4, 71, 0
6, 44592, Note_on_c, 4, 72, 100
6, 44640, Note_off_c, 4, 72, 0
6, 44688, Note_on_c, 4, 72, 100
6, 44736, Note_off_c, 4, 72, 0
6, 44736, Note_on_c, 4, 71, 100
6, 44784, Note_off_c, 4, 71, 0
6, 44784, Note_on_c, 4, 72, 100
6, 44832, Note_off_c, 4, 72, 0
6, 44880, Note_on_c, 4, 72, 100
6, 44928, Note_off_c, 4, 72, 0
6, 44976, Note_on_c, 4, 72, 100
6, 45024, Note_off_c, 4, 72, 0
6, 45072, Note_on_c, 4, 72, 100
6, 45120, Note_off_c, 4, 72, 0
6, 45120, Note_on_c, 4, 71, 100
6, 45168, Note_off_c, 4, 71, 0
6, 45168, Note_on_c, 4, 67, 100
6, 45216, Note_off_c, 4, 67, 0
6, 45216, Note_on_c, 4, 65, 100
6, 45264, Note_off_c, 4, 65, 0
6, 45264, Note_on_c, 4, 71, 100
6, 45312, Note_off_c, 4, 71, 0
6, 45360, Note_on_c, 4, 72, 100
6, 45408, Note_off_c, 4, 72, 0
6, 45456, Note_on_c, 4, 72, 100
6, 45504, Note_off_c, 4, 72, 0
6, 45504, Note_on_c, 4, 71, 100
6, 45552, Note_off_c, 4, 71, 0
6, 45552, Note_on_c, 4, 72, 100
6, 45600, Note_off_c, 4, 72, 0
6, 45648, Note_on_c, 4, 72, 100
6, 45696, Note_off_c, 4, 72, 0
6, 45744, Note_on_c, 4, 72, 100
6, 45792, Note_off_c, 4, 72, 0
6, 45840, Note_on_c, 4, 72, 100
6, 45888, Note_off_c, 4, 72, 0
6, 45888, Note_on_c, 4, 71, 100
6, 45936, Note_off_c, 4, 71, 0
6, 45936, Note_on_c, 4, 72, 100
6, 45984, Note_off_c, 4, 72, 0
6, 45984, Note_on_c, 4, 74, 100
6, 46032, Note_off_c, 4, 74, 0
6, 46032, Note_on_c, 4, 71, 100
6, 46080, Note_off_c, 4, 71, 0
6, 46128, Note_on_c, 4, 72, 100
6, 46176, Note_off_c, 4, 72, 0
6, 46224, Note_on_c, 4, 72, 100
6, 46272, Note_off_c, 4, 72, 0
6, 46272, Note_on_c, 4, 71, 100
6, 46320, Note_off_c, 4, 71, 0
6, 46320, Note_on_c, 4, 72, 100
6, 46368, Note_off_c, 4, 72, 0
6, 46416, Note_on_c, 4, 72, 100
6, 46464, Note_off_c, 4, 72, 0
6, 46512, Note_on_c, 4, 72, 100
6, 46560, Note_off_c, 4, 72, 0
6, 46608, Note_on_c, 4, 72, 100
6, 46656, Note_off_c, 4, 72, 0
6, 46656, Note_on_c, 4, 71, 100
6, 46704, Note_off_c, 4, 71, 0
6, 46704, Note_on_c, 4, 67, 100
6, 46752, Note_off_c, 4, 67, 0
6, 46752, Note_on_c, 4, 65, 100
6, 46800, Note_off_c, 4, 65, 0
6, 46800, Note_on_c, 4, 71, 100
6, 46848, Note_off_c, 4, 71, 0
6, 46896, Note_on_c, 4, 72, 100
6, 46944, Note_off_c, 4, 72, 0
6, 46992, Note_on_c, 4, 72, 100
6, 47040, Note_off_c, 4, 72, 0
6, 47040, Note_on_c, 4, 71, 100
6, 47088, Note_off_c, 4, 71, 0
6, 47088, Note_on_c, 4, 72, 100
6, 47136, Note_off_c, 4, 72, 0
6, 47184, Note_on_c, 4, 72, 100
6, 47232, Note_off_c, 4, 72, 0
6, 47280, Note_on_c, 4, 72, 100
6, 47328, Note_off_c, 4, 72, 0
6, 47376, Note_on_c, 4, 72, 100
6, 47424, Note_off_c, 4, 72, 0
6, 47424, Note_on_c, 4, 71, 100
6, 47472, Note_off_c, 4, 71, 0
6, 47472, Note_on_c, 4, 72, 100
6, 47520, Note_off_c, 4, 72, 0
6, 47520, Note_on_c, 4, 74, 100
6, 47568, Note_off_c, 4, 74, 0
6, 47568, Note_on_c, 4, 71, 100
6, 47616, Note_off_c, 4, 71, 0
6, 47664, Note_on_c, 4, 72, 100
6, 47712, Note_off_c, 4, 72, 0
6, 47760, Note_on_c, 4, 72, 100
6, 47808, Note_off_c, 4, 72, 0
6, 47808, Note_on_c, 4, 71, 100
6, 47856, Note_off_c, 4, 71, 0
6, 47856, Note_on_c, 4, 72, 100
6, 47904, Note_off_c, 4, 72, 0
6, 47952, Note_on_c, 4, 72, 100
6, 48000, Note_off_c, 4, 72, 0
6, 48048, Note_on_c, 4, 72, 100
6, 48096, Note_off_c, 4, 72, 0
6, 48144, Note_on_c, 4, 72, 100
6, 48192, Note_off_c, 4, 72, 0
6, 48192, Note_on_c, 4, 71, 100
6, 48240, Note_off_c, 4, 71, 0
6, 48240, Note_on_c, 4, 67, 100
6, 48288, Note_off_c, 4, 67, 0
6, 48288, Note_on_c, 4, 65, 100
6, 48336, Note_off_c, 4, 65, 0
6, 48336, Note_on_c, 4, 71, 100
6, 48384, Note_off_c, 4, 71, 0
6, 48432, Note_on_c, 4, 72, 100
6, 48480, Note_off_c, 4, 72, 0
6, 48528, Note_on_c, 4, 72, 100
6, 48576, Note_off_c, 4, 72, 0
6, 48576, Note_on_c, 4, 71, 100
6, 48624, Note_off_c, 4, 71, 0
6, 48624, Note_on_c, 4, 72, 100
6, 48672, Note_off_c, 4, 72, 0
6, 48720, Note_on_c, 4, 72, 100
6, 48768, Note_off_c, 4, 72, 0
6, 48816, Note_on_c, 4, 72, 100
6, 48864, Note_off_c, 4, 72, 0
6, 48912, Note_on_c, 4, 72, 100
6, 48960, Note_off_c, 4, 72, 0
6, 48960, Note_on_c, 4, 71, 100
6, 49008, Note_off_c, 4, 71, 0
6, 49008, Note_on_c, 4, 72, 100
6, 49056, Note_off_c, 4, 72, 0
6, 49056, Note_on_c, 4, 74, 100
6, 49104, Note_off_c, 4, 74, 0
6, 49104, Note_on_c, 4, 71, 100
6, 49152, Note_off_c, 4, 71, 0
6, 49200, Note_on_c, 4, 72, 100
6, 49248, Note_off_c, 4, 72, 0
6, 49296, Note_on_c, 4, 72, 100
6, 49344, Note_off_c, 4, 72, 0
6, 49344, Note_on_c, 4, 71, 100
6, 49392, Note_off_c, 4, 71, 0
6, 49392, Note_on_c, 4, 72, 100
6, 49440, Note_off_c, 4, 72, 0
6, 49488, Note_on_c, 4, 72, 100
6, 49536, Note_off_c, 4, 72, 0
6, 49584, Note_on_c, 4, 72, 100
6, 49632, Note_off_c, 4, 72, 0
6, 49680, Note_on_c, 4, 72, 100
6, 49728, Note_off_c, 4, 72, 0
6, 49728, Note_on_c, 4, 71, 100
6, 49776, Note_off_c, 4, 71, 0
6, 49776, Note_on_c, 4, 67, 100
6, 49824, Note_off_c, 4, 67, 0
6, 49824, Note_on_c, 4, 65, 100
6, 49872, Note_off_c, 4, 65, 0
6, 49872, Note_on_c, 4, 71, 100
6, 49920, Note_off_c, 4, 71, 0
6, 56064, Note_on_c, 4, 60, 100
6, 56256, Note_off_c, 4, 60, 0
6, 56256, Note_on_c, 4, 62, 100
6, 56352, Note_off_c, 4, 62, 0
6, 56352, Note_on_c, 4, 63, 100
6, 56448, Note_off_c, 4, 63, 0
6, 56448, Note_on_c, 4, 67, 100
6, 56544, Note_off_c, 4, 67, 0
6, 56544, Note_on_c, 4, 63, 100
6, 56640, Note_off_c, 4, 63, 0
6, 56640, Note_on_c, 4, 62, 100
6, 56832, Note_off_c, 4, 62, 0
6, 56832, Note_on_c, 4, 63, 100
6, 57024, Note_off_c, 4, 63, 0
6, 57024, Note_on_c, 4, 65, 100
6, 57168, Note_off_c, 4, 65, 0
6, 57168, Note_on_c, 4, 63, 100
6, 57216, Note_off_c, 4, 63, 0
6, 57216, Note_on_c, 4, 62, 100
6, 57408, Note_off_c, 4, 62, 0
6, 57408, Note_on_c, 4, 59, 100
6, 57600, Note_off_c, 4, 59, 0
6, 57600, Note_on_c, 4, 56, 100
6, 57696, Note_off_c, 4, 56, 0
6, 57696, Note_on_c, 4, 55, 100
6, 57792, Note_off_c, 4, 55, 0
6, 57792, Note_on_c, 4, 56, 100
6, 57888, Note_off_c, 4, 56, 0
6, 57888, Note_on_c, 4, 60, 100
6, 57984, Note_off_c, 4, 60, 0
6, 57984, Note_on_c, 4, 62, 100
6, 58080, Note_off_c, 4, 62, 0
6, 58080, Note_on_c, 4, 63, 100
6, 58176, Note_off_c, 4, 63, 0
6, 58176, Note_on_c, 4, 62, 100
6, 58272, Note_off_c, 4, 62, 0
6, 58272, Note_on_c, 4, 56, 100
6, 58368, Note_off_c, 4, 56, 0
6, 58368, Note_on_c, 4, 55, 100
6, 58464, Note_off_c, 4, 55, 0
6, 58464, Note_on_c, 4, 54, 100
6, 58560, Note_off_c, 4, 54, 0
6, 58560, Note_on_c, 4, 55, 100
6, 58656, Note_off_c, 4, 55, 0
6, 58656, Note_on_c, 4, 59, 100
6, 58752, Note_off_c, 4, 59, 0
6, 58752, Note_on_c, 4, 62, 100
6, 58848, Note_off_c, 4, 62, 0
6, 58848, Note_on_c, 4, 59, 100
6, 58944, Note_off_c, 4, 59, 0
6, 58944, Note_on_c, 4, 55, 100
6, 59040, Note_off_c, 4, 55, 0
6, 59040, Note_on_c, 4, 59, 100
6, 59136, Note_off_c, 4, 59, 0
6, 59136, Note_on_c, 4, 60, 100
6, 59328, Note_off_c, 4, 60, 0
6, 59328, Note_on_c, 4, 62, 100
6, 59424, Note_off_c, 4, 62, 0
6, 59424, Note_on_c, 4, 63, 100
6, 59520, Note_off_c, 4, 63, 0
6, 59520, Note_on_c, 4, 67, 100
6, 59616, Note_off_c, 4, 67, 0
6, 59616, Note_on_c, 4, 63, 100
6, 59712, Note_off_c, 4, 63, 0
6, 59712, Note_on_c, 4, 62, 100
6, 59904, Note_off_c, 4, 62, 0
6, 59904, Note_on_c, 4, 63, 100
6, 60096, Note_off_c, 4, 63, 0
6, 60096, Note_on_c, 4, 65, 100
6, 60240, Note_off_c, 4, 65, 0
6, 60240, Note_on_c, 4, 63, 100
6, 60288, Note_off_c, 4, 63, 0
6, 60288, Note_on_c, 4, 62, 100
6, 60480, Note_off_c, 4, 62, 0
6, 60480, Note_on_c, 4, 59, 100
6, 60672, Note_off_c, 4, 59, 0
6, 60672, Note_on_c, 4, 56, 100
6, 60768, Note_off_c, 4, 56, 0
6, 60768, Note_on_c, 4, 55, 100
6, 60864, Note_off_c, 4, 55, 0
6, 60864, Note_on_c, 4, 56, 100
6, 60960, Note_off_c, 4, 56, 0
6, 60960, Note_on_c, 4, 60, 100
6, 61056, Note_off_c, 4, 60, 0
6, 61056, Note_on_c, 4, 62, 100
6, 61152, Note_off_c, 4, 62, 0
6, 61152, Note_on_c, 4, 63, 100
6, 61248, Note_off_c, 4, 63, 0
6, 61248, Note_on_c, 4, 62, 100
6, 61344, Note_off_c, 4, 62, 0
6, 61344, Note_on_c, 4, 56, 100
6, 61440, Note_off_c, 4, 56, 0
6, 61440, Note_on_c, 4, 55, 100
6, 61536, Note_off_c, 4, 55, 0
6, 61536, Note_on_c, 4, 54, 100
6, 61632, Note_off_c, 4, 54, 0
6, 61632, Note_on_c, 4, 55, 100
6, 61728, Note_off_c, 4, 55, 0
6, 61728, Note_on_c, 4, 59, 100
6, 61824, Note_off_c, 4, 59, 0
6, 61824, Note_on_c, 4, 62, 100
6, 61920, Note_off_c, 4, 62, 0
6, 61920, Note_on_c, 4, 59, 100
6, 62016, Note_off_c, 4, 59, 0
6, 62016, Note_on_c, 4, 55, 100
6, 62112, Note_off_c, 4, 55, 0
6, 62112, Note_on_c, 4, 59, 100
6, 62208, Note_off_c, 4, 59, 0
6, 62976, Control_c, 4, 10, 64
6, 62976, Control_c, 4, 7, 100
6, 62976, Pitch_bend_c, 4, 8192
6, 62976, Program_c, 4, 80
6, 62976, End_track
7, 0, Start_track
7, 0, Control_c, 5, 0, 0
7, 0, Control_c, 5, 32, 0
7, 0, Program_c, 5, 56
7, 0, Title_t, "Trumpets"
7, 0, Control_c, 5, 7, 127
7, 0, Control_c, 5, 10, 64
7, 0, Control_c, 5, 7, 100
7, 0, Pitch_bend_c, 5, 8192
7, 0, Control_c, 5, 10, 64
7, 0, Control_c, 5, 7, 100
7, 0, Pitch_bend_c, 5, 8192
7, 0, Control_c, 5, 10, 64
7, 0, Control_c, 5, 7, 100
7, 0, Pitch_bend_c, 5, 8192
7, 0, Program_c, 5, 56
7, 0, Control_c, 5, 10, 64
7, 0, Control_c, 5, 7, 100
7, 0, Pitch_bend_c, 5, 8192
7, 0, Program_c, 5, 56
7, 576, Note_on_c, 5, 66, 100
7, 672, Note_off_c, 5, 66, 0
7, 672, Note_on_c, 5, 71, 100
7, 768, Note_off_c, 5, 71, 0
7, 768, Note_on_c, 5, 72, 127
7, 768, Note_on_c, 5, 60, 127
7, 816, Note_off_c, 5, 60, 0
7, 816, Note_off_c, 5, 72, 0
7, 912, Note_on_c, 5, 72, 127
7, 912, Note_on_c, 5, 60, 127
7, 960, Note_off_c, 5, 60, 0
7, 960, Note_off_c, 5, 72, 0
7, 1056, Note_on_c, 5, 72, 127
7, 1056, Note_on_c, 5, 60, 127
7, 1104, Note_off_c, 5, 60, 0
7, 1104, Note_off_c, 5, 72, 0
7, 1248, Note_on_c, 5, 73, 127
7, 1248, Note_on_c, 5, 61, 127
7, 1536, Note_off_c, 5, 61, 0
7, 1536, Note_off_c, 5, 73, 0
7, 1536, Note_on_c, 5, 72, 127
7, 1536, Note_on_c, 5, 60, 127
7, 1584, Note_off_c, 5, 60, 0
7, 1584, Note_off_c, 5, 72, 0
7, 1680, Note_on_c, 5, 72, 127
7, 1680, Note_on_c, 5, 60, 127
7, 1728, Note_off_c, 5, 60, 0
7, 1728, Note_off_c, 5, 72, 0
7, 1824, Note_on_c, 5, 72, 127
7, 1824, Note_on_c, 5, 60, 127
7, 1872, Note_off_c, 5, 60, 0
7, 1872, Note_off_c, 5, 72, 0
7, 1920, Note_on_c, 5, 79, 127
7, 1920, Note_on_c, 5, 67, 127
7, 1968, Note_off_c, 5, 67, 0
7, 1968, Note_off_c, 5, 79, 0
7, 1968, Note_on_c, 5, 72, 127
7, 1968, Note_on_c, 5, 84, 127
7, 2016, Note_off_c, 5, 84, 0
7, 2016, Note_off_c, 5, 72, 0
7, 2016, Note_on_c, 5, 78, 127
7, 2016, Note_on_c, 5, 66, 127
7, 2064, Note_off_c, 5, 66, 0
7, 2064, Note_off_c, 5, 78, 0
7, 2064, Note_on_c, 5, 79, 127
7, 2064, Note_on_c, 5, 67, 127
7, 2112, Note_off_c, 5, 67, 0
7, 2112, Note_off_c, 5, 79, 0
7, 2112, Note_on_c, 5, 78, 127
7, 2112, Note_on_c, 5, 66, 127
7, 2160, Note_off_c, 5, 66, 0
7, 2160, Note_off_c, 5, 78, 0
7, 2160, Note_on_c, 5, 77, 127
7, 2160, Note_on_c, 5, 65, 127
7, 2208, Note_off_c, 5, 65, 0
7, 2208, Note_off_c, 5, 77, 0
7, 2208, Note_on_c, 5, 63, 127
7, 2208, Note_on_c, 5, 75, 127
7, 2256, Note_off_c, 5, 75, 0
7, 2256, Note_off_c, 5, 63, 0
7, 2256, Note_on_c, 5, 71, 127
7, 2256, Note_on_c, 5, 59, 127
7, 2304, Note_off_c, 5, 59, 0
7, 2304, Note_off_c, 5, 71, 0
7, 2304, Note_on_c, 5, 72, 127
7, 2304, Note_on_c, 5, 60, 127
7, 2352, Note_off_c, 5, 60, 0
7, 2352, Note_off_c, 5, 72, 0
7, 2448, Note_on_c, 5, 72, 127
7, 2448, Note_on_c, 5, 60, 127
7, 2496, Note_off_c, 5, 60, 0
7, 2496, Note_off_c, 5, 72, 0
7, 2592, Note_on_c, 5, 72, 127
7, 2592, Note_on_c, 5, 60, 127
7, 2640, Note_off_c, 5, 60, 0
7, 2640, Note_off_c, 5, 72, 0
7, 2784, Note_on_c, 5, 73, 127
7, 2784, Note_on_c, 5, 61, 127
7, 3072, Note_off_c, 5, 61, 0
7, 3072, Note_off_c, 5, 73, 0
7, 3072, Note_on_c, 5, 72, 127
7, 3072, Note_on_c, 5, 60, 127
7, 3120, Note_off_c, 5, 60, 0
7, 3120, Note_off_c, 5, 72, 0
7, 3216, Note_on_c, 5, 72, 127
7, 3216, Note_on_c, 5, 60, 127
7, 3264, Note_off_c, 5, 60, 0
7, 3264, Note_off_c, 5, 72, 0
7, 3360, Note_on_c, 5, 72, 127
7, 3360, Note_on_c, 5, 60, 127
7, 3408, Note_off_c, 5, 60, 0
7, 3408, Note_off_c, 5, 72, 0
7, 3456, Note_on_c, 5, 79, 127
7, 3456, Note_on_c, 5, 67, 127
7, 3504, Note_off_c, 5, 67, 0
7, 3504, Note_off_c, 5, 79, 0
7, 3504, Note_on_c, 5, 84, 127
7, 3504, Note_on_c, 5, 72, 127
7, 3552, Note_off_c, 5, 72, 0
7, 3552, Note_off_c, 5, 84, 0
7, 3552, Note_on_c, 5, 79, 127
7, 3552, Note_on_c, 5, 67, 127
7, 3600, Note_off_c, 5, 67, 0
7, 3600, Note_off_c, 5, 79, 0
7, 3600, Note_on_c, 5, 78, 127
7, 3600, Note_on_c, 5, 66, 127
7, 3648, Note_off_c, 5, 66, 0
7, 3648, Note_off_c, 5, 78, 0
7, 3648, Note_on_c, 5, 77, 127
7, 3648, Note_on_c, 5, 65, 127
7, 3696, Note_off_c, 5, 65, 0
7, 3696, Note_off_c, 5, 77, 0
7, 3696, Note_on_c, 5, 75, 127
7, 3696, Note_on_c, 5, 63, 127
7, 3744, Note_off_c, 5, 63, 0
7, 3744, Note_off_c, 5, 75, 0
7, 3744, Note_on_c, 5, 72, 127
7, 3744, Note_on_c, 5, 60, 127
7, 3792, Note_off_c, 5, 60, 0
7, 3792, Note_off_c, 5, 72, 0
7, 3792, Note_on_c, 5, 67, 127
7, 3792, Note_on_c, 5, 55, 127
7, 3840, Note_off_c, 5, 55, 0
7, 3840, Note_off_c, 5, 67, 0
7, 3840, Note_on_c, 5, 72, 127
7, 3840, Note_on_c, 5, 60, 127
7, 3888, Note_off_c, 5, 60, 0
7, 3888, Note_off_c, 5, 72, 0
7, 3984, Note_on_c, 5, 72, 127
7, 3984, Note_on_c, 5, 60, 127
7, 4032, Note_off_c, 5, 60, 0
7, 4032, Note_off_c, 5, 72, 0
7, 4128, Note_on_c, 5, 72, 127
7, 4128, Note_on_c, 5, 60, 127
7, 4176, Note_off_c, 5, 60, 0
7, 4176, Note_off_c, 5, 72, 0
7, 4320, Note_on_c, 5, 73, 127
7, 4320, Note_on_c, 5, 61, 127
7, 4608, Note_off_c, 5, 61, 0
7, 4608, Note_off_c, 5, 73, 0
7, 4608, Note_on_c, 5, 72, 127
7, 4608, Note_on_c, 5, 60, 127
7, 4656, Note_off_c, 5, 60, 0
7, 4656, Note_off_c, 5, 72, 0
7, 4752, Note_on_c, 5, 72, 127
7, 4752, Note_on_c, 5, 60, 127
7, 4800, Note_off_c, 5, 60, 0
7, 4800, Note_off_c, 5, 72, 0
7, 4896, Note_on_c, 5, 72, 127
7, 4896, Note_on_c, 5, 60, 127
7, 4944, Note_off_c, 5, 60, 0
7, 4944, Note_off_c, 5, 72, 0
7, 4992, Note_on_c, 5, 79, 127
7, 4992, Note_on_c, 5, 67, 127
7, 5040, Note_off_c, 5, 67, 0
7, 5040, Note_off_c, 5, 79, 0
7, 5040, Note_on_c, 5, 72, 127
7, 5040, Note_on_c, 5, 84, 127
7, 5088, Note_off_c, 5, 84, 0
7, 5088, Note_off_c, 5, 72, 0
7, 5088, Note_on_c, 5, 78, 127
7, 5088, Note_on_c, 5, 66, 127
7, 5136, Note_off_c, 5, 66, 0
7, 5136, Note_off_c, 5, 78, 0
7, 5136, Note_on_c, 5, 79, 127
7, 5136, Note_on_c, 5, 67, 127
7, 5184, Note_off_c, 5, 67, 0
7, 5184, Note_off_c, 5, 79, 0
7, 5184, Note_on_c, 5, 78, 127
7, 5184, Note_on_c, 5, 66, 127
7, 5232, Note_off_c, 5, 66, 0
7, 5232, Note_off_c, 5, 78, 0
7, 5232, Note_on_c, 5, 77, 127
7, 5232, Note_on_c, 5, 65, 127
7, 5280, Note_off_c, 5, 65, 0
7, 5280, Note_off_c, 5, 77, 0
7, 5280, Note_on_c, 5, 63, 127
7, 5280, Note_on_c, 5, 75, 127
7, 5328, Note_off_c, 5, 75, 0
7, 5328, Note_off_c, 5, 63, 0
7, 5328, Note_on_c, 5, 71, 127
7, 5328, Note_on_c, 5, 59, 127
7, 5376, Note_off_c, 5, 59, 0
7, 5376, Note_off_c, 5, 71, 0
7, 5376, Note_on_c, 5, 72, 127
7, 5376, Note_on_c, 5, 60, 127
7, 5424, Note_off_c, 5, 60, 0
7, 5424, Note_off_c, 5, 72, 0
7, 5520, Note_on_c, 5, 72, 127
7, 5520, Note_on_c, 5, 60, 127
7, 5568, Note_off_c, 5, 60, 0
7, 5568, Note_off_c, 5, 72, 0
7, 5664, Note_on_c, 5, 72, 127
7, 5664, Note_on_c, 5, 60, 127
7, 5712, Note_off_c, 5, 60, 0
7, 5712, Note_off_c, 5, 72, 0
7, 5856, Note_on_c, 5, 73, 127
7, 5856, Note_on_c, 5, 61, 127
7, 6144, Note_off_c, 5, 61, 0
7, 6144, Note_off_c, 5, 73, 0
7, 6144, Note_on_c, 5, 72, 127
7, 6144, Note_on_c, 5, 60, 127
7, 6192, Note_off_c, 5, 60, 0
7, 6192, Note_off_c, 5, 72, 0
7, 6288, Note_on_c, 5, 72, 127
7, 6288, Note_on_c, 5, 60, 127
7, 6336, Note_off_c, 5, 60, 0
7, 6336, Note_off_c, 5, 72, 0
7, 6432, Note_on_c, 5, 72, 127
7, 6432, Note_on_c, 5, 60, 127
7, 6480, Note_off_c, 5, 60, 0
7, 6480, Note_off_c, 5, 72, 0
7, 6528, Note_on_c, 5, 79, 127
7, 6528, Note_on_c, 5, 67, 127
7, 6576, Note_off_c, 5, 67, 0
7, 6576, Note_off_c, 5, 79, 0
7, 6576, Note_on_c, 5, 84, 127
7, 6576, Note_on_c, 5, 72, 127
7, 6624, Note_off_c, 5, 72, 0
7, 6624, Note_off_c, 5, 84, 0
7, 6624, Note_on_c, 5, 79, 127
7, 6624, Note_on_c, 5, 67, 127
7, 6672, Note_off_c, 5, 67, 0
7, 6672, Note_off_c, 5, 79, 0
7, 6672, Note_on_c, 5, 78, 127
7, 6672, Note_on_c, 5, 66, 127
7, 6720, Note_off_c, 5, 66, 0
7, 6720, Note_off_c, 5, 78, 0
7, 6720, Note_on_c, 5, 77, 127
7, 6720, Note_on_c, 5, 65, 127
7, 6768, Note_off_c, 5, 65, 0
7, 6768, Note_off_c, 5, 77, 0
7, 6768, Note_on_c, 5, 75, 127
7, 6768, Note_on_c, 5, 63, 127
7, 6816, Note_off_c, 5, 63, 0
7, 6816, Note_off_c, 5, 75, 0
7, 6816, Note_on_c, 5, 72, 127
7, 6816, Note_on_c, 5, 60, 127
7, 6864, Note_off_c, 5, 60, 0
7, 6864, Note_off_c, 5, 72, 0
7, 6864, Note_on_c, 5, 67, 127
7, 6864, Note_on_c, 5, 55, 127
7, 6912, Note_off_c, 5, 55, 0
7, 6912, Note_off_c, 5, 67, 0
7, 31488, Note_on_c, 5, 72, 127
7, 31488, Note_on_c, 5, 60, 127
7, 31536, Note_off_c, 5, 60, 0
7, 31536, Note_off_c, 5, 72, 0
7, 31632, Note_on_c, 5, 72, 127
7, 31632, Note_on_c, 5, 60, 127
7, 31680, Note_off_c, 5, 60, 0
7, 31680, Note_off_c, 5, 72, 0
7, 31776, Note_on_c, 5, 72, 127
7, 31776, Note_on_c, 5, 60, 127
7, 31824, Note_off_c, 5, 60, 0
7, 31824, Note_off_c, 5, 72, 0
7, 31968, Note_on_c, 5, 73, 127
7, 31968, Note_on_c, 5, 61, 127
7, 32256, Note_off_c, 5, 61, 0
7, 32256, Note_off_c, 5, 73, 0
7, 32256, Note_on_c, 5, 72, 127
7, 32256, Note_on_c, 5, 60, 127
7, 32304, Note_off_c, 5, 60, 0
7, 32304, Note_off_c, 5, 72, 0
7, 32400, Note_on_c, 5, 72, 127
7, 32400, Note_on_c, 5, 60, 127
7, 32448, Note_off_c, 5, 60, 0
7, 32448, Note_off_c, 5, 72, 0
7, 32544, Note_on_c, 5, 72, 127
7, 32544, Note_on_c, 5, 60, 127
7, 32592, Note_off_c, 5, 60, 0
7, 32592, Note_off_c, 5, 72, 0
7, 32640, Note_on_c, 5, 79, 127
7, 32640, Note_on_c, 5, 67, 127
7, 32688, Note_off_c, 5, 67, 0
7, 32688, Note_off_c, 5, 79, 0
7, 32688, Note_on_c, 5, 72, 127
7, 32688, Note_on_c, 5, 84, 127
7, 32736, Note_off_c, 5, 84, 0
7, 32736, Note_off_c, 5, 72, 0
7, 32736, Note_on_c, 5, 78, 127
7, 32736, Note_on_c, 5, 66, 127
7, 32784, Note_off_c, 5, 66, 0
7, 32784, Note_off_c, 5, 78, 0
7, 32784, Note_on_c, 5, 79, 127
7, 32784, Note_on_c, 5, 67, 127
7, 32832, Note_off_c, 5, 67, 0
7, 32832, Note_off_c, 5, 79, 0
7, 32832, Note_on_c, 5, 78, 127
7, 32832, Note_on_c, 5, 66, 127
7, 32880, Note_off_c, 5, 66, 0
7, 32880, Note_off_c, 5, 78, 0
7, 32880, Note_on_c, 5, 77, 127
7, 32880, Note_on_c, 5, 65, 127
7, 32928, Note_off_c, 5, 65, 0
7, 32928, Note_off_c, 5, 77, 0
7, 32928, Note_on_c, 5, 63, 127
7, 32928, Note_on_c, 5, 75, 127
7, 32976, Note_off_c, 5, 75, 0
7, 32976, Note_off_c, 5, 63, 0
7, 32976, Note_on_c, 5, 71, 127
7, 32976, Note_on_c, 5, 59, 127
7, 33024, Note_off_c, 5, 59, 0
7, 33024, Note_off_c, 5, 71, 0
7, 33024, Note_on_c, 5, 72, 127
7, 33024, Note_on_c, 5, 60, 127
7, 33072, Note_off_c, 5, 60, 0
7, 33072, Note_off_c, 5, 72, 0
7, 33168, Note_on_c, 5, 72, 127
7, 33168, Note_on_c, 5, 60, 127
7, 33216, Note_off_c, 5, 60, 0
7, 33216, Note_off_c, 5, 72, 0
7, 33312, Note_on_c, 5, 72, 127
7, 33312, Note_on_c, 5, 60, 127
7, 33360, Note_off_c, 5, 60, 0
7, 33360, Note_off_c, 5, 72, 0
7, 33504, Note_on_c, 5, 73, 127
7, 33504, Note_on_c, 5, 61, 127
7, 33792, Note_off_c, 5, 61, 0
7, 33792, Note_off_c, 5, 73, 0
7, 33792, Note_on_c, 5, 72, 127
7, 33792, Note_on_c, 5, 60, 127
7, 33840, Note_off_c, 5, 60, 0
7, 33840, Note_off_c, 5, 72, 0
7, 33936, Note_on_c, 5, 72, 127
7, 33936, Note_on_c, 5, 60, 127
7, 33984, Note_off_c, 5, 60, 0
7, 33984, Note_off_c, 5, 72, 0
7, 34080, Note_on_c, 5, 72, 127
7, 34080, Note_on_c, 5, 60, 127
7, 34128, Note_off_c, 5, 60, 0
7, 34128, Note_off_c, 5, 72, 0
7, 34176, Note_on_c, 5, 79, 127
7, 34176, Note_on_c, 5, 67, 127
7, 34224, Note_off_c, 5, 67, 0
7, 34224, Note_off_c, 5, 79, 0
7, 34224, Note_on_c, 5, 84, 127
7, 34224, Note_on_c, 5, 72, 127
7, 34272, Note_off_c, 5, 72, 0
7, 34272, Note_off_c, 5, 84, 0
7, 34272, Note_on_c, 5, 79, 127
7, 34272, Note_on_c, 5, 67, 127
7, 34320, Note_off_c, 5, 67, 0
7, 34320, Note_off_c, 5, 79, 0
7, 34320, Note_on_c, 5, 78, 127
7, 34320, Note_on_c, 5, 66, 127
7, 34368, Note_off_c, 5, 66, 0
7, 34368, Note_off_c, 5, 78, 0
7, 34368, Note_on_c, 5, 77, 127
7, 34368, Note_on_c, 5, 65, 127
7, 34416, Note_off_c, 5, 65, 0
7, 34416, Note_off_c, 5, 77, 0
7, 34416, Note_on_c, 5, 75, 127
7, 34416, Note_on_c, 5, 63, 127
7, 34464, Note_off_c, 5, 63, 0
7, 34464, Note_off_c, 5, 75, 0
7, 34464, Note_on_c, 5, 72, 127
7, 34464, Note_on_c, 5, 60, 127
7, 34512, Note_off_c, 5, 60, 0
7, 34512, Note_off_c, 5, 72, 0
7, 34512, Note_on_c, 5, 67, 127
7, 34512, Note_on_c, 5, 55, 127
7, 34560, Note_off_c, 5, 55, 0
7, 34560, Note_off_c, 5, 67, 0
7, 34560, Note_on_c, 5, 72, 127
7, 34560, Note_on_c, 5, 60, 127
7, 34608, Note_off_c, 5, 60, 0
7, 34608, Note_off_c, 5, 72, 0
7, 34704, Note_on_c, 5, 72, 127
7, 34704, Note_on_c, 5, 60, 127
7, 34752, Note_off_c, 5, 60, 0
7, 34752, Note_off_c, 5, 72, 0
7, 34848, Note_on_c, 5, 72, 127
7, 34848, Note_on_c, 5, 60, 127
7, 34896, Note_off_c, 5, 60, 0
7, 34896, Note_off_c, 5, 72, 0
7, 35040, Note_on_c, 5, 73, 127
7, 35040, Note_on_c, 5, 61, 127
7, 35328, Note_off_c, 5, 61, 0
7, 35328, Note_off_c, 5, 73, 0
7, 35328, Note_on_c, 5, 72, 127
7, 35328, Note_on_c, 5, 60, 127
7, 35376, Note_off_c, 5, 60, 0
7, 35376, Note_off_c, 5, 72, 0
7, 35472, Note_on_c, 5, 72, 127
7, 35472, Note_on_c, 5, 60, 127
7, 35520, Note_off_c, 5, 60, 0
7, 35520, Note_off_c, 5, 72, 0
7, 35616, Note_on_c, 5, 72, 127
7, 35616, Note_on_c, 5, 60, 127
7, 35664, Note_off_c, 5, 60, 0
7, 35664, Note_off_c, 5, 72, 0
7, 35712, Note_on_c, 5, 79, 127
7, 35712, Note_on_c, 5, 67, 127
7, 35760, Note_off_c, 5, 67, 0
7, 35760, Note_off_c, 5, 79, 0
7, 35760, Note_on_c, 5, 72, 127
7, 35760, Note_on_c, 5, 84, 127
7, 35808, Note_off_c, 5, 84, 0
7, 35808, Note_off_c, 5, 72, 0
7, 35808, Note_on_c, 5, 78, 127
7, 35808, Note_on_c, 5, 66, 127
7, 35856, Note_off_c, 5, 66, 0
7, 35856, Note_off_c, 5, 78, 0
7, 35856, Note_on_c, 5, 79, 127
7, 35856, Note_on_c, 5, 67, 127
7, 35904, Note_off_c, 5, 67, 0
7, 35904, Note_off_c, 5, 79, 0
7, 35904, Note_on_c, 5, 78, 127
7, 35904, Note_on_c, 5, 66, 127
7, 35952, Note_off_c, 5, 66, 0
7, 35952, Note_off_c, 5, 78, 0
7, 35952, Note_on_c, 5, 77, 127
7, 35952, Note_on_c, 5, 65, 127
7, 36000, Note_off_c, 5, 65, 0
7, 36000, Note_off_c, 5, 77, 0
7, 36000, Note_on_c, 5, 63, 127
7, 36000, Note_on_c, 5, 75, 127
7, 36048, Note_off_c, 5, 75, 0
7, 36048, Note_off_c, 5, 63, 0
7, 36048, Note_on_c, 5, 71, 127
7, 36048, Note_on_c, 5, 59, 127
7, 36096, Note_off_c, 5, 59, 0
7, 36096, Note_off_c, 5, 71, 0
7, 36096, Note_on_c, 5, 72, 127
7, 36096, Note_on_c, 5, 60, 127
7, 36144, Note_off_c, 5, 60, 0
7, 36144, Note_off_c, 5, 72, 0
7, 36240, Note_on_c, 5, 72, 127
7, 36240, Note_on_c, 5, 60, 127
7, 36288, Note_off_c, 5, 60, 0
7, 36288, Note_off_c, 5, 72, 0
7, 36384, Note_on_c, 5, 72, 127
7, 36384, Note_on_c, 5, 60, 127
7, 36432, Note_off_c, 5, 60, 0
7, 36432, Note_off_c, 5, 72, 0
7, 36576, Note_on_c, 5, 73, 127
7, 36576, Note_on_c, 5, 61, 127
7, 36864, Note_off_c, 5, 61, 0
7, 36864, Note_off_c, 5, 73, 0
7, 36864, Note_on_c, 5, 72, 127
7, 36864, Note_on_c, 5, 60, 127
7, 36912, Note_off_c, 5, 60, 0
7, 36912, Note_off_c, 5, 72, 0
7, 37008, Note_on_c, 5, 72, 127
7, 37008, Note_on_c, 5, 60, 127
7, 37056, Note_off_c, 5, 60, 0
7, 37056, Note_off_c, 5, 72, 0
7, 37152, Note_on_c, 5, 72, 127
7, 37152, Note_on_c, 5, 60, 127
7, 37200, Note_off_c, 5, 60, 0
7, 37200, Note_off_c, 5, 72, 0
7, 37248, Note_on_c, 5, 79, 127
7, 37248, Note_on_c, 5, 67, 127
7, 37296, Note_off_c, 5, 67, 0
7, 37296, Note_off_c, 5, 79, 0
7, 37296, Note_on_c, 5, 84, 127
7, 37296, Note_on_c, 5, 72, 127
7, 37344, Note_off_c, 5, 72, 0
7, 37344, Note_off_c, 5, 84, 0
7, 37344, Note_on_c, 5, 79, 127
7, 37344, Note_on_c, 5, 67, 127
7, 37392, Note_off_c, 5, 67, 0
7, 37392, Note_off_c, 5, 79, 0
7, 37392, Note_on_c, 5, 78, 127
7, 37392, Note_on_c, 5, 66, 127
7, 37440, Note_off_c, 5, 66, 0
7, 37440, Note_off_c, 5, 78, 0
7, 37440, Note_on_c, 5, 77, 127
7, 37440, Note_on_c, 5, 65, 127
7, 37488, Note_off_c, 5, 65, 0
7, 37488, Note_off_c, 5, 77, 0
7, 37488, Note_on_c, 5, 75, 127
7, 37488, Note_on_c, 5, 63, 127
7, 37536, Note_off_c, 5, 63, 0
7, 37536, Note_off_c, 5, 75, 0
7, 37536, Note_on_c, 5, 72, 127
7, 37536, Note_on_c, 5, 60, 127
7, 37584, Note_off_c, 5, 60, 0
7, 37584, Note_off_c, 5, 72, 0
7, 37584, Note_on_c, 5, 67, 127
7, 37584, Note_on_c, 5, 55, 127
7, 37632, Note_off_c, 5, 55, 0
7, 37632, Note_off_c, 5, 67, 0
7, 62976, Control_c, 5, 10, 64
7, 62976, Control_c, 5, 7, 100
7, 62976, Pitch_bend_c, 5, 8192
7, 62976, Program_c, 5, 56
7, 62976, End_track
8, 0, Start_track
8, 0, Control_c, 6, 0, 0
8, 0, Control_c, 6, 32, 0
8, 0, Program_c, 6, 60
8, 0, Title_t, "Horn"
8, 0, Control_c, 6, 7, 127
8, 0, Control_c, 6, 10, 64
8, 0, Control_c, 6, 7, 100
8, 0, Pitch_bend_c, 6, 8192
8, 0, Control_c, 6, 10, 64
8, 0, Control_c, 6, 7, 100
8, 0, Pitch_bend_c, 6, 8192
8, 0, Control_c, 6, 10, 64
8, 0, Control_c, 6, 7, 100
8, 0, Pitch_bend_c, 6, 8192
8, 0, Program_c, 6, 60
8, 0, Control_c, 6, 10, 64
8, 0, Control_c, 6, 7, 100
8, 0, Pitch_bend_c, 6, 8192
8, 0, Program_c, 6, 60
8, 576, Note_on_c, 6, 66, 100
8, 672, Note_off_c, 6, 66, 0
8, 672, Note_on_c, 6, 71, 100
8, 768, Note_off_c, 6, 71, 0
8, 768, Note_on_c, 6, 60, 127
8, 768, Note_on_c, 6, 72, 127
8, 816, Note_off_c, 6, 72, 0
8, 816, Note_off_c, 6, 60, 0
8, 912, Note_on_c, 6, 60, 127
8, 912, Note_on_c, 6, 72, 127
8, 960, Note_off_c, 6, 72, 0
8, 960, Note_off_c, 6, 60, 0
8, 1056, Note_on_c, 6, 60, 127
8, 1056, Note_on_c, 6, 72, 127
8, 1104, Note_off_c, 6, 72, 0
8, 1104, Note_off_c, 6, 60, 0
8, 1248, Note_on_c, 6, 61, 127
8, 1248, Note_on_c, 6, 73, 127
8, 1536, Note_off_c, 6, 73, 0
8, 1536, Note_off_c, 6, 61, 0
8, 1536, Note_on_c, 6, 60, 127
8, 1536, Note_on_c, 6, 72, 127
8, 1584, Note_off_c, 6, 72, 0
8, 1584, Note_off_c, 6, 60, 0
8, 1680, Note_on_c, 6, 60, 127
8, 1680, Note_on_c, 6, 72, 127
8, 1728, Note_off_c, 6, 72, 0
8, 1728, Note_off_c, 6, 60, 0
8, 1824, Note_on_c, 6, 60, 127
8, 1824, Note_on_c, 6, 72, 127
8, 1872, Note_off_c, 6, 72, 0
8, 1872, Note_off_c, 6, 60, 0
8, 1920, Note_on_c, 6, 67, 127
8, 1920, Note_on_c, 6, 79, 127
8, 1968, Note_off_c, 6, 79, 0
8, 1968, Note_off_c, 6, 67, 0
8, 1968, Note_on_c, 6, 72, 127
8, 1968, Note_on_c, 6, 84, 127
8, 2016, Note_off_c, 6, 84, 0
8, 2016, Note_off_c, 6, 72, 0
8, 2016, Note_on_c, 6, 66, 127
8, 2016, Note_on_c, 6, 78, 127
8, 2064, Note_off_c, 6, 78, 0
8, 2064, Note_off_c, 6, 66, 0
8, 2064, Note_on_c, 6, 67, 127
8, 2064, Note_on_c, 6, 79, 127
8, 2112, Note_off_c, 6, 79, 0
8, 2112, Note_off_c, 6, 67, 0
8, 2112, Note_on_c, 6, 66, 127
8, 2112, Note_on_c, 6, 78, 127
8, 2160, Note_off_c, 6, 78, 0
8, 2160, Note_off_c, 6, 66, 0
8, 2160, Note_on_c, 6, 65, 127
8, 2160, Note_on_c, 6, 77, 127
8, 2208, Note_off_c, 6, 77, 0
8, 2208, Note_off_c, 6, 65, 0
8, 2208, Note_on_c, 6, 63, 127
8, 2208, Note_on_c, 6, 75, 127
8, 2256, Note_off_c, 6, 75, 0
8, 2256, Note_off_c, 6, 63, 0
8, 2256, Note_on_c, 6, 59, 127
8, 2256, Note_on_c, 6, 71, 127
8, 2304, Note_off_c, 6, 71, 0
8, 2304, Note_off_c, 6, 59, 0
8, 2304, Note_on_c, 6, 60, 127
8, 2304, Note_on_c, 6, 72, 127
8, 2352, Note_off_c, 6, 72, 0
8, 2352, Note_off_c, 6, 60, 0
8, 2448, Note_on_c, 6, 60, 127
8, 2448, Note_on_c, 6, 72, 127
8, 2496, Note_off_c, 6, 72, 0
8, 2496, Note_off_c, 6, 60, 0
8, 2592, Note_on_c, 6, 60, 127
8, 2592, Note_on_c, 6, 72, 127
8, 2640, Note_off_c, 6, 72, 0
8, 2640, Note_off_c, 6, 60, 0
8, 2784, Note_on_c, 6, 61, 127
8, 2784, Note_on_c, 6, 73, 127
8, 3072, Note_off_c, 6, 73, 0
8, 3072, Note_off_c, 6, 61, 0
8, 3072, Note_on_c, 6, 60, 127
8, 3072, Note_on_c, 6, 72, 127
8, 3120, Note_off_c, 6, 72, 0
8, 3120, Note_off_c, 6, 60, 0
8, 3216, Note_on_c, 6, 60, 127
8, 3216, Note_on_c, 6, 72, 127
8, 3264, Note_off_c, 6, 72, 0
8, 3264, Note_off_c, 6, 60, 0
8, 3360, Note_on_c, 6, 60, 127
8, 3360, Note_on_c, 6, 72, 127
8, 3408, Note_off_c, 6, 72, 0
8, 3408, Note_off_c, 6, 60, 0
8, 3456, Note_on_c, 6, 67, 127
8, 3456, Note_on_c, 6, 79, 127
8, 3504, Note_off_c, 6, 79, 0
8, 3504, Note_off_c, 6, 67, 0
8, 3504, Note_on_c, 6, 72, 127
8, 3504, Note_on_c, 6, 84, 127
8, 3552, Note_off_c, 6, 84, 0
8, 3552, Note_off_c, 6, 72, 0
8, 3552, Note_on_c, 6, 67, 127
8, 3552, Note_on_c, 6, 79, 127
8, 3600, Note_off_c, 6, 79, 0
8, 3600, Note_off_c, 6, 67, 0
8, 3600, Note_on_c, 6, 66, 127
8, 3600, Note_on_c, 6, 78, 127
8, 3648, Note_off_c, 6, 78, 0
8, 3648, Note_off_c, 6, 66, 0
8, 3648, Note_on_c, 6, 65, 127
8, 3648, Note_on_c, 6, 77, 127
8, 3696, Note_off_c, 6, 77, 0
8, 3696, Note_off_c, 6, 65, 0
8, 3696, Note_on_c, 6, 63, 127
8, 3696, Note_on_c, 6, 75, 127
8, 3744, Note_off_c, 6, 75, 0
8, 3744, Note_off_c, 6, 63, 0
8, 3744, Note_on_c, 6, 60, 127
8, 3744, Note_on_c, 6, 72, 127
8, 3792, Note_off_c, 6, 72, 0
8, 3792, Note_off_c, 6, 60, 0
8, 3792, Note_on_c, 6, 55, 127
8, 3792, Note_on_c, 6, 67, 127
8, 3840, Note_off_c, 6, 67, 0
8, 3840, Note_off_c, 6, 55, 0
8, 3840, Note_on_c, 6, 60, 127
8, 3840, Note_on_c, 6, 72, 127
8, 3888, Note_off_c, 6, 72, 0
8, 3888, Note_off_c, 6, 60, 0
8, 3984, Note_on_c, 6, 60, 127
8, 3984, Note_on_c, 6, 72, 127
8, 4032, Note_off_c, 6, 72, 0
8, 4032, Note_off_c, 6, 60, 0
8, 4128, Note_on_c, 6, 60, 127
8, 4128, Note_on_c, 6, 72, 127
8, 4176, Note_off_c, 6, 72, 0
8, 4176, Note_off_c, 6, 60, 0
8, 4320, Note_on_c, 6, 61, 127
8, 4320, Note_on_c, 6, 73, 127
8, 4608, Note_off_c, 6, 73, 0
8, 4608, Note_off_c, 6, 61, 0
8, 4608, Note_on_c, 6, 60, 127
8, 4608, Note_on_c, 6, 72, 127
8, 4656, Note_off_c, 6, 72, 0
8, 4656, Note_off_c, 6, 60, 0
8, 4752, Note_on_c, 6, 60, 127
8, 4752, Note_on_c, 6, 72, 127
8, 4800, Note_off_c, 6, 72, 0
8, 4800, Note_off_c, 6, 60, 0
8, 4896, Note_on_c, 6, 60, 127
8, 4896, Note_on_c, 6, 72, 127
8, 4944, Note_off_c, 6, 72, 0
8, 4944, Note_off_c, 6, 60, 0
8, 4992, Note_on_c, 6, 67, 127
8, 4992, Note_on_c, 6, 79, 127
8, 5040, Note_off_c, 6, 79, 0
8, 5040, Note_off_c, 6, 67, 0
8, 5040, Note_on_c, 6, 72, 127
8, 5040, Note_on_c, 6, 84, 127
8, 5088, Note_off_c, 6, 84, 0
8, 5088, Note_off_c, 6, 72, 0
8, 5088, Note_on_c, 6, 66, 127
8, 5088, Note_on_c, 6, 78, 127
8, 5136, Note_off_c, 6, 78, 0
8, 5136, Note_off_c, 6, 66, 0
8, 5136, Note_on_c, 6, 67, 127
8, 5136, Note_on_c, 6, 79, 127
8, 5184, Note_off_c, 6, 79, 0
8, 5184, Note_off_c, 6, 67, 0
8, 5184, Note_on_c, 6, 66, 127
8, 5184, Note_on_c, 6, 78, 127
8, 5232, Note_off_c, 6, 78, 0
8, 5232, Note_off_c, 6, 66, 0
8, 5232, Note_on_c, 6, 65, 127
8, 5232, Note_on_c, 6, 77, 127
8, 5280, Note_off_c, 6, 77, 0
8, 5280, Note_off_c, 6, 65, 0
8, 5280, Note_on_c, 6, 63, 127
8, 5280, Note_on_c, 6, 75, 127
8, 5328, Note_off_c, 6, 75, 0
8, 5328, Note_off_c, 6, 63, 0
8, 5328, Note_on_c, 6, 59, 127
8, 5328, Note_on_c, 6, 71, 127
8, 5376, Note_off_c, 6, 71, 0
8, 5376, Note_off_c, 6, 59, 0
8, 5376, Note_on_c, 6, 60, 127
8, 5376, Note_on_c, 6, 72, 127
8, 5424, Note_off_c, 6, 72, 0
8, 5424, Note_off_c, 6, 60, 0
8, 5520, Note_on_c, 6, 60, 127
8, 5520, Note_on_c, 6, 72, 127
8, 5568, Note_off_c, 6, 72, 0
8, 5568, Note_off_c, 6, 60, 0
8, 5664, Note_on_c, 6, 60, 127
8, 5664, Note_on_c, 6, 72, 127
8, 5712, Note_off_c, 6, 72, 0
8, 5712, Note_off_c, 6, 60, 0
8, 5856, Note_on_c, 6, 61, 127
8, 5856, Note_on_c, 6, 73, 127
8, 6144, Note_off_c, 6, 73, 0
8, 6144, Note_off_c, 6, 61, 0
8, 6144, Note_on_c, 6, 60, 127
8, 6144, Note_on_c, 6, 72, 127
8, 6192, Note_off_c, 6, 72, 0
8, 6192, Note_off_c, 6, 60, 0
8, 6288, Note_on_c, 6, 60, 127
8, 6288, Note_on_c, 6, 72, 127
8, 6336, Note_off_c, 6, 72, 0
8, 6336, Note_off_c, 6, 60, 0
8, 6432, Note_on_c, 6, 60, 127
8, 6432, Note_on_c, 6, 72, 127
8, 6480, Note_off_c, 6, 72, 0
8, 6480, Note_off_c, 6, 60, 0
8, 6528, Note_on_c, 6, 67, 127
8, 6528, Note_on_c, 6, 79, 127
8, 6576, Note_off_c, 6, 79, 0
8, 6576, Note_off_c, 6, 67, 0
8, 6576, Note_on_c, 6, 72, 127
8, 6576, Note_on_c, 6, 84, 127
8, 6624, Note_off_c, 6, 84, 0
8, 6624, Note_off_c, 6, 72, 0
8, 6624, Note_on_c, 6, 67, 127
8, 6624, Note_on_c, 6, 79, 127
8, 6672, Note_off_c, 6, 79, 0
8, 6672, Note_off_c, 6, 67, 0
8, 6672, Note_on_c, 6, 66, 127
8, 6672, Note_on_c, 6, 78, 127
8, 6720, Note_off_c, 6, 78, 0
8, 6720, Note_off_c, 6, 66, 0
8, 6720, Note_on_c, 6, 65, 127
8, 6720, Note_on_c, 6, 77, 127
8, 6768, Note_off_c, 6, 77, 0
8, 6768, Note_off_c, 6, 65, 0
8, 6768, Note_on_c, 6, 63, 127
8, 6768, Note_on_c, 6, 75, 127
8, 6816, Note_off_c, 6, 75, 0
8, 6816, Note_off_c, 6, 63, 0
8, 6816, Note_on_c, 6, 60, 127
8, 6816, Note_on_c, 6, 72, 127
8, 6864, Note_off_c, 6, 72, 0
8, 6864, Note_off_c, 6, 60, 0
8, 6864, Note_on_c, 6, 55, 127
8, 6864, Note_on_c, 6, 67, 127
8, 6912, Note_off_c, 6, 67, 0
8, 6912, Note_off_c, 6, 55, 0
8, 31488, Note_on_c, 6, 60, 127
8, 31488, Note_on_c, 6, 72, 127
8, 31536, Note_off_c, 6, 72, 0
8, 31536, Note_off_c, 6, 60, 0
8, 31632, Note_on_c, 6, 60, 127
8, 31632, Note_on_c, 6, 72, 127
8, 31680, Note_off_c, 6, 72, 0
8, 31680, Note_off_c, 6, 60, 0
8, 31776, Note_on_c, 6, 60, 127
8, 31776, Note_on_c, 6, 72, 127
8, 31824, Note_off_c, 6, 72, 0
8, 31824, Note_off_c, 6, 60, 0
8, 31968, Note_on_c, 6, 61, 127
8, 31968, Note_on_c, 6, 73, 127
8, 32256, Note_off_c, 6, 73, 0
8, 32256, Note_off_c, 6, 61, 0
8, 32256, Note_on_c, 6, 60, 127
8, 32256, Note_on_c, 6, 72, 127
8, 32304, Note_off_c, 6, 72, 0
8, 32304, Note_off_c, 6, 60, 0
8, 32400, Note_on_c, 6, 60, 127
8, 32400, Note_on_c, 6, 72, 127
8, 32448, Note_off_c, 6, 72, 0
8, 32448, Note_off_c, 6, 60, 0
8, 32544, Note_on_c, 6, 60, 127
8, 32544, Note_on_c, 6, 72, 127
8, 32592, Note_off_c, 6, 72, 0
8, 32592, Note_off_c, 6, 60, 0
8, 32640, Note_on_c, 6, 67, 127
8, 32640, Note_on_c, 6, 79, 127
8, 32688, Note_off_c, 6, 79, 0
8, 32688, Note_off_c, 6, 67, 0
8, 32688, Note_on_c, 6, 72, 127
8, 32688, Note_on_c, 6, 84, 127
8, 32736, Note_off_c, 6, 84, 0
8, 32736, Note_off_c, 6, 72, 0
8, 32736, Note_on_c, 6, 66, 127
8, 32736, Note_on_c, 6, 78, 127
8, 32784, Note_off_c, 6, 78, 0
8, 32784, Note_off_c, 6, 66, 0
8, 32784, Note_on_c, 6, 67, 127
8, 32784, Note_on_c, 6, 79, 127
8, 32832, Note_off_c, 6, 79, 0
8, 32832, Note_off_c, 6, 67, 0
8, 32832, Note_on_c, 6, 66, 127
8, 32832, Note_on_c, 6, 78, 127
8, 32880, Note_off_c, 6, 78, 0
8, 32880, Note_off_c, 6, 66, 0
8, 32880, Note_on_c, 6, 65, 127
8, 32880, Note_on_c, 6, 77, 127
8, 32928, Note_off_c, 6, 77, 0
8, 32928, Note_off_c, 6, 65, 0
8, 32928, Note_on_c, 6, 63, 127
8, 32928, Note_on_c, 6, 75, 127
8, 32976, Note_off_c, 6, 75, 0
8, 32976, Note_off_c, 6, 63, 0
8, 32976, Note_on_c, 6, 59, 127
8, 32976, Note_on_c, 6, 71, 127
8, 33024, Note_off_c, 6, 71, 0
8, 33024, Note_off_c, 6, 59, 0
8, 33024, Note_on_c, 6, 60, 127
8, 33024, Note_on_c, 6, 72, 127
8, 33072, Note_off_c, 6, 72, 0
8, 33072, Note_off_c, 6, 60, 0
8, 33168, Note_on_c, 6, 60, 127
8, 33168, Note_on_c, 6, 72, 127
8, 33216, Note_off_c, 6, 72, 0
8, 33216, Note_off_c, 6, 60, 0
8, 33312, Note_on_c, 6, 60, 127
8, 33312, Note_on_c, 6, 72, 127
8, 33360, Note_off_c, 6, 72, 0
8, 33360, Note_off_c, 6, 60, 0
8, 33504, Note_on_c, 6, 61, 127
8, 33504, Note_on_c, 6, 73, 127
8, 33792, Note_off_c, 6, 73, 0
8, 33792, Note_off_c, 6, 61, 0
8, 33792, Note_on_c, 6, 60, 127
8, 33792, Note_on_c, 6, 72, 127
8, 33840, Note_off_c, 6, 72, 0
8, 33840, Note_off_c, 6, 60, 0
8, 33936, Note_on_c, 6, 60, 127
8, 33936, Note_on_c, 6, 72, 127
8, 33984, Note_off_c, 6, 72, 0
8, 33984, Note_off_c, 6, 60, 0
8, 34080, Note_on_c, 6, 60, 127
8, 34080, Note_on_c, 6, 72, 127
8, 34128, Note_off_c, 6, 72, 0
8, 34128, Note_off_c, 6, 60, 0
8, 34176, Note_on_c, 6, 67, 127
8, 34176, Note_on_c, 6, 79, 127
8, 34224, Note_off_c, 6, 79, 0
8, 34224, Note_off_c, 6, 67, 0
8, 34224, Note_on_c, 6, 72, 127
8, 34224, Note_on_c, 6, 84, 127
8, 34272, Note_off_c, 6, 84, 0
8, 34272, Note_off_c, 6, 72, 0
8, 34272, Note_on_c, 6, 67, 127
8, 34272, Note_on_c, 6, 79, 127
8, 34320, Note_off_c, 6, 79, 0
8, 34320, Note_off_c, 6, 67, 0
8, 34320, Note_on_c, 6, 66, 127
8, 34320, Note_on_c, 6, 78, 127
8, 34368, Note_off_c, 6, 78, 0
8, 34368, Note_off_c, 6, 66, 0
8, 34368, Note_on_c, 6, 65, 127
8, 34368, Note_on_c, 6, 77, 127
8, 34416, Note_off_c, 6, 77, 0
8, 34416, Note_off_c, 6, 65, 0
8, 34416, Note_on_c, 6, 63, 127
8, 34416, Note_on_c, 6, 75, 127
8, 34464, Note_off_c, 6, 75, 0
8, 34464, Note_off_c, 6, 63, 0
8, 34464, Note_on_c, 6, 60, 127
8, 34464, Note_on_c, 6, 72, 127
8, 34512, Note_off_c, 6, 72, 0
8, 34512, Note_off_c, 6, 60, 0
8, 34512, Note_on_c, 6, 55, 127
8, 34512, Note_on_c, 6, 67, 127
8, 34560, Note_off_c, 6, 67, 0
8, 34560, Note_off_c, 6, 55, 0
8, 34560, Note_on_c, 6, 60, 127
8, 34560, Note_on_c, 6, 72, 127
8, 34608, Note_off_c, 6, 72, 0
8, 34608, Note_off_c, 6, 60, 0
8, 34704, Note_on_c, 6, 60, 127
8, 34704, Note_on_c, 6, 72, 127
8, 34752, Note_off_c, 6, 72, 0
8, 34752, Note_off_c, 6, 60, 0
8, 34848, Note_on_c, 6, 60, 127
8, 34848, Note_on_c, 6, 72, 127
8, 34896, Note_off_c, 6, 72, 0
8, 34896, Note_off_c, 6, 60, 0
8, 35040, Note_on_c, 6, 61, 127
8, 35040, Note_on_c, 6, 73, 127
8, 35328, Note_off_c, 6, 73, 0
8, 35328, Note_off_c, 6, 61, 0
8, 35328, Note_on_c, 6, 60, 127
8, 35328, Note_on_c, 6, 72, 127
8, 35376, Note_off_c, 6, 72, 0
8, 35376, Note_off_c, 6, 60, 0
8, 35472, Note_on_c, 6, 60, 127
8, 35472, Note_on_c, 6, 72, 127
8, 35520, Note_off_c, 6, 72, 0
8, 35520, Note_off_c, 6, 60, 0
8, 35616, Note_on_c, 6, 60, 127
8, 35616, Note_on_c, 6, 72, 127
8, 35664, Note_off_c, 6, 72, 0
8, 35664, Note_off_c, 6, 60, 0
8, 35712, Note_on_c, 6, 67, 127
8, 35712, Note_on_c, 6, 79, 127
8, 35760, Note_off_c, 6, 79, 0
8, 35760, Note_off_c, 6, 67, 0
8, 35760, Note_on_c, 6, 72, 127
8, 35760, Note_on_c, 6, 84, 127
8, 35808, Note_off_c, 6, 84, 0
8, 35808, Note_off_c, 6, 72, 0
8, 35808, Note_on_c, 6, 66, 127
8, 35808, Note_on_c, 6, 78, 127
8, 35856, Note_off_c, 6, 78, 0
8, 35856, Note_off_c, 6, 66, 0
8, 35856, Note_on_c, 6, 67, 127
8, 35856, Note_on_c, 6, 79, 127
8, 35904, Note_off_c, 6, 79, 0
8, 35904, Note_off_c, 6, 67, 0
8, 35904, Note_on_c, 6, 66, 127
8, 35904, Note_on_c, 6, 78, 127
8, 35952, Note_off_c, 6, 78, 0
8, 35952, Note_off_c, 6, 66, 0
8, 35952, Note_on_c, 6, 65, 127
8, 35952, Note_on_c, 6, 77, 127
8, 36000, Note_off_c, 6, 77, 0
8, 36000, Note_off_c, 6, 65, 0
8, 36000, Note_on_c, 6, 63, 127
8, 36000, Note_on_c, 6, 75, 127
8, 36048, Note_off_c, 6, 75, 0
8, 36048, Note_off_c, 6, 63, 0
8, 36048, Note_on_c, 6, 59, 127
8, 36048, Note_on_c, 6, 71, 127
8, 36096, Note_off_c, 6, 71, 0
8, 36096, Note_off_c, 6, 59, 0
8, 36096, Note_on_c, 6, 60, 127
8, 36096, Note_on_c, 6, 72, 127
8, 36144, Note_off_c, 6, 72, 0
8, 36144, Note_off_c, 6, 60, 0
8, 36240, Note_on_c, 6, 60, 127
8, 36240, Note_on_c, 6, 72, 127
8, 36288, Note_off_c, 6, 72, 0
8, 36288, Note_off_c, 6, 60, 0
8, 36384, Note_on_c, 6, 60, 127
8, 36384, Note_on_c, 6, 72, 127
8, 36432, Note_off_c, 6, 72, 0
8, 36432, Note_off_c, 6, 60, 0
8, 36576, Note_on_c, 6, 61, 127
8, 36576, Note_on_c, 6, 73, 127
8, 36864, Note_off_c, 6, 73, 0
8, 36864, Note_off_c, 6, 61, 0
8, 36864, Note_on_c, 6, 60, 127
8, 36864, Note_on_c, 6, 72, 127
8, 36912, Note_off_c, 6, 72, 0
8, 36912, Note_off_c, 6, 60, 0
8, 37008, Note_on_c, 6, 60, 127
8, 37008, Note_on_c, 6, 72, 127
8, 37056, Note_off_c, 6, 72, 0
8, 37056, Note_off_c, 6, 60, 0
8, 37152, Note_on_c, 6, 60, 127
8, 37152, Note_on_c, 6, 72, 127
8, 37200, Note_off_c, 6, 72, 0
8, 37200, Note_off_c, 6, 60, 0
8, 37248, Note_on_c, 6, 67, 127
8, 37248, Note_on_c, 6, 79, 127
8, 37296, Note_off_c, 6, 79, 0
8, 37296, Note_off_c, 6, 67, 0
8, 37296, Note_on_c, 6, 72, 127
8, 37296, Note_on_c, 6, 84, 127
8, 37344, Note_off_c, 6, 84, 0
8, 37344, Note_off_c, 6, 72, 0
8, 37344, Note_on_c, 6, 67, 127
8, 37344, Note_on_c, 6, 79, 127
8, 37392, Note_off_c, 6, 79, 0
8, 37392, Note_off_c, 6, 67, 0
8, 37392, Note_on_c, 6, 66, 127
8, 37392, Note_on_c, 6, 78, 127
8, 37440, Note_off_c, 6, 78, 0
8, 37440, Note_off_c, 6, 66, 0
8, 37440, Note_on_c, 6, 65, 127
8, 37440, Note_on_c, 6, 77, 127
8, 37488, Note_off_c, 6, 77, 0
8, 37488, Note_off_c, 6, 65, 0
8, 37488, Note_on_c, 6, 63, 127
8, 37488, Note_on_c, 6, 75, 127
8, 37536, Note_off_c, 6, 75, 0
8, 37536, Note_off_c, 6, 63, 0
8, 37536, Note_on_c, 6, 60, 127
8, 37536, Note_on_c, 6, 72, 127
8, 37584, Note_off_c, 6, 72, 0
8, 37584, Note_off_c, 6, 60, 0
8, 37584, Note_on_c, 6, 55, 127
8, 37584, Note_on_c, 6, 67, 127
8, 37632, Note_off_c, 6, 67, 0
8, 37632, Note_off_c, 6, 55, 0
8, 62976, Control_c, 6, 10, 64
8, 62976, Control_c, 6, 7, 100
8, 62976, Pitch_bend_c, 6, 8192
8, 62976, Program_c, 6, 60
8, 62976, End_track
9, 0, Start_track
9, 0, Control_c, 7, 0, 0
9, 0, Control_c, 7, 32, 0
9, 0, Program_c, 7, 17
9, 0, Title_t, "Organ"
9, 0, Control_c, 7, 7, 127
9, 0, Control_c, 7, 10, 64
9, 0, Control_c, 7, 7, 100
9, 0, Pitch_bend_c, 7, 8192
9, 0, Control_c, 7, 10, 64
9, 0, Control_c, 7, 7, 100
9, 0, Pitch_bend_c, 7, 8192
9, 0, Control_c, 7, 10, 64
9, 0, Control_c, 7, 7, 100
9, 0, Pitch_bend_c, 7, 8192
9, 0, Control_c, 7, 10, 64
9, 0, Control_c, 7, 7, 100
9, 0, Pitch_bend_c, 7, 8192
9, 0, Note_on_c, 7, 72, 100
9, 0, Note_on_c, 7, 75, 100
9, 0, Note_on_c, 7, 79, 100
9, 0, Note_on_c, 7, 84, 100
9, 96, Note_off_c, 7, 75, 0
9, 96, Note_off_c, 7, 79, 0
9, 96, Note_off_c, 7, 84, 0
9, 96, Note_off_c, 7, 72, 0
9, 96, Note_on_c, 7, 71, 100
9, 96, Note_on_c, 7, 74, 100
9, 96, Note_on_c, 7, 78, 100
9, 96, Note_on_c, 7, 83, 100
9, 192, Note_off_c, 7, 74, 0
9, 192, Note_off_c, 7, 78, 0
9, 192, Note_off_c, 7, 83, 0
9, 192, Note_off_c, 7, 71, 0
9, 192, Note_on_c, 7, 70, 100
9, 192, Note_on_c, 7, 73, 100
9, 192, Note_on_c, 7, 77, 100
9, 192, Note_on_c, 7, 82, 100
9, 288, Note_off_c, 7, 73, 0
9, 288, Note_off_c, 7, 77, 0
9, 288, Note_off_c, 7, 82, 0
9, 288, Note_off_c, 7, 70, 0
9, 288, Note_on_c, 7, 69, 100
9, 288, Note_on_c, 7, 72, 100
9, 288, Note_on_c, 7, 76, 100
9, 288, Note_on_c, 7, 81, 100
9, 384, Note_off_c, 7, 72, 0
9, 384, Note_off_c, 7, 76, 0
9, 384, Note_off_c, 7, 81, 0
9, 384, Note_off_c, 7, 69, 0
9, 384, Note_on_c, 7, 67, 100
9, 384, Note_on_c, 7, 74, 100
9, 384, Note_on_c, 7, 79, 100
9, 384, Note_on_c, 7, 71, 100
9, 480, Note_off_c, 7, 74, 0
9, 480, Note_off_c, 7, 79, 0
9, 480, Note_off_c, 7, 71, 0
9, 480, Note_off_c, 7, 67, 0
9, 480, Note_on_c, 7, 67, 100
9, 480, Note_on_c, 7, 74, 100
9, 480, Note_on_c, 7, 79, 100
9, 480, Note_on_c, 7, 71, 100
9, 576, Note_off_c, 7, 74, 0
9, 576, Note_off_c, 7, 79, 0
9, 576, Note_off_c, 7, 71, 0
9, 576, Note_off_c, 7, 67, 0
9, 576, Note_on_c, 7, 66, 100
9, 576, Note_on_c, 7, 78, 100
9, 576, Note_on_c, 7, 70, 100
9, 576, Note_on_c, 7, 75, 100
9, 672, Note_off_c, 7, 78, 0
9, 672, Note_off_c, 7, 70, 0
9, 672, Note_off_c, 7, 75, 0
9, 672, Note_off_c, 7, 66, 0
9, 672, Note_on_c, 7, 78, 100
9, 672, Note_on_c, 7, 90, 100
9, 672, Note_on_c, 7, 82, 100
9, 672, Note_on_c, 7, 87, 100
9, 768, Note_off_c, 7, 90, 0
9, 768, Note_off_c, 7, 82, 0
9, 768, Note_off_c, 7, 87, 0
9, 768, Note_off_c, 7, 78, 0
9, 3840, Note_on_c, 7, 72, 100
9, 3840, Note_on_c, 7, 75, 100
9, 3840, Note_on_c, 7, 79, 100
9, 3840, Note_on_c, 7, 84, 100
9, 4224, Note_off_c, 7, 75, 0
9, 4224, Note_off_c, 7, 79, 0
9, 4224, Note_off_c, 7, 84, 0
9, 4224, Note_off_c, 7, 72, 0
9, 4224, Note_on_c, 7, 73, 100
9, 4224, Note_on_c, 7, 77, 100
9, 4224, Note_on_c, 7, 80, 100
9, 4224, Note_on_c, 7, 85, 100
9, 4416, Note_off_c, 7, 77, 0
9, 4416, Note_off_c, 7, 80, 0
9, 4416, Note_off_c, 7, 85, 0
9, 4416, Note_off_c, 7, 73, 0
9, 4416, Note_on_c, 7, 75, 100
9, 4416, Note_on_c, 7, 79, 100
9, 4416, Note_on_c, 7, 87, 100
9, 4416, Note_on_c, 7, 82, 100
9, 4608, Note_off_c, 7, 79, 0
9, 4608, Note_off_c, 7, 87, 0
9, 4608, Note_off_c, 7, 82, 0
9, 4608, Note_off_c, 7, 75, 0
9, 4608, Note_on_c, 7, 84, 100
9, 4608, Note_on_c, 7, 79, 100
9, 4608, Note_on_c, 7, 75, 100
9, 4608, Note_on_c, 7, 72, 100
9, 4992, Note_off_c, 7, 79, 0
9, 4992, Note_off_c, 7, 75, 0
9, 4992, Note_off_c, 7, 72, 0
9, 4992, Note_off_c, 7, 84, 0
9, 4992, Note_on_c, 7, 68, 100
9, 4992, Note_on_c, 7, 72, 100
9, 4992, Note_on_c, 7, 75, 100
9, 4992, Note_on_c, 7, 80, 100
9, 5184, Note_off_c, 7, 72, 0
9, 5184, Note_off_c, 7, 75, 0
9, 5184, Note_off_c, 7, 80, 0
9, 5184, Note_off_c, 7, 68, 0
9, 5184, Note_on_c, 7, 67, 100
9, 5184, Note_on_c, 7, 71, 100
9, 5184, Note_on_c, 7, 74, 100
9, 5184, Note_on_c, 7, 79, 100
9, 5376, Note_off_c, 7, 71, 0
9, 5376, Note_off_c, 7, 74, 0
9, 5376, Note_off_c, 7, 79, 0
9, 5376, Note_off_c, 7, 67, 0
9, 5376, Note_on_c, 7, 72, 100
9, 5376, Note_on_c, 7, 75, 100
9, 5376, Note_on_c, 7, 79, 100
9, 5376, Note_on_c, 7, 84, 100
9, 5760, Note_off_c, 7, 75, 0
9, 5760, Note_off_c, 7, 79, 0
9, 5760, Note_off_c, 7, 84, 0
9, 5760, Note_off_c, 7, 72, 0
9, 5760, Note_on_c, 7, 73, 100
9, 5760, Note_on_c, 7, 77, 100
9, 5760, Note_on_c, 7, 80, 100
9, 5760, Note_on_c, 7, 85, 100
9, 5952, Note_off_c, 7, 77, 0
9, 5952, Note_off_c, 7, 80, 0
9, 5952, Note_off_c, 7, 85, 0
9, 5952, Note_off_c, 7, 73, 0
9, 5952, Note_on_c, 7, 75, 100
9, 5952, Note_on_c, 7, 79, 100
9, 5952, Note_on_c, 7, 87, 100
9, 5952, Note_on_c, 7, 82, 100
9, 6144, Note_off_c, 7, 79, 0
9, 6144, Note_off_c, 7, 87, 0
9, 6144, Note_off_c, 7, 82, 0
9, 6144, Note_off_c, 7, 75, 0
9, 6144, Note_on_c, 7, 84, 100
9, 6144, Note_on_c, 7, 79, 100
9, 6144, Note_on_c, 7, 75, 100
9, 6144, Note_on_c, 7, 72, 100
9, 6528, Note_off_c, 7, 79, 0
9, 6528, Note_off_c, 7, 75, 0
9, 6528, Note_off_c, 7, 72, 0
9, 6528, Note_off_c, 7, 84, 0
9, 6528, Note_on_c, 7, 68, 100
9, 6528, Note_on_c, 7, 72, 100
9, 6528, Note_on_c, 7, 75, 100
9, 6528, Note_on_c, 7, 80, 100
9, 6720, Note_off_c, 7, 72, 0
9, 6720, Note_off_c, 7, 75, 0
9, 6720, Note_off_c, 7, 80, 0
9, 6720, Note_off_c, 7, 68, 0
9, 6720, Note_on_c, 7, 67, 100
9, 6720, Note_on_c, 7, 71, 100
9, 6720, Note_on_c, 7, 74, 100
9, 6720, Note_on_c, 7, 79, 100
9, 6912, Note_off_c, 7, 71, 0
9, 6912, Note_off_c, 7, 74, 0
9, 6912, Note_off_c, 7, 79, 0
9, 6912, Note_off_c, 7, 67, 0
9, 16128, Note_on_c, 7, 72, 100
9, 16128, Note_on_c, 7, 75, 100
9, 16128, Note_on_c, 7, 79, 100
9, 16128, Note_on_c, 7, 84, 100
9, 16512, Note_off_c, 7, 75, 0
9, 16512, Note_off_c, 7, 79, 0
9, 16512, Note_off_c, 7, 84, 0
9, 16512, Note_off_c, 7, 72, 0
9, 16512, Note_on_c, 7, 72, 100
9, 16512, Note_on_c, 7, 75, 100
9, 16512, Note_on_c, 7, 79, 100
9, 16512, Note_on_c, 7, 84, 100
9, 16704, Note_off_c, 7, 75, 0
9, 16704, Note_off_c, 7, 79, 0
9, 16704, Note_off_c, 7, 84, 0
9, 16704, Note_off_c, 7, 72, 0
9, 16704, Note_on_c, 7, 70, 100
9, 16704, Note_on_c, 7, 77, 100
9, 16704, Note_on_c, 7, 82, 100
9, 16704, Note_on_c, 7, 74, 100
9, 16896, Note_off_c, 7, 77, 0
9, 16896, Note_off_c, 7, 82, 0
9, 16896, Note_off_c, 7, 74, 0
9, 16896, Note_off_c, 7, 70, 0
9, 16896, Note_on_c, 7, 68, 100
9, 16896, Note_on_c, 7, 75, 100
9, 16896, Note_on_c, 7, 80, 100
9, 16896, Note_on_c, 7, 72, 100
9, 17280, Note_off_c, 7, 75, 0
9, 17280, Note_off_c, 7, 80, 0
9, 17280, Note_off_c, 7, 72, 0
9, 17280, Note_off_c, 7, 68, 0
9, 17280, Note_on_c, 7, 68, 100
9, 17280, Note_on_c, 7, 75, 100
9, 17280, Note_on_c, 7, 80, 100
9, 17280, Note_on_c, 7, 72, 100
9, 17472, Note_off_c, 7, 75, 0
9, 17472, Note_off_c, 7, 80, 0
9, 17472, Note_off_c, 7, 72, 0
9, 17472, Note_off_c, 7, 68, 0
9, 17472, Note_on_c, 7, 70, 100
9, 17472, Note_on_c, 7, 77, 100
9, 17472, Note_on_c, 7, 82, 100
9, 17472, Note_on_c, 7, 74, 100
9, 17664, Note_off_c, 7, 77, 0
9, 17664, Note_off_c, 7, 82, 0
9, 17664, Note_off_c, 7, 74, 0
9, 17664, Note_off_c, 7, 70, 0
9, 17664, Note_on_c, 7, 72, 100
9, 17664, Note_on_c, 7, 75, 100
9, 17664, Note_on_c, 7, 79, 100
9, 17664, Note_on_c, 7, 84, 100
9, 18048, Note_off_c, 7, 75, 0
9, 18048, Note_off_c, 7, 79, 0
9, 18048, Note_off_c, 7, 84, 0
9, 18048, Note_off_c, 7, 72, 0
9, 18048, Note_on_c, 7, 72, 100
9, 18048, Note_on_c, 7, 75, 100
9, 18048, Note_on_c, 7, 79, 100
9, 18048, Note_on_c, 7, 84, 100
9, 18240, Note_off_c, 7, 75, 0
9, 18240, Note_off_c, 7, 79, 0
9, 18240, Note_off_c, 7, 84, 0
9, 18240, Note_off_c, 7, 72, 0
9, 18240, Note_on_c, 7, 70, 100
9, 18240, Note_on_c, 7, 77, 100
9, 18240, Note_on_c, 7, 82, 100
9, 18240, Note_on_c, 7, 74, 100
9, 18432, Note_off_c, 7, 77, 0
9, 18432, Note_off_c, 7, 82, 0
9, 18432, Note_off_c, 7, 74, 0
9, 18432, Note_off_c, 7, 70, 0
9, 18432, Note_on_c, 7, 68, 100
9, 18432, Note_on_c, 7, 75, 100
9, 18432, Note_on_c, 7, 80, 100
9, 18432, Note_on_c, 7, 72, 100
9, 18816, Note_off_c, 7, 75, 0
9, 18816, Note_off_c, 7, 80, 0
9, 18816, Note_off_c, 7, 72, 0
9, 18816, Note_off_c, 7, 68, 0
9, 18816, Note_on_c, 7, 68, 100
9, 18816, Note_on_c, 7, 75, 100
9, 18816, Note_on_c, 7, 80, 100
9, 18816, Note_on_c, 7, 72, 100
9, 19008, Note_off_c, 7, 75, 0
9, 19008, Note_off_c, 7, 80, 0
9, 19008, Note_off_c, 7, 72, 0
9, 19008, Note_off_c, 7, 68, 0
9, 19008, Note_on_c, 7, 70, 100
9, 19008, Note_on_c, 7, 77, 100
9, 19008, Note_on_c, 7, 82, 100
9, 19008, Note_on_c, 7, 74, 100
9, 19200, Note_off_c, 7, 77, 0
9, 19200, Note_off_c, 7, 82, 0
9, 19200, Note_off_c, 7, 74, 0
9, 19200, Note_off_c, 7, 70, 0
9, 22272, Note_on_c, 7, 72, 100
9, 22272, Note_on_c, 7, 75, 100
9, 22272, Note_on_c, 7, 79, 100
9, 22272, Note_on_c, 7, 84, 100
9, 22656, Note_off_c, 7, 75, 0
9, 22656, Note_off_c, 7, 79, 0
9, 22656, Note_off_c, 7, 84, 0
9, 22656, Note_off_c, 7, 72, 0
9, 22656, Note_on_c, 7, 79, 100
9, 22656, Note_on_c, 7, 83, 100
9, 22656, Note_on_c, 7, 74, 100
9, 22656, Note_on_c, 7, 71, 100
9, 23040, Note_off_c, 7, 83, 0
9, 23040, Note_off_c, 7, 74, 0
9, 23040, Note_off_c, 7, 71, 0
9, 23040, Note_off_c, 7, 79, 0
9, 23040, Note_on_c, 7, 68, 100
9, 23040, Note_on_c, 7, 75, 100
9, 23040, Note_on_c, 7, 80, 100
9, 23040, Note_on_c, 7, 72, 100
9, 23424, Note_off_c, 7, 75, 0
9, 23424, Note_off_c, 7, 80, 0
9, 23424, Note_off_c, 7, 72, 0
9, 23424, Note_off_c, 7, 68, 0
9, 23424, Note_on_c, 7, 67, 100
9, 23424, Note_on_c, 7, 74, 100
9, 23424, Note_on_c, 7, 79, 100
9, 23424, Note_on_c, 7, 71, 100
9, 23808, Note_off_c, 7, 74, 0
9, 23808, Note_off_c, 7, 79, 0
9, 23808, Note_off_c, 7, 71, 0
9, 23808, Note_off_c, 7, 67, 0
9, 23808, Note_on_c, 7, 72, 100
9, 23808, Note_on_c, 7, 75, 100
9, 23808, Note_on_c, 7, 79, 100
9, 23808, Note_on_c, 7, 84, 100
9, 24192, Note_off_c, 7, 75, 0
9, 24192, Note_off_c, 7, 79, 0
9, 24192, Note_off_c, 7, 84, 0
9, 24192, Note_off_c, 7, 72, 0
9, 24192, Note_on_c, 7, 79, 100
9, 24192, Note_on_c, 7, 83, 100
9, 24192, Note_on_c, 7, 74, 100
9, 24192, Note_on_c, 7, 71, 100
9, 24576, Note_off_c, 7, 83, 0
9, 24576, Note_off_c, 7, 74, 0
9, 24576, Note_off_c, 7, 71, 0
9, 24576, Note_off_c, 7, 79, 0
9, 24576, Note_on_c, 7, 68, 100
9, 24576, Note_on_c, 7, 75, 100
9, 24576, Note_on_c, 7, 80, 100
9, 24576, Note_on_c, 7, 72, 100
9, 24960, Note_off_c, 7, 75, 0
9, 24960, Note_off_c, 7, 80, 0
9, 24960, Note_off_c, 7, 72, 0
9, 24960, Note_off_c, 7, 68, 0
9, 24960, Note_on_c, 7, 67, 100
9, 24960, Note_on_c, 7, 74, 100
9, 24960, Note_on_c, 7, 79, 100
9, 24960, Note_on_c, 7, 71, 100
9, 25344, Note_off_c, 7, 74, 0
9, 25344, Note_off_c, 7, 79, 0
9, 25344, Note_off_c, 7, 71, 0
9, 25344, Note_off_c, 7, 67, 0
9, 34560, Note_on_c, 7, 72, 100
9, 34560, Note_on_c, 7, 75, 100
9, 34560, Note_on_c, 7, 79, 100
9, 34560, Note_on_c, 7, 84, 100
9, 34944, Note_off_c, 7, 75, 0
9, 34944, Note_off_c, 7, 79, 0
9, 34944, Note_off_c, 7, 84, 0
9, 34944, Note_off_c, 7, 72, 0
9, 34944, Note_on_c, 7, 73, 100
9, 34944, Note_on_c, 7, 77, 100
9, 34944, Note_on_c, 7, 80, 100
9, 34944, Note_on_c, 7, 85, 100
9, 35136, Note_off_c, 7, 77, 0
9, 35136, Note_off_c, 7, 80, 0
9, 35136, Note_off_c, 7, 85, 0
9, 35136, Note_off_c, 7, 73, 0
9, 35136, Note_on_c, 7, 75, 100
9, 35136, Note_on_c, 7, 79, 100
9, 35136, Note_on_c, 7, 87, 100
9, 35136, Note_on_c, 7, 82, 100
9, 35328, Note_off_c, 7, 79, 0
9, 35328, Note_off_c, 7, 87, 0
9, 35328, Note_off_c, 7, 82, 0
9, 35328, Note_off_c, 7, 75, 0
9, 35328, Note_on_c, 7, 84, 100
9, 35328, Note_on_c, 7, 79, 100
9, 35328, Note_on_c, 7, 75, 100
9, 35328, Note_on_c, 7, 72, 100
9, 35712, Note_off_c, 7, 79, 0
9, 35712, Note_off_c, 7, 75, 0
9, 35712, Note_off_c, 7, 72, 0
9, 35712, Note_off_c, 7, 84, 0
9, 35712, Note_on_c, 7, 68, 100
9, 35712, Note_on_c, 7, 72, 100
9, 35712, Note_on_c, 7, 75, 100
9, 35712, Note_on_c, 7, 80, 100
9, 35904, Note_off_c, 7, 72, 0
9, 35904, Note_off_c, 7, 75, 0
9, 35904, Note_off_c, 7, 80, 0
9, 35904, Note_off_c, 7, 68, 0
9, 35904, Note_on_c, 7, 67, 100
9, 35904, Note_on_c, 7, 71, 100
9, 35904, Note_on_c, 7, 74, 100
9, 35904, Note_on_c, 7, 79, 100
9, 36096, Note_off_c, 7, 71, 0
9, 36096, Note_off_c, 7, 74, 0
9, 36096, Note_off_c, 7, 79, 0
9, 36096, Note_off_c, 7, 67, 0
9, 36096, Note_on_c, 7, 72, 100
9, 36096, Note_on_c, 7, 75, 100
9, 36096, Note_on_c, 7, 79, 100
9, 36096, Note_on_c, 7, 84, 100
9, 36480, Note_off_c, 7, 75, 0
9, 36480, Note_off_c, 7, 79, 0
9, 36480, Note_off_c, 7, 84, 0
9, 36480, Note_off_c, 7, 72, 0
9, 36480, Note_on_c, 7, 73, 100
9, 36480, Note_on_c, 7, 77, 100
9, 36480, Note_on_c, 7, 80, 100
9, 36480, Note_on_c, 7, 85, 100
9, 36672, Note_off_c, 7, 77, 0
9, 36672, Note_off_c, 7, 80, 0
9, 36672, Note_off_c, 7, 85, 0
9, 36672, Note_off_c, 7, 73, 0
9, 36672, Note_on_c, 7, 75, 100
9, 36672, Note_on_c, 7, 79, 100
9, 36672, Note_on_c, 7, 87, 100
9, 36672, Note_on_c, 7, 82, 100
9, 36864, Note_off_c, 7, 79, 0
9, 36864, Note_off_c, 7, 87, 0
9, 36864, Note_off_c, 7, 82, 0
9, 36864, Note_off_c, 7, 75, 0
9, 36864, Note_on_c, 7, 84, 100
9, 36864, Note_on_c, 7, 79, 100
9, 36864, Note_on_c, 7, 75, 100
9, 36864, Note_on_c, 7, 72, 100
9, 37248, Note_off_c, 7, 79, 0
9, 37248, Note_off_c, 7, 75, 0
9, 37248, Note_off_c, 7, 72, 0
9, 37248, Note_off_c, 7, 84, 0
9, 37248, Note_on_c, 7, 68, 100
9, 37248, Note_on_c, 7, 72, 100
9, 37248, Note_on_c, 7, 75, 100
9, 37248, Note_on_c, 7, 80, 100
9, 37440, Note_off_c, 7, 72, 0
9, 37440, Note_off_c, 7, 75, 0
9, 37440, Note_off_c, 7, 80, 0
9, 37440, Note_off_c, 7, 68, 0
9, 37440, Note_on_c, 7, 67, 100
9, 37440, Note_on_c, 7, 71, 100
9, 37440, Note_on_c, 7, 74, 100
9, 37440, Note_on_c, 7, 79, 100
9, 37632, Note_off_c, 7, 71, 0
9, 37632, Note_off_c, 7, 74, 0
9, 37632, Note_off_c, 7, 79, 0
9, 37632, Note_off_c, 7, 67, 0
9, 46848, Note_on_c, 7, 72, 100
9, 46848, Note_on_c, 7, 75, 100
9, 46848, Note_on_c, 7, 79, 100
9, 46848, Note_on_c, 7, 84, 100
9, 47232, Note_off_c, 7, 75, 0
9, 47232, Note_off_c, 7, 79, 0
9, 47232, Note_off_c, 7, 84, 0
9, 47232, Note_off_c, 7, 72, 0
9, 47232, Note_on_c, 7, 72, 100
9, 47232, Note_on_c, 7, 75, 100
9, 47232, Note_on_c, 7, 79, 100
9, 47232, Note_on_c, 7, 84, 100
9, 47424, Note_off_c, 7, 75, 0
9, 47424, Note_off_c, 7, 79, 0
9, 47424, Note_off_c, 7, 84, 0
9, 47424, Note_off_c, 7, 72, 0
9, 47424, Note_on_c, 7, 70, 100
9, 47424, Note_on_c, 7, 77, 100
9, 47424, Note_on_c, 7, 82, 100
9, 47424, Note_on_c, 7, 74, 100
9, 47616, Note_off_c, 7, 77, 0
9, 47616, Note_off_c, 7, 82, 0
9, 47616, Note_off_c, 7, 74, 0
9, 47616, Note_off_c, 7, 70, 0
9, 47616, Note_on_c, 7, 68, 100
9, 47616, Note_on_c, 7, 75, 100
9, 47616, Note_on_c, 7, 80, 100
9, 47616, Note_on_c, 7, 72, 100
9, 48000, Note_off_c, 7, 75, 0
9, 48000, Note_off_c, 7, 80, 0
9, 48000, Note_off_c, 7, 72, 0
9, 48000, Note_off_c, 7, 68, 0
9, 48000, Note_on_c, 7, 68, 100
9, 48000, Note_on_c, 7, 75, 100
9, 48000, Note_on_c, 7, 80, 100
9, 48000, Note_on_c, 7, 72, 100
9, 48192, Note_off_c, 7, 75, 0
9, 48192, Note_off_c, 7, 80, 0
9, 48192, Note_off_c, 7, 72, 0
9, 48192, Note_off_c, 7, 68, 0
9, 48192, Note_on_c, 7, 70, 100
9, 48192, Note_on_c, 7, 77, 100
9, 48192, Note_on_c, 7, 82, 100
9, 48192, Note_on_c, 7, 74, 100
9, 48384, Note_off_c, 7, 77, 0
9, 48384, Note_off_c, 7, 82, 0
9, 48384, Note_off_c, 7, 74, 0
9, 48384, Note_off_c, 7, 70, 0
9, 48384, Note_on_c, 7, 72, 100
9, 48384, Note_on_c, 7, 75, 100
9, 48384, Note_on_c, 7, 79, 100
9, 48384, Note_on_c, 7, 84, 100
9, 48768, Note_off_c, 7, 75, 0
9, 48768, Note_off_c, 7, 79, 0
9, 48768, Note_off_c, 7, 84, 0
9, 48768, Note_off_c, 7, 72, 0
9, 48768, Note_on_c, 7, 72, 100
9, 48768, Note_on_c, 7, 75, 100
9, 48768, Note_on_c, 7, 79, 100
9, 48768, Note_on_c, 7, 84, 100
9, 48960, Note_off_c, 7, 75, 0
9, 48960, Note_off_c, 7, 79, 0
9, 48960, Note_off_c, 7, 84, 0
9, 48960, Note_off_c, 7, 72, 0
9, 48960, Note_on_c, 7, 70, 100
9, 48960, Note_on_c, 7, 77, 100
9, 48960, Note_on_c, 7, 82, 100
9, 48960, Note_on_c, 7, 74, 100
9, 49152, Note_off_c, 7, 77, 0
9, 49152, Note_off_c, 7, 82, 0
9, 49152, Note_off_c, 7, 74, 0
9, 49152, Note_off_c, 7, 70, 0
9, 49152, Note_on_c, 7, 68, 100
9, 49152, Note_on_c, 7, 75, 100
9, 49152, Note_on_c, 7, 80, 100
9, 49152, Note_on_c, 7, 72, 100
9, 49536, Note_off_c, 7, 75, 0
9, 49536, Note_off_c, 7, 80, 0
9, 49536, Note_off_c, 7, 72, 0
9, 49536, Note_off_c, 7, 68, 0
9, 49536, Note_on_c, 7, 68, 100
9, 49536, Note_on_c, 7, 75, 100
9, 49536, Note_on_c, 7, 80, 100
9, 49536, Note_on_c, 7, 72, 100
9, 49728, Note_off_c, 7, 75, 0
9, 49728, Note_off_c, 7, 80, 0
9, 49728, Note_off_c, 7, 72, 0
9, 49728, Note_off_c, 7, 68, 0
9, 49728, Note_on_c, 7, 70, 100
9, 49728, Note_on_c, 7, 77, 100
9, 49728, Note_on_c, 7, 82, 100
9, 49728, Note_on_c, 7, 74, 100
9, 49920, Note_off_c, 7, 77, 0
9, 49920, Note_off_c, 7, 82, 0
9, 49920, Note_off_c, 7, 74, 0
9, 49920, Note_off_c, 7, 70, 0
9, 52992, Note_on_c, 7, 72, 100
9, 52992, Note_on_c, 7, 75, 100
9, 52992, Note_on_c, 7, 79, 100
9, 52992, Note_on_c, 7, 84, 100
9, 53376, Note_off_c, 7, 75, 0
9, 53376, Note_off_c, 7, 79, 0
9, 53376, Note_off_c, 7, 84, 0
9, 53376, Note_off_c, 7, 72, 0
9, 53376, Note_on_c, 7, 79, 100
9, 53376, Note_on_c, 7, 83, 100
9, 53376, Note_on_c, 7, 74, 100
9, 53376, Note_on_c, 7, 71, 100
9, 53760, Note_off_c, 7, 83, 0
9, 53760, Note_off_c, 7, 74, 0
9, 53760, Note_off_c, 7, 71, 0
9, 53760, Note_off_c, 7, 79, 0
9, 53760, Note_on_c, 7, 68, 100
9, 53760, Note_on_c, 7, 75, 100
9, 53760, Note_on_c, 7, 80, 100
9, 53760, Note_on_c, 7, 72, 100
9, 54144, Note_off_c, 7, 75, 0
9, 54144, Note_off_c, 7, 80, 0
9, 54144, Note_off_c, 7, 72, 0
9, 54144, Note_off_c, 7, 68, 0
9, 54144, Note_on_c, 7, 67, 100
9, 54144, Note_on_c, 7, 74, 100
9, 54144, Note_on_c, 7, 79, 100
9, 54144, Note_on_c, 7, 71, 100
9, 54528, Note_off_c, 7, 74, 0
9, 54528, Note_off_c, 7, 79, 0
9, 54528, Note_off_c, 7, 71, 0
9, 54528, Note_off_c, 7, 67, 0
9, 54528, Note_on_c, 7, 72, 100
9, 54528, Note_on_c, 7, 75, 100
9, 54528, Note_on_c, 7, 79, 100
9, 54528, Note_on_c, 7, 84, 100
9, 54912, Note_off_c, 7, 75, 0
9, 54912, Note_off_c, 7, 79, 0
9, 54912, Note_off_c, 7, 84, 0
9, 54912, Note_off_c, 7, 72, 0
9, 54912, Note_on_c, 7, 79, 100
9, 54912, Note_on_c, 7, 83, 100
9, 54912, Note_on_c, 7, 74, 100
9, 54912, Note_on_c, 7, 71, 100
9, 55296, Note_off_c, 7, 83, 0
9, 55296, Note_off_c, 7, 74, 0
9, 55296, Note_off_c, 7, 71, 0
9, 55296, Note_off_c, 7, 79, 0
9, 55296, Note_on_c, 7, 68, 100
9, 55296, Note_on_c, 7, 75, 100
9, 55296, Note_on_c, 7, 80, 100
9, 55296, Note_on_c, 7, 72, 100
9, 55680, Note_off_c, 7, 75, 0
9, 55680, Note_off_c, 7, 80, 0
9, 55680, Note_off_c, 7, 72, 0
9, 55680, Note_off_c, 7, 68, 0
9, 55680, Note_on_c, 7, 67, 100
9, 55680, Note_on_c, 7, 74, 100
9, 55680, Note_on_c, 7, 79, 100
9, 55680, Note_on_c, 7, 71, 100
9, 56064, Note_off_c, 7, 74, 0
9, 56064, Note_off_c, 7, 79, 0
9, 56064, Note_off_c, 7, 71, 0
9, 56064, Note_off_c, 7, 67, 0
9, 62976, Control_c, 7, 10, 64
9, 62976, Control_c, 7, 7, 100
9, 62976, Pitch_bend_c, 7, 8192
9, 62976, Program_c, 7, 18
9, 62976, End_track
10, 0, Start_track
10, 0, Control_c, 8, 0, 0
10, 0, Control_c, 8, 32, 0
10, 0, Program_c, 8, 114
10, 0, Title_t, "Steel Drum"
10, 0, Control_c, 8, 7, 127
10, 0, Control_c, 8, 10, 0
10, 0, Control_c, 8, 7, 100
10, 0, Pitch_bend_c, 8, 8192
10, 0, Control_c, 8, 7, 100
10, 0, Pitch_bend_c, 8, 8192
10, 0, Control_c, 8, 7, 100
10, 0, Pitch_bend_c, 8, 8192
10, 0, Program_c, 8, 114
10, 0, Control_c, 8, 7, 100
10, 0, Pitch_bend_c, 8, 8192
10, 0, Program_c, 8, 114
10, 576, Note_on_c, 8, 66, 100
10, 600, Note_off_c, 8, 66, 0
10, 600, Note_on_c, 8, 62, 100
10, 624, Note_off_c, 8, 62, 0
10, 624, Note_on_c, 8, 66, 100
10, 648, Note_off_c, 8, 66, 0
10, 648, Note_on_c, 8, 62, 100
10, 672, Note_off_c, 8, 62, 0
10, 672, Note_on_c, 8, 71, 100
10, 696, Note_off_c, 8, 71, 0
10, 696, Note_on_c, 8, 66, 100
10, 720, Note_off_c, 8, 66, 0
10, 720, Note_on_c, 8, 71, 100
10, 744, Note_off_c, 8, 71, 0
10, 744, Note_on_c, 8, 66, 100
10, 768, Note_off_c, 8, 66, 0
10, 768, Note_on_c, 8, 60, 100
10, 816, Note_off_c, 8, 60, 0
10, 816, Note_on_c, 8, 55, 100
10, 864, Note_off_c, 8, 55, 0
10, 864, Note_on_c, 8, 63, 100
10, 912, Note_off_c, 8, 63, 0
10, 912, Note_on_c, 8, 60, 100
10, 960, Note_off_c, 8, 60, 0
10, 960, Note_on_c, 8, 67, 100
10, 1008, Note_off_c, 8, 67, 0
10, 1008, Note_on_c, 8, 72, 100
10, 1056, Note_off_c, 8, 72, 0
10, 1056, Note_on_c, 8, 67, 100
10, 1104, Note_off_c, 8, 67, 0
10, 1104, Note_on_c, 8, 63, 100
10, 1152, Note_off_c, 8, 63, 0
10, 1152, Note_on_c, 8, 61, 100
10, 1200, Note_off_c, 8, 61, 0
10, 1200, Note_on_c, 8, 65, 100
10, 1248, Note_off_c, 8, 65, 0
10, 1248, Note_on_c, 8, 68, 100
10, 1296, Note_off_c, 8, 68, 0
10, 1296, Note_on_c, 8, 65, 100
10, 1344, Note_off_c, 8, 65, 0
10, 1344, Note_on_c, 8, 63, 100
10, 1392, Note_off_c, 8, 63, 0
10, 1392, Note_on_c, 8, 61, 100
10, 1440, Note_off_c, 8, 61, 0
10, 1440, Note_on_c, 8, 58, 100
10, 1488, Note_off_c, 8, 58, 0
10, 1488, Note_on_c, 8, 61, 100
10, 1536, Note_off_c, 8, 61, 0
10, 1536, Note_on_c, 8, 60, 100
10, 1584, Note_off_c, 8, 60, 0
10, 1584, Note_on_c, 8, 55, 100
10, 1632, Note_off_c, 8, 55, 0
10, 1632, Note_on_c, 8, 63, 100
10, 1680, Note_off_c, 8, 63, 0
10, 1680, Note_on_c, 8, 60, 100
10, 1728, Note_off_c, 8, 60, 0
10, 1728, Note_on_c, 8, 67, 100
10, 1776, Note_off_c, 8, 67, 0
10, 1776, Note_on_c, 8, 72, 100
10, 1824, Note_off_c, 8, 72, 0
10, 1824, Note_on_c, 8, 67, 100
10, 1872, Note_off_c, 8, 67, 0
10, 1872, Note_on_c, 8, 63, 100
10, 1920, Note_off_c, 8, 63, 0
10, 1920, Note_on_c, 8, 67, 100
10, 1968, Note_off_c, 8, 67, 0
10, 1968, Note_on_c, 8, 72, 100
10, 2016, Note_off_c, 8, 72, 0
10, 2016, Note_on_c, 8, 66, 100
10, 2064, Note_off_c, 8, 66, 0
10, 2064, Note_on_c, 8, 67, 100
10, 2112, Note_off_c, 8, 67, 0
10, 2112, Note_on_c, 8, 66, 100
10, 2160, Note_off_c, 8, 66, 0
10, 2160, Note_on_c, 8, 65, 100
10, 2208, Note_off_c, 8, 65, 0
10, 2208, Note_on_c, 8, 63, 100
10, 2256, Note_off_c, 8, 63, 0
10, 2256, Note_on_c, 8, 59, 100
10, 2304, Note_off_c, 8, 59, 0
10, 2304, Note_on_c, 8, 60, 100
10, 2352, Note_off_c, 8, 60, 0
10, 2352, Note_on_c, 8, 55, 100
10, 2400, Note_off_c, 8, 55, 0
10, 2400, Note_on_c, 8, 63, 100
10, 2448, Note_off_c, 8, 63, 0
10, 2448, Note_on_c, 8, 60, 100
10, 2496, Note_off_c, 8, 60, 0
10, 2496, Note_on_c, 8, 67, 100
10, 2544, Note_off_c, 8, 67, 0
10, 2544, Note_on_c, 8, 72, 100
10, 2592, Note_off_c, 8, 72, 0
10, 2592, Note_on_c, 8, 67, 100
10, 2640, Note_off_c, 8, 67, 0
10, 2640, Note_on_c, 8, 63, 100
10, 2688, Note_off_c, 8, 63, 0
10, 2688, Note_on_c, 8, 61, 100
10, 2736, Note_off_c, 8, 61, 0
10, 2736, Note_on_c, 8, 65, 100
10, 2784, Note_off_c, 8, 65, 0
10, 2784, Note_on_c, 8, 68, 100
10, 2832, Note_off_c, 8, 68, 0
10, 2832, Note_on_c, 8, 65, 100
10, 2880, Note_off_c, 8, 65, 0
10, 2880, Note_on_c, 8, 63, 100
10, 2928, Note_off_c, 8, 63, 0
10, 2928, Note_on_c, 8, 61, 100
10, 2976, Note_off_c, 8, 61, 0
10, 2976, Note_on_c, 8, 58, 100
10, 3024, Note_off_c, 8, 58, 0
10, 3024, Note_on_c, 8, 61, 100
10, 3072, Note_off_c, 8, 61, 0
10, 3072, Note_on_c, 8, 60, 100
10, 3120, Note_off_c, 8, 60, 0
10, 3120, Note_on_c, 8, 55, 100
10, 3168, Note_off_c, 8, 55, 0
10, 3168, Note_on_c, 8, 63, 100
10, 3216, Note_off_c, 8, 63, 0
10, 3216, Note_on_c, 8, 60, 100
10, 3264, Note_off_c, 8, 60, 0
10, 3264, Note_on_c, 8, 67, 100
10, 3312, Note_off_c, 8, 67, 0
10, 3312, Note_on_c, 8, 72, 100
10, 3360, Note_off_c, 8, 72, 0
10, 3360, Note_on_c, 8, 67, 100
10, 3408, Note_off_c, 8, 67, 0
10, 3408, Note_on_c, 8, 63, 100
10, 3456, Note_off_c, 8, 63, 0
10, 3456, Note_on_c, 8, 67, 100
10, 3504, Note_off_c, 8, 67, 0
10, 3504, Note_on_c, 8, 72, 100
10, 3552, Note_off_c, 8, 72, 0
10, 3552, Note_on_c, 8, 67, 100
10, 3600, Note_off_c, 8, 67, 0
10, 3600, Note_on_c, 8, 66, 100
10, 3648, Note_off_c, 8, 66, 0
10, 3648, Note_on_c, 8, 65, 100
10, 3696, Note_off_c, 8, 65, 0
10, 3696, Note_on_c, 8, 63, 100
10, 3744, Note_off_c, 8, 63, 0
10, 3744, Note_on_c, 8, 60, 100
10, 3792, Note_off_c, 8, 60, 0
10, 3792, Note_on_c, 8, 55, 100
10, 3840, Note_off_c, 8, 55, 0
10, 3840, Note_on_c, 8, 60, 100
10, 3888, Note_off_c, 8, 60, 0
10, 3888, Note_on_c, 8, 55, 100
10, 3936, Note_off_c, 8, 55, 0
10, 3936, Note_on_c, 8, 63, 100
10, 3984, Note_off_c, 8, 63, 0
10, 3984, Note_on_c, 8, 60, 100
10, 4032, Note_off_c, 8, 60, 0
10, 4032, Note_on_c, 8, 67, 100
10, 4080, Note_off_c, 8, 67, 0
10, 4080, Note_on_c, 8, 72, 100
10, 4128, Note_off_c, 8, 72, 0
10, 4128, Note_on_c, 8, 67, 100
10, 4176, Note_off_c, 8, 67, 0
10, 4176, Note_on_c, 8, 63, 100
10, 4224, Note_off_c, 8, 63, 0
10, 4224, Note_on_c, 8, 61, 100
10, 4272, Note_off_c, 8, 61, 0
10, 4272, Note_on_c, 8, 65, 100
10, 4320, Note_off_c, 8, 65, 0
10, 4320, Note_on_c, 8, 68, 100
10, 4368, Note_off_c, 8, 68, 0
10, 4368, Note_on_c, 8, 65, 100
10, 4416, Note_off_c, 8, 65, 0
10, 4416, Note_on_c, 8, 63, 100
10, 4464, Note_off_c, 8, 63, 0
10, 4464, Note_on_c, 8, 61, 100
10, 4512, Note_off_c, 8, 61, 0
10, 4512, Note_on_c, 8, 58, 100
10, 4560, Note_off_c, 8, 58, 0
10, 4560, Note_on_c, 8, 61, 100
10, 4608, Note_off_c, 8, 61, 0
10, 4608, Note_on_c, 8, 60, 100
10, 4656, Note_off_c, 8, 60, 0
10, 4656, Note_on_c, 8, 55, 100
10, 4704, Note_off_c, 8, 55, 0
10, 4704, Note_on_c, 8, 63, 100
10, 4752, Note_off_c, 8, 63, 0
10, 4752, Note_on_c, 8, 60, 100
10, 4800, Note_off_c, 8, 60, 0
10, 4800, Note_on_c, 8, 67, 100
10, 4848, Note_off_c, 8, 67, 0
10, 4848, Note_on_c, 8, 72, 100
10, 4896, Note_off_c, 8, 72, 0
10, 4896, Note_on_c, 8, 67, 100
10, 4944, Note_off_c, 8, 67, 0
10, 4944, Note_on_c, 8, 63, 100
10, 4992, Note_off_c, 8, 63, 0
10, 4992, Note_on_c, 8, 67, 100
10, 5040, Note_off_c, 8, 67, 0
10, 5040, Note_on_c, 8, 72, 100
10, 5088, Note_off_c, 8, 72, 0
10, 5088, Note_on_c, 8, 66, 100
10, 5136, Note_off_c, 8, 66, 0
10, 5136, Note_on_c, 8, 67, 100
10, 5184, Note_off_c, 8, 67, 0
10, 5184, Note_on_c, 8, 66, 100
10, 5232, Note_off_c, 8, 66, 0
10, 5232, Note_on_c, 8, 65, 100
10, 5280, Note_off_c, 8, 65, 0
10, 5280, Note_on_c, 8, 63, 100
10, 5328, Note_off_c, 8, 63, 0
10, 5328, Note_on_c, 8, 59, 100
10, 5376, Note_off_c, 8, 59, 0
10, 5376, Note_on_c, 8, 60, 100
10, 5424, Note_off_c, 8, 60, 0
10, 5424, Note_on_c, 8, 55, 100
10, 5472, Note_off_c, 8, 55, 0
10, 5472, Note_on_c, 8, 63, 100
10, 5520, Note_off_c, 8, 63, 0
10, 5520, Note_on_c, 8, 60, 100
10, 5568, Note_off_c, 8, 60, 0
10, 5568, Note_on_c, 8, 67, 100
10, 5616, Note_off_c, 8, 67, 0
10, 5616, Note_on_c, 8, 72, 100
10, 5664, Note_off_c, 8, 72, 0
10, 5664, Note_on_c, 8, 67, 100
10, 5712, Note_off_c, 8, 67, 0
10, 5712, Note_on_c, 8, 63, 100
10, 5760, Note_off_c, 8, 63, 0
10, 5760, Note_on_c, 8, 61, 100
10, 5808, Note_off_c, 8, 61, 0
10, 5808, Note_on_c, 8, 65, 100
10, 5856, Note_off_c, 8, 65, 0
10, 5856, Note_on_c, 8, 68, 100
10, 5904, Note_off_c, 8, 68, 0
10, 5904, Note_on_c, 8, 65, 100
10, 5952, Note_off_c, 8, 65, 0
10, 5952, Note_on_c, 8, 63, 100
10, 6000, Note_off_c, 8, 63, 0
10, 6000, Note_on_c, 8, 61, 100
10, 6048, Note_off_c, 8, 61, 0
10, 6048, Note_on_c, 8, 58, 100
10, 6096, Note_off_c, 8, 58, 0
10, 6096, Note_on_c, 8, 61, 100
10, 6144, Note_off_c, 8, 61, 0
10, 6144, Note_on_c, 8, 60, 100
10, 6192, Note_off_c, 8, 60, 0
10, 6192, Note_on_c, 8, 55, 100
10, 6240, Note_off_c, 8, 55, 0
10, 6240, Note_on_c, 8, 63, 100
10, 6288, Note_off_c, 8, 63, 0
10, 6288, Note_on_c, 8, 60, 100
10, 6336, Note_off_c, 8, 60, 0
10, 6336, Note_on_c, 8, 67, 100
10, 6384, Note_off_c, 8, 67, 0
10, 6384, Note_on_c, 8, 72, 100
10, 6432, Note_off_c, 8, 72, 0
10, 6432, Note_on_c, 8, 67, 100
10, 6480, Note_off_c, 8, 67, 0
10, 6480, Note_on_c, 8, 63, 100
10, 6528, Note_off_c, 8, 63, 0
10, 6528, Note_on_c, 8, 67, 100
10, 6576, Note_off_c, 8, 67, 0
10, 6576, Note_on_c, 8, 72, 100
10, 6624, Note_off_c, 8, 72, 0
10, 6624, Note_on_c, 8, 67, 100
10, 6672, Note_off_c, 8, 67, 0
10, 6672, Note_on_c, 8, 66, 100
10, 6720, Note_off_c, 8, 66, 0
10, 6720, Note_on_c, 8, 65, 100
10, 6768, Note_off_c, 8, 65, 0
10, 6768, Note_on_c, 8, 63, 100
10, 6816, Note_off_c, 8, 63, 0
10, 6816, Note_on_c, 8, 60, 100
10, 6864, Note_off_c, 8, 60, 0
10, 6864, Note_on_c, 8, 55, 100
10, 6912, Note_off_c, 8, 55, 0
10, 6912, Note_on_c, 8, 68, 100
10, 6960, Note_off_c, 8, 68, 0
10, 6960, Note_on_c, 8, 72, 100
10, 7008, Note_off_c, 8, 72, 0
10, 7008, Note_on_c, 8, 75, 100
10, 7056, Note_off_c, 8, 75, 0
10, 7056, Note_on_c, 8, 72, 100
10, 7104, Note_off_c, 8, 72, 0
10, 7104, Note_on_c, 8, 75, 100
10, 7152, Note_off_c, 8, 75, 0
10, 7152, Note_on_c, 8, 77, 100
10, 7200, Note_off_c, 8, 77, 0
10, 7200, Note_on_c, 8, 75, 100
10, 7248, Note_off_c, 8, 75, 0
10, 7248, Note_on_c, 8, 74, 100
10, 7296, Note_off_c, 8, 74, 0
10, 7296, Note_on_c, 8, 75, 100
10, 7344, Note_off_c, 8, 75, 0
10, 7344, Note_on_c, 8, 77, 100
10, 7392, Note_off_c, 8, 77, 0
10, 7392, Note_on_c, 8, 75, 100
10, 7440, Note_off_c, 8, 75, 0
10, 7440, Note_on_c, 8, 74, 100
10, 7488, Note_off_c, 8, 74, 0
10, 7488, Note_on_c, 8, 72, 100
10, 7536, Note_off_c, 8, 72, 0
10, 7536, Note_on_c, 8, 71, 100
10, 7584, Note_off_c, 8, 71, 0
10, 7584, Note_on_c, 8, 68, 100
10, 7632, Note_off_c, 8, 68, 0
10, 7632, Note_on_c, 8, 72, 100
10, 7680, Note_off_c, 8, 72, 0
10, 7680, Note_on_c, 8, 71, 100
10, 7728, Note_off_c, 8, 71, 0
10, 7728, Note_on_c, 8, 67, 100
10, 7776, Note_off_c, 8, 67, 0
10, 7776, Note_on_c, 8, 62, 100
10, 7824, Note_off_c, 8, 62, 0
10, 7824, Note_on_c, 8, 67, 100
10, 7872, Note_off_c, 8, 67, 0
10, 7872, Note_on_c, 8, 71, 100
10, 7920, Note_off_c, 8, 71, 0
10, 7920, Note_on_c, 8, 67, 100
10, 7968, Note_off_c, 8, 67, 0
10, 7968, Note_on_c, 8, 71, 100
10, 8016, Note_off_c, 8, 71, 0
10, 8016, Note_on_c, 8, 72, 100
10, 8064, Note_off_c, 8, 72, 0
10, 8064, Note_on_c, 8, 74, 100
10, 8112, Note_off_c, 8, 74, 0
10, 8112, Note_on_c, 8, 72, 100
10, 8160, Note_off_c, 8, 72, 0
10, 8160, Note_on_c, 8, 71, 100
10, 8208, Note_off_c, 8, 71, 0
10, 8208, Note_on_c, 8, 67, 100
10, 8256, Note_off_c, 8, 67, 0
10, 8256, Note_on_c, 8, 62, 100
10, 8304, Note_off_c, 8, 62, 0
10, 8304, Note_on_c, 8, 67, 100
10, 8352, Note_off_c, 8, 67, 0
10, 8352, Note_on_c, 8, 71, 100
10, 8400, Note_off_c, 8, 71, 0
10, 8400, Note_on_c, 8, 67, 100
10, 8448, Note_off_c, 8, 67, 0
10, 8448, Note_on_c, 8, 68, 100
10, 8496, Note_off_c, 8, 68, 0
10, 8496, Note_on_c, 8, 72, 100
10, 8544, Note_off_c, 8, 72, 0
10, 8544, Note_on_c, 8, 75, 100
10, 8592, Note_off_c, 8, 75, 0
10, 8592, Note_on_c, 8, 72, 100
10, 8640, Note_off_c, 8, 72, 0
10, 8640, Note_on_c, 8, 75, 100
10, 8688, Note_off_c, 8, 75, 0
10, 8688, Note_on_c, 8, 77, 100
10, 8736, Note_off_c, 8, 77, 0
10, 8736, Note_on_c, 8, 75, 100
10, 8784, Note_off_c, 8, 75, 0
10, 8784, Note_on_c, 8, 74, 100
10, 8832, Note_off_c, 8, 74, 0
10, 8832, Note_on_c, 8, 75, 100
10, 8880, Note_off_c, 8, 75, 0
10, 8880, Note_on_c, 8, 77, 100
10, 8928, Note_off_c, 8, 77, 0
10, 8928, Note_on_c, 8, 75, 100
10, 8976, Note_off_c, 8, 75, 0
10, 8976, Note_on_c, 8, 74, 100
10, 9024, Note_off_c, 8, 74, 0
10, 9024, Note_on_c, 8, 72, 100
10, 9072, Note_off_c, 8, 72, 0
10, 9072, Note_on_c, 8, 71, 100
10, 9120, Note_off_c, 8, 71, 0
10, 9120, Note_on_c, 8, 68, 100
10, 9168, Note_off_c, 8, 68, 0
10, 9168, Note_on_c, 8, 72, 100
10, 9216, Note_off_c, 8, 72, 0
10, 9216, Note_on_c, 8, 71, 100
10, 9264, Note_off_c, 8, 71, 0
10, 9264, Note_on_c, 8, 67, 100
10, 9312, Note_off_c, 8, 67, 0
10, 9312, Note_on_c, 8, 62, 100
10, 9360, Note_off_c, 8, 62, 0
10, 9360, Note_on_c, 8, 67, 100
10, 9408, Note_off_c, 8, 67, 0
10, 9408, Note_on_c, 8, 71, 100
10, 9456, Note_off_c, 8, 71, 0
10, 9456, Note_on_c, 8, 67, 100
10, 9504, Note_off_c, 8, 67, 0
10, 9504, Note_on_c, 8, 71, 100
10, 9552, Note_off_c, 8, 71, 0
10, 9552, Note_on_c, 8, 72, 100
10, 9600, Note_off_c, 8, 72, 0
10, 9600, Note_on_c, 8, 74, 100
10, 9648, Note_off_c, 8, 74, 0
10, 9648, Note_on_c, 8, 72, 100
10, 9696, Note_off_c, 8, 72, 0
10, 9696, Note_on_c, 8, 71, 100
10, 9744, Note_off_c, 8, 71, 0
10, 9744, Note_on_c, 8, 67, 100
10, 9792, Note_off_c, 8, 67, 0
10, 9792, Note_on_c, 8, 62, 100
10, 9840, Note_off_c, 8, 62, 0
10, 9840, Note_on_c, 8, 67, 100
10, 9888, Note_off_c, 8, 67, 0
10, 9888, Note_on_c, 8, 71, 100
10, 9936, Note_off_c, 8, 71, 0
10, 9936, Note_on_c, 8, 67, 100
10, 9984, Note_off_c, 8, 67, 0
10, 9984, Note_on_c, 8, 68, 100
10, 10032, Note_off_c, 8, 68, 0
10, 10032, Note_on_c, 8, 72, 100
10, 10080, Note_off_c, 8, 72, 0
10, 10080, Note_on_c, 8, 75, 100
10, 10128, Note_off_c, 8, 75, 0
10, 10128, Note_on_c, 8, 72, 100
10, 10176, Note_off_c, 8, 72, 0
10, 10176, Note_on_c, 8, 75, 100
10, 10224, Note_off_c, 8, 75, 0
10, 10224, Note_on_c, 8, 77, 100
10, 10272, Note_off_c, 8, 77, 0
10, 10272, Note_on_c, 8, 75, 100
10, 10320, Note_off_c, 8, 75, 0
10, 10320, Note_on_c, 8, 74, 100
10, 10368, Note_off_c, 8, 74, 0
10, 10368, Note_on_c, 8, 75, 100
10, 10416, Note_off_c, 8, 75, 0
10, 10416, Note_on_c, 8, 77, 100
10, 10464, Note_off_c, 8, 77, 0
10, 10464, Note_on_c, 8, 75, 100
10, 10512, Note_off_c, 8, 75, 0
10, 10512, Note_on_c, 8, 74, 100
10, 10560, Note_off_c, 8, 74, 0
10, 10560, Note_on_c, 8, 72, 100
10, 10608, Note_off_c, 8, 72, 0
10, 10608, Note_on_c, 8, 71, 100
10, 10656, Note_off_c, 8, 71, 0
10, 10656, Note_on_c, 8, 68, 100
10, 10704, Note_off_c, 8, 68, 0
10, 10704, Note_on_c, 8, 72, 100
10, 10752, Note_off_c, 8, 72, 0
10, 10752, Note_on_c, 8, 71, 100
10, 10800, Note_off_c, 8, 71, 0
10, 10800, Note_on_c, 8, 67, 100
10, 10848, Note_off_c, 8, 67, 0
10, 10848, Note_on_c, 8, 62, 100
10, 10896, Note_off_c, 8, 62, 0
10, 10896, Note_on_c, 8, 67, 100
10, 10944, Note_off_c, 8, 67, 0
10, 10944, Note_on_c, 8, 71, 100
10, 10992, Note_off_c, 8, 71, 0
10, 10992, Note_on_c, 8, 67, 100
10, 11040, Note_off_c, 8, 67, 0
10, 11040, Note_on_c, 8, 71, 100
10, 11088, Note_off_c, 8, 71, 0
10, 11088, Note_on_c, 8, 72, 100
10, 11136, Note_off_c, 8, 72, 0
10, 11136, Note_on_c, 8, 74, 100
10, 11184, Note_off_c, 8, 74, 0
10, 11184, Note_on_c, 8, 72, 100
10, 11232, Note_off_c, 8, 72, 0
10, 11232, Note_on_c, 8, 71, 100
10, 11280, Note_off_c, 8, 71, 0
10, 11280, Note_on_c, 8, 67, 100
10, 11328, Note_off_c, 8, 67, 0
10, 11328, Note_on_c, 8, 62, 100
10, 11376, Note_off_c, 8, 62, 0
10, 11376, Note_on_c, 8, 67, 100
10, 11424, Note_off_c, 8, 67, 0
10, 11424, Note_on_c, 8, 71, 100
10, 11472, Note_off_c, 8, 71, 0
10, 11472, Note_on_c, 8, 67, 100
10, 11520, Note_off_c, 8, 67, 0
10, 11520, Note_on_c, 8, 68, 100
10, 11568, Note_off_c, 8, 68, 0
10, 11568, Note_on_c, 8, 72, 100
10, 11616, Note_off_c, 8, 72, 0
10, 11616, Note_on_c, 8, 75, 100
10, 11664, Note_off_c, 8, 75, 0
10, 11664, Note_on_c, 8, 72, 100
10, 11712, Note_off_c, 8, 72, 0
10, 11712, Note_on_c, 8, 75, 100
10, 11760, Note_off_c, 8, 75, 0
10, 11760, Note_on_c, 8, 77, 100
10, 11808, Note_off_c, 8, 77, 0
10, 11808, Note_on_c, 8, 75, 100
10, 11856, Note_off_c, 8, 75, 0
10, 11856, Note_on_c, 8, 74, 100
10, 11904, Note_off_c, 8, 74, 0
10, 11904, Note_on_c, 8, 75, 100
10, 11952, Note_off_c, 8, 75, 0
10, 11952, Note_on_c, 8, 77, 100
10, 12000, Note_off_c, 8, 77, 0
10, 12000, Note_on_c, 8, 75, 100
10, 12048, Note_off_c, 8, 75, 0
10, 12048, Note_on_c, 8, 74, 100
10, 12096, Note_off_c, 8, 74, 0
10, 12096, Note_on_c, 8, 72, 100
10, 12144, Note_off_c, 8, 72, 0
10, 12144, Note_on_c, 8, 71, 100
10, 12192, Note_off_c, 8, 71, 0
10, 12192, Note_on_c, 8, 68, 100
10, 12240, Note_off_c, 8, 68, 0
10, 12240, Note_on_c, 8, 72, 100
10, 12288, Note_off_c, 8, 72, 0
10, 12288, Note_on_c, 8, 71, 100
10, 12336, Note_off_c, 8, 71, 0
10, 12336, Note_on_c, 8, 67, 100
10, 12384, Note_off_c, 8, 67, 0
10, 12384, Note_on_c, 8, 62, 100
10, 12432, Note_off_c, 8, 62, 0
10, 12432, Note_on_c, 8, 67, 100
10, 12480, Note_off_c, 8, 67, 0
10, 12480, Note_on_c, 8, 71, 100
10, 12528, Note_off_c, 8, 71, 0
10, 12528, Note_on_c, 8, 67, 100
10, 12576, Note_off_c, 8, 67, 0
10, 12576, Note_on_c, 8, 71, 100
10, 12624, Note_off_c, 8, 71, 0
10, 12624, Note_on_c, 8, 72, 100
10, 12672, Note_off_c, 8, 72, 0
10, 12672, Note_on_c, 8, 74, 100
10, 12720, Note_off_c, 8, 74, 0
10, 12720, Note_on_c, 8, 72, 100
10, 12768, Note_off_c, 8, 72, 0
10, 12768, Note_on_c, 8, 71, 100
10, 12816, Note_off_c, 8, 71, 0
10, 12816, Note_on_c, 8, 67, 100
10, 12864, Note_off_c, 8, 67, 0
10, 12864, Note_on_c, 8, 62, 100
10, 12912, Note_off_c, 8, 62, 0
10, 12912, Note_on_c, 8, 67, 100
10, 12960, Note_off_c, 8, 67, 0
10, 12960, Note_on_c, 8, 71, 100
10, 13008, Note_off_c, 8, 71, 0
10, 13008, Note_on_c, 8, 67, 100
10, 13056, Note_off_c, 8, 67, 0
10, 16128, Note_on_c, 8, 72, 100
10, 16176, Note_off_c, 8, 72, 0
10, 16176, Note_on_c, 8, 67, 100
10, 16224, Note_off_c, 8, 67, 0
10, 16224, Note_on_c, 8, 72, 100
10, 16272, Note_off_c, 8, 72, 0
10, 16272, Note_on_c, 8, 75, 100
10, 16320, Note_off_c, 8, 75, 0
10, 16320, Note_on_c, 8, 77, 100
10, 16368, Note_off_c, 8, 77, 0
10, 16368, Note_on_c, 8, 78, 100
10, 16416, Note_off_c, 8, 78, 0
10, 16416, Note_on_c, 8, 77, 100
10, 16464, Note_off_c, 8, 77, 0
10, 16464, Note_on_c, 8, 75, 100
10, 16512, Note_off_c, 8, 75, 0
10, 16512, Note_on_c, 8, 72, 100
10, 16560, Note_off_c, 8, 72, 0
10, 16560, Note_on_c, 8, 67, 100
10, 16608, Note_off_c, 8, 67, 0
10, 16608, Note_on_c, 8, 72, 100
10, 16656, Note_off_c, 8, 72, 0
10, 16656, Note_on_c, 8, 75, 100
10, 16704, Note_off_c, 8, 75, 0
10, 16704, Note_on_c, 8, 77, 100
10, 16752, Note_off_c, 8, 77, 0
10, 16752, Note_on_c, 8, 78, 100
10, 16800, Note_off_c, 8, 78, 0
10, 16800, Note_on_c, 8, 77, 100
10, 16848, Note_off_c, 8, 77, 0
10, 16848, Note_on_c, 8, 75, 100
10, 16896, Note_off_c, 8, 75, 0
10, 16896, Note_on_c, 8, 72, 100
10, 16944, Note_off_c, 8, 72, 0
10, 16944, Note_on_c, 8, 67, 100
10, 16992, Note_off_c, 8, 67, 0
10, 16992, Note_on_c, 8, 72, 100
10, 17040, Note_off_c, 8, 72, 0
10, 17040, Note_on_c, 8, 75, 100
10, 17088, Note_off_c, 8, 75, 0
10, 17088, Note_on_c, 8, 77, 100
10, 17136, Note_off_c, 8, 77, 0
10, 17136, Note_on_c, 8, 78, 100
10, 17184, Note_off_c, 8, 78, 0
10, 17184, Note_on_c, 8, 77, 100
10, 17232, Note_off_c, 8, 77, 0
10, 17232, Note_on_c, 8, 75, 100
10, 17280, Note_off_c, 8, 75, 0
10, 17280, Note_on_c, 8, 72, 100
10, 17328, Note_off_c, 8, 72, 0
10, 17328, Note_on_c, 8, 67, 100
10, 17376, Note_off_c, 8, 67, 0
10, 17376, Note_on_c, 8, 72, 100
10, 17424, Note_off_c, 8, 72, 0
10, 17424, Note_on_c, 8, 75, 100
10, 17472, Note_off_c, 8, 75, 0
10, 17472, Note_on_c, 8, 77, 100
10, 17520, Note_off_c, 8, 77, 0
10, 17520, Note_on_c, 8, 74, 100
10, 17568, Note_off_c, 8, 74, 0
10, 17568, Note_on_c, 8, 75, 100
10, 17616, Note_off_c, 8, 75, 0
10, 17616, Note_on_c, 8, 74, 100
10, 17664, Note_off_c, 8, 74, 0
10, 17664, Note_on_c, 8, 72, 100
10, 17712, Note_off_c, 8, 72, 0
10, 17712, Note_on_c, 8, 67, 100
10, 17760, Note_off_c, 8, 67, 0
10, 17760, Note_on_c, 8, 72, 100
10, 17808, Note_off_c, 8, 72, 0
10, 17808, Note_on_c, 8, 75, 100
10, 17856, Note_off_c, 8, 75, 0
10, 17856, Note_on_c, 8, 77, 100
10, 17904, Note_off_c, 8, 77, 0
10, 17904, Note_on_c, 8, 78, 100
10, 17952, Note_off_c, 8, 78, 0
10, 17952, Note_on_c, 8, 77, 100
10, 18000, Note_off_c, 8, 77, 0
10, 18000, Note_on_c, 8, 75, 100
10, 18048, Note_off_c, 8, 75, 0
10, 18048, Note_on_c, 8, 72, 100
10, 18096, Note_off_c, 8, 72, 0
10, 18096, Note_on_c, 8, 67, 100
10, 18144, Note_off_c, 8, 67, 0
10, 18144, Note_on_c, 8, 72, 100
10, 18192, Note_off_c, 8, 72, 0
10, 18192, Note_on_c, 8, 75, 100
10, 18240, Note_off_c, 8, 75, 0
10, 18240, Note_on_c, 8, 77, 100
10, 18288, Note_off_c, 8, 77, 0
10, 18288, Note_on_c, 8, 78, 100
10, 18336, Note_off_c, 8, 78, 0
10, 18336, Note_on_c, 8, 77, 100
10, 18384, Note_off_c, 8, 77, 0
10, 18384, Note_on_c, 8, 75, 100
10, 18432, Note_off_c, 8, 75, 0
10, 18432, Note_on_c, 8, 72, 100
10, 18480, Note_off_c, 8, 72, 0
10, 18480, Note_on_c, 8, 67, 100
10, 18528, Note_off_c, 8, 67, 0
10, 18528, Note_on_c, 8, 72, 100
10, 18576, Note_off_c, 8, 72, 0
10, 18576, Note_on_c, 8, 75, 100
10, 18624, Note_off_c, 8, 75, 0
10, 18624, Note_on_c, 8, 77, 100
10, 18672, Note_off_c, 8, 77, 0
10, 18672, Note_on_c, 8, 78, 100
10, 18720, Note_off_c, 8, 78, 0
10, 18720, Note_on_c, 8, 77, 100
10, 18768, Note_off_c, 8, 77, 0
10, 18768, Note_on_c, 8, 75, 100
10, 18816, Note_off_c, 8, 75, 0
10, 18816, Note_on_c, 8, 72, 100
10, 18864, Note_off_c, 8, 72, 0
10, 18864, Note_on_c, 8, 67, 100
10, 18912, Note_off_c, 8, 67, 0
10, 18912, Note_on_c, 8, 72, 100
10, 18960, Note_off_c, 8, 72, 0
10, 18960, Note_on_c, 8, 75, 100
10, 19008, Note_off_c, 8, 75, 0
10, 19008, Note_on_c, 8, 77, 100
10, 19056, Note_off_c, 8, 77, 0
10, 19056, Note_on_c, 8, 74, 100
10, 19104, Note_off_c, 8, 74, 0
10, 19104, Note_on_c, 8, 75, 100
10, 19152, Note_off_c, 8, 75, 0
10, 19152, Note_on_c, 8, 74, 100
10, 19200, Note_off_c, 8, 74, 0
10, 22272, Note_on_c, 8, 72, 100
10, 22320, Note_off_c, 8, 72, 0
10, 22320, Note_on_c, 8, 75, 100
10, 22368, Note_off_c, 8, 75, 0
10, 22368, Note_on_c, 8, 79, 100
10, 22416, Note_off_c, 8, 79, 0
10, 22416, Note_on_c, 8, 75, 100
10, 22464, Note_off_c, 8, 75, 0
10, 22464, Note_on_c, 8, 72, 100
10, 22512, Note_off_c, 8, 72, 0
10, 22512, Note_on_c, 8, 75, 100
10, 22560, Note_off_c, 8, 75, 0
10, 22560, Note_on_c, 8, 79, 100
10, 22608, Note_off_c, 8, 79, 0
10, 22608, Note_on_c, 8, 75, 100
10, 22656, Note_off_c, 8, 75, 0
10, 22656, Note_on_c, 8, 71, 100
10, 22704, Note_off_c, 8, 71, 0
10, 22704, Note_on_c, 8, 74, 100
10, 22752, Note_off_c, 8, 74, 0
10, 22752, Note_on_c, 8, 79, 100
10, 22800, Note_off_c, 8, 79, 0
10, 22800, Note_on_c, 8, 74, 100
10, 22848, Note_off_c, 8, 74, 0
10, 22848, Note_on_c, 8, 71, 100
10, 22896, Note_off_c, 8, 71, 0
10, 22896, Note_on_c, 8, 74, 100
10, 22944, Note_off_c, 8, 74, 0
10, 22944, Note_on_c, 8, 79, 100
10, 22992, Note_off_c, 8, 79, 0
10, 22992, Note_on_c, 8, 74, 100
10, 23040, Note_off_c, 8, 74, 0
10, 23040, Note_on_c, 8, 68, 100
10, 23088, Note_off_c, 8, 68, 0
10, 23088, Note_on_c, 8, 72, 100
10, 23136, Note_off_c, 8, 72, 0
10, 23136, Note_on_c, 8, 75, 100
10, 23184, Note_off_c, 8, 75, 0
10, 23184, Note_on_c, 8, 72, 100
10, 23232, Note_off_c, 8, 72, 0
10, 23232, Note_on_c, 8, 68, 100
10, 23280, Note_off_c, 8, 68, 0
10, 23280, Note_on_c, 8, 72, 100
10, 23328, Note_off_c, 8, 72, 0
10, 23328, Note_on_c, 8, 75, 100
10, 23376, Note_off_c, 8, 75, 0
10, 23376, Note_on_c, 8, 72, 100
10, 23424, Note_off_c, 8, 72, 0
10, 23424, Note_on_c, 8, 67, 100
10, 23472, Note_off_c, 8, 67, 0
10, 23472, Note_on_c, 8, 71, 100
10, 23520, Note_off_c, 8, 71, 0
10, 23520, Note_on_c, 8, 74, 100
10, 23568, Note_off_c, 8, 74, 0
10, 23568, Note_on_c, 8, 71, 100
10, 23616, Note_off_c, 8, 71, 0
10, 23616, Note_on_c, 8, 67, 100
10, 23664, Note_off_c, 8, 67, 0
10, 23664, Note_on_c, 8, 71, 100
10, 23712, Note_off_c, 8, 71, 0
10, 23712, Note_on_c, 8, 74, 100
10, 23760, Note_off_c, 8, 74, 0
10, 23760, Note_on_c, 8, 71, 100
10, 23808, Note_off_c, 8, 71, 0
10, 23808, Note_on_c, 8, 72, 100
10, 23856, Note_off_c, 8, 72, 0
10, 23856, Note_on_c, 8, 75, 100
10, 23904, Note_off_c, 8, 75, 0
10, 23904, Note_on_c, 8, 79, 100
10, 23952, Note_off_c, 8, 79, 0
10, 23952, Note_on_c, 8, 75, 100
10, 24000, Note_off_c, 8, 75, 0
10, 24000, Note_on_c, 8, 72, 100
10, 24048, Note_off_c, 8, 72, 0
10, 24048, Note_on_c, 8, 75, 100
10, 24096, Note_off_c, 8, 75, 0
10, 24096, Note_on_c, 8, 79, 100
10, 24144, Note_off_c, 8, 79, 0
10, 24144, Note_on_c, 8, 75, 100
10, 24192, Note_off_c, 8, 75, 0
10, 24192, Note_on_c, 8, 71, 100
10, 24240, Note_off_c, 8, 71, 0
10, 24240, Note_on_c, 8, 74, 100
10, 24288, Note_off_c, 8, 74, 0
10, 24288, Note_on_c, 8, 79, 100
10, 24336, Note_off_c, 8, 79, 0
10, 24336, Note_on_c, 8, 74, 100
10, 24384, Note_off_c, 8, 74, 0
10, 24384, Note_on_c, 8, 71, 100
10, 24432, Note_off_c, 8, 71, 0
10, 24432, Note_on_c, 8, 74, 100
10, 24480, Note_off_c, 8, 74, 0
10, 24480, Note_on_c, 8, 79, 100
10, 24528, Note_off_c, 8, 79, 0
10, 24528, Note_on_c, 8, 74, 100
10, 24576, Note_off_c, 8, 74, 0
10, 24576, Note_on_c, 8, 68, 100
10, 24624, Note_off_c, 8, 68, 0
10, 24624, Note_on_c, 8, 72, 100
10, 24672, Note_off_c, 8, 72, 0
10, 24672, Note_on_c, 8, 75, 100
10, 24720, Note_off_c, 8, 75, 0
10, 24720, Note_on_c, 8, 72, 100
10, 24768, Note_off_c, 8, 72, 0
10, 24768, Note_on_c, 8, 68, 100
10, 24816, Note_off_c, 8, 68, 0
10, 24816, Note_on_c, 8, 72, 100
10, 24864, Note_off_c, 8, 72, 0
10, 24864, Note_on_c, 8, 75, 100
10, 24912, Note_off_c, 8, 75, 0
10, 24912, Note_on_c, 8, 72, 100
10, 24960, Note_off_c, 8, 72, 0
10, 24960, Note_on_c, 8, 67, 100
10, 25008, Note_off_c, 8, 67, 0
10, 25008, Note_on_c, 8, 71, 100
10, 25056, Note_off_c, 8, 71, 0
10, 25056, Note_on_c, 8, 74, 100
10, 25104, Note_off_c, 8, 74, 0
10, 25104, Note_on_c, 8, 71, 100
10, 25152, Note_off_c, 8, 71, 0
10, 25152, Note_on_c, 8, 67, 100
10, 25200, Note_off_c, 8, 67, 0
10, 25200, Note_on_c, 8, 71, 100
10, 25248, Note_off_c, 8, 71, 0
10, 25248, Note_on_c, 8, 74, 100
10, 25296, Note_off_c, 8, 74, 0
10, 25296, Note_on_c, 8, 71, 100
10, 25344, Note_off_c, 8, 71, 0
10, 25344, Program_c, 8, 81
10, 25344, Note_on_c, 8, 72, 100
10, 25368, Note_off_c, 8, 72, 0
10, 25368, Note_on_c, 8, 72, 100
10, 25392, Note_off_c, 8, 72, 0
10, 25392, Note_on_c, 8, 72, 100
10, 25416, Note_off_c, 8, 72, 0
10, 25416, Note_on_c, 8, 72, 100
10, 25440, Note_off_c, 8, 72, 0
10, 25440, Note_on_c, 8, 72, 100
10, 25464, Note_off_c, 8, 72, 0
10, 25464, Note_on_c, 8, 72, 100
10, 25488, Note_off_c, 8, 72, 0
10, 25488, Note_on_c, 8, 72, 100
10, 25512, Note_off_c, 8, 72, 0
10, 25512, Note_on_c, 8, 72, 100
10, 25536, Note_off_c, 8, 72, 0
10, 25536, Note_on_c, 8, 74, 100
10, 25560, Note_off_c, 8, 74, 0
10, 25560, Note_on_c, 8, 74, 100
10, 25584, Note_off_c, 8, 74, 0
10, 25584, Note_on_c, 8, 74, 100
10, 25608, Note_off_c, 8, 74, 0
10, 25608, Note_on_c, 8, 74, 100
10, 25632, Note_off_c, 8, 74, 0
10, 25632, Note_on_c, 8, 75, 100
10, 25656, Note_off_c, 8, 75, 0
10, 25656, Note_on_c, 8, 75, 100
10, 25680, Note_off_c, 8, 75, 0
10, 25680, Note_on_c, 8, 75, 100
10, 25704, Note_off_c, 8, 75, 0
10, 25704, Note_on_c, 8, 75, 100
10, 25728, Note_off_c, 8, 75, 0
10, 25728, Note_on_c, 8, 79, 100
10, 25752, Note_off_c, 8, 79, 0
10, 25752, Note_on_c, 8, 79, 100
10, 25776, Note_off_c, 8, 79, 0
10, 25776, Note_on_c, 8, 79, 100
10, 25800, Note_off_c, 8, 79, 0
10, 25800, Note_on_c, 8, 79, 100
10, 25824, Note_off_c, 8, 79, 0
10, 25824, Note_on_c, 8, 75, 100
10, 25848, Note_off_c, 8, 75, 0
10, 25848, Note_on_c, 8, 75, 100
10, 25872, Note_off_c, 8, 75, 0
10, 25872, Note_on_c, 8, 75, 100
10, 25896, Note_off_c, 8, 75, 0
10, 25896, Note_on_c, 8, 75, 100
10, 25920, Note_off_c, 8, 75, 0
10, 25920, Note_on_c, 8, 74, 100
10, 25944, Note_off_c, 8, 74, 0
10, 25944, Note_on_c, 8, 74, 100
10, 25968, Note_off_c, 8, 74, 0
10, 25968, Note_on_c, 8, 74, 100
10, 25992, Note_off_c, 8, 74, 0
10, 25992, Note_on_c, 8, 74, 100
10, 26016, Note_off_c, 8, 74, 0
10, 26016, Note_on_c, 8, 74, 100
10, 26040, Note_off_c, 8, 74, 0
10, 26040, Note_on_c, 8, 74, 100
10, 26064, Note_off_c, 8, 74, 0
10, 26064, Note_on_c, 8, 74, 100
10, 26088, Note_off_c, 8, 74, 0
10, 26088, Note_on_c, 8, 74, 100
10, 26112, Note_off_c, 8, 74, 0
10, 26112, Note_on_c, 8, 75, 100
10, 26136, Note_off_c, 8, 75, 0
10, 26136, Note_on_c, 8, 75, 100
10, 26160, Note_off_c, 8, 75, 0
10, 26160, Note_on_c, 8, 75, 100
10, 26184, Note_off_c, 8, 75, 0
10, 26184, Note_on_c, 8, 75, 100
10, 26208, Note_off_c, 8, 75, 0
10, 26208, Note_on_c, 8, 75, 100
10, 26232, Note_off_c, 8, 75, 0
10, 26232, Note_on_c, 8, 75, 100
10, 26256, Note_off_c, 8, 75, 0
10, 26256, Note_on_c, 8, 75, 100
10, 26280, Note_off_c, 8, 75, 0
10, 26280, Note_on_c, 8, 75, 100
10, 26304, Note_off_c, 8, 75, 0
10, 26304, Note_on_c, 8, 77, 100
10, 26328, Note_off_c, 8, 77, 0
10, 26328, Note_on_c, 8, 77, 100
10, 26352, Note_off_c, 8, 77, 0
10, 26352, Note_on_c, 8, 77, 100
10, 26376, Note_off_c, 8, 77, 0
10, 26376, Note_on_c, 8, 77, 100
10, 26400, Note_off_c, 8, 77, 0
10, 26400, Note_on_c, 8, 77, 100
10, 26424, Note_off_c, 8, 77, 0
10, 26424, Note_on_c, 8, 77, 100
10, 26448, Note_off_c, 8, 77, 0
10, 26448, Note_on_c, 8, 75, 100
10, 26472, Note_off_c, 8, 75, 0
10, 26472, Note_on_c, 8, 75, 100
10, 26496, Note_off_c, 8, 75, 0
10, 26496, Note_on_c, 8, 74, 100
10, 26520, Note_off_c, 8, 74, 0
10, 26520, Note_on_c, 8, 74, 100
10, 26544, Note_off_c, 8, 74, 0
10, 26544, Note_on_c, 8, 74, 100
10, 26568, Note_off_c, 8, 74, 0
10, 26568, Note_on_c, 8, 74, 100
10, 26592, Note_off_c, 8, 74, 0
10, 26592, Note_on_c, 8, 74, 100
10, 26616, Note_off_c, 8, 74, 0
10, 26616, Note_on_c, 8, 74, 100
10, 26640, Note_off_c, 8, 74, 0
10, 26640, Note_on_c, 8, 74, 100
10, 26664, Note_off_c, 8, 74, 0
10, 26664, Note_on_c, 8, 74, 100
10, 26688, Note_off_c, 8, 74, 0
10, 26688, Note_on_c, 8, 71, 100
10, 26712, Note_off_c, 8, 71, 0
10, 26712, Note_on_c, 8, 71, 100
10, 26736, Note_off_c, 8, 71, 0
10, 26736, Note_on_c, 8, 71, 100
10, 26760, Note_off_c, 8, 71, 0
10, 26760, Note_on_c, 8, 71, 100
10, 26784, Note_off_c, 8, 71, 0
10, 26784, Note_on_c, 8, 71, 100
10, 26808, Note_off_c, 8, 71, 0
10, 26808, Note_on_c, 8, 71, 100
10, 26832, Note_off_c, 8, 71, 0
10, 26832, Note_on_c, 8, 71, 100
10, 26856, Note_off_c, 8, 71, 0
10, 26856, Note_on_c, 8, 71, 100
10, 26880, Note_off_c, 8, 71, 0
10, 26880, Note_on_c, 8, 68, 100
10, 26904, Note_off_c, 8, 68, 0
10, 26904, Note_on_c, 8, 68, 100
10, 26928, Note_off_c, 8, 68, 0
10, 26928, Note_on_c, 8, 68, 100
10, 26952, Note_off_c, 8, 68, 0
10, 26952, Note_on_c, 8, 68, 100
10, 26976, Note_off_c, 8, 68, 0
10, 26976, Note_on_c, 8, 67, 100
10, 27000, Note_off_c, 8, 67, 0
10, 27000, Note_on_c, 8, 67, 100
10, 27024, Note_off_c, 8, 67, 0
10, 27024, Note_on_c, 8, 67, 100
10, 27048, Note_off_c, 8, 67, 0
10, 27048, Note_on_c, 8, 67, 100
10, 27072, Note_off_c, 8, 67, 0
10, 27072, Note_on_c, 8, 68, 100
10, 27096, Note_off_c, 8, 68, 0
10, 27096, Note_on_c, 8, 68, 100
10, 27120, Note_off_c, 8, 68, 0
10, 27120, Note_on_c, 8, 68, 100
10, 27144, Note_off_c, 8, 68, 0
10, 27144, Note_on_c, 8, 68, 100
10, 27168, Note_off_c, 8, 68, 0
10, 27168, Note_on_c, 8, 72, 100
10, 27192, Note_off_c, 8, 72, 0
10, 27192, Note_on_c, 8, 72, 100
10, 27216, Note_off_c, 8, 72, 0
10, 27216, Note_on_c, 8, 72, 100
10, 27240, Note_off_c, 8, 72, 0
10, 27240, Note_on_c, 8, 72, 100
10, 27264, Note_off_c, 8, 72, 0
10, 27264, Note_on_c, 8, 74, 100
10, 27288, Note_off_c, 8, 74, 0
10, 27288, Note_on_c, 8, 74, 100
10, 27312, Note_off_c, 8, 74, 0
10, 27312, Note_on_c, 8, 74, 100
10, 27336, Note_off_c, 8, 74, 0
10, 27336, Note_on_c, 8, 74, 100
10, 27360, Note_off_c, 8, 74, 0
10, 27360, Note_on_c, 8, 75, 100
10, 27384, Note_off_c, 8, 75, 0
10, 27384, Note_on_c, 8, 75, 100
10, 27408, Note_off_c, 8, 75, 0
10, 27408, Note_on_c, 8, 75, 100
10, 27432, Note_off_c, 8, 75, 0
10, 27432, Note_on_c, 8, 75, 100
10, 27456, Note_off_c, 8, 75, 0
10, 27456, Note_on_c, 8, 74, 100
10, 27480, Note_off_c, 8, 74, 0
10, 27480, Note_on_c, 8, 74, 100
10, 27504, Note_off_c, 8, 74, 0
10, 27504, Note_on_c, 8, 74, 100
10, 27528, Note_off_c, 8, 74, 0
10, 27528, Note_on_c, 8, 74, 100
10, 27552, Note_off_c, 8, 74, 0
10, 27552, Note_on_c, 8, 68, 100
10, 27576, Note_off_c, 8, 68, 0
10, 27576, Note_on_c, 8, 68, 100
10, 27600, Note_off_c, 8, 68, 0
10, 27600, Note_on_c, 8, 68, 100
10, 27624, Note_off_c, 8, 68, 0
10, 27624, Note_on_c, 8, 68, 100
10, 27648, Note_off_c, 8, 68, 0
10, 27648, Note_on_c, 8, 67, 100
10, 27672, Note_off_c, 8, 67, 0
10, 27672, Note_on_c, 8, 67, 100
10, 27696, Note_off_c, 8, 67, 0
10, 27696, Note_on_c, 8, 67, 100
10, 27720, Note_off_c, 8, 67, 0
10, 27720, Note_on_c, 8, 67, 100
10, 27744, Note_off_c, 8, 67, 0
10, 27744, Note_on_c, 8, 66, 100
10, 27768, Note_off_c, 8, 66, 0
10, 27768, Note_on_c, 8, 66, 100
10, 27792, Note_off_c, 8, 66, 0
10, 27792, Note_on_c, 8, 66, 100
10, 27816, Note_off_c, 8, 66, 0
10, 27816, Note_on_c, 8, 66, 100
10, 27840, Note_off_c, 8, 66, 0
10, 27840, Note_on_c, 8, 67, 100
10, 27864, Note_off_c, 8, 67, 0
10, 27864, Note_on_c, 8, 67, 100
10, 27888, Note_off_c, 8, 67, 0
10, 27888, Note_on_c, 8, 67, 100
10, 27912, Note_off_c, 8, 67, 0
10, 27912, Note_on_c, 8, 67, 100
10, 27936, Note_off_c, 8, 67, 0
10, 27936, Note_on_c, 8, 71, 100
10, 27960, Note_off_c, 8, 71, 0
10, 27960, Note_on_c, 8, 71, 100
10, 27984, Note_off_c, 8, 71, 0
10, 27984, Note_on_c, 8, 71, 100
10, 28008, Note_off_c, 8, 71, 0
10, 28008, Note_on_c, 8, 71, 100
10, 28032, Note_off_c, 8, 71, 0
10, 28032, Note_on_c, 8, 74, 100
10, 28056, Note_off_c, 8, 74, 0
10, 28056, Note_on_c, 8, 74, 100
10, 28080, Note_off_c, 8, 74, 0
10, 28080, Note_on_c, 8, 74, 100
10, 28104, Note_off_c, 8, 74, 0
10, 28104, Note_on_c, 8, 74, 100
10, 28128, Note_off_c, 8, 74, 0
10, 28128, Note_on_c, 8, 71, 100
10, 28152, Note_off_c, 8, 71, 0
10, 28152, Note_on_c, 8, 71, 100
10, 28176, Note_off_c, 8, 71, 0
10, 28176, Note_on_c, 8, 71, 100
10, 28200, Note_off_c, 8, 71, 0
10, 28200, Note_on_c, 8, 71, 100
10, 28224, Note_off_c, 8, 71, 0
10, 28224, Note_on_c, 8, 67, 100
10, 28248, Note_off_c, 8, 67, 0
10, 28248, Note_on_c, 8, 67, 100
10, 28272, Note_off_c, 8, 67, 0
10, 28272, Note_on_c, 8, 67, 100
10, 28296, Note_off_c, 8, 67, 0
10, 28296, Note_on_c, 8, 67, 100
10, 28320, Note_off_c, 8, 67, 0
10, 28320, Note_on_c, 8, 71, 100
10, 28344, Note_off_c, 8, 71, 0
10, 28344, Note_on_c, 8, 71, 100
10, 28368, Note_off_c, 8, 71, 0
10, 28368, Note_on_c, 8, 71, 100
10, 28392, Note_off_c, 8, 71, 0
10, 28392, Note_on_c, 8, 71, 100
10, 28416, Note_off_c, 8, 71, 0
10, 28416, Note_on_c, 8, 72, 100
10, 28440, Note_off_c, 8, 72, 0
10, 28440, Note_on_c, 8, 72, 100
10, 28464, Note_off_c, 8, 72, 0
10, 28464, Note_on_c, 8, 72, 100
10, 28488, Note_off_c, 8, 72, 0
10, 28488, Note_on_c, 8, 72, 100
10, 28512, Note_off_c, 8, 72, 0
10, 28512, Note_on_c, 8, 72, 100
10, 28536, Note_off_c, 8, 72, 0
10, 28536, Note_on_c, 8, 72, 100
10, 28560, Note_off_c, 8, 72, 0
10, 28560, Note_on_c, 8, 72, 100
10, 28584, Note_off_c, 8, 72, 0
10, 28584, Note_on_c, 8, 72, 100
10, 28608, Note_off_c, 8, 72, 0
10, 28608, Note_on_c, 8, 74, 100
10, 28632, Note_off_c, 8, 74, 0
10, 28632, Note_on_c, 8, 74, 100
10, 28656, Note_off_c, 8, 74, 0
10, 28656, Note_on_c, 8, 74, 100
10, 28680, Note_off_c, 8, 74, 0
10, 28680, Note_on_c, 8, 74, 100
10, 28704, Note_off_c, 8, 74, 0
10, 28704, Note_on_c, 8, 75, 100
10, 28728, Note_off_c, 8, 75, 0
10, 28728, Note_on_c, 8, 75, 100
10, 28752, Note_off_c, 8, 75, 0
10, 28752, Note_on_c, 8, 75, 100
10, 28776, Note_off_c, 8, 75, 0
10, 28776, Note_on_c, 8, 75, 100
10, 28800, Note_off_c, 8, 75, 0
10, 28800, Note_on_c, 8, 79, 100
10, 28824, Note_off_c, 8, 79, 0
10, 28824, Note_on_c, 8, 79, 100
10, 28848, Note_off_c, 8, 79, 0
10, 28848, Note_on_c, 8, 79, 100
10, 28872, Note_off_c, 8, 79, 0
10, 28872, Note_on_c, 8, 79, 100
10, 28896, Note_off_c, 8, 79, 0
10, 28896, Note_on_c, 8, 75, 100
10, 28920, Note_off_c, 8, 75, 0
10, 28920, Note_on_c, 8, 75, 100
10, 28944, Note_off_c, 8, 75, 0
10, 28944, Note_on_c, 8, 75, 100
10, 28968, Note_off_c, 8, 75, 0
10, 28968, Note_on_c, 8, 75, 100
10, 28992, Note_off_c, 8, 75, 0
10, 28992, Note_on_c, 8, 74, 100
10, 29016, Note_off_c, 8, 74, 0
10, 29016, Note_on_c, 8, 74, 100
10, 29040, Note_off_c, 8, 74, 0
10, 29040, Note_on_c, 8, 74, 100
10, 29064, Note_off_c, 8, 74, 0
10, 29064, Note_on_c, 8, 74, 100
10, 29088, Note_off_c, 8, 74, 0
10, 29088, Note_on_c, 8, 74, 100
10, 29112, Note_off_c, 8, 74, 0
10, 29112, Note_on_c, 8, 74, 100
10, 29136, Note_off_c, 8, 74, 0
10, 29136, Note_on_c, 8, 74, 100
10, 29160, Note_off_c, 8, 74, 0
10, 29160, Note_on_c, 8, 74, 100
10, 29184, Note_off_c, 8, 74, 0
10, 29184, Note_on_c, 8, 75, 100
10, 29208, Note_off_c, 8, 75, 0
10, 29208, Note_on_c, 8, 75, 100
10, 29232, Note_off_c, 8, 75, 0
10, 29232, Note_on_c, 8, 75, 100
10, 29256, Note_off_c, 8, 75, 0
10, 29256, Note_on_c, 8, 75, 100
10, 29280, Note_off_c, 8, 75, 0
10, 29280, Note_on_c, 8, 75, 100
10, 29304, Note_off_c, 8, 75, 0
10, 29304, Note_on_c, 8, 75, 100
10, 29328, Note_off_c, 8, 75, 0
10, 29328, Note_on_c, 8, 75, 100
10, 29352, Note_off_c, 8, 75, 0
10, 29352, Note_on_c, 8, 75, 100
10, 29376, Note_off_c, 8, 75, 0
10, 29376, Note_on_c, 8, 77, 100
10, 29400, Note_off_c, 8, 77, 0
10, 29400, Note_on_c, 8, 77, 100
10, 29424, Note_off_c, 8, 77, 0
10, 29424, Note_on_c, 8, 77, 100
10, 29448, Note_off_c, 8, 77, 0
10, 29448, Note_on_c, 8, 77, 100
10, 29472, Note_off_c, 8, 77, 0
10, 29472, Note_on_c, 8, 77, 100
10, 29496, Note_off_c, 8, 77, 0
10, 29496, Note_on_c, 8, 77, 100
10, 29520, Note_off_c, 8, 77, 0
10, 29520, Note_on_c, 8, 75, 100
10, 29544, Note_off_c, 8, 75, 0
10, 29544, Note_on_c, 8, 75, 100
10, 29568, Note_off_c, 8, 75, 0
10, 29568, Note_on_c, 8, 74, 100
10, 29592, Note_off_c, 8, 74, 0
10, 29592, Note_on_c, 8, 74, 100
10, 29616, Note_off_c, 8, 74, 0
10, 29616, Note_on_c, 8, 74, 100
10, 29640, Note_off_c, 8, 74, 0
10, 29640, Note_on_c, 8, 74, 100
10, 29664, Note_off_c, 8, 74, 0
10, 29664, Note_on_c, 8, 74, 100
10, 29688, Note_off_c, 8, 74, 0
10, 29688, Note_on_c, 8, 74, 100
10, 29712, Note_off_c, 8, 74, 0
10, 29712, Note_on_c, 8, 74, 100
10, 29736, Note_off_c, 8, 74, 0
10, 29736, Note_on_c, 8, 74, 100
10, 29760, Note_off_c, 8, 74, 0
10, 29760, Note_on_c, 8, 71, 100
10, 29784, Note_off_c, 8, 71, 0
10, 29784, Note_on_c, 8, 71, 100
10, 29808, Note_off_c, 8, 71, 0
10, 29808, Note_on_c, 8, 71, 100
10, 29832, Note_off_c, 8, 71, 0
10, 29832, Note_on_c, 8, 71, 100
10, 29856, Note_off_c, 8, 71, 0
10, 29856, Note_on_c, 8, 71, 100
10, 29880, Note_off_c, 8, 71, 0
10, 29880, Note_on_c, 8, 71, 100
10, 29904, Note_off_c, 8, 71, 0
10, 29904, Note_on_c, 8, 71, 100
10, 29928, Note_off_c, 8, 71, 0
10, 29928, Note_on_c, 8, 71, 100
10, 29952, Note_off_c, 8, 71, 0
10, 29952, Note_on_c, 8, 68, 100
10, 29976, Note_off_c, 8, 68, 0
10, 29976, Note_on_c, 8, 68, 100
10, 30000, Note_off_c, 8, 68, 0
10, 30000, Note_on_c, 8, 68, 100
10, 30024, Note_off_c, 8, 68, 0
10, 30024, Note_on_c, 8, 68, 100
10, 30048, Note_off_c, 8, 68, 0
10, 30048, Note_on_c, 8, 67, 100
10, 30072, Note_off_c, 8, 67, 0
10, 30072, Note_on_c, 8, 67, 100
10, 30096, Note_off_c, 8, 67, 0
10, 30096, Note_on_c, 8, 67, 100
10, 30120, Note_off_c, 8, 67, 0
10, 30120, Note_on_c, 8, 67, 100
10, 30144, Note_off_c, 8, 67, 0
10, 30144, Note_on_c, 8, 68, 100
10, 30168, Note_off_c, 8, 68, 0
10, 30168, Note_on_c, 8, 68, 100
10, 30192, Note_off_c, 8, 68, 0
10, 30192, Note_on_c, 8, 68, 100
10, 30216, Note_off_c, 8, 68, 0
10, 30216, Note_on_c, 8, 68, 100
10, 30240, Note_off_c, 8, 68, 0
10, 30240, Note_on_c, 8, 72, 100
10, 30264, Note_off_c, 8, 72, 0
10, 30264, Note_on_c, 8, 72, 100
10, 30288, Note_off_c, 8, 72, 0
10, 30288, Note_on_c, 8, 72, 100
10, 30312, Note_off_c, 8, 72, 0
10, 30312, Note_on_c, 8, 72, 100
10, 30336, Note_off_c, 8, 72, 0
10, 30336, Note_on_c, 8, 74, 100
10, 30360, Note_off_c, 8, 74, 0
10, 30360, Note_on_c, 8, 74, 100
10, 30384, Note_off_c, 8, 74, 0
10, 30384, Note_on_c, 8, 74, 100
10, 30408, Note_off_c, 8, 74, 0
10, 30408, Note_on_c, 8, 74, 100
10, 30432, Note_off_c, 8, 74, 0
10, 30432, Note_on_c, 8, 75, 100
10, 30456, Note_off_c, 8, 75, 0
10, 30456, Note_on_c, 8, 75, 100
10, 30480, Note_off_c, 8, 75, 0
10, 30480, Note_on_c, 8, 75, 100
10, 30504, Note_off_c, 8, 75, 0
10, 30504, Note_on_c, 8, 75, 100
10, 30528, Note_off_c, 8, 75, 0
10, 30528, Note_on_c, 8, 74, 100
10, 30552, Note_off_c, 8, 74, 0
10, 30552, Note_on_c, 8, 74, 100
10, 30576, Note_off_c, 8, 74, 0
10, 30576, Note_on_c, 8, 74, 100
10, 30600, Note_off_c, 8, 74, 0
10, 30600, Note_on_c, 8, 74, 100
10, 30624, Note_off_c, 8, 74, 0
10, 30624, Note_on_c, 8, 68, 100
10, 30648, Note_off_c, 8, 68, 0
10, 30648, Note_on_c, 8, 68, 100
10, 30672, Note_off_c, 8, 68, 0
10, 30672, Note_on_c, 8, 68, 100
10, 30696, Note_off_c, 8, 68, 0
10, 30696, Note_on_c, 8, 68, 100
10, 30720, Note_off_c, 8, 68, 0
10, 30720, Note_on_c, 8, 67, 100
10, 30744, Note_off_c, 8, 67, 0
10, 30744, Note_on_c, 8, 67, 100
10, 30768, Note_off_c, 8, 67, 0
10, 30768, Note_on_c, 8, 67, 100
10, 30792, Note_off_c, 8, 67, 0
10, 30792, Note_on_c, 8, 67, 100
10, 30816, Note_off_c, 8, 67, 0
10, 30816, Note_on_c, 8, 66, 100
10, 30840, Note_off_c, 8, 66, 0
10, 30840, Note_on_c, 8, 66, 100
10, 30864, Note_off_c, 8, 66, 0
10, 30864, Note_on_c, 8, 66, 100
10, 30888, Note_off_c, 8, 66, 0
10, 30888, Note_on_c, 8, 66, 100
10, 30912, Note_off_c, 8, 66, 0
10, 30912, Note_on_c, 8, 67, 100
10, 30936, Note_off_c, 8, 67, 0
10, 30936, Note_on_c, 8, 67, 100
10, 30960, Note_off_c, 8, 67, 0
10, 30960, Note_on_c, 8, 67, 100
10, 30984, Note_off_c, 8, 67, 0
10, 30984, Note_on_c, 8, 67, 100
10, 31008, Note_off_c, 8, 67, 0
10, 31008, Note_on_c, 8, 71, 100
10, 31032, Note_off_c, 8, 71, 0
10, 31032, Note_on_c, 8, 71, 100
10, 31056, Note_off_c, 8, 71, 0
10, 31056, Note_on_c, 8, 71, 100
10, 31080, Note_off_c, 8, 71, 0
10, 31080, Note_on_c, 8, 71, 100
10, 31104, Note_off_c, 8, 71, 0
10, 31104, Note_on_c, 8, 74, 100
10, 31128, Note_off_c, 8, 74, 0
10, 31128, Note_on_c, 8, 74, 100
10, 31152, Note_off_c, 8, 74, 0
10, 31152, Note_on_c, 8, 74, 100
10, 31176, Note_off_c, 8, 74, 0
10, 31176, Note_on_c, 8, 74, 100
10, 31200, Note_off_c, 8, 74, 0
10, 31200, Note_on_c, 8, 71, 100
10, 31224, Note_off_c, 8, 71, 0
10, 31224, Note_on_c, 8, 71, 100
10, 31248, Note_off_c, 8, 71, 0
10, 31248, Note_on_c, 8, 71, 100
10, 31272, Note_off_c, 8, 71, 0
10, 31272, Note_on_c, 8, 71, 100
10, 31296, Note_off_c, 8, 71, 0
10, 31296, Note_on_c, 8, 67, 100
10, 31320, Note_off_c, 8, 67, 0
10, 31320, Note_on_c, 8, 67, 100
10, 31344, Note_off_c, 8, 67, 0
10, 31344, Note_on_c, 8, 67, 100
10, 31368, Note_off_c, 8, 67, 0
10, 31368, Note_on_c, 8, 67, 100
10, 31392, Note_off_c, 8, 67, 0
10, 31392, Note_on_c, 8, 71, 100
10, 31416, Note_off_c, 8, 71, 0
10, 31416, Note_on_c, 8, 71, 100
10, 31440, Note_off_c, 8, 71, 0
10, 31440, Note_on_c, 8, 71, 100
10, 31464, Note_off_c, 8, 71, 0
10, 31464, Note_on_c, 8, 71, 100
10, 31488, Note_off_c, 8, 71, 0
10, 31488, Note_on_c, 8, 60, 100
10, 31536, Note_off_c, 8, 60, 0
10, 31536, Note_on_c, 8, 55, 100
10, 31584, Note_off_c, 8, 55, 0
10, 31584, Note_on_c, 8, 63, 100
10, 31632, Note_off_c, 8, 63, 0
10, 31632, Note_on_c, 8, 60, 100
10, 31680, Note_off_c, 8, 60, 0
10, 31680, Note_on_c, 8, 67, 100
10, 31728, Note_off_c, 8, 67, 0
10, 31728, Note_on_c, 8, 72, 100
10, 31776, Note_off_c, 8, 72, 0
10, 31776, Note_on_c, 8, 67, 100
10, 31824, Note_off_c, 8, 67, 0
10, 31824, Note_on_c, 8, 63, 100
10, 31872, Note_off_c, 8, 63, 0
10, 31872, Note_on_c, 8, 61, 100
10, 31920, Note_off_c, 8, 61, 0
10, 31920, Note_on_c, 8, 65, 100
10, 31968, Note_off_c, 8, 65, 0
10, 31968, Note_on_c, 8, 68, 100
10, 32016, Note_off_c, 8, 68, 0
10, 32016, Note_on_c, 8, 65, 100
10, 32064, Note_off_c, 8, 65, 0
10, 32064, Note_on_c, 8, 63, 100
10, 32112, Note_off_c, 8, 63, 0
10, 32112, Note_on_c, 8, 61, 100
10, 32160, Note_off_c, 8, 61, 0
10, 32160, Note_on_c, 8, 58, 100
10, 32208, Note_off_c, 8, 58, 0
10, 32208, Note_on_c, 8, 61, 100
10, 32256, Note_off_c, 8, 61, 0
10, 32256, Note_on_c, 8, 60, 100
10, 32304, Note_off_c, 8, 60, 0
10, 32304, Note_on_c, 8, 55, 100
10, 32352, Note_off_c, 8, 55, 0
10, 32352, Note_on_c, 8, 63, 100
10, 32400, Note_off_c, 8, 63, 0
10, 32400, Note_on_c, 8, 60, 100
10, 32448, Note_off_c, 8, 60, 0
10, 32448, Note_on_c, 8, 67, 100
10, 32496, Note_off_c, 8, 67, 0
10, 32496, Note_on_c, 8, 72, 100
10, 32544, Note_off_c, 8, 72, 0
10, 32544, Note_on_c, 8, 67, 100
10, 32592, Note_off_c, 8, 67, 0
10, 32592, Note_on_c, 8, 63, 100
10, 32640, Note_off_c, 8, 63, 0
10, 32640, Note_on_c, 8, 67, 100
10, 32688, Note_off_c, 8, 67, 0
10, 32688, Note_on_c, 8, 72, 100
10, 32736, Note_off_c, 8, 72, 0
10, 32736, Note_on_c, 8, 66, 100
10, 32784, Note_off_c, 8, 66, 0
10, 32784, Note_on_c, 8, 67, 100
10, 32832, Note_off_c, 8, 67, 0
10, 32832, Note_on_c, 8, 66, 100
10, 32880, Note_off_c, 8, 66, 0
10, 32880, Note_on_c, 8, 65, 100
10, 32928, Note_off_c, 8, 65, 0
10, 32928, Note_on_c, 8, 63, 100
10, 32976, Note_off_c, 8, 63, 0
10, 32976, Note_on_c, 8, 59, 100
10, 33024, Note_off_c, 8, 59, 0
10, 33024, Note_on_c, 8, 60, 100
10, 33072, Note_off_c, 8, 60, 0
10, 33072, Note_on_c, 8, 55, 100
10, 33120, Note_off_c, 8, 55, 0
10, 33120, Note_on_c, 8, 63, 100
10, 33168, Note_off_c, 8, 63, 0
10, 33168, Note_on_c, 8, 60, 100
10, 33216, Note_off_c, 8, 60, 0
10, 33216, Note_on_c, 8, 67, 100
10, 33264, Note_off_c, 8, 67, 0
10, 33264, Note_on_c, 8, 72, 100
10, 33312, Note_off_c, 8, 72, 0
10, 33312, Note_on_c, 8, 67, 100
10, 33360, Note_off_c, 8, 67, 0
10, 33360, Note_on_c, 8, 63, 100
10, 33408, Note_off_c, 8, 63, 0
10, 33408, Note_on_c, 8, 61, 100
10, 33456, Note_off_c, 8, 61, 0
10, 33456, Note_on_c, 8, 65, 100
10, 33504, Note_off_c, 8, 65, 0
10, 33504, Note_on_c, 8, 68, 100
10, 33552, Note_off_c, 8, 68, 0
10, 33552, Note_on_c, 8, 65, 100
10, 33600, Note_off_c, 8, 65, 0
10, 33600, Note_on_c, 8, 63, 100
10, 33648, Note_off_c, 8, 63, 0
10, 33648, Note_on_c, 8, 61, 100
10, 33696, Note_off_c, 8, 61, 0
10, 33696, Note_on_c, 8, 58, 100
10, 33744, Note_off_c, 8, 58, 0
10, 33744, Note_on_c, 8, 61, 100
10, 33792, Note_off_c, 8, 61, 0
10, 33792, Note_on_c, 8, 60, 100
10, 33840, Note_off_c, 8, 60, 0
10, 33840, Note_on_c, 8, 55, 100
10, 33888, Note_off_c, 8, 55, 0
10, 33888, Note_on_c, 8, 63, 100
10, 33936, Note_off_c, 8, 63, 0
10, 33936, Note_on_c, 8, 60, 100
10, 33984, Note_off_c, 8, 60, 0
10, 33984, Note_on_c, 8, 67, 100
10, 34032, Note_off_c, 8, 67, 0
10, 34032, Note_on_c, 8, 72, 100
10, 34080, Note_off_c, 8, 72, 0
10, 34080, Note_on_c, 8, 67, 100
10, 34128, Note_off_c, 8, 67, 0
10, 34128, Note_on_c, 8, 63, 100
10, 34176, Note_off_c, 8, 63, 0
10, 34176, Note_on_c, 8, 67, 100
10, 34224, Note_off_c, 8, 67, 0
10, 34224, Note_on_c, 8, 72, 100
10, 34272, Note_off_c, 8, 72, 0
10, 34272, Note_on_c, 8, 67, 100
10, 34320, Note_off_c, 8, 67, 0
10, 34320, Note_on_c, 8, 66, 100
10, 34368, Note_off_c, 8, 66, 0
10, 34368, Note_on_c, 8, 65, 100
10, 34416, Note_off_c, 8, 65, 0
10, 34416, Note_on_c, 8, 63, 100
10, 34464, Note_off_c, 8, 63, 0
10, 34464, Note_on_c, 8, 60, 100
10, 34512, Note_off_c, 8, 60, 0
10, 34512, Note_on_c, 8, 55, 100
10, 34560, Note_off_c, 8, 55, 0
10, 34560, Note_on_c, 8, 60, 100
10, 34608, Note_off_c, 8, 60, 0
10, 34608, Note_on_c, 8, 55, 100
10, 34656, Note_off_c, 8, 55, 0
10, 34656, Note_on_c, 8, 63, 100
10, 34704, Note_off_c, 8, 63, 0
10, 34704, Note_on_c, 8, 60, 100
10, 34752, Note_off_c, 8, 60, 0
10, 34752, Note_on_c, 8, 67, 100
10, 34800, Note_off_c, 8, 67, 0
10, 34800, Note_on_c, 8, 72, 100
10, 34848, Note_off_c, 8, 72, 0
10, 34848, Note_on_c, 8, 67, 100
10, 34896, Note_off_c, 8, 67, 0
10, 34896, Note_on_c, 8, 63, 100
10, 34944, Note_off_c, 8, 63, 0
10, 34944, Note_on_c, 8, 61, 100
10, 34992, Note_off_c, 8, 61, 0
10, 34992, Note_on_c, 8, 65, 100
10, 35040, Note_off_c, 8, 65, 0
10, 35040, Note_on_c, 8, 68, 100
10, 35088, Note_off_c, 8, 68, 0
10, 35088, Note_on_c, 8, 65, 100
10, 35136, Note_off_c, 8, 65, 0
10, 35136, Note_on_c, 8, 63, 100
10, 35184, Note_off_c, 8, 63, 0
10, 35184, Note_on_c, 8, 61, 100
10, 35232, Note_off_c, 8, 61, 0
10, 35232, Note_on_c, 8, 58, 100
10, 35280, Note_off_c, 8, 58, 0
10, 35280, Note_on_c, 8, 61, 100
10, 35328, Note_off_c, 8, 61, 0
10, 35328, Note_on_c, 8, 60, 100
10, 35376, Note_off_c, 8, 60, 0
10, 35376, Note_on_c, 8, 55, 100
10, 35424, Note_off_c, 8, 55, 0
10, 35424, Note_on_c, 8, 63, 100
10, 35472, Note_off_c, 8, 63, 0
10, 35472, Note_on_c, 8, 60, 100
10, 35520, Note_off_c, 8, 60, 0
10, 35520, Note_on_c, 8, 67, 100
10, 35568, Note_off_c, 8, 67, 0
10, 35568, Note_on_c, 8, 72, 100
10, 35616, Note_off_c, 8, 72, 0
10, 35616, Note_on_c, 8, 67, 100
10, 35664, Note_off_c, 8, 67, 0
10, 35664, Note_on_c, 8, 63, 100
10, 35712, Note_off_c, 8, 63, 0
10, 35712, Note_on_c, 8, 67, 100
10, 35760, Note_off_c, 8, 67, 0
10, 35760, Note_on_c, 8, 72, 100
10, 35808, Note_off_c, 8, 72, 0
10, 35808, Note_on_c, 8, 66, 100
10, 35856, Note_off_c, 8, 66, 0
10, 35856, Note_on_c, 8, 67, 100
10, 35904, Note_off_c, 8, 67, 0
10, 35904, Note_on_c, 8, 66, 100
10, 35952, Note_off_c, 8, 66, 0
10, 35952, Note_on_c, 8, 65, 100
10, 36000, Note_off_c, 8, 65, 0
10, 36000, Note_on_c, 8, 63, 100
10, 36048, Note_off_c, 8, 63, 0
10, 36048, Note_on_c, 8, 59, 100
10, 36096, Note_off_c, 8, 59, 0
10, 36096, Note_on_c, 8, 60, 100
10, 36144, Note_off_c, 8, 60, 0
10, 36144, Note_on_c, 8, 55, 100
10, 36192, Note_off_c, 8, 55, 0
10, 36192, Note_on_c, 8, 63, 100
10, 36240, Note_off_c, 8, 63, 0
10, 36240, Note_on_c, 8, 60, 100
10, 36288, Note_off_c, 8, 60, 0
10, 36288, Note_on_c, 8, 67, 100
10, 36336, Note_off_c, 8, 67, 0
10, 36336, Note_on_c, 8, 72, 100
10, 36384, Note_off_c, 8, 72, 0
10, 36384, Note_on_c, 8, 67, 100
10, 36432, Note_off_c, 8, 67, 0
10, 36432, Note_on_c, 8, 63, 100
10, 36480, Note_off_c, 8, 63, 0
10, 36480, Note_on_c, 8, 61, 100
10, 36528, Note_off_c, 8, 61, 0
10, 36528, Note_on_c, 8, 65, 100
10, 36576, Note_off_c, 8, 65, 0
10, 36576, Note_on_c, 8, 68, 100
10, 36624, Note_off_c, 8, 68, 0
10, 36624, Note_on_c, 8, 65, 100
10, 36672, Note_off_c, 8, 65, 0
10, 36672, Note_on_c, 8, 63, 100
10, 36720, Note_off_c, 8, 63, 0
10, 36720, Note_on_c, 8, 61, 100
10, 36768, Note_off_c, 8, 61, 0
10, 36768, Note_on_c, 8, 58, 100
10, 36816, Note_off_c, 8, 58, 0
10, 36816, Note_on_c, 8, 61, 100
10, 36864, Note_off_c, 8, 61, 0
10, 36864, Note_on_c, 8, 60, 100
10, 36912, Note_off_c, 8, 60, 0
10, 36912, Note_on_c, 8, 55, 100
10, 36960, Note_off_c, 8, 55, 0
10, 36960, Note_on_c, 8, 63, 100
10, 37008, Note_off_c, 8, 63, 0
10, 37008, Note_on_c, 8, 60, 100
10, 37056, Note_off_c, 8, 60, 0
10, 37056, Note_on_c, 8, 67, 100
10, 37104, Note_off_c, 8, 67, 0
10, 37104, Note_on_c, 8, 72, 100
10, 37152, Note_off_c, 8, 72, 0
10, 37152, Note_on_c, 8, 67, 100
10, 37200, Note_off_c, 8, 67, 0
10, 37200, Note_on_c, 8, 63, 100
10, 37248, Note_off_c, 8, 63, 0
10, 37248, Note_on_c, 8, 67, 100
10, 37296, Note_off_c, 8, 67, 0
10, 37296, Note_on_c, 8, 72, 100
10, 37344, Note_off_c, 8, 72, 0
10, 37344, Note_on_c, 8, 67, 100
10, 37392, Note_off_c, 8, 67, 0
10, 37392, Note_on_c, 8, 66, 100
10, 37440, Note_off_c, 8, 66, 0
10, 37440, Note_on_c, 8, 65, 100
10, 37488, Note_off_c, 8, 65, 0
10, 37488, Note_on_c, 8, 63, 100
10, 37536, Note_off_c, 8, 63, 0
10, 37536, Note_on_c, 8, 60, 100
10, 37584, Note_off_c, 8, 60, 0
10, 37584, Note_on_c, 8, 55, 100
10, 37632, Note_off_c, 8, 55, 0
10, 37632, Note_on_c, 8, 68, 100
10, 37680, Note_off_c, 8, 68, 0
10, 37680, Note_on_c, 8, 72, 100
10, 37728, Note_off_c, 8, 72, 0
10, 37728, Note_on_c, 8, 75, 100
10, 37776, Note_off_c, 8, 75, 0
10, 37776, Note_on_c, 8, 72, 100
10, 37824, Note_off_c, 8, 72, 0
10, 37824, Note_on_c, 8, 75, 100
10, 37872, Note_off_c, 8, 75, 0
10, 37872, Note_on_c, 8, 77, 100
10, 37920, Note_off_c, 8, 77, 0
10, 37920, Note_on_c, 8, 75, 100
10, 37968, Note_off_c, 8, 75, 0
10, 37968, Note_on_c, 8, 74, 100
10, 38016, Note_off_c, 8, 74, 0
10, 38016, Note_on_c, 8, 75, 100
10, 38064, Note_off_c, 8, 75, 0
10, 38064, Note_on_c, 8, 77, 100
10, 38112, Note_off_c, 8, 77, 0
10, 38112, Note_on_c, 8, 75, 100
10, 38160, Note_off_c, 8, 75, 0
10, 38160, Note_on_c, 8, 74, 100
10, 38208, Note_off_c, 8, 74, 0
10, 38208, Note_on_c, 8, 72, 100
10, 38256, Note_off_c, 8, 72, 0
10, 38256, Note_on_c, 8, 71, 100
10, 38304, Note_off_c, 8, 71, 0
10, 38304, Note_on_c, 8, 68, 100
10, 38352, Note_off_c, 8, 68, 0
10, 38352, Note_on_c, 8, 72, 100
10, 38400, Note_off_c, 8, 72, 0
10, 38400, Note_on_c, 8, 71, 100
10, 38448, Note_off_c, 8, 71, 0
10, 38448, Note_on_c, 8, 67, 100
10, 38496, Note_off_c, 8, 67, 0
10, 38496, Note_on_c, 8, 62, 100
10, 38544, Note_off_c, 8, 62, 0
10, 38544, Note_on_c, 8, 67, 100
10, 38592, Note_off_c, 8, 67, 0
10, 38592, Note_on_c, 8, 71, 100
10, 38640, Note_off_c, 8, 71, 0
10, 38640, Note_on_c, 8, 67, 100
10, 38688, Note_off_c, 8, 67, 0
10, 38688, Note_on_c, 8, 71, 100
10, 38736, Note_off_c, 8, 71, 0
10, 38736, Note_on_c, 8, 72, 100
10, 38784, Note_off_c, 8, 72, 0
10, 38784, Note_on_c, 8, 74, 100
10, 38832, Note_off_c, 8, 74, 0
10, 38832, Note_on_c, 8, 72, 100
10, 38880, Note_off_c, 8, 72, 0
10, 38880, Note_on_c, 8, 71, 100
10, 38928, Note_off_c, 8, 71, 0
10, 38928, Note_on_c, 8, 67, 100
10, 38976, Note_off_c, 8, 67, 0
10, 38976, Note_on_c, 8, 62, 100
10, 39024, Note_off_c, 8, 62, 0
10, 39024, Note_on_c, 8, 67, 100
10, 39072, Note_off_c, 8, 67, 0
10, 39072, Note_on_c, 8, 71, 100
10, 39120, Note_off_c, 8, 71, 0
10, 39120, Note_on_c, 8, 67, 100
10, 39168, Note_off_c, 8, 67, 0
10, 39168, Note_on_c, 8, 68, 100
10, 39216, Note_off_c, 8, 68, 0
10, 39216, Note_on_c, 8, 72, 100
10, 39264, Note_off_c, 8, 72, 0
10, 39264, Note_on_c, 8, 75, 100
10, 39312, Note_off_c, 8, 75, 0
10, 39312, Note_on_c, 8, 72, 100
10, 39360, Note_off_c, 8, 72, 0
10, 39360, Note_on_c, 8, 75, 100
10, 39408, Note_off_c, 8, 75, 0
10, 39408, Note_on_c, 8, 77, 100
10, 39456, Note_off_c, 8, 77, 0
10, 39456, Note_on_c, 8, 75, 100
10, 39504, Note_off_c, 8, 75, 0
10, 39504, Note_on_c, 8, 74, 100
10, 39552, Note_off_c, 8, 74, 0
10, 39552, Note_on_c, 8, 75, 100
10, 39600, Note_off_c, 8, 75, 0
10, 39600, Note_on_c, 8, 77, 100
10, 39648, Note_off_c, 8, 77, 0
10, 39648, Note_on_c, 8, 75, 100
10, 39696, Note_off_c, 8, 75, 0
10, 39696, Note_on_c, 8, 74, 100
10, 39744, Note_off_c, 8, 74, 0
10, 39744, Note_on_c, 8, 72, 100
10, 39792, Note_off_c, 8, 72, 0
10, 39792, Note_on_c, 8, 71, 100
10, 39840, Note_off_c, 8, 71, 0
10, 39840, Note_on_c, 8, 68, 100
10, 39888, Note_off_c, 8, 68, 0
10, 39888, Note_on_c, 8, 72, 100
10, 39936, Note_off_c, 8, 72, 0
10, 39936, Note_on_c, 8, 71, 100
10, 39984, Note_off_c, 8, 71, 0
10, 39984, Note_on_c, 8, 67, 100
10, 40032, Note_off_c, 8, 67, 0
10, 40032, Note_on_c, 8, 62, 100
10, 40080, Note_off_c, 8, 62, 0
10, 40080, Note_on_c, 8, 67, 100
10, 40128, Note_off_c, 8, 67, 0
10, 40128, Note_on_c, 8, 71, 100
10, 40176, Note_off_c, 8, 71, 0
10, 40176, Note_on_c, 8, 67, 100
10, 40224, Note_off_c, 8, 67, 0
10, 40224, Note_on_c, 8, 71, 100
10, 40272, Note_off_c, 8, 71, 0
10, 40272, Note_on_c, 8, 72, 100
10, 40320, Note_off_c, 8, 72, 0
10, 40320, Note_on_c, 8, 74, 100
10, 40368, Note_off_c, 8, 74, 0
10, 40368, Note_on_c, 8, 72, 100
10, 40416, Note_off_c, 8, 72, 0
10, 40416, Note_on_c, 8, 71, 100
10, 40464, Note_off_c, 8, 71, 0
10, 40464, Note_on_c, 8, 67, 100
10, 40512, Note_off_c, 8, 67, 0
10, 40512, Note_on_c, 8, 62, 100
10, 40560, Note_off_c, 8, 62, 0
10, 40560, Note_on_c, 8, 67, 100
10, 40608, Note_off_c, 8, 67, 0
10, 40608, Note_on_c, 8, 71, 100
10, 40656, Note_off_c, 8, 71, 0
10, 40656, Note_on_c, 8, 67, 100
10, 40704, Note_off_c, 8, 67, 0
10, 40704, Note_on_c, 8, 68, 100
10, 40752, Note_off_c, 8, 68, 0
10, 40752, Note_on_c, 8, 72, 100
10, 40800, Note_off_c, 8, 72, 0
10, 40800, Note_on_c, 8, 75, 100
10, 40848, Note_off_c, 8, 75, 0
10, 40848, Note_on_c, 8, 72, 100
10, 40896, Note_off_c, 8, 72, 0
10, 40896, Note_on_c, 8, 75, 100
10, 40944, Note_off_c, 8, 75, 0
10, 40944, Note_on_c, 8, 77, 100
10, 40992, Note_off_c, 8, 77, 0
10, 40992, Note_on_c, 8, 75, 100
10, 41040, Note_off_c, 8, 75, 0
10, 41040, Note_on_c, 8, 74, 100
10, 41088, Note_off_c, 8, 74, 0
10, 41088, Note_on_c, 8, 75, 100
10, 41136, Note_off_c, 8, 75, 0
10, 41136, Note_on_c, 8, 77, 100
10, 41184, Note_off_c, 8, 77, 0
10, 41184, Note_on_c, 8, 75, 100
10, 41232, Note_off_c, 8, 75, 0
10, 41232, Note_on_c, 8, 74, 100
10, 41280, Note_off_c, 8, 74, 0
10, 41280, Note_on_c, 8, 72, 100
10, 41328, Note_off_c, 8, 72, 0
10, 41328, Note_on_c, 8, 71, 100
10, 41376, Note_off_c, 8, 71, 0
10, 41376, Note_on_c, 8, 68, 100
10, 41424, Note_off_c, 8, 68, 0
10, 41424, Note_on_c, 8, 72, 100
10, 41472, Note_off_c, 8, 72, 0
10, 41472, Note_on_c, 8, 71, 100
10, 41520, Note_off_c, 8, 71, 0
10, 41520, Note_on_c, 8, 67, 100
10, 41568, Note_off_c, 8, 67, 0
10, 41568, Note_on_c, 8, 62, 100
10, 41616, Note_off_c, 8, 62, 0
10, 41616, Note_on_c, 8, 67, 100
10, 41664, Note_off_c, 8, 67, 0
10, 41664, Note_on_c, 8, 71, 100
10, 41712, Note_off_c, 8, 71, 0
10, 41712, Note_on_c, 8, 67, 100
10, 41760, Note_off_c, 8, 67, 0
10, 41760, Note_on_c, 8, 71, 100
10, 41808, Note_off_c, 8, 71, 0
10, 41808, Note_on_c, 8, 72, 100
10, 41856, Note_off_c, 8, 72, 0
10, 41856, Note_on_c, 8, 74, 100
10, 41904, Note_off_c, 8, 74, 0
10, 41904, Note_on_c, 8, 72, 100
10, 41952, Note_off_c, 8, 72, 0
10, 41952, Note_on_c, 8, 71, 100
10, 42000, Note_off_c, 8, 71, 0
10, 42000, Note_on_c, 8, 67, 100
10, 42048, Note_off_c, 8, 67, 0
10, 42048, Note_on_c, 8, 62, 100
10, 42096, Note_off_c, 8, 62, 0
10, 42096, Note_on_c, 8, 67, 100
10, 42144, Note_off_c, 8, 67, 0
10, 42144, Note_on_c, 8, 71, 100
10, 42192, Note_off_c, 8, 71, 0
10, 42192, Note_on_c, 8, 67, 100
10, 42240, Note_off_c, 8, 67, 0
10, 42240, Note_on_c, 8, 68, 100
10, 42288, Note_off_c, 8, 68, 0
10, 42288, Note_on_c, 8, 72, 100
10, 42336, Note_off_c, 8, 72, 0
10, 42336, Note_on_c, 8, 75, 100
10, 42384, Note_off_c, 8, 75, 0
10, 42384, Note_on_c, 8, 72, 100
10, 42432, Note_off_c, 8, 72, 0
10, 42432, Note_on_c, 8, 75, 100
10, 42480, Note_off_c, 8, 75, 0
10, 42480, Note_on_c, 8, 77, 100
10, 42528, Note_off_c, 8, 77, 0
10, 42528, Note_on_c, 8, 75, 100
10, 42576, Note_off_c, 8, 75, 0
10, 42576, Note_on_c, 8, 74, 100
10, 42624, Note_off_c, 8, 74, 0
10, 42624, Note_on_c, 8, 75, 100
10, 42672, Note_off_c, 8, 75, 0
10, 42672, Note_on_c, 8, 77, 100
10, 42720, Note_off_c, 8, 77, 0
10, 42720, Note_on_c, 8, 75, 100
10, 42768, Note_off_c, 8, 75, 0
10, 42768, Note_on_c, 8, 74, 100
10, 42816, Note_off_c, 8, 74, 0
10, 42816, Note_on_c, 8, 72, 100
10, 42864, Note_off_c, 8, 72, 0
10, 42864, Note_on_c, 8, 71, 100
10, 42912, Note_off_c, 8, 71, 0
10, 42912, Note_on_c, 8, 68, 100
10, 42960, Note_off_c, 8, 68, 0
10, 42960, Note_on_c, 8, 72, 100
10, 43008, Note_off_c, 8, 72, 0
10, 43008, Note_on_c, 8, 71, 100
10, 43056, Note_off_c, 8, 71, 0
10, 43056, Note_on_c, 8, 67, 100
10, 43104, Note_off_c, 8, 67, 0
10, 43104, Note_on_c, 8, 62, 100
10, 43152, Note_off_c, 8, 62, 0
10, 43152, Note_on_c, 8, 67, 100
10, 43200, Note_off_c, 8, 67, 0
10, 43200, Note_on_c, 8, 71, 100
10, 43248, Note_off_c, 8, 71, 0
10, 43248, Note_on_c, 8, 67, 100
10, 43296, Note_off_c, 8, 67, 0
10, 43296, Note_on_c, 8, 71, 100
10, 43344, Note_off_c, 8, 71, 0
10, 43344, Note_on_c, 8, 72, 100
10, 43392, Note_off_c, 8, 72, 0
10, 43392, Note_on_c, 8, 74, 100
10, 43440, Note_off_c, 8, 74, 0
10, 43440, Note_on_c, 8, 72, 100
10, 43488, Note_off_c, 8, 72, 0
10, 43488, Note_on_c, 8, 71, 100
10, 43536, Note_off_c, 8, 71, 0
10, 43536, Note_on_c, 8, 67, 100
10, 43584, Note_off_c, 8, 67, 0
10, 43584, Note_on_c, 8, 62, 100
10, 43632, Note_off_c, 8, 62, 0
10, 43632, Note_on_c, 8, 67, 100
10, 43680, Note_off_c, 8, 67, 0
10, 43680, Note_on_c, 8, 71, 100
10, 43728, Note_off_c, 8, 71, 0
10, 43728, Note_on_c, 8, 67, 100
10, 43776, Note_off_c, 8, 67, 0
10, 46848, Note_on_c, 8, 72, 100
10, 46896, Note_off_c, 8, 72, 0
10, 46896, Note_on_c, 8, 67, 100
10, 46944, Note_off_c, 8, 67, 0
10, 46944, Note_on_c, 8, 72, 100
10, 46992, Note_off_c, 8, 72, 0
10, 46992, Note_on_c, 8, 75, 100
10, 47040, Note_off_c, 8, 75, 0
10, 47040, Note_on_c, 8, 77, 100
10, 47088, Note_off_c, 8, 77, 0
10, 47088, Note_on_c, 8, 78, 100
10, 47136, Note_off_c, 8, 78, 0
10, 47136, Note_on_c, 8, 77, 100
10, 47184, Note_off_c, 8, 77, 0
10, 47184, Note_on_c, 8, 75, 100
10, 47232, Note_off_c, 8, 75, 0
10, 47232, Note_on_c, 8, 72, 100
10, 47280, Note_off_c, 8, 72, 0
10, 47280, Note_on_c, 8, 67, 100
10, 47328, Note_off_c, 8, 67, 0
10, 47328, Note_on_c, 8, 72, 100
10, 47376, Note_off_c, 8, 72, 0
10, 47376, Note_on_c, 8, 75, 100
10, 47424, Note_off_c, 8, 75, 0
10, 47424, Note_on_c, 8, 77, 100
10, 47472, Note_off_c, 8, 77, 0
10, 47472, Note_on_c, 8, 78, 100
10, 47520, Note_off_c, 8, 78, 0
10, 47520, Note_on_c, 8, 77, 100
10, 47568, Note_off_c, 8, 77, 0
10, 47568, Note_on_c, 8, 75, 100
10, 47616, Note_off_c, 8, 75, 0
10, 47616, Note_on_c, 8, 72, 100
10, 47664, Note_off_c, 8, 72, 0
10, 47664, Note_on_c, 8, 67, 100
10, 47712, Note_off_c, 8, 67, 0
10, 47712, Note_on_c, 8, 72, 100
10, 47760, Note_off_c, 8, 72, 0
10, 47760, Note_on_c, 8, 75, 100
10, 47808, Note_off_c, 8, 75, 0
10, 47808, Note_on_c, 8, 77, 100
10, 47856, Note_off_c, 8, 77, 0
10, 47856, Note_on_c, 8, 78, 100
10, 47904, Note_off_c, 8, 78, 0
10, 47904, Note_on_c, 8, 77, 100
10, 47952, Note_off_c, 8, 77, 0
10, 47952, Note_on_c, 8, 75, 100
10, 48000, Note_off_c, 8, 75, 0
10, 48000, Note_on_c, 8, 72, 100
10, 48048, Note_off_c, 8, 72, 0
10, 48048, Note_on_c, 8, 67, 100
10, 48096, Note_off_c, 8, 67, 0
10, 48096, Note_on_c, 8, 72, 100
10, 48144, Note_off_c, 8, 72, 0
10, 48144, Note_on_c, 8, 75, 100
10, 48192, Note_off_c, 8, 75, 0
10, 48192, Note_on_c, 8, 77, 100
10, 48240, Note_off_c, 8, 77, 0
10, 48240, Note_on_c, 8, 74, 100
10, 48288, Note_off_c, 8, 74, 0
10, 48288, Note_on_c, 8, 75, 100
10, 48336, Note_off_c, 8, 75, 0
10, 48336, Note_on_c, 8, 74, 100
10, 48384, Note_off_c, 8, 74, 0
10, 48384, Note_on_c, 8, 72, 100
10, 48432, Note_off_c, 8, 72, 0
10, 48432, Note_on_c, 8, 67, 100
10, 48480, Note_off_c, 8, 67, 0
10, 48480, Note_on_c, 8, 72, 100
10, 48528, Note_off_c, 8, 72, 0
10, 48528, Note_on_c, 8, 75, 100
10, 48576, Note_off_c, 8, 75, 0
10, 48576, Note_on_c, 8, 77, 100
10, 48624, Note_off_c, 8, 77, 0
10, 48624, Note_on_c, 8, 78, 100
10, 48672, Note_off_c, 8, 78, 0
10, 48672, Note_on_c, 8, 77, 100
10, 48720, Note_off_c, 8, 77, 0
10, 48720, Note_on_c, 8, 75, 100
10, 48768, Note_off_c, 8, 75, 0
10, 48768, Note_on_c, 8, 72, 100
10, 48816, Note_off_c, 8, 72, 0
10, 48816, Note_on_c, 8, 67, 100
10, 48864, Note_off_c, 8, 67, 0
10, 48864, Note_on_c, 8, 72, 100
10, 48912, Note_off_c, 8, 72, 0
10, 48912, Note_on_c, 8, 75, 100
10, 48960, Note_off_c, 8, 75, 0
10, 48960, Note_on_c, 8, 77, 100
10, 49008, Note_off_c, 8, 77, 0
10, 49008, Note_on_c, 8, 78, 100
10, 49056, Note_off_c, 8, 78, 0
10, 49056, Note_on_c, 8, 77, 100
10, 49104, Note_off_c, 8, 77, 0
10, 49104, Note_on_c, 8, 75, 100
10, 49152, Note_off_c, 8, 75, 0
10, 49152, Note_on_c, 8, 72, 100
10, 49200, Note_off_c, 8, 72, 0
10, 49200, Note_on_c, 8, 67, 100
10, 49248, Note_off_c, 8, 67, 0
10, 49248, Note_on_c, 8, 72, 100
10, 49296, Note_off_c, 8, 72, 0
10, 49296, Note_on_c, 8, 75, 100
10, 49344, Note_off_c, 8, 75, 0
10, 49344, Note_on_c, 8, 77, 100
10, 49392, Note_off_c, 8, 77, 0
10, 49392, Note_on_c, 8, 78, 100
10, 49440, Note_off_c, 8, 78, 0
10, 49440, Note_on_c, 8, 77, 100
10, 49488, Note_off_c, 8, 77, 0
10, 49488, Note_on_c, 8, 75, 100
10, 49536, Note_off_c, 8, 75, 0
10, 49536, Note_on_c, 8, 72, 100
10, 49584, Note_off_c, 8, 72, 0
10, 49584, Note_on_c, 8, 67, 100
10, 49632, Note_off_c, 8, 67, 0
10, 49632, Note_on_c, 8, 72, 100
10, 49680, Note_off_c, 8, 72, 0
10, 49680, Note_on_c, 8, 75, 100
10, 49728, Note_off_c, 8, 75, 0
10, 49728, Note_on_c, 8, 77, 100
10, 49776, Note_off_c, 8, 77, 0
10, 49776, Note_on_c, 8, 74, 100
10, 49824, Note_off_c, 8, 74, 0
10, 49824, Note_on_c, 8, 75, 100
10, 49872, Note_off_c, 8, 75, 0
10, 49872, Note_on_c, 8, 74, 100
10, 49920, Note_off_c, 8, 74, 0
10, 52992, Note_on_c, 8, 72, 100
10, 53040, Note_off_c, 8, 72, 0
10, 53040, Note_on_c, 8, 75, 100
10, 53088, Note_off_c, 8, 75, 0
10, 53088, Note_on_c, 8, 79, 100
10, 53136, Note_off_c, 8, 79, 0
10, 53136, Note_on_c, 8, 75, 100
10, 53184, Note_off_c, 8, 75, 0
10, 53184, Note_on_c, 8, 72, 100
10, 53232, Note_off_c, 8, 72, 0
10, 53232, Note_on_c, 8, 75, 100
10, 53280, Note_off_c, 8, 75, 0
10, 53280, Note_on_c, 8, 79, 100
10, 53328, Note_off_c, 8, 79, 0
10, 53328, Note_on_c, 8, 75, 100
10, 53376, Note_off_c, 8, 75, 0
10, 53376, Note_on_c, 8, 71, 100
10, 53424, Note_off_c, 8, 71, 0
10, 53424, Note_on_c, 8, 74, 100
10, 53472, Note_off_c, 8, 74, 0
10, 53472, Note_on_c, 8, 79, 100
10, 53520, Note_off_c, 8, 79, 0
10, 53520, Note_on_c, 8, 74, 100
10, 53568, Note_off_c, 8, 74, 0
10, 53568, Note_on_c, 8, 71, 100
10, 53616, Note_off_c, 8, 71, 0
10, 53616, Note_on_c, 8, 74, 100
10, 53664, Note_off_c, 8, 74, 0
10, 53664, Note_on_c, 8, 79, 100
10, 53712, Note_off_c, 8, 79, 0
10, 53712, Note_on_c, 8, 74, 100
10, 53760, Note_off_c, 8, 74, 0
10, 53760, Note_on_c, 8, 68, 100
10, 53808, Note_off_c, 8, 68, 0
10, 53808, Note_on_c, 8, 72, 100
10, 53856, Note_off_c, 8, 72, 0
10, 53856, Note_on_c, 8, 75, 100
10, 53904, Note_off_c, 8, 75, 0
10, 53904, Note_on_c, 8, 72, 100
10, 53952, Note_off_c, 8, 72, 0
10, 53952, Note_on_c, 8, 68, 100
10, 54000, Note_off_c, 8, 68, 0
10, 54000, Note_on_c, 8, 72, 100
10, 54048, Note_off_c, 8, 72, 0
10, 54048, Note_on_c, 8, 75, 100
10, 54096, Note_off_c, 8, 75, 0
10, 54096, Note_on_c, 8, 72, 100
10, 54144, Note_off_c, 8, 72, 0
10, 54144, Note_on_c, 8, 67, 100
10, 54192, Note_off_c, 8, 67, 0
10, 54192, Note_on_c, 8, 71, 100
10, 54240, Note_off_c, 8, 71, 0
10, 54240, Note_on_c, 8, 74, 100
10, 54288, Note_off_c, 8, 74, 0
10, 54288, Note_on_c, 8, 71, 100
10, 54336, Note_off_c, 8, 71, 0
10, 54336, Note_on_c, 8, 67, 100
10, 54384, Note_off_c, 8, 67, 0
10, 54384, Note_on_c, 8, 71, 100
10, 54432, Note_off_c, 8, 71, 0
10, 54432, Note_on_c, 8, 74, 100
10, 54480, Note_off_c, 8, 74, 0
10, 54480, Note_on_c, 8, 71, 100
10, 54528, Note_off_c, 8, 71, 0
10, 54528, Note_on_c, 8, 72, 100
10, 54576, Note_off_c, 8, 72, 0
10, 54576, Note_on_c, 8, 75, 100
10, 54624, Note_off_c, 8, 75, 0
10, 54624, Note_on_c, 8, 79, 100
10, 54672, Note_off_c, 8, 79, 0
10, 54672, Note_on_c, 8, 75, 100
10, 54720, Note_off_c, 8, 75, 0
10, 54720, Note_on_c, 8, 72, 100
10, 54768, Note_off_c, 8, 72, 0
10, 54768, Note_on_c, 8, 75, 100
10, 54816, Note_off_c, 8, 75, 0
10, 54816, Note_on_c, 8, 79, 100
10, 54864, Note_off_c, 8, 79, 0
10, 54864, Note_on_c, 8, 75, 100
10, 54912, Note_off_c, 8, 75, 0
10, 54912, Note_on_c, 8, 71, 100
10, 54960, Note_off_c, 8, 71, 0
10, 54960, Note_on_c, 8, 74, 100
10, 55008, Note_off_c, 8, 74, 0
10, 55008, Note_on_c, 8, 79, 100
10, 55056, Note_off_c, 8, 79, 0
10, 55056, Note_on_c, 8, 74, 100
10, 55104, Note_off_c, 8, 74, 0
10, 55104, Note_on_c, 8, 71, 100
10, 55152, Note_off_c, 8, 71, 0
10, 55152, Note_on_c, 8, 74, 100
10, 55200, Note_off_c, 8, 74, 0
10, 55200, Note_on_c, 8, 79, 100
10, 55248, Note_off_c, 8, 79, 0
10, 55248, Note_on_c, 8, 74, 100
10, 55296, Note_off_c, 8, 74, 0
10, 55296, Note_on_c, 8, 68, 100
10, 55344, Note_off_c, 8, 68, 0
10, 55344, Note_on_c, 8, 72, 100
10, 55392, Note_off_c, 8, 72, 0
10, 55392, Note_on_c, 8, 75, 100
10, 55440, Note_off_c, 8, 75, 0
10, 55440, Note_on_c, 8, 72, 100
10, 55488, Note_off_c, 8, 72, 0
10, 55488, Note_on_c, 8, 68, 100
10, 55536, Note_off_c, 8, 68, 0
10, 55536, Note_on_c, 8, 72, 100
10, 55584, Note_off_c, 8, 72, 0
10, 55584, Note_on_c, 8, 75, 100
10, 55632, Note_off_c, 8, 75, 0
10, 55632, Note_on_c, 8, 72, 100
10, 55680, Note_off_c, 8, 72, 0
10, 55680, Note_on_c, 8, 67, 100
10, 55728, Note_off_c, 8, 67, 0
10, 55728, Note_on_c, 8, 71, 100
10, 55776, Note_off_c, 8, 71, 0
10, 55776, Note_on_c, 8, 74, 100
10, 55824, Note_off_c, 8, 74, 0
10, 55824, Note_on_c, 8, 71, 100
10, 55872, Note_off_c, 8, 71, 0
10, 55872, Note_on_c, 8, 67, 100
10, 55920, Note_off_c, 8, 67, 0
10, 55920, Note_on_c, 8, 71, 100
10, 55968, Note_off_c, 8, 71, 0
10, 55968, Note_on_c, 8, 74, 100
10, 56016, Note_off_c, 8, 74, 0
10, 56016, Note_on_c, 8, 71, 100
10, 56064, Note_off_c, 8, 71, 0
10, 56064, Note_on_c, 8, 72, 100
10, 56088, Note_off_c, 8, 72, 0
10, 56088, Note_on_c, 8, 72, 100
10, 56112, Note_off_c, 8, 72, 0
10, 56112, Note_on_c, 8, 72, 100
10, 56136, Note_off_c, 8, 72, 0
10, 56136, Note_on_c, 8, 72, 100
10, 56160, Note_off_c, 8, 72, 0
10, 56160, Note_on_c, 8, 72, 100
10, 56184, Note_off_c, 8, 72, 0
10, 56184, Note_on_c, 8, 72, 100
10, 56208, Note_off_c, 8, 72, 0
10, 56208, Note_on_c, 8, 72, 100
10, 56232, Note_off_c, 8, 72, 0
10, 56232, Note_on_c, 8, 72, 100
10, 56256, Note_off_c, 8, 72, 0
10, 56256, Note_on_c, 8, 74, 100
10, 56280, Note_off_c, 8, 74, 0
10, 56280, Note_on_c, 8, 74, 100
10, 56304, Note_off_c, 8, 74, 0
10, 56304, Note_on_c, 8, 74, 100
10, 56328, Note_off_c, 8, 74, 0
10, 56328, Note_on_c, 8, 74, 100
10, 56352, Note_off_c, 8, 74, 0
10, 56352, Note_on_c, 8, 75, 100
10, 56376, Note_off_c, 8, 75, 0
10, 56376, Note_on_c, 8, 75, 100
10, 56400, Note_off_c, 8, 75, 0
10, 56400, Note_on_c, 8, 75, 100
10, 56424, Note_off_c, 8, 75, 0
10, 56424, Note_on_c, 8, 75, 100
10, 56448, Note_off_c, 8, 75, 0
10, 56448, Note_on_c, 8, 79, 100
10, 56472, Note_off_c, 8, 79, 0
10, 56472, Note_on_c, 8, 79, 100
10, 56496, Note_off_c, 8, 79, 0
10, 56496, Note_on_c, 8, 79, 100
10, 56520, Note_off_c, 8, 79, 0
10, 56520, Note_on_c, 8, 79, 100
10, 56544, Note_off_c, 8, 79, 0
10, 56544, Note_on_c, 8, 75, 100
10, 56568, Note_off_c, 8, 75, 0
10, 56568, Note_on_c, 8, 75, 100
10, 56592, Note_off_c, 8, 75, 0
10, 56592, Note_on_c, 8, 75, 100
10, 56616, Note_off_c, 8, 75, 0
10, 56616, Note_on_c, 8, 75, 100
10, 56640, Note_off_c, 8, 75, 0
10, 56640, Note_on_c, 8, 74, 100
10, 56664, Note_off_c, 8, 74, 0
10, 56664, Note_on_c, 8, 74, 100
10, 56688, Note_off_c, 8, 74, 0
10, 56688, Note_on_c, 8, 74, 100
10, 56712, Note_off_c, 8, 74, 0
10, 56712, Note_on_c, 8, 74, 100
10, 56736, Note_off_c, 8, 74, 0
10, 56736, Note_on_c, 8, 74, 100
10, 56760, Note_off_c, 8, 74, 0
10, 56760, Note_on_c, 8, 74, 100
10, 56784, Note_off_c, 8, 74, 0
10, 56784, Note_on_c, 8, 74, 100
10, 56808, Note_off_c, 8, 74, 0
10, 56808, Note_on_c, 8, 74, 100
10, 56832, Note_off_c, 8, 74, 0
10, 56832, Note_on_c, 8, 75, 100
10, 56856, Note_off_c, 8, 75, 0
10, 56856, Note_on_c, 8, 75, 100
10, 56880, Note_off_c, 8, 75, 0
10, 56880, Note_on_c, 8, 75, 100
10, 56904, Note_off_c, 8, 75, 0
10, 56904, Note_on_c, 8, 75, 100
10, 56928, Note_off_c, 8, 75, 0
10, 56928, Note_on_c, 8, 75, 100
10, 56952, Note_off_c, 8, 75, 0
10, 56952, Note_on_c, 8, 75, 100
10, 56976, Note_off_c, 8, 75, 0
10, 56976, Note_on_c, 8, 75, 100
10, 57000, Note_off_c, 8, 75, 0
10, 57000, Note_on_c, 8, 75, 100
10, 57024, Note_off_c, 8, 75, 0
10, 57024, Note_on_c, 8, 77, 100
10, 57048, Note_off_c, 8, 77, 0
10, 57048, Note_on_c, 8, 77, 100
10, 57072, Note_off_c, 8, 77, 0
10, 57072, Note_on_c, 8, 77, 100
10, 57096, Note_off_c, 8, 77, 0
10, 57096, Note_on_c, 8, 77, 100
10, 57120, Note_off_c, 8, 77, 0
10, 57120, Note_on_c, 8, 77, 100
10, 57144, Note_off_c, 8, 77, 0
10, 57144, Note_on_c, 8, 77, 100
10, 57168, Note_off_c, 8, 77, 0
10, 57168, Note_on_c, 8, 75, 100
10, 57192, Note_off_c, 8, 75, 0
10, 57192, Note_on_c, 8, 75, 100
10, 57216, Note_off_c, 8, 75, 0
10, 57216, Note_on_c, 8, 74, 100
10, 57240, Note_off_c, 8, 74, 0
10, 57240, Note_on_c, 8, 74, 100
10, 57264, Note_off_c, 8, 74, 0
10, 57264, Note_on_c, 8, 74, 100
10, 57288, Note_off_c, 8, 74, 0
10, 57288, Note_on_c, 8, 74, 100
10, 57312, Note_off_c, 8, 74, 0
10, 57312, Note_on_c, 8, 74, 100
10, 57336, Note_off_c, 8, 74, 0
10, 57336, Note_on_c, 8, 74, 100
10, 57360, Note_off_c, 8, 74, 0
10, 57360, Note_on_c, 8, 74, 100
10, 57384, Note_off_c, 8, 74, 0
10, 57384, Note_on_c, 8, 74, 100
10, 57408, Note_off_c, 8, 74, 0
10, 57408, Note_on_c, 8, 71, 100
10, 57432, Note_off_c, 8, 71, 0
10, 57432, Note_on_c, 8, 71, 100
10, 57456, Note_off_c, 8, 71, 0
10, 57456, Note_on_c, 8, 71, 100
10, 57480, Note_off_c, 8, 71, 0
10, 57480, Note_on_c, 8, 71, 100
10, 57504, Note_off_c, 8, 71, 0
10, 57504, Note_on_c, 8, 71, 100
10, 57528, Note_off_c, 8, 71, 0
10, 57528, Note_on_c, 8, 71, 100
10, 57552, Note_off_c, 8, 71, 0
10, 57552, Note_on_c, 8, 71, 100
10, 57576, Note_off_c, 8, 71, 0
10, 57576, Note_on_c, 8, 71, 100
10, 57600, Note_off_c, 8, 71, 0
10, 57600, Note_on_c, 8, 68, 100
10, 57624, Note_off_c, 8, 68, 0
10, 57624, Note_on_c, 8, 68, 100
10, 57648, Note_off_c, 8, 68, 0
10, 57648, Note_on_c, 8, 68, 100
10, 57672, Note_off_c, 8, 68, 0
10, 57672, Note_on_c, 8, 68, 100
10, 57696, Note_off_c, 8, 68, 0
10, 57696, Note_on_c, 8, 67, 100
10, 57720, Note_off_c, 8, 67, 0
10, 57720, Note_on_c, 8, 67, 100
10, 57744, Note_off_c, 8, 67, 0
10, 57744, Note_on_c, 8, 67, 100
10, 57768, Note_off_c, 8, 67, 0
10, 57768, Note_on_c, 8, 67, 100
10, 57792, Note_off_c, 8, 67, 0
10, 57792, Note_on_c, 8, 68, 100
10, 57816, Note_off_c, 8, 68, 0
10, 57816, Note_on_c, 8, 68, 100
10, 57840, Note_off_c, 8, 68, 0
10, 57840, Note_on_c, 8, 68, 100
10, 57864, Note_off_c, 8, 68, 0
10, 57864, Note_on_c, 8, 68, 100
10, 57888, Note_off_c, 8, 68, 0
10, 57888, Note_on_c, 8, 72, 100
10, 57912, Note_off_c, 8, 72, 0
10, 57912, Note_on_c, 8, 72, 100
10, 57936, Note_off_c, 8, 72, 0
10, 57936, Note_on_c, 8, 72, 100
10, 57960, Note_off_c, 8, 72, 0
10, 57960, Note_on_c, 8, 72, 100
10, 57984, Note_off_c, 8, 72, 0
10, 57984, Note_on_c, 8, 74, 100
10, 58008, Note_off_c, 8, 74, 0
10, 58008, Note_on_c, 8, 74, 100
10, 58032, Note_off_c, 8, 74, 0
10, 58032, Note_on_c, 8, 74, 100
10, 58056, Note_off_c, 8, 74, 0
10, 58056, Note_on_c, 8, 74, 100
10, 58080, Note_off_c, 8, 74, 0
10, 58080, Note_on_c, 8, 75, 100
10, 58104, Note_off_c, 8, 75, 0
10, 58104, Note_on_c, 8, 75, 100
10, 58128, Note_off_c, 8, 75, 0
10, 58128, Note_on_c, 8, 75, 100
10, 58152, Note_off_c, 8, 75, 0
10, 58152, Note_on_c, 8, 75, 100
10, 58176, Note_off_c, 8, 75, 0
10, 58176, Note_on_c, 8, 74, 100
10, 58200, Note_off_c, 8, 74, 0
10, 58200, Note_on_c, 8, 74, 100
10, 58224, Note_off_c, 8, 74, 0
10, 58224, Note_on_c, 8, 74, 100
10, 58248, Note_off_c, 8, 74, 0
10, 58248, Note_on_c, 8, 74, 100
10, 58272, Note_off_c, 8, 74, 0
10, 58272, Note_on_c, 8, 68, 100
10, 58296, Note_off_c, 8, 68, 0
10, 58296, Note_on_c, 8, 68, 100
10, 58320, Note_off_c, 8, 68, 0
10, 58320, Note_on_c, 8, 68, 100
10, 58344, Note_off_c, 8, 68, 0
10, 58344, Note_on_c, 8, 68, 100
10, 58368, Note_off_c, 8, 68, 0
10, 58368, Note_on_c, 8, 67, 100
10, 58392, Note_off_c, 8, 67, 0
10, 58392, Note_on_c, 8, 67, 100
10, 58416, Note_off_c, 8, 67, 0
10, 58416, Note_on_c, 8, 67, 100
10, 58440, Note_off_c, 8, 67, 0
10, 58440, Note_on_c, 8, 67, 100
10, 58464, Note_off_c, 8, 67, 0
10, 58464, Note_on_c, 8, 66, 100
10, 58488, Note_off_c, 8, 66, 0
10, 58488, Note_on_c, 8, 66, 100
10, 58512, Note_off_c, 8, 66, 0
10, 58512, Note_on_c, 8, 66, 100
10, 58536, Note_off_c, 8, 66, 0
10, 58536, Note_on_c, 8, 66, 100
10, 58560, Note_off_c, 8, 66, 0
10, 58560, Note_on_c, 8, 67, 100
10, 58584, Note_off_c, 8, 67, 0
10, 58584, Note_on_c, 8, 67, 100
10, 58608, Note_off_c, 8, 67, 0
10, 58608, Note_on_c, 8, 67, 100
10, 58632, Note_off_c, 8, 67, 0
10, 58632, Note_on_c, 8, 67, 100
10, 58656, Note_off_c, 8, 67, 0
10, 58656, Note_on_c, 8, 71, 100
10, 58680, Note_off_c, 8, 71, 0
10, 58680, Note_on_c, 8, 71, 100
10, 58704, Note_off_c, 8, 71, 0
10, 58704, Note_on_c, 8, 71, 100
10, 58728, Note_off_c, 8, 71, 0
10, 58728, Note_on_c, 8, 71, 100
10, 58752, Note_off_c, 8, 71, 0
10, 58752, Note_on_c, 8, 74, 100
10, 58776, Note_off_c, 8, 74, 0
10, 58776, Note_on_c, 8, 74, 100
10, 58800, Note_off_c, 8, 74, 0
10, 58800, Note_on_c, 8, 74, 100
10, 58824, Note_off_c, 8, 74, 0
10, 58824, Note_on_c, 8, 74, 100
10, 58848, Note_off_c, 8, 74, 0
10, 58848, Note_on_c, 8, 71, 100
10, 58872, Note_off_c, 8, 71, 0
10, 58872, Note_on_c, 8, 71, 100
10, 58896, Note_off_c, 8, 71, 0
10, 58896, Note_on_c, 8, 71, 100
10, 58920, Note_off_c, 8, 71, 0
10, 58920, Note_on_c, 8, 71, 100
10, 58944, Note_off_c, 8, 71, 0
10, 58944, Note_on_c, 8, 67, 100
10, 58968, Note_off_c, 8, 67, 0
10, 58968, Note_on_c, 8, 67, 100
10, 58992, Note_off_c, 8, 67, 0
10, 58992, Note_on_c, 8, 67, 100
10, 59016, Note_off_c, 8, 67, 0
10, 59016, Note_on_c, 8, 67, 100
10, 59040, Note_off_c, 8, 67, 0
10, 59040, Note_on_c, 8, 71, 100
10, 59064, Note_off_c, 8, 71, 0
10, 59064, Note_on_c, 8, 71, 100
10, 59088, Note_off_c, 8, 71, 0
10, 59088, Note_on_c, 8, 71, 100
10, 59112, Note_off_c, 8, 71, 0
10, 59112, Note_on_c, 8, 71, 100
10, 59136, Note_off_c, 8, 71, 0
10, 59136, Note_on_c, 8, 72, 100
10, 59160, Note_off_c, 8, 72, 0
10, 59160, Note_on_c, 8, 72, 100
10, 59184, Note_off_c, 8, 72, 0
10, 59184, Note_on_c, 8, 72, 100
10, 59208, Note_off_c, 8, 72, 0
10, 59208, Note_on_c, 8, 72, 100
10, 59232, Note_off_c, 8, 72, 0
10, 59232, Note_on_c, 8, 72, 100
10, 59256, Note_off_c, 8, 72, 0
10, 59256, Note_on_c, 8, 72, 100
10, 59280, Note_off_c, 8, 72, 0
10, 59280, Note_on_c, 8, 72, 100
10, 59304, Note_off_c, 8, 72, 0
10, 59304, Note_on_c, 8, 72, 100
10, 59328, Note_off_c, 8, 72, 0
10, 59328, Note_on_c, 8, 74, 100
10, 59352, Note_off_c, 8, 74, 0
10, 59352, Note_on_c, 8, 74, 100
10, 59376, Note_off_c, 8, 74, 0
10, 59376, Note_on_c, 8, 74, 100
10, 59400, Note_off_c, 8, 74, 0
10, 59400, Note_on_c, 8, 74, 100
10, 59424, Note_off_c, 8, 74, 0
10, 59424, Note_on_c, 8, 75, 100
10, 59448, Note_off_c, 8, 75, 0
10, 59448, Note_on_c, 8, 75, 100
10, 59472, Note_off_c, 8, 75, 0
10, 59472, Note_on_c, 8, 75, 100
10, 59496, Note_off_c, 8, 75, 0
10, 59496, Note_on_c, 8, 75, 100
10, 59520, Note_off_c, 8, 75, 0
10, 59520, Note_on_c, 8, 79, 100
10, 59544, Note_off_c, 8, 79, 0
10, 59544, Note_on_c, 8, 79, 100
10, 59568, Note_off_c, 8, 79, 0
10, 59568, Note_on_c, 8, 79, 100
10, 59592, Note_off_c, 8, 79, 0
10, 59592, Note_on_c, 8, 79, 100
10, 59616, Note_off_c, 8, 79, 0
10, 59616, Note_on_c, 8, 75, 100
10, 59640, Note_off_c, 8, 75, 0
10, 59640, Note_on_c, 8, 75, 100
10, 59664, Note_off_c, 8, 75, 0
10, 59664, Note_on_c, 8, 75, 100
10, 59688, Note_off_c, 8, 75, 0
10, 59688, Note_on_c, 8, 75, 100
10, 59712, Note_off_c, 8, 75, 0
10, 59712, Note_on_c, 8, 74, 100
10, 59736, Note_off_c, 8, 74, 0
10, 59736, Note_on_c, 8, 74, 100
10, 59760, Note_off_c, 8, 74, 0
10, 59760, Note_on_c, 8, 74, 100
10, 59784, Note_off_c, 8, 74, 0
10, 59784, Note_on_c, 8, 74, 100
10, 59808, Note_off_c, 8, 74, 0
10, 59808, Note_on_c, 8, 74, 100
10, 59832, Note_off_c, 8, 74, 0
10, 59832, Note_on_c, 8, 74, 100
10, 59856, Note_off_c, 8, 74, 0
10, 59856, Note_on_c, 8, 74, 100
10, 59880, Note_off_c, 8, 74, 0
10, 59880, Note_on_c, 8, 74, 100
10, 59904, Note_off_c, 8, 74, 0
10, 59904, Note_on_c, 8, 75, 100
10, 59928, Note_off_c, 8, 75, 0
10, 59928, Note_on_c, 8, 75, 100
10, 59952, Note_off_c, 8, 75, 0
10, 59952, Note_on_c, 8, 75, 100
10, 59976, Note_off_c, 8, 75, 0
10, 59976, Note_on_c, 8, 75, 100
10, 60000, Note_off_c, 8, 75, 0
10, 60000, Note_on_c, 8, 75, 100
10, 60024, Note_off_c, 8, 75, 0
10, 60024, Note_on_c, 8, 75, 100
10, 60048, Note_off_c, 8, 75, 0
10, 60048, Note_on_c, 8, 75, 100
10, 60072, Note_off_c, 8, 75, 0
10, 60072, Note_on_c, 8, 75, 100
10, 60096, Note_off_c, 8, 75, 0
10, 60096, Note_on_c, 8, 77, 100
10, 60120, Note_off_c, 8, 77, 0
10, 60120, Note_on_c, 8, 77, 100
10, 60144, Note_off_c, 8, 77, 0
10, 60144, Note_on_c, 8, 77, 100
10, 60168, Note_off_c, 8, 77, 0
10, 60168, Note_on_c, 8, 77, 100
10, 60192, Note_off_c, 8, 77, 0
10, 60192, Note_on_c, 8, 77, 100
10, 60216, Note_off_c, 8, 77, 0
10, 60216, Note_on_c, 8, 77, 100
10, 60240, Note_off_c, 8, 77, 0
10, 60240, Note_on_c, 8, 75, 100
10, 60264, Note_off_c, 8, 75, 0
10, 60264, Note_on_c, 8, 75, 100
10, 60288, Note_off_c, 8, 75, 0
10, 60288, Note_on_c, 8, 74, 100
10, 60312, Note_off_c, 8, 74, 0
10, 60312, Note_on_c, 8, 74, 100
10, 60336, Note_off_c, 8, 74, 0
10, 60336, Note_on_c, 8, 74, 100
10, 60360, Note_off_c, 8, 74, 0
10, 60360, Note_on_c, 8, 74, 100
10, 60384, Note_off_c, 8, 74, 0
10, 60384, Note_on_c, 8, 74, 100
10, 60408, Note_off_c, 8, 74, 0
10, 60408, Note_on_c, 8, 74, 100
10, 60432, Note_off_c, 8, 74, 0
10, 60432, Note_on_c, 8, 74, 100
10, 60456, Note_off_c, 8, 74, 0
10, 60456, Note_on_c, 8, 74, 100
10, 60480, Note_off_c, 8, 74, 0
10, 60480, Note_on_c, 8, 71, 100
10, 60504, Note_off_c, 8, 71, 0
10, 60504, Note_on_c, 8, 71, 100
10, 60528, Note_off_c, 8, 71, 0
10, 60528, Note_on_c, 8, 71, 100
10, 60552, Note_off_c, 8, 71, 0
10, 60552, Note_on_c, 8, 71, 100
10, 60576, Note_off_c, 8, 71, 0
10, 60576, Note_on_c, 8, 71, 100
10, 60600, Note_off_c, 8, 71, 0
10, 60600, Note_on_c, 8, 71, 100
10, 60624, Note_off_c, 8, 71, 0
10, 60624, Note_on_c, 8, 71, 100
10, 60648, Note_off_c, 8, 71, 0
10, 60648, Note_on_c, 8, 71, 100
10, 60672, Note_off_c, 8, 71, 0
10, 60672, Note_on_c, 8, 68, 100
10, 60696, Note_off_c, 8, 68, 0
10, 60696, Note_on_c, 8, 68, 100
10, 60720, Note_off_c, 8, 68, 0
10, 60720, Note_on_c, 8, 68, 100
10, 60744, Note_off_c, 8, 68, 0
10, 60744, Note_on_c, 8, 68, 100
10, 60768, Note_off_c, 8, 68, 0
10, 60768, Note_on_c, 8, 67, 100
10, 60792, Note_off_c, 8, 67, 0
10, 60792, Note_on_c, 8, 67, 100
10, 60816, Note_off_c, 8, 67, 0
10, 60816, Note_on_c, 8, 67, 100
10, 60840, Note_off_c, 8, 67, 0
10, 60840, Note_on_c, 8, 67, 100
10, 60864, Note_off_c, 8, 67, 0
10, 60864, Note_on_c, 8, 68, 100
10, 60888, Note_off_c, 8, 68, 0
10, 60888, Note_on_c, 8, 68, 100
10, 60912, Note_off_c, 8, 68, 0
10, 60912, Note_on_c, 8, 68, 100
10, 60936, Note_off_c, 8, 68, 0
10, 60936, Note_on_c, 8, 68, 100
10, 60960, Note_off_c, 8, 68, 0
10, 60960, Note_on_c, 8, 72, 100
10, 60984, Note_off_c, 8, 72, 0
10, 60984, Note_on_c, 8, 72, 100
10, 61008, Note_off_c, 8, 72, 0
10, 61008, Note_on_c, 8, 72, 100
10, 61032, Note_off_c, 8, 72, 0
10, 61032, Note_on_c, 8, 72, 100
10, 61056, Note_off_c, 8, 72, 0
10, 61056, Note_on_c, 8, 74, 100
10, 61080, Note_off_c, 8, 74, 0
10, 61080, Note_on_c, 8, 74, 100
10, 61104, Note_off_c, 8, 74, 0
10, 61104, Note_on_c, 8, 74, 100
10, 61128, Note_off_c, 8, 74, 0
10, 61128, Note_on_c, 8, 74, 100
10, 61152, Note_off_c, 8, 74, 0
10, 61152, Note_on_c, 8, 75, 100
10, 61176, Note_off_c, 8, 75, 0
10, 61176, Note_on_c, 8, 75, 100
10, 61200, Note_off_c, 8, 75, 0
10, 61200, Note_on_c, 8, 75, 100
10, 61224, Note_off_c, 8, 75, 0
10, 61224, Note_on_c, 8, 75, 100
10, 61248, Note_off_c, 8, 75, 0
10, 61248, Note_on_c, 8, 74, 100
10, 61272, Note_off_c, 8, 74, 0
10, 61272, Note_on_c, 8, 74, 100
10, 61296, Note_off_c, 8, 74, 0
10, 61296, Note_on_c, 8, 74, 100
10, 61320, Note_off_c, 8, 74, 0
10, 61320, Note_on_c, 8, 74, 100
10, 61344, Note_off_c, 8, 74, 0
10, 61344, Note_on_c, 8, 68, 100
10, 61368, Note_off_c, 8, 68, 0
10, 61368, Note_on_c, 8, 68, 100
10, 61392, Note_off_c, 8, 68, 0
10, 61392, Note_on_c, 8, 68, 100
10, 61416, Note_off_c, 8, 68, 0
10, 61416, Note_on_c, 8, 68, 100
10, 61440, Note_off_c, 8, 68, 0
10, 61440, Note_on_c, 8, 67, 100
10, 61464, Note_off_c, 8, 67, 0
10, 61464, Note_on_c, 8, 67, 100
10, 61488, Note_off_c, 8, 67, 0
10, 61488, Note_on_c, 8, 67, 100
10, 61512, Note_off_c, 8, 67, 0
10, 61512, Note_on_c, 8, 67, 100
10, 61536, Note_off_c, 8, 67, 0
10, 61536, Note_on_c, 8, 66, 100
10, 61560, Note_off_c, 8, 66, 0
10, 61560, Note_on_c, 8, 66, 100
10, 61584, Note_off_c, 8, 66, 0
10, 61584, Note_on_c, 8, 66, 100
10, 61608, Note_off_c, 8, 66, 0
10, 61608, Note_on_c, 8, 66, 100
10, 61632, Note_off_c, 8, 66, 0
10, 61632, Note_on_c, 8, 67, 100
10, 61656, Note_off_c, 8, 67, 0
10, 61656, Note_on_c, 8, 67, 100
10, 61680, Note_off_c, 8, 67, 0
10, 61680, Note_on_c, 8, 67, 100
10, 61704, Note_off_c, 8, 67, 0
10, 61704, Note_on_c, 8, 67, 100
10, 61728, Note_off_c, 8, 67, 0
10, 61728, Note_on_c, 8, 71, 100
10, 61752, Note_off_c, 8, 71, 0
10, 61752, Note_on_c, 8, 71, 100
10, 61776, Note_off_c, 8, 71, 0
10, 61776, Note_on_c, 8, 71, 100
10, 61800, Note_off_c, 8, 71, 0
10, 61800, Note_on_c, 8, 71, 100
10, 61824, Note_off_c, 8, 71, 0
10, 61824, Note_on_c, 8, 74, 100
10, 61848, Note_off_c, 8, 74, 0
10, 61848, Note_on_c, 8, 74, 100
10, 61872, Note_off_c, 8, 74, 0
10, 61872, Note_on_c, 8, 74, 100
10, 61896, Note_off_c, 8, 74, 0
10, 61896, Note_on_c, 8, 74, 100
10, 61920, Note_off_c, 8, 74, 0
10, 61920, Note_on_c, 8, 71, 100
10, 61944, Note_off_c, 8, 71, 0
10, 61944, Note_on_c, 8, 71, 100
10, 61968, Note_off_c, 8, 71, 0
10, 61968, Note_on_c, 8, 71, 100
10, 61992, Note_off_c, 8, 71, 0
10, 61992, Note_on_c, 8, 71, 100
10, 62016, Note_off_c, 8, 71, 0
10, 62016, Note_on_c, 8, 67, 100
10, 62040, Note_off_c, 8, 67, 0
10, 62040, Note_on_c, 8, 67, 100
10, 62064, Note_off_c, 8, 67, 0
10, 62064, Note_on_c, 8, 67, 100
10, 62088, Note_off_c, 8, 67, 0
10, 62088, Note_on_c, 8, 67, 100
10, 62112, Note_off_c, 8, 67, 0
10, 62112, Note_on_c, 8, 71, 100
10, 62136, Note_off_c, 8, 71, 0
10, 62136, Note_on_c, 8, 71, 100
10, 62160, Note_off_c, 8, 71, 0
10, 62160, Note_on_c, 8, 71, 100
10, 62184, Note_off_c, 8, 71, 0
10, 62184, Note_on_c, 8, 71, 100
10, 62208, Note_off_c, 8, 71, 0
10, 62976, Control_c, 8, 7, 100
10, 62976, Pitch_bend_c, 8, 8192
10, 62976, Program_c, 8, 114
10, 62976, End_track
11, 0, Start_track
11, 0, Control_c, 9, 0, 0
11, 0, Control_c, 9, 32, 0
11, 0, Program_c, 9, 16
11, 0, Title_t, "Shreddage Drums"
11, 0, Control_c, 9, 7, 127
11, 0, Control_c, 9, 10, 64
11, 0, Control_c, 9, 7, 100
11, 0, Pitch_bend_c, 9, 8192
11, 0, Control_c, 9, 10, 64
11, 0, Control_c, 9, 7, 100
11, 0, Pitch_bend_c, 9, 8192
11, 0, Control_c, 9, 10, 64
11, 0, Control_c, 9, 7, 100
11, 0, Pitch_bend_c, 9, 8192
11, 0, Control_c, 9, 10, 64
11, 0, Control_c, 9, 7, 100
11, 0, Pitch_bend_c, 9, 8192
11, 0, Note_on_c, 9, 36, 127
11, 4, Note_off_c, 9, 36, 0
11, 96, Note_on_c, 9, 36, 127
11, 100, Note_off_c, 9, 36, 0
11, 192, Note_on_c, 9, 36, 127
11, 196, Note_off_c, 9, 36, 0
11, 288, Note_on_c, 9, 36, 127
11, 292, Note_off_c, 9, 36, 0
11, 384, Note_on_c, 9, 36, 127
11, 388, Note_off_c, 9, 36, 0
11, 480, Note_on_c, 9, 36, 127
11, 484, Note_off_c, 9, 36, 0
11, 576, Note_on_c, 9, 36, 127
11, 580, Note_off_c, 9, 36, 0
11, 624, Note_on_c, 9, 38, 127
11, 628, Note_off_c, 9, 38, 0
11, 648, Note_on_c, 9, 38, 32
11, 652, Note_off_c, 9, 38, 0
11, 672, Note_on_c, 9, 38, 32
11, 676, Note_off_c, 9, 38, 0
11, 696, Note_on_c, 9, 38, 32
11, 700, Note_off_c, 9, 38, 0
11, 720, Note_on_c, 9, 38, 127
11, 724, Note_off_c, 9, 38, 0
11, 768, Note_on_c, 9, 36, 127
11, 772, Note_off_c, 9, 36, 0
11, 864, Note_on_c, 9, 38, 127
11, 868, Note_off_c, 9, 38, 0
11, 960, Note_on_c, 9, 36, 127
11, 964, Note_off_c, 9, 36, 0
11, 1008, Note_on_c, 9, 36, 127
11, 1012, Note_off_c, 9, 36, 0
11, 1056, Note_on_c, 9, 38, 127
11, 1060, Note_off_c, 9, 38, 0
11, 1152, Note_on_c, 9, 36, 127
11, 1152, Note_on_c, 9, 50, 101
11, 1156, Note_off_c, 9, 50, 0
11, 1156, Note_off_c, 9, 36, 0
11, 1248, Note_on_c, 9, 38, 127
11, 1252, Note_off_c, 9, 38, 0
11, 1344, Note_on_c, 9, 36, 127
11, 1344, Note_on_c, 9, 50, 101
11, 1348, Note_off_c, 9, 50, 0
11, 1348, Note_off_c, 9, 36, 0
11, 1392, Note_on_c, 9, 36, 127
11, 1396, Note_off_c, 9, 36, 0
11, 1440, Note_on_c, 9, 38, 127
11, 1444, Note_off_c, 9, 38, 0
11, 1536, Note_on_c, 9, 36, 127
11, 1540, Note_off_c, 9, 36, 0
11, 1632, Note_on_c, 9, 38, 127
11, 1636, Note_off_c, 9, 38, 0
11, 1728, Note_on_c, 9, 36, 127
11, 1732, Note_off_c, 9, 36, 0
11, 1776, Note_on_c, 9, 36, 127
11, 1780, Note_off_c, 9, 36, 0
11, 1824, Note_on_c, 9, 38, 127
11, 1828, Note_off_c, 9, 38, 0
11, 1920, Note_on_c, 9, 50, 101
11, 1920, Note_on_c, 9, 38, 127
11, 1924, Note_off_c, 9, 38, 0
11, 1924, Note_off_c, 9, 50, 0
11, 1968, Note_on_c, 9, 36, 127
11, 1972, Note_off_c, 9, 36, 0
11, 2016, Note_on_c, 9, 36, 127
11, 2020, Note_off_c, 9, 36, 0
11, 2064, Note_on_c, 9, 50, 101
11, 2064, Note_on_c, 9, 38, 127
11, 2068, Note_off_c, 9, 38, 0
11, 2068, Note_off_c, 9, 50, 0
11, 2112, Note_on_c, 9, 36, 127
11, 2116, Note_off_c, 9, 36, 0
11, 2160, Note_on_c, 9, 36, 127
11, 2164, Note_off_c, 9, 36, 0
11, 2208, Note_on_c, 9, 50, 101
11, 2208, Note_on_c, 9, 38, 127
11, 2212, Note_off_c, 9, 38, 0
11, 2212, Note_off_c, 9, 50, 0
11, 2256, Note_on_c, 9, 38, 127
11, 2260, Note_off_c, 9, 38, 0
11, 2304, Note_on_c, 9, 36, 127
11, 2308, Note_off_c, 9, 36, 0
11, 2400, Note_on_c, 9, 38, 127
11, 2404, Note_off_c, 9, 38, 0
11, 2496, Note_on_c, 9, 36, 127
11, 2500, Note_off_c, 9, 36, 0
11, 2544, Note_on_c, 9, 36, 127
11, 2548, Note_off_c, 9, 36, 0
11, 2592, Note_on_c, 9, 38, 127
11, 2596, Note_off_c, 9, 38, 0
11, 2688, Note_on_c, 9, 36, 127
11, 2688, Note_on_c, 9, 50, 101
11, 2692, Note_off_c, 9, 50, 0
11, 2692, Note_off_c, 9, 36, 0
11, 2784, Note_on_c, 9, 38, 127
11, 2788, Note_off_c, 9, 38, 0
11, 2880, Note_on_c, 9, 36, 127
11, 2880, Note_on_c, 9, 50, 101
11, 2884, Note_off_c, 9, 50, 0
11, 2884, Note_off_c, 9, 36, 0
11, 2928, Note_on_c, 9, 36, 127
11, 2932, Note_off_c, 9, 36, 0
11, 2976, Note_on_c, 9, 38, 127
11, 2980, Note_off_c, 9, 38, 0
11, 3072, Note_on_c, 9, 36, 127
11, 3076, Note_off_c, 9, 36, 0
11, 3168, Note_on_c, 9, 38, 127
11, 3172, Note_off_c, 9, 38, 0
11, 3264, Note_on_c, 9, 36, 127
11, 3268, Note_off_c, 9, 36, 0
11, 3312, Note_on_c, 9, 36, 127
11, 3316, Note_off_c, 9, 36, 0
11, 3360, Note_on_c, 9, 38, 127
11, 3364, Note_off_c, 9, 38, 0
11, 3456, Note_on_c, 9, 50, 101
11, 3456, Note_on_c, 9, 38, 127
11, 3456, Note_on_c, 9, 45, 127
11, 3460, Note_off_c, 9, 38, 0
11, 3460, Note_off_c, 9, 45, 0
11, 3460, Note_off_c, 9, 50, 0
11, 3504, Note_on_c, 9, 36, 127
11, 3504, Note_on_c, 9, 45, 127
11, 3508, Note_off_c, 9, 45, 0
11, 3508, Note_off_c, 9, 36, 0
11, 3552, Note_on_c, 9, 36, 127
11, 3552, Note_on_c, 9, 45, 127
11, 3556, Note_off_c, 9, 45, 0
11, 3556, Note_off_c, 9, 36, 0
11, 3600, Note_on_c, 9, 50, 101
11, 3600, Note_on_c, 9, 38, 127
11, 3600, Note_on_c, 9, 43, 127
11, 3604, Note_off_c, 9, 38, 0
11, 3604, Note_off_c, 9, 43, 0
11, 3604, Note_off_c, 9, 50, 0
11, 3648, Note_on_c, 9, 36, 127
11, 3648, Note_on_c, 9, 43, 127
11, 3652, Note_off_c, 9, 43, 0
11, 3652, Note_off_c, 9, 36, 0
11, 3696, Note_on_c, 9, 36, 127
11, 3696, Note_on_c, 9, 43, 127
11, 3700, Note_off_c, 9, 43, 0
11, 3700, Note_off_c, 9, 36, 0
11, 3744, Note_on_c, 9, 50, 101
11, 3744, Note_on_c, 9, 38, 127
11, 3744, Note_on_c, 9, 41, 127
11, 3748, Note_off_c, 9, 38, 0
11, 3748, Note_off_c, 9, 41, 0
11, 3748, Note_off_c, 9, 50, 0
11, 3792, Note_on_c, 9, 38, 127
11, 3792, Note_on_c, 9, 41, 127
11, 3796, Note_off_c, 9, 41, 0
11, 3796, Note_off_c, 9, 38, 0
11, 3840, Note_on_c, 9, 36, 127
11, 3844, Note_off_c, 9, 36, 0
11, 3936, Note_on_c, 9, 38, 127
11, 3940, Note_off_c, 9, 38, 0
11, 4032, Note_on_c, 9, 36, 127
11, 4036, Note_off_c, 9, 36, 0
11, 4080, Note_on_c, 9, 36, 127
11, 4084, Note_off_c, 9, 36, 0
11, 4128, Note_on_c, 9, 38, 127
11, 4132, Note_off_c, 9, 38, 0
11, 4224, Note_on_c, 9, 36, 127
11, 4224, Note_on_c, 9, 50, 101
11, 4228, Note_off_c, 9, 50, 0
11, 4228, Note_off_c, 9, 36, 0
11, 4320, Note_on_c, 9, 38, 127
11, 4324, Note_off_c, 9, 38, 0
11, 4416, Note_on_c, 9, 36, 127
11, 4416, Note_on_c, 9, 50, 101
11, 4420, Note_off_c, 9, 50, 0
11, 4420, Note_off_c, 9, 36, 0
11, 4464, Note_on_c, 9, 36, 127
11, 4468, Note_off_c, 9, 36, 0
11, 4512, Note_on_c, 9, 38, 127
11, 4516, Note_off_c, 9, 38, 0
11, 4608, Note_on_c, 9, 36, 127
11, 4612, Note_off_c, 9, 36, 0
11, 4704, Note_on_c, 9, 38, 127
11, 4708, Note_off_c, 9, 38, 0
11, 4800, Note_on_c, 9, 36, 127
11, 4804, Note_off_c, 9, 36, 0
11, 4848, Note_on_c, 9, 36, 127
11, 4852, Note_off_c, 9, 36, 0
11, 4896, Note_on_c, 9, 38, 127
11, 4900, Note_off_c, 9, 38, 0
11, 4992, Note_on_c, 9, 50, 101
11, 4992, Note_on_c, 9, 38, 127
11, 4996, Note_off_c, 9, 38, 0
11, 4996, Note_off_c, 9, 50, 0
11, 5040, Note_on_c, 9, 36, 127
11, 5044, Note_off_c, 9, 36, 0
11, 5088, Note_on_c, 9, 36, 127
11, 5092, Note_off_c, 9, 36, 0
11, 5136, Note_on_c, 9, 50, 101
11, 5136, Note_on_c, 9, 38, 127
11, 5140, Note_off_c, 9, 38, 0
11, 5140, Note_off_c, 9, 50, 0
11, 5184, Note_on_c, 9, 36, 127
11, 5188, Note_off_c, 9, 36, 0
11, 5232, Note_on_c, 9, 36, 127
11, 5236, Note_off_c, 9, 36, 0
11, 5280, Note_on_c, 9, 50, 101
11, 5280, Note_on_c, 9, 38, 127
11, 5284, Note_off_c, 9, 38, 0
11, 5284, Note_off_c, 9, 50, 0
11, 5328, Note_on_c, 9, 38, 127
11, 5332, Note_off_c, 9, 38, 0
11, 5376, Note_on_c, 9, 36, 127
11, 5380, Note_off_c, 9, 36, 0
11, 5472, Note_on_c, 9, 38, 127
11, 5476, Note_off_c, 9, 38, 0
11, 5568, Note_on_c, 9, 36, 127
11, 5572, Note_off_c, 9, 36, 0
11, 5616, Note_on_c, 9, 36, 127
11, 5620, Note_off_c, 9, 36, 0
11, 5664, Note_on_c, 9, 38, 127
11, 5668, Note_off_c, 9, 38, 0
11, 5760, Note_on_c, 9, 36, 127
11, 5760, Note_on_c, 9, 50, 101
11, 5764, Note_off_c, 9, 50, 0
11, 5764, Note_off_c, 9, 36, 0
11, 5856, Note_on_c, 9, 38, 127
11, 5860, Note_off_c, 9, 38, 0
11, 5952, Note_on_c, 9, 36, 127
11, 5952, Note_on_c, 9, 50, 101
11, 5956, Note_off_c, 9, 50, 0
11, 5956, Note_off_c, 9, 36, 0
11, 6000, Note_on_c, 9, 36, 127
11, 6004, Note_off_c, 9, 36, 0
11, 6048, Note_on_c, 9, 38, 127
11, 6052, Note_off_c, 9, 38, 0
11, 6144, Note_on_c, 9, 36, 127
11, 6148, Note_off_c, 9, 36, 0
11, 6240, Note_on_c, 9, 38, 127
11, 6244, Note_off_c, 9, 38, 0
11, 6336, Note_on_c, 9, 36, 127
11, 6340, Note_off_c, 9, 36, 0
11, 6384, Note_on_c, 9, 36, 127
11, 6388, Note_off_c, 9, 36, 0
11, 6432, Note_on_c, 9, 38, 127
11, 6436, Note_off_c, 9, 38, 0
11, 6528, Note_on_c, 9, 50, 101
11, 6528, Note_on_c, 9, 38, 127
11, 6528, Note_on_c, 9, 45, 127
11, 6532, Note_off_c, 9, 38, 0
11, 6532, Note_off_c, 9, 45, 0
11, 6532, Note_off_c, 9, 50, 0
11, 6576, Note_on_c, 9, 36, 127
11, 6576, Note_on_c, 9, 45, 127
11, 6580, Note_off_c, 9, 45, 0
11, 6580, Note_off_c, 9, 36, 0
11, 6624, Note_on_c, 9, 36, 127
11, 6624, Note_on_c, 9, 45, 127
11, 6628, Note_off_c, 9, 45, 0
11, 6628, Note_off_c, 9, 36, 0
11, 6672, Note_on_c, 9, 50, 101
11, 6672, Note_on_c, 9, 38, 127
11, 6672, Note_on_c, 9, 43, 127
11, 6676, Note_off_c, 9, 38, 0
11, 6676, Note_off_c, 9, 43, 0
11, 6676, Note_off_c, 9, 50, 0
11, 6720, Note_on_c, 9, 36, 127
11, 6720, Note_on_c, 9, 43, 127
11, 6724, Note_off_c, 9, 43, 0
11, 6724, Note_off_c, 9, 36, 0
11, 6768, Note_on_c, 9, 36, 127
11, 6768, Note_on_c, 9, 43, 127
11, 6772, Note_off_c, 9, 43, 0
11, 6772, Note_off_c, 9, 36, 0
11, 6816, Note_on_c, 9, 50, 101
11, 6816, Note_on_c, 9, 38, 127
11, 6816, Note_on_c, 9, 41, 127
11, 6820, Note_off_c, 9, 38, 0
11, 6820, Note_off_c, 9, 41, 0
11, 6820, Note_off_c, 9, 50, 0
11, 6864, Note_on_c, 9, 38, 127
11, 6864, Note_on_c, 9, 41, 127
11, 6868, Note_off_c, 9, 41, 0
11, 6868, Note_off_c, 9, 38, 0
11, 6912, Note_on_c, 9, 36, 127
11, 6916, Note_off_c, 9, 36, 0
11, 7008, Note_on_c, 9, 36, 127
11, 7012, Note_off_c, 9, 36, 0
11, 7104, Note_on_c, 9, 38, 127
11, 7108, Note_off_c, 9, 38, 0
11, 7152, Note_on_c, 9, 36, 127
11, 7156, Note_off_c, 9, 36, 0
11, 7248, Note_on_c, 9, 36, 127
11, 7252, Note_off_c, 9, 36, 0
11, 7296, Note_on_c, 9, 36, 127
11, 7296, Note_on_c, 9, 50, 101
11, 7300, Note_off_c, 9, 50, 0
11, 7300, Note_off_c, 9, 36, 0
11, 7344, Note_on_c, 9, 36, 127
11, 7348, Note_off_c, 9, 36, 0
11, 7440, Note_on_c, 9, 36, 127
11, 7444, Note_off_c, 9, 36, 0
11, 7488, Note_on_c, 9, 38, 127
11, 7488, Note_on_c, 9, 50, 101
11, 7492, Note_off_c, 9, 50, 0
11, 7492, Note_off_c, 9, 38, 0
11, 7536, Note_on_c, 9, 36, 127
11, 7540, Note_off_c, 9, 36, 0
11, 7584, Note_on_c, 9, 36, 127
11, 7588, Note_off_c, 9, 36, 0
11, 7632, Note_on_c, 9, 36, 127
11, 7636, Note_off_c, 9, 36, 0
11, 7728, Note_on_c, 9, 36, 127
11, 7732, Note_off_c, 9, 36, 0
11, 7776, Note_on_c, 9, 36, 127
11, 7780, Note_off_c, 9, 36, 0
11, 7824, Note_on_c, 9, 36, 127
11, 7828, Note_off_c, 9, 36, 0
11, 7872, Note_on_c, 9, 38, 127
11, 7876, Note_off_c, 9, 38, 0
11, 7920, Note_on_c, 9, 36, 127
11, 7924, Note_off_c, 9, 36, 0
11, 7968, Note_on_c, 9, 36, 127
11, 7972, Note_off_c, 9, 36, 0
11, 8016, Note_on_c, 9, 36, 127
11, 8020, Note_off_c, 9, 36, 0
11, 8064, Note_on_c, 9, 50, 101
11, 8064, Note_on_c, 9, 36, 127
11, 8068, Note_off_c, 9, 36, 0
11, 8068, Note_off_c, 9, 50, 0
11, 8112, Note_on_c, 9, 36, 127
11, 8116, Note_off_c, 9, 36, 0
11, 8160, Note_on_c, 9, 36, 127
11, 8164, Note_off_c, 9, 36, 0
11, 8208, Note_on_c, 9, 50, 101
11, 8208, Note_on_c, 9, 36, 127
11, 8212, Note_off_c, 9, 36, 0
11, 8212, Note_off_c, 9, 50, 0
11, 8256, Note_on_c, 9, 38, 127
11, 8260, Note_off_c, 9, 38, 0
11, 8304, Note_on_c, 9, 36, 127
11, 8308, Note_off_c, 9, 36, 0
11, 8352, Note_on_c, 9, 50, 101
11, 8352, Note_on_c, 9, 62, 127
11, 8356, Note_off_c, 9, 62, 0
11, 8356, Note_off_c, 9, 50, 0
11, 8400, Note_on_c, 9, 38, 127
11, 8404, Note_off_c, 9, 38, 0
11, 8448, Note_on_c, 9, 36, 127
11, 8452, Note_off_c, 9, 36, 0
11, 8544, Note_on_c, 9, 36, 127
11, 8548, Note_off_c, 9, 36, 0
11, 8640, Note_on_c, 9, 38, 127
11, 8644, Note_off_c, 9, 38, 0
11, 8688, Note_on_c, 9, 36, 127
11, 8692, Note_off_c, 9, 36, 0
11, 8784, Note_on_c, 9, 36, 127
11, 8788, Note_off_c, 9, 36, 0
11, 8832, Note_on_c, 9, 36, 127
11, 8832, Note_on_c, 9, 50, 101
11, 8836, Note_off_c, 9, 50, 0
11, 8836, Note_off_c, 9, 36, 0
11, 8880, Note_on_c, 9, 36, 127
11, 8884, Note_off_c, 9, 36, 0
11, 8976, Note_on_c, 9, 36, 127
11, 8980, Note_off_c, 9, 36, 0
11, 9024, Note_on_c, 9, 38, 127
11, 9024, Note_on_c, 9, 50, 101
11, 9028, Note_off_c, 9, 50, 0
11, 9028, Note_off_c, 9, 38, 0
11, 9072, Note_on_c, 9, 36, 127
11, 9076, Note_off_c, 9, 36, 0
11, 9120, Note_on_c, 9, 36, 127
11, 9120, Note_on_c, 9, 62, 127
11, 9124, Note_off_c, 9, 62, 0
11, 9124, Note_off_c, 9, 36, 0
11, 9168, Note_on_c, 9, 36, 127
11, 9172, Note_off_c, 9, 36, 0
11, 9264, Note_on_c, 9, 36, 127
11, 9268, Note_off_c, 9, 36, 0
11, 9312, Note_on_c, 9, 36, 127
11, 9316, Note_off_c, 9, 36, 0
11, 9360, Note_on_c, 9, 36, 127
11, 9364, Note_off_c, 9, 36, 0
11, 9408, Note_on_c, 9, 38, 127
11, 9412, Note_off_c, 9, 38, 0
11, 9456, Note_on_c, 9, 36, 127
11, 9460, Note_off_c, 9, 36, 0
11, 9504, Note_on_c, 9, 36, 127
11, 9508, Note_off_c, 9, 36, 0
11, 9552, Note_on_c, 9, 36, 127
11, 9556, Note_off_c, 9, 36, 0
11, 9600, Note_on_c, 9, 45, 127
11, 9600, Note_on_c, 9, 38, 127
11, 9600, Note_on_c, 9, 50, 101
11, 9604, Note_off_c, 9, 38, 0
11, 9604, Note_off_c, 9, 50, 0
11, 9604, Note_off_c, 9, 45, 0
11, 9648, Note_on_c, 9, 36, 127
11, 9648, Note_on_c, 9, 45, 127
11, 9652, Note_off_c, 9, 45, 0
11, 9652, Note_off_c, 9, 36, 0
11, 9696, Note_on_c, 9, 36, 127
11, 9696, Note_on_c, 9, 45, 127
11, 9700, Note_off_c, 9, 45, 0
11, 9700, Note_off_c, 9, 36, 0
11, 9744, Note_on_c, 9, 50, 101
11, 9744, Note_on_c, 9, 38, 127
11, 9744, Note_on_c, 9, 43, 127
11, 9748, Note_off_c, 9, 38, 0
11, 9748, Note_off_c, 9, 43, 0
11, 9748, Note_off_c, 9, 50, 0
11, 9792, Note_on_c, 9, 36, 127
11, 9792, Note_on_c, 9, 43, 127
11, 9796, Note_off_c, 9, 43, 0
11, 9796, Note_off_c, 9, 36, 0
11, 9840, Note_on_c, 9, 36, 127
11, 9840, Note_on_c, 9, 43, 127
11, 9844, Note_off_c, 9, 43, 0
11, 9844, Note_off_c, 9, 36, 0
11, 9888, Note_on_c, 9, 41, 127
11, 9888, Note_on_c, 9, 38, 127
11, 9888, Note_on_c, 9, 50, 101
11, 9892, Note_off_c, 9, 38, 0
11, 9892, Note_off_c, 9, 50, 0
11, 9892, Note_off_c, 9, 41, 0
11, 9936, Note_on_c, 9, 41, 127
11, 9936, Note_on_c, 9, 38, 127
11, 9940, Note_off_c, 9, 38, 0
11, 9940, Note_off_c, 9, 41, 0
11, 9984, Note_on_c, 9, 36, 127
11, 9988, Note_off_c, 9, 36, 0
11, 10080, Note_on_c, 9, 36, 127
11, 10084, Note_off_c, 9, 36, 0
11, 10176, Note_on_c, 9, 38, 127
11, 10180, Note_off_c, 9, 38, 0
11, 10224, Note_on_c, 9, 36, 127
11, 10228, Note_off_c, 9, 36, 0
11, 10320, Note_on_c, 9, 36, 127
11, 10324, Note_off_c, 9, 36, 0
11, 10368, Note_on_c, 9, 36, 127
11, 10368, Note_on_c, 9, 50, 101
11, 10372, Note_off_c, 9, 50, 0
11, 10372, Note_off_c, 9, 36, 0
11, 10416, Note_on_c, 9, 36, 127
11, 10420, Note_off_c, 9, 36, 0
11, 10512, Note_on_c, 9, 36, 127
11, 10516, Note_off_c, 9, 36, 0
11, 10560, Note_on_c, 9, 38, 127
11, 10560, Note_on_c, 9, 50, 101
11, 10564, Note_off_c, 9, 50, 0
11, 10564, Note_off_c, 9, 38, 0
11, 10608, Note_on_c, 9, 36, 127
11, 10612, Note_off_c, 9, 36, 0
11, 10656, Note_on_c, 9, 36, 127
11, 10660, Note_off_c, 9, 36, 0
11, 10704, Note_on_c, 9, 36, 127
11, 10708, Note_off_c, 9, 36, 0
11, 10800, Note_on_c, 9, 36, 127
11, 10804, Note_off_c, 9, 36, 0
11, 10848, Note_on_c, 9, 36, 127
11, 10852, Note_off_c, 9, 36, 0
11, 10896, Note_on_c, 9, 36, 127
11, 10900, Note_off_c, 9, 36, 0
11, 10944, Note_on_c, 9, 38, 127
11, 10948, Note_off_c, 9, 38, 0
11, 10992, Note_on_c, 9, 36, 127
11, 10996, Note_off_c, 9, 36, 0
11, 11040, Note_on_c, 9, 36, 127
11, 11044, Note_off_c, 9, 36, 0
11, 11088, Note_on_c, 9, 36, 127
11, 11092, Note_off_c, 9, 36, 0
11, 11136, Note_on_c, 9, 50, 101
11, 11136, Note_on_c, 9, 36, 127
11, 11140, Note_off_c, 9, 36, 0
11, 11140, Note_off_c, 9, 50, 0
11, 11184, Note_on_c, 9, 36, 127
11, 11188, Note_off_c, 9, 36, 0
11, 11232, Note_on_c, 9, 36, 127
11, 11236, Note_off_c, 9, 36, 0
11, 11280, Note_on_c, 9, 50, 101
11, 11280, Note_on_c, 9, 36, 127
11, 11284, Note_off_c, 9, 36, 0
11, 11284, Note_off_c, 9, 50, 0
11, 11328, Note_on_c, 9, 38, 127
11, 11332, Note_off_c, 9, 38, 0
11, 11376, Note_on_c, 9, 36, 127
11, 11380, Note_off_c, 9, 36, 0
11, 11424, Note_on_c, 9, 50, 101
11, 11424, Note_on_c, 9, 62, 127
11, 11428, Note_off_c, 9, 62, 0
11, 11428, Note_off_c, 9, 50, 0
11, 11472, Note_on_c, 9, 38, 127
11, 11476, Note_off_c, 9, 38, 0
11, 11520, Note_on_c, 9, 36, 127
11, 11524, Note_off_c, 9, 36, 0
11, 11616, Note_on_c, 9, 36, 127
11, 11620, Note_off_c, 9, 36, 0
11, 11712, Note_on_c, 9, 38, 127
11, 11716, Note_off_c, 9, 38, 0
11, 11760, Note_on_c, 9, 36, 127
11, 11764, Note_off_c, 9, 36, 0
11, 11856, Note_on_c, 9, 36, 127
11, 11860, Note_off_c, 9, 36, 0
11, 11904, Note_on_c, 9, 36, 127
11, 11904, Note_on_c, 9, 50, 101
11, 11908, Note_off_c, 9, 50, 0
11, 11908, Note_off_c, 9, 36, 0
11, 11952, Note_on_c, 9, 36, 127
11, 11956, Note_off_c, 9, 36, 0
11, 12048, Note_on_c, 9, 36, 127
11, 12052, Note_off_c, 9, 36, 0
11, 12096, Note_on_c, 9, 38, 127
11, 12096, Note_on_c, 9, 50, 101
11, 12100, Note_off_c, 9, 50, 0
11, 12100, Note_off_c, 9, 38, 0
11, 12144, Note_on_c, 9, 36, 127
11, 12148, Note_off_c, 9, 36, 0
11, 12192, Note_on_c, 9, 36, 127
11, 12192, Note_on_c, 9, 62, 127
11, 12196, Note_off_c, 9, 62, 0
11, 12196, Note_off_c, 9, 36, 0
11, 12240, Note_on_c, 9, 36, 127
11, 12244, Note_off_c, 9, 36, 0
11, 12336, Note_on_c, 9, 36, 127
11, 12340, Note_off_c, 9, 36, 0
11, 12384, Note_on_c, 9, 36, 127
11, 12388, Note_off_c, 9, 36, 0
11, 12432, Note_on_c, 9, 36, 127
11, 12436, Note_off_c, 9, 36, 0
11, 12480, Note_on_c, 9, 38, 127
11, 12484, Note_off_c, 9, 38, 0
11, 12528, Note_on_c, 9, 36, 127
11, 12532, Note_off_c, 9, 36, 0
11, 12576, Note_on_c, 9, 36, 127
11, 12580, Note_off_c, 9, 36, 0
11, 12624, Note_on_c, 9, 36, 127
11, 12628, Note_off_c, 9, 36, 0
11, 12672, Note_on_c, 9, 45, 127
11, 12672, Note_on_c, 9, 38, 127
11, 12672, Note_on_c, 9, 50, 101
11, 12676, Note_off_c, 9, 38, 0
11, 12676, Note_off_c, 9, 50, 0
11, 12676, Note_off_c, 9, 45, 0
11, 12720, Note_on_c, 9, 36, 127
11, 12720, Note_on_c, 9, 45, 127
11, 12724, Note_off_c, 9, 45, 0
11, 12724, Note_off_c, 9, 36, 0
11, 12768, Note_on_c, 9, 36, 127
11, 12768, Note_on_c, 9, 45, 127
11, 12772, Note_off_c, 9, 45, 0
11, 12772, Note_off_c, 9, 36, 0
11, 12816, Note_on_c, 9, 50, 101
11, 12816, Note_on_c, 9, 38, 127
11, 12816, Note_on_c, 9, 43, 127
11, 12820, Note_off_c, 9, 38, 0
11, 12820, Note_off_c, 9, 43, 0
11, 12820, Note_off_c, 9, 50, 0
11, 12864, Note_on_c, 9, 36, 127
11, 12864, Note_on_c, 9, 43, 127
11, 12868, Note_off_c, 9, 43, 0
11, 12868, Note_off_c, 9, 36, 0
11, 12912, Note_on_c, 9, 36, 127
11, 12912, Note_on_c, 9, 43, 127
11, 12916, Note_off_c, 9, 43, 0
11, 12916, Note_off_c, 9, 36, 0
11, 12960, Note_on_c, 9, 41, 127
11, 12960, Note_on_c, 9, 38, 127
11, 12960, Note_on_c, 9, 50, 101
11, 12964, Note_off_c, 9, 38, 0
11, 12964, Note_off_c, 9, 50, 0
11, 12964, Note_off_c, 9, 41, 0
11, 13008, Note_on_c, 9, 41, 127
11, 13008, Note_on_c, 9, 38, 127
11, 13012, Note_off_c, 9, 38, 0
11, 13012, Note_off_c, 9, 41, 0
11, 13056, Note_on_c, 9, 36, 127
11, 13060, Note_off_c, 9, 36, 0
11, 13152, Note_on_c, 9, 38, 127
11, 13156, Note_off_c, 9, 38, 0
11, 13248, Note_on_c, 9, 36, 127
11, 13252, Note_off_c, 9, 36, 0
11, 13296, Note_on_c, 9, 36, 127
11, 13300, Note_off_c, 9, 36, 0
11, 13344, Note_on_c, 9, 38, 127
11, 13348, Note_off_c, 9, 38, 0
11, 13440, Note_on_c, 9, 36, 127
11, 13444, Note_off_c, 9, 36, 0
11, 13536, Note_on_c, 9, 38, 127
11, 13540, Note_off_c, 9, 38, 0
11, 13632, Note_on_c, 9, 36, 127
11, 13636, Note_off_c, 9, 36, 0
11, 13680, Note_on_c, 9, 36, 127
11, 13684, Note_off_c, 9, 36, 0
11, 13728, Note_on_c, 9, 38, 127
11, 13732, Note_off_c, 9, 38, 0
11, 13824, Note_on_c, 9, 36, 127
11, 13828, Note_off_c, 9, 36, 0
11, 13920, Note_on_c, 9, 38, 127
11, 13924, Note_off_c, 9, 38, 0
11, 14016, Note_on_c, 9, 36, 127
11, 14020, Note_off_c, 9, 36, 0
11, 14064, Note_on_c, 9, 36, 127
11, 14068, Note_off_c, 9, 36, 0
11, 14112, Note_on_c, 9, 38, 127
11, 14116, Note_off_c, 9, 38, 0
11, 14208, Note_on_c, 9, 38, 127
11, 14208, Note_on_c, 9, 50, 101
11, 14212, Note_off_c, 9, 50, 0
11, 14212, Note_off_c, 9, 38, 0
11, 14256, Note_on_c, 9, 36, 127
11, 14260, Note_off_c, 9, 36, 0
11, 14304, Note_on_c, 9, 36, 127
11, 14308, Note_off_c, 9, 36, 0
11, 14352, Note_on_c, 9, 38, 127
11, 14352, Note_on_c, 9, 50, 101
11, 14356, Note_off_c, 9, 50, 0
11, 14356, Note_off_c, 9, 38, 0
11, 14400, Note_on_c, 9, 36, 127
11, 14404, Note_off_c, 9, 36, 0
11, 14448, Note_on_c, 9, 36, 127
11, 14452, Note_off_c, 9, 36, 0
11, 14496, Note_on_c, 9, 50, 101
11, 14496, Note_on_c, 9, 38, 127
11, 14500, Note_off_c, 9, 38, 0
11, 14500, Note_off_c, 9, 50, 0
11, 14544, Note_on_c, 9, 38, 127
11, 14548, Note_off_c, 9, 38, 0
11, 14592, Note_on_c, 9, 36, 127
11, 14596, Note_off_c, 9, 36, 0
11, 14688, Note_on_c, 9, 38, 127
11, 14692, Note_off_c, 9, 38, 0
11, 14784, Note_on_c, 9, 36, 127
11, 14788, Note_off_c, 9, 36, 0
11, 14832, Note_on_c, 9, 36, 127
11, 14836, Note_off_c, 9, 36, 0
11, 14880, Note_on_c, 9, 38, 127
11, 14884, Note_off_c, 9, 38, 0
11, 14976, Note_on_c, 9, 36, 127
11, 14980, Note_off_c, 9, 36, 0
11, 15072, Note_on_c, 9, 38, 127
11, 15076, Note_off_c, 9, 38, 0
11, 15168, Note_on_c, 9, 36, 127
11, 15172, Note_off_c, 9, 36, 0
11, 15216, Note_on_c, 9, 36, 127
11, 15220, Note_off_c, 9, 36, 0
11, 15264, Note_on_c, 9, 38, 127
11, 15268, Note_off_c, 9, 38, 0
11, 15360, Note_on_c, 9, 36, 127
11, 15364, Note_off_c, 9, 36, 0
11, 15456, Note_on_c, 9, 38, 127
11, 15460, Note_off_c, 9, 38, 0
11, 15552, Note_on_c, 9, 36, 127
11, 15556, Note_off_c, 9, 36, 0
11, 15600, Note_on_c, 9, 36, 127
11, 15604, Note_off_c, 9, 36, 0
11, 15648, Note_on_c, 9, 38, 127
11, 15652, Note_off_c, 9, 38, 0
11, 15744, Note_on_c, 9, 38, 127
11, 15744, Note_on_c, 9, 45, 127
11, 15744, Note_on_c, 9, 50, 101
11, 15748, Note_off_c, 9, 45, 0
11, 15748, Note_off_c, 9, 50, 0
11, 15748, Note_off_c, 9, 38, 0
11, 15792, Note_on_c, 9, 36, 127
11, 15792, Note_on_c, 9, 45, 127
11, 15796, Note_off_c, 9, 45, 0
11, 15796, Note_off_c, 9, 36, 0
11, 15840, Note_on_c, 9, 36, 127
11, 15840, Note_on_c, 9, 45, 127
11, 15844, Note_off_c, 9, 45, 0
11, 15844, Note_off_c, 9, 36, 0
11, 15888, Note_on_c, 9, 38, 127
11, 15888, Note_on_c, 9, 43, 127
11, 15888, Note_on_c, 9, 50, 101
11, 15892, Note_off_c, 9, 43, 0
11, 15892, Note_off_c, 9, 50, 0
11, 15892, Note_off_c, 9, 38, 0
11, 15936, Note_on_c, 9, 36, 127
11, 15936, Note_on_c, 9, 43, 127
11, 15940, Note_off_c, 9, 43, 0
11, 15940, Note_off_c, 9, 36, 0
11, 15984, Note_on_c, 9, 36, 127
11, 15984, Note_on_c, 9, 43, 127
11, 15988, Note_off_c, 9, 43, 0
11, 15988, Note_off_c, 9, 36, 0
11, 16032, Note_on_c, 9, 50, 101
11, 16032, Note_on_c, 9, 38, 127
11, 16032, Note_on_c, 9, 41, 127
11, 16036, Note_off_c, 9, 38, 0
11, 16036, Note_off_c, 9, 41, 0
11, 16036, Note_off_c, 9, 50, 0
11, 16080, Note_on_c, 9, 38, 127
11, 16080, Note_on_c, 9, 41, 127
11, 16084, Note_off_c, 9, 41, 0
11, 16084, Note_off_c, 9, 38, 0
11, 16128, Note_on_c, 9, 36, 127
11, 16132, Note_off_c, 9, 36, 0
11, 16224, Note_on_c, 9, 38, 127
11, 16228, Note_off_c, 9, 38, 0
11, 16320, Note_on_c, 9, 36, 127
11, 16324, Note_off_c, 9, 36, 0
11, 16368, Note_on_c, 9, 36, 127
11, 16372, Note_off_c, 9, 36, 0
11, 16416, Note_on_c, 9, 38, 127
11, 16420, Note_off_c, 9, 38, 0
11, 16512, Note_on_c, 9, 36, 127
11, 16516, Note_off_c, 9, 36, 0
11, 16608, Note_on_c, 9, 38, 127
11, 16612, Note_off_c, 9, 38, 0
11, 16704, Note_on_c, 9, 36, 127
11, 16708, Note_off_c, 9, 36, 0
11, 16752, Note_on_c, 9, 36, 127
11, 16756, Note_off_c, 9, 36, 0
11, 16800, Note_on_c, 9, 38, 127
11, 16804, Note_off_c, 9, 38, 0
11, 16896, Note_on_c, 9, 36, 127
11, 16900, Note_off_c, 9, 36, 0
11, 16992, Note_on_c, 9, 38, 127
11, 16996, Note_off_c, 9, 38, 0
11, 17088, Note_on_c, 9, 36, 127
11, 17092, Note_off_c, 9, 36, 0
11, 17136, Note_on_c, 9, 36, 127
11, 17140, Note_off_c, 9, 36, 0
11, 17184, Note_on_c, 9, 38, 127
11, 17188, Note_off_c, 9, 38, 0
11, 17280, Note_on_c, 9, 38, 127
11, 17280, Note_on_c, 9, 50, 101
11, 17284, Note_off_c, 9, 50, 0
11, 17284, Note_off_c, 9, 38, 0
11, 17328, Note_on_c, 9, 36, 127
11, 17332, Note_off_c, 9, 36, 0
11, 17376, Note_on_c, 9, 36, 127
11, 17380, Note_off_c, 9, 36, 0
11, 17424, Note_on_c, 9, 38, 127
11, 17424, Note_on_c, 9, 50, 101
11, 17428, Note_off_c, 9, 50, 0
11, 17428, Note_off_c, 9, 38, 0
11, 17472, Note_on_c, 9, 36, 127
11, 17476, Note_off_c, 9, 36, 0
11, 17520, Note_on_c, 9, 36, 127
11, 17524, Note_off_c, 9, 36, 0
11, 17568, Note_on_c, 9, 50, 101
11, 17568, Note_on_c, 9, 38, 127
11, 17572, Note_off_c, 9, 38, 0
11, 17572, Note_off_c, 9, 50, 0
11, 17616, Note_on_c, 9, 38, 127
11, 17620, Note_off_c, 9, 38, 0
11, 17664, Note_on_c, 9, 38, 127
11, 17668, Note_off_c, 9, 38, 0
11, 17712, Note_on_c, 9, 36, 127
11, 17716, Note_off_c, 9, 36, 0
11, 17760, Note_on_c, 9, 38, 127
11, 17764, Note_off_c, 9, 38, 0
11, 17808, Note_on_c, 9, 36, 127
11, 17812, Note_off_c, 9, 36, 0
11, 17856, Note_on_c, 9, 38, 127
11, 17860, Note_off_c, 9, 38, 0
11, 17904, Note_on_c, 9, 36, 127
11, 17908, Note_off_c, 9, 36, 0
11, 17952, Note_on_c, 9, 38, 127
11, 17956, Note_off_c, 9, 38, 0
11, 18000, Note_on_c, 9, 36, 127
11, 18004, Note_off_c, 9, 36, 0
11, 18048, Note_on_c, 9, 38, 127
11, 18052, Note_off_c, 9, 38, 0
11, 18096, Note_on_c, 9, 36, 127
11, 18100, Note_off_c, 9, 36, 0
11, 18144, Note_on_c, 9, 38, 127
11, 18148, Note_off_c, 9, 38, 0
11, 18192, Note_on_c, 9, 36, 127
11, 18196, Note_off_c, 9, 36, 0
11, 18240, Note_on_c, 9, 38, 127
11, 18244, Note_off_c, 9, 38, 0
11, 18288, Note_on_c, 9, 36, 127
11, 18292, Note_off_c, 9, 36, 0
11, 18336, Note_on_c, 9, 38, 127
11, 18340, Note_off_c, 9, 38, 0
11, 18384, Note_on_c, 9, 36, 127
11, 18388, Note_off_c, 9, 36, 0
11, 18432, Note_on_c, 9, 38, 127
11, 18436, Note_off_c, 9, 38, 0
11, 18480, Note_on_c, 9, 36, 127
11, 18484, Note_off_c, 9, 36, 0
11, 18528, Note_on_c, 9, 38, 127
11, 18532, Note_off_c, 9, 38, 0
11, 18576, Note_on_c, 9, 36, 127
11, 18580, Note_off_c, 9, 36, 0
11, 18624, Note_on_c, 9, 38, 127
11, 18628, Note_off_c, 9, 38, 0
11, 18672, Note_on_c, 9, 36, 127
11, 18676, Note_off_c, 9, 36, 0
11, 18720, Note_on_c, 9, 38, 127
11, 18724, Note_off_c, 9, 38, 0
11, 18768, Note_on_c, 9, 36, 127
11, 18772, Note_off_c, 9, 36, 0
11, 18816, Note_on_c, 9, 38, 127
11, 18816, Note_on_c, 9, 45, 127
11, 18816, Note_on_c, 9, 50, 101
11, 18820, Note_off_c, 9, 45, 0
11, 18820, Note_off_c, 9, 50, 0
11, 18820, Note_off_c, 9, 38, 0
11, 18864, Note_on_c, 9, 36, 127
11, 18864, Note_on_c, 9, 45, 127
11, 18868, Note_off_c, 9, 45, 0
11, 18868, Note_off_c, 9, 36, 0
11, 18912, Note_on_c, 9, 36, 127
11, 18912, Note_on_c, 9, 45, 127
11, 18916, Note_off_c, 9, 45, 0
11, 18916, Note_off_c, 9, 36, 0
11, 18960, Note_on_c, 9, 38, 127
11, 18960, Note_on_c, 9, 43, 127
11, 18960, Note_on_c, 9, 50, 101
11, 18964, Note_off_c, 9, 43, 0
11, 18964, Note_off_c, 9, 50, 0
11, 18964, Note_off_c, 9, 38, 0
11, 19008, Note_on_c, 9, 36, 127
11, 19008, Note_on_c, 9, 43, 127
11, 19012, Note_off_c, 9, 43, 0
11, 19012, Note_off_c, 9, 36, 0
11, 19056, Note_on_c, 9, 36, 127
11, 19056, Note_on_c, 9, 43, 127
11, 19060, Note_off_c, 9, 43, 0
11, 19060, Note_off_c, 9, 36, 0
11, 19104, Note_on_c, 9, 50, 101
11, 19104, Note_on_c, 9, 38, 127
11, 19104, Note_on_c, 9, 41, 127
11, 19108, Note_off_c, 9, 38, 0
11, 19108, Note_off_c, 9, 41, 0
11, 19108, Note_off_c, 9, 50, 0
11, 19152, Note_on_c, 9, 38, 127
11, 19152, Note_on_c, 9, 41, 127
11, 19156, Note_off_c, 9, 41, 0
11, 19156, Note_off_c, 9, 38, 0
11, 19200, Note_on_c, 9, 36, 127
11, 19204, Note_off_c, 9, 36, 0
11, 19296, Note_on_c, 9, 38, 127
11, 19300, Note_off_c, 9, 38, 0
11, 19392, Note_on_c, 9, 36, 127
11, 19396, Note_off_c, 9, 36, 0
11, 19440, Note_on_c, 9, 36, 127
11, 19444, Note_off_c, 9, 36, 0
11, 19488, Note_on_c, 9, 38, 127
11, 19492, Note_off_c, 9, 38, 0
11, 19584, Note_on_c, 9, 36, 127
11, 19584, Note_on_c, 9, 50, 101
11, 19588, Note_off_c, 9, 50, 0
11, 19588, Note_off_c, 9, 36, 0
11, 19680, Note_on_c, 9, 38, 127
11, 19684, Note_off_c, 9, 38, 0
11, 19776, Note_on_c, 9, 36, 127
11, 19776, Note_on_c, 9, 50, 101
11, 19780, Note_off_c, 9, 50, 0
11, 19780, Note_off_c, 9, 36, 0
11, 19824, Note_on_c, 9, 36, 127
11, 19828, Note_off_c, 9, 36, 0
11, 19872, Note_on_c, 9, 38, 127
11, 19876, Note_off_c, 9, 38, 0
11, 19968, Note_on_c, 9, 36, 127
11, 19972, Note_off_c, 9, 36, 0
11, 20064, Note_on_c, 9, 38, 127
11, 20068, Note_off_c, 9, 38, 0
11, 20160, Note_on_c, 9, 36, 127
11, 20164, Note_off_c, 9, 36, 0
11, 20208, Note_on_c, 9, 36, 127
11, 20212, Note_off_c, 9, 36, 0
11, 20256, Note_on_c, 9, 38, 127
11, 20260, Note_off_c, 9, 38, 0
11, 20352, Note_on_c, 9, 50, 101
11, 20352, Note_on_c, 9, 38, 127
11, 20356, Note_off_c, 9, 38, 0
11, 20356, Note_off_c, 9, 50, 0
11, 20400, Note_on_c, 9, 36, 127
11, 20404, Note_off_c, 9, 36, 0
11, 20448, Note_on_c, 9, 36, 127
11, 20452, Note_off_c, 9, 36, 0
11, 20496, Note_on_c, 9, 50, 101
11, 20496, Note_on_c, 9, 38, 127
11, 20500, Note_off_c, 9, 38, 0
11, 20500, Note_off_c, 9, 50, 0
11, 20544, Note_on_c, 9, 36, 127
11, 20548, Note_off_c, 9, 36, 0
11, 20592, Note_on_c, 9, 36, 127
11, 20596, Note_off_c, 9, 36, 0
11, 20640, Note_on_c, 9, 50, 101
11, 20640, Note_on_c, 9, 38, 127
11, 20644, Note_off_c, 9, 38, 0
11, 20644, Note_off_c, 9, 50, 0
11, 20688, Note_on_c, 9, 38, 127
11, 20692, Note_off_c, 9, 38, 0
11, 20736, Note_on_c, 9, 36, 127
11, 20740, Note_off_c, 9, 36, 0
11, 20832, Note_on_c, 9, 38, 127
11, 20836, Note_off_c, 9, 38, 0
11, 20928, Note_on_c, 9, 36, 127
11, 20932, Note_off_c, 9, 36, 0
11, 20976, Note_on_c, 9, 36, 127
11, 20980, Note_off_c, 9, 36, 0
11, 21024, Note_on_c, 9, 38, 127
11, 21028, Note_off_c, 9, 38, 0
11, 21120, Note_on_c, 9, 36, 127
11, 21120, Note_on_c, 9, 50, 101
11, 21124, Note_off_c, 9, 50, 0
11, 21124, Note_off_c, 9, 36, 0
11, 21216, Note_on_c, 9, 38, 127
11, 21220, Note_off_c, 9, 38, 0
11, 21312, Note_on_c, 9, 36, 127
11, 21312, Note_on_c, 9, 50, 101
11, 21316, Note_off_c, 9, 50, 0
11, 21316, Note_off_c, 9, 36, 0
11, 21360, Note_on_c, 9, 36, 127
11, 21364, Note_off_c, 9, 36, 0
11, 21408, Note_on_c, 9, 38, 127
11, 21412, Note_off_c, 9, 38, 0
11, 21504, Note_on_c, 9, 36, 127
11, 21508, Note_off_c, 9, 36, 0
11, 21600, Note_on_c, 9, 38, 127
11, 21604, Note_off_c, 9, 38, 0
11, 21696, Note_on_c, 9, 36, 127
11, 21700, Note_off_c, 9, 36, 0
11, 21744, Note_on_c, 9, 36, 127
11, 21748, Note_off_c, 9, 36, 0
11, 21792, Note_on_c, 9, 38, 127
11, 21796, Note_off_c, 9, 38, 0
11, 21888, Note_on_c, 9, 50, 101
11, 21888, Note_on_c, 9, 38, 127
11, 21888, Note_on_c, 9, 45, 127
11, 21892, Note_off_c, 9, 38, 0
11, 21892, Note_off_c, 9, 45, 0
11, 21892, Note_off_c, 9, 50, 0
11, 21936, Note_on_c, 9, 36, 127
11, 21936, Note_on_c, 9, 45, 127
11, 21940, Note_off_c, 9, 45, 0
11, 21940, Note_off_c, 9, 36, 0
11, 21984, Note_on_c, 9, 36, 127
11, 21984, Note_on_c, 9, 45, 127
11, 21988, Note_off_c, 9, 45, 0
11, 21988, Note_off_c, 9, 36, 0
11, 22032, Note_on_c, 9, 50, 101
11, 22032, Note_on_c, 9, 38, 127
11, 22032, Note_on_c, 9, 43, 127
11, 22036, Note_off_c, 9, 38, 0
11, 22036, Note_off_c, 9, 43, 0
11, 22036, Note_off_c, 9, 50, 0
11, 22080, Note_on_c, 9, 36, 127
11, 22080, Note_on_c, 9, 43, 127
11, 22084, Note_off_c, 9, 43, 0
11, 22084, Note_off_c, 9, 36, 0
11, 22128, Note_on_c, 9, 36, 127
11, 22128, Note_on_c, 9, 43, 127
11, 22132, Note_off_c, 9, 43, 0
11, 22132, Note_off_c, 9, 36, 0
11, 22176, Note_on_c, 9, 50, 101
11, 22176, Note_on_c, 9, 38, 127
11, 22176, Note_on_c, 9, 41, 127
11, 22180, Note_off_c, 9, 38, 0
11, 22180, Note_off_c, 9, 41, 0
11, 22180, Note_off_c, 9, 50, 0
11, 22224, Note_on_c, 9, 38, 127
11, 22224, Note_on_c, 9, 41, 127
11, 22228, Note_off_c, 9, 41, 0
11, 22228, Note_off_c, 9, 38, 0
11, 22272, Note_on_c, 9, 36, 127
11, 22276, Note_off_c, 9, 36, 0
11, 22368, Note_on_c, 9, 38, 127
11, 22372, Note_off_c, 9, 38, 0
11, 22464, Note_on_c, 9, 36, 127
11, 22468, Note_off_c, 9, 36, 0
11, 22512, Note_on_c, 9, 36, 127
11, 22516, Note_off_c, 9, 36, 0
11, 22560, Note_on_c, 9, 38, 127
11, 22564, Note_off_c, 9, 38, 0
11, 22656, Note_on_c, 9, 36, 127
11, 22656, Note_on_c, 9, 50, 101
11, 22660, Note_off_c, 9, 50, 0
11, 22660, Note_off_c, 9, 36, 0
11, 22752, Note_on_c, 9, 38, 127
11, 22756, Note_off_c, 9, 38, 0
11, 22848, Note_on_c, 9, 36, 127
11, 22848, Note_on_c, 9, 50, 101
11, 22852, Note_off_c, 9, 50, 0
11, 22852, Note_off_c, 9, 36, 0
11, 22896, Note_on_c, 9, 36, 127
11, 22900, Note_off_c, 9, 36, 0
11, 22944, Note_on_c, 9, 38, 127
11, 22948, Note_off_c, 9, 38, 0
11, 23040, Note_on_c, 9, 36, 127
11, 23044, Note_off_c, 9, 36, 0
11, 23136, Note_on_c, 9, 38, 127
11, 23140, Note_off_c, 9, 38, 0
11, 23232, Note_on_c, 9, 36, 127
11, 23236, Note_off_c, 9, 36, 0
11, 23280, Note_on_c, 9, 36, 127
11, 23284, Note_off_c, 9, 36, 0
11, 23328, Note_on_c, 9, 38, 127
11, 23332, Note_off_c, 9, 38, 0
11, 23424, Note_on_c, 9, 50, 101
11, 23424, Note_on_c, 9, 38, 127
11, 23428, Note_off_c, 9, 38, 0
11, 23428, Note_off_c, 9, 50, 0
11, 23472, Note_on_c, 9, 36, 127
11, 23476, Note_off_c, 9, 36, 0
11, 23520, Note_on_c, 9, 36, 127
11, 23524, Note_off_c, 9, 36, 0
11, 23568, Note_on_c, 9, 50, 101
11, 23568, Note_on_c, 9, 38, 127
11, 23572, Note_off_c, 9, 38, 0
11, 23572, Note_off_c, 9, 50, 0
11, 23616, Note_on_c, 9, 36, 127
11, 23620, Note_off_c, 9, 36, 0
11, 23664, Note_on_c, 9, 36, 127
11, 23668, Note_off_c, 9, 36, 0
11, 23712, Note_on_c, 9, 50, 101
11, 23712, Note_on_c, 9, 38, 127
11, 23716, Note_off_c, 9, 38, 0
11, 23716, Note_off_c, 9, 50, 0
11, 23760, Note_on_c, 9, 38, 127
11, 23764, Note_off_c, 9, 38, 0
11, 23808, Note_on_c, 9, 38, 127
11, 23812, Note_off_c, 9, 38, 0
11, 23856, Note_on_c, 9, 36, 127
11, 23860, Note_off_c, 9, 36, 0
11, 23904, Note_on_c, 9, 38, 127
11, 23908, Note_off_c, 9, 38, 0
11, 23952, Note_on_c, 9, 36, 127
11, 23956, Note_off_c, 9, 36, 0
11, 24000, Note_on_c, 9, 38, 127
11, 24004, Note_off_c, 9, 38, 0
11, 24048, Note_on_c, 9, 36, 127
11, 24052, Note_off_c, 9, 36, 0
11, 24096, Note_on_c, 9, 38, 127
11, 24100, Note_off_c, 9, 38, 0
11, 24144, Note_on_c, 9, 36, 127
11, 24148, Note_off_c, 9, 36, 0
11, 24192, Note_on_c, 9, 38, 127
11, 24196, Note_off_c, 9, 38, 0
11, 24240, Note_on_c, 9, 36, 127
11, 24244, Note_off_c, 9, 36, 0
11, 24288, Note_on_c, 9, 38, 127
11, 24292, Note_off_c, 9, 38, 0
11, 24336, Note_on_c, 9, 36, 127
11, 24340, Note_off_c, 9, 36, 0
11, 24384, Note_on_c, 9, 38, 127
11, 24388, Note_off_c, 9, 38, 0
11, 24432, Note_on_c, 9, 36, 127
11, 24436, Note_off_c, 9, 36, 0
11, 24480, Note_on_c, 9, 38, 127
11, 24484, Note_off_c, 9, 38, 0
11, 24528, Note_on_c, 9, 36, 127
11, 24532, Note_off_c, 9, 36, 0
11, 24576, Note_on_c, 9, 38, 127
11, 24580, Note_off_c, 9, 38, 0
11, 24624, Note_on_c, 9, 36, 127
11, 24628, Note_off_c, 9, 36, 0
11, 24672, Note_on_c, 9, 38, 127
11, 24676, Note_off_c, 9, 38, 0
11, 24720, Note_on_c, 9, 36, 127
11, 24724, Note_off_c, 9, 36, 0
11, 24768, Note_on_c, 9, 38, 127
11, 24772, Note_off_c, 9, 38, 0
11, 24816, Note_on_c, 9, 36, 127
11, 24820, Note_off_c, 9, 36, 0
11, 24864, Note_on_c, 9, 38, 127
11, 24868, Note_off_c, 9, 38, 0
11, 24912, Note_on_c, 9, 36, 127
11, 24916, Note_off_c, 9, 36, 0
11, 24960, Note_on_c, 9, 38, 127
11, 24960, Note_on_c, 9, 45, 127
11, 24960, Note_on_c, 9, 50, 101
11, 24964, Note_off_c, 9, 45, 0
11, 24964, Note_off_c, 9, 50, 0
11, 24964, Note_off_c, 9, 38, 0
11, 25008, Note_on_c, 9, 36, 127
11, 25008, Note_on_c, 9, 45, 127
11, 25012, Note_off_c, 9, 45, 0
11, 25012, Note_off_c, 9, 36, 0
11, 25056, Note_on_c, 9, 36, 127
11, 25056, Note_on_c, 9, 45, 127
11, 25060, Note_off_c, 9, 45, 0
11, 25060, Note_off_c, 9, 36, 0
11, 25104, Note_on_c, 9, 38, 127
11, 25104, Note_on_c, 9, 43, 127
11, 25104, Note_on_c, 9, 50, 101
11, 25108, Note_off_c, 9, 43, 0
11, 25108, Note_off_c, 9, 50, 0
11, 25108, Note_off_c, 9, 38, 0
11, 25152, Note_on_c, 9, 36, 127
11, 25152, Note_on_c, 9, 43, 127
11, 25156, Note_off_c, 9, 43, 0
11, 25156, Note_off_c, 9, 36, 0
11, 25200, Note_on_c, 9, 36, 127
11, 25200, Note_on_c, 9, 43, 127
11, 25204, Note_off_c, 9, 43, 0
11, 25204, Note_off_c, 9, 36, 0
11, 25248, Note_on_c, 9, 50, 101
11, 25248, Note_on_c, 9, 38, 127
11, 25248, Note_on_c, 9, 41, 127
11, 25252, Note_off_c, 9, 38, 0
11, 25252, Note_off_c, 9, 41, 0
11, 25252, Note_off_c, 9, 50, 0
11, 25296, Note_on_c, 9, 38, 127
11, 25296, Note_on_c, 9, 41, 127
11, 25300, Note_off_c, 9, 41, 0
11, 25300, Note_off_c, 9, 38, 0
11, 25344, Note_on_c, 9, 36, 127
11, 25348, Note_off_c, 9, 36, 0
11, 25440, Note_on_c, 9, 38, 127
11, 25444, Note_off_c, 9, 38, 0
11, 25536, Note_on_c, 9, 36, 127
11, 25540, Note_off_c, 9, 36, 0
11, 25584, Note_on_c, 9, 36, 127
11, 25588, Note_off_c, 9, 36, 0
11, 25632, Note_on_c, 9, 38, 127
11, 25636, Note_off_c, 9, 38, 0
11, 25728, Note_on_c, 9, 36, 127
11, 25728, Note_on_c, 9, 50, 101
11, 25732, Note_off_c, 9, 50, 0
11, 25732, Note_off_c, 9, 36, 0
11, 25824, Note_on_c, 9, 38, 127
11, 25828, Note_off_c, 9, 38, 0
11, 25920, Note_on_c, 9, 36, 127
11, 25920, Note_on_c, 9, 50, 101
11, 25924, Note_off_c, 9, 50, 0
11, 25924, Note_off_c, 9, 36, 0
11, 25968, Note_on_c, 9, 36, 127
11, 25972, Note_off_c, 9, 36, 0
11, 26016, Note_on_c, 9, 38, 127
11, 26020, Note_off_c, 9, 38, 0
11, 26112, Note_on_c, 9, 36, 127
11, 26116, Note_off_c, 9, 36, 0
11, 26208, Note_on_c, 9, 38, 127
11, 26212, Note_off_c, 9, 38, 0
11, 26304, Note_on_c, 9, 36, 127
11, 26308, Note_off_c, 9, 36, 0
11, 26352, Note_on_c, 9, 36, 127
11, 26356, Note_off_c, 9, 36, 0
11, 26400, Note_on_c, 9, 38, 127
11, 26404, Note_off_c, 9, 38, 0
11, 26496, Note_on_c, 9, 50, 101
11, 26496, Note_on_c, 9, 38, 127
11, 26500, Note_off_c, 9, 38, 0
11, 26500, Note_off_c, 9, 50, 0
11, 26544, Note_on_c, 9, 36, 127
11, 26548, Note_off_c, 9, 36, 0
11, 26592, Note_on_c, 9, 36, 127
11, 26596, Note_off_c, 9, 36, 0
11, 26640, Note_on_c, 9, 50, 101
11, 26640, Note_on_c, 9, 38, 127
11, 26644, Note_off_c, 9, 38, 0
11, 26644, Note_off_c, 9, 50, 0
11, 26688, Note_on_c, 9, 36, 127
11, 26692, Note_off_c, 9, 36, 0
11, 26736, Note_on_c, 9, 36, 127
11, 26740, Note_off_c, 9, 36, 0
11, 26784, Note_on_c, 9, 50, 101
11, 26784, Note_on_c, 9, 38, 127
11, 26788, Note_off_c, 9, 38, 0
11, 26788, Note_off_c, 9, 50, 0
11, 26832, Note_on_c, 9, 38, 127
11, 26836, Note_off_c, 9, 38, 0
11, 26880, Note_on_c, 9, 36, 127
11, 26884, Note_off_c, 9, 36, 0
11, 26976, Note_on_c, 9, 38, 127
11, 26980, Note_off_c, 9, 38, 0
11, 27072, Note_on_c, 9, 36, 127
11, 27076, Note_off_c, 9, 36, 0
11, 27120, Note_on_c, 9, 36, 127
11, 27124, Note_off_c, 9, 36, 0
11, 27168, Note_on_c, 9, 38, 127
11, 27172, Note_off_c, 9, 38, 0
11, 27264, Note_on_c, 9, 36, 127
11, 27264, Note_on_c, 9, 50, 101
11, 27268, Note_off_c, 9, 50, 0
11, 27268, Note_off_c, 9, 36, 0
11, 27360, Note_on_c, 9, 38, 127
11, 27364, Note_off_c, 9, 38, 0
11, 27456, Note_on_c, 9, 36, 127
11, 27456, Note_on_c, 9, 50, 101
11, 27460, Note_off_c, 9, 50, 0
11, 27460, Note_off_c, 9, 36, 0
11, 27504, Note_on_c, 9, 36, 127
11, 27508, Note_off_c, 9, 36, 0
11, 27552, Note_on_c, 9, 38, 127
11, 27556, Note_off_c, 9, 38, 0
11, 27648, Note_on_c, 9, 36, 127
11, 27652, Note_off_c, 9, 36, 0
11, 27744, Note_on_c, 9, 38, 127
11, 27748, Note_off_c, 9, 38, 0
11, 27840, Note_on_c, 9, 36, 127
11, 27844, Note_off_c, 9, 36, 0
11, 27888, Note_on_c, 9, 36, 127
11, 27892, Note_off_c, 9, 36, 0
11, 27936, Note_on_c, 9, 38, 127
11, 27940, Note_off_c, 9, 38, 0
11, 28032, Note_on_c, 9, 50, 101
11, 28032, Note_on_c, 9, 38, 127
11, 28032, Note_on_c, 9, 45, 127
11, 28036, Note_off_c, 9, 38, 0
11, 28036, Note_off_c, 9, 45, 0
11, 28036, Note_off_c, 9, 50, 0
11, 28080, Note_on_c, 9, 36, 127
11, 28080, Note_on_c, 9, 45, 127
11, 28084, Note_off_c, 9, 45, 0
11, 28084, Note_off_c, 9, 36, 0
11, 28128, Note_on_c, 9, 36, 127
11, 28128, Note_on_c, 9, 45, 127
11, 28132, Note_off_c, 9, 45, 0
11, 28132, Note_off_c, 9, 36, 0
11, 28176, Note_on_c, 9, 50, 101
11, 28176, Note_on_c, 9, 38, 127
11, 28176, Note_on_c, 9, 43, 127
11, 28180, Note_off_c, 9, 38, 0
11, 28180, Note_off_c, 9, 43, 0
11, 28180, Note_off_c, 9, 50, 0
11, 28224, Note_on_c, 9, 36, 127
11, 28224, Note_on_c, 9, 43, 127
11, 28228, Note_off_c, 9, 43, 0
11, 28228, Note_off_c, 9, 36, 0
11, 28272, Note_on_c, 9, 36, 127
11, 28272, Note_on_c, 9, 43, 127
11, 28276, Note_off_c, 9, 43, 0
11, 28276, Note_off_c, 9, 36, 0
11, 28320, Note_on_c, 9, 50, 101
11, 28320, Note_on_c, 9, 38, 127
11, 28320, Note_on_c, 9, 41, 127
11, 28324, Note_off_c, 9, 38, 0
11, 28324, Note_off_c, 9, 41, 0
11, 28324, Note_off_c, 9, 50, 0
11, 28368, Note_on_c, 9, 38, 127
11, 28368, Note_on_c, 9, 41, 127
11, 28372, Note_off_c, 9, 41, 0
11, 28372, Note_off_c, 9, 38, 0
11, 28416, Note_on_c, 9, 36, 127
11, 28420, Note_off_c, 9, 36, 0
11, 28512, Note_on_c, 9, 38, 127
11, 28516, Note_off_c, 9, 38, 0
11, 28608, Note_on_c, 9, 36, 127
11, 28612, Note_off_c, 9, 36, 0
11, 28656, Note_on_c, 9, 36, 127
11, 28660, Note_off_c, 9, 36, 0
11, 28704, Note_on_c, 9, 38, 127
11, 28708, Note_off_c, 9, 38, 0
11, 28800, Note_on_c, 9, 36, 127
11, 28800, Note_on_c, 9, 50, 101
11, 28804, Note_off_c, 9, 50, 0
11, 28804, Note_off_c, 9, 36, 0
11, 28896, Note_on_c, 9, 38, 127
11, 28900, Note_off_c, 9, 38, 0
11, 28992, Note_on_c, 9, 36, 127
11, 28992, Note_on_c, 9, 50, 101
11, 28996, Note_off_c, 9, 50, 0
11, 28996, Note_off_c, 9, 36, 0
11, 29040, Note_on_c, 9, 36, 127
11, 29044, Note_off_c, 9, 36, 0
11, 29088, Note_on_c, 9, 38, 127
11, 29092, Note_off_c, 9, 38, 0
11, 29184, Note_on_c, 9, 36, 127
11, 29188, Note_off_c, 9, 36, 0
11, 29280, Note_on_c, 9, 38, 127
11, 29284, Note_off_c, 9, 38, 0
11, 29376, Note_on_c, 9, 36, 127
11, 29380, Note_off_c, 9, 36, 0
11, 29424, Note_on_c, 9, 36, 127
11, 29428, Note_off_c, 9, 36, 0
11, 29472, Note_on_c, 9, 38, 127
11, 29476, Note_off_c, 9, 38, 0
11, 29568, Note_on_c, 9, 50, 101
11, 29568, Note_on_c, 9, 38, 127
11, 29572, Note_off_c, 9, 38, 0
11, 29572, Note_off_c, 9, 50, 0
11, 29616, Note_on_c, 9, 36, 127
11, 29620, Note_off_c, 9, 36, 0
11, 29664, Note_on_c, 9, 36, 127
11, 29668, Note_off_c, 9, 36, 0
11, 29712, Note_on_c, 9, 50, 101
11, 29712, Note_on_c, 9, 38, 127
11, 29716, Note_off_c, 9, 38, 0
11, 29716, Note_off_c, 9, 50, 0
11, 29760, Note_on_c, 9, 36, 127
11, 29764, Note_off_c, 9, 36, 0
11, 29808, Note_on_c, 9, 36, 127
11, 29812, Note_off_c, 9, 36, 0
11, 29856, Note_on_c, 9, 50, 101
11, 29856, Note_on_c, 9, 38, 127
11, 29860, Note_off_c, 9, 38, 0
11, 29860, Note_off_c, 9, 50, 0
11, 29904, Note_on_c, 9, 38, 127
11, 29908, Note_off_c, 9, 38, 0
11, 29952, Note_on_c, 9, 38, 127
11, 29956, Note_off_c, 9, 38, 0
11, 30000, Note_on_c, 9, 36, 127
11, 30004, Note_off_c, 9, 36, 0
11, 30048, Note_on_c, 9, 38, 127
11, 30052, Note_off_c, 9, 38, 0
11, 30096, Note_on_c, 9, 36, 127
11, 30100, Note_off_c, 9, 36, 0
11, 30144, Note_on_c, 9, 38, 127
11, 30148, Note_off_c, 9, 38, 0
11, 30192, Note_on_c, 9, 36, 127
11, 30196, Note_off_c, 9, 36, 0
11, 30240, Note_on_c, 9, 38, 127
11, 30244, Note_off_c, 9, 38, 0
11, 30288, Note_on_c, 9, 36, 127
11, 30292, Note_off_c, 9, 36, 0
11, 30336, Note_on_c, 9, 38, 127
11, 30340, Note_off_c, 9, 38, 0
11, 30384, Note_on_c, 9, 36, 127
11, 30388, Note_off_c, 9, 36, 0
11, 30432, Note_on_c, 9, 38, 127
11, 30436, Note_off_c, 9, 38, 0
11, 30480, Note_on_c, 9, 36, 127
11, 30484, Note_off_c, 9, 36, 0
11, 30528, Note_on_c, 9, 38, 127
11, 30532, Note_off_c, 9, 38, 0
11, 30576, Note_on_c, 9, 36, 127
11, 30580, Note_off_c, 9, 36, 0
11, 30624, Note_on_c, 9, 38, 127
11, 30628, Note_off_c, 9, 38, 0
11, 30672, Note_on_c, 9, 36, 127
11, 30676, Note_off_c, 9, 36, 0
11, 30720, Note_on_c, 9, 38, 127
11, 30724, Note_off_c, 9, 38, 0
11, 30768, Note_on_c, 9, 36, 127
11, 30772, Note_off_c, 9, 36, 0
11, 30816, Note_on_c, 9, 38, 127
11, 30820, Note_off_c, 9, 38, 0
11, 30864, Note_on_c, 9, 36, 127
11, 30868, Note_off_c, 9, 36, 0
11, 30912, Note_on_c, 9, 38, 127
11, 30916, Note_off_c, 9, 38, 0
11, 30960, Note_on_c, 9, 36, 127
11, 30964, Note_off_c, 9, 36, 0
11, 31008, Note_on_c, 9, 38, 127
11, 31012, Note_off_c, 9, 38, 0
11, 31056, Note_on_c, 9, 36, 127
11, 31060, Note_off_c, 9, 36, 0
11, 31104, Note_on_c, 9, 38, 127
11, 31104, Note_on_c, 9, 45, 127
11, 31104, Note_on_c, 9, 50, 101
11, 31108, Note_off_c, 9, 45, 0
11, 31108, Note_off_c, 9, 50, 0
11, 31108, Note_off_c, 9, 38, 0
11, 31152, Note_on_c, 9, 36, 127
11, 31152, Note_on_c, 9, 45, 127
11, 31156, Note_off_c, 9, 45, 0
11, 31156, Note_off_c, 9, 36, 0
11, 31200, Note_on_c, 9, 36, 127
11, 31200, Note_on_c, 9, 45, 127
11, 31204, Note_off_c, 9, 45, 0
11, 31204, Note_off_c, 9, 36, 0
11, 31248, Note_on_c, 9, 38, 127
11, 31248, Note_on_c, 9, 43, 127
11, 31248, Note_on_c, 9, 50, 101
11, 31252, Note_off_c, 9, 43, 0
11, 31252, Note_off_c, 9, 50, 0
11, 31252, Note_off_c, 9, 38, 0
11, 31296, Note_on_c, 9, 36, 127
11, 31296, Note_on_c, 9, 43, 127
11, 31300, Note_off_c, 9, 43, 0
11, 31300, Note_off_c, 9, 36, 0
11, 31344, Note_on_c, 9, 36, 127
11, 31344, Note_on_c, 9, 43, 127
11, 31348, Note_off_c, 9, 43, 0
11, 31348, Note_off_c, 9, 36, 0
11, 31392, Note_on_c, 9, 50, 101
11, 31392, Note_on_c, 9, 38, 127
11, 31392, Note_on_c, 9, 41, 127
11, 31396, Note_off_c, 9, 38, 0
11, 31396, Note_off_c, 9, 41, 0
11, 31396, Note_off_c, 9, 50, 0
11, 31440, Note_on_c, 9, 38, 127
11, 31440, Note_on_c, 9, 41, 127
11, 31444, Note_off_c, 9, 41, 0
11, 31444, Note_off_c, 9, 38, 0
11, 31488, Note_on_c, 9, 36, 127
11, 31492, Note_off_c, 9, 36, 0
11, 31584, Note_on_c, 9, 38, 127
11, 31588, Note_off_c, 9, 38, 0
11, 31680, Note_on_c, 9, 36, 127
11, 31684, Note_off_c, 9, 36, 0
11, 31728, Note_on_c, 9, 36, 127
11, 31732, Note_off_c, 9, 36, 0
11, 31776, Note_on_c, 9, 38, 127
11, 31780, Note_off_c, 9, 38, 0
11, 31872, Note_on_c, 9, 36, 127
11, 31872, Note_on_c, 9, 50, 101
11, 31876, Note_off_c, 9, 50, 0
11, 31876, Note_off_c, 9, 36, 0
11, 31968, Note_on_c, 9, 38, 127
11, 31972, Note_off_c, 9, 38, 0
11, 32064, Note_on_c, 9, 36, 127
11, 32064, Note_on_c, 9, 50, 101
11, 32068, Note_off_c, 9, 50, 0
11, 32068, Note_off_c, 9, 36, 0
11, 32112, Note_on_c, 9, 36, 127
11, 32116, Note_off_c, 9, 36, 0
11, 32160, Note_on_c, 9, 38, 127
11, 32164, Note_off_c, 9, 38, 0
11, 32256, Note_on_c, 9, 36, 127
11, 32260, Note_off_c, 9, 36, 0
11, 32352, Note_on_c, 9, 38, 127
11, 32356, Note_off_c, 9, 38, 0
11, 32448, Note_on_c, 9, 36, 127
11, 32452, Note_off_c, 9, 36, 0
11, 32496, Note_on_c, 9, 36, 127
11, 32500, Note_off_c, 9, 36, 0
11, 32544, Note_on_c, 9, 38, 127
11, 32548, Note_off_c, 9, 38, 0
11, 32640, Note_on_c, 9, 50, 101
11, 32640, Note_on_c, 9, 38, 127
11, 32644, Note_off_c, 9, 38, 0
11, 32644, Note_off_c, 9, 50, 0
11, 32688, Note_on_c, 9, 36, 127
11, 32692, Note_off_c, 9, 36, 0
11, 32736, Note_on_c, 9, 36, 127
11, 32740, Note_off_c, 9, 36, 0
11, 32784, Note_on_c, 9, 50, 101
11, 32784, Note_on_c, 9, 38, 127
11, 32788, Note_off_c, 9, 38, 0
11, 32788, Note_off_c, 9, 50, 0
11, 32832, Note_on_c, 9, 36, 127
11, 32836, Note_off_c, 9, 36, 0
11, 32880, Note_on_c, 9, 36, 127
11, 32884, Note_off_c, 9, 36, 0
11, 32928, Note_on_c, 9, 50, 101
11, 32928, Note_on_c, 9, 38, 127
11, 32932, Note_off_c, 9, 38, 0
11, 32932, Note_off_c, 9, 50, 0
11, 32976, Note_on_c, 9, 38, 127
11, 32980, Note_off_c, 9, 38, 0
11, 33024, Note_on_c, 9, 36, 127
11, 33028, Note_off_c, 9, 36, 0
11, 33120, Note_on_c, 9, 38, 127
11, 33124, Note_off_c, 9, 38, 0
11, 33216, Note_on_c, 9, 36, 127
11, 33220, Note_off_c, 9, 36, 0
11, 33264, Note_on_c, 9, 36, 127
11, 33268, Note_off_c, 9, 36, 0
11, 33312, Note_on_c, 9, 38, 127
11, 33316, Note_off_c, 9, 38, 0
11, 33408, Note_on_c, 9, 36, 127
11, 33408, Note_on_c, 9, 50, 101
11, 33412, Note_off_c, 9, 50, 0
11, 33412, Note_off_c, 9, 36, 0
11, 33504, Note_on_c, 9, 38, 127
11, 33508, Note_off_c, 9, 38, 0
11, 33600, Note_on_c, 9, 36, 127
11, 33600, Note_on_c, 9, 50, 101
11, 33604, Note_off_c, 9, 50, 0
11, 33604, Note_off_c, 9, 36, 0
11, 33648, Note_on_c, 9, 36, 127
11, 33652, Note_off_c, 9, 36, 0
11, 33696, Note_on_c, 9, 38, 127
11, 33700, Note_off_c, 9, 38, 0
11, 33792, Note_on_c, 9, 36, 127
11, 33796, Note_off_c, 9, 36, 0
11, 33888, Note_on_c, 9, 38, 127
11, 33892, Note_off_c, 9, 38, 0
11, 33984, Note_on_c, 9, 36, 127
11, 33988, Note_off_c, 9, 36, 0
11, 34032, Note_on_c, 9, 36, 127
11, 34036, Note_off_c, 9, 36, 0
11, 34080, Note_on_c, 9, 38, 127
11, 34084, Note_off_c, 9, 38, 0
11, 34176, Note_on_c, 9, 50, 101
11, 34176, Note_on_c, 9, 38, 127
11, 34176, Note_on_c, 9, 45, 127
11, 34180, Note_off_c, 9, 38, 0
11, 34180, Note_off_c, 9, 45, 0
11, 34180, Note_off_c, 9, 50, 0
11, 34224, Note_on_c, 9, 36, 127
11, 34224, Note_on_c, 9, 45, 127
11, 34228, Note_off_c, 9, 45, 0
11, 34228, Note_off_c, 9, 36, 0
11, 34272, Note_on_c, 9, 36, 127
11, 34272, Note_on_c, 9, 45, 127
11, 34276, Note_off_c, 9, 45, 0
11, 34276, Note_off_c, 9, 36, 0
11, 34320, Note_on_c, 9, 50, 101
11, 34320, Note_on_c, 9, 38, 127
11, 34320, Note_on_c, 9, 43, 127
11, 34324, Note_off_c, 9, 38, 0
11, 34324, Note_off_c, 9, 43, 0
11, 34324, Note_off_c, 9, 50, 0
11, 34368, Note_on_c, 9, 36, 127
11, 34368, Note_on_c, 9, 43, 127
11, 34372, Note_off_c, 9, 43, 0
11, 34372, Note_off_c, 9, 36, 0
11, 34416, Note_on_c, 9, 36, 127
11, 34416, Note_on_c, 9, 43, 127
11, 34420, Note_off_c, 9, 43, 0
11, 34420, Note_off_c, 9, 36, 0
11, 34464, Note_on_c, 9, 50, 101
11, 34464, Note_on_c, 9, 38, 127
11, 34464, Note_on_c, 9, 41, 127
11, 34468, Note_off_c, 9, 38, 0
11, 34468, Note_off_c, 9, 41, 0
11, 34468, Note_off_c, 9, 50, 0
11, 34512, Note_on_c, 9, 38, 127
11, 34512, Note_on_c, 9, 41, 127
11, 34516, Note_off_c, 9, 41, 0
11, 34516, Note_off_c, 9, 38, 0
11, 34560, Note_on_c, 9, 36, 127
11, 34564, Note_off_c, 9, 36, 0
11, 34656, Note_on_c, 9, 38, 127
11, 34660, Note_off_c, 9, 38, 0
11, 34752, Note_on_c, 9, 36, 127
11, 34756, Note_off_c, 9, 36, 0
11, 34800, Note_on_c, 9, 36, 127
11, 34804, Note_off_c, 9, 36, 0
11, 34848, Note_on_c, 9, 38, 127
11, 34852, Note_off_c, 9, 38, 0
11, 34944, Note_on_c, 9, 36, 127
11, 34944, Note_on_c, 9, 50, 101
11, 34948, Note_off_c, 9, 50, 0
11, 34948, Note_off_c, 9, 36, 0
11, 35040, Note_on_c, 9, 38, 127
11, 35044, Note_off_c, 9, 38, 0
11, 35136, Note_on_c, 9, 36, 127
11, 35136, Note_on_c, 9, 50, 101
11, 35140, Note_off_c, 9, 50, 0
11, 35140, Note_off_c, 9, 36, 0
11, 35184, Note_on_c, 9, 36, 127
11, 35188, Note_off_c, 9, 36, 0
11, 35232, Note_on_c, 9, 38, 127
11, 35236, Note_off_c, 9, 38, 0
11, 35328, Note_on_c, 9, 36, 127
11, 35332, Note_off_c, 9, 36, 0
11, 35424, Note_on_c, 9, 38, 127
11, 35428, Note_off_c, 9, 38, 0
11, 35520, Note_on_c, 9, 36, 127
11, 35524, Note_off_c, 9, 36, 0
11, 35568, Note_on_c, 9, 36, 127
11, 35572, Note_off_c, 9, 36, 0
11, 35616, Note_on_c, 9, 38, 127
11, 35620, Note_off_c, 9, 38, 0
11, 35712, Note_on_c, 9, 50, 101
11, 35712, Note_on_c, 9, 38, 127
11, 35716, Note_off_c, 9, 38, 0
11, 35716, Note_off_c, 9, 50, 0
11, 35760, Note_on_c, 9, 36, 127
11, 35764, Note_off_c, 9, 36, 0
11, 35808, Note_on_c, 9, 36, 127
11, 35812, Note_off_c, 9, 36, 0
11, 35856, Note_on_c, 9, 50, 101
11, 35856, Note_on_c, 9, 38, 127
11, 35860, Note_off_c, 9, 38, 0
11, 35860, Note_off_c, 9, 50, 0
11, 35904, Note_on_c, 9, 36, 127
11, 35908, Note_off_c, 9, 36, 0
11, 35952, Note_on_c, 9, 36, 127
11, 35956, Note_off_c, 9, 36, 0
11, 36000, Note_on_c, 9, 50, 101
11, 36000, Note_on_c, 9, 38, 127
11, 36004, Note_off_c, 9, 38, 0
11, 36004, Note_off_c, 9, 50, 0
11, 36048, Note_on_c, 9, 38, 127
11, 36052, Note_off_c, 9, 38, 0
11, 36096, Note_on_c, 9, 36, 127
11, 36100, Note_off_c, 9, 36, 0
11, 36192, Note_on_c, 9, 38, 127
11, 36196, Note_off_c, 9, 38, 0
11, 36288, Note_on_c, 9, 36, 127
11, 36292, Note_off_c, 9, 36, 0
11, 36336, Note_on_c, 9, 36, 127
11, 36340, Note_off_c, 9, 36, 0
11, 36384, Note_on_c, 9, 38, 127
11, 36388, Note_off_c, 9, 38, 0
11, 36480, Note_on_c, 9, 36, 127
11, 36480, Note_on_c, 9, 50, 101
11, 36484, Note_off_c, 9, 50, 0
11, 36484, Note_off_c, 9, 36, 0
11, 36576, Note_on_c, 9, 38, 127
11, 36580, Note_off_c, 9, 38, 0
11, 36672, Note_on_c, 9, 36, 127
11, 36672, Note_on_c, 9, 50, 101
11, 36676, Note_off_c, 9, 50, 0
11, 36676, Note_off_c, 9, 36, 0
11, 36720, Note_on_c, 9, 36, 127
11, 36724, Note_off_c, 9, 36, 0
11, 36768, Note_on_c, 9, 38, 127
11, 36772, Note_off_c, 9, 38, 0
11, 36864, Note_on_c, 9, 36, 127
11, 36868, Note_off_c, 9, 36, 0
11, 36960, Note_on_c, 9, 38, 127
11, 36964, Note_off_c, 9, 38, 0
11, 37056, Note_on_c, 9, 36, 127
11, 37060, Note_off_c, 9, 36, 0
11, 37104, Note_on_c, 9, 36, 127
11, 37108, Note_off_c, 9, 36, 0
11, 37152, Note_on_c, 9, 38, 127
11, 37156, Note_off_c, 9, 38, 0
11, 37248, Note_on_c, 9, 50, 101
11, 37248, Note_on_c, 9, 38, 127
11, 37248, Note_on_c, 9, 45, 127
11, 37252, Note_off_c, 9, 38, 0
11, 37252, Note_off_c, 9, 45, 0
11, 37252, Note_off_c, 9, 50, 0
11, 37296, Note_on_c, 9, 36, 127
11, 37296, Note_on_c, 9, 45, 127
11, 37300, Note_off_c, 9, 45, 0
11, 37300, Note_off_c, 9, 36, 0
11, 37344, Note_on_c, 9, 36, 127
11, 37344, Note_on_c, 9, 45, 127
11, 37348, Note_off_c, 9, 45, 0
11, 37348, Note_off_c, 9, 36, 0
11, 37392, Note_on_c, 9, 50, 101
11, 37392, Note_on_c, 9, 38, 127
11, 37392, Note_on_c, 9, 43, 127
11, 37396, Note_off_c, 9, 38, 0
11, 37396, Note_off_c, 9, 43, 0
11, 37396, Note_off_c, 9, 50, 0
11, 37440, Note_on_c, 9, 36, 127
11, 37440, Note_on_c, 9, 43, 127
11, 37444, Note_off_c, 9, 43, 0
11, 37444, Note_off_c, 9, 36, 0
11, 37488, Note_on_c, 9, 36, 127
11, 37488, Note_on_c, 9, 43, 127
11, 37492, Note_off_c, 9, 43, 0
11, 37492, Note_off_c, 9, 36, 0
11, 37536, Note_on_c, 9, 50, 101
11, 37536, Note_on_c, 9, 38, 127
11, 37536, Note_on_c, 9, 41, 127
11, 37540, Note_off_c, 9, 38, 0
11, 37540, Note_off_c, 9, 41, 0
11, 37540, Note_off_c, 9, 50, 0
11, 37584, Note_on_c, 9, 38, 127
11, 37584, Note_on_c, 9, 41, 127
11, 37588, Note_off_c, 9, 41, 0
11, 37588, Note_off_c, 9, 38, 0
11, 37632, Note_on_c, 9, 36, 127
11, 37636, Note_off_c, 9, 36, 0
11, 37728, Note_on_c, 9, 36, 127
11, 37732, Note_off_c, 9, 36, 0
11, 37824, Note_on_c, 9, 38, 127
11, 37828, Note_off_c, 9, 38, 0
11, 37872, Note_on_c, 9, 36, 127
11, 37876, Note_off_c, 9, 36, 0
11, 37968, Note_on_c, 9, 36, 127
11, 37972, Note_off_c, 9, 36, 0
11, 38016, Note_on_c, 9, 36, 127
11, 38016, Note_on_c, 9, 50, 101
11, 38020, Note_off_c, 9, 50, 0
11, 38020, Note_off_c, 9, 36, 0
11, 38064, Note_on_c, 9, 36, 127
11, 38068, Note_off_c, 9, 36, 0
11, 38160, Note_on_c, 9, 36, 127
11, 38164, Note_off_c, 9, 36, 0
11, 38208, Note_on_c, 9, 38, 127
11, 38208, Note_on_c, 9, 50, 101
11, 38212, Note_off_c, 9, 50, 0
11, 38212, Note_off_c, 9, 38, 0
11, 38256, Note_on_c, 9, 36, 127
11, 38260, Note_off_c, 9, 36, 0
11, 38304, Note_on_c, 9, 36, 127
11, 38308, Note_off_c, 9, 36, 0
11, 38352, Note_on_c, 9, 36, 127
11, 38356, Note_off_c, 9, 36, 0
11, 38448, Note_on_c, 9, 36, 127
11, 38452, Note_off_c, 9, 36, 0
11, 38496, Note_on_c, 9, 36, 127
11, 38500, Note_off_c, 9, 36, 0
11, 38544, Note_on_c, 9, 36, 127
11, 38548, Note_off_c, 9, 36, 0
11, 38592, Note_on_c, 9, 38, 127
11, 38596, Note_off_c, 9, 38, 0
11, 38640, Note_on_c, 9, 36, 127
11, 38644, Note_off_c, 9, 36, 0
11, 38688, Note_on_c, 9, 36, 127
11, 38692, Note_off_c, 9, 36, 0
11, 38736, Note_on_c, 9, 36, 127
11, 38740, Note_off_c, 9, 36, 0
11, 38784, Note_on_c, 9, 50, 101
11, 38784, Note_on_c, 9, 36, 127
11, 38788, Note_off_c, 9, 36, 0
11, 38788, Note_off_c, 9, 50, 0
11, 38832, Note_on_c, 9, 36, 127
11, 38836, Note_off_c, 9, 36, 0
11, 38880, Note_on_c, 9, 36, 127
11, 38884, Note_off_c, 9, 36, 0
11, 38928, Note_on_c, 9, 50, 101
11, 38928, Note_on_c, 9, 36, 127
11, 38932, Note_off_c, 9, 36, 0
11, 38932, Note_off_c, 9, 50, 0
11, 38976, Note_on_c, 9, 38, 127
11, 38980, Note_off_c, 9, 38, 0
11, 39024, Note_on_c, 9, 36, 127
11, 39028, Note_off_c, 9, 36, 0
11, 39072, Note_on_c, 9, 50, 101
11, 39072, Note_on_c, 9, 62, 127
11, 39076, Note_off_c, 9, 62, 0
11, 39076, Note_off_c, 9, 50, 0
11, 39120, Note_on_c, 9, 38, 127
11, 39124, Note_off_c, 9, 38, 0
11, 39168, Note_on_c, 9, 36, 127
11, 39172, Note_off_c, 9, 36, 0
11, 39264, Note_on_c, 9, 36, 127
11, 39268, Note_off_c, 9, 36, 0
11, 39360, Note_on_c, 9, 38, 127
11, 39364, Note_off_c, 9, 38, 0
11, 39408, Note_on_c, 9, 36, 127
11, 39412, Note_off_c, 9, 36, 0
11, 39504, Note_on_c, 9, 36, 127
11, 39508, Note_off_c, 9, 36, 0
11, 39552, Note_on_c, 9, 36, 127
11, 39552, Note_on_c, 9, 50, 101
11, 39556, Note_off_c, 9, 50, 0
11, 39556, Note_off_c, 9, 36, 0
11, 39600, Note_on_c, 9, 36, 127
11, 39604, Note_off_c, 9, 36, 0
11, 39696, Note_on_c, 9, 36, 127
11, 39700, Note_off_c, 9, 36, 0
11, 39744, Note_on_c, 9, 38, 127
11, 39744, Note_on_c, 9, 50, 101
11, 39748, Note_off_c, 9, 50, 0
11, 39748, Note_off_c, 9, 38, 0
11, 39792, Note_on_c, 9, 36, 127
11, 39796, Note_off_c, 9, 36, 0
11, 39840, Note_on_c, 9, 36, 127
11, 39840, Note_on_c, 9, 62, 127
11, 39844, Note_off_c, 9, 62, 0
11, 39844, Note_off_c, 9, 36, 0
11, 39888, Note_on_c, 9, 36, 127
11, 39892, Note_off_c, 9, 36, 0
11, 39984, Note_on_c, 9, 36, 127
11, 39988, Note_off_c, 9, 36, 0
11, 40032, Note_on_c, 9, 36, 127
11, 40036, Note_off_c, 9, 36, 0
11, 40080, Note_on_c, 9, 36, 127
11, 40084, Note_off_c, 9, 36, 0
11, 40128, Note_on_c, 9, 38, 127
11, 40132, Note_off_c, 9, 38, 0
11, 40176, Note_on_c, 9, 36, 127
11, 40180, Note_off_c, 9, 36, 0
11, 40224, Note_on_c, 9, 36, 127
11, 40228, Note_off_c, 9, 36, 0
11, 40272, Note_on_c, 9, 36, 127
11, 40276, Note_off_c, 9, 36, 0
11, 40320, Note_on_c, 9, 45, 127
11, 40320, Note_on_c, 9, 38, 127
11, 40320, Note_on_c, 9, 50, 101
11, 40324, Note_off_c, 9, 38, 0
11, 40324, Note_off_c, 9, 50, 0
11, 40324, Note_off_c, 9, 45, 0
11, 40368, Note_on_c, 9, 36, 127
11, 40368, Note_on_c, 9, 45, 127
11, 40372, Note_off_c, 9, 45, 0
11, 40372, Note_off_c, 9, 36, 0
11, 40416, Note_on_c, 9, 36, 127
11, 40416, Note_on_c, 9, 45, 127
11, 40420, Note_off_c, 9, 45, 0
11, 40420, Note_off_c, 9, 36, 0
11, 40464, Note_on_c, 9, 50, 101
11, 40464, Note_on_c, 9, 38, 127
11, 40464, Note_on_c, 9, 43, 127
11, 40468, Note_off_c, 9, 38, 0
11, 40468, Note_off_c, 9, 43, 0
11, 40468, Note_off_c, 9, 50, 0
11, 40512, Note_on_c, 9, 36, 127
11, 40512, Note_on_c, 9, 43, 127
11, 40516, Note_off_c, 9, 43, 0
11, 40516, Note_off_c, 9, 36, 0
11, 40560, Note_on_c, 9, 36, 127
11, 40560, Note_on_c, 9, 43, 127
11, 40564, Note_off_c, 9, 43, 0
11, 40564, Note_off_c, 9, 36, 0
11, 40608, Note_on_c, 9, 41, 127
11, 40608, Note_on_c, 9, 38, 127
11, 40608, Note_on_c, 9, 50, 101
11, 40612, Note_off_c, 9, 38, 0
11, 40612, Note_off_c, 9, 50, 0
11, 40612, Note_off_c, 9, 41, 0
11, 40656, Note_on_c, 9, 41, 127
11, 40656, Note_on_c, 9, 38, 127
11, 40660, Note_off_c, 9, 38, 0
11, 40660, Note_off_c, 9, 41, 0
11, 40704, Note_on_c, 9, 36, 127
11, 40708, Note_off_c, 9, 36, 0
11, 40800, Note_on_c, 9, 36, 127
11, 40804, Note_off_c, 9, 36, 0
11, 40896, Note_on_c, 9, 38, 127
11, 40900, Note_off_c, 9, 38, 0
11, 40944, Note_on_c, 9, 36, 127
11, 40948, Note_off_c, 9, 36, 0
11, 41040, Note_on_c, 9, 36, 127
11, 41044, Note_off_c, 9, 36, 0
11, 41088, Note_on_c, 9, 36, 127
11, 41088, Note_on_c, 9, 50, 101
11, 41092, Note_off_c, 9, 50, 0
11, 41092, Note_off_c, 9, 36, 0
11, 41136, Note_on_c, 9, 36, 127
11, 41140, Note_off_c, 9, 36, 0
11, 41232, Note_on_c, 9, 36, 127
11, 41236, Note_off_c, 9, 36, 0
11, 41280, Note_on_c, 9, 38, 127
11, 41280, Note_on_c, 9, 50, 101
11, 41284, Note_off_c, 9, 50, 0
11, 41284, Note_off_c, 9, 38, 0
11, 41328, Note_on_c, 9, 36, 127
11, 41332, Note_off_c, 9, 36, 0
11, 41376, Note_on_c, 9, 36, 127
11, 41380, Note_off_c, 9, 36, 0
11, 41424, Note_on_c, 9, 36, 127
11, 41428, Note_off_c, 9, 36, 0
11, 41520, Note_on_c, 9, 36, 127
11, 41524, Note_off_c, 9, 36, 0
11, 41568, Note_on_c, 9, 36, 127
11, 41572, Note_off_c, 9, 36, 0
11, 41616, Note_on_c, 9, 36, 127
11, 41620, Note_off_c, 9, 36, 0
11, 41664, Note_on_c, 9, 38, 127
11, 41668, Note_off_c, 9, 38, 0
11, 41712, Note_on_c, 9, 36, 127
11, 41716, Note_off_c, 9, 36, 0
11, 41760, Note_on_c, 9, 36, 127
11, 41764, Note_off_c, 9, 36, 0
11, 41808, Note_on_c, 9, 36, 127
11, 41812, Note_off_c, 9, 36, 0
11, 41856, Note_on_c, 9, 50, 101
11, 41856, Note_on_c, 9, 36, 127
11, 41860, Note_off_c, 9, 36, 0
11, 41860, Note_off_c, 9, 50, 0
11, 41904, Note_on_c, 9, 36, 127
11, 41908, Note_off_c, 9, 36, 0
11, 41952, Note_on_c, 9, 36, 127
11, 41956, Note_off_c, 9, 36, 0
11, 42000, Note_on_c, 9, 50, 101
11, 42000, Note_on_c, 9, 36, 127
11, 42004, Note_off_c, 9, 36, 0
11, 42004, Note_off_c, 9, 50, 0
11, 42048, Note_on_c, 9, 38, 127
11, 42052, Note_off_c, 9, 38, 0
11, 42096, Note_on_c, 9, 36, 127
11, 42100, Note_off_c, 9, 36, 0
11, 42144, Note_on_c, 9, 50, 101
11, 42144, Note_on_c, 9, 62, 127
11, 42148, Note_off_c, 9, 62, 0
11, 42148, Note_off_c, 9, 50, 0
11, 42192, Note_on_c, 9, 38, 127
11, 42196, Note_off_c, 9, 38, 0
11, 42240, Note_on_c, 9, 36, 127
11, 42244, Note_off_c, 9, 36, 0
11, 42336, Note_on_c, 9, 36, 127
11, 42340, Note_off_c, 9, 36, 0
11, 42432, Note_on_c, 9, 38, 127
11, 42436, Note_off_c, 9, 38, 0
11, 42480, Note_on_c, 9, 36, 127
11, 42484, Note_off_c, 9, 36, 0
11, 42576, Note_on_c, 9, 36, 127
11, 42580, Note_off_c, 9, 36, 0
11, 42624, Note_on_c, 9, 36, 127
11, 42624, Note_on_c, 9, 50, 101
11, 42628, Note_off_c, 9, 50, 0
11, 42628, Note_off_c, 9, 36, 0
11, 42672, Note_on_c, 9, 36, 127
11, 42676, Note_off_c, 9, 36, 0
11, 42768, Note_on_c, 9, 36, 127
11, 42772, Note_off_c, 9, 36, 0
11, 42816, Note_on_c, 9, 38, 127
11, 42816, Note_on_c, 9, 50, 101
11, 42820, Note_off_c, 9, 50, 0
11, 42820, Note_off_c, 9, 38, 0
11, 42864, Note_on_c, 9, 36, 127
11, 42868, Note_off_c, 9, 36, 0
11, 42912, Note_on_c, 9, 36, 127
11, 42912, Note_on_c, 9, 62, 127
11, 42916, Note_off_c, 9, 62, 0
11, 42916, Note_off_c, 9, 36, 0
11, 42960, Note_on_c, 9, 36, 127
11, 42964, Note_off_c, 9, 36, 0
11, 43056, Note_on_c, 9, 36, 127
11, 43060, Note_off_c, 9, 36, 0
11, 43104, Note_on_c, 9, 36, 127
11, 43108, Note_off_c, 9, 36, 0
11, 43152, Note_on_c, 9, 36, 127
11, 43156, Note_off_c, 9, 36, 0
11, 43200, Note_on_c, 9, 38, 127
11, 43204, Note_off_c, 9, 38, 0
11, 43248, Note_on_c, 9, 36, 127
11, 43252, Note_off_c, 9, 36, 0
11, 43296, Note_on_c, 9, 36, 127
11, 43300, Note_off_c, 9, 36, 0
11, 43344, Note_on_c, 9, 36, 127
11, 43348, Note_off_c, 9, 36, 0
11, 43392, Note_on_c, 9, 45, 127
11, 43392, Note_on_c, 9, 38, 127
11, 43392, Note_on_c, 9, 50, 101
11, 43396, Note_off_c, 9, 38, 0
11, 43396, Note_off_c, 9, 50, 0
11, 43396, Note_off_c, 9, 45, 0
11, 43440, Note_on_c, 9, 36, 127
11, 43440, Note_on_c, 9, 45, 127
11, 43444, Note_off_c, 9, 45, 0
11, 43444, Note_off_c, 9, 36, 0
11, 43488, Note_on_c, 9, 36, 127
11, 43488, Note_on_c, 9, 45, 127
11, 43492, Note_off_c, 9, 45, 0
11, 43492, Note_off_c, 9, 36, 0
11, 43536, Note_on_c, 9, 50, 101
11, 43536, Note_on_c, 9, 38, 127
11, 43536, Note_on_c, 9, 43, 127
11, 43540, Note_off_c, 9, 38, 0
11, 43540, Note_off_c, 9, 43, 0
11, 43540, Note_off_c, 9, 50, 0
11, 43584, Note_on_c, 9, 36, 127
11, 43584, Note_on_c, 9, 43, 127
11, 43588, Note_off_c, 9, 43, 0
11, 43588, Note_off_c, 9, 36, 0
11, 43632, Note_on_c, 9, 36, 127
11, 43632, Note_on_c, 9, 43, 127
11, 43636, Note_off_c, 9, 43, 0
11, 43636, Note_off_c, 9, 36, 0
11, 43680, Note_on_c, 9, 41, 127
11, 43680, Note_on_c, 9, 38, 127
11, 43680, Note_on_c, 9, 50, 101
11, 43684, Note_off_c, 9, 38, 0
11, 43684, Note_off_c, 9, 50, 0
11, 43684, Note_off_c, 9, 41, 0
11, 43728, Note_on_c, 9, 41, 127
11, 43728, Note_on_c, 9, 38, 127
11, 43732, Note_off_c, 9, 38, 0
11, 43732, Note_off_c, 9, 41, 0
11, 43776, Note_on_c, 9, 36, 127
11, 43780, Note_off_c, 9, 36, 0
11, 43872, Note_on_c, 9, 38, 127
11, 43876, Note_off_c, 9, 38, 0
11, 43968, Note_on_c, 9, 36, 127
11, 43972, Note_off_c, 9, 36, 0
11, 44016, Note_on_c, 9, 36, 127
11, 44020, Note_off_c, 9, 36, 0
11, 44064, Note_on_c, 9, 38, 127
11, 44068, Note_off_c, 9, 38, 0
11, 44160, Note_on_c, 9, 36, 127
11, 44164, Note_off_c, 9, 36, 0
11, 44256, Note_on_c, 9, 38, 127
11, 44260, Note_off_c, 9, 38, 0
11, 44352, Note_on_c, 9, 36, 127
11, 44356, Note_off_c, 9, 36, 0
11, 44400, Note_on_c, 9, 36, 127
11, 44404, Note_off_c, 9, 36, 0
11, 44448, Note_on_c, 9, 38, 127
11, 44452, Note_off_c, 9, 38, 0
11, 44544, Note_on_c, 9, 36, 127
11, 44548, Note_off_c, 9, 36, 0
11, 44640, Note_on_c, 9, 38, 127
11, 44644, Note_off_c, 9, 38, 0
11, 44736, Note_on_c, 9, 36, 127
11, 44740, Note_off_c, 9, 36, 0
11, 44784, Note_on_c, 9, 36, 127
11, 44788, Note_off_c, 9, 36, 0
11, 44832, Note_on_c, 9, 38, 127
11, 44836, Note_off_c, 9, 38, 0
11, 44928, Note_on_c, 9, 38, 127
11, 44928, Note_on_c, 9, 50, 101
11, 44932, Note_off_c, 9, 50, 0
11, 44932, Note_off_c, 9, 38, 0
11, 44976, Note_on_c, 9, 36, 127
11, 44980, Note_off_c, 9, 36, 0
11, 45024, Note_on_c, 9, 36, 127
11, 45028, Note_off_c, 9, 36, 0
11, 45072, Note_on_c, 9, 38, 127
11, 45072, Note_on_c, 9, 50, 101
11, 45076, Note_off_c, 9, 50, 0
11, 45076, Note_off_c, 9, 38, 0
11, 45120, Note_on_c, 9, 36, 127
11, 45124, Note_off_c, 9, 36, 0
11, 45168, Note_on_c, 9, 36, 127
11, 45172, Note_off_c, 9, 36, 0
11, 45216, Note_on_c, 9, 50, 101
11, 45216, Note_on_c, 9, 38, 127
11, 45220, Note_off_c, 9, 38, 0
11, 45220, Note_off_c, 9, 50, 0
11, 45264, Note_on_c, 9, 38, 127
11, 45268, Note_off_c, 9, 38, 0
11, 45312, Note_on_c, 9, 36, 127
11, 45316, Note_off_c, 9, 36, 0
11, 45408, Note_on_c, 9, 38, 127
11, 45412, Note_off_c, 9, 38, 0
11, 45504, Note_on_c, 9, 36, 127
11, 45508, Note_off_c, 9, 36, 0
11, 45552, Note_on_c, 9, 36, 127
11, 45556, Note_off_c, 9, 36, 0
11, 45600, Note_on_c, 9, 38, 127
11, 45604, Note_off_c, 9, 38, 0
11, 45696, Note_on_c, 9, 36, 127
11, 45700, Note_off_c, 9, 36, 0
11, 45792, Note_on_c, 9, 38, 127
11, 45796, Note_off_c, 9, 38, 0
11, 45888, Note_on_c, 9, 36, 127
11, 45892, Note_off_c, 9, 36, 0
11, 45936, Note_on_c, 9, 36, 127
11, 45940, Note_off_c, 9, 36, 0
11, 45984, Note_on_c, 9, 38, 127
11, 45988, Note_off_c, 9, 38, 0
11, 46080, Note_on_c, 9, 36, 127
11, 46084, Note_off_c, 9, 36, 0
11, 46176, Note_on_c, 9, 38, 127
11, 46180, Note_off_c, 9, 38, 0
11, 46272, Note_on_c, 9, 36, 127
11, 46276, Note_off_c, 9, 36, 0
11, 46320, Note_on_c, 9, 36, 127
11, 46324, Note_off_c, 9, 36, 0
11, 46368, Note_on_c, 9, 38, 127
11, 46372, Note_off_c, 9, 38, 0
11, 46464, Note_on_c, 9, 38, 127
11, 46464, Note_on_c, 9, 45, 127
11, 46464, Note_on_c, 9, 50, 101
11, 46468, Note_off_c, 9, 45, 0
11, 46468, Note_off_c, 9, 50, 0
11, 46468, Note_off_c, 9, 38, 0
11, 46512, Note_on_c, 9, 36, 127
11, 46512, Note_on_c, 9, 45, 127
11, 46516, Note_off_c, 9, 45, 0
11, 46516, Note_off_c, 9, 36, 0
11, 46560, Note_on_c, 9, 36, 127
11, 46560, Note_on_c, 9, 45, 127
11, 46564, Note_off_c, 9, 45, 0
11, 46564, Note_off_c, 9, 36, 0
11, 46608, Note_on_c, 9, 38, 127
11, 46608, Note_on_c, 9, 43, 127
11, 46608, Note_on_c, 9, 50, 101
11, 46612, Note_off_c, 9, 43, 0
11, 46612, Note_off_c, 9, 50, 0
11, 46612, Note_off_c, 9, 38, 0
11, 46656, Note_on_c, 9, 36, 127
11, 46656, Note_on_c, 9, 43, 127
11, 46660, Note_off_c, 9, 43, 0
11, 46660, Note_off_c, 9, 36, 0
11, 46704, Note_on_c, 9, 36, 127
11, 46704, Note_on_c, 9, 43, 127
11, 46708, Note_off_c, 9, 43, 0
11, 46708, Note_off_c, 9, 36, 0
11, 46752, Note_on_c, 9, 50, 101
11, 46752, Note_on_c, 9, 38, 127
11, 46752, Note_on_c, 9, 41, 127
11, 46756, Note_off_c, 9, 38, 0
11, 46756, Note_off_c, 9, 41, 0
11, 46756, Note_off_c, 9, 50, 0
11, 46800, Note_on_c, 9, 38, 127
11, 46800, Note_on_c, 9, 41, 127
11, 46804, Note_off_c, 9, 41, 0
11, 46804, Note_off_c, 9, 38, 0
11, 46848, Note_on_c, 9, 36, 127
11, 46852, Note_off_c, 9, 36, 0
11, 46944, Note_on_c, 9, 38, 127
11, 46948, Note_off_c, 9, 38, 0
11, 47040, Note_on_c, 9, 36, 127
11, 47044, Note_off_c, 9, 36, 0
11, 47088, Note_on_c, 9, 36, 127
11, 47092, Note_off_c, 9, 36, 0
11, 47136, Note_on_c, 9, 38, 127
11, 47140, Note_off_c, 9, 38, 0
11, 47232, Note_on_c, 9, 36, 127
11, 47236, Note_off_c, 9, 36, 0
11, 47328, Note_on_c, 9, 38, 127
11, 47332, Note_off_c, 9, 38, 0
11, 47424, Note_on_c, 9, 36, 127
11, 47428, Note_off_c, 9, 36, 0
11, 47472, Note_on_c, 9, 36, 127
11, 47476, Note_off_c, 9, 36, 0
11, 47520, Note_on_c, 9, 38, 127
11, 47524, Note_off_c, 9, 38, 0
11, 47616, Note_on_c, 9, 36, 127
11, 47620, Note_off_c, 9, 36, 0
11, 47712, Note_on_c, 9, 38, 127
11, 47716, Note_off_c, 9, 38, 0
11, 47808, Note_on_c, 9, 36, 127
11, 47812, Note_off_c, 9, 36, 0
11, 47856, Note_on_c, 9, 36, 127
11, 47860, Note_off_c, 9, 36, 0
11, 47904, Note_on_c, 9, 38, 127
11, 47908, Note_off_c, 9, 38, 0
11, 48000, Note_on_c, 9, 38, 127
11, 48000, Note_on_c, 9, 50, 101
11, 48004, Note_off_c, 9, 50, 0
11, 48004, Note_off_c, 9, 38, 0
11, 48048, Note_on_c, 9, 36, 127
11, 48052, Note_off_c, 9, 36, 0
11, 48096, Note_on_c, 9, 36, 127
11, 48100, Note_off_c, 9, 36, 0
11, 48144, Note_on_c, 9, 38, 127
11, 48144, Note_on_c, 9, 50, 101
11, 48148, Note_off_c, 9, 50, 0
11, 48148, Note_off_c, 9, 38, 0
11, 48192, Note_on_c, 9, 36, 127
11, 48196, Note_off_c, 9, 36, 0
11, 48240, Note_on_c, 9, 36, 127
11, 48244, Note_off_c, 9, 36, 0
11, 48288, Note_on_c, 9, 50, 101
11, 48288, Note_on_c, 9, 38, 127
11, 48292, Note_off_c, 9, 38, 0
11, 48292, Note_off_c, 9, 50, 0
11, 48336, Note_on_c, 9, 38, 127
11, 48340, Note_off_c, 9, 38, 0
11, 48384, Note_on_c, 9, 38, 127
11, 48388, Note_off_c, 9, 38, 0
11, 48432, Note_on_c, 9, 36, 127
11, 48436, Note_off_c, 9, 36, 0
11, 48480, Note_on_c, 9, 38, 127
11, 48484, Note_off_c, 9, 38, 0
11, 48528, Note_on_c, 9, 36, 127
11, 48532, Note_off_c, 9, 36, 0
11, 48576, Note_on_c, 9, 38, 127
11, 48580, Note_off_c, 9, 38, 0
11, 48624, Note_on_c, 9, 36, 127
11, 48628, Note_off_c, 9, 36, 0
11, 48672, Note_on_c, 9, 38, 127
11, 48676, Note_off_c, 9, 38, 0
11, 48720, Note_on_c, 9, 36, 127
11, 48724, Note_off_c, 9, 36, 0
11, 48768, Note_on_c, 9, 38, 127
11, 48772, Note_off_c, 9, 38, 0
11, 48816, Note_on_c, 9, 36, 127
11, 48820, Note_off_c, 9, 36, 0
11, 48864, Note_on_c, 9, 38, 127
11, 48868, Note_off_c, 9, 38, 0
11, 48912, Note_on_c, 9, 36, 127
11, 48916, Note_off_c, 9, 36, 0
11, 48960, Note_on_c, 9, 38, 127
11, 48964, Note_off_c, 9, 38, 0
11, 49008, Note_on_c, 9, 36, 127
11, 49012, Note_off_c, 9, 36, 0
11, 49056, Note_on_c, 9, 38, 127
11, 49060, Note_off_c, 9, 38, 0
11, 49104, Note_on_c, 9, 36, 127
11, 49108, Note_off_c, 9, 36, 0
11, 49152, Note_on_c, 9, 38, 127
11, 49156, Note_off_c, 9, 38, 0
11, 49200, Note_on_c, 9, 36, 127
11, 49204, Note_off_c, 9, 36, 0
11, 49248, Note_on_c, 9, 38, 127
11, 49252, Note_off_c, 9, 38, 0
11, 49296, Note_on_c, 9, 36, 127
11, 49300, Note_off_c, 9, 36, 0
11, 49344, Note_on_c, 9, 38, 127
11, 49348, Note_off_c, 9, 38, 0
11, 49392, Note_on_c, 9, 36, 127
11, 49396, Note_off_c, 9, 36, 0
11, 49440, Note_on_c, 9, 38, 127
11, 49444, Note_off_c, 9, 38, 0
11, 49488, Note_on_c, 9, 36, 127
11, 49492, Note_off_c, 9, 36, 0
11, 49536, Note_on_c, 9, 38, 127
11, 49536, Note_on_c, 9, 45, 127
11, 49536, Note_on_c, 9, 50, 101
11, 49540, Note_off_c, 9, 45, 0
11, 49540, Note_off_c, 9, 50, 0
11, 49540, Note_off_c, 9, 38, 0
11, 49584, Note_on_c, 9, 36, 127
11, 49584, Note_on_c, 9, 45, 127
11, 49588, Note_off_c, 9, 45, 0
11, 49588, Note_off_c, 9, 36, 0
11, 49632, Note_on_c, 9, 36, 127
11, 49632, Note_on_c, 9, 45, 127
11, 49636, Note_off_c, 9, 45, 0
11, 49636, Note_off_c, 9, 36, 0
11, 49680, Note_on_c, 9, 38, 127
11, 49680, Note_on_c, 9, 43, 127
11, 49680, Note_on_c, 9, 50, 101
11, 49684, Note_off_c, 9, 43, 0
11, 49684, Note_off_c, 9, 50, 0
11, 49684, Note_off_c, 9, 38, 0
11, 49728, Note_on_c, 9, 36, 127
11, 49728, Note_on_c, 9, 43, 127
11, 49732, Note_off_c, 9, 43, 0
11, 49732, Note_off_c, 9, 36, 0
11, 49776, Note_on_c, 9, 36, 127
11, 49776, Note_on_c, 9, 43, 127
11, 49780, Note_off_c, 9, 43, 0
11, 49780, Note_off_c, 9, 36, 0
11, 49824, Note_on_c, 9, 50, 101
11, 49824, Note_on_c, 9, 38, 127
11, 49824, Note_on_c, 9, 41, 127
11, 49828, Note_off_c, 9, 38, 0
11, 49828, Note_off_c, 9, 41, 0
11, 49828, Note_off_c, 9, 50, 0
11, 49872, Note_on_c, 9, 38, 127
11, 49872, Note_on_c, 9, 41, 127
11, 49876, Note_off_c, 9, 41, 0
11, 49876, Note_off_c, 9, 38, 0
11, 49920, Note_on_c, 9, 36, 127
11, 49924, Note_off_c, 9, 36, 0
11, 50016, Note_on_c, 9, 38, 127
11, 50020, Note_off_c, 9, 38, 0
11, 50112, Note_on_c, 9, 36, 127
11, 50116, Note_off_c, 9, 36, 0
11, 50160, Note_on_c, 9, 36, 127
11, 50164, Note_off_c, 9, 36, 0
11, 50208, Note_on_c, 9, 38, 127
11, 50212, Note_off_c, 9, 38, 0
11, 50304, Note_on_c, 9, 36, 127
11, 50304, Note_on_c, 9, 50, 101
11, 50308, Note_off_c, 9, 50, 0
11, 50308, Note_off_c, 9, 36, 0
11, 50400, Note_on_c, 9, 38, 127
11, 50404, Note_off_c, 9, 38, 0
11, 50496, Note_on_c, 9, 36, 127
11, 50496, Note_on_c, 9, 50, 101
11, 50500, Note_off_c, 9, 50, 0
11, 50500, Note_off_c, 9, 36, 0
11, 50544, Note_on_c, 9, 36, 127
11, 50548, Note_off_c, 9, 36, 0
11, 50592, Note_on_c, 9, 38, 127
11, 50596, Note_off_c, 9, 38, 0
11, 50688, Note_on_c, 9, 36, 127
11, 50692, Note_off_c, 9, 36, 0
11, 50784, Note_on_c, 9, 38, 127
11, 50788, Note_off_c, 9, 38, 0
11, 50880, Note_on_c, 9, 36, 127
11, 50884, Note_off_c, 9, 36, 0
11, 50928, Note_on_c, 9, 36, 127
11, 50932, Note_off_c, 9, 36, 0
11, 50976, Note_on_c, 9, 38, 127
11, 50980, Note_off_c, 9, 38, 0
11, 51072, Note_on_c, 9, 50, 101
11, 51072, Note_on_c, 9, 38, 127
11, 51076, Note_off_c, 9, 38, 0
11, 51076, Note_off_c, 9, 50, 0
11, 51120, Note_on_c, 9, 36, 127
11, 51124, Note_off_c, 9, 36, 0
11, 51168, Note_on_c, 9, 36, 127
11, 51172, Note_off_c, 9, 36, 0
11, 51216, Note_on_c, 9, 50, 101
11, 51216, Note_on_c, 9, 38, 127
11, 51220, Note_off_c, 9, 38, 0
11, 51220, Note_off_c, 9, 50, 0
11, 51264, Note_on_c, 9, 36, 127
11, 51268, Note_off_c, 9, 36, 0
11, 51312, Note_on_c, 9, 36, 127
11, 51316, Note_off_c, 9, 36, 0
11, 51360, Note_on_c, 9, 50, 101
11, 51360, Note_on_c, 9, 38, 127
11, 51364, Note_off_c, 9, 38, 0
11, 51364, Note_off_c, 9, 50, 0
11, 51408, Note_on_c, 9, 38, 127
11, 51412, Note_off_c, 9, 38, 0
11, 51456, Note_on_c, 9, 36, 127
11, 51460, Note_off_c, 9, 36, 0
11, 51552, Note_on_c, 9, 38, 127
11, 51556, Note_off_c, 9, 38, 0
11, 51648, Note_on_c, 9, 36, 127
11, 51652, Note_off_c, 9, 36, 0
11, 51696, Note_on_c, 9, 36, 127
11, 51700, Note_off_c, 9, 36, 0
11, 51744, Note_on_c, 9, 38, 127
11, 51748, Note_off_c, 9, 38, 0
11, 51840, Note_on_c, 9, 36, 127
11, 51840, Note_on_c, 9, 50, 101
11, 51844, Note_off_c, 9, 50, 0
11, 51844, Note_off_c, 9, 36, 0
11, 51936, Note_on_c, 9, 38, 127
11, 51940, Note_off_c, 9, 38, 0
11, 52032, Note_on_c, 9, 36, 127
11, 52032, Note_on_c, 9, 50, 101
11, 52036, Note_off_c, 9, 50, 0
11, 52036, Note_off_c, 9, 36, 0
11, 52080, Note_on_c, 9, 36, 127
11, 52084, Note_off_c, 9, 36, 0
11, 52128, Note_on_c, 9, 38, 127
11, 52132, Note_off_c, 9, 38, 0
11, 52224, Note_on_c, 9, 36, 127
11, 52228, Note_off_c, 9, 36, 0
11, 52320, Note_on_c, 9, 38, 127
11, 52324, Note_off_c, 9, 38, 0
11, 52416, Note_on_c, 9, 36, 127
11, 52420, Note_off_c, 9, 36, 0
11, 52464, Note_on_c, 9, 36, 127
11, 52468, Note_off_c, 9, 36, 0
11, 52512, Note_on_c, 9, 38, 127
11, 52516, Note_off_c, 9, 38, 0
11, 52608, Note_on_c, 9, 50, 101
11, 52608, Note_on_c, 9, 38, 127
11, 52608, Note_on_c, 9, 45, 127
11, 52612, Note_off_c, 9, 38, 0
11, 52612, Note_off_c, 9, 45, 0
11, 52612, Note_off_c, 9, 50, 0
11, 52656, Note_on_c, 9, 36, 127
11, 52656, Note_on_c, 9, 45, 127
11, 52660, Note_off_c, 9, 45, 0
11, 52660, Note_off_c, 9, 36, 0
11, 52704, Note_on_c, 9, 36, 127
11, 52704, Note_on_c, 9, 45, 127
11, 52708, Note_off_c, 9, 45, 0
11, 52708, Note_off_c, 9, 36, 0
11, 52752, Note_on_c, 9, 50, 101
11, 52752, Note_on_c, 9, 38, 127
11, 52752, Note_on_c, 9, 43, 127
11, 52756, Note_off_c, 9, 38, 0
11, 52756, Note_off_c, 9, 43, 0
11, 52756, Note_off_c, 9, 50, 0
11, 52800, Note_on_c, 9, 36, 127
11, 52800, Note_on_c, 9, 43, 127
11, 52804, Note_off_c, 9, 43, 0
11, 52804, Note_off_c, 9, 36, 0
11, 52848, Note_on_c, 9, 36, 127
11, 52848, Note_on_c, 9, 43, 127
11, 52852, Note_off_c, 9, 43, 0
11, 52852, Note_off_c, 9, 36, 0
11, 52896, Note_on_c, 9, 50, 101
11, 52896, Note_on_c, 9, 38, 127
11, 52896, Note_on_c, 9, 41, 127
11, 52900, Note_off_c, 9, 38, 0
11, 52900, Note_off_c, 9, 41, 0
11, 52900, Note_off_c, 9, 50, 0
11, 52944, Note_on_c, 9, 38, 127
11, 52944, Note_on_c, 9, 41, 127
11, 52948, Note_off_c, 9, 41, 0
11, 52948, Note_off_c, 9, 38, 0
11, 52992, Note_on_c, 9, 36, 127
11, 52996, Note_off_c, 9, 36, 0
11, 53088, Note_on_c, 9, 38, 127
11, 53092, Note_off_c, 9, 38, 0
11, 53184, Note_on_c, 9, 36, 127
11, 53188, Note_off_c, 9, 36, 0
11, 53232, Note_on_c, 9, 36, 127
11, 53236, Note_off_c, 9, 36, 0
11, 53280, Note_on_c, 9, 38, 127
11, 53284, Note_off_c, 9, 38, 0
11, 53376, Note_on_c, 9, 36, 127
11, 53376, Note_on_c, 9, 50, 101
11, 53380, Note_off_c, 9, 50, 0
11, 53380, Note_off_c, 9, 36, 0
11, 53472, Note_on_c, 9, 38, 127
11, 53476, Note_off_c, 9, 38, 0
11, 53568, Note_on_c, 9, 36, 127
11, 53568, Note_on_c, 9, 50, 101
11, 53572, Note_off_c, 9, 50, 0
11, 53572, Note_off_c, 9, 36, 0
11, 53616, Note_on_c, 9, 36, 127
11, 53620, Note_off_c, 9, 36, 0
11, 53664, Note_on_c, 9, 38, 127
11, 53668, Note_off_c, 9, 38, 0
11, 53760, Note_on_c, 9, 36, 127
11, 53764, Note_off_c, 9, 36, 0
11, 53856, Note_on_c, 9, 38, 127
11, 53860, Note_off_c, 9, 38, 0
11, 53952, Note_on_c, 9, 36, 127
11, 53956, Note_off_c, 9, 36, 0
11, 54000, Note_on_c, 9, 36, 127
11, 54004, Note_off_c, 9, 36, 0
11, 54048, Note_on_c, 9, 38, 127
11, 54052, Note_off_c, 9, 38, 0
11, 54144, Note_on_c, 9, 50, 101
11, 54144, Note_on_c, 9, 38, 127
11, 54148, Note_off_c, 9, 38, 0
11, 54148, Note_off_c, 9, 50, 0
11, 54192, Note_on_c, 9, 36, 127
11, 54196, Note_off_c, 9, 36, 0
11, 54240, Note_on_c, 9, 36, 127
11, 54244, Note_off_c, 9, 36, 0
11, 54288, Note_on_c, 9, 50, 101
11, 54288, Note_on_c, 9, 38, 127
11, 54292, Note_off_c, 9, 38, 0
11, 54292, Note_off_c, 9, 50, 0
11, 54336, Note_on_c, 9, 36, 127
11, 54340, Note_off_c, 9, 36, 0
11, 54384, Note_on_c, 9, 36, 127
11, 54388, Note_off_c, 9, 36, 0
11, 54432, Note_on_c, 9, 50, 101
11, 54432, Note_on_c, 9, 38, 127
11, 54436, Note_off_c, 9, 38, 0
11, 54436, Note_off_c, 9, 50, 0
11, 54480, Note_on_c, 9, 38, 127
11, 54484, Note_off_c, 9, 38, 0
11, 54528, Note_on_c, 9, 38, 127
11, 54532, Note_off_c, 9, 38, 0
11, 54576, Note_on_c, 9, 36, 127
11, 54580, Note_off_c, 9, 36, 0
11, 54624, Note_on_c, 9, 38, 127
11, 54628, Note_off_c, 9, 38, 0
11, 54672, Note_on_c, 9, 36, 127
11, 54676, Note_off_c, 9, 36, 0
11, 54720, Note_on_c, 9, 38, 127
11, 54724, Note_off_c, 9, 38, 0
11, 54768, Note_on_c, 9, 36, 127
11, 54772, Note_off_c, 9, 36, 0
11, 54816, Note_on_c, 9, 38, 127
11, 54820, Note_off_c, 9, 38, 0
11, 54864, Note_on_c, 9, 36, 127
11, 54868, Note_off_c, 9, 36, 0
11, 54912, Note_on_c, 9, 38, 127
11, 54916, Note_off_c, 9, 38, 0
11, 54960, Note_on_c, 9, 36, 127
11, 54964, Note_off_c, 9, 36, 0
11, 55008, Note_on_c, 9, 38, 127
11, 55012, Note_off_c, 9, 38, 0
11, 55056, Note_on_c, 9, 36, 127
11, 55060, Note_off_c, 9, 36, 0
11, 55104, Note_on_c, 9, 38, 127
11, 55108, Note_off_c, 9, 38, 0
11, 55152, Note_on_c, 9, 36, 127
11, 55156, Note_off_c, 9, 36, 0
11, 55200, Note_on_c, 9, 38, 127
11, 55204, Note_off_c, 9, 38, 0
11, 55248, Note_on_c, 9, 36, 127
11, 55252, Note_off_c, 9, 36, 0
11, 55296, Note_on_c, 9, 38, 127
11, 55300, Note_off_c, 9, 38, 0
11, 55344, Note_on_c, 9, 36, 127
11, 55348, Note_off_c, 9, 36, 0
11, 55392, Note_on_c, 9, 38, 127
11, 55396, Note_off_c, 9, 38, 0
11, 55440, Note_on_c, 9, 36, 127
11, 55444, Note_off_c, 9, 36, 0
11, 55488, Note_on_c, 9, 38, 127
11, 55492, Note_off_c, 9, 38, 0
11, 55536, Note_on_c, 9, 36, 127
11, 55540, Note_off_c, 9, 36, 0
11, 55584, Note_on_c, 9, 38, 127
11, 55588, Note_off_c, 9, 38, 0
11, 55632, Note_on_c, 9, 36, 127
11, 55636, Note_off_c, 9, 36, 0
11, 55680, Note_on_c, 9, 38, 127
11, 55680, Note_on_c, 9, 45, 127
11, 55680, Note_on_c, 9, 50, 101
11, 55684, Note_off_c, 9, 45, 0
11, 55684, Note_off_c, 9, 50, 0
11, 55684, Note_off_c, 9, 38, 0
11, 55728, Note_on_c, 9, 36, 127
11, 55728, Note_on_c, 9, 45, 127
11, 55732, Note_off_c, 9, 45, 0
11, 55732, Note_off_c, 9, 36, 0
11, 55776, Note_on_c, 9, 36, 127
11, 55776, Note_on_c, 9, 45, 127
11, 55780, Note_off_c, 9, 45, 0
11, 55780, Note_off_c, 9, 36, 0
11, 55824, Note_on_c, 9, 38, 127
11, 55824, Note_on_c, 9, 43, 127
11, 55824, Note_on_c, 9, 50, 101
11, 55828, Note_off_c, 9, 43, 0
11, 55828, Note_off_c, 9, 50, 0
11, 55828, Note_off_c, 9, 38, 0
11, 55872, Note_on_c, 9, 36, 127
11, 55872, Note_on_c, 9, 43, 127
11, 55876, Note_off_c, 9, 43, 0
11, 55876, Note_off_c, 9, 36, 0
11, 55920, Note_on_c, 9, 36, 127
11, 55920, Note_on_c, 9, 43, 127
11, 55924, Note_off_c, 9, 43, 0
11, 55924, Note_off_c, 9, 36, 0
11, 55968, Note_on_c, 9, 50, 101
11, 55968, Note_on_c, 9, 38, 127
11, 55968, Note_on_c, 9, 41, 127
11, 55972, Note_off_c, 9, 38, 0
11, 55972, Note_off_c, 9, 41, 0
11, 55972, Note_off_c, 9, 50, 0
11, 56016, Note_on_c, 9, 38, 127
11, 56016, Note_on_c, 9, 41, 127
11, 56020, Note_off_c, 9, 41, 0
11, 56020, Note_off_c, 9, 38, 0
11, 56064, Note_on_c, 9, 36, 127
11, 56068, Note_off_c, 9, 36, 0
11, 56160, Note_on_c, 9, 38, 127
11, 56164, Note_off_c, 9, 38, 0
11, 56256, Note_on_c, 9, 36, 127
11, 56260, Note_off_c, 9, 36, 0
11, 56304, Note_on_c, 9, 36, 127
11, 56308, Note_off_c, 9, 36, 0
11, 56352, Note_on_c, 9, 38, 127
11, 56356, Note_off_c, 9, 38, 0
11, 56448, Note_on_c, 9, 36, 127
11, 56448, Note_on_c, 9, 50, 101
11, 56452, Note_off_c, 9, 50, 0
11, 56452, Note_off_c, 9, 36, 0
11, 56544, Note_on_c, 9, 38, 127
11, 56548, Note_off_c, 9, 38, 0
11, 56640, Note_on_c, 9, 36, 127
11, 56640, Note_on_c, 9, 50, 101
11, 56644, Note_off_c, 9, 50, 0
11, 56644, Note_off_c, 9, 36, 0
11, 56688, Note_on_c, 9, 36, 127
11, 56692, Note_off_c, 9, 36, 0
11, 56736, Note_on_c, 9, 38, 127
11, 56740, Note_off_c, 9, 38, 0
11, 56832, Note_on_c, 9, 36, 127
11, 56836, Note_off_c, 9, 36, 0
11, 56928, Note_on_c, 9, 38, 127
11, 56932, Note_off_c, 9, 38, 0
11, 57024, Note_on_c, 9, 36, 127
11, 57028, Note_off_c, 9, 36, 0
11, 57072, Note_on_c, 9, 36, 127
11, 57076, Note_off_c, 9, 36, 0
11, 57120, Note_on_c, 9, 38, 127
11, 57124, Note_off_c, 9, 38, 0
11, 57216, Note_on_c, 9, 50, 101
11, 57216, Note_on_c, 9, 38, 127
11, 57220, Note_off_c, 9, 38, 0
11, 57220, Note_off_c, 9, 50, 0
11, 57264, Note_on_c, 9, 36, 127
11, 57268, Note_off_c, 9, 36, 0
11, 57312, Note_on_c, 9, 36, 127
11, 57316, Note_off_c, 9, 36, 0
11, 57360, Note_on_c, 9, 50, 101
11, 57360, Note_on_c, 9, 38, 127
11, 57364, Note_off_c, 9, 38, 0
11, 57364, Note_off_c, 9, 50, 0
11, 57408, Note_on_c, 9, 36, 127
11, 57412, Note_off_c, 9, 36, 0
11, 57456, Note_on_c, 9, 36, 127
11, 57460, Note_off_c, 9, 36, 0
11, 57504, Note_on_c, 9, 50, 101
11, 57504, Note_on_c, 9, 38, 127
11, 57508, Note_off_c, 9, 38, 0
11, 57508, Note_off_c, 9, 50, 0
11, 57552, Note_on_c, 9, 38, 127
11, 57556, Note_off_c, 9, 38, 0
11, 57600, Note_on_c, 9, 36, 127
11, 57604, Note_off_c, 9, 36, 0
11, 57696, Note_on_c, 9, 38, 127
11, 57700, Note_off_c, 9, 38, 0
11, 57792, Note_on_c, 9, 36, 127
11, 57796, Note_off_c, 9, 36, 0
11, 57840, Note_on_c, 9, 36, 127
11, 57844, Note_off_c, 9, 36, 0
11, 57888, Note_on_c, 9, 38, 127
11, 57892, Note_off_c, 9, 38, 0
11, 57984, Note_on_c, 9, 36, 127
11, 57984, Note_on_c, 9, 50, 101
11, 57988, Note_off_c, 9, 50, 0
11, 57988, Note_off_c, 9, 36, 0
11, 58080, Note_on_c, 9, 38, 127
11, 58084, Note_off_c, 9, 38, 0
11, 58176, Note_on_c, 9, 36, 127
11, 58176, Note_on_c, 9, 50, 101
11, 58180, Note_off_c, 9, 50, 0
11, 58180, Note_off_c, 9, 36, 0
11, 58224, Note_on_c, 9, 36, 127
11, 58228, Note_off_c, 9, 36, 0
11, 58272, Note_on_c, 9, 38, 127
11, 58276, Note_off_c, 9, 38, 0
11, 58368, Note_on_c, 9, 36, 127
11, 58372, Note_off_c, 9, 36, 0
11, 58464, Note_on_c, 9, 38, 127
11, 58468, Note_off_c, 9, 38, 0
11, 58560, Note_on_c, 9, 36, 127
11, 58564, Note_off_c, 9, 36, 0
11, 58608, Note_on_c, 9, 36, 127
11, 58612, Note_off_c, 9, 36, 0
11, 58656, Note_on_c, 9, 38, 127
11, 58660, Note_off_c, 9, 38, 0
11, 58752, Note_on_c, 9, 50, 101
11, 58752, Note_on_c, 9, 38, 127
11, 58752, Note_on_c, 9, 45, 127
11, 58756, Note_off_c, 9, 38, 0
11, 58756, Note_off_c, 9, 45, 0
11, 58756, Note_off_c, 9, 50, 0
11, 58800, Note_on_c, 9, 36, 127
11, 58800, Note_on_c, 9, 45, 127
11, 58804, Note_off_c, 9, 45, 0
11, 58804, Note_off_c, 9, 36, 0
11, 58848, Note_on_c, 9, 36, 127
11, 58848, Note_on_c, 9, 45, 127
11, 58852, Note_off_c, 9, 45, 0
11, 58852, Note_off_c, 9, 36, 0
11, 58896, Note_on_c, 9, 50, 101
11, 58896, Note_on_c, 9, 38, 127
11, 58896, Note_on_c, 9, 43, 127
11, 58900, Note_off_c, 9, 38, 0
11, 58900, Note_off_c, 9, 43, 0
11, 58900, Note_off_c, 9, 50, 0
11, 58944, Note_on_c, 9, 36, 127
11, 58944, Note_on_c, 9, 43, 127
11, 58948, Note_off_c, 9, 43, 0
11, 58948, Note_off_c, 9, 36, 0
11, 58992, Note_on_c, 9, 36, 127
11, 58992, Note_on_c, 9, 43, 127
11, 58996, Note_off_c, 9, 43, 0
11, 58996, Note_off_c, 9, 36, 0
11, 59040, Note_on_c, 9, 50, 101
11, 59040, Note_on_c, 9, 38, 127
11, 59040, Note_on_c, 9, 41, 127
11, 59044, Note_off_c, 9, 38, 0
11, 59044, Note_off_c, 9, 41, 0
11, 59044, Note_off_c, 9, 50, 0
11, 59088, Note_on_c, 9, 38, 127
11, 59088, Note_on_c, 9, 41, 127
11, 59092, Note_off_c, 9, 41, 0
11, 59092, Note_off_c, 9, 38, 0
11, 59136, Note_on_c, 9, 36, 127
11, 59140, Note_off_c, 9, 36, 0
11, 59232, Note_on_c, 9, 38, 127
11, 59236, Note_off_c, 9, 38, 0
11, 59328, Note_on_c, 9, 36, 127
11, 59332, Note_off_c, 9, 36, 0
11, 59376, Note_on_c, 9, 36, 127
11, 59380, Note_off_c, 9, 36, 0
11, 59424, Note_on_c, 9, 38, 127
11, 59428, Note_off_c, 9, 38, 0
11, 59520, Note_on_c, 9, 36, 127
11, 59520, Note_on_c, 9, 50, 101
11, 59524, Note_off_c, 9, 50, 0
11, 59524, Note_off_c, 9, 36, 0
11, 59616, Note_on_c, 9, 38, 127
11, 59620, Note_off_c, 9, 38, 0
11, 59712, Note_on_c, 9, 36, 127
11, 59712, Note_on_c, 9, 50, 101
11, 59716, Note_off_c, 9, 50, 0
11, 59716, Note_off_c, 9, 36, 0
11, 59760, Note_on_c, 9, 36, 127
11, 59764, Note_off_c, 9, 36, 0
11, 59808, Note_on_c, 9, 38, 127
11, 59812, Note_off_c, 9, 38, 0
11, 59904, Note_on_c, 9, 36, 127
11, 59908, Note_off_c, 9, 36, 0
11, 60000, Note_on_c, 9, 38, 127
11, 60004, Note_off_c, 9, 38, 0
11, 60096, Note_on_c, 9, 36, 127
11, 60100, Note_off_c, 9, 36, 0
11, 60144, Note_on_c, 9, 36, 127
11, 60148, Note_off_c, 9, 36, 0
11, 60192, Note_on_c, 9, 38, 127
11, 60196, Note_off_c, 9, 38, 0
11, 60288, Note_on_c, 9, 50, 101
11, 60288, Note_on_c, 9, 38, 127
11, 60292, Note_off_c, 9, 38, 0
11, 60292, Note_off_c, 9, 50, 0
11, 60336, Note_on_c, 9, 36, 127
11, 60340, Note_off_c, 9, 36, 0
11, 60384, Note_on_c, 9, 36, 127
11, 60388, Note_off_c, 9, 36, 0
11, 60432, Note_on_c, 9, 50, 101
11, 60432, Note_on_c, 9, 38, 127
11, 60436, Note_off_c, 9, 38, 0
11, 60436, Note_off_c, 9, 50, 0
11, 60480, Note_on_c, 9, 36, 127
11, 60484, Note_off_c, 9, 36, 0
11, 60528, Note_on_c, 9, 36, 127
11, 60532, Note_off_c, 9, 36, 0
11, 60576, Note_on_c, 9, 50, 101
11, 60576, Note_on_c, 9, 38, 127
11, 60580, Note_off_c, 9, 38, 0
11, 60580, Note_off_c, 9, 50, 0
11, 60624, Note_on_c, 9, 38, 127
11, 60628, Note_off_c, 9, 38, 0
11, 60672, Note_on_c, 9, 38, 127
11, 60676, Note_off_c, 9, 38, 0
11, 60720, Note_on_c, 9, 36, 127
11, 60724, Note_off_c, 9, 36, 0
11, 60768, Note_on_c, 9, 38, 127
11, 60772, Note_off_c, 9, 38, 0
11, 60816, Note_on_c, 9, 36, 127
11, 60820, Note_off_c, 9, 36, 0
11, 60864, Note_on_c, 9, 38, 127
11, 60868, Note_off_c, 9, 38, 0
11, 60912, Note_on_c, 9, 36, 127
11, 60916, Note_off_c, 9, 36, 0
11, 60960, Note_on_c, 9, 38, 127
11, 60964, Note_off_c, 9, 38, 0
11, 61008, Note_on_c, 9, 36, 127
11, 61012, Note_off_c, 9, 36, 0
11, 61056, Note_on_c, 9, 38, 127
11, 61060, Note_off_c, 9, 38, 0
11, 61104, Note_on_c, 9, 36, 127
11, 61108, Note_off_c, 9, 36, 0
11, 61152, Note_on_c, 9, 38, 127
11, 61156, Note_off_c, 9, 38, 0
11, 61200, Note_on_c, 9, 36, 127
11, 61204, Note_off_c, 9, 36, 0
11, 61248, Note_on_c, 9, 38, 127
11, 61252, Note_off_c, 9, 38, 0
11, 61296, Note_on_c, 9, 36, 127
11, 61300, Note_off_c, 9, 36, 0
11, 61344, Note_on_c, 9, 38, 127
11, 61348, Note_off_c, 9, 38, 0
11, 61392, Note_on_c, 9, 36, 127
11, 61396, Note_off_c, 9, 36, 0
11, 61440, Note_on_c, 9, 38, 127
11, 61444, Note_off_c, 9, 38, 0
11, 61488, Note_on_c, 9, 36, 127
11, 61492, Note_off_c, 9, 36, 0
11, 61536, Note_on_c, 9, 38, 127
11, 61540, Note_off_c, 9, 38, 0
11, 61584, Note_on_c, 9, 36, 127
11, 61588, Note_off_c, 9, 36, 0
11, 61632, Note_on_c, 9, 38, 127
11, 61636, Note_off_c, 9, 38, 0
11, 61680, Note_on_c, 9, 36, 127
11, 61684, Note_off_c, 9, 36, 0
11, 61728, Note_on_c, 9, 38, 127
11, 61732, Note_off_c, 9, 38, 0
11, 61776, Note_on_c, 9, 36, 127
11, 61780, Note_off_c, 9, 36, 0
11, 61824, Note_on_c, 9, 38, 127
11, 61824, Note_on_c, 9, 45, 127
11, 61824, Note_on_c, 9, 50, 101
11, 61828, Note_off_c, 9, 45, 0
11, 61828, Note_off_c, 9, 50, 0
11, 61828, Note_off_c, 9, 38, 0
11, 61872, Note_on_c, 9, 36, 127
11, 61872, Note_on_c, 9, 45, 127
11, 61876, Note_off_c, 9, 45, 0
11, 61876, Note_off_c, 9, 36, 0
11, 61920, Note_on_c, 9, 36, 127
11, 61920, Note_on_c, 9, 45, 127
11, 61924, Note_off_c, 9, 45, 0
11, 61924, Note_off_c, 9, 36, 0
11, 61968, Note_on_c, 9, 38, 127
11, 61968, Note_on_c, 9, 43, 127
11, 61968, Note_on_c, 9, 50, 101
11, 61972, Note_off_c, 9, 43, 0
11, 61972, Note_off_c, 9, 50, 0
11, 61972, Note_off_c, 9, 38, 0
11, 62016, Note_on_c, 9, 36, 127
11, 62016, Note_on_c, 9, 43, 127
11, 62020, Note_off_c, 9, 43, 0
11, 62020, Note_off_c, 9, 36, 0
11, 62064, Note_on_c, 9, 36, 127
11, 62064, Note_on_c, 9, 43, 127
11, 62068, Note_off_c, 9, 43, 0
11, 62068, Note_off_c, 9, 36, 0
11, 62112, Note_on_c, 9, 50, 101
11, 62112, Note_on_c, 9, 38, 127
11, 62112, Note_on_c, 9, 41, 127
11, 62116, Note_off_c, 9, 38, 0
11, 62116, Note_off_c, 9, 41, 0
11, 62116, Note_off_c, 9, 50, 0
11, 62160, Note_on_c, 9, 38, 127
11, 62160, Note_on_c, 9, 41, 127
11, 62164, Note_off_c, 9, 41, 0
11, 62164, Note_off_c, 9, 38, 0
11, 62208, Note_on_c, 9, 38, 127
11, 62212, Note_off_c, 9, 38, 0
11, 62256, Note_on_c, 9, 36, 127
11, 62260, Note_off_c, 9, 36, 0
11, 62304, Note_on_c, 9, 38, 127
11, 62308, Note_off_c, 9, 38, 0
11, 62352, Note_on_c, 9, 38, 127
11, 62356, Note_off_c, 9, 38, 0
11, 62376, Note_on_c, 9, 38, 127
11, 62380, Note_off_c, 9, 38, 0
11, 62400, Note_on_c, 9, 38, 127
11, 62404, Note_off_c, 9, 38, 0
11, 62424, Note_on_c, 9, 36, 127
11, 62428, Note_off_c, 9, 36, 0
11, 62448, Note_on_c, 9, 36, 127
11, 62452, Note_off_c, 9, 36, 0
11, 62472, Note_on_c, 9, 38, 127
11, 62476, Note_off_c, 9, 38, 0
11, 62496, Note_on_c, 9, 36, 127
11, 62500, Note_off_c, 9, 36, 0
11, 62520, Note_on_c, 9, 36, 127
11, 62524, Note_off_c, 9, 36, 0
11, 62544, Note_on_c, 9, 38, 127
11, 62548, Note_off_c, 9, 38, 0
11, 62568, Note_on_c, 9, 38, 127
11, 62572, Note_off_c, 9, 38, 0
11, 62592, Note_on_c, 9, 38, 127
11, 62596, Note_off_c, 9, 38, 0
11, 62976, Control_c, 9, 10, 64
11, 62976, Control_c, 9, 7, 100
11, 62976, Pitch_bend_c, 9, 8192
11, 62976, End_track
12, 0, Start_track
12, 0, Control_c, 10, 0, 0
12, 0, Control_c, 10, 32, 0
12, 0, Program_c, 10, 29
12, 0, Title_t, "Lead Guitar"
12, 0, Control_c, 10, 7, 127
12, 0, Control_c, 10, 10, 64
12, 0, Control_c, 10, 7, 127
12, 0, Pitch_bend_c, 10, 8192
12, 0, Control_c, 10, 10, 64
12, 0, Control_c, 10, 7, 127
12, 0, Pitch_bend_c, 10, 8192
12, 0, Control_c, 10, 10, 64
12, 0, Control_c, 10, 7, 127
12, 0, Pitch_bend_c, 10, 8192
12, 0, Program_c, 10, 29
12, 0, Control_c, 10, 10, 64
12, 0, Control_c, 10, 7, 127
12, 0, Pitch_bend_c, 10, 8192
12, 0, Program_c, 10, 29
12, 6912, Note_on_c, 10, 80, 127
12, 7200, Note_off_c, 10, 80, 0
12, 7200, Note_on_c, 10, 84, 100
12, 7296, Note_off_c, 10, 84, 0
12, 7296, Note_on_c, 10, 79, 100
12, 7392, Note_off_c, 10, 79, 0
12, 7392, Note_on_c, 10, 75, 100
12, 7488, Note_off_c, 10, 75, 0
12, 7488, Note_on_c, 10, 74, 100
12, 7584, Note_off_c, 10, 74, 0
12, 7584, Note_on_c, 10, 75, 100
12, 7680, Note_off_c, 10, 75, 0
12, 7680, Note_on_c, 10, 79, 100
12, 7824, Note_off_c, 10, 79, 0
12, 7824, Note_on_c, 10, 74, 100
12, 7920, Note_off_c, 10, 74, 0
12, 7920, Note_on_c, 10, 79, 100
12, 8016, Note_off_c, 10, 79, 0
12, 8016, Note_on_c, 10, 77, 100
12, 8160, Note_off_c, 10, 77, 0
12, 8160, Note_on_c, 10, 74, 100
12, 8256, Note_off_c, 10, 74, 0
12, 8256, Note_on_c, 10, 71, 100
12, 8352, Note_off_c, 10, 71, 0
12, 8352, Note_on_c, 10, 74, 100
12, 8448, Note_off_c, 10, 74, 0
12, 8448, Note_on_c, 10, 75, 100
12, 8544, Note_off_c, 10, 75, 0
12, 8544, Note_on_c, 10, 74, 100
12, 8592, Note_off_c, 10, 74, 0
12, 8592, Note_on_c, 10, 75, 100
12, 8688, Note_off_c, 10, 75, 0
12, 8688, Note_on_c, 10, 77, 100
12, 8784, Note_off_c, 10, 77, 0
12, 8784, Note_on_c, 10, 75, 100
12, 8832, Note_off_c, 10, 75, 0
12, 8832, Note_on_c, 10, 77, 100
12, 8928, Note_off_c, 10, 77, 0
12, 8928, Note_on_c, 10, 79, 100
12, 9024, Note_off_c, 10, 79, 0
12, 9024, Note_on_c, 10, 77, 100
12, 9120, Note_off_c, 10, 77, 0
12, 9120, Note_on_c, 10, 75, 100
12, 9216, Note_off_c, 10, 75, 0
12, 9216, Note_on_c, 10, 74, 100
12, 9312, Note_off_c, 10, 74, 0
12, 9312, Note_on_c, 10, 71, 100
12, 9360, Note_off_c, 10, 71, 0
12, 9360, Note_on_c, 10, 74, 100
12, 9504, Note_off_c, 10, 74, 0
12, 9504, Note_on_c, 10, 67, 100
12, 9600, Note_off_c, 10, 67, 0
12, 9600, Note_on_c, 10, 68, 100
12, 9696, Note_off_c, 10, 68, 0
12, 9696, Note_on_c, 10, 67, 100
12, 9744, Note_off_c, 10, 67, 0
12, 9744, Note_on_c, 10, 74, 100
12, 9840, Note_off_c, 10, 74, 0
12, 9840, Note_on_c, 10, 71, 100
12, 9888, Note_off_c, 10, 71, 0
12, 9888, Note_on_c, 10, 74, 100
12, 9936, Note_off_c, 10, 74, 0
12, 9936, Note_on_c, 10, 79, 100
12, 9984, Note_off_c, 10, 79, 0
12, 9984, Note_on_c, 10, 80, 100
12, 10272, Note_off_c, 10, 80, 0
12, 10272, Note_on_c, 10, 84, 100
12, 10368, Note_off_c, 10, 84, 0
12, 10368, Note_on_c, 10, 79, 100
12, 10464, Note_off_c, 10, 79, 0
12, 10464, Note_on_c, 10, 75, 100
12, 10560, Note_off_c, 10, 75, 0
12, 10560, Note_on_c, 10, 74, 100
12, 10656, Note_off_c, 10, 74, 0
12, 10656, Note_on_c, 10, 75, 100
12, 10752, Note_off_c, 10, 75, 0
12, 10752, Note_on_c, 10, 79, 100
12, 10896, Note_off_c, 10, 79, 0
12, 10896, Note_on_c, 10, 74, 100
12, 10992, Note_off_c, 10, 74, 0
12, 10992, Note_on_c, 10, 79, 100
12, 11088, Note_off_c, 10, 79, 0
12, 11088, Note_on_c, 10, 77, 100
12, 11232, Note_off_c, 10, 77, 0
12, 11232, Note_on_c, 10, 74, 100
12, 11328, Note_off_c, 10, 74, 0
12, 11328, Note_on_c, 10, 71, 100
12, 11424, Note_off_c, 10, 71, 0
12, 11424, Note_on_c, 10, 74, 100
12, 11520, Note_off_c, 10, 74, 0
12, 11520, Note_on_c, 10, 75, 100
12, 11616, Note_off_c, 10, 75, 0
12, 11616, Note_on_c, 10, 74, 100
12, 11664, Note_off_c, 10, 74, 0
12, 11664, Note_on_c, 10, 75, 100
12, 11760, Note_off_c, 10, 75, 0
12, 11760, Note_on_c, 10, 77, 100
12, 11856, Note_off_c, 10, 77, 0
12, 11856, Note_on_c, 10, 75, 100
12, 11904, Note_off_c, 10, 75, 0
12, 11904, Note_on_c, 10, 77, 100
12, 12000, Note_off_c, 10, 77, 0
12, 12000, Note_on_c, 10, 79, 100
12, 12096, Note_off_c, 10, 79, 0
12, 12096, Note_on_c, 10, 77, 100
12, 12192, Note_off_c, 10, 77, 0
12, 12192, Note_on_c, 10, 75, 100
12, 12288, Note_off_c, 10, 75, 0
12, 12288, Note_on_c, 10, 74, 100
12, 12384, Note_off_c, 10, 74, 0
12, 12384, Note_on_c, 10, 71, 100
12, 12432, Note_off_c, 10, 71, 0
12, 12432, Note_on_c, 10, 74, 100
12, 12576, Note_off_c, 10, 74, 0
12, 12576, Note_on_c, 10, 67, 100
12, 12672, Note_off_c, 10, 67, 0
12, 12672, Note_on_c, 10, 63, 100
12, 12768, Note_off_c, 10, 63, 0
12, 12768, Note_on_c, 10, 62, 100
12, 12864, Note_off_c, 10, 62, 0
12, 12864, Note_on_c, 10, 60, 100
12, 13056, Note_off_c, 10, 60, 0
12, 13104, Note_on_c, 10, 60, 100
12, 13152, Note_off_c, 10, 60, 0
12, 13200, Note_on_c, 10, 60, 100
12, 13248, Note_off_c, 10, 60, 0
12, 13248, Note_on_c, 10, 59, 100
12, 13296, Note_off_c, 10, 59, 0
12, 13296, Note_on_c, 10, 60, 100
12, 13344, Note_off_c, 10, 60, 0
12, 13392, Note_on_c, 10, 60, 100
12, 13440, Note_off_c, 10, 60, 0
12, 13488, Note_on_c, 10, 60, 100
12, 13536, Note_off_c, 10, 60, 0
12, 13584, Note_on_c, 10, 60, 100
12, 13632, Note_off_c, 10, 60, 0
12, 13632, Note_on_c, 10, 59, 100
12, 13680, Note_off_c, 10, 59, 0
12, 13680, Note_on_c, 10, 60, 100
12, 13728, Note_off_c, 10, 60, 0
12, 13728, Note_on_c, 10, 62, 100
12, 13776, Note_off_c, 10, 62, 0
12, 13776, Note_on_c, 10, 59, 100
12, 13824, Note_off_c, 10, 59, 0
12, 13872, Note_on_c, 10, 60, 100
12, 13920, Note_off_c, 10, 60, 0
12, 13968, Note_on_c, 10, 60, 100
12, 14016, Note_off_c, 10, 60, 0
12, 14016, Note_on_c, 10, 59, 100
12, 14064, Note_off_c, 10, 59, 0
12, 14064, Note_on_c, 10, 60, 100
12, 14112, Note_off_c, 10, 60, 0
12, 14160, Note_on_c, 10, 60, 100
12, 14208, Note_off_c, 10, 60, 0
12, 14256, Note_on_c, 10, 60, 100
12, 14304, Note_off_c, 10, 60, 0
12, 14352, Note_on_c, 10, 60, 100
12, 14400, Note_off_c, 10, 60, 0
12, 14400, Note_on_c, 10, 59, 100
12, 14448, Note_off_c, 10, 59, 0
12, 14448, Note_on_c, 10, 55, 64
12, 14496, Note_off_c, 10, 55, 0
12, 14496, Note_on_c, 10, 53, 64
12, 14544, Note_off_c, 10, 53, 0
12, 14544, Note_on_c, 10, 59, 100
12, 14592, Note_off_c, 10, 59, 0
12, 14640, Note_on_c, 10, 60, 100
12, 14688, Note_off_c, 10, 60, 0
12, 14736, Note_on_c, 10, 60, 100
12, 14784, Note_off_c, 10, 60, 0
12, 14784, Note_on_c, 10, 59, 100
12, 14832, Note_off_c, 10, 59, 0
12, 14832, Note_on_c, 10, 60, 100
12, 14880, Note_off_c, 10, 60, 0
12, 14928, Note_on_c, 10, 60, 100
12, 14976, Note_off_c, 10, 60, 0
12, 15024, Note_on_c, 10, 60, 100
12, 15072, Note_off_c, 10, 60, 0
12, 15120, Note_on_c, 10, 60, 100
12, 15168, Note_off_c, 10, 60, 0
12, 15168, Note_on_c, 10, 59, 100
12, 15216, Note_off_c, 10, 59, 0
12, 15216, Note_on_c, 10, 60, 100
12, 15264, Note_off_c, 10, 60, 0
12, 15264, Note_on_c, 10, 62, 100
12, 15312, Note_off_c, 10, 62, 0
12, 15312, Note_on_c, 10, 59, 100
12, 15360, Note_off_c, 10, 59, 0
12, 15408, Note_on_c, 10, 60, 100
12, 15456, Note_off_c, 10, 60, 0
12, 15504, Note_on_c, 10, 60, 100
12, 15552, Note_off_c, 10, 60, 0
12, 15552, Note_on_c, 10, 59, 100
12, 15600, Note_off_c, 10, 59, 0
12, 15600, Note_on_c, 10, 60, 100
12, 15648, Note_off_c, 10, 60, 0
12, 15696, Note_on_c, 10, 60, 100
12, 15744, Note_off_c, 10, 60, 0
12, 15792, Note_on_c, 10, 60, 100
12, 15840, Note_off_c, 10, 60, 0
12, 15888, Note_on_c, 10, 60, 100
12, 15936, Note_off_c, 10, 60, 0
12, 15936, Note_on_c, 10, 59, 100
12, 15984, Note_off_c, 10, 59, 0
12, 15984, Note_on_c, 10, 55, 64
12, 16032, Note_off_c, 10, 55, 0
12, 16032, Note_on_c, 10, 53, 64
12, 16080, Note_off_c, 10, 53, 0
12, 16080, Note_on_c, 10, 59, 100
12, 16128, Note_off_c, 10, 59, 0
12, 16176, Note_on_c, 10, 60, 100
12, 16224, Note_off_c, 10, 60, 0
12, 16272, Note_on_c, 10, 60, 100
12, 16320, Note_off_c, 10, 60, 0
12, 16320, Note_on_c, 10, 59, 100
12, 16368, Note_off_c, 10, 59, 0
12, 16368, Note_on_c, 10, 60, 100
12, 16416, Note_off_c, 10, 60, 0
12, 16464, Note_on_c, 10, 60, 100
12, 16512, Note_off_c, 10, 60, 0
12, 16560, Note_on_c, 10, 60, 100
12, 16608, Note_off_c, 10, 60, 0
12, 16656, Note_on_c, 10, 60, 100
12, 16704, Note_off_c, 10, 60, 0
12, 16704, Note_on_c, 10, 59, 100
12, 16752, Note_off_c, 10, 59, 0
12, 16752, Note_on_c, 10, 60, 100
12, 16800, Note_off_c, 10, 60, 0
12, 16800, Note_on_c, 10, 62, 100
12, 16848, Note_off_c, 10, 62, 0
12, 16848, Note_on_c, 10, 59, 100
12, 16896, Note_off_c, 10, 59, 0
12, 16944, Note_on_c, 10, 60, 100
12, 16992, Note_off_c, 10, 60, 0
12, 17040, Note_on_c, 10, 60, 100
12, 17088, Note_off_c, 10, 60, 0
12, 17088, Note_on_c, 10, 59, 100
12, 17136, Note_off_c, 10, 59, 0
12, 17136, Note_on_c, 10, 60, 100
12, 17184, Note_off_c, 10, 60, 0
12, 17232, Note_on_c, 10, 60, 100
12, 17280, Note_off_c, 10, 60, 0
12, 17328, Note_on_c, 10, 60, 100
12, 17376, Note_off_c, 10, 60, 0
12, 17424, Note_on_c, 10, 60, 100
12, 17472, Note_off_c, 10, 60, 0
12, 17472, Note_on_c, 10, 59, 100
12, 17520, Note_off_c, 10, 59, 0
12, 17520, Note_on_c, 10, 55, 64
12, 17568, Note_off_c, 10, 55, 0
12, 17568, Note_on_c, 10, 53, 64
12, 17616, Note_off_c, 10, 53, 0
12, 17616, Note_on_c, 10, 59, 100
12, 17664, Note_off_c, 10, 59, 0
12, 17712, Note_on_c, 10, 60, 100
12, 17760, Note_off_c, 10, 60, 0
12, 17808, Note_on_c, 10, 60, 100
12, 17856, Note_off_c, 10, 60, 0
12, 17856, Note_on_c, 10, 59, 100
12, 17904, Note_off_c, 10, 59, 0
12, 17904, Note_on_c, 10, 60, 100
12, 17952, Note_off_c, 10, 60, 0
12, 18000, Note_on_c, 10, 60, 100
12, 18048, Note_off_c, 10, 60, 0
12, 18096, Note_on_c, 10, 60, 100
12, 18144, Note_off_c, 10, 60, 0
12, 18192, Note_on_c, 10, 60, 100
12, 18240, Note_off_c, 10, 60, 0
12, 18240, Note_on_c, 10, 59, 100
12, 18288, Note_off_c, 10, 59, 0
12, 18288, Note_on_c, 10, 60, 100
12, 18336, Note_off_c, 10, 60, 0
12, 18336, Note_on_c, 10, 62, 100
12, 18384, Note_off_c, 10, 62, 0
12, 18384, Note_on_c, 10, 59, 100
12, 18432, Note_off_c, 10, 59, 0
12, 18480, Note_on_c, 10, 60, 100
12, 18528, Note_off_c, 10, 60, 0
12, 18576, Note_on_c, 10, 60, 100
12, 18624, Note_off_c, 10, 60, 0
12, 18624, Note_on_c, 10, 59, 100
12, 18672, Note_off_c, 10, 59, 0
12, 18672, Note_on_c, 10, 60, 100
12, 18720, Note_off_c, 10, 60, 0
12, 18768, Note_on_c, 10, 60, 100
12, 18816, Note_off_c, 10, 60, 0
12, 18864, Note_on_c, 10, 60, 100
12, 18912, Note_off_c, 10, 60, 0
12, 18960, Note_on_c, 10, 60, 100
12, 19008, Note_off_c, 10, 60, 0
12, 19008, Note_on_c, 10, 59, 100
12, 19056, Note_off_c, 10, 59, 0
12, 19056, Note_on_c, 10, 55, 64
12, 19104, Note_off_c, 10, 55, 0
12, 19104, Note_on_c, 10, 53, 64
12, 19152, Note_off_c, 10, 53, 0
12, 19152, Note_on_c, 10, 59, 100
12, 19200, Note_off_c, 10, 59, 0
12, 22272, Program_c, 10, 60
12, 22272, Note_on_c, 10, 60, 100
12, 22320, Note_off_c, 10, 60, 0
12, 22320, Note_on_c, 10, 55, 100
12, 22344, Note_off_c, 10, 55, 0
12, 22344, Note_on_c, 10, 60, 100
12, 22368, Note_off_c, 10, 60, 0
12, 22368, Note_on_c, 10, 62, 100
12, 22416, Note_off_c, 10, 62, 0
12, 22416, Note_on_c, 10, 60, 100
12, 22440, Note_off_c, 10, 60, 0
12, 22440, Note_on_c, 10, 62, 100
12, 22464, Note_off_c, 10, 62, 0
12, 22464, Note_on_c, 10, 63, 100
12, 22512, Note_off_c, 10, 63, 0
12, 22512, Note_on_c, 10, 62, 100
12, 22536, Note_off_c, 10, 62, 0
12, 22536, Note_on_c, 10, 63, 100
12, 22560, Note_off_c, 10, 63, 0
12, 22560, Note_on_c, 10, 65, 100
12, 22608, Note_off_c, 10, 65, 0
12, 22608, Note_on_c, 10, 63, 100
12, 22632, Note_off_c, 10, 63, 0
12, 22632, Note_on_c, 10, 65, 100
12, 22656, Note_off_c, 10, 65, 0
12, 22656, Note_on_c, 10, 67, 100
12, 22704, Note_off_c, 10, 67, 0
12, 22704, Note_on_c, 10, 65, 100
12, 22728, Note_off_c, 10, 65, 0
12, 22728, Note_on_c, 10, 67, 100
12, 22752, Note_off_c, 10, 67, 0
12, 22752, Note_on_c, 10, 68, 100
12, 22800, Note_off_c, 10, 68, 0
12, 22800, Note_on_c, 10, 67, 100
12, 22824, Note_off_c, 10, 67, 0
12, 22824, Note_on_c, 10, 68, 100
12, 22848, Note_off_c, 10, 68, 0
12, 22848, Note_on_c, 10, 67, 100
12, 22896, Note_off_c, 10, 67, 0
12, 22896, Note_on_c, 10, 65, 100
12, 22920, Note_off_c, 10, 65, 0
12, 22920, Note_on_c, 10, 67, 100
12, 22944, Note_off_c, 10, 67, 0
12, 22944, Note_on_c, 10, 65, 100
12, 22992, Note_off_c, 10, 65, 0
12, 22992, Note_on_c, 10, 63, 100
12, 23016, Note_off_c, 10, 63, 0
12, 23016, Note_on_c, 10, 62, 100
12, 23040, Note_off_c, 10, 62, 0
12, 23040, Note_on_c, 10, 60, 100
12, 23088, Note_off_c, 10, 60, 0
12, 23088, Note_on_c, 10, 55, 100
12, 23112, Note_off_c, 10, 55, 0
12, 23112, Note_on_c, 10, 60, 100
12, 23136, Note_off_c, 10, 60, 0
12, 23136, Note_on_c, 10, 62, 100
12, 23184, Note_off_c, 10, 62, 0
12, 23184, Note_on_c, 10, 60, 100
12, 23208, Note_off_c, 10, 60, 0
12, 23208, Note_on_c, 10, 62, 100
12, 23232, Note_off_c, 10, 62, 0
12, 23232, Note_on_c, 10, 63, 100
12, 23280, Note_off_c, 10, 63, 0
12, 23280, Note_on_c, 10, 62, 100
12, 23304, Note_off_c, 10, 62, 0
12, 23304, Note_on_c, 10, 63, 100
12, 23328, Note_off_c, 10, 63, 0
12, 23328, Note_on_c, 10, 65, 100
12, 23376, Note_off_c, 10, 65, 0
12, 23376, Note_on_c, 10, 63, 100
12, 23400, Note_off_c, 10, 63, 0
12, 23400, Note_on_c, 10, 65, 100
12, 23424, Note_off_c, 10, 65, 0
12, 23424, Note_on_c, 10, 67, 100
12, 23472, Note_off_c, 10, 67, 0
12, 23472, Note_on_c, 10, 65, 100
12, 23496, Note_off_c, 10, 65, 0
12, 23496, Note_on_c, 10, 67, 100
12, 23520, Note_off_c, 10, 67, 0
12, 23520, Note_on_c, 10, 68, 100
12, 23568, Note_off_c, 10, 68, 0
12, 23568, Note_on_c, 10, 67, 100
12, 23592, Note_off_c, 10, 67, 0
12, 23592, Note_on_c, 10, 68, 100
12, 23616, Note_off_c, 10, 68, 0
12, 23616, Note_on_c, 10, 67, 100
12, 23664, Note_off_c, 10, 67, 0
12, 23664, Note_on_c, 10, 65, 100
12, 23688, Note_off_c, 10, 65, 0
12, 23688, Note_on_c, 10, 67, 100
12, 23712, Note_off_c, 10, 67, 0
12, 23712, Note_on_c, 10, 65, 100
12, 23760, Note_off_c, 10, 65, 0
12, 23760, Note_on_c, 10, 63, 100
12, 23784, Note_off_c, 10, 63, 0
12, 23784, Note_on_c, 10, 62, 100
12, 23808, Note_off_c, 10, 62, 0
12, 23808, Note_on_c, 10, 60, 100
12, 23856, Note_off_c, 10, 60, 0
12, 23856, Note_on_c, 10, 55, 100
12, 23880, Note_off_c, 10, 55, 0
12, 23880, Note_on_c, 10, 60, 100
12, 23904, Note_off_c, 10, 60, 0
12, 23904, Note_on_c, 10, 62, 100
12, 23952, Note_off_c, 10, 62, 0
12, 23952, Note_on_c, 10, 60, 100
12, 23976, Note_off_c, 10, 60, 0
12, 23976, Note_on_c, 10, 62, 100
12, 24000, Note_off_c, 10, 62, 0
12, 24000, Note_on_c, 10, 63, 100
12, 24048, Note_off_c, 10, 63, 0
12, 24048, Note_on_c, 10, 62, 100
12, 24072, Note_off_c, 10, 62, 0
12, 24072, Note_on_c, 10, 63, 100
12, 24096, Note_off_c, 10, 63, 0
12, 24096, Note_on_c, 10, 65, 100
12, 24144, Note_off_c, 10, 65, 0
12, 24144, Note_on_c, 10, 63, 100
12, 24168, Note_off_c, 10, 63, 0
12, 24168, Note_on_c, 10, 65, 100
12, 24192, Note_off_c, 10, 65, 0
12, 24192, Note_on_c, 10, 67, 100
12, 24240, Note_off_c, 10, 67, 0
12, 24240, Note_on_c, 10, 65, 100
12, 24264, Note_off_c, 10, 65, 0
12, 24264, Note_on_c, 10, 67, 100
12, 24288, Note_off_c, 10, 67, 0
12, 24288, Note_on_c, 10, 68, 100
12, 24336, Note_off_c, 10, 68, 0
12, 24336, Note_on_c, 10, 67, 100
12, 24360, Note_off_c, 10, 67, 0
12, 24360, Note_on_c, 10, 68, 100
12, 24384, Note_off_c, 10, 68, 0
12, 24384, Note_on_c, 10, 67, 100
12, 24432, Note_off_c, 10, 67, 0
12, 24432, Note_on_c, 10, 65, 100
12, 24456, Note_off_c, 10, 65, 0
12, 24456, Note_on_c, 10, 67, 100
12, 24480, Note_off_c, 10, 67, 0
12, 24480, Note_on_c, 10, 65, 100
12, 24528, Note_off_c, 10, 65, 0
12, 24528, Note_on_c, 10, 63, 100
12, 24552, Note_off_c, 10, 63, 0
12, 24552, Note_on_c, 10, 62, 100
12, 24576, Note_off_c, 10, 62, 0
12, 24576, Note_on_c, 10, 60, 100
12, 24608, Note_off_c, 10, 60, 0
12, 24608, Note_on_c, 10, 55, 100
12, 24640, Note_off_c, 10, 55, 0
12, 24640, Note_on_c, 10, 60, 100
12, 24672, Note_off_c, 10, 60, 0
12, 24672, Note_on_c, 10, 62, 100
12, 24704, Note_off_c, 10, 62, 0
12, 24704, Note_on_c, 10, 60, 100
12, 24736, Note_off_c, 10, 60, 0
12, 24736, Note_on_c, 10, 62, 100
12, 24768, Note_off_c, 10, 62, 0
12, 24768, Note_on_c, 10, 63, 100
12, 24800, Note_off_c, 10, 63, 0
12, 24800, Note_on_c, 10, 62, 100
12, 24832, Note_off_c, 10, 62, 0
12, 24832, Note_on_c, 10, 63, 100
12, 24864, Note_off_c, 10, 63, 0
12, 24864, Note_on_c, 10, 65, 100
12, 24896, Note_off_c, 10, 65, 0
12, 24896, Note_on_c, 10, 63, 100
12, 24928, Note_off_c, 10, 63, 0
12, 24928, Note_on_c, 10, 65, 100
12, 24960, Note_off_c, 10, 65, 0
12, 24960, Note_on_c, 10, 67, 100
12, 25152, Note_off_c, 10, 67, 0
12, 25152, Note_on_c, 10, 79, 100
12, 25344, Note_off_c, 10, 79, 0
12, 37632, Note_on_c, 10, 80, 127
12, 37920, Note_off_c, 10, 80, 0
12, 37920, Note_on_c, 10, 84, 100
12, 38016, Note_off_c, 10, 84, 0
12, 38016, Note_on_c, 10, 79, 100
12, 38112, Note_off_c, 10, 79, 0
12, 38112, Note_on_c, 10, 75, 100
12, 38208, Note_off_c, 10, 75, 0
12, 38208, Note_on_c, 10, 74, 100
12, 38304, Note_off_c, 10, 74, 0
12, 38304, Note_on_c, 10, 75, 100
12, 38400, Note_off_c, 10, 75, 0
12, 38400, Note_on_c, 10, 79, 100
12, 38544, Note_off_c, 10, 79, 0
12, 38544, Note_on_c, 10, 74, 100
12, 38640, Note_off_c, 10, 74, 0
12, 38640, Note_on_c, 10, 79, 100
12, 38736, Note_off_c, 10, 79, 0
12, 38736, Note_on_c, 10, 77, 100
12, 38880, Note_off_c, 10, 77, 0
12, 38880, Note_on_c, 10, 74, 100
12, 38976, Note_off_c, 10, 74, 0
12, 38976, Note_on_c, 10, 71, 100
12, 39072, Note_off_c, 10, 71, 0
12, 39072, Note_on_c, 10, 74, 100
12, 39168, Note_off_c, 10, 74, 0
12, 39168, Note_on_c, 10, 75, 100
12, 39264, Note_off_c, 10, 75, 0
12, 39264, Note_on_c, 10, 74, 100
12, 39312, Note_off_c, 10, 74, 0
12, 39312, Note_on_c, 10, 75, 100
12, 39408, Note_off_c, 10, 75, 0
12, 39408, Note_on_c, 10, 77, 100
12, 39504, Note_off_c, 10, 77, 0
12, 39504, Note_on_c, 10, 75, 100
12, 39552, Note_off_c, 10, 75, 0
12, 39552, Note_on_c, 10, 77, 100
12, 39648, Note_off_c, 10, 77, 0
12, 39648, Note_on_c, 10, 79, 100
12, 39744, Note_off_c, 10, 79, 0
12, 39744, Note_on_c, 10, 77, 100
12, 39840, Note_off_c, 10, 77, 0
12, 39840, Note_on_c, 10, 75, 100
12, 39936, Note_off_c, 10, 75, 0
12, 39936, Note_on_c, 10, 74, 100
12, 40032, Note_off_c, 10, 74, 0
12, 40032, Note_on_c, 10, 71, 100
12, 40080, Note_off_c, 10, 71, 0
12, 40080, Note_on_c, 10, 74, 100
12, 40224, Note_off_c, 10, 74, 0
12, 40224, Note_on_c, 10, 67, 100
12, 40320, Note_off_c, 10, 67, 0
12, 40320, Note_on_c, 10, 68, 100
12, 40416, Note_off_c, 10, 68, 0
12, 40416, Note_on_c, 10, 67, 100
12, 40464, Note_off_c, 10, 67, 0
12, 40464, Note_on_c, 10, 74, 100
12, 40560, Note_off_c, 10, 74, 0
12, 40560, Note_on_c, 10, 71, 100
12, 40608, Note_off_c, 10, 71, 0
12, 40608, Note_on_c, 10, 74, 100
12, 40656, Note_off_c, 10, 74, 0
12, 40656, Note_on_c, 10, 79, 100
12, 40704, Note_off_c, 10, 79, 0
12, 40704, Note_on_c, 10, 80, 100
12, 40992, Note_off_c, 10, 80, 0
12, 40992, Note_on_c, 10, 84, 100
12, 41088, Note_off_c, 10, 84, 0
12, 41088, Note_on_c, 10, 79, 100
12, 41184, Note_off_c, 10, 79, 0
12, 41184, Note_on_c, 10, 75, 100
12, 41280, Note_off_c, 10, 75, 0
12, 41280, Note_on_c, 10, 74, 100
12, 41376, Note_off_c, 10, 74, 0
12, 41376, Note_on_c, 10, 75, 100
12, 41472, Note_off_c, 10, 75, 0
12, 41472, Note_on_c, 10, 79, 100
12, 41616, Note_off_c, 10, 79, 0
12, 41616, Note_on_c, 10, 74, 100
12, 41712, Note_off_c, 10, 74, 0
12, 41712, Note_on_c, 10, 79, 100
12, 41808, Note_off_c, 10, 79, 0
12, 41808, Note_on_c, 10, 77, 100
12, 41952, Note_off_c, 10, 77, 0
12, 41952, Note_on_c, 10, 74, 100
12, 42048, Note_off_c, 10, 74, 0
12, 42048, Note_on_c, 10, 71, 100
12, 42144, Note_off_c, 10, 71, 0
12, 42144, Note_on_c, 10, 74, 100
12, 42240, Note_off_c, 10, 74, 0
12, 42240, Note_on_c, 10, 75, 100
12, 42336, Note_off_c, 10, 75, 0
12, 42336, Note_on_c, 10, 74, 100
12, 42384, Note_off_c, 10, 74, 0
12, 42384, Note_on_c, 10, 75, 100
12, 42480, Note_off_c, 10, 75, 0
12, 42480, Note_on_c, 10, 77, 100
12, 42576, Note_off_c, 10, 77, 0
12, 42576, Note_on_c, 10, 75, 100
12, 42624, Note_off_c, 10, 75, 0
12, 42624, Note_on_c, 10, 77, 100
12, 42720, Note_off_c, 10, 77, 0
12, 42720, Note_on_c, 10, 79, 100
12, 42816, Note_off_c, 10, 79, 0
12, 42816, Note_on_c, 10, 77, 100
12, 42912, Note_off_c, 10, 77, 0
12, 42912, Note_on_c, 10, 75, 100
12, 43008, Note_off_c, 10, 75, 0
12, 43008, Note_on_c, 10, 74, 100
12, 43104, Note_off_c, 10, 74, 0
12, 43104, Note_on_c, 10, 71, 100
12, 43152, Note_off_c, 10, 71, 0
12, 43152, Note_on_c, 10, 74, 100
12, 43296, Note_off_c, 10, 74, 0
12, 43296, Note_on_c, 10, 67, 100
12, 43392, Note_off_c, 10, 67, 0
12, 43392, Note_on_c, 10, 63, 100
12, 43488, Note_off_c, 10, 63, 0
12, 43488, Note_on_c, 10, 62, 100
12, 43584, Note_off_c, 10, 62, 0
12, 43584, Note_on_c, 10, 60, 100
12, 43776, Note_off_c, 10, 60, 0
12, 43824, Note_on_c, 10, 60, 100
12, 43872, Note_off_c, 10, 60, 0
12, 43920, Note_on_c, 10, 60, 100
12, 43968, Note_off_c, 10, 60, 0
12, 43968, Note_on_c, 10, 59, 100
12, 44016, Note_off_c, 10, 59, 0
12, 44016, Note_on_c, 10, 60, 100
12, 44064, Note_off_c, 10, 60, 0
12, 44112, Note_on_c, 10, 60, 100
12, 44160, Note_off_c, 10, 60, 0
12, 44208, Note_on_c, 10, 60, 100
12, 44256, Note_off_c, 10, 60, 0
12, 44304, Note_on_c, 10, 60, 100
12, 44352, Note_off_c, 10, 60, 0
12, 44352, Note_on_c, 10, 59, 100
12, 44400, Note_off_c, 10, 59, 0
12, 44400, Note_on_c, 10, 60, 100
12, 44448, Note_off_c, 10, 60, 0
12, 44448, Note_on_c, 10, 62, 100
12, 44496, Note_off_c, 10, 62, 0
12, 44496, Note_on_c, 10, 59, 100
12, 44544, Note_off_c, 10, 59, 0
12, 44592, Note_on_c, 10, 60, 100
12, 44640, Note_off_c, 10, 60, 0
12, 44688, Note_on_c, 10, 60, 100
12, 44736, Note_off_c, 10, 60, 0
12, 44736, Note_on_c, 10, 59, 100
12, 44784, Note_off_c, 10, 59, 0
12, 44784, Note_on_c, 10, 60, 100
12, 44832, Note_off_c, 10, 60, 0
12, 44880, Note_on_c, 10, 60, 100
12, 44928, Note_off_c, 10, 60, 0
12, 44976, Note_on_c, 10, 60, 100
12, 45024, Note_off_c, 10, 60, 0
12, 45072, Note_on_c, 10, 60, 100
12, 45120, Note_off_c, 10, 60, 0
12, 45120, Note_on_c, 10, 59, 100
12, 45168, Note_off_c, 10, 59, 0
12, 45168, Note_on_c, 10, 55, 64
12, 45216, Note_off_c, 10, 55, 0
12, 45216, Note_on_c, 10, 53, 64
12, 45264, Note_off_c, 10, 53, 0
12, 45264, Note_on_c, 10, 59, 100
12, 45312, Note_off_c, 10, 59, 0
12, 45360, Note_on_c, 10, 60, 100
12, 45408, Note_off_c, 10, 60, 0
12, 45456, Note_on_c, 10, 60, 100
12, 45504, Note_off_c, 10, 60, 0
12, 45504, Note_on_c, 10, 59, 100
12, 45552, Note_off_c, 10, 59, 0
12, 45552, Note_on_c, 10, 60, 100
12, 45600, Note_off_c, 10, 60, 0
12, 45648, Note_on_c, 10, 60, 100
12, 45696, Note_off_c, 10, 60, 0
12, 45744, Note_on_c, 10, 60, 100
12, 45792, Note_off_c, 10, 60, 0
12, 45840, Note_on_c, 10, 60, 100
12, 45888, Note_off_c, 10, 60, 0
12, 45888, Note_on_c, 10, 59, 100
12, 45936, Note_off_c, 10, 59, 0
12, 45936, Note_on_c, 10, 60, 100
12, 45984, Note_off_c, 10, 60, 0
12, 45984, Note_on_c, 10, 62, 100
12, 46032, Note_off_c, 10, 62, 0
12, 46032, Note_on_c, 10, 59, 100
12, 46080, Note_off_c, 10, 59, 0
12, 46128, Note_on_c, 10, 60, 100
12, 46176, Note_off_c, 10, 60, 0
12, 46224, Note_on_c, 10, 60, 100
12, 46272, Note_off_c, 10, 60, 0
12, 46272, Note_on_c, 10, 59, 100
12, 46320, Note_off_c, 10, 59, 0
12, 46320, Note_on_c, 10, 60, 100
12, 46368, Note_off_c, 10, 60, 0
12, 46416, Note_on_c, 10, 60, 100
12, 46464, Note_off_c, 10, 60, 0
12, 46512, Note_on_c, 10, 60, 100
12, 46560, Note_off_c, 10, 60, 0
12, 46608, Note_on_c, 10, 60, 100
12, 46656, Note_off_c, 10, 60, 0
12, 46656, Note_on_c, 10, 59, 100
12, 46704, Note_off_c, 10, 59, 0
12, 46704, Note_on_c, 10, 55, 64
12, 46752, Note_off_c, 10, 55, 0
12, 46752, Note_on_c, 10, 53, 64
12, 46800, Note_off_c, 10, 53, 0
12, 46800, Note_on_c, 10, 59, 100
12, 46848, Note_off_c, 10, 59, 0
12, 46896, Note_on_c, 10, 60, 100
12, 46944, Note_off_c, 10, 60, 0
12, 46992, Note_on_c, 10, 60, 100
12, 47040, Note_off_c, 10, 60, 0
12, 47040, Note_on_c, 10, 59, 100
12, 47088, Note_off_c, 10, 59, 0
12, 47088, Note_on_c, 10, 60, 100
12, 47136, Note_off_c, 10, 60, 0
12, 47184, Note_on_c, 10, 60, 100
12, 47232, Note_off_c, 10, 60, 0
12, 47280, Note_on_c, 10, 60, 100
12, 47328, Note_off_c, 10, 60, 0
12, 47376, Note_on_c, 10, 60, 100
12, 47424, Note_off_c, 10, 60, 0
12, 47424, Note_on_c, 10, 59, 100
12, 47472, Note_off_c, 10, 59, 0
12, 47472, Note_on_c, 10, 60, 100
12, 47520, Note_off_c, 10, 60, 0
12, 47520, Note_on_c, 10, 62, 100
12, 47568, Note_off_c, 10, 62, 0
12, 47568, Note_on_c, 10, 59, 100
12, 47616, Note_off_c, 10, 59, 0
12, 47664, Note_on_c, 10, 60, 100
12, 47712, Note_off_c, 10, 60, 0
12, 47760, Note_on_c, 10, 60, 100
12, 47808, Note_off_c, 10, 60, 0
12, 47808, Note_on_c, 10, 59, 100
12, 47856, Note_off_c, 10, 59, 0
12, 47856, Note_on_c, 10, 60, 100
12, 47904, Note_off_c, 10, 60, 0
12, 47952, Note_on_c, 10, 60, 100
12, 48000, Note_off_c, 10, 60, 0
12, 48048, Note_on_c, 10, 60, 100
12, 48096, Note_off_c, 10, 60, 0
12, 48144, Note_on_c, 10, 60, 100
12, 48192, Note_off_c, 10, 60, 0
12, 48192, Note_on_c, 10, 59, 100
12, 48240, Note_off_c, 10, 59, 0
12, 48240, Note_on_c, 10, 55, 64
12, 48288, Note_off_c, 10, 55, 0
12, 48288, Note_on_c, 10, 53, 64
12, 48336, Note_off_c, 10, 53, 0
12, 48336, Note_on_c, 10, 59, 100
12, 48384, Note_off_c, 10, 59, 0
12, 48432, Note_on_c, 10, 60, 100
12, 48480, Note_off_c, 10, 60, 0
12, 48528, Note_on_c, 10, 60, 100
12, 48576, Note_off_c, 10, 60, 0
12, 48576, Note_on_c, 10, 59, 100
12, 48624, Note_off_c, 10, 59, 0
12, 48624, Note_on_c, 10, 60, 100
12, 48672, Note_off_c, 10, 60, 0
12, 48720, Note_on_c, 10, 60, 100
12, 48768, Note_off_c, 10, 60, 0
12, 48816, Note_on_c, 10, 60, 100
12, 48864, Note_off_c, 10, 60, 0
12, 48912, Note_on_c, 10, 60, 100
12, 48960, Note_off_c, 10, 60, 0
12, 48960, Note_on_c, 10, 59, 100
12, 49008, Note_off_c, 10, 59, 0
12, 49008, Note_on_c, 10, 60, 100
12, 49056, Note_off_c, 10, 60, 0
12, 49056, Note_on_c, 10, 62, 100
12, 49104, Note_off_c, 10, 62, 0
12, 49104, Note_on_c, 10, 59, 100
12, 49152, Note_off_c, 10, 59, 0
12, 49200, Note_on_c, 10, 60, 100
12, 49248, Note_off_c, 10, 60, 0
12, 49296, Note_on_c, 10, 60, 100
12, 49344, Note_off_c, 10, 60, 0
12, 49344, Note_on_c, 10, 59, 100
12, 49392, Note_off_c, 10, 59, 0
12, 49392, Note_on_c, 10, 60, 100
12, 49440, Note_off_c, 10, 60, 0
12, 49488, Note_on_c, 10, 60, 100
12, 49536, Note_off_c, 10, 60, 0
12, 49584, Note_on_c, 10, 60, 100
12, 49632, Note_off_c, 10, 60, 0
12, 49680, Note_on_c, 10, 60, 100
12, 49728, Note_off_c, 10, 60, 0
12, 49728, Note_on_c, 10, 59, 100
12, 49776, Note_off_c, 10, 59, 0
12, 49776, Note_on_c, 10, 55, 64
12, 49824, Note_off_c, 10, 55, 0
12, 49824, Note_on_c, 10, 53, 64
12, 49872, Note_off_c, 10, 53, 0
12, 49872, Note_on_c, 10, 59, 100
12, 49920, Note_off_c, 10, 59, 0
12, 52992, Note_on_c, 10, 60, 100
12, 53040, Note_off_c, 10, 60, 0
12, 53040, Note_on_c, 10, 55, 100
12, 53064, Note_off_c, 10, 55, 0
12, 53064, Note_on_c, 10, 60, 100
12, 53088, Note_off_c, 10, 60, 0
12, 53088, Note_on_c, 10, 62, 100
12, 53136, Note_off_c, 10, 62, 0
12, 53136, Note_on_c, 10, 60, 100
12, 53160, Note_off_c, 10, 60, 0
12, 53160, Note_on_c, 10, 62, 100
12, 53184, Note_off_c, 10, 62, 0
12, 53184, Note_on_c, 10, 63, 100
12, 53232, Note_off_c, 10, 63, 0
12, 53232, Note_on_c, 10, 62, 100
12, 53256, Note_off_c, 10, 62, 0
12, 53256, Note_on_c, 10, 63, 100
12, 53280, Note_off_c, 10, 63, 0
12, 53280, Note_on_c, 10, 65, 100
12, 53328, Note_off_c, 10, 65, 0
12, 53328, Note_on_c, 10, 63, 100
12, 53352, Note_off_c, 10, 63, 0
12, 53352, Note_on_c, 10, 65, 100
12, 53376, Note_off_c, 10, 65, 0
12, 53376, Note_on_c, 10, 67, 100
12, 53424, Note_off_c, 10, 67, 0
12, 53424, Note_on_c, 10, 65, 100
12, 53448, Note_off_c, 10, 65, 0
12, 53448, Note_on_c, 10, 67, 100
12, 53472, Note_off_c, 10, 67, 0
12, 53472, Note_on_c, 10, 68, 100
12, 53520, Note_off_c, 10, 68, 0
12, 53520, Note_on_c, 10, 67, 100
12, 53544, Note_off_c, 10, 67, 0
12, 53544, Note_on_c, 10, 68, 100
12, 53568, Note_off_c, 10, 68, 0
12, 53568, Note_on_c, 10, 67, 100
12, 53616, Note_off_c, 10, 67, 0
12, 53616, Note_on_c, 10, 65, 100
12, 53640, Note_off_c, 10, 65, 0
12, 53640, Note_on_c, 10, 67, 100
12, 53664, Note_off_c, 10, 67, 0
12, 53664, Note_on_c, 10, 65, 100
12, 53712, Note_off_c, 10, 65, 0
12, 53712, Note_on_c, 10, 63, 100
12, 53736, Note_off_c, 10, 63, 0
12, 53736, Note_on_c, 10, 62, 100
12, 53760, Note_off_c, 10, 62, 0
12, 53760, Note_on_c, 10, 60, 100
12, 53808, Note_off_c, 10, 60, 0
12, 53808, Note_on_c, 10, 55, 100
12, 53832, Note_off_c, 10, 55, 0
12, 53832, Note_on_c, 10, 60, 100
12, 53856, Note_off_c, 10, 60, 0
12, 53856, Note_on_c, 10, 62, 100
12, 53904, Note_off_c, 10, 62, 0
12, 53904, Note_on_c, 10, 60, 100
12, 53928, Note_off_c, 10, 60, 0
12, 53928, Note_on_c, 10, 62, 100
12, 53952, Note_off_c, 10, 62, 0
12, 53952, Note_on_c, 10, 63, 100
12, 54000, Note_off_c, 10, 63, 0
12, 54000, Note_on_c, 10, 62, 100
12, 54024, Note_off_c, 10, 62, 0
12, 54024, Note_on_c, 10, 63, 100
12, 54048, Note_off_c, 10, 63, 0
12, 54048, Note_on_c, 10, 65, 100
12, 54096, Note_off_c, 10, 65, 0
12, 54096, Note_on_c, 10, 63, 100
12, 54120, Note_off_c, 10, 63, 0
12, 54120, Note_on_c, 10, 65, 100
12, 54144, Note_off_c, 10, 65, 0
12, 54144, Note_on_c, 10, 67, 100
12, 54192, Note_off_c, 10, 67, 0
12, 54192, Note_on_c, 10, 65, 100
12, 54216, Note_off_c, 10, 65, 0
12, 54216, Note_on_c, 10, 67, 100
12, 54240, Note_off_c, 10, 67, 0
12, 54240, Note_on_c, 10, 68, 100
12, 54288, Note_off_c, 10, 68, 0
12, 54288, Note_on_c, 10, 67, 100
12, 54312, Note_off_c, 10, 67, 0
12, 54312, Note_on_c, 10, 68, 100
12, 54336, Note_off_c, 10, 68, 0
12, 54336, Note_on_c, 10, 67, 100
12, 54384, Note_off_c, 10, 67, 0
12, 54384, Note_on_c, 10, 65, 100
12, 54408, Note_off_c, 10, 65, 0
12, 54408, Note_on_c, 10, 67, 100
12, 54432, Note_off_c, 10, 67, 0
12, 54432, Note_on_c, 10, 65, 100
12, 54480, Note_off_c, 10, 65, 0
12, 54480, Note_on_c, 10, 63, 100
12, 54504, Note_off_c, 10, 63, 0
12, 54504, Note_on_c, 10, 62, 100
12, 54528, Note_off_c, 10, 62, 0
12, 54528, Note_on_c, 10, 60, 100
12, 54576, Note_off_c, 10, 60, 0
12, 54576, Note_on_c, 10, 55, 100
12, 54600, Note_off_c, 10, 55, 0
12, 54600, Note_on_c, 10, 60, 100
12, 54624, Note_off_c, 10, 60, 0
12, 54624, Note_on_c, 10, 62, 100
12, 54672, Note_off_c, 10, 62, 0
12, 54672, Note_on_c, 10, 60, 100
12, 54696, Note_off_c, 10, 60, 0
12, 54696, Note_on_c, 10, 62, 100
12, 54720, Note_off_c, 10, 62, 0
12, 54720, Note_on_c, 10, 63, 100
12, 54768, Note_off_c, 10, 63, 0
12, 54768, Note_on_c, 10, 62, 100
12, 54792, Note_off_c, 10, 62, 0
12, 54792, Note_on_c, 10, 63, 100
12, 54816, Note_off_c, 10, 63, 0
12, 54816, Note_on_c, 10, 65, 100
12, 54864, Note_off_c, 10, 65, 0
12, 54864, Note_on_c, 10, 63, 100
12, 54888, Note_off_c, 10, 63, 0
12, 54888, Note_on_c, 10, 65, 100
12, 54912, Note_off_c, 10, 65, 0
12, 54912, Note_on_c, 10, 67, 100
12, 54960, Note_off_c, 10, 67, 0
12, 54960, Note_on_c, 10, 65, 100
12, 54984, Note_off_c, 10, 65, 0
12, 54984, Note_on_c, 10, 67, 100
12, 55008, Note_off_c, 10, 67, 0
12, 55008, Note_on_c, 10, 68, 100
12, 55056, Note_off_c, 10, 68, 0
12, 55056, Note_on_c, 10, 67, 100
12, 55080, Note_off_c, 10, 67, 0
12, 55080, Note_on_c, 10, 68, 100
12, 55104, Note_off_c, 10, 68, 0
12, 55104, Note_on_c, 10, 67, 100
12, 55152, Note_off_c, 10, 67, 0
12, 55152, Note_on_c, 10, 65, 100
12, 55176, Note_off_c, 10, 65, 0
12, 55176, Note_on_c, 10, 67, 100
12, 55200, Note_off_c, 10, 67, 0
12, 55200, Note_on_c, 10, 65, 100
12, 55248, Note_off_c, 10, 65, 0
12, 55248, Note_on_c, 10, 63, 100
12, 55272, Note_off_c, 10, 63, 0
12, 55272, Note_on_c, 10, 62, 100
12, 55296, Note_off_c, 10, 62, 0
12, 55296, Note_on_c, 10, 60, 100
12, 55328, Note_off_c, 10, 60, 0
12, 55328, Note_on_c, 10, 55, 100
12, 55360, Note_off_c, 10, 55, 0
12, 55360, Note_on_c, 10, 60, 100
12, 55392, Note_off_c, 10, 60, 0
12, 55392, Note_on_c, 10, 62, 100
12, 55424, Note_off_c, 10, 62, 0
12, 55424, Note_on_c, 10, 60, 100
12, 55456, Note_off_c, 10, 60, 0
12, 55456, Note_on_c, 10, 62, 100
12, 55488, Note_off_c, 10, 62, 0
12, 55488, Note_on_c, 10, 63, 100
12, 55520, Note_off_c, 10, 63, 0
12, 55520, Note_on_c, 10, 62, 100
12, 55552, Note_off_c, 10, 62, 0
12, 55552, Note_on_c, 10, 63, 100
12, 55584, Note_off_c, 10, 63, 0
12, 55584, Note_on_c, 10, 65, 100
12, 55616, Note_off_c, 10, 65, 0
12, 55616, Note_on_c, 10, 63, 100
12, 55648, Note_off_c, 10, 63, 0
12, 55648, Note_on_c, 10, 65, 100
12, 55680, Note_off_c, 10, 65, 0
12, 55680, Note_on_c, 10, 67, 100
12, 55872, Note_off_c, 10, 67, 0
12, 55872, Note_on_c, 10, 79, 100
12, 56064, Note_off_c, 10, 79, 0
12, 62976, Control_c, 10, 10, 64
12, 62976, Control_c, 10, 7, 127
12, 62976, Pitch_bend_c, 10, 8192
12, 62976, Program_c, 10, 29
12, 62976, End_track
13, 0, Start_track
13, 0, Control_c, 11, 0, 0
13, 0, Control_c, 11, 32, 0
13, 0, Program_c, 11, 48
13, 0, Title_t, "Staccato Strings"
13, 0, Control_c, 11, 7, 127
13, 0, Control_c, 11, 10, 64
13, 0, Control_c, 11, 7, 100
13, 0, Pitch_bend_c, 11, 8192
13, 0, Control_c, 11, 10, 64
13, 0, Control_c, 11, 7, 100
13, 0, Pitch_bend_c, 11, 8192
13, 0, Control_c, 11, 10, 64
13, 0, Control_c, 11, 7, 100
13, 0, Pitch_bend_c, 11, 8192
13, 0, Program_c, 11, 48
13, 0, Control_c, 11, 10, 64
13, 0, Control_c, 11, 7, 100
13, 0, Pitch_bend_c, 11, 8192
13, 0, Program_c, 11, 48
13, 16128, Note_on_c, 11, 60, 100
13, 16128, Note_on_c, 11, 72, 100
13, 16176, Note_off_c, 11, 72, 0
13, 16176, Note_off_c, 11, 60, 0
13, 16176, Note_on_c, 11, 55, 100
13, 16176, Note_on_c, 11, 67, 100
13, 16224, Note_off_c, 11, 67, 0
13, 16224, Note_off_c, 11, 55, 0
13, 16224, Note_on_c, 11, 72, 100
13, 16224, Note_on_c, 11, 60, 100
13, 16272, Note_off_c, 11, 60, 0
13, 16272, Note_off_c, 11, 72, 0
13, 16272, Note_on_c, 11, 75, 100
13, 16272, Note_on_c, 11, 63, 100
13, 16320, Note_off_c, 11, 63, 0
13, 16320, Note_off_c, 11, 75, 0
13, 16320, Note_on_c, 11, 65, 100
13, 16320, Note_on_c, 11, 77, 100
13, 16368, Note_off_c, 11, 77, 0
13, 16368, Note_off_c, 11, 65, 0
13, 16368, Note_on_c, 11, 66, 100
13, 16368, Note_on_c, 11, 78, 100
13, 16416, Note_off_c, 11, 78, 0
13, 16416, Note_off_c, 11, 66, 0
13, 16416, Note_on_c, 11, 77, 100
13, 16416, Note_on_c, 11, 65, 100
13, 16464, Note_off_c, 11, 65, 0
13, 16464, Note_off_c, 11, 77, 0
13, 16464, Note_on_c, 11, 75, 100
13, 16464, Note_on_c, 11, 63, 100
13, 16512, Note_off_c, 11, 63, 0
13, 16512, Note_off_c, 11, 75, 0
13, 16512, Note_on_c, 11, 60, 100
13, 16512, Note_on_c, 11, 72, 100
13, 16560, Note_off_c, 11, 72, 0
13, 16560, Note_off_c, 11, 60, 0
13, 16560, Note_on_c, 11, 67, 100
13, 16560, Note_on_c, 11, 55, 100
13, 16608, Note_off_c, 11, 55, 0
13, 16608, Note_off_c, 11, 67, 0
13, 16608, Note_on_c, 11, 72, 100
13, 16608, Note_on_c, 11, 60, 100
13, 16656, Note_off_c, 11, 60, 0
13, 16656, Note_off_c, 11, 72, 0
13, 16656, Note_on_c, 11, 63, 100
13, 16656, Note_on_c, 11, 75, 100
13, 16704, Note_off_c, 11, 75, 0
13, 16704, Note_off_c, 11, 63, 0
13, 16704, Note_on_c, 11, 77, 100
13, 16704, Note_on_c, 11, 65, 100
13, 16752, Note_off_c, 11, 65, 0
13, 16752, Note_off_c, 11, 77, 0
13, 16752, Note_on_c, 11, 78, 100
13, 16752, Note_on_c, 11, 66, 100
13, 16800, Note_off_c, 11, 66, 0
13, 16800, Note_off_c, 11, 78, 0
13, 16800, Note_on_c, 11, 65, 100
13, 16800, Note_on_c, 11, 77, 100
13, 16848, Note_off_c, 11, 77, 0
13, 16848, Note_off_c, 11, 65, 0
13, 16848, Note_on_c, 11, 63, 100
13, 16848, Note_on_c, 11, 75, 100
13, 16896, Note_off_c, 11, 75, 0
13, 16896, Note_off_c, 11, 63, 0
13, 16896, Note_on_c, 11, 72, 100
13, 16896, Note_on_c, 11, 60, 100
13, 16944, Note_off_c, 11, 60, 0
13, 16944, Note_off_c, 11, 72, 0
13, 16944, Note_on_c, 11, 67, 100
13, 16944, Note_on_c, 11, 55, 100
13, 16992, Note_off_c, 11, 55, 0
13, 16992, Note_off_c, 11, 67, 0
13, 16992, Note_on_c, 11, 60, 100
13, 16992, Note_on_c, 11, 72, 100
13, 17040, Note_off_c, 11, 72, 0
13, 17040, Note_off_c, 11, 60, 0
13, 17040, Note_on_c, 11, 63, 100
13, 17040, Note_on_c, 11, 75, 100
13, 17088, Note_off_c, 11, 75, 0
13, 17088, Note_off_c, 11, 63, 0
13, 17088, Note_on_c, 11, 65, 100
13, 17088, Note_on_c, 11, 77, 100
13, 17136, Note_off_c, 11, 77, 0
13, 17136, Note_off_c, 11, 65, 0
13, 17136, Note_on_c, 11, 78, 100
13, 17136, Note_on_c, 11, 66, 100
13, 17184, Note_off_c, 11, 66, 0
13, 17184, Note_off_c, 11, 78, 0
13, 17184, Note_on_c, 11, 77, 100
13, 17184, Note_on_c, 11, 65, 100
13, 17232, Note_off_c, 11, 65, 0
13, 17232, Note_off_c, 11, 77, 0
13, 17232, Note_on_c, 11, 63, 100
13, 17232, Note_on_c, 11, 75, 100
13, 17280, Note_off_c, 11, 75, 0
13, 17280, Note_off_c, 11, 63, 0
13, 17280, Note_on_c, 11, 60, 100
13, 17280, Note_on_c, 11, 72, 100
13, 17328, Note_off_c, 11, 72, 0
13, 17328, Note_off_c, 11, 60, 0
13, 17328, Note_on_c, 11, 67, 100
13, 17328, Note_on_c, 11, 55, 100
13, 17376, Note_off_c, 11, 55, 0
13, 17376, Note_off_c, 11, 67, 0
13, 17376, Note_on_c, 11, 60, 100
13, 17376, Note_on_c, 11, 72, 100
13, 17424, Note_off_c, 11, 72, 0
13, 17424, Note_off_c, 11, 60, 0
13, 17424, Note_on_c, 11, 63, 100
13, 17424, Note_on_c, 11, 75, 100
13, 17472, Note_off_c, 11, 75, 0
13, 17472, Note_off_c, 11, 63, 0
13, 17472, Note_on_c, 11, 65, 100
13, 17472, Note_on_c, 11, 77, 100
13, 17520, Note_off_c, 11, 77, 0
13, 17520, Note_off_c, 11, 65, 0
13, 17520, Note_on_c, 11, 74, 100
13, 17520, Note_on_c, 11, 62, 100
13, 17568, Note_off_c, 11, 62, 0
13, 17568, Note_off_c, 11, 74, 0
13, 17568, Note_on_c, 11, 63, 100
13, 17568, Note_on_c, 11, 75, 100
13, 17616, Note_off_c, 11, 75, 0
13, 17616, Note_off_c, 11, 63, 0
13, 17616, Note_on_c, 11, 62, 100
13, 17616, Note_on_c, 11, 74, 100
13, 17664, Note_off_c, 11, 74, 0
13, 17664, Note_off_c, 11, 62, 0
13, 17664, Note_on_c, 11, 60, 100
13, 17664, Note_on_c, 11, 72, 100
13, 17712, Note_off_c, 11, 72, 0
13, 17712, Note_off_c, 11, 60, 0
13, 17712, Note_on_c, 11, 55, 100
13, 17712, Note_on_c, 11, 67, 100
13, 17760, Note_off_c, 11, 67, 0
13, 17760, Note_off_c, 11, 55, 0
13, 17760, Note_on_c, 11, 72, 100
13, 17760, Note_on_c, 11, 60, 100
13, 17808, Note_off_c, 11, 60, 0
13, 17808, Note_off_c, 11, 72, 0
13, 17808, Note_on_c, 11, 75, 100
13, 17808, Note_on_c, 11, 63, 100
13, 17856, Note_off_c, 11, 63, 0
13, 17856, Note_off_c, 11, 75, 0
13, 17856, Note_on_c, 11, 65, 100
13, 17856, Note_on_c, 11, 77, 100
13, 17904, Note_off_c, 11, 77, 0
13, 17904, Note_off_c, 11, 65, 0
13, 17904, Note_on_c, 11, 66, 100
13, 17904, Note_on_c, 11, 78, 100
13, 17952, Note_off_c, 11, 78, 0
13, 17952, Note_off_c, 11, 66, 0
13, 17952, Note_on_c, 11, 77, 100
13, 17952, Note_on_c, 11, 65, 100
13, 18000, Note_off_c, 11, 65, 0
13, 18000, Note_off_c, 11, 77, 0
13, 18000, Note_on_c, 11, 75, 100
13, 18000, Note_on_c, 11, 63, 100
13, 18048, Note_off_c, 11, 63, 0
13, 18048, Note_off_c, 11, 75, 0
13, 18048, Note_on_c, 11, 60, 100
13, 18048, Note_on_c, 11, 72, 100
13, 18096, Note_off_c, 11, 72, 0
13, 18096, Note_off_c, 11, 60, 0
13, 18096, Note_on_c, 11, 67, 100
13, 18096, Note_on_c, 11, 55, 100
13, 18144, Note_off_c, 11, 55, 0
13, 18144, Note_off_c, 11, 67, 0
13, 18144, Note_on_c, 11, 72, 100
13, 18144, Note_on_c, 11, 60, 100
13, 18192, Note_off_c, 11, 60, 0
13, 18192, Note_off_c, 11, 72, 0
13, 18192, Note_on_c, 11, 63, 100
13, 18192, Note_on_c, 11, 75, 100
13, 18240, Note_off_c, 11, 75, 0
13, 18240, Note_off_c, 11, 63, 0
13, 18240, Note_on_c, 11, 77, 100
13, 18240, Note_on_c, 11, 65, 100
13, 18288, Note_off_c, 11, 65, 0
13, 18288, Note_off_c, 11, 77, 0
13, 18288, Note_on_c, 11, 78, 100
13, 18288, Note_on_c, 11, 66, 100
13, 18336, Note_off_c, 11, 66, 0
13, 18336, Note_off_c, 11, 78, 0
13, 18336, Note_on_c, 11, 65, 100
13, 18336, Note_on_c, 11, 77, 100
13, 18384, Note_off_c, 11, 77, 0
13, 18384, Note_off_c, 11, 65, 0
13, 18384, Note_on_c, 11, 63, 100
13, 18384, Note_on_c, 11, 75, 100
13, 18432, Note_off_c, 11, 75, 0
13, 18432, Note_off_c, 11, 63, 0
13, 18432, Note_on_c, 11, 72, 100
13, 18432, Note_on_c, 11, 60, 100
13, 18480, Note_off_c, 11, 60, 0
13, 18480, Note_off_c, 11, 72, 0
13, 18480, Note_on_c, 11, 67, 100
13, 18480, Note_on_c, 11, 55, 100
13, 18528, Note_off_c, 11, 55, 0
13, 18528, Note_off_c, 11, 67, 0
13, 18528, Note_on_c, 11, 60, 100
13, 18528, Note_on_c, 11, 72, 100
13, 18576, Note_off_c, 11, 72, 0
13, 18576, Note_off_c, 11, 60, 0
13, 18576, Note_on_c, 11, 63, 100
13, 18576, Note_on_c, 11, 75, 100
13, 18624, Note_off_c, 11, 75, 0
13, 18624, Note_off_c, 11, 63, 0
13, 18624, Note_on_c, 11, 65, 100
13, 18624, Note_on_c, 11, 77, 100
13, 18672, Note_off_c, 11, 77, 0
13, 18672, Note_off_c, 11, 65, 0
13, 18672, Note_on_c, 11, 78, 100
13, 18672, Note_on_c, 11, 66, 100
13, 18720, Note_off_c, 11, 66, 0
13, 18720, Note_off_c, 11, 78, 0
13, 18720, Note_on_c, 11, 77, 100
13, 18720, Note_on_c, 11, 65, 100
13, 18768, Note_off_c, 11, 65, 0
13, 18768, Note_off_c, 11, 77, 0
13, 18768, Note_on_c, 11, 63, 100
13, 18768, Note_on_c, 11, 75, 100
13, 18816, Note_off_c, 11, 75, 0
13, 18816, Note_off_c, 11, 63, 0
13, 18816, Note_on_c, 11, 60, 100
13, 18816, Note_on_c, 11, 72, 100
13, 18864, Note_off_c, 11, 72, 0
13, 18864, Note_off_c, 11, 60, 0
13, 18864, Note_on_c, 11, 67, 100
13, 18864, Note_on_c, 11, 55, 100
13, 18912, Note_off_c, 11, 55, 0
13, 18912, Note_off_c, 11, 67, 0
13, 18912, Note_on_c, 11, 60, 100
13, 18912, Note_on_c, 11, 72, 100
13, 18960, Note_off_c, 11, 72, 0
13, 18960, Note_off_c, 11, 60, 0
13, 18960, Note_on_c, 11, 63, 100
13, 18960, Note_on_c, 11, 75, 100
13, 19008, Note_off_c, 11, 75, 0
13, 19008, Note_off_c, 11, 63, 0
13, 19008, Note_on_c, 11, 65, 100
13, 19008, Note_on_c, 11, 77, 100
13, 19056, Note_off_c, 11, 77, 0
13, 19056, Note_off_c, 11, 65, 0
13, 19056, Note_on_c, 11, 74, 100
13, 19056, Note_on_c, 11, 62, 100
13, 19104, Note_off_c, 11, 62, 0
13, 19104, Note_off_c, 11, 74, 0
13, 19104, Note_on_c, 11, 63, 100
13, 19104, Note_on_c, 11, 75, 100
13, 19152, Note_off_c, 11, 75, 0
13, 19152, Note_off_c, 11, 63, 0
13, 19152, Note_on_c, 11, 62, 100
13, 19152, Note_on_c, 11, 74, 100
13, 19200, Note_off_c, 11, 74, 0
13, 19200, Note_off_c, 11, 62, 0
13, 19200, Note_on_c, 11, 79, 100
13, 19200, Note_on_c, 11, 67, 100
13, 19200, Note_on_c, 11, 96, 100
13, 19224, Note_off_c, 11, 96, 0
13, 19224, Note_on_c, 11, 91, 100
13, 19248, Note_off_c, 11, 67, 0
13, 19248, Note_off_c, 11, 91, 0
13, 19248, Note_off_c, 11, 79, 0
13, 19248, Note_on_c, 11, 60, 100
13, 19248, Note_on_c, 11, 72, 100
13, 19248, Note_on_c, 11, 87, 100
13, 19272, Note_off_c, 11, 87, 0
13, 19272, Note_on_c, 11, 84, 100
13, 19296, Note_off_c, 11, 72, 0
13, 19296, Note_off_c, 11, 84, 0
13, 19296, Note_off_c, 11, 60, 0
13, 19296, Note_on_c, 11, 63, 100
13, 19296, Note_on_c, 11, 75, 100
13, 19344, Note_off_c, 11, 75, 0
13, 19344, Note_off_c, 11, 63, 0
13, 19344, Note_on_c, 11, 60, 100
13, 19344, Note_on_c, 11, 72, 100
13, 19392, Note_off_c, 11, 72, 0
13, 19392, Note_off_c, 11, 60, 0
13, 19392, Note_on_c, 11, 67, 100
13, 19392, Note_on_c, 11, 79, 100
13, 19440, Note_off_c, 11, 79, 0
13, 19440, Note_off_c, 11, 67, 0
13, 19440, Note_on_c, 11, 60, 100
13, 19440, Note_on_c, 11, 72, 100
13, 19488, Note_off_c, 11, 72, 0
13, 19488, Note_off_c, 11, 60, 0
13, 19488, Note_on_c, 11, 63, 100
13, 19488, Note_on_c, 11, 75, 100
13, 19536, Note_off_c, 11, 75, 0
13, 19536, Note_off_c, 11, 63, 0
13, 19536, Note_on_c, 11, 60, 100
13, 19536, Note_on_c, 11, 72, 100
13, 19584, Note_off_c, 11, 72, 0
13, 19584, Note_off_c, 11, 60, 0
13, 19584, Note_on_c, 11, 67, 100
13, 19584, Note_on_c, 11, 79, 100
13, 19584, Note_on_c, 11, 95, 100
13, 19608, Note_off_c, 11, 95, 0
13, 19608, Note_on_c, 11, 91, 100
13, 19632, Note_off_c, 11, 79, 0
13, 19632, Note_off_c, 11, 91, 0
13, 19632, Note_off_c, 11, 67, 0
13, 19632, Note_on_c, 11, 59, 100
13, 19632, Note_on_c, 11, 71, 100
13, 19632, Note_on_c, 11, 86, 100
13, 19656, Note_off_c, 11, 86, 0
13, 19656, Note_on_c, 11, 83, 100
13, 19680, Note_off_c, 11, 71, 0
13, 19680, Note_off_c, 11, 83, 0
13, 19680, Note_off_c, 11, 59, 0
13, 19680, Note_on_c, 11, 62, 100
13, 19680, Note_on_c, 11, 74, 100
13, 19728, Note_off_c, 11, 74, 0
13, 19728, Note_off_c, 11, 62, 0
13, 19728, Note_on_c, 11, 59, 100
13, 19728, Note_on_c, 11, 71, 100
13, 19776, Note_off_c, 11, 71, 0
13, 19776, Note_off_c, 11, 59, 0
13, 19776, Note_on_c, 11, 67, 100
13, 19776, Note_on_c, 11, 79, 100
13, 19824, Note_off_c, 11, 79, 0
13, 19824, Note_off_c, 11, 67, 0
13, 19824, Note_on_c, 11, 59, 100
13, 19824, Note_on_c, 11, 71, 100
13, 19872, Note_off_c, 11, 71, 0
13, 19872, Note_off_c, 11, 59, 0
13, 19872, Note_on_c, 11, 62, 100
13, 19872, Note_on_c, 11, 74, 100
13, 19920, Note_off_c, 11, 74, 0
13, 19920, Note_off_c, 11, 62, 0
13, 19920, Note_on_c, 11, 59, 100
13, 19920, Note_on_c, 11, 71, 100
13, 19968, Note_off_c, 11, 71, 0
13, 19968, Note_off_c, 11, 59, 0
13, 19968, Note_on_c, 11, 92, 100
13, 19968, Note_on_c, 11, 63, 100
13, 19968, Note_on_c, 11, 75, 100
13, 19992, Note_off_c, 11, 92, 0
13, 19992, Note_on_c, 11, 87, 100
13, 20016, Note_off_c, 11, 75, 0
13, 20016, Note_off_c, 11, 87, 0
13, 20016, Note_off_c, 11, 63, 0
13, 20016, Note_on_c, 11, 84, 100
13, 20016, Note_on_c, 11, 68, 100
13, 20016, Note_on_c, 11, 56, 100
13, 20040, Note_off_c, 11, 84, 0
13, 20040, Note_on_c, 11, 80, 100
13, 20064, Note_off_c, 11, 56, 0
13, 20064, Note_off_c, 11, 80, 0
13, 20064, Note_off_c, 11, 68, 0
13, 20064, Note_on_c, 11, 72, 100
13, 20064, Note_on_c, 11, 60, 100
13, 20112, Note_off_c, 11, 60, 0
13, 20112, Note_off_c, 11, 72, 0
13, 20112, Note_on_c, 11, 68, 100
13, 20112, Note_on_c, 11, 56, 100
13, 20160, Note_off_c, 11, 56, 0
13, 20160, Note_off_c, 11, 68, 0
13, 20160, Note_on_c, 11, 75, 100
13, 20160, Note_on_c, 11, 63, 100
13, 20208, Note_off_c, 11, 63, 0
13, 20208, Note_off_c, 11, 75, 0
13, 20208, Note_on_c, 11, 68, 100
13, 20208, Note_on_c, 11, 56, 100
13, 20256, Note_off_c, 11, 56, 0
13, 20256, Note_off_c, 11, 68, 0
13, 20256, Note_on_c, 11, 72, 100
13, 20256, Note_on_c, 11, 60, 100
13, 20304, Note_off_c, 11, 60, 0
13, 20304, Note_off_c, 11, 72, 0
13, 20304, Note_on_c, 11, 68, 100
13, 20304, Note_on_c, 11, 56, 100
13, 20352, Note_off_c, 11, 56, 0
13, 20352, Note_off_c, 11, 68, 0
13, 20352, Note_on_c, 11, 91, 100
13, 20352, Note_on_c, 11, 74, 100
13, 20352, Note_on_c, 11, 62, 100
13, 20376, Note_off_c, 11, 91, 0
13, 20376, Note_on_c, 11, 86, 100
13, 20400, Note_off_c, 11, 62, 0
13, 20400, Note_off_c, 11, 86, 0
13, 20400, Note_off_c, 11, 74, 0
13, 20400, Note_on_c, 11, 83, 100
13, 20400, Note_on_c, 11, 67, 100
13, 20400, Note_on_c, 11, 55, 100
13, 20424, Note_off_c, 11, 83, 0
13, 20424, Note_on_c, 11, 79, 100
13, 20448, Note_off_c, 11, 55, 0
13, 20448, Note_off_c, 11, 79, 0
13, 20448, Note_off_c, 11, 67, 0
13, 20448, Note_on_c, 11, 59, 100
13, 20448, Note_on_c, 11, 71, 100
13, 20496, Note_off_c, 11, 71, 0
13, 20496, Note_off_c, 11, 59, 0
13, 20496, Note_on_c, 11, 67, 100
13, 20496, Note_on_c, 11, 55, 100
13, 20544, Note_off_c, 11, 55, 0
13, 20544, Note_off_c, 11, 67, 0
13, 20544, Note_on_c, 11, 74, 100
13, 20544, Note_on_c, 11, 62, 100
13, 20592, Note_off_c, 11, 62, 0
13, 20592, Note_off_c, 11, 74, 0
13, 20592, Note_on_c, 11, 67, 100
13, 20592, Note_on_c, 11, 55, 100
13, 20640, Note_off_c, 11, 55, 0
13, 20640, Note_off_c, 11, 67, 0
13, 20640, Note_on_c, 11, 71, 100
13, 20640, Note_on_c, 11, 59, 100
13, 20688, Note_off_c, 11, 59, 0
13, 20688, Note_off_c, 11, 71, 0
13, 20688, Note_on_c, 11, 67, 100
13, 20688, Note_on_c, 11, 55, 100
13, 20736, Note_off_c, 11, 55, 0
13, 20736, Note_off_c, 11, 67, 0
13, 20736, Note_on_c, 11, 79, 100
13, 20736, Note_on_c, 11, 67, 100
13, 20736, Note_on_c, 11, 96, 100
13, 20760, Note_off_c, 11, 96, 0
13, 20760, Note_on_c, 11, 91, 100
13, 20784, Note_off_c, 11, 67, 0
13, 20784, Note_off_c, 11, 91, 0
13, 20784, Note_off_c, 11, 79, 0
13, 20784, Note_on_c, 11, 60, 100
13, 20784, Note_on_c, 11, 72, 100
13, 20784, Note_on_c, 11, 87, 100
13, 20808, Note_off_c, 11, 87, 0
13, 20808, Note_on_c, 11, 84, 100
13, 20832, Note_off_c, 11, 72, 0
13, 20832, Note_off_c, 11, 84, 0
13, 20832, Note_off_c, 11, 60, 0
13, 20832, Note_on_c, 11, 63, 100
13, 20832, Note_on_c, 11, 75, 100
13, 20880, Note_off_c, 11, 75, 0
13, 20880, Note_off_c, 11, 63, 0
13, 20880, Note_on_c, 11, 60, 100
13, 20880, Note_on_c, 11, 72, 100
13, 20928, Note_off_c, 11, 72, 0
13, 20928, Note_off_c, 11, 60, 0
13, 20928, Note_on_c, 11, 67, 100
13, 20928, Note_on_c, 11, 79, 100
13, 20976, Note_off_c, 11, 79, 0
13, 20976, Note_off_c, 11, 67, 0
13, 20976, Note_on_c, 11, 60, 100
13, 20976, Note_on_c, 11, 72, 100
13, 21024, Note_off_c, 11, 72, 0
13, 21024, Note_off_c, 11, 60, 0
13, 21024, Note_on_c, 11, 63, 100
13, 21024, Note_on_c, 11, 75, 100
13, 21072, Note_off_c, 11, 75, 0
13, 21072, Note_off_c, 11, 63, 0
13, 21072, Note_on_c, 11, 60, 100
13, 21072, Note_on_c, 11, 72, 100
13, 21120, Note_off_c, 11, 72, 0
13, 21120, Note_off_c, 11, 60, 0
13, 21120, Note_on_c, 11, 67, 100
13, 21120, Note_on_c, 11, 79, 100
13, 21120, Note_on_c, 11, 95, 100
13, 21144, Note_off_c, 11, 95, 0
13, 21144, Note_on_c, 11, 91, 100
13, 21168, Note_off_c, 11, 79, 0
13, 21168, Note_off_c, 11, 91, 0
13, 21168, Note_off_c, 11, 67, 0
13, 21168, Note_on_c, 11, 59, 100
13, 21168, Note_on_c, 11, 71, 100
13, 21168, Note_on_c, 11, 86, 100
13, 21192, Note_off_c, 11, 86, 0
13, 21192, Note_on_c, 11, 83, 100
13, 21216, Note_off_c, 11, 71, 0
13, 21216, Note_off_c, 11, 83, 0
13, 21216, Note_off_c, 11, 59, 0
13, 21216, Note_on_c, 11, 62, 100
13, 21216, Note_on_c, 11, 74, 100
13, 21264, Note_off_c, 11, 74, 0
13, 21264, Note_off_c, 11, 62, 0
13, 21264, Note_on_c, 11, 59, 100
13, 21264, Note_on_c, 11, 71, 100
13, 21312, Note_off_c, 11, 71, 0
13, 21312, Note_off_c, 11, 59, 0
13, 21312, Note_on_c, 11, 67, 100
13, 21312, Note_on_c, 11, 79, 100
13, 21360, Note_off_c, 11, 79, 0
13, 21360, Note_off_c, 11, 67, 0
13, 21360, Note_on_c, 11, 59, 100
13, 21360, Note_on_c, 11, 71, 100
13, 21408, Note_off_c, 11, 71, 0
13, 21408, Note_off_c, 11, 59, 0
13, 21408, Note_on_c, 11, 62, 100
13, 21408, Note_on_c, 11, 74, 100
13, 21456, Note_off_c, 11, 74, 0
13, 21456, Note_off_c, 11, 62, 0
13, 21456, Note_on_c, 11, 59, 100
13, 21456, Note_on_c, 11, 71, 100
13, 21504, Note_off_c, 11, 71, 0
13, 21504, Note_off_c, 11, 59, 0
13, 21504, Note_on_c, 11, 92, 100
13, 21504, Note_on_c, 11, 63, 100
13, 21504, Note_on_c, 11, 75, 100
13, 21528, Note_off_c, 11, 92, 0
13, 21528, Note_on_c, 11, 87, 100
13, 21552, Note_off_c, 11, 75, 0
13, 21552, Note_off_c, 11, 87, 0
13, 21552, Note_off_c, 11, 63, 0
13, 21552, Note_on_c, 11, 84, 100
13, 21552, Note_on_c, 11, 68, 100
13, 21552, Note_on_c, 11, 56, 100
13, 21576, Note_off_c, 11, 84, 0
13, 21576, Note_on_c, 11, 80, 100
13, 21600, Note_off_c, 11, 56, 0
13, 21600, Note_off_c, 11, 80, 0
13, 21600, Note_off_c, 11, 68, 0
13, 21600, Note_on_c, 11, 72, 100
13, 21600, Note_on_c, 11, 60, 100
13, 21648, Note_off_c, 11, 60, 0
13, 21648, Note_off_c, 11, 72, 0
13, 21648, Note_on_c, 11, 68, 100
13, 21648, Note_on_c, 11, 56, 100
13, 21696, Note_off_c, 11, 56, 0
13, 21696, Note_off_c, 11, 68, 0
13, 21696, Note_on_c, 11, 75, 100
13, 21696, Note_on_c, 11, 63, 100
13, 21744, Note_off_c, 11, 63, 0
13, 21744, Note_off_c, 11, 75, 0
13, 21744, Note_on_c, 11, 68, 100
13, 21744, Note_on_c, 11, 56, 100
13, 21792, Note_off_c, 11, 56, 0
13, 21792, Note_off_c, 11, 68, 0
13, 21792, Note_on_c, 11, 72, 100
13, 21792, Note_on_c, 11, 60, 100
13, 21840, Note_off_c, 11, 60, 0
13, 21840, Note_off_c, 11, 72, 0
13, 21840, Note_on_c, 11, 68, 100
13, 21840, Note_on_c, 11, 56, 100
13, 21888, Note_off_c, 11, 56, 0
13, 21888, Note_off_c, 11, 68, 0
13, 21888, Note_on_c, 11, 91, 100
13, 21888, Note_on_c, 11, 74, 100
13, 21888, Note_on_c, 11, 62, 100
13, 21912, Note_off_c, 11, 91, 0
13, 21912, Note_on_c, 11, 86, 100
13, 21936, Note_off_c, 11, 62, 0
13, 21936, Note_off_c, 11, 86, 0
13, 21936, Note_off_c, 11, 74, 0
13, 21936, Note_on_c, 11, 83, 100
13, 21936, Note_on_c, 11, 67, 100
13, 21936, Note_on_c, 11, 55, 100
13, 21960, Note_off_c, 11, 83, 0
13, 21960, Note_on_c, 11, 79, 100
13, 21984, Note_off_c, 11, 55, 0
13, 21984, Note_off_c, 11, 79, 0
13, 21984, Note_off_c, 11, 67, 0
13, 21984, Note_on_c, 11, 59, 100
13, 21984, Note_on_c, 11, 71, 100
13, 22032, Note_off_c, 11, 71, 0
13, 22032, Note_off_c, 11, 59, 0
13, 22032, Note_on_c, 11, 67, 100
13, 22032, Note_on_c, 11, 55, 100
13, 22080, Note_off_c, 11, 55, 0
13, 22080, Note_off_c, 11, 67, 0
13, 22080, Note_on_c, 11, 74, 100
13, 22080, Note_on_c, 11, 62, 100
13, 22128, Note_off_c, 11, 62, 0
13, 22128, Note_off_c, 11, 74, 0
13, 22128, Note_on_c, 11, 67, 100
13, 22128, Note_on_c, 11, 55, 100
13, 22176, Note_off_c, 11, 55, 0
13, 22176, Note_off_c, 11, 67, 0
13, 22176, Note_on_c, 11, 71, 100
13, 22176, Note_on_c, 11, 59, 100
13, 22224, Note_off_c, 11, 59, 0
13, 22224, Note_off_c, 11, 71, 0
13, 22224, Note_on_c, 11, 67, 100
13, 22224, Note_on_c, 11, 55, 100
13, 22272, Note_off_c, 11, 55, 0
13, 22272, Note_off_c, 11, 67, 0
13, 22272, Note_on_c, 11, 79, 100
13, 22272, Note_on_c, 11, 67, 100
13, 22272, Note_on_c, 11, 96, 100
13, 22296, Note_off_c, 11, 96, 0
13, 22296, Note_on_c, 11, 91, 100
13, 22320, Note_off_c, 11, 67, 0
13, 22320, Note_off_c, 11, 91, 0
13, 22320, Note_off_c, 11, 79, 0
13, 22320, Note_on_c, 11, 60, 100
13, 22320, Note_on_c, 11, 72, 100
13, 22320, Note_on_c, 11, 87, 100
13, 22344, Note_off_c, 11, 87, 0
13, 22344, Note_on_c, 11, 84, 100
13, 22368, Note_off_c, 11, 72, 0
13, 22368, Note_off_c, 11, 84, 0
13, 22368, Note_off_c, 11, 60, 0
13, 22368, Note_on_c, 11, 63, 100
13, 22368, Note_on_c, 11, 75, 100
13, 22416, Note_off_c, 11, 75, 0
13, 22416, Note_off_c, 11, 63, 0
13, 22416, Note_on_c, 11, 60, 100
13, 22416, Note_on_c, 11, 72, 100
13, 22464, Note_off_c, 11, 72, 0
13, 22464, Note_off_c, 11, 60, 0
13, 22464, Note_on_c, 11, 67, 100
13, 22464, Note_on_c, 11, 79, 100
13, 22512, Note_off_c, 11, 79, 0
13, 22512, Note_off_c, 11, 67, 0
13, 22512, Note_on_c, 11, 60, 100
13, 22512, Note_on_c, 11, 72, 100
13, 22560, Note_off_c, 11, 72, 0
13, 22560, Note_off_c, 11, 60, 0
13, 22560, Note_on_c, 11, 63, 100
13, 22560, Note_on_c, 11, 75, 100
13, 22608, Note_off_c, 11, 75, 0
13, 22608, Note_off_c, 11, 63, 0
13, 22608, Note_on_c, 11, 60, 100
13, 22608, Note_on_c, 11, 72, 100
13, 22656, Note_off_c, 11, 72, 0
13, 22656, Note_off_c, 11, 60, 0
13, 22656, Note_on_c, 11, 67, 100
13, 22656, Note_on_c, 11, 79, 100
13, 22656, Note_on_c, 11, 95, 100
13, 22680, Note_off_c, 11, 95, 0
13, 22680, Note_on_c, 11, 91, 100
13, 22704, Note_off_c, 11, 79, 0
13, 22704, Note_off_c, 11, 91, 0
13, 22704, Note_off_c, 11, 67, 0
13, 22704, Note_on_c, 11, 59, 100
13, 22704, Note_on_c, 11, 71, 100
13, 22704, Note_on_c, 11, 86, 100
13, 22728, Note_off_c, 11, 86, 0
13, 22728, Note_on_c, 11, 83, 100
13, 22752, Note_off_c, 11, 71, 0
13, 22752, Note_off_c, 11, 83, 0
13, 22752, Note_off_c, 11, 59, 0
13, 22752, Note_on_c, 11, 62, 100
13, 22752, Note_on_c, 11, 74, 100
13, 22800, Note_off_c, 11, 74, 0
13, 22800, Note_off_c, 11, 62, 0
13, 22800, Note_on_c, 11, 59, 100
13, 22800, Note_on_c, 11, 71, 100
13, 22848, Note_off_c, 11, 71, 0
13, 22848, Note_off_c, 11, 59, 0
13, 22848, Note_on_c, 11, 67, 100
13, 22848, Note_on_c, 11, 79, 100
13, 22896, Note_off_c, 11, 79, 0
13, 22896, Note_off_c, 11, 67, 0
13, 22896, Note_on_c, 11, 59, 100
13, 22896, Note_on_c, 11, 71, 100
13, 22944, Note_off_c, 11, 71, 0
13, 22944, Note_off_c, 11, 59, 0
13, 22944, Note_on_c, 11, 62, 100
13, 22944, Note_on_c, 11, 74, 100
13, 22992, Note_off_c, 11, 74, 0
13, 22992, Note_off_c, 11, 62, 0
13, 22992, Note_on_c, 11, 59, 100
13, 22992, Note_on_c, 11, 71, 100
13, 23040, Note_off_c, 11, 71, 0
13, 23040, Note_off_c, 11, 59, 0
13, 23040, Note_on_c, 11, 92, 100
13, 23040, Note_on_c, 11, 63, 100
13, 23040, Note_on_c, 11, 75, 100
13, 23064, Note_off_c, 11, 92, 0
13, 23064, Note_on_c, 11, 87, 100
13, 23088, Note_off_c, 11, 75, 0
13, 23088, Note_off_c, 11, 87, 0
13, 23088, Note_off_c, 11, 63, 0
13, 23088, Note_on_c, 11, 84, 100
13, 23088, Note_on_c, 11, 68, 100
13, 23088, Note_on_c, 11, 56, 100
13, 23112, Note_off_c, 11, 84, 0
13, 23112, Note_on_c, 11, 80, 100
13, 23136, Note_off_c, 11, 56, 0
13, 23136, Note_off_c, 11, 80, 0
13, 23136, Note_off_c, 11, 68, 0
13, 23136, Note_on_c, 11, 72, 100
13, 23136, Note_on_c, 11, 60, 100
13, 23184, Note_off_c, 11, 60, 0
13, 23184, Note_off_c, 11, 72, 0
13, 23184, Note_on_c, 11, 68, 100
13, 23184, Note_on_c, 11, 56, 100
13, 23232, Note_off_c, 11, 56, 0
13, 23232, Note_off_c, 11, 68, 0
13, 23232, Note_on_c, 11, 75, 100
13, 23232, Note_on_c, 11, 63, 100
13, 23280, Note_off_c, 11, 63, 0
13, 23280, Note_off_c, 11, 75, 0
13, 23280, Note_on_c, 11, 68, 100
13, 23280, Note_on_c, 11, 56, 100
13, 23328, Note_off_c, 11, 56, 0
13, 23328, Note_off_c, 11, 68, 0
13, 23328, Note_on_c, 11, 72, 100
13, 23328, Note_on_c, 11, 60, 100
13, 23376, Note_off_c, 11, 60, 0
13, 23376, Note_off_c, 11, 72, 0
13, 23376, Note_on_c, 11, 68, 100
13, 23376, Note_on_c, 11, 56, 100
13, 23424, Note_off_c, 11, 56, 0
13, 23424, Note_off_c, 11, 68, 0
13, 23424, Note_on_c, 11, 91, 100
13, 23424, Note_on_c, 11, 74, 100
13, 23424, Note_on_c, 11, 62, 100
13, 23448, Note_off_c, 11, 91, 0
13, 23448, Note_on_c, 11, 86, 100
13, 23472, Note_off_c, 11, 62, 0
13, 23472, Note_off_c, 11, 86, 0
13, 23472, Note_off_c, 11, 74, 0
13, 23472, Note_on_c, 11, 83, 100
13, 23472, Note_on_c, 11, 67, 100
13, 23472, Note_on_c, 11, 55, 100
13, 23496, Note_off_c, 11, 83, 0
13, 23496, Note_on_c, 11, 79, 100
13, 23520, Note_off_c, 11, 55, 0
13, 23520, Note_off_c, 11, 79, 0
13, 23520, Note_off_c, 11, 67, 0
13, 23520, Note_on_c, 11, 59, 100
13, 23520, Note_on_c, 11, 71, 100
13, 23568, Note_off_c, 11, 71, 0
13, 23568, Note_off_c, 11, 59, 0
13, 23568, Note_on_c, 11, 67, 100
13, 23568, Note_on_c, 11, 55, 100
13, 23616, Note_off_c, 11, 55, 0
13, 23616, Note_off_c, 11, 67, 0
13, 23616, Note_on_c, 11, 74, 100
13, 23616, Note_on_c, 11, 62, 100
13, 23664, Note_off_c, 11, 62, 0
13, 23664, Note_off_c, 11, 74, 0
13, 23664, Note_on_c, 11, 67, 100
13, 23664, Note_on_c, 11, 55, 100
13, 23712, Note_off_c, 11, 55, 0
13, 23712, Note_off_c, 11, 67, 0
13, 23712, Note_on_c, 11, 71, 100
13, 23712, Note_on_c, 11, 59, 100
13, 23760, Note_off_c, 11, 59, 0
13, 23760, Note_off_c, 11, 71, 0
13, 23760, Note_on_c, 11, 67, 100
13, 23760, Note_on_c, 11, 55, 100
13, 23808, Note_off_c, 11, 55, 0
13, 23808, Note_off_c, 11, 67, 0
13, 23808, Note_on_c, 11, 79, 100
13, 23808, Note_on_c, 11, 67, 100
13, 23808, Note_on_c, 11, 96, 100
13, 23832, Note_off_c, 11, 96, 0
13, 23832, Note_on_c, 11, 91, 100
13, 23856, Note_off_c, 11, 67, 0
13, 23856, Note_off_c, 11, 91, 0
13, 23856, Note_off_c, 11, 79, 0
13, 23856, Note_on_c, 11, 60, 100
13, 23856, Note_on_c, 11, 72, 100
13, 23856, Note_on_c, 11, 87, 100
13, 23880, Note_off_c, 11, 87, 0
13, 23880, Note_on_c, 11, 84, 100
13, 23904, Note_off_c, 11, 72, 0
13, 23904, Note_off_c, 11, 84, 0
13, 23904, Note_off_c, 11, 60, 0
13, 23904, Note_on_c, 11, 63, 100
13, 23904, Note_on_c, 11, 75, 100
13, 23952, Note_off_c, 11, 75, 0
13, 23952, Note_off_c, 11, 63, 0
13, 23952, Note_on_c, 11, 60, 100
13, 23952, Note_on_c, 11, 72, 100
13, 24000, Note_off_c, 11, 72, 0
13, 24000, Note_off_c, 11, 60, 0
13, 24000, Note_on_c, 11, 67, 100
13, 24000, Note_on_c, 11, 79, 100
13, 24048, Note_off_c, 11, 79, 0
13, 24048, Note_off_c, 11, 67, 0
13, 24048, Note_on_c, 11, 60, 100
13, 24048, Note_on_c, 11, 72, 100
13, 24096, Note_off_c, 11, 72, 0
13, 24096, Note_off_c, 11, 60, 0
13, 24096, Note_on_c, 11, 63, 100
13, 24096, Note_on_c, 11, 75, 100
13, 24144, Note_off_c, 11, 75, 0
13, 24144, Note_off_c, 11, 63, 0
13, 24144, Note_on_c, 11, 60, 100
13, 24144, Note_on_c, 11, 72, 100
13, 24192, Note_off_c, 11, 72, 0
13, 24192, Note_off_c, 11, 60, 0
13, 24192, Note_on_c, 11, 67, 100
13, 24192, Note_on_c, 11, 79, 100
13, 24192, Note_on_c, 11, 95, 100
13, 24216, Note_off_c, 11, 95, 0
13, 24216, Note_on_c, 11, 91, 100
13, 24240, Note_off_c, 11, 79, 0
13, 24240, Note_off_c, 11, 91, 0
13, 24240, Note_off_c, 11, 67, 0
13, 24240, Note_on_c, 11, 59, 100
13, 24240, Note_on_c, 11, 71, 100
13, 24240, Note_on_c, 11, 86, 100
13, 24264, Note_off_c, 11, 86, 0
13, 24264, Note_on_c, 11, 83, 100
13, 24288, Note_off_c, 11, 71, 0
13, 24288, Note_off_c, 11, 83, 0
13, 24288, Note_off_c, 11, 59, 0
13, 24288, Note_on_c, 11, 62, 100
13, 24288, Note_on_c, 11, 74, 100
13, 24336, Note_off_c, 11, 74, 0
13, 24336, Note_off_c, 11, 62, 0
13, 24336, Note_on_c, 11, 59, 100
13, 24336, Note_on_c, 11, 71, 100
13, 24384, Note_off_c, 11, 71, 0
13, 24384, Note_off_c, 11, 59, 0
13, 24384, Note_on_c, 11, 67, 100
13, 24384, Note_on_c, 11, 79, 100
13, 24432, Note_off_c, 11, 79, 0
13, 24432, Note_off_c, 11, 67, 0
13, 24432, Note_on_c, 11, 59, 100
13, 24432, Note_on_c, 11, 71, 100
13, 24480, Note_off_c, 11, 71, 0
13, 24480, Note_off_c, 11, 59, 0
13, 24480, Note_on_c, 11, 62, 100
13, 24480, Note_on_c, 11, 74, 100
13, 24528, Note_off_c, 11, 74, 0
13, 24528, Note_off_c, 11, 62, 0
13, 24528, Note_on_c, 11, 59, 100
13, 24528, Note_on_c, 11, 71, 100
13, 24576, Note_off_c, 11, 71, 0
13, 24576, Note_off_c, 11, 59, 0
13, 24576, Note_on_c, 11, 92, 100
13, 24576, Note_on_c, 11, 63, 100
13, 24576, Note_on_c, 11, 75, 100
13, 24600, Note_off_c, 11, 92, 0
13, 24600, Note_on_c, 11, 87, 100
13, 24624, Note_off_c, 11, 75, 0
13, 24624, Note_off_c, 11, 87, 0
13, 24624, Note_off_c, 11, 63, 0
13, 24624, Note_on_c, 11, 84, 100
13, 24624, Note_on_c, 11, 68, 100
13, 24624, Note_on_c, 11, 56, 100
13, 24648, Note_off_c, 11, 84, 0
13, 24648, Note_on_c, 11, 80, 100
13, 24672, Note_off_c, 11, 56, 0
13, 24672, Note_off_c, 11, 80, 0
13, 24672, Note_off_c, 11, 68, 0
13, 24672, Note_on_c, 11, 72, 100
13, 24672, Note_on_c, 11, 60, 100
13, 24720, Note_off_c, 11, 60, 0
13, 24720, Note_off_c, 11, 72, 0
13, 24720, Note_on_c, 11, 68, 100
13, 24720, Note_on_c, 11, 56, 100
13, 24768, Note_off_c, 11, 56, 0
13, 24768, Note_off_c, 11, 68, 0
13, 24768, Note_on_c, 11, 75, 100
13, 24768, Note_on_c, 11, 63, 100
13, 24816, Note_off_c, 11, 63, 0
13, 24816, Note_off_c, 11, 75, 0
13, 24816, Note_on_c, 11, 68, 100
13, 24816, Note_on_c, 11, 56, 100
13, 24864, Note_off_c, 11, 56, 0
13, 24864, Note_off_c, 11, 68, 0
13, 24864, Note_on_c, 11, 72, 100
13, 24864, Note_on_c, 11, 60, 100
13, 24912, Note_off_c, 11, 60, 0
13, 24912, Note_off_c, 11, 72, 0
13, 24912, Note_on_c, 11, 68, 100
13, 24912, Note_on_c, 11, 56, 100
13, 24960, Note_off_c, 11, 56, 0
13, 24960, Note_off_c, 11, 68, 0
13, 24960, Note_on_c, 11, 91, 100
13, 24960, Note_on_c, 11, 74, 100
13, 24960, Note_on_c, 11, 62, 100
13, 24984, Note_off_c, 11, 91, 0
13, 24984, Note_on_c, 11, 86, 100
13, 25008, Note_off_c, 11, 62, 0
13, 25008, Note_off_c, 11, 86, 0
13, 25008, Note_off_c, 11, 74, 0
13, 25008, Note_on_c, 11, 83, 100
13, 25008, Note_on_c, 11, 67, 100
13, 25008, Note_on_c, 11, 55, 100
13, 25032, Note_off_c, 11, 83, 0
13, 25032, Note_on_c, 11, 79, 100
13, 25056, Note_off_c, 11, 55, 0
13, 25056, Note_off_c, 11, 79, 0
13, 25056, Note_off_c, 11, 67, 0
13, 25056, Note_on_c, 11, 59, 100
13, 25056, Note_on_c, 11, 71, 100
13, 25104, Note_off_c, 11, 71, 0
13, 25104, Note_off_c, 11, 59, 0
13, 25104, Note_on_c, 11, 67, 100
13, 25104, Note_on_c, 11, 55, 100
13, 25152, Note_off_c, 11, 55, 0
13, 25152, Note_off_c, 11, 67, 0
13, 25152, Note_on_c, 11, 74, 100
13, 25152, Note_on_c, 11, 62, 100
13, 25200, Note_off_c, 11, 62, 0
13, 25200, Note_off_c, 11, 74, 0
13, 25200, Note_on_c, 11, 67, 100
13, 25200, Note_on_c, 11, 55, 100
13, 25248, Note_off_c, 11, 55, 0
13, 25248, Note_off_c, 11, 67, 0
13, 25248, Note_on_c, 11, 71, 100
13, 25248, Note_on_c, 11, 59, 100
13, 25296, Note_off_c, 11, 59, 0
13, 25296, Note_off_c, 11, 71, 0
13, 25296, Note_on_c, 11, 67, 100
13, 25296, Note_on_c, 11, 55, 100
13, 25344, Note_off_c, 11, 55, 0
13, 25344, Note_off_c, 11, 67, 0
13, 46848, Note_on_c, 11, 60, 100
13, 46848, Note_on_c, 11, 72, 100
13, 46896, Note_off_c, 11, 72, 0
13, 46896, Note_off_c, 11, 60, 0
13, 46896, Note_on_c, 11, 55, 100
13, 46896, Note_on_c, 11, 67, 100
13, 46944, Note_off_c, 11, 67, 0
13, 46944, Note_off_c, 11, 55, 0
13, 46944, Note_on_c, 11, 72, 100
13, 46944, Note_on_c, 11, 60, 100
13, 46992, Note_off_c, 11, 60, 0
13, 46992, Note_off_c, 11, 72, 0
13, 46992, Note_on_c, 11, 75, 100
13, 46992, Note_on_c, 11, 63, 100
13, 47040, Note_off_c, 11, 63, 0
13, 47040, Note_off_c, 11, 75, 0
13, 47040, Note_on_c, 11, 65, 100
13, 47040, Note_on_c, 11, 77, 100
13, 47088, Note_off_c, 11, 77, 0
13, 47088, Note_off_c, 11, 65, 0
13, 47088, Note_on_c, 11, 66, 100
13, 47088, Note_on_c, 11, 78, 100
13, 47136, Note_off_c, 11, 78, 0
13, 47136, Note_off_c, 11, 66, 0
13, 47136, Note_on_c, 11, 77, 100
13, 47136, Note_on_c, 11, 65, 100
13, 47184, Note_off_c, 11, 65, 0
13, 47184, Note_off_c, 11, 77, 0
13, 47184, Note_on_c, 11, 75, 100
13, 47184, Note_on_c, 11, 63, 100
13, 47232, Note_off_c, 11, 63, 0
13, 47232, Note_off_c, 11, 75, 0
13, 47232, Note_on_c, 11, 60, 100
13, 47232, Note_on_c, 11, 72, 100
13, 47280, Note_off_c, 11, 72, 0
13, 47280, Note_off_c, 11, 60, 0
13, 47280, Note_on_c, 11, 67, 100
13, 47280, Note_on_c, 11, 55, 100
13, 47328, Note_off_c, 11, 55, 0
13, 47328, Note_off_c, 11, 67, 0
13, 47328, Note_on_c, 11, 72, 100
13, 47328, Note_on_c, 11, 60, 100
13, 47376, Note_off_c, 11, 60, 0
13, 47376, Note_off_c, 11, 72, 0
13, 47376, Note_on_c, 11, 63, 100
13, 47376, Note_on_c, 11, 75, 100
13, 47424, Note_off_c, 11, 75, 0
13, 47424, Note_off_c, 11, 63, 0
13, 47424, Note_on_c, 11, 77, 100
13, 47424, Note_on_c, 11, 65, 100
13, 47472, Note_off_c, 11, 65, 0
13, 47472, Note_off_c, 11, 77, 0
13, 47472, Note_on_c, 11, 78, 100
13, 47472, Note_on_c, 11, 66, 100
13, 47520, Note_off_c, 11, 66, 0
13, 47520, Note_off_c, 11, 78, 0
13, 47520, Note_on_c, 11, 65, 100
13, 47520, Note_on_c, 11, 77, 100
13, 47568, Note_off_c, 11, 77, 0
13, 47568, Note_off_c, 11, 65, 0
13, 47568, Note_on_c, 11, 63, 100
13, 47568, Note_on_c, 11, 75, 100
13, 47616, Note_off_c, 11, 75, 0
13, 47616, Note_off_c, 11, 63, 0
13, 47616, Note_on_c, 11, 72, 100
13, 47616, Note_on_c, 11, 60, 100
13, 47664, Note_off_c, 11, 60, 0
13, 47664, Note_off_c, 11, 72, 0
13, 47664, Note_on_c, 11, 67, 100
13, 47664, Note_on_c, 11, 55, 100
13, 47712, Note_off_c, 11, 55, 0
13, 47712, Note_off_c, 11, 67, 0
13, 47712, Note_on_c, 11, 60, 100
13, 47712, Note_on_c, 11, 72, 100
13, 47760, Note_off_c, 11, 72, 0
13, 47760, Note_off_c, 11, 60, 0
13, 47760, Note_on_c, 11, 63, 100
13, 47760, Note_on_c, 11, 75, 100
13, 47808, Note_off_c, 11, 75, 0
13, 47808, Note_off_c, 11, 63, 0
13, 47808, Note_on_c, 11, 65, 100
13, 47808, Note_on_c, 11, 77, 100
13, 47856, Note_off_c, 11, 77, 0
13, 47856, Note_off_c, 11, 65, 0
13, 47856, Note_on_c, 11, 78, 100
13, 47856, Note_on_c, 11, 66, 100
13, 47904, Note_off_c, 11, 66, 0
13, 47904, Note_off_c, 11, 78, 0
13, 47904, Note_on_c, 11, 77, 100
13, 47904, Note_on_c, 11, 65, 100
13, 47952, Note_off_c, 11, 65, 0
13, 47952, Note_off_c, 11, 77, 0
13, 47952, Note_on_c, 11, 63, 100
13, 47952, Note_on_c, 11, 75, 100
13, 48000, Note_off_c, 11, 75, 0
13, 48000, Note_off_c, 11, 63, 0
13, 48000, Note_on_c, 11, 60, 100
13, 48000, Note_on_c, 11, 72, 100
13, 48048, Note_off_c, 11, 72, 0
13, 48048, Note_off_c, 11, 60, 0
13, 48048, Note_on_c, 11, 67, 100
13, 48048, Note_on_c, 11, 55, 100
13, 48096, Note_off_c, 11, 55, 0
13, 48096, Note_off_c, 11, 67, 0
13, 48096, Note_on_c, 11, 60, 100
13, 48096, Note_on_c, 11, 72, 100
13, 48144, Note_off_c, 11, 72, 0
13, 48144, Note_off_c, 11, 60, 0
13, 48144, Note_on_c, 11, 63, 100
13, 48144, Note_on_c, 11, 75, 100
13, 48192, Note_off_c, 11, 75, 0
13, 48192, Note_off_c, 11, 63, 0
13, 48192, Note_on_c, 11, 65, 100
13, 48192, Note_on_c, 11, 77, 100
13, 48240, Note_off_c, 11, 77, 0
13, 48240, Note_off_c, 11, 65, 0
13, 48240, Note_on_c, 11, 74, 100
13, 48240, Note_on_c, 11, 62, 100
13, 48288, Note_off_c, 11, 62, 0
13, 48288, Note_off_c, 11, 74, 0
13, 48288, Note_on_c, 11, 63, 100
13, 48288, Note_on_c, 11, 75, 100
13, 48336, Note_off_c, 11, 75, 0
13, 48336, Note_off_c, 11, 63, 0
13, 48336, Note_on_c, 11, 62, 100
13, 48336, Note_on_c, 11, 74, 100
13, 48384, Note_off_c, 11, 74, 0
13, 48384, Note_off_c, 11, 62, 0
13, 48384, Note_on_c, 11, 60, 100
13, 48384, Note_on_c, 11, 72, 100
13, 48432, Note_off_c, 11, 72, 0
13, 48432, Note_off_c, 11, 60, 0
13, 48432, Note_on_c, 11, 55, 100
13, 48432, Note_on_c, 11, 67, 100
13, 48480, Note_off_c, 11, 67, 0
13, 48480, Note_off_c, 11, 55, 0
13, 48480, Note_on_c, 11, 72, 100
13, 48480, Note_on_c, 11, 60, 100
13, 48528, Note_off_c, 11, 60, 0
13, 48528, Note_off_c, 11, 72, 0
13, 48528, Note_on_c, 11, 75, 100
13, 48528, Note_on_c, 11, 63, 100
13, 48576, Note_off_c, 11, 63, 0
13, 48576, Note_off_c, 11, 75, 0
13, 48576, Note_on_c, 11, 65, 100
13, 48576, Note_on_c, 11, 77, 100
13, 48624, Note_off_c, 11, 77, 0
13, 48624, Note_off_c, 11, 65, 0
13, 48624, Note_on_c, 11, 66, 100
13, 48624, Note_on_c, 11, 78, 100
13, 48672, Note_off_c, 11, 78, 0
13, 48672, Note_off_c, 11, 66, 0
13, 48672, Note_on_c, 11, 77, 100
13, 48672, Note_on_c, 11, 65, 100
13, 48720, Note_off_c, 11, 65, 0
13, 48720, Note_off_c, 11, 77, 0
13, 48720, Note_on_c, 11, 75, 100
13, 48720, Note_on_c, 11, 63, 100
13, 48768, Note_off_c, 11, 63, 0
13, 48768, Note_off_c, 11, 75, 0
13, 48768, Note_on_c, 11, 60, 100
13, 48768, Note_on_c, 11, 72, 100
13, 48816, Note_off_c, 11, 72, 0
13, 48816, Note_off_c, 11, 60, 0
13, 48816, Note_on_c, 11, 67, 100
13, 48816, Note_on_c, 11, 55, 100
13, 48864, Note_off_c, 11, 55, 0
13, 48864, Note_off_c, 11, 67, 0
13, 48864, Note_on_c, 11, 72, 100
13, 48864, Note_on_c, 11, 60, 100
13, 48912, Note_off_c, 11, 60, 0
13, 48912, Note_off_c, 11, 72, 0
13, 48912, Note_on_c, 11, 63, 100
13, 48912, Note_on_c, 11, 75, 100
13, 48960, Note_off_c, 11, 75, 0
13, 48960, Note_off_c, 11, 63, 0
13, 48960, Note_on_c, 11, 77, 100
13, 48960, Note_on_c, 11, 65, 100
13, 49008, Note_off_c, 11, 65, 0
13, 49008, Note_off_c, 11, 77, 0
13, 49008, Note_on_c, 11, 78, 100
13, 49008, Note_on_c, 11, 66, 100
13, 49056, Note_off_c, 11, 66, 0
13, 49056, Note_off_c, 11, 78, 0
13, 49056, Note_on_c, 11, 65, 100
13, 49056, Note_on_c, 11, 77, 100
13, 49104, Note_off_c, 11, 77, 0
13, 49104, Note_off_c, 11, 65, 0
13, 49104, Note_on_c, 11, 63, 100
13, 49104, Note_on_c, 11, 75, 100
13, 49152, Note_off_c, 11, 75, 0
13, 49152, Note_off_c, 11, 63, 0
13, 49152, Note_on_c, 11, 72, 100
13, 49152, Note_on_c, 11, 60, 100
13, 49200, Note_off_c, 11, 60, 0
13, 49200, Note_off_c, 11, 72, 0
13, 49200, Note_on_c, 11, 67, 100
13, 49200, Note_on_c, 11, 55, 100
13, 49248, Note_off_c, 11, 55, 0
13, 49248, Note_off_c, 11, 67, 0
13, 49248, Note_on_c, 11, 60, 100
13, 49248, Note_on_c, 11, 72, 100
13, 49296, Note_off_c, 11, 72, 0
13, 49296, Note_off_c, 11, 60, 0
13, 49296, Note_on_c, 11, 63, 100
13, 49296, Note_on_c, 11, 75, 100
13, 49344, Note_off_c, 11, 75, 0
13, 49344, Note_off_c, 11, 63, 0
13, 49344, Note_on_c, 11, 65, 100
13, 49344, Note_on_c, 11, 77, 100
13, 49392, Note_off_c, 11, 77, 0
13, 49392, Note_off_c, 11, 65, 0
13, 49392, Note_on_c, 11, 78, 100
13, 49392, Note_on_c, 11, 66, 100
13, 49440, Note_off_c, 11, 66, 0
13, 49440, Note_off_c, 11, 78, 0
13, 49440, Note_on_c, 11, 77, 100
13, 49440, Note_on_c, 11, 65, 100
13, 49488, Note_off_c, 11, 65, 0
13, 49488, Note_off_c, 11, 77, 0
13, 49488, Note_on_c, 11, 63, 100
13, 49488, Note_on_c, 11, 75, 100
13, 49536, Note_off_c, 11, 75, 0
13, 49536, Note_off_c, 11, 63, 0
13, 49536, Note_on_c, 11, 60, 100
13, 49536, Note_on_c, 11, 72, 100
13, 49584, Note_off_c, 11, 72, 0
13, 49584, Note_off_c, 11, 60, 0
13, 49584, Note_on_c, 11, 67, 100
13, 49584, Note_on_c, 11, 55, 100
13, 49632, Note_off_c, 11, 55, 0
13, 49632, Note_off_c, 11, 67, 0
13, 49632, Note_on_c, 11, 60, 100
13, 49632, Note_on_c, 11, 72, 100
13, 49680, Note_off_c, 11, 72, 0
13, 49680, Note_off_c, 11, 60, 0
13, 49680, Note_on_c, 11, 63, 100
13, 49680, Note_on_c, 11, 75, 100
13, 49728, Note_off_c, 11, 75, 0
13, 49728, Note_off_c, 11, 63, 0
13, 49728, Note_on_c, 11, 65, 100
13, 49728, Note_on_c, 11, 77, 100
13, 49776, Note_off_c, 11, 77, 0
13, 49776, Note_off_c, 11, 65, 0
13, 49776, Note_on_c, 11, 74, 100
13, 49776, Note_on_c, 11, 62, 100
13, 49824, Note_off_c, 11, 62, 0
13, 49824, Note_off_c, 11, 74, 0
13, 49824, Note_on_c, 11, 63, 100
13, 49824, Note_on_c, 11, 75, 100
13, 49872, Note_off_c, 11, 75, 0
13, 49872, Note_off_c, 11, 63, 0
13, 49872, Note_on_c, 11, 62, 100
13, 49872, Note_on_c, 11, 74, 100
13, 49920, Note_off_c, 11, 74, 0
13, 49920, Note_off_c, 11, 62, 0
13, 49920, Note_on_c, 11, 79, 100
13, 49920, Note_on_c, 11, 67, 100
13, 49920, Note_on_c, 11, 96, 100
13, 49944, Note_off_c, 11, 96, 0
13, 49944, Note_on_c, 11, 91, 100
13, 49968, Note_off_c, 11, 67, 0
13, 49968, Note_off_c, 11, 91, 0
13, 49968, Note_off_c, 11, 79, 0
13, 49968, Note_on_c, 11, 60, 100
13, 49968, Note_on_c, 11, 72, 100
13, 49968, Note_on_c, 11, 87, 100
13, 49992, Note_off_c, 11, 87, 0
13, 49992, Note_on_c, 11, 84, 100
13, 50016, Note_off_c, 11, 72, 0
13, 50016, Note_off_c, 11, 84, 0
13, 50016, Note_off_c, 11, 60, 0
13, 50016, Note_on_c, 11, 63, 100
13, 50016, Note_on_c, 11, 75, 100
13, 50064, Note_off_c, 11, 75, 0
13, 50064, Note_off_c, 11, 63, 0
13, 50064, Note_on_c, 11, 60, 100
13, 50064, Note_on_c, 11, 72, 100
13, 50112, Note_off_c, 11, 72, 0
13, 50112, Note_off_c, 11, 60, 0
13, 50112, Note_on_c, 11, 67, 100
13, 50112, Note_on_c, 11, 79, 100
13, 50160, Note_off_c, 11, 79, 0
13, 50160, Note_off_c, 11, 67, 0
13, 50160, Note_on_c, 11, 60, 100
13, 50160, Note_on_c, 11, 72, 100
13, 50208, Note_off_c, 11, 72, 0
13, 50208, Note_off_c, 11, 60, 0
13, 50208, Note_on_c, 11, 63, 100
13, 50208, Note_on_c, 11, 75, 100
13, 50256, Note_off_c, 11, 75, 0
13, 50256, Note_off_c, 11, 63, 0
13, 50256, Note_on_c, 11, 60, 100
13, 50256, Note_on_c, 11, 72, 100
13, 50304, Note_off_c, 11, 72, 0
13, 50304, Note_off_c, 11, 60, 0
13, 50304, Note_on_c, 11, 67, 100
13, 50304, Note_on_c, 11, 79, 100
13, 50304, Note_on_c, 11, 95, 100
13, 50328, Note_off_c, 11, 95, 0
13, 50328, Note_on_c, 11, 91, 100
13, 50352, Note_off_c, 11, 79, 0
13, 50352, Note_off_c, 11, 91, 0
13, 50352, Note_off_c, 11, 67, 0
13, 50352, Note_on_c, 11, 59, 100
13, 50352, Note_on_c, 11, 71, 100
13, 50352, Note_on_c, 11, 86, 100
13, 50376, Note_off_c, 11, 86, 0
13, 50376, Note_on_c, 11, 83, 100
13, 50400, Note_off_c, 11, 71, 0
13, 50400, Note_off_c, 11, 83, 0
13, 50400, Note_off_c, 11, 59, 0
13, 50400, Note_on_c, 11, 62, 100
13, 50400, Note_on_c, 11, 74, 100
13, 50448, Note_off_c, 11, 74, 0
13, 50448, Note_off_c, 11, 62, 0
13, 50448, Note_on_c, 11, 59, 100
13, 50448, Note_on_c, 11, 71, 100
13, 50496, Note_off_c, 11, 71, 0
13, 50496, Note_off_c, 11, 59, 0
13, 50496, Note_on_c, 11, 67, 100
13, 50496, Note_on_c, 11, 79, 100
13, 50544, Note_off_c, 11, 79, 0
13, 50544, Note_off_c, 11, 67, 0
13, 50544, Note_on_c, 11, 59, 100
13, 50544, Note_on_c, 11, 71, 100
13, 50592, Note_off_c, 11, 71, 0
13, 50592, Note_off_c, 11, 59, 0
13, 50592, Note_on_c, 11, 62, 100
13, 50592, Note_on_c, 11, 74, 100
13, 50640, Note_off_c, 11, 74, 0
13, 50640, Note_off_c, 11, 62, 0
13, 50640, Note_on_c, 11, 59, 100
13, 50640, Note_on_c, 11, 71, 100
13, 50688, Note_off_c, 11, 71, 0
13, 50688, Note_off_c, 11, 59, 0
13, 50688, Note_on_c, 11, 92, 100
13, 50688, Note_on_c, 11, 63, 100
13, 50688, Note_on_c, 11, 75, 100
13, 50712, Note_off_c, 11, 92, 0
13, 50712, Note_on_c, 11, 87, 100
13, 50736, Note_off_c, 11, 75, 0
13, 50736, Note_off_c, 11, 87, 0
13, 50736, Note_off_c, 11, 63, 0
13, 50736, Note_on_c, 11, 84, 100
13, 50736, Note_on_c, 11, 68, 100
13, 50736, Note_on_c, 11, 56, 100
13, 50760, Note_off_c, 11, 84, 0
13, 50760, Note_on_c, 11, 80, 100
13, 50784, Note_off_c, 11, 56, 0
13, 50784, Note_off_c, 11, 80, 0
13, 50784, Note_off_c, 11, 68, 0
13, 50784, Note_on_c, 11, 72, 100
13, 50784, Note_on_c, 11, 60, 100
13, 50832, Note_off_c, 11, 60, 0
13, 50832, Note_off_c, 11, 72, 0
13, 50832, Note_on_c, 11, 68, 100
13, 50832, Note_on_c, 11, 56, 100
13, 50880, Note_off_c, 11, 56, 0
13, 50880, Note_off_c, 11, 68, 0
13, 50880, Note_on_c, 11, 75, 100
13, 50880, Note_on_c, 11, 63, 100
13, 50928, Note_off_c, 11, 63, 0
13, 50928, Note_off_c, 11, 75, 0
13, 50928, Note_on_c, 11, 68, 100
13, 50928, Note_on_c, 11, 56, 100
13, 50976, Note_off_c, 11, 56, 0
13, 50976, Note_off_c, 11, 68, 0
13, 50976, Note_on_c, 11, 72, 100
13, 50976, Note_on_c, 11, 60, 100
13, 51024, Note_off_c, 11, 60, 0
13, 51024, Note_off_c, 11, 72, 0
13, 51024, Note_on_c, 11, 68, 100
13, 51024, Note_on_c, 11, 56, 100
13, 51072, Note_off_c, 11, 56, 0
13, 51072, Note_off_c, 11, 68, 0
13, 51072, Note_on_c, 11, 91, 100
13, 51072, Note_on_c, 11, 74, 100
13, 51072, Note_on_c, 11, 62, 100
13, 51096, Note_off_c, 11, 91, 0
13, 51096, Note_on_c, 11, 86, 100
13, 51120, Note_off_c, 11, 62, 0
13, 51120, Note_off_c, 11, 86, 0
13, 51120, Note_off_c, 11, 74, 0
13, 51120, Note_on_c, 11, 83, 100
13, 51120, Note_on_c, 11, 67, 100
13, 51120, Note_on_c, 11, 55, 100
13, 51144, Note_off_c, 11, 83, 0
13, 51144, Note_on_c, 11, 79, 100
13, 51168, Note_off_c, 11, 55, 0
13, 51168, Note_off_c, 11, 79, 0
13, 51168, Note_off_c, 11, 67, 0
13, 51168, Note_on_c, 11, 59, 100
13, 51168, Note_on_c, 11, 71, 100
13, 51216, Note_off_c, 11, 71, 0
13, 51216, Note_off_c, 11, 59, 0
13, 51216, Note_on_c, 11, 67, 100
13, 51216, Note_on_c, 11, 55, 100
13, 51264, Note_off_c, 11, 55, 0
13, 51264, Note_off_c, 11, 67, 0
13, 51264, Note_on_c, 11, 74, 100
13, 51264, Note_on_c, 11, 62, 100
13, 51312, Note_off_c, 11, 62, 0
13, 51312, Note_off_c, 11, 74, 0
13, 51312, Note_on_c, 11, 67, 100
13, 51312, Note_on_c, 11, 55, 100
13, 51360, Note_off_c, 11, 55, 0
13, 51360, Note_off_c, 11, 67, 0
13, 51360, Note_on_c, 11, 71, 100
13, 51360, Note_on_c, 11, 59, 100
13, 51408, Note_off_c, 11, 59, 0
13, 51408, Note_off_c, 11, 71, 0
13, 51408, Note_on_c, 11, 67, 100
13, 51408, Note_on_c, 11, 55, 100
13, 51456, Note_off_c, 11, 55, 0
13, 51456, Note_off_c, 11, 67, 0
13, 51456, Note_on_c, 11, 79, 100
13, 51456, Note_on_c, 11, 67, 100
13, 51456, Note_on_c, 11, 96, 100
13, 51480, Note_off_c, 11, 96, 0
13, 51480, Note_on_c, 11, 91, 100
13, 51504, Note_off_c, 11, 67, 0
13, 51504, Note_off_c, 11, 91, 0
13, 51504, Note_off_c, 11, 79, 0
13, 51504, Note_on_c, 11, 60, 100
13, 51504, Note_on_c, 11, 72, 100
13, 51504, Note_on_c, 11, 87, 100
13, 51528, Note_off_c, 11, 87, 0
13, 51528, Note_on_c, 11, 84, 100
13, 51552, Note_off_c, 11, 72, 0
13, 51552, Note_off_c, 11, 84, 0
13, 51552, Note_off_c, 11, 60, 0
13, 51552, Note_on_c, 11, 63, 100
13, 51552, Note_on_c, 11, 75, 100
13, 51600, Note_off_c, 11, 75, 0
13, 51600, Note_off_c, 11, 63, 0
13, 51600, Note_on_c, 11, 60, 100
13, 51600, Note_on_c, 11, 72, 100
13, 51648, Note_off_c, 11, 72, 0
13, 51648, Note_off_c, 11, 60, 0
13, 51648, Note_on_c, 11, 67, 100
13, 51648, Note_on_c, 11, 79, 100
13, 51696, Note_off_c, 11, 79, 0
13, 51696, Note_off_c, 11, 67, 0
13, 51696, Note_on_c, 11, 60, 100
13, 51696, Note_on_c, 11, 72, 100
13, 51744, Note_off_c, 11, 72, 0
13, 51744, Note_off_c, 11, 60, 0
13, 51744, Note_on_c, 11, 63, 100
13, 51744, Note_on_c, 11, 75, 100
13, 51792, Note_off_c, 11, 75, 0
13, 51792, Note_off_c, 11, 63, 0
13, 51792, Note_on_c, 11, 60, 100
13, 51792, Note_on_c, 11, 72, 100
13, 51840, Note_off_c, 11, 72, 0
13, 51840, Note_off_c, 11, 60, 0
13, 51840, Note_on_c, 11, 67, 100
13, 51840, Note_on_c, 11, 79, 100
13, 51840, Note_on_c, 11, 95, 100
13, 51864, Note_off_c, 11, 95, 0
13, 51864, Note_on_c, 11, 91, 100
13, 51888, Note_off_c, 11, 79, 0
13, 51888, Note_off_c, 11, 91, 0
13, 51888, Note_off_c, 11, 67, 0
13, 51888, Note_on_c, 11, 59, 100
13, 51888, Note_on_c, 11, 71, 100
13, 51888, Note_on_c, 11, 86, 100
13, 51912, Note_off_c, 11, 86, 0
13, 51912, Note_on_c, 11, 83, 100
13, 51936, Note_off_c, 11, 71, 0
13, 51936, Note_off_c, 11, 83, 0
13, 51936, Note_off_c, 11, 59, 0
13, 51936, Note_on_c, 11, 62, 100
13, 51936, Note_on_c, 11, 74, 100
13, 51984, Note_off_c, 11, 74, 0
13, 51984, Note_off_c, 11, 62, 0
13, 51984, Note_on_c, 11, 59, 100
13, 51984, Note_on_c, 11, 71, 100
13, 52032, Note_off_c, 11, 71, 0
13, 52032, Note_off_c, 11, 59, 0
13, 52032, Note_on_c, 11, 67, 100
13, 52032, Note_on_c, 11, 79, 100
13, 52080, Note_off_c, 11, 79, 0
13, 52080, Note_off_c, 11, 67, 0
13, 52080, Note_on_c, 11, 59, 100
13, 52080, Note_on_c, 11, 71, 100
13, 52128, Note_off_c, 11, 71, 0
13, 52128, Note_off_c, 11, 59, 0
13, 52128, Note_on_c, 11, 62, 100
13, 52128, Note_on_c, 11, 74, 100
13, 52176, Note_off_c, 11, 74, 0
13, 52176, Note_off_c, 11, 62, 0
13, 52176, Note_on_c, 11, 59, 100
13, 52176, Note_on_c, 11, 71, 100
13, 52224, Note_off_c, 11, 71, 0
13, 52224, Note_off_c, 11, 59, 0
13, 52224, Note_on_c, 11, 92, 100
13, 52224, Note_on_c, 11, 63, 100
13, 52224, Note_on_c, 11, 75, 100
13, 52248, Note_off_c, 11, 92, 0
13, 52248, Note_on_c, 11, 87, 100
13, 52272, Note_off_c, 11, 75, 0
13, 52272, Note_off_c, 11, 87, 0
13, 52272, Note_off_c, 11, 63, 0
13, 52272, Note_on_c, 11, 84, 100
13, 52272, Note_on_c, 11, 68, 100
13, 52272, Note_on_c, 11, 56, 100
13, 52296, Note_off_c, 11, 84, 0
13, 52296, Note_on_c, 11, 80, 100
13, 52320, Note_off_c, 11, 56, 0
13, 52320, Note_off_c, 11, 80, 0
13, 52320, Note_off_c, 11, 68, 0
13, 52320, Note_on_c, 11, 72, 100
13, 52320, Note_on_c, 11, 60, 100
13, 52368, Note_off_c, 11, 60, 0
13, 52368, Note_off_c, 11, 72, 0
13, 52368, Note_on_c, 11, 68, 100
13, 52368, Note_on_c, 11, 56, 100
13, 52416, Note_off_c, 11, 56, 0
13, 52416, Note_off_c, 11, 68, 0
13, 52416, Note_on_c, 11, 75, 100
13, 52416, Note_on_c, 11, 63, 100
13, 52464, Note_off_c, 11, 63, 0
13, 52464, Note_off_c, 11, 75, 0
13, 52464, Note_on_c, 11, 68, 100
13, 52464, Note_on_c, 11, 56, 100
13, 52512, Note_off_c, 11, 56, 0
13, 52512, Note_off_c, 11, 68, 0
13, 52512, Note_on_c, 11, 72, 100
13, 52512, Note_on_c, 11, 60, 100
13, 52560, Note_off_c, 11, 60, 0
13, 52560, Note_off_c, 11, 72, 0
13, 52560, Note_on_c, 11, 68, 100
13, 52560, Note_on_c, 11, 56, 100
13, 52608, Note_off_c, 11, 56, 0
13, 52608, Note_off_c, 11, 68, 0
13, 52608, Note_on_c, 11, 91, 100
13, 52608, Note_on_c, 11, 74, 100
13, 52608, Note_on_c, 11, 62, 100
13, 52632, Note_off_c, 11, 91, 0
13, 52632, Note_on_c, 11, 86, 100
13, 52656, Note_off_c, 11, 62, 0
13, 52656, Note_off_c, 11, 86, 0
13, 52656, Note_off_c, 11, 74, 0
13, 52656, Note_on_c, 11, 83, 100
13, 52656, Note_on_c, 11, 67, 100
13, 52656, Note_on_c, 11, 55, 100
13, 52680, Note_off_c, 11, 83, 0
13, 52680, Note_on_c, 11, 79, 100
13, 52704, Note_off_c, 11, 55, 0
13, 52704, Note_off_c, 11, 79, 0
13, 52704, Note_off_c, 11, 67, 0
13, 52704, Note_on_c, 11, 59, 100
13, 52704, Note_on_c, 11, 71, 100
13, 52752, Note_off_c, 11, 71, 0
13, 52752, Note_off_c, 11, 59, 0
13, 52752, Note_on_c, 11, 67, 100
13, 52752, Note_on_c, 11, 55, 100
13, 52800, Note_off_c, 11, 55, 0
13, 52800, Note_off_c, 11, 67, 0
13, 52800, Note_on_c, 11, 74, 100
13, 52800, Note_on_c, 11, 62, 100
13, 52848, Note_off_c, 11, 62, 0
13, 52848, Note_off_c, 11, 74, 0
13, 52848, Note_on_c, 11, 67, 100
13, 52848, Note_on_c, 11, 55, 100
13, 52896, Note_off_c, 11, 55, 0
13, 52896, Note_off_c, 11, 67, 0
13, 52896, Note_on_c, 11, 71, 100
13, 52896, Note_on_c, 11, 59, 100
13, 52944, Note_off_c, 11, 59, 0
13, 52944, Note_off_c, 11, 71, 0
13, 52944, Note_on_c, 11, 67, 100
13, 52944, Note_on_c, 11, 55, 100
13, 52992, Note_off_c, 11, 55, 0
13, 52992, Note_off_c, 11, 67, 0
13, 52992, Note_on_c, 11, 79, 100
13, 52992, Note_on_c, 11, 67, 100
13, 52992, Note_on_c, 11, 96, 100
13, 53016, Note_off_c, 11, 96, 0
13, 53016, Note_on_c, 11, 91, 100
13, 53040, Note_off_c, 11, 67, 0
13, 53040, Note_off_c, 11, 91, 0
13, 53040, Note_off_c, 11, 79, 0
13, 53040, Note_on_c, 11, 60, 100
13, 53040, Note_on_c, 11, 72, 100
13, 53040, Note_on_c, 11, 87, 100
13, 53064, Note_off_c, 11, 87, 0
13, 53064, Note_on_c, 11, 84, 100
13, 53088, Note_off_c, 11, 72, 0
13, 53088, Note_off_c, 11, 84, 0
13, 53088, Note_off_c, 11, 60, 0
13, 53088, Note_on_c, 11, 63, 100
13, 53088, Note_on_c, 11, 75, 100
13, 53136, Note_off_c, 11, 75, 0
13, 53136, Note_off_c, 11, 63, 0
13, 53136, Note_on_c, 11, 60, 100
13, 53136, Note_on_c, 11, 72, 100
13, 53184, Note_off_c, 11, 72, 0
13, 53184, Note_off_c, 11, 60, 0
13, 53184, Note_on_c, 11, 67, 100
13, 53184, Note_on_c, 11, 79, 100
13, 53232, Note_off_c, 11, 79, 0
13, 53232, Note_off_c, 11, 67, 0
13, 53232, Note_on_c, 11, 60, 100
13, 53232, Note_on_c, 11, 72, 100
13, 53280, Note_off_c, 11, 72, 0
13, 53280, Note_off_c, 11, 60, 0
13, 53280, Note_on_c, 11, 63, 100
13, 53280, Note_on_c, 11, 75, 100
13, 53328, Note_off_c, 11, 75, 0
13, 53328, Note_off_c, 11, 63, 0
13, 53328, Note_on_c, 11, 60, 100
13, 53328, Note_on_c, 11, 72, 100
13, 53376, Note_off_c, 11, 72, 0
13, 53376, Note_off_c, 11, 60, 0
13, 53376, Note_on_c, 11, 67, 100
13, 53376, Note_on_c, 11, 79, 100
13, 53376, Note_on_c, 11, 95, 100
13, 53400, Note_off_c, 11, 95, 0
13, 53400, Note_on_c, 11, 91, 100
13, 53424, Note_off_c, 11, 79, 0
13, 53424, Note_off_c, 11, 91, 0
13, 53424, Note_off_c, 11, 67, 0
13, 53424, Note_on_c, 11, 59, 100
13, 53424, Note_on_c, 11, 71, 100
13, 53424, Note_on_c, 11, 86, 100
13, 53448, Note_off_c, 11, 86, 0
13, 53448, Note_on_c, 11, 83, 100
13, 53472, Note_off_c, 11, 71, 0
13, 53472, Note_off_c, 11, 83, 0
13, 53472, Note_off_c, 11, 59, 0
13, 53472, Note_on_c, 11, 62, 100
13, 53472, Note_on_c, 11, 74, 100
13, 53520, Note_off_c, 11, 74, 0
13, 53520, Note_off_c, 11, 62, 0
13, 53520, Note_on_c, 11, 59, 100
13, 53520, Note_on_c, 11, 71, 100
13, 53568, Note_off_c, 11, 71, 0
13, 53568, Note_off_c, 11, 59, 0
13, 53568, Note_on_c, 11, 67, 100
13, 53568, Note_on_c, 11, 79, 100
13, 53616, Note_off_c, 11, 79, 0
13, 53616, Note_off_c, 11, 67, 0
13, 53616, Note_on_c, 11, 59, 100
13, 53616, Note_on_c, 11, 71, 100
13, 53664, Note_off_c, 11, 71, 0
13, 53664, Note_off_c, 11, 59, 0
13, 53664, Note_on_c, 11, 62, 100
13, 53664, Note_on_c, 11, 74, 100
13, 53712, Note_off_c, 11, 74, 0
13, 53712, Note_off_c, 11, 62, 0
13, 53712, Note_on_c, 11, 59, 100
13, 53712, Note_on_c, 11, 71, 100
13, 53760, Note_off_c, 11, 71, 0
13, 53760, Note_off_c, 11, 59, 0
13, 53760, Note_on_c, 11, 92, 100
13, 53760, Note_on_c, 11, 63, 100
13, 53760, Note_on_c, 11, 75, 100
13, 53784, Note_off_c, 11, 92, 0
13, 53784, Note_on_c, 11, 87, 100
13, 53808, Note_off_c, 11, 75, 0
13, 53808, Note_off_c, 11, 87, 0
13, 53808, Note_off_c, 11, 63, 0
13, 53808, Note_on_c, 11, 84, 100
13, 53808, Note_on_c, 11, 68, 100
13, 53808, Note_on_c, 11, 56, 100
13, 53832, Note_off_c, 11, 84, 0
13, 53832, Note_on_c, 11, 80, 100
13, 53856, Note_off_c, 11, 56, 0
13, 53856, Note_off_c, 11, 80, 0
13, 53856, Note_off_c, 11, 68, 0
13, 53856, Note_on_c, 11, 72, 100
13, 53856, Note_on_c, 11, 60, 100
13, 53904, Note_off_c, 11, 60, 0
13, 53904, Note_off_c, 11, 72, 0
13, 53904, Note_on_c, 11, 68, 100
13, 53904, Note_on_c, 11, 56, 100
13, 53952, Note_off_c, 11, 56, 0
13, 53952, Note_off_c, 11, 68, 0
13, 53952, Note_on_c, 11, 75, 100
13, 53952, Note_on_c, 11, 63, 100
13, 54000, Note_off_c, 11, 63, 0
13, 54000, Note_off_c, 11, 75, 0
13, 54000, Note_on_c, 11, 68, 100
13, 54000, Note_on_c, 11, 56, 100
13, 54048, Note_off_c, 11, 56, 0
13, 54048, Note_off_c, 11, 68, 0
13, 54048, Note_on_c, 11, 72, 100
13, 54048, Note_on_c, 11, 60, 100
13, 54096, Note_off_c, 11, 60, 0
13, 54096, Note_off_c, 11, 72, 0
13, 54096, Note_on_c, 11, 68, 100
13, 54096, Note_on_c, 11, 56, 100
13, 54144, Note_off_c, 11, 56, 0
13, 54144, Note_off_c, 11, 68, 0
13, 54144, Note_on_c, 11, 91, 100
13, 54144, Note_on_c, 11, 74, 100
13, 54144, Note_on_c, 11, 62, 100
13, 54168, Note_off_c, 11, 91, 0
13, 54168, Note_on_c, 11, 86, 100
13, 54192, Note_off_c, 11, 62, 0
13, 54192, Note_off_c, 11, 86, 0
13, 54192, Note_off_c, 11, 74, 0
13, 54192, Note_on_c, 11, 83, 100
13, 54192, Note_on_c, 11, 67, 100
13, 54192, Note_on_c, 11, 55, 100
13, 54216, Note_off_c, 11, 83, 0
13, 54216, Note_on_c, 11, 79, 100
13, 54240, Note_off_c, 11, 55, 0
13, 54240, Note_off_c, 11, 79, 0
13, 54240, Note_off_c, 11, 67, 0
13, 54240, Note_on_c, 11, 59, 100
13, 54240, Note_on_c, 11, 71, 100
13, 54288, Note_off_c, 11, 71, 0
13, 54288, Note_off_c, 11, 59, 0
13, 54288, Note_on_c, 11, 67, 100
13, 54288, Note_on_c, 11, 55, 100
13, 54336, Note_off_c, 11, 55, 0
13, 54336, Note_off_c, 11, 67, 0
13, 54336, Note_on_c, 11, 74, 100
13, 54336, Note_on_c, 11, 62, 100
13, 54384, Note_off_c, 11, 62, 0
13, 54384, Note_off_c, 11, 74, 0
13, 54384, Note_on_c, 11, 67, 100
13, 54384, Note_on_c, 11, 55, 100
13, 54432, Note_off_c, 11, 55, 0
13, 54432, Note_off_c, 11, 67, 0
13, 54432, Note_on_c, 11, 71, 100
13, 54432, Note_on_c, 11, 59, 100
13, 54480, Note_off_c, 11, 59, 0
13, 54480, Note_off_c, 11, 71, 0
13, 54480, Note_on_c, 11, 67, 100
13, 54480, Note_on_c, 11, 55, 100
13, 54528, Note_off_c, 11, 55, 0
13, 54528, Note_off_c, 11, 67, 0
13, 54528, Note_on_c, 11, 79, 100
13, 54528, Note_on_c, 11, 67, 100
13, 54528, Note_on_c, 11, 96, 100
13, 54552, Note_off_c, 11, 96, 0
13, 54552, Note_on_c, 11, 91, 100
13, 54576, Note_off_c, 11, 67, 0
13, 54576, Note_off_c, 11, 91, 0
13, 54576, Note_off_c, 11, 79, 0
13, 54576, Note_on_c, 11, 60, 100
13, 54576, Note_on_c, 11, 72, 100
13, 54576, Note_on_c, 11, 87, 100
13, 54600, Note_off_c, 11, 87, 0
13, 54600, Note_on_c, 11, 84, 100
13, 54624, Note_off_c, 11, 72, 0
13, 54624, Note_off_c, 11, 84, 0
13, 54624, Note_off_c, 11, 60, 0
13, 54624, Note_on_c, 11, 63, 100
13, 54624, Note_on_c, 11, 75, 100
13, 54672, Note_off_c, 11, 75, 0
13, 54672, Note_off_c, 11, 63, 0
13, 54672, Note_on_c, 11, 60, 100
13, 54672, Note_on_c, 11, 72, 100
13, 54720, Note_off_c, 11, 72, 0
13, 54720, Note_off_c, 11, 60, 0
13, 54720, Note_on_c, 11, 67, 100
13, 54720, Note_on_c, 11, 79, 100
13, 54768, Note_off_c, 11, 79, 0
13, 54768, Note_off_c, 11, 67, 0
13, 54768, Note_on_c, 11, 60, 100
13, 54768, Note_on_c, 11, 72, 100
13, 54816, Note_off_c, 11, 72, 0
13, 54816, Note_off_c, 11, 60, 0
13, 54816, Note_on_c, 11, 63, 100
13, 54816, Note_on_c, 11, 75, 100
13, 54864, Note_off_c, 11, 75, 0
13, 54864, Note_off_c, 11, 63, 0
13, 54864, Note_on_c, 11, 60, 100
13, 54864, Note_on_c, 11, 72, 100
13, 54912, Note_off_c, 11, 72, 0
13, 54912, Note_off_c, 11, 60, 0
13, 54912, Note_on_c, 11, 67, 100
13, 54912, Note_on_c, 11, 79, 100
13, 54912, Note_on_c, 11, 95, 100
13, 54936, Note_off_c, 11, 95, 0
13, 54936, Note_on_c, 11, 91, 100
13, 54960, Note_off_c, 11, 79, 0
13, 54960, Note_off_c, 11, 91, 0
13, 54960, Note_off_c, 11, 67, 0
13, 54960, Note_on_c, 11, 59, 100
13, 54960, Note_on_c, 11, 71, 100
13, 54960, Note_on_c, 11, 86, 100
13, 54984, Note_off_c, 11, 86, 0
13, 54984, Note_on_c, 11, 83, 100
13, 55008, Note_off_c, 11, 71, 0
13, 55008, Note_off_c, 11, 83, 0
13, 55008, Note_off_c, 11, 59, 0
13, 55008, Note_on_c, 11, 62, 100
13, 55008, Note_on_c, 11, 74, 100
13, 55056, Note_off_c, 11, 74, 0
13, 55056, Note_off_c, 11, 62, 0
13, 55056, Note_on_c, 11, 59, 100
13, 55056, Note_on_c, 11, 71, 100
13, 55104, Note_off_c, 11, 71, 0
13, 55104, Note_off_c, 11, 59, 0
13, 55104, Note_on_c, 11, 67, 100
13, 55104, Note_on_c, 11, 79, 100
13, 55152, Note_off_c, 11, 79, 0
13, 55152, Note_off_c, 11, 67, 0
13, 55152, Note_on_c, 11, 59, 100
13, 55152, Note_on_c, 11, 71, 100
13, 55200, Note_off_c, 11, 71, 0
13, 55200, Note_off_c, 11, 59, 0
13, 55200, Note_on_c, 11, 62, 100
13, 55200, Note_on_c, 11, 74, 100
13, 55248, Note_off_c, 11, 74, 0
13, 55248, Note_off_c, 11, 62, 0
13, 55248, Note_on_c, 11, 59, 100
13, 55248, Note_on_c, 11, 71, 100
13, 55296, Note_off_c, 11, 71, 0
13, 55296, Note_off_c, 11, 59, 0
13, 55296, Note_on_c, 11, 92, 100
13, 55296, Note_on_c, 11, 63, 100
13, 55296, Note_on_c, 11, 75, 100
13, 55320, Note_off_c, 11, 92, 0
13, 55320, Note_on_c, 11, 87, 100
13, 55344, Note_off_c, 11, 75, 0
13, 55344, Note_off_c, 11, 87, 0
13, 55344, Note_off_c, 11, 63, 0
13, 55344, Note_on_c, 11, 84, 100
13, 55344, Note_on_c, 11, 68, 100
13, 55344, Note_on_c, 11, 56, 100
13, 55368, Note_off_c, 11, 84, 0
13, 55368, Note_on_c, 11, 80, 100
13, 55392, Note_off_c, 11, 56, 0
13, 55392, Note_off_c, 11, 80, 0
13, 55392, Note_off_c, 11, 68, 0
13, 55392, Note_on_c, 11, 72, 100
13, 55392, Note_on_c, 11, 60, 100
13, 55440, Note_off_c, 11, 60, 0
13, 55440, Note_off_c, 11, 72, 0
13, 55440, Note_on_c, 11, 68, 100
13, 55440, Note_on_c, 11, 56, 100
13, 55488, Note_off_c, 11, 56, 0
13, 55488, Note_off_c, 11, 68, 0
13, 55488, Note_on_c, 11, 75, 100
13, 55488, Note_on_c, 11, 63, 100
13, 55536, Note_off_c, 11, 63, 0
13, 55536, Note_off_c, 11, 75, 0
13, 55536, Note_on_c, 11, 68, 100
13, 55536, Note_on_c, 11, 56, 100
13, 55584, Note_off_c, 11, 56, 0
13, 55584, Note_off_c, 11, 68, 0
13, 55584, Note_on_c, 11, 72, 100
13, 55584, Note_on_c, 11, 60, 100
13, 55632, Note_off_c, 11, 60, 0
13, 55632, Note_off_c, 11, 72, 0
13, 55632, Note_on_c, 11, 68, 100
13, 55632, Note_on_c, 11, 56, 100
13, 55680, Note_off_c, 11, 56, 0
13, 55680, Note_off_c, 11, 68, 0
13, 55680, Note_on_c, 11, 91, 100
13, 55680, Note_on_c, 11, 74, 100
13, 55680, Note_on_c, 11, 62, 100
13, 55704, Note_off_c, 11, 91, 0
13, 55704, Note_on_c, 11, 86, 100
13, 55728, Note_off_c, 11, 62, 0
13, 55728, Note_off_c, 11, 86, 0
13, 55728, Note_off_c, 11, 74, 0
13, 55728, Note_on_c, 11, 83, 100
13, 55728, Note_on_c, 11, 67, 100
13, 55728, Note_on_c, 11, 55, 100
13, 55752, Note_off_c, 11, 83, 0
13, 55752, Note_on_c, 11, 79, 100
13, 55776, Note_off_c, 11, 55, 0
13, 55776, Note_off_c, 11, 79, 0
13, 55776, Note_off_c, 11, 67, 0
13, 55776, Note_on_c, 11, 59, 100
13, 55776, Note_on_c, 11, 71, 100
13, 55824, Note_off_c, 11, 71, 0
13, 55824, Note_off_c, 11, 59, 0
13, 55824, Note_on_c, 11, 67, 100
13, 55824, Note_on_c, 11, 55, 100
13, 55872, Note_off_c, 11, 55, 0
13, 55872, Note_off_c, 11, 67, 0
13, 55872, Note_on_c, 11, 74, 100
13, 55872, Note_on_c, 11, 62, 100
13, 55920, Note_off_c, 11, 62, 0
13, 55920, Note_off_c, 11, 74, 0
13, 55920, Note_on_c, 11, 67, 100
13, 55920, Note_on_c, 11, 55, 100
13, 55968, Note_off_c, 11, 55, 0
13, 55968, Note_off_c, 11, 67, 0
13, 55968, Note_on_c, 11, 71, 100
13, 55968, Note_on_c, 11, 59, 100
13, 56016, Note_off_c, 11, 59, 0
13, 56016, Note_off_c, 11, 71, 0
13, 56016, Note_on_c, 11, 67, 100
13, 56016, Note_on_c, 11, 55, 100
13, 56064, Note_off_c, 11, 55, 0
13, 56064, Note_off_c, 11, 67, 0
13, 62976, Control_c, 11, 10, 64
13, 62976, Control_c, 11, 7, 100
13, 62976, Pitch_bend_c, 11, 8192
13, 62976, Program_c, 11, 48
13, 62976, End_track
14, 0, Start_track
14, 0, Control_c, 12, 0, 0
14, 0, Control_c, 12, 32, 0
14, 0, Program_c, 12, 80
14, 0, Title_t, "Lead Guitar"
14, 0, Control_c, 12, 7, 127
14, 0, Control_c, 12, 5, 5
14, 0, Control_c, 12, 65, 127
14, 0, Control_c, 12, 7, 87
14, 0, Pitch_bend_c, 12, 8192
14, 0, Control_c, 12, 10, 64
14, 0, Pitch_bend_c, 12, 8192
14, 0, Control_c, 12, 10, 64
14, 0, Pitch_bend_c, 12, 8192
14, 0, Control_c, 12, 10, 64
14, 0, Pitch_bend_c, 12, 8192
14, 0, Control_c, 12, 10, 64
14, 6912, Note_on_c, 12, 80, 127
14, 7200, Note_off_c, 12, 80, 0
14, 7200, Note_on_c, 12, 84, 100
14, 7296, Note_off_c, 12, 84, 0
14, 7296, Note_on_c, 12, 79, 100
14, 7392, Note_off_c, 12, 79, 0
14, 7392, Note_on_c, 12, 75, 100
14, 7488, Note_off_c, 12, 75, 0
14, 7488, Note_on_c, 12, 74, 100
14, 7584, Note_off_c, 12, 74, 0
14, 7584, Note_on_c, 12, 75, 100
14, 7680, Note_off_c, 12, 75, 0
14, 7680, Note_on_c, 12, 79, 100
14, 7824, Note_off_c, 12, 79, 0
14, 7824, Note_on_c, 12, 74, 100
14, 7920, Note_off_c, 12, 74, 0
14, 7920, Note_on_c, 12, 79, 100
14, 8016, Note_off_c, 12, 79, 0
14, 8016, Note_on_c, 12, 77, 100
14, 8160, Note_off_c, 12, 77, 0
14, 8160, Note_on_c, 12, 74, 100
14, 8256, Note_off_c, 12, 74, 0
14, 8256, Note_on_c, 12, 71, 100
14, 8352, Note_off_c, 12, 71, 0
14, 8352, Note_on_c, 12, 74, 100
14, 8448, Note_off_c, 12, 74, 0
14, 8448, Note_on_c, 12, 75, 100
14, 8544, Note_off_c, 12, 75, 0
14, 8544, Note_on_c, 12, 74, 100
14, 8592, Note_off_c, 12, 74, 0
14, 8592, Note_on_c, 12, 75, 100
14, 8688, Note_off_c, 12, 75, 0
14, 8688, Note_on_c, 12, 77, 100
14, 8784, Note_off_c, 12, 77, 0
14, 8784, Note_on_c, 12, 75, 100
14, 8832, Note_off_c, 12, 75, 0
14, 8832, Note_on_c, 12, 77, 100
14, 8928, Note_off_c, 12, 77, 0
14, 8928, Note_on_c, 12, 79, 100
14, 9024, Note_off_c, 12, 79, 0
14, 9024, Note_on_c, 12, 77, 100
14, 9120, Note_off_c, 12, 77, 0
14, 9120, Note_on_c, 12, 75, 100
14, 9216, Note_off_c, 12, 75, 0
14, 9216, Note_on_c, 12, 74, 100
14, 9312, Note_off_c, 12, 74, 0
14, 9312, Note_on_c, 12, 71, 100
14, 9360, Note_off_c, 12, 71, 0
14, 9360, Note_on_c, 12, 74, 100
14, 9504, Note_off_c, 12, 74, 0
14, 9504, Note_on_c, 12, 67, 100
14, 9600, Note_off_c, 12, 67, 0
14, 9600, Note_on_c, 12, 68, 100
14, 9696, Note_off_c, 12, 68, 0
14, 9696, Note_on_c, 12, 67, 100
14, 9744, Note_off_c, 12, 67, 0
14, 9744, Note_on_c, 12, 74, 100
14, 9840, Note_off_c, 12, 74, 0
14, 9840, Note_on_c, 12, 71, 100
14, 9888, Note_off_c, 12, 71, 0
14, 9888, Note_on_c, 12, 74, 100
14, 9936, Note_off_c, 12, 74, 0
14, 9936, Note_on_c, 12, 79, 100
14, 9984, Note_off_c, 12, 79, 0
14, 9984, Note_on_c, 12, 80, 100
14, 10272, Note_off_c, 12, 80, 0
14, 10272, Note_on_c, 12, 84, 100
14, 10368, Note_off_c, 12, 84, 0
14, 10368, Note_on_c, 12, 79, 100
14, 10464, Note_off_c, 12, 79, 0
14, 10464, Note_on_c, 12, 75, 100
14, 10560, Note_off_c, 12, 75, 0
14, 10560, Note_on_c, 12, 74, 100
14, 10656, Note_off_c, 12, 74, 0
14, 10656, Note_on_c, 12, 75, 100
14, 10752, Note_off_c, 12, 75, 0
14, 10752, Note_on_c, 12, 79, 100
14, 10896, Note_off_c, 12, 79, 0
14, 10896, Note_on_c, 12, 74, 100
14, 10992, Note_off_c, 12, 74, 0
14, 10992, Note_on_c, 12, 79, 100
14, 11088, Note_off_c, 12, 79, 0
14, 11088, Note_on_c, 12, 77, 100
14, 11232, Note_off_c, 12, 77, 0
14, 11232, Note_on_c, 12, 74, 100
14, 11328, Note_off_c, 12, 74, 0
14, 11328, Note_on_c, 12, 71, 100
14, 11424, Note_off_c, 12, 71, 0
14, 11424, Note_on_c, 12, 74, 100
14, 11520, Note_off_c, 12, 74, 0
14, 11520, Note_on_c, 12, 75, 100
14, 11616, Note_off_c, 12, 75, 0
14, 11616, Note_on_c, 12, 74, 100
14, 11664, Note_off_c, 12, 74, 0
14, 11664, Note_on_c, 12, 75, 100
14, 11760, Note_off_c, 12, 75, 0
14, 11760, Note_on_c, 12, 77, 100
14, 11856, Note_off_c, 12, 77, 0
14, 11856, Note_on_c, 12, 75, 100
14, 11904, Note_off_c, 12, 75, 0
14, 11904, Note_on_c, 12, 77, 100
14, 12000, Note_off_c, 12, 77, 0
14, 12000, Note_on_c, 12, 79, 100
14, 12096, Note_off_c, 12, 79, 0
14, 12096, Note_on_c, 12, 77, 100
14, 12192, Note_off_c, 12, 77, 0
14, 12192, Note_on_c, 12, 75, 100
14, 12288, Note_off_c, 12, 75, 0
14, 12288, Note_on_c, 12, 74, 100
14, 12384, Note_off_c, 12, 74, 0
14, 12384, Note_on_c, 12, 71, 100
14, 12432, Note_off_c, 12, 71, 0
14, 12432, Note_on_c, 12, 74, 100
14, 12576, Note_off_c, 12, 74, 0
14, 12576, Note_on_c, 12, 67, 100
14, 12672, Note_off_c, 12, 67, 0
14, 12672, Note_on_c, 12, 63, 100
14, 12768, Note_off_c, 12, 63, 0
14, 12768, Note_on_c, 12, 62, 100
14, 12864, Note_off_c, 12, 62, 0
14, 12864, Note_on_c, 12, 60, 100
14, 13056, Note_off_c, 12, 60, 0
14, 13104, Note_on_c, 12, 60, 100
14, 13152, Note_off_c, 12, 60, 0
14, 13200, Note_on_c, 12, 60, 100
14, 13248, Note_off_c, 12, 60, 0
14, 13248, Note_on_c, 12, 59, 100
14, 13296, Note_off_c, 12, 59, 0
14, 13296, Note_on_c, 12, 60, 100
14, 13344, Note_off_c, 12, 60, 0
14, 13392, Note_on_c, 12, 60, 100
14, 13440, Note_off_c, 12, 60, 0
14, 13488, Note_on_c, 12, 60, 100
14, 13536, Note_off_c, 12, 60, 0
14, 13584, Note_on_c, 12, 60, 100
14, 13632, Note_off_c, 12, 60, 0
14, 13632, Note_on_c, 12, 59, 100
14, 13680, Note_off_c, 12, 59, 0
14, 13680, Note_on_c, 12, 60, 100
14, 13728, Note_off_c, 12, 60, 0
14, 13728, Note_on_c, 12, 62, 100
14, 13776, Note_off_c, 12, 62, 0
14, 13776, Note_on_c, 12, 59, 100
14, 13824, Note_off_c, 12, 59, 0
14, 13872, Note_on_c, 12, 60, 100
14, 13920, Note_off_c, 12, 60, 0
14, 13968, Note_on_c, 12, 60, 100
14, 14016, Note_off_c, 12, 60, 0
14, 14016, Note_on_c, 12, 59, 100
14, 14064, Note_off_c, 12, 59, 0
14, 14064, Note_on_c, 12, 60, 100
14, 14112, Note_off_c, 12, 60, 0
14, 14160, Note_on_c, 12, 60, 100
14, 14208, Note_off_c, 12, 60, 0
14, 14256, Note_on_c, 12, 60, 100
14, 14304, Note_off_c, 12, 60, 0
14, 14352, Note_on_c, 12, 60, 100
14, 14400, Note_off_c, 12, 60, 0
14, 14400, Note_on_c, 12, 59, 100
14, 14448, Note_off_c, 12, 59, 0
14, 14448, Note_on_c, 12, 55, 64
14, 14496, Note_off_c, 12, 55, 0
14, 14496, Note_on_c, 12, 53, 64
14, 14544, Note_off_c, 12, 53, 0
14, 14544, Note_on_c, 12, 59, 100
14, 14592, Note_off_c, 12, 59, 0
14, 14640, Note_on_c, 12, 60, 100
14, 14688, Note_off_c, 12, 60, 0
14, 14736, Note_on_c, 12, 60, 100
14, 14784, Note_off_c, 12, 60, 0
14, 14784, Note_on_c, 12, 59, 100
14, 14832, Note_off_c, 12, 59, 0
14, 14832, Note_on_c, 12, 60, 100
14, 14880, Note_off_c, 12, 60, 0
14, 14928, Note_on_c, 12, 60, 100
14, 14976, Note_off_c, 12, 60, 0
14, 15024, Note_on_c, 12, 60, 100
14, 15072, Note_off_c, 12, 60, 0
14, 15120, Note_on_c, 12, 60, 100
14, 15168, Note_off_c, 12, 60, 0
14, 15168, Note_on_c, 12, 59, 100
14, 15216, Note_off_c, 12, 59, 0
14, 15216, Note_on_c, 12, 60, 100
14, 15264, Note_off_c, 12, 60, 0
14, 15264, Note_on_c, 12, 62, 100
14, 15312, Note_off_c, 12, 62, 0
14, 15312, Note_on_c, 12, 59, 100
14, 15360, Note_off_c, 12, 59, 0
14, 15408, Note_on_c, 12, 60, 100
14, 15456, Note_off_c, 12, 60, 0
14, 15504, Note_on_c, 12, 60, 100
14, 15552, Note_off_c, 12, 60, 0
14, 15552, Note_on_c, 12, 59, 100
14, 15600, Note_off_c, 12, 59, 0
14, 15600, Note_on_c, 12, 60, 100
14, 15648, Note_off_c, 12, 60, 0
14, 15696, Note_on_c, 12, 60, 100
14, 15744, Note_off_c, 12, 60, 0
14, 15792, Note_on_c, 12, 60, 100
14, 15840, Note_off_c, 12, 60, 0
14, 15888, Note_on_c, 12, 60, 100
14, 15936, Note_off_c, 12, 60, 0
14, 15936, Note_on_c, 12, 59, 100
14, 15984, Note_off_c, 12, 59, 0
14, 15984, Note_on_c, 12, 55, 64
14, 16032, Note_off_c, 12, 55, 0
14, 16032, Note_on_c, 12, 53, 64
14, 16080, Note_off_c, 12, 53, 0
14, 16080, Note_on_c, 12, 59, 100
14, 16128, Note_off_c, 12, 59, 0
14, 16176, Note_on_c, 12, 60, 100
14, 16224, Note_off_c, 12, 60, 0
14, 16272, Note_on_c, 12, 60, 100
14, 16320, Note_off_c, 12, 60, 0
14, 16320, Note_on_c, 12, 59, 100
14, 16368, Note_off_c, 12, 59, 0
14, 16368, Note_on_c, 12, 60, 100
14, 16416, Note_off_c, 12, 60, 0
14, 16464, Note_on_c, 12, 60, 100
14, 16512, Note_off_c, 12, 60, 0
14, 16560, Note_on_c, 12, 60, 100
14, 16608, Note_off_c, 12, 60, 0
14, 16656, Note_on_c, 12, 60, 100
14, 16704, Note_off_c, 12, 60, 0
14, 16704, Note_on_c, 12, 59, 100
14, 16752, Note_off_c, 12, 59, 0
14, 16752, Note_on_c, 12, 60, 100
14, 16800, Note_off_c, 12, 60, 0
14, 16800, Note_on_c, 12, 62, 100
14, 16848, Note_off_c, 12, 62, 0
14, 16848, Note_on_c, 12, 59, 100
14, 16896, Note_off_c, 12, 59, 0
14, 16944, Note_on_c, 12, 60, 100
14, 16992, Note_off_c, 12, 60, 0
14, 17040, Note_on_c, 12, 60, 100
14, 17088, Note_off_c, 12, 60, 0
14, 17088, Note_on_c, 12, 59, 100
14, 17136, Note_off_c, 12, 59, 0
14, 17136, Note_on_c, 12, 60, 100
14, 17184, Note_off_c, 12, 60, 0
14, 17232, Note_on_c, 12, 60, 100
14, 17280, Note_off_c, 12, 60, 0
14, 17328, Note_on_c, 12, 60, 100
14, 17376, Note_off_c, 12, 60, 0
14, 17424, Note_on_c, 12, 60, 100
14, 17472, Note_off_c, 12, 60, 0
14, 17472, Note_on_c, 12, 59, 100
14, 17520, Note_off_c, 12, 59, 0
14, 17520, Note_on_c, 12, 55, 64
14, 17568, Note_off_c, 12, 55, 0
14, 17568, Note_on_c, 12, 53, 64
14, 17616, Note_off_c, 12, 53, 0
14, 17616, Note_on_c, 12, 59, 100
14, 17664, Note_off_c, 12, 59, 0
14, 17712, Note_on_c, 12, 60, 100
14, 17760, Note_off_c, 12, 60, 0
14, 17808, Note_on_c, 12, 60, 100
14, 17856, Note_off_c, 12, 60, 0
14, 17856, Note_on_c, 12, 59, 100
14, 17904, Note_off_c, 12, 59, 0
14, 17904, Note_on_c, 12, 60, 100
14, 17952, Note_off_c, 12, 60, 0
14, 18000, Note_on_c, 12, 60, 100
14, 18048, Note_off_c, 12, 60, 0
14, 18096, Note_on_c, 12, 60, 100
14, 18144, Note_off_c, 12, 60, 0
14, 18192, Note_on_c, 12, 60, 100
14, 18240, Note_off_c, 12, 60, 0
14, 18240, Note_on_c, 12, 59, 100
14, 18288, Note_off_c, 12, 59, 0
14, 18288, Note_on_c, 12, 60, 100
14, 18336, Note_off_c, 12, 60, 0
14, 18336, Note_on_c, 12, 62, 100
14, 18384, Note_off_c, 12, 62, 0
14, 18384, Note_on_c, 12, 59, 100
14, 18432, Note_off_c, 12, 59, 0
14, 18480, Note_on_c, 12, 60, 100
14, 18528, Note_off_c, 12, 60, 0
14, 18576, Note_on_c, 12, 60, 100
14, 18624, Note_off_c, 12, 60, 0
14, 18624, Note_on_c, 12, 59, 100
14, 18672, Note_off_c, 12, 59, 0
14, 18672, Note_on_c, 12, 60, 100
14, 18720, Note_off_c, 12, 60, 0
14, 18768, Note_on_c, 12, 60, 100
14, 18816, Note_off_c, 12, 60, 0
14, 18864, Note_on_c, 12, 60, 100
14, 18912, Note_off_c, 12, 60, 0
14, 18960, Note_on_c, 12, 60, 100
14, 19008, Note_off_c, 12, 60, 0
14, 19008, Note_on_c, 12, 59, 100
14, 19056, Note_off_c, 12, 59, 0
14, 19056, Note_on_c, 12, 55, 64
14, 19104, Note_off_c, 12, 55, 0
14, 19104, Note_on_c, 12, 53, 64
14, 19152, Note_off_c, 12, 53, 0
14, 19152, Note_on_c, 12, 59, 100
14, 19200, Note_off_c, 12, 59, 0
14, 22272, Note_on_c, 12, 60, 100
14, 22320, Note_off_c, 12, 60, 0
14, 22320, Note_on_c, 12, 55, 100
14, 22344, Note_off_c, 12, 55, 0
14, 22344, Note_on_c, 12, 60, 100
14, 22368, Note_off_c, 12, 60, 0
14, 22368, Note_on_c, 12, 62, 100
14, 22416, Note_off_c, 12, 62, 0
14, 22416, Note_on_c, 12, 60, 100
14, 22440, Note_off_c, 12, 60, 0
14, 22440, Note_on_c, 12, 62, 100
14, 22464, Note_off_c, 12, 62, 0
14, 22464, Note_on_c, 12, 63, 100
14, 22512, Note_off_c, 12, 63, 0
14, 22512, Note_on_c, 12, 62, 100
14, 22536, Note_off_c, 12, 62, 0
14, 22536, Note_on_c, 12, 63, 100
14, 22560, Note_off_c, 12, 63, 0
14, 22560, Note_on_c, 12, 65, 100
14, 22608, Note_off_c, 12, 65, 0
14, 22608, Note_on_c, 12, 63, 100
14, 22632, Note_off_c, 12, 63, 0
14, 22632, Note_on_c, 12, 65, 100
14, 22656, Note_off_c, 12, 65, 0
14, 22656, Note_on_c, 12, 67, 100
14, 22704, Note_off_c, 12, 67, 0
14, 22704, Note_on_c, 12, 65, 100
14, 22728, Note_off_c, 12, 65, 0
14, 22728, Note_on_c, 12, 67, 100
14, 22752, Note_off_c, 12, 67, 0
14, 22752, Note_on_c, 12, 68, 100
14, 22800, Note_off_c, 12, 68, 0
14, 22800, Note_on_c, 12, 67, 100
14, 22824, Note_off_c, 12, 67, 0
14, 22824, Note_on_c, 12, 68, 100
14, 22848, Note_off_c, 12, 68, 0
14, 22848, Note_on_c, 12, 67, 100
14, 22896, Note_off_c, 12, 67, 0
14, 22896, Note_on_c, 12, 65, 100
14, 22920, Note_off_c, 12, 65, 0
14, 22920, Note_on_c, 12, 67, 100
14, 22944, Note_off_c, 12, 67, 0
14, 22944, Note_on_c, 12, 65, 100
14, 22992, Note_off_c, 12, 65, 0
14, 22992, Note_on_c, 12, 63, 100
14, 23016, Note_off_c, 12, 63, 0
14, 23016, Note_on_c, 12, 62, 100
14, 23040, Note_off_c, 12, 62, 0
14, 23040, Note_on_c, 12, 60, 100
14, 23088, Note_off_c, 12, 60, 0
14, 23088, Note_on_c, 12, 55, 100
14, 23112, Note_off_c, 12, 55, 0
14, 23112, Note_on_c, 12, 60, 100
14, 23136, Note_off_c, 12, 60, 0
14, 23136, Note_on_c, 12, 62, 100
14, 23184, Note_off_c, 12, 62, 0
14, 23184, Note_on_c, 12, 60, 100
14, 23208, Note_off_c, 12, 60, 0
14, 23208, Note_on_c, 12, 62, 100
14, 23232, Note_off_c, 12, 62, 0
14, 23232, Note_on_c, 12, 63, 100
14, 23280, Note_off_c, 12, 63, 0
14, 23280, Note_on_c, 12, 62, 100
14, 23304, Note_off_c, 12, 62, 0
14, 23304, Note_on_c, 12, 63, 100
14, 23328, Note_off_c, 12, 63, 0
14, 23328, Note_on_c, 12, 65, 100
14, 23376, Note_off_c, 12, 65, 0
14, 23376, Note_on_c, 12, 63, 100
14, 23400, Note_off_c, 12, 63, 0
14, 23400, Note_on_c, 12, 65, 100
14, 23424, Note_off_c, 12, 65, 0
14, 23424, Note_on_c, 12, 67, 100
14, 23472, Note_off_c, 12, 67, 0
14, 23472, Note_on_c, 12, 65, 100
14, 23496, Note_off_c, 12, 65, 0
14, 23496, Note_on_c, 12, 67, 100
14, 23520, Note_off_c, 12, 67, 0
14, 23520, Note_on_c, 12, 68, 100
14, 23568, Note_off_c, 12, 68, 0
14, 23568, Note_on_c, 12, 67, 100
14, 23592, Note_off_c, 12, 67, 0
14, 23592, Note_on_c, 12, 68, 100
14, 23616, Note_off_c, 12, 68, 0
14, 23616, Note_on_c, 12, 67, 100
14, 23664, Note_off_c, 12, 67, 0
14, 23664, Note_on_c, 12, 65, 100
14, 23688, Note_off_c, 12, 65, 0
14, 23688, Note_on_c, 12, 67, 100
14, 23712, Note_off_c, 12, 67, 0
14, 23712, Note_on_c, 12, 65, 100
14, 23760, Note_off_c, 12, 65, 0
14, 23760, Note_on_c, 12, 63, 100
14, 23784, Note_off_c, 12, 63, 0
14, 23784, Note_on_c, 12, 62, 100
14, 23808, Note_off_c, 12, 62, 0
14, 23808, Note_on_c, 12, 60, 100
14, 23856, Note_off_c, 12, 60, 0
14, 23856, Note_on_c, 12, 55, 100
14, 23880, Note_off_c, 12, 55, 0
14, 23880, Note_on_c, 12, 60, 100
14, 23904, Note_off_c, 12, 60, 0
14, 23904, Note_on_c, 12, 62, 100
14, 23952, Note_off_c, 12, 62, 0
14, 23952, Note_on_c, 12, 60, 100
14, 23976, Note_off_c, 12, 60, 0
14, 23976, Note_on_c, 12, 62, 100
14, 24000, Note_off_c, 12, 62, 0
14, 24000, Note_on_c, 12, 63, 100
14, 24048, Note_off_c, 12, 63, 0
14, 24048, Note_on_c, 12, 62, 100
14, 24072, Note_off_c, 12, 62, 0
14, 24072, Note_on_c, 12, 63, 100
14, 24096, Note_off_c, 12, 63, 0
14, 24096, Note_on_c, 12, 65, 100
14, 24144, Note_off_c, 12, 65, 0
14, 24144, Note_on_c, 12, 63, 100
14, 24168, Note_off_c, 12, 63, 0
14, 24168, Note_on_c, 12, 65, 100
14, 24192, Note_off_c, 12, 65, 0
14, 24192, Note_on_c, 12, 67, 100
14, 24240, Note_off_c, 12, 67, 0
14, 24240, Note_on_c, 12, 65, 100
14, 24264, Note_off_c, 12, 65, 0
14, 24264, Note_on_c, 12, 67, 100
14, 24288, Note_off_c, 12, 67, 0
14, 24288, Note_on_c, 12, 68, 100
14, 24336, Note_off_c, 12, 68, 0
14, 24336, Note_on_c, 12, 67, 100
14, 24360, Note_off_c, 12, 67, 0
14, 24360, Note_on_c, 12, 68, 100
14, 24384, Note_off_c, 12, 68, 0
14, 24384, Note_on_c, 12, 67, 100
14, 24432, Note_off_c, 12, 67, 0
14, 24432, Note_on_c, 12, 65, 100
14, 24456, Note_off_c, 12, 65, 0
14, 24456, Note_on_c, 12, 67, 100
14, 24480, Note_off_c, 12, 67, 0
14, 24480, Note_on_c, 12, 65, 100
14, 24528, Note_off_c, 12, 65, 0
14, 24528, Note_on_c, 12, 63, 100
14, 24552, Note_off_c, 12, 63, 0
14, 24552, Note_on_c, 12, 62, 100
14, 24576, Note_off_c, 12, 62, 0
14, 24576, Note_on_c, 12, 60, 100
14, 24608, Note_off_c, 12, 60, 0
14, 24608, Note_on_c, 12, 55, 100
14, 24640, Note_off_c, 12, 55, 0
14, 24640, Note_on_c, 12, 60, 100
14, 24672, Note_off_c, 12, 60, 0
14, 24672, Note_on_c, 12, 62, 100
14, 24704, Note_off_c, 12, 62, 0
14, 24704, Note_on_c, 12, 60, 100
14, 24736, Note_off_c, 12, 60, 0
14, 24736, Note_on_c, 12, 62, 100
14, 24768, Note_off_c, 12, 62, 0
14, 24768, Note_on_c, 12, 63, 100
14, 24800, Note_off_c, 12, 63, 0
14, 24800, Note_on_c, 12, 62, 100
14, 24832, Note_off_c, 12, 62, 0
14, 24832, Note_on_c, 12, 63, 100
14, 24864, Note_off_c, 12, 63, 0
14, 24864, Note_on_c, 12, 65, 100
14, 24896, Note_off_c, 12, 65, 0
14, 24896, Note_on_c, 12, 63, 100
14, 24928, Note_off_c, 12, 63, 0
14, 24928, Note_on_c, 12, 65, 100
14, 24960, Note_off_c, 12, 65, 0
14, 24960, Note_on_c, 12, 67, 100
14, 25152, Note_off_c, 12, 67, 0
14, 25152, Note_on_c, 12, 79, 100
14, 25344, Note_off_c, 12, 79, 0
14, 37632, Note_on_c, 12, 80, 127
14, 37920, Note_off_c, 12, 80, 0
14, 37920, Note_on_c, 12, 84, 100
14, 38016, Note_off_c, 12, 84, 0
14, 38016, Note_on_c, 12, 79, 100
14, 38112, Note_off_c, 12, 79, 0
14, 38112, Note_on_c, 12, 75, 100
14, 38208, Note_off_c, 12, 75, 0
14, 38208, Note_on_c, 12, 74, 100
14, 38304, Note_off_c, 12, 74, 0
14, 38304, Note_on_c, 12, 75, 100
14, 38400, Note_off_c, 12, 75, 0
14, 38400, Note_on_c, 12, 79, 100
14, 38544, Note_off_c, 12, 79, 0
14, 38544, Note_on_c, 12, 74, 100
14, 38640, Note_off_c, 12, 74, 0
14, 38640, Note_on_c, 12, 79, 100
14, 38736, Note_off_c, 12, 79, 0
14, 38736, Note_on_c, 12, 77, 100
14, 38880, Note_off_c, 12, 77, 0
14, 38880, Note_on_c, 12, 74, 100
14, 38976, Note_off_c, 12, 74, 0
14, 38976, Note_on_c, 12, 71, 100
14, 39072, Note_off_c, 12, 71, 0
14, 39072, Note_on_c, 12, 74, 100
14, 39168, Note_off_c, 12, 74, 0
14, 39168, Note_on_c, 12, 75, 100
14, 39264, Note_off_c, 12, 75, 0
14, 39264, Note_on_c, 12, 74, 100
14, 39312, Note_off_c, 12, 74, 0
14, 39312, Note_on_c, 12, 75, 100
14, 39408, Note_off_c, 12, 75, 0
14, 39408, Note_on_c, 12, 77, 100
14, 39504, Note_off_c, 12, 77, 0
14, 39504, Note_on_c, 12, 75, 100
14, 39552, Note_off_c, 12, 75, 0
14, 39552, Note_on_c, 12, 77, 100
14, 39648, Note_off_c, 12, 77, 0
14, 39648, Note_on_c, 12, 79, 100
14, 39744, Note_off_c, 12, 79, 0
14, 39744, Note_on_c, 12, 77, 100
14, 39840, Note_off_c, 12, 77, 0
14, 39840, Note_on_c, 12, 75, 100
14, 39936, Note_off_c, 12, 75, 0
14, 39936, Note_on_c, 12, 74, 100
14, 40032, Note_off_c, 12, 74, 0
14, 40032, Note_on_c, 12, 71, 100
14, 40080, Note_off_c, 12, 71, 0
14, 40080, Note_on_c, 12, 74, 100
14, 40224, Note_off_c, 12, 74, 0
14, 40224, Note_on_c, 12, 67, 100
14, 40320, Note_off_c, 12, 67, 0
14, 40320, Note_on_c, 12, 68, 100
14, 40416, Note_off_c, 12, 68, 0
14, 40416, Note_on_c, 12, 67, 100
14, 40464, Note_off_c, 12, 67, 0
14, 40464, Note_on_c, 12, 74, 100
14, 40560, Note_off_c, 12, 74, 0
14, 40560, Note_on_c, 12, 71, 100
14, 40608, Note_off_c, 12, 71, 0
14, 40608, Note_on_c, 12, 74, 100
14, 40656, Note_off_c, 12, 74, 0
14, 40656, Note_on_c, 12, 79, 100
14, 40704, Note_off_c, 12, 79, 0
14, 40704, Note_on_c, 12, 80, 100
14, 40992, Note_off_c, 12, 80, 0
14, 40992, Note_on_c, 12, 84, 100
14, 41088, Note_off_c, 12, 84, 0
14, 41088, Note_on_c, 12, 79, 100
14, 41184, Note_off_c, 12, 79, 0
14, 41184, Note_on_c, 12, 75, 100
14, 41280, Note_off_c, 12, 75, 0
14, 41280, Note_on_c, 12, 74, 100
14, 41376, Note_off_c, 12, 74, 0
14, 41376, Note_on_c, 12, 75, 100
14, 41472, Note_off_c, 12, 75, 0
14, 41472, Note_on_c, 12, 79, 100
14, 41616, Note_off_c, 12, 79, 0
14, 41616, Note_on_c, 12, 74, 100
14, 41712, Note_off_c, 12, 74, 0
14, 41712, Note_on_c, 12, 79, 100
14, 41808, Note_off_c, 12, 79, 0
14, 41808, Note_on_c, 12, 77, 100
14, 41952, Note_off_c, 12, 77, 0
14, 41952, Note_on_c, 12, 74, 100
14, 42048, Note_off_c, 12, 74, 0
14, 42048, Note_on_c, 12, 71, 100
14, 42144, Note_off_c, 12, 71, 0
14, 42144, Note_on_c, 12, 74, 100
14, 42240, Note_off_c, 12, 74, 0
14, 42240, Note_on_c, 12, 75, 100
14, 42336, Note_off_c, 12, 75, 0
14, 42336, Note_on_c, 12, 74, 100
14, 42384, Note_off_c, 12, 74, 0
14, 42384, Note_on_c, 12, 75, 100
14, 42480, Note_off_c, 12, 75, 0
14, 42480, Note_on_c, 12, 77, 100
14, 42576, Note_off_c, 12, 77, 0
14, 42576, Note_on_c, 12, 75, 100
14, 42624, Note_off_c, 12, 75, 0
14, 42624, Note_on_c, 12, 77, 100
14, 42720, Note_off_c, 12, 77, 0
14, 42720, Note_on_c, 12, 79, 100
14, 42816, Note_off_c, 12, 79, 0
14, 42816, Note_on_c, 12, 77, 100
14, 42912, Note_off_c, 12, 77, 0
14, 42912, Note_on_c, 12, 75, 100
14, 43008, Note_off_c, 12, 75, 0
14, 43008, Note_on_c, 12, 74, 100
14, 43104, Note_off_c, 12, 74, 0
14, 43104, Note_on_c, 12, 71, 100
14, 43152, Note_off_c, 12, 71, 0
14, 43152, Note_on_c, 12, 74, 100
14, 43296, Note_off_c, 12, 74, 0
14, 43296, Note_on_c, 12, 67, 100
14, 43392, Note_off_c, 12, 67, 0
14, 43392, Note_on_c, 12, 63, 100
14, 43488, Note_off_c, 12, 63, 0
14, 43488, Note_on_c, 12, 62, 100
14, 43584, Note_off_c, 12, 62, 0
14, 43584, Note_on_c, 12, 60, 100
14, 43776, Note_off_c, 12, 60, 0
14, 43824, Note_on_c, 12, 60, 100
14, 43872, Note_off_c, 12, 60, 0
14, 43920, Note_on_c, 12, 60, 100
14, 43968, Note_off_c, 12, 60, 0
14, 43968, Note_on_c, 12, 59, 100
14, 44016, Note_off_c, 12, 59, 0
14, 44016, Note_on_c, 12, 60, 100
14, 44064, Note_off_c, 12, 60, 0
14, 44112, Note_on_c, 12, 60, 100
14, 44160, Note_off_c, 12, 60, 0
14, 44208, Note_on_c, 12, 60, 100
14, 44256, Note_off_c, 12, 60, 0
14, 44304, Note_on_c, 12, 60, 100
14, 44352, Note_off_c, 12, 60, 0
14, 44352, Note_on_c, 12, 59, 100
14, 44400, Note_off_c, 12, 59, 0
14, 44400, Note_on_c, 12, 60, 100
14, 44448, Note_off_c, 12, 60, 0
14, 44448, Note_on_c, 12, 62, 100
14, 44496, Note_off_c, 12, 62, 0
14, 44496, Note_on_c, 12, 59, 100
14, 44544, Note_off_c, 12, 59, 0
14, 44592, Note_on_c, 12, 60, 100
14, 44640, Note_off_c, 12, 60, 0
14, 44688, Note_on_c, 12, 60, 100
14, 44736, Note_off_c, 12, 60, 0
14, 44736, Note_on_c, 12, 59, 100
14, 44784, Note_off_c, 12, 59, 0
14, 44784, Note_on_c, 12, 60, 100
14, 44832, Note_off_c, 12, 60, 0
14, 44880, Note_on_c, 12, 60, 100
14, 44928, Note_off_c, 12, 60, 0
14, 44976, Note_on_c, 12, 60, 100
14, 45024, Note_off_c, 12, 60, 0
14, 45072, Note_on_c, 12, 60, 100
14, 45120, Note_off_c, 12, 60, 0
14, 45120, Note_on_c, 12, 59, 100
14, 45168, Note_off_c, 12, 59, 0
14, 45168, Note_on_c, 12, 55, 64
14, 45216, Note_off_c, 12, 55, 0
14, 45216, Note_on_c, 12, 53, 64
14, 45264, Note_off_c, 12, 53, 0
14, 45264, Note_on_c, 12, 59, 100
14, 45312, Note_off_c, 12, 59, 0
14, 45360, Note_on_c, 12, 60, 100
14, 45408, Note_off_c, 12, 60, 0
14, 45456, Note_on_c, 12, 60, 100
14, 45504, Note_off_c, 12, 60, 0
14, 45504, Note_on_c, 12, 59, 100
14, 45552, Note_off_c, 12, 59, 0
14, 45552, Note_on_c, 12, 60, 100
14, 45600, Note_off_c, 12, 60, 0
14, 45648, Note_on_c, 12, 60, 100
14, 45696, Note_off_c, 12, 60, 0
14, 45744, Note_on_c, 12, 60, 100
14, 45792, Note_off_c, 12, 60, 0
14, 45840, Note_on_c, 12, 60, 100
14, 45888, Note_off_c, 12, 60, 0
14, 45888, Note_on_c, 12, 59, 100
14, 45936, Note_off_c, 12, 59, 0
14, 45936, Note_on_c, 12, 60, 100
14, 45984, Note_off_c, 12, 60, 0
14, 45984, Note_on_c, 12, 62, 100
14, 46032, Note_off_c, 12, 62, 0
14, 46032, Note_on_c, 12, 59, 100
14, 46080, Note_off_c, 12, 59, 0
14, 46128, Note_on_c, 12, 60, 100
14, 46176, Note_off_c, 12, 60, 0
14, 46224, Note_on_c, 12, 60, 100
14, 46272, Note_off_c, 12, 60, 0
14, 46272, Note_on_c, 12, 59, 100
14, 46320, Note_off_c, 12, 59, 0
14, 46320, Note_on_c, 12, 60, 100
14, 46368, Note_off_c, 12, 60, 0
14, 46416, Note_on_c, 12, 60, 100
14, 46464, Note_off_c, 12, 60, 0
14, 46512, Note_on_c, 12, 60, 100
14, 46560, Note_off_c, 12, 60, 0
14, 46608, Note_on_c, 12, 60, 100
14, 46656, Note_off_c, 12, 60, 0
14, 46656, Note_on_c, 12, 59, 100
14, 46704, Note_off_c, 12, 59, 0
14, 46704, Note_on_c, 12, 55, 64
14, 46752, Note_off_c, 12, 55, 0
14, 46752, Note_on_c, 12, 53, 64
14, 46800, Note_off_c, 12, 53, 0
14, 46800, Note_on_c, 12, 59, 100
14, 46848, Note_off_c, 12, 59, 0
14, 46896, Note_on_c, 12, 60, 100
14, 46944, Note_off_c, 12, 60, 0
14, 46992, Note_on_c, 12, 60, 100
14, 47040, Note_off_c, 12, 60, 0
14, 47040, Note_on_c, 12, 59, 100
14, 47088, Note_off_c, 12, 59, 0
14, 47088, Note_on_c, 12, 60, 100
14, 47136, Note_off_c, 12, 60, 0
14, 47184, Note_on_c, 12, 60, 100
14, 47232, Note_off_c, 12, 60, 0
14, 47280, Note_on_c, 12, 60, 100
14, 47328, Note_off_c, 12, 60, 0
14, 47376, Note_on_c, 12, 60, 100
14, 47424, Note_off_c, 12, 60, 0
14, 47424, Note_on_c, 12, 59, 100
14, 47472, Note_off_c, 12, 59, 0
14, 47472, Note_on_c, 12, 60, 100
14, 47520, Note_off_c, 12, 60, 0
14, 47520, Note_on_c, 12, 62, 100
14, 47568, Note_off_c, 12, 62, 0
14, 47568, Note_on_c, 12, 59, 100
14, 47616, Note_off_c, 12, 59, 0
14, 47664, Note_on_c, 12, 60, 100
14, 47712, Note_off_c, 12, 60, 0
14, 47760, Note_on_c, 12, 60, 100
14, 47808, Note_off_c, 12, 60, 0
14, 47808, Note_on_c, 12, 59, 100
14, 47856, Note_off_c, 12, 59, 0
14, 47856, Note_on_c, 12, 60, 100
14, 47904, Note_off_c, 12, 60, 0
14, 47952, Note_on_c, 12, 60, 100
14, 48000, Note_off_c, 12, 60, 0
14, 48048, Note_on_c, 12, 60, 100
14, 48096, Note_off_c, 12, 60, 0
14, 48144, Note_on_c, 12, 60, 100
14, 48192, Note_off_c, 12, 60, 0
14, 48192, Note_on_c, 12, 59, 100
14, 48240, Note_off_c, 12, 59, 0
14, 48240, Note_on_c, 12, 55, 64
14, 48288, Note_off_c, 12, 55, 0
14, 48288, Note_on_c, 12, 53, 64
14, 48336, Note_off_c, 12, 53, 0
14, 48336, Note_on_c, 12, 59, 100
14, 48384, Note_off_c, 12, 59, 0
14, 48432, Note_on_c, 12, 60, 100
14, 48480, Note_off_c, 12, 60, 0
14, 48528, Note_on_c, 12, 60, 100
14, 48576, Note_off_c, 12, 60, 0
14, 48576, Note_on_c, 12, 59, 100
14, 48624, Note_off_c, 12, 59, 0
14, 48624, Note_on_c, 12, 60, 100
14, 48672, Note_off_c, 12, 60, 0
14, 48720, Note_on_c, 12, 60, 100
14, 48768, Note_off_c, 12, 60, 0
14, 48816, Note_on_c, 12, 60, 100
14, 48864, Note_off_c, 12, 60, 0
14, 48912, Note_on_c, 12, 60, 100
14, 48960, Note_off_c, 12, 60, 0
14, 48960, Note_on_c, 12, 59, 100
14, 49008, Note_off_c, 12, 59, 0
14, 49008, Note_on_c, 12, 60, 100
14, 49056, Note_off_c, 12, 60, 0
14, 49056, Note_on_c, 12, 62, 100
14, 49104, Note_off_c, 12, 62, 0
14, 49104, Note_on_c, 12, 59, 100
14, 49152, Note_off_c, 12, 59, 0
14, 49200, Note_on_c, 12, 60, 100
14, 49248, Note_off_c, 12, 60, 0
14, 49296, Note_on_c, 12, 60, 100
14, 49344, Note_off_c, 12, 60, 0
14, 49344, Note_on_c, 12, 59, 100
14, 49392, Note_off_c, 12, 59, 0
14, 49392, Note_on_c, 12, 60, 100
14, 49440, Note_off_c, 12, 60, 0
14, 49488, Note_on_c, 12, 60, 100
14, 49536, Note_off_c, 12, 60, 0
14, 49584, Note_on_c, 12, 60, 100
14, 49632, Note_off_c, 12, 60, 0
14, 49680, Note_on_c, 12, 60, 100
14, 49728, Note_off_c, 12, 60, 0
14, 49728, Note_on_c, 12, 59, 100
14, 49776, Note_off_c, 12, 59, 0
14, 49776, Note_on_c, 12, 55, 64
14, 49824, Note_off_c, 12, 55, 0
14, 49824, Note_on_c, 12, 53, 64
14, 49872, Note_off_c, 12, 53, 0
14, 49872, Note_on_c, 12, 59, 100
14, 49920, Note_off_c, 12, 59, 0
14, 52992, Note_on_c, 12, 60, 100
14, 53040, Note_off_c, 12, 60, 0
14, 53040, Note_on_c, 12, 55, 100
14, 53064, Note_off_c, 12, 55, 0
14, 53064, Note_on_c, 12, 60, 100
14, 53088, Note_off_c, 12, 60, 0
14, 53088, Note_on_c, 12, 62, 100
14, 53136, Note_off_c, 12, 62, 0
14, 53136, Note_on_c, 12, 60, 100
14, 53160, Note_off_c, 12, 60, 0
14, 53160, Note_on_c, 12, 62, 100
14, 53184, Note_off_c, 12, 62, 0
14, 53184, Note_on_c, 12, 63, 100
14, 53232, Note_off_c, 12, 63, 0
14, 53232, Note_on_c, 12, 62, 100
14, 53256, Note_off_c, 12, 62, 0
14, 53256, Note_on_c, 12, 63, 100
14, 53280, Note_off_c, 12, 63, 0
14, 53280, Note_on_c, 12, 65, 100
14, 53328, Note_off_c, 12, 65, 0
14, 53328, Note_on_c, 12, 63, 100
14, 53352, Note_off_c, 12, 63, 0
14, 53352, Note_on_c, 12, 65, 100
14, 53376, Note_off_c, 12, 65, 0
14, 53376, Note_on_c, 12, 67, 100
14, 53424, Note_off_c, 12, 67, 0
14, 53424, Note_on_c, 12, 65, 100
14, 53448, Note_off_c, 12, 65, 0
14, 53448, Note_on_c, 12, 67, 100
14, 53472, Note_off_c, 12, 67, 0
14, 53472, Note_on_c, 12, 68, 100
14, 53520, Note_off_c, 12, 68, 0
14, 53520, Note_on_c, 12, 67, 100
14, 53544, Note_off_c, 12, 67, 0
14, 53544, Note_on_c, 12, 68, 100
14, 53568, Note_off_c, 12, 68, 0
14, 53568, Note_on_c, 12, 67, 100
14, 53616, Note_off_c, 12, 67, 0
14, 53616, Note_on_c, 12, 65, 100
14, 53640, Note_off_c, 12, 65, 0
14, 53640, Note_on_c, 12, 67, 100
14, 53664, Note_off_c, 12, 67, 0
14, 53664, Note_on_c, 12, 65, 100
14, 53712, Note_off_c, 12, 65, 0
14, 53712, Note_on_c, 12, 63, 100
14, 53736, Note_off_c, 12, 63, 0
14, 53736, Note_on_c, 12, 62, 100
14, 53760, Note_off_c, 12, 62, 0
14, 53760, Note_on_c, 12, 60, 100
14, 53808, Note_off_c, 12, 60, 0
14, 53808, Note_on_c, 12, 55, 100
14, 53832, Note_off_c, 12, 55, 0
14, 53832, Note_on_c, 12, 60, 100
14, 53856, Note_off_c, 12, 60, 0
14, 53856, Note_on_c, 12, 62, 100
14, 53904, Note_off_c, 12, 62, 0
14, 53904, Note_on_c, 12, 60, 100
14, 53928, Note_off_c, 12, 60, 0
14, 53928, Note_on_c, 12, 62, 100
14, 53952, Note_off_c, 12, 62, 0
14, 53952, Note_on_c, 12, 63, 100
14, 54000, Note_off_c, 12, 63, 0
14, 54000, Note_on_c, 12, 62, 100
14, 54024, Note_off_c, 12, 62, 0
14, 54024, Note_on_c, 12, 63, 100
14, 54048, Note_off_c, 12, 63, 0
14, 54048, Note_on_c, 12, 65, 100
14, 54096, Note_off_c, 12, 65, 0
14, 54096, Note_on_c, 12, 63, 100
14, 54120, Note_off_c, 12, 63, 0
14, 54120, Note_on_c, 12, 65, 100
14, 54144, Note_off_c, 12, 65, 0
14, 54144, Note_on_c, 12, 67, 100
14, 54192, Note_off_c, 12, 67, 0
14, 54192, Note_on_c, 12, 65, 100
14, 54216, Note_off_c, 12, 65, 0
14, 54216, Note_on_c, 12, 67, 100
14, 54240, Note_off_c, 12, 67, 0
14, 54240, Note_on_c, 12, 68, 100
14, 54288, Note_off_c, 12, 68, 0
14, 54288, Note_on_c, 12, 67, 100
14, 54312, Note_off_c, 12, 67, 0
14, 54312, Note_on_c, 12, 68, 100
14, 54336, Note_off_c, 12, 68, 0
14, 54336, Note_on_c, 12, 67, 100
14, 54384, Note_off_c, 12, 67, 0
14, 54384, Note_on_c, 12, 65, 100
14, 54408, Note_off_c, 12, 65, 0
14, 54408, Note_on_c, 12, 67, 100
14, 54432, Note_off_c, 12, 67, 0
14, 54432, Note_on_c, 12, 65, 100
14, 54480, Note_off_c, 12, 65, 0
14, 54480, Note_on_c, 12, 63, 100
14, 54504, Note_off_c, 12, 63, 0
14, 54504, Note_on_c, 12, 62, 100
14, 54528, Note_off_c, 12, 62, 0
14, 54528, Note_on_c, 12, 60, 100
14, 54576, Note_off_c, 12, 60, 0
14, 54576, Note_on_c, 12, 55, 100
14, 54600, Note_off_c, 12, 55, 0
14, 54600, Note_on_c, 12, 60, 100
14, 54624, Note_off_c, 12, 60, 0
14, 54624, Note_on_c, 12, 62, 100
14, 54672, Note_off_c, 12, 62, 0
14, 54672, Note_on_c, 12, 60, 100
14, 54696, Note_off_c, 12, 60, 0
14, 54696, Note_on_c, 12, 62, 100
14, 54720, Note_off_c, 12, 62, 0
14, 54720, Note_on_c, 12, 63, 100
14, 54768, Note_off_c, 12, 63, 0
14, 54768, Note_on_c, 12, 62, 100
14, 54792, Note_off_c, 12, 62, 0
14, 54792, Note_on_c, 12, 63, 100
14, 54816, Note_off_c, 12, 63, 0
14, 54816, Note_on_c, 12, 65, 100
14, 54864, Note_off_c, 12, 65, 0
14, 54864, Note_on_c, 12, 63, 100
14, 54888, Note_off_c, 12, 63, 0
14, 54888, Note_on_c, 12, 65, 100
14, 54912, Note_off_c, 12, 65, 0
14, 54912, Note_on_c, 12, 67, 100
14, 54960, Note_off_c, 12, 67, 0
14, 54960, Note_on_c, 12, 65, 100
14, 54984, Note_off_c, 12, 65, 0
14, 54984, Note_on_c, 12, 67, 100
14, 55008, Note_off_c, 12, 67, 0
14, 55008, Note_on_c, 12, 68, 100
14, 55056, Note_off_c, 12, 68, 0
14, 55056, Note_on_c, 12, 67, 100
14, 55080, Note_off_c, 12, 67, 0
14, 55080, Note_on_c, 12, 68, 100
14, 55104, Note_off_c, 12, 68, 0
14, 55104, Note_on_c, 12, 67, 100
14, 55152, Note_off_c, 12, 67, 0
14, 55152, Note_on_c, 12, 65, 100
14, 55176, Note_off_c, 12, 65, 0
14, 55176, Note_on_c, 12, 67, 100
14, 55200, Note_off_c, 12, 67, 0
14, 55200, Note_on_c, 12, 65, 100
14, 55248, Note_off_c, 12, 65, 0
14, 55248, Note_on_c, 12, 63, 100
14, 55272, Note_off_c, 12, 63, 0
14, 55272, Note_on_c, 12, 62, 100
14, 55296, Note_off_c, 12, 62, 0
14, 55296, Note_on_c, 12, 60, 100
14, 55328, Note_off_c, 12, 60, 0
14, 55328, Note_on_c, 12, 55, 100
14, 55360, Note_off_c, 12, 55, 0
14, 55360, Note_on_c, 12, 60, 100
14, 55392, Note_off_c, 12, 60, 0
14, 55392, Note_on_c, 12, 62, 100
14, 55424, Note_off_c, 12, 62, 0
14, 55424, Note_on_c, 12, 60, 100
14, 55456, Note_off_c, 12, 60, 0
14, 55456, Note_on_c, 12, 62, 100
14, 55488, Note_off_c, 12, 62, 0
14, 55488, Note_on_c, 12, 63, 100
14, 55520, Note_off_c, 12, 63, 0
14, 55520, Note_on_c, 12, 62, 100
14, 55552, Note_off_c, 12, 62, 0
14, 55552, Note_on_c, 12, 63, 100
14, 55584, Note_off_c, 12, 63, 0
14, 55584, Note_on_c, 12, 65, 100
14, 55616, Note_off_c, 12, 65, 0
14, 55616, Note_on_c, 12, 63, 100
14, 55648, Note_off_c, 12, 63, 0
14, 55648, Note_on_c, 12, 65, 100
14, 55680, Note_off_c, 12, 65, 0
14, 55680, Note_on_c, 12, 67, 100
14, 55872, Note_off_c, 12, 67, 0
14, 55872, Note_on_c, 12, 79, 100
14, 56064, Note_off_c, 12, 79, 0
14, 62976, Program_c, 12, 29
14, 62976, Pitch_bend_c, 12, 8192
14, 62976, Control_c, 12, 10, 64
14, 62976, End_track
15, 0, Start_track
15, 0, Control_c, 13, 0, 0
15, 0, Control_c, 13, 32, 0
15, 0, Program_c, 13, 115
15, 0, Title_t, "Open Hi-Hats"
15, 0, Control_c, 13, 7, 127
15, 0, Control_c, 13, 10, 64
15, 0, Control_c, 13, 7, 100
15, 0, Pitch_bend_c, 13, 8192
15, 0, Control_c, 13, 10, 64
15, 0, Control_c, 13, 7, 100
15, 0, Pitch_bend_c, 13, 8192
15, 0, Control_c, 13, 10, 64
15, 0, Control_c, 13, 7, 100
15, 0, Pitch_bend_c, 13, 8192
15, 0, Control_c, 13, 10, 64
15, 0, Control_c, 13, 7, 100
15, 0, Pitch_bend_c, 13, 8192
15, 0, Note_on_c, 13, 59, 64
15, 48, Note_off_c, 13, 59, 0
15, 96, Note_on_c, 13, 59, 64
15, 144, Note_off_c, 13, 59, 0
15, 192, Note_on_c, 13, 59, 64
15, 240, Note_off_c, 13, 59, 0
15, 288, Note_on_c, 13, 59, 64
15, 336, Note_off_c, 13, 59, 0
15, 384, Note_on_c, 13, 59, 64
15, 432, Note_off_c, 13, 59, 0
15, 480, Note_on_c, 13, 59, 64
15, 528, Note_off_c, 13, 59, 0
15, 576, Note_on_c, 13, 59, 64
15, 624, Note_off_c, 13, 59, 0
15, 768, Note_on_c, 13, 59, 64
15, 816, Note_off_c, 13, 59, 0
15, 864, Note_on_c, 13, 59, 64
15, 912, Note_off_c, 13, 59, 0
15, 960, Note_on_c, 13, 59, 64
15, 1008, Note_off_c, 13, 59, 0
15, 1056, Note_on_c, 13, 59, 64
15, 1104, Note_off_c, 13, 59, 0
15, 1152, Note_on_c, 13, 59, 64
15, 1200, Note_off_c, 13, 59, 0
15, 1248, Note_on_c, 13, 59, 64
15, 1296, Note_off_c, 13, 59, 0
15, 1344, Note_on_c, 13, 59, 64
15, 1392, Note_off_c, 13, 59, 0
15, 1440, Note_on_c, 13, 59, 64
15, 1488, Note_off_c, 13, 59, 0
15, 1536, Note_on_c, 13, 59, 64
15, 1584, Note_off_c, 13, 59, 0
15, 1632, Note_on_c, 13, 59, 64
15, 1680, Note_off_c, 13, 59, 0
15, 1728, Note_on_c, 13, 59, 64
15, 1776, Note_off_c, 13, 59, 0
15, 1824, Note_on_c, 13, 59, 64
15, 1872, Note_off_c, 13, 59, 0
15, 1920, Note_on_c, 13, 59, 64
15, 1968, Note_off_c, 13, 59, 0
15, 2064, Note_on_c, 13, 59, 64
15, 2112, Note_off_c, 13, 59, 0
15, 2208, Note_on_c, 13, 59, 64
15, 2256, Note_off_c, 13, 59, 0
15, 2304, Note_on_c, 13, 59, 64
15, 2352, Note_off_c, 13, 59, 0
15, 2400, Note_on_c, 13, 59, 64
15, 2448, Note_off_c, 13, 59, 0
15, 2496, Note_on_c, 13, 59, 64
15, 2544, Note_off_c, 13, 59, 0
15, 2592, Note_on_c, 13, 59, 64
15, 2640, Note_off_c, 13, 59, 0
15, 2688, Note_on_c, 13, 59, 64
15, 2736, Note_off_c, 13, 59, 0
15, 2784, Note_on_c, 13, 59, 64
15, 2832, Note_off_c, 13, 59, 0
15, 2880, Note_on_c, 13, 59, 64
15, 2928, Note_off_c, 13, 59, 0
15, 2976, Note_on_c, 13, 59, 64
15, 3024, Note_off_c, 13, 59, 0
15, 3072, Note_on_c, 13, 59, 64
15, 3120, Note_off_c, 13, 59, 0
15, 3168, Note_on_c, 13, 59, 64
15, 3216, Note_off_c, 13, 59, 0
15, 3264, Note_on_c, 13, 59, 64
15, 3312, Note_off_c, 13, 59, 0
15, 3360, Note_on_c, 13, 59, 64
15, 3408, Note_off_c, 13, 59, 0
15, 3456, Note_on_c, 13, 59, 64
15, 3504, Note_off_c, 13, 59, 0
15, 3600, Note_on_c, 13, 59, 64
15, 3648, Note_off_c, 13, 59, 0
15, 3744, Note_on_c, 13, 59, 64
15, 3792, Note_off_c, 13, 59, 0
15, 3840, Note_on_c, 13, 59, 64
15, 3888, Note_off_c, 13, 59, 0
15, 3936, Note_on_c, 13, 59, 64
15, 3984, Note_off_c, 13, 59, 0
15, 4032, Note_on_c, 13, 59, 64
15, 4080, Note_off_c, 13, 59, 0
15, 4128, Note_on_c, 13, 59, 64
15, 4176, Note_off_c, 13, 59, 0
15, 4224, Note_on_c, 13, 59, 64
15, 4272, Note_off_c, 13, 59, 0
15, 4320, Note_on_c, 13, 59, 64
15, 4368, Note_off_c, 13, 59, 0
15, 4416, Note_on_c, 13, 59, 64
15, 4464, Note_off_c, 13, 59, 0
15, 4512, Note_on_c, 13, 59, 64
15, 4560, Note_off_c, 13, 59, 0
15, 4608, Note_on_c, 13, 59, 64
15, 4656, Note_off_c, 13, 59, 0
15, 4704, Note_on_c, 13, 59, 64
15, 4752, Note_off_c, 13, 59, 0
15, 4800, Note_on_c, 13, 59, 64
15, 4848, Note_off_c, 13, 59, 0
15, 4896, Note_on_c, 13, 59, 64
15, 4944, Note_off_c, 13, 59, 0
15, 4992, Note_on_c, 13, 59, 64
15, 5040, Note_off_c, 13, 59, 0
15, 5136, Note_on_c, 13, 59, 64
15, 5184, Note_off_c, 13, 59, 0
15, 5280, Note_on_c, 13, 59, 64
15, 5328, Note_off_c, 13, 59, 0
15, 5376, Note_on_c, 13, 59, 64
15, 5424, Note_off_c, 13, 59, 0
15, 5472, Note_on_c, 13, 59, 64
15, 5520, Note_off_c, 13, 59, 0
15, 5568, Note_on_c, 13, 59, 64
15, 5616, Note_off_c, 13, 59, 0
15, 5664, Note_on_c, 13, 59, 64
15, 5712, Note_off_c, 13, 59, 0
15, 5760, Note_on_c, 13, 59, 64
15, 5808, Note_off_c, 13, 59, 0
15, 5856, Note_on_c, 13, 59, 64
15, 5904, Note_off_c, 13, 59, 0
15, 5952, Note_on_c, 13, 59, 64
15, 6000, Note_off_c, 13, 59, 0
15, 6048, Note_on_c, 13, 59, 64
15, 6096, Note_off_c, 13, 59, 0
15, 6144, Note_on_c, 13, 59, 64
15, 6192, Note_off_c, 13, 59, 0
15, 6240, Note_on_c, 13, 59, 64
15, 6288, Note_off_c, 13, 59, 0
15, 6336, Note_on_c, 13, 59, 64
15, 6384, Note_off_c, 13, 59, 0
15, 6432, Note_on_c, 13, 59, 64
15, 6480, Note_off_c, 13, 59, 0
15, 6528, Note_on_c, 13, 59, 64
15, 6576, Note_off_c, 13, 59, 0
15, 6672, Note_on_c, 13, 59, 64
15, 6720, Note_off_c, 13, 59, 0
15, 6816, Note_on_c, 13, 59, 64
15, 6864, Note_off_c, 13, 59, 0
15, 6912, Note_on_c, 13, 59, 64
15, 6960, Note_off_c, 13, 59, 0
15, 7008, Note_on_c, 13, 59, 64
15, 7056, Note_off_c, 13, 59, 0
15, 7104, Note_on_c, 13, 59, 64
15, 7152, Note_off_c, 13, 59, 0
15, 7200, Note_on_c, 13, 59, 64
15, 7248, Note_off_c, 13, 59, 0
15, 7296, Note_on_c, 13, 59, 64
15, 7344, Note_off_c, 13, 59, 0
15, 7392, Note_on_c, 13, 59, 64
15, 7440, Note_off_c, 13, 59, 0
15, 7488, Note_on_c, 13, 59, 64
15, 7536, Note_off_c, 13, 59, 0
15, 7584, Note_on_c, 13, 59, 64
15, 7632, Note_off_c, 13, 59, 0
15, 7680, Note_on_c, 13, 59, 64
15, 7728, Note_off_c, 13, 59, 0
15, 7776, Note_on_c, 13, 59, 64
15, 7824, Note_off_c, 13, 59, 0
15, 7872, Note_on_c, 13, 59, 64
15, 7920, Note_off_c, 13, 59, 0
15, 7968, Note_on_c, 13, 59, 64
15, 8016, Note_off_c, 13, 59, 0
15, 8064, Note_on_c, 13, 59, 64
15, 8112, Note_off_c, 13, 59, 0
15, 8208, Note_on_c, 13, 59, 64
15, 8256, Note_off_c, 13, 59, 0
15, 8352, Note_on_c, 13, 59, 64
15, 8400, Note_off_c, 13, 59, 0
15, 8448, Note_on_c, 13, 59, 64
15, 8496, Note_off_c, 13, 59, 0
15, 8544, Note_on_c, 13, 59, 64
15, 8592, Note_off_c, 13, 59, 0
15, 8640, Note_on_c, 13, 59, 64
15, 8688, Note_off_c, 13, 59, 0
15, 8736, Note_on_c, 13, 59, 64
15, 8784, Note_off_c, 13, 59, 0
15, 8832, Note_on_c, 13, 59, 64
15, 8880, Note_off_c, 13, 59, 0
15, 8928, Note_on_c, 13, 59, 64
15, 8976, Note_off_c, 13, 59, 0
15, 9024, Note_on_c, 13, 59, 64
15, 9072, Note_off_c, 13, 59, 0
15, 9120, Note_on_c, 13, 59, 64
15, 9168, Note_off_c, 13, 59, 0
15, 9216, Note_on_c, 13, 59, 64
15, 9264, Note_off_c, 13, 59, 0
15, 9312, Note_on_c, 13, 59, 64
15, 9360, Note_off_c, 13, 59, 0
15, 9408, Note_on_c, 13, 59, 64
15, 9456, Note_off_c, 13, 59, 0
15, 9504, Note_on_c, 13, 59, 64
15, 9552, Note_off_c, 13, 59, 0
15, 9600, Note_on_c, 13, 59, 64
15, 9648, Note_off_c, 13, 59, 0
15, 9744, Note_on_c, 13, 59, 64
15, 9792, Note_off_c, 13, 59, 0
15, 9888, Note_on_c, 13, 59, 64
15, 9936, Note_off_c, 13, 59, 0
15, 9984, Note_on_c, 13, 59, 64
15, 10032, Note_off_c, 13, 59, 0
15, 10080, Note_on_c, 13, 59, 64
15, 10128, Note_off_c, 13, 59, 0
15, 10176, Note_on_c, 13, 59, 64
15, 10224, Note_off_c, 13, 59, 0
15, 10272, Note_on_c, 13, 59, 64
15, 10320, Note_off_c, 13, 59, 0
15, 10368, Note_on_c, 13, 59, 64
15, 10416, Note_off_c, 13, 59, 0
15, 10464, Note_on_c, 13, 59, 64
15, 10512, Note_off_c, 13, 59, 0
15, 10560, Note_on_c, 13, 59, 64
15, 10608, Note_off_c, 13, 59, 0
15, 10656, Note_on_c, 13, 59, 64
15, 10704, Note_off_c, 13, 59, 0
15, 10752, Note_on_c, 13, 59, 64
15, 10800, Note_off_c, 13, 59, 0
15, 10848, Note_on_c, 13, 59, 64
15, 10896, Note_off_c, 13, 59, 0
15, 10944, Note_on_c, 13, 59, 64
15, 10992, Note_off_c, 13, 59, 0
15, 11040, Note_on_c, 13, 59, 64
15, 11088, Note_off_c, 13, 59, 0
15, 11136, Note_on_c, 13, 59, 64
15, 11184, Note_off_c, 13, 59, 0
15, 11280, Note_on_c, 13, 59, 64
15, 11328, Note_off_c, 13, 59, 0
15, 11424, Note_on_c, 13, 59, 64
15, 11472, Note_off_c, 13, 59, 0
15, 11520, Note_on_c, 13, 59, 64
15, 11568, Note_off_c, 13, 59, 0
15, 11616, Note_on_c, 13, 59, 64
15, 11664, Note_off_c, 13, 59, 0
15, 11712, Note_on_c, 13, 59, 64
15, 11760, Note_off_c, 13, 59, 0
15, 11808, Note_on_c, 13, 59, 64
15, 11856, Note_off_c, 13, 59, 0
15, 11904, Note_on_c, 13, 59, 64
15, 11952, Note_off_c, 13, 59, 0
15, 12000, Note_on_c, 13, 59, 64
15, 12048, Note_off_c, 13, 59, 0
15, 12096, Note_on_c, 13, 59, 64
15, 12144, Note_off_c, 13, 59, 0
15, 12192, Note_on_c, 13, 59, 64
15, 12240, Note_off_c, 13, 59, 0
15, 12288, Note_on_c, 13, 59, 64
15, 12336, Note_off_c, 13, 59, 0
15, 12384, Note_on_c, 13, 59, 64
15, 12432, Note_off_c, 13, 59, 0
15, 12480, Note_on_c, 13, 59, 64
15, 12528, Note_off_c, 13, 59, 0
15, 12576, Note_on_c, 13, 59, 64
15, 12624, Note_off_c, 13, 59, 0
15, 12672, Note_on_c, 13, 59, 64
15, 12720, Note_off_c, 13, 59, 0
15, 12816, Note_on_c, 13, 59, 64
15, 12864, Note_off_c, 13, 59, 0
15, 12960, Note_on_c, 13, 59, 64
15, 13008, Note_off_c, 13, 59, 0
15, 19200, Note_on_c, 13, 59, 64
15, 19248, Note_off_c, 13, 59, 0
15, 19296, Note_on_c, 13, 59, 64
15, 19344, Note_off_c, 13, 59, 0
15, 19392, Note_on_c, 13, 59, 64
15, 19440, Note_off_c, 13, 59, 0
15, 19488, Note_on_c, 13, 59, 64
15, 19536, Note_off_c, 13, 59, 0
15, 19584, Note_on_c, 13, 59, 64
15, 19632, Note_off_c, 13, 59, 0
15, 19680, Note_on_c, 13, 59, 64
15, 19728, Note_off_c, 13, 59, 0
15, 19776, Note_on_c, 13, 59, 64
15, 19824, Note_off_c, 13, 59, 0
15, 19872, Note_on_c, 13, 59, 64
15, 19920, Note_off_c, 13, 59, 0
15, 19968, Note_on_c, 13, 59, 64
15, 20016, Note_off_c, 13, 59, 0
15, 20064, Note_on_c, 13, 59, 64
15, 20112, Note_off_c, 13, 59, 0
15, 20160, Note_on_c, 13, 59, 64
15, 20208, Note_off_c, 13, 59, 0
15, 20256, Note_on_c, 13, 59, 64
15, 20304, Note_off_c, 13, 59, 0
15, 20352, Note_on_c, 13, 59, 64
15, 20400, Note_off_c, 13, 59, 0
15, 20496, Note_on_c, 13, 59, 64
15, 20544, Note_off_c, 13, 59, 0
15, 20640, Note_on_c, 13, 59, 64
15, 20688, Note_off_c, 13, 59, 0
15, 20736, Note_on_c, 13, 59, 64
15, 20784, Note_off_c, 13, 59, 0
15, 20832, Note_on_c, 13, 59, 64
15, 20880, Note_off_c, 13, 59, 0
15, 20928, Note_on_c, 13, 59, 64
15, 20976, Note_off_c, 13, 59, 0
15, 21024, Note_on_c, 13, 59, 64
15, 21072, Note_off_c, 13, 59, 0
15, 21120, Note_on_c, 13, 59, 64
15, 21168, Note_off_c, 13, 59, 0
15, 21216, Note_on_c, 13, 59, 64
15, 21264, Note_off_c, 13, 59, 0
15, 21312, Note_on_c, 13, 59, 64
15, 21360, Note_off_c, 13, 59, 0
15, 21408, Note_on_c, 13, 59, 64
15, 21456, Note_off_c, 13, 59, 0
15, 21504, Note_on_c, 13, 59, 64
15, 21552, Note_off_c, 13, 59, 0
15, 21600, Note_on_c, 13, 59, 64
15, 21648, Note_off_c, 13, 59, 0
15, 21696, Note_on_c, 13, 59, 64
15, 21744, Note_off_c, 13, 59, 0
15, 21792, Note_on_c, 13, 59, 64
15, 21840, Note_off_c, 13, 59, 0
15, 21888, Note_on_c, 13, 59, 64
15, 21936, Note_off_c, 13, 59, 0
15, 22032, Note_on_c, 13, 59, 64
15, 22080, Note_off_c, 13, 59, 0
15, 22176, Note_on_c, 13, 59, 64
15, 22224, Note_off_c, 13, 59, 0
15, 22272, Note_on_c, 13, 59, 64
15, 22320, Note_off_c, 13, 59, 0
15, 22368, Note_on_c, 13, 59, 64
15, 22416, Note_off_c, 13, 59, 0
15, 22464, Note_on_c, 13, 59, 64
15, 22512, Note_off_c, 13, 59, 0
15, 22560, Note_on_c, 13, 59, 64
15, 22608, Note_off_c, 13, 59, 0
15, 22656, Note_on_c, 13, 59, 64
15, 22704, Note_off_c, 13, 59, 0
15, 22752, Note_on_c, 13, 59, 64
15, 22800, Note_off_c, 13, 59, 0
15, 22848, Note_on_c, 13, 59, 64
15, 22896, Note_off_c, 13, 59, 0
15, 22944, Note_on_c, 13, 59, 64
15, 22992, Note_off_c, 13, 59, 0
15, 23040, Note_on_c, 13, 59, 64
15, 23088, Note_off_c, 13, 59, 0
15, 23136, Note_on_c, 13, 59, 64
15, 23184, Note_off_c, 13, 59, 0
15, 23232, Note_on_c, 13, 59, 64
15, 23280, Note_off_c, 13, 59, 0
15, 23328, Note_on_c, 13, 59, 64
15, 23376, Note_off_c, 13, 59, 0
15, 23424, Note_on_c, 13, 59, 64
15, 23472, Note_off_c, 13, 59, 0
15, 23568, Note_on_c, 13, 59, 64
15, 23616, Note_off_c, 13, 59, 0
15, 23712, Note_on_c, 13, 59, 64
15, 23760, Note_off_c, 13, 59, 0
15, 25344, Note_on_c, 13, 59, 64
15, 25392, Note_off_c, 13, 59, 0
15, 25440, Note_on_c, 13, 59, 64
15, 25488, Note_off_c, 13, 59, 0
15, 25536, Note_on_c, 13, 59, 64
15, 25584, Note_off_c, 13, 59, 0
15, 25632, Note_on_c, 13, 59, 64
15, 25680, Note_off_c, 13, 59, 0
15, 25728, Note_on_c, 13, 59, 64
15, 25776, Note_off_c, 13, 59, 0
15, 25824, Note_on_c, 13, 59, 64
15, 25872, Note_off_c, 13, 59, 0
15, 25920, Note_on_c, 13, 59, 64
15, 25968, Note_off_c, 13, 59, 0
15, 26016, Note_on_c, 13, 59, 64
15, 26064, Note_off_c, 13, 59, 0
15, 26112, Note_on_c, 13, 59, 64
15, 26160, Note_off_c, 13, 59, 0
15, 26208, Note_on_c, 13, 59, 64
15, 26256, Note_off_c, 13, 59, 0
15, 26304, Note_on_c, 13, 59, 64
15, 26352, Note_off_c, 13, 59, 0
15, 26400, Note_on_c, 13, 59, 64
15, 26448, Note_off_c, 13, 59, 0
15, 26496, Note_on_c, 13, 59, 64
15, 26544, Note_off_c, 13, 59, 0
15, 26640, Note_on_c, 13, 59, 64
15, 26688, Note_off_c, 13, 59, 0
15, 26784, Note_on_c, 13, 59, 64
15, 26832, Note_off_c, 13, 59, 0
15, 26880, Note_on_c, 13, 59, 64
15, 26928, Note_off_c, 13, 59, 0
15, 26976, Note_on_c, 13, 59, 64
15, 27024, Note_off_c, 13, 59, 0
15, 27072, Note_on_c, 13, 59, 64
15, 27120, Note_off_c, 13, 59, 0
15, 27168, Note_on_c, 13, 59, 64
15, 27216, Note_off_c, 13, 59, 0
15, 27264, Note_on_c, 13, 59, 64
15, 27312, Note_off_c, 13, 59, 0
15, 27360, Note_on_c, 13, 59, 64
15, 27408, Note_off_c, 13, 59, 0
15, 27456, Note_on_c, 13, 59, 64
15, 27504, Note_off_c, 13, 59, 0
15, 27552, Note_on_c, 13, 59, 64
15, 27600, Note_off_c, 13, 59, 0
15, 27648, Note_on_c, 13, 59, 64
15, 27696, Note_off_c, 13, 59, 0
15, 27744, Note_on_c, 13, 59, 64
15, 27792, Note_off_c, 13, 59, 0
15, 27840, Note_on_c, 13, 59, 64
15, 27888, Note_off_c, 13, 59, 0
15, 27936, Note_on_c, 13, 59, 64
15, 27984, Note_off_c, 13, 59, 0
15, 28032, Note_on_c, 13, 59, 64
15, 28080, Note_off_c, 13, 59, 0
15, 28176, Note_on_c, 13, 59, 64
15, 28224, Note_off_c, 13, 59, 0
15, 28320, Note_on_c, 13, 59, 64
15, 28368, Note_off_c, 13, 59, 0
15, 28416, Note_on_c, 13, 59, 64
15, 28464, Note_off_c, 13, 59, 0
15, 28512, Note_on_c, 13, 59, 64
15, 28560, Note_off_c, 13, 59, 0
15, 28608, Note_on_c, 13, 59, 64
15, 28656, Note_off_c, 13, 59, 0
15, 28704, Note_on_c, 13, 59, 64
15, 28752, Note_off_c, 13, 59, 0
15, 28800, Note_on_c, 13, 59, 64
15, 28848, Note_off_c, 13, 59, 0
15, 28896, Note_on_c, 13, 59, 64
15, 28944, Note_off_c, 13, 59, 0
15, 28992, Note_on_c, 13, 59, 64
15, 29040, Note_off_c, 13, 59, 0
15, 29088, Note_on_c, 13, 59, 64
15, 29136, Note_off_c, 13, 59, 0
15, 29184, Note_on_c, 13, 59, 64
15, 29232, Note_off_c, 13, 59, 0
15, 29280, Note_on_c, 13, 59, 64
15, 29328, Note_off_c, 13, 59, 0
15, 29376, Note_on_c, 13, 59, 64
15, 29424, Note_off_c, 13, 59, 0
15, 29472, Note_on_c, 13, 59, 64
15, 29520, Note_off_c, 13, 59, 0
15, 29568, Note_on_c, 13, 59, 64
15, 29616, Note_off_c, 13, 59, 0
15, 29712, Note_on_c, 13, 59, 64
15, 29760, Note_off_c, 13, 59, 0
15, 29856, Note_on_c, 13, 59, 64
15, 29904, Note_off_c, 13, 59, 0
15, 31488, Note_on_c, 13, 59, 64
15, 31536, Note_off_c, 13, 59, 0
15, 31584, Note_on_c, 13, 59, 64
15, 31632, Note_off_c, 13, 59, 0
15, 31680, Note_on_c, 13, 59, 64
15, 31728, Note_off_c, 13, 59, 0
15, 31776, Note_on_c, 13, 59, 64
15, 31824, Note_off_c, 13, 59, 0
15, 31872, Note_on_c, 13, 59, 64
15, 31920, Note_off_c, 13, 59, 0
15, 31968, Note_on_c, 13, 59, 64
15, 32016, Note_off_c, 13, 59, 0
15, 32064, Note_on_c, 13, 59, 64
15, 32112, Note_off_c, 13, 59, 0
15, 32160, Note_on_c, 13, 59, 64
15, 32208, Note_off_c, 13, 59, 0
15, 32256, Note_on_c, 13, 59, 64
15, 32304, Note_off_c, 13, 59, 0
15, 32352, Note_on_c, 13, 59, 64
15, 32400, Note_off_c, 13, 59, 0
15, 32448, Note_on_c, 13, 59, 64
15, 32496, Note_off_c, 13, 59, 0
15, 32544, Note_on_c, 13, 59, 64
15, 32592, Note_off_c, 13, 59, 0
15, 32640, Note_on_c, 13, 59, 64
15, 32688, Note_off_c, 13, 59, 0
15, 32784, Note_on_c, 13, 59, 64
15, 32832, Note_off_c, 13, 59, 0
15, 32928, Note_on_c, 13, 59, 64
15, 32976, Note_off_c, 13, 59, 0
15, 33024, Note_on_c, 13, 59, 64
15, 33072, Note_off_c, 13, 59, 0
15, 33120, Note_on_c, 13, 59, 64
15, 33168, Note_off_c, 13, 59, 0
15, 33216, Note_on_c, 13, 59, 64
15, 33264, Note_off_c, 13, 59, 0
15, 33312, Note_on_c, 13, 59, 64
15, 33360, Note_off_c, 13, 59, 0
15, 33408, Note_on_c, 13, 59, 64
15, 33456, Note_off_c, 13, 59, 0
15, 33504, Note_on_c, 13, 59, 64
15, 33552, Note_off_c, 13, 59, 0
15, 33600, Note_on_c, 13, 59, 64
15, 33648, Note_off_c, 13, 59, 0
15, 33696, Note_on_c, 13, 59, 64
15, 33744, Note_off_c, 13, 59, 0
15, 33792, Note_on_c, 13, 59, 64
15, 33840, Note_off_c, 13, 59, 0
15, 33888, Note_on_c, 13, 59, 64
15, 33936, Note_off_c, 13, 59, 0
15, 33984, Note_on_c, 13, 59, 64
15, 34032, Note_off_c, 13, 59, 0
15, 34080, Note_on_c, 13, 59, 64
15, 34128, Note_off_c, 13, 59, 0
15, 34176, Note_on_c, 13, 59, 64
15, 34224, Note_off_c, 13, 59, 0
15, 34320, Note_on_c, 13, 59, 64
15, 34368, Note_off_c, 13, 59, 0
15, 34464, Note_on_c, 13, 59, 64
15, 34512, Note_off_c, 13, 59, 0
15, 34560, Note_on_c, 13, 59, 64
15, 34608, Note_off_c, 13, 59, 0
15, 34656, Note_on_c, 13, 59, 64
15, 34704, Note_off_c, 13, 59, 0
15, 34752, Note_on_c, 13, 59, 64
15, 34800, Note_off_c, 13, 59, 0
15, 34848, Note_on_c, 13, 59, 64
15, 34896, Note_off_c, 13, 59, 0
15, 34944, Note_on_c, 13, 59, 64
15, 34992, Note_off_c, 13, 59, 0
15, 35040, Note_on_c, 13, 59, 64
15, 35088, Note_off_c, 13, 59, 0
15, 35136, Note_on_c, 13, 59, 64
15, 35184, Note_off_c, 13, 59, 0
15, 35232, Note_on_c, 13, 59, 64
15, 35280, Note_off_c, 13, 59, 0
15, 35328, Note_on_c, 13, 59, 64
15, 35376, Note_off_c, 13, 59, 0
15, 35424, Note_on_c, 13, 59, 64
15, 35472, Note_off_c, 13, 59, 0
15, 35520, Note_on_c, 13, 59, 64
15, 35568, Note_off_c, 13, 59, 0
15, 35616, Note_on_c, 13, 59, 64
15, 35664, Note_off_c, 13, 59, 0
15, 35712, Note_on_c, 13, 59, 64
15, 35760, Note_off_c, 13, 59, 0
15, 35856, Note_on_c, 13, 59, 64
15, 35904, Note_off_c, 13, 59, 0
15, 36000, Note_on_c, 13, 59, 64
15, 36048, Note_off_c, 13, 59, 0
15, 36096, Note_on_c, 13, 59, 64
15, 36144, Note_off_c, 13, 59, 0
15, 36192, Note_on_c, 13, 59, 64
15, 36240, Note_off_c, 13, 59, 0
15, 36288, Note_on_c, 13, 59, 64
15, 36336, Note_off_c, 13, 59, 0
15, 36384, Note_on_c, 13, 59, 64
15, 36432, Note_off_c, 13, 59, 0
15, 36480, Note_on_c, 13, 59, 64
15, 36528, Note_off_c, 13, 59, 0
15, 36576, Note_on_c, 13, 59, 64
15, 36624, Note_off_c, 13, 59, 0
15, 36672, Note_on_c, 13, 59, 64
15, 36720, Note_off_c, 13, 59, 0
15, 36768, Note_on_c, 13, 59, 64
15, 36816, Note_off_c, 13, 59, 0
15, 36864, Note_on_c, 13, 59, 64
15, 36912, Note_off_c, 13, 59, 0
15, 36960, Note_on_c, 13, 59, 64
15, 37008, Note_off_c, 13, 59, 0
15, 37056, Note_on_c, 13, 59, 64
15, 37104, Note_off_c, 13, 59, 0
15, 37152, Note_on_c, 13, 59, 64
15, 37200, Note_off_c, 13, 59, 0
15, 37248, Note_on_c, 13, 59, 64
15, 37296, Note_off_c, 13, 59, 0
15, 37392, Note_on_c, 13, 59, 64
15, 37440, Note_off_c, 13, 59, 0
15, 37536, Note_on_c, 13, 59, 64
15, 37584, Note_off_c, 13, 59, 0
15, 37632, Note_on_c, 13, 59, 64
15, 37680, Note_off_c, 13, 59, 0
15, 37728, Note_on_c, 13, 59, 64
15, 37776, Note_off_c, 13, 59, 0
15, 37824, Note_on_c, 13, 59, 64
15, 37872, Note_off_c, 13, 59, 0
15, 37920, Note_on_c, 13, 59, 64
15, 37968, Note_off_c, 13, 59, 0
15, 38016, Note_on_c, 13, 59, 64
15, 38064, Note_off_c, 13, 59, 0
15, 38112, Note_on_c, 13, 59, 64
15, 38160, Note_off_c, 13, 59, 0
15, 38208, Note_on_c, 13, 59, 64
15, 38256, Note_off_c, 13, 59, 0
15, 38304, Note_on_c, 13, 59, 64
15, 38352, Note_off_c, 13, 59, 0
15, 38400, Note_on_c, 13, 59, 64
15, 38448, Note_off_c, 13, 59, 0
15, 38496, Note_on_c, 13, 59, 64
15, 38544, Note_off_c, 13, 59, 0
15, 38592, Note_on_c, 13, 59, 64
15, 38640, Note_off_c, 13, 59, 0
15, 38688, Note_on_c, 13, 59, 64
15, 38736, Note_off_c, 13, 59, 0
15, 38784, Note_on_c, 13, 59, 64
15, 38832, Note_off_c, 13, 59, 0
15, 38928, Note_on_c, 13, 59, 64
15, 38976, Note_off_c, 13, 59, 0
15, 39072, Note_on_c, 13, 59, 64
15, 39120, Note_off_c, 13, 59, 0
15, 39168, Note_on_c, 13, 59, 64
15, 39216, Note_off_c, 13, 59, 0
15, 39264, Note_on_c, 13, 59, 64
15, 39312, Note_off_c, 13, 59, 0
15, 39360, Note_on_c, 13, 59, 64
15, 39408, Note_off_c, 13, 59, 0
15, 39456, Note_on_c, 13, 59, 64
15, 39504, Note_off_c, 13, 59, 0
15, 39552, Note_on_c, 13, 59, 64
15, 39600, Note_off_c, 13, 59, 0
15, 39648, Note_on_c, 13, 59, 64
15, 39696, Note_off_c, 13, 59, 0
15, 39744, Note_on_c, 13, 59, 64
15, 39792, Note_off_c, 13, 59, 0
15, 39840, Note_on_c, 13, 59, 64
15, 39888, Note_off_c, 13, 59, 0
15, 39936, Note_on_c, 13, 59, 64
15, 39984, Note_off_c, 13, 59, 0
15, 40032, Note_on_c, 13, 59, 64
15, 40080, Note_off_c, 13, 59, 0
15, 40128, Note_on_c, 13, 59, 64
15, 40176, Note_off_c, 13, 59, 0
15, 40224, Note_on_c, 13, 59, 64
15, 40272, Note_off_c, 13, 59, 0
15, 40320, Note_on_c, 13, 59, 64
15, 40368, Note_off_c, 13, 59, 0
15, 40464, Note_on_c, 13, 59, 64
15, 40512, Note_off_c, 13, 59, 0
15, 40608, Note_on_c, 13, 59, 64
15, 40656, Note_off_c, 13, 59, 0
15, 40704, Note_on_c, 13, 59, 64
15, 40752, Note_off_c, 13, 59, 0
15, 40800, Note_on_c, 13, 59, 64
15, 40848, Note_off_c, 13, 59, 0
15, 40896, Note_on_c, 13, 59, 64
15, 40944, Note_off_c, 13, 59, 0
15, 40992, Note_on_c, 13, 59, 64
15, 41040, Note_off_c, 13, 59, 0
15, 41088, Note_on_c, 13, 59, 64
15, 41136, Note_off_c, 13, 59, 0
15, 41184, Note_on_c, 13, 59, 64
15, 41232, Note_off_c, 13, 59, 0
15, 41280, Note_on_c, 13, 59, 64
15, 41328, Note_off_c, 13, 59, 0
15, 41376, Note_on_c, 13, 59, 64
15, 41424, Note_off_c, 13, 59, 0
15, 41472, Note_on_c, 13, 59, 64
15, 41520, Note_off_c, 13, 59, 0
15, 41568, Note_on_c, 13, 59, 64
15, 41616, Note_off_c, 13, 59, 0
15, 41664, Note_on_c, 13, 59, 64
15, 41712, Note_off_c, 13, 59, 0
15, 41760, Note_on_c, 13, 59, 64
15, 41808, Note_off_c, 13, 59, 0
15, 41856, Note_on_c, 13, 59, 64
15, 41904, Note_off_c, 13, 59, 0
15, 42000, Note_on_c, 13, 59, 64
15, 42048, Note_off_c, 13, 59, 0
15, 42144, Note_on_c, 13, 59, 64
15, 42192, Note_off_c, 13, 59, 0
15, 42240, Note_on_c, 13, 59, 64
15, 42288, Note_off_c, 13, 59, 0
15, 42336, Note_on_c, 13, 59, 64
15, 42384, Note_off_c, 13, 59, 0
15, 42432, Note_on_c, 13, 59, 64
15, 42480, Note_off_c, 13, 59, 0
15, 42528, Note_on_c, 13, 59, 64
15, 42576, Note_off_c, 13, 59, 0
15, 42624, Note_on_c, 13, 59, 64
15, 42672, Note_off_c, 13, 59, 0
15, 42720, Note_on_c, 13, 59, 64
15, 42768, Note_off_c, 13, 59, 0
15, 42816, Note_on_c, 13, 59, 64
15, 42864, Note_off_c, 13, 59, 0
15, 42912, Note_on_c, 13, 59, 64
15, 42960, Note_off_c, 13, 59, 0
15, 43008, Note_on_c, 13, 59, 64
15, 43056, Note_off_c, 13, 59, 0
15, 43104, Note_on_c, 13, 59, 64
15, 43152, Note_off_c, 13, 59, 0
15, 43200, Note_on_c, 13, 59, 64
15, 43248, Note_off_c, 13, 59, 0
15, 43296, Note_on_c, 13, 59, 64
15, 43344, Note_off_c, 13, 59, 0
15, 43392, Note_on_c, 13, 59, 64
15, 43440, Note_off_c, 13, 59, 0
15, 43536, Note_on_c, 13, 59, 64
15, 43584, Note_off_c, 13, 59, 0
15, 43680, Note_on_c, 13, 59, 64
15, 43728, Note_off_c, 13, 59, 0
15, 49920, Note_on_c, 13, 59, 64
15, 49968, Note_off_c, 13, 59, 0
15, 50016, Note_on_c, 13, 59, 64
15, 50064, Note_off_c, 13, 59, 0
15, 50112, Note_on_c, 13, 59, 64
15, 50160, Note_off_c, 13, 59, 0
15, 50208, Note_on_c, 13, 59, 64
15, 50256, Note_off_c, 13, 59, 0
15, 50304, Note_on_c, 13, 59, 64
15, 50352, Note_off_c, 13, 59, 0
15, 50400, Note_on_c, 13, 59, 64
15, 50448, Note_off_c, 13, 59, 0
15, 50496, Note_on_c, 13, 59, 64
15, 50544, Note_off_c, 13, 59, 0
15, 50592, Note_on_c, 13, 59, 64
15, 50640, Note_off_c, 13, 59, 0
15, 50688, Note_on_c, 13, 59, 64
15, 50736, Note_off_c, 13, 59, 0
15, 50784, Note_on_c, 13, 59, 64
15, 50832, Note_off_c, 13, 59, 0
15, 50880, Note_on_c, 13, 59, 64
15, 50928, Note_off_c, 13, 59, 0
15, 50976, Note_on_c, 13, 59, 64
15, 51024, Note_off_c, 13, 59, 0
15, 51072, Note_on_c, 13, 59, 64
15, 51120, Note_off_c, 13, 59, 0
15, 51216, Note_on_c, 13, 59, 64
15, 51264, Note_off_c, 13, 59, 0
15, 51360, Note_on_c, 13, 59, 64
15, 51408, Note_off_c, 13, 59, 0
15, 51456, Note_on_c, 13, 59, 64
15, 51504, Note_off_c, 13, 59, 0
15, 51552, Note_on_c, 13, 59, 64
15, 51600, Note_off_c, 13, 59, 0
15, 51648, Note_on_c, 13, 59, 64
15, 51696, Note_off_c, 13, 59, 0
15, 51744, Note_on_c, 13, 59, 64
15, 51792, Note_off_c, 13, 59, 0
15, 51840, Note_on_c, 13, 59, 64
15, 51888, Note_off_c, 13, 59, 0
15, 51936, Note_on_c, 13, 59, 64
15, 51984, Note_off_c, 13, 59, 0
15, 52032, Note_on_c, 13, 59, 64
15, 52080, Note_off_c, 13, 59, 0
15, 52128, Note_on_c, 13, 59, 64
15, 52176, Note_off_c, 13, 59, 0
15, 52224, Note_on_c, 13, 59, 64
15, 52272, Note_off_c, 13, 59, 0
15, 52320, Note_on_c, 13, 59, 64
15, 52368, Note_off_c, 13, 59, 0
15, 52416, Note_on_c, 13, 59, 64
15, 52464, Note_off_c, 13, 59, 0
15, 52512, Note_on_c, 13, 59, 64
15, 52560, Note_off_c, 13, 59, 0
15, 52608, Note_on_c, 13, 59, 64
15, 52656, Note_off_c, 13, 59, 0
15, 52752, Note_on_c, 13, 59, 64
15, 52800, Note_off_c, 13, 59, 0
15, 52896, Note_on_c, 13, 59, 64
15, 52944, Note_off_c, 13, 59, 0
15, 52992, Note_on_c, 13, 59, 64
15, 53040, Note_off_c, 13, 59, 0
15, 53088, Note_on_c, 13, 59, 64
15, 53136, Note_off_c, 13, 59, 0
15, 53184, Note_on_c, 13, 59, 64
15, 53232, Note_off_c, 13, 59, 0
15, 53280, Note_on_c, 13, 59, 64
15, 53328, Note_off_c, 13, 59, 0
15, 53376, Note_on_c, 13, 59, 64
15, 53424, Note_off_c, 13, 59, 0
15, 53472, Note_on_c, 13, 59, 64
15, 53520, Note_off_c, 13, 59, 0
15, 53568, Note_on_c, 13, 59, 64
15, 53616, Note_off_c, 13, 59, 0
15, 53664, Note_on_c, 13, 59, 64
15, 53712, Note_off_c, 13, 59, 0
15, 53760, Note_on_c, 13, 59, 64
15, 53808, Note_off_c, 13, 59, 0
15, 53856, Note_on_c, 13, 59, 64
15, 53904, Note_off_c, 13, 59, 0
15, 53952, Note_on_c, 13, 59, 64
15, 54000, Note_off_c, 13, 59, 0
15, 54048, Note_on_c, 13, 59, 64
15, 54096, Note_off_c, 13, 59, 0
15, 54144, Note_on_c, 13, 59, 64
15, 54192, Note_off_c, 13, 59, 0
15, 54288, Note_on_c, 13, 59, 64
15, 54336, Note_off_c, 13, 59, 0
15, 54432, Note_on_c, 13, 59, 64
15, 54480, Note_off_c, 13, 59, 0
15, 56064, Note_on_c, 13, 59, 64
15, 56112, Note_off_c, 13, 59, 0
15, 56160, Note_on_c, 13, 59, 64
15, 56208, Note_off_c, 13, 59, 0
15, 56256, Note_on_c, 13, 59, 64
15, 56304, Note_off_c, 13, 59, 0
15, 56352, Note_on_c, 13, 59, 64
15, 56400, Note_off_c, 13, 59, 0
15, 56448, Note_on_c, 13, 59, 64
15, 56496, Note_off_c, 13, 59, 0
15, 56544, Note_on_c, 13, 59, 64
15, 56592, Note_off_c, 13, 59, 0
15, 56640, Note_on_c, 13, 59, 64
15, 56688, Note_off_c, 13, 59, 0
15, 56736, Note_on_c, 13, 59, 64
15, 56784, Note_off_c, 13, 59, 0
15, 56832, Note_on_c, 13, 59, 64
15, 56880, Note_off_c, 13, 59, 0
15, 56928, Note_on_c, 13, 59, 64
15, 56976, Note_off_c, 13, 59, 0
15, 57024, Note_on_c, 13, 59, 64
15, 57072, Note_off_c, 13, 59, 0
15, 57120, Note_on_c, 13, 59, 64
15, 57168, Note_off_c, 13, 59, 0
15, 57216, Note_on_c, 13, 59, 64
15, 57264, Note_off_c, 13, 59, 0
15, 57360, Note_on_c, 13, 59, 64
15, 57408, Note_off_c, 13, 59, 0
15, 57504, Note_on_c, 13, 59, 64
15, 57552, Note_off_c, 13, 59, 0
15, 57600, Note_on_c, 13, 59, 64
15, 57648, Note_off_c, 13, 59, 0
15, 57696, Note_on_c, 13, 59, 64
15, 57744, Note_off_c, 13, 59, 0
15, 57792, Note_on_c, 13, 59, 64
15, 57840, Note_off_c, 13, 59, 0
15, 57888, Note_on_c, 13, 59, 64
15, 57936, Note_off_c, 13, 59, 0
15, 57984, Note_on_c, 13, 59, 64
15, 58032, Note_off_c, 13, 59, 0
15, 58080, Note_on_c, 13, 59, 64
15, 58128, Note_off_c, 13, 59, 0
15, 58176, Note_on_c, 13, 59, 64
15, 58224, Note_off_c, 13, 59, 0
15, 58272, Note_on_c, 13, 59, 64
15, 58320, Note_off_c, 13, 59, 0
15, 58368, Note_on_c, 13, 59, 64
15, 58416, Note_off_c, 13, 59, 0
15, 58464, Note_on_c, 13, 59, 64
15, 58512, Note_off_c, 13, 59, 0
15, 58560, Note_on_c, 13, 59, 64
15, 58608, Note_off_c, 13, 59, 0
15, 58656, Note_on_c, 13, 59, 64
15, 58704, Note_off_c, 13, 59, 0
15, 58752, Note_on_c, 13, 59, 64
15, 58800, Note_off_c, 13, 59, 0
15, 58896, Note_on_c, 13, 59, 64
15, 58944, Note_off_c, 13, 59, 0
15, 59040, Note_on_c, 13, 59, 64
15, 59088, Note_off_c, 13, 59, 0
15, 59136, Note_on_c, 13, 59, 64
15, 59184, Note_off_c, 13, 59, 0
15, 59232, Note_on_c, 13, 59, 64
15, 59280, Note_off_c, 13, 59, 0
15, 59328, Note_on_c, 13, 59, 64
15, 59376, Note_off_c, 13, 59, 0
15, 59424, Note_on_c, 13, 59, 64
15, 59472, Note_off_c, 13, 59, 0
15, 59520, Note_on_c, 13, 59, 64
15, 59568, Note_off_c, 13, 59, 0
15, 59616, Note_on_c, 13, 59, 64
15, 59664, Note_off_c, 13, 59, 0
15, 59712, Note_on_c, 13, 59, 64
15, 59760, Note_off_c, 13, 59, 0
15, 59808, Note_on_c, 13, 59, 64
15, 59856, Note_off_c, 13, 59, 0
15, 59904, Note_on_c, 13, 59, 64
15, 59952, Note_off_c, 13, 59, 0
15, 60000, Note_on_c, 13, 59, 64
15, 60048, Note_off_c, 13, 59, 0
15, 60096, Note_on_c, 13, 59, 64
15, 60144, Note_off_c, 13, 59, 0
15, 60192, Note_on_c, 13, 59, 64
15, 60240, Note_off_c, 13, 59, 0
15, 60288, Note_on_c, 13, 59, 64
15, 60336, Note_off_c, 13, 59, 0
15, 60432, Note_on_c, 13, 59, 64
15, 60480, Note_off_c, 13, 59, 0
15, 60576, Note_on_c, 13, 59, 64
15, 60624, Note_off_c, 13, 59, 0
15, 62976, Control_c, 13, 10, 64
15, 62976, Control_c, 13, 7, 100
15, 62976, Pitch_bend_c, 13, 8192
15, 62976, End_track
16, 0, Start_track
16, 0, Control_c, 14, 0, 0
16, 0, Control_c, 14, 32, 0
16, 0, Program_c, 14, 113
16, 0, Title_t, "Closed Hi-Hat"
16, 0, Control_c, 14, 7, 127
16, 0, Control_c, 14, 10, 64
16, 0, Control_c, 14, 7, 100
16, 0, Pitch_bend_c, 14, 8192
16, 0, Control_c, 14, 10, 64
16, 0, Control_c, 14, 7, 100
16, 0, Pitch_bend_c, 14, 8192
16, 0, Control_c, 14, 10, 64
16, 0, Control_c, 14, 7, 100
16, 0, Pitch_bend_c, 14, 8192
16, 0, Control_c, 14, 10, 64
16, 0, Control_c, 14, 7, 100
16, 0, Pitch_bend_c, 14, 8192
16, 13056, Note_on_c, 14, 59, 64
16, 13062, Note_off_c, 14, 59, 0
16, 13104, Note_on_c, 14, 59, 64
16, 13110, Note_off_c, 14, 59, 0
16, 13152, Note_on_c, 14, 59, 64
16, 13158, Note_off_c, 14, 59, 0
16, 13200, Note_on_c, 14, 59, 64
16, 13206, Note_off_c, 14, 59, 0
16, 13248, Note_on_c, 14, 59, 64
16, 13254, Note_off_c, 14, 59, 0
16, 13296, Note_on_c, 14, 59, 64
16, 13302, Note_off_c, 14, 59, 0
16, 13344, Note_on_c, 14, 59, 64
16, 13350, Note_off_c, 14, 59, 0
16, 13392, Note_on_c, 14, 59, 64
16, 13398, Note_off_c, 14, 59, 0
16, 13440, Note_on_c, 14, 59, 64
16, 13446, Note_off_c, 14, 59, 0
16, 13488, Note_on_c, 14, 59, 64
16, 13494, Note_off_c, 14, 59, 0
16, 13536, Note_on_c, 14, 59, 64
16, 13542, Note_off_c, 14, 59, 0
16, 13584, Note_on_c, 14, 59, 64
16, 13590, Note_off_c, 14, 59, 0
16, 13632, Note_on_c, 14, 59, 64
16, 13638, Note_off_c, 14, 59, 0
16, 13680, Note_on_c, 14, 59, 64
16, 13686, Note_off_c, 14, 59, 0
16, 13728, Note_on_c, 14, 59, 64
16, 13734, Note_off_c, 14, 59, 0
16, 13776, Note_on_c, 14, 59, 64
16, 13782, Note_off_c, 14, 59, 0
16, 13824, Note_on_c, 14, 59, 64
16, 13830, Note_off_c, 14, 59, 0
16, 13872, Note_on_c, 14, 59, 64
16, 13878, Note_off_c, 14, 59, 0
16, 13920, Note_on_c, 14, 59, 64
16, 13926, Note_off_c, 14, 59, 0
16, 13968, Note_on_c, 14, 59, 64
16, 13974, Note_off_c, 14, 59, 0
16, 14016, Note_on_c, 14, 59, 64
16, 14022, Note_off_c, 14, 59, 0
16, 14064, Note_on_c, 14, 59, 64
16, 14070, Note_off_c, 14, 59, 0
16, 14112, Note_on_c, 14, 59, 64
16, 14118, Note_off_c, 14, 59, 0
16, 14160, Note_on_c, 14, 59, 64
16, 14166, Note_off_c, 14, 59, 0
16, 14208, Note_on_c, 14, 59, 64
16, 14214, Note_off_c, 14, 59, 0
16, 14256, Note_on_c, 14, 59, 64
16, 14262, Note_off_c, 14, 59, 0
16, 14352, Note_on_c, 14, 59, 64
16, 14358, Note_off_c, 14, 59, 0
16, 14400, Note_on_c, 14, 59, 64
16, 14406, Note_off_c, 14, 59, 0
16, 14496, Note_on_c, 14, 59, 64
16, 14502, Note_off_c, 14, 59, 0
16, 14544, Note_on_c, 14, 59, 64
16, 14550, Note_off_c, 14, 59, 0
16, 14592, Note_on_c, 14, 59, 64
16, 14598, Note_off_c, 14, 59, 0
16, 14640, Note_on_c, 14, 59, 64
16, 14646, Note_off_c, 14, 59, 0
16, 14688, Note_on_c, 14, 59, 64
16, 14694, Note_off_c, 14, 59, 0
16, 14736, Note_on_c, 14, 59, 64
16, 14742, Note_off_c, 14, 59, 0
16, 14784, Note_on_c, 14, 59, 64
16, 14790, Note_off_c, 14, 59, 0
16, 14832, Note_on_c, 14, 59, 64
16, 14838, Note_off_c, 14, 59, 0
16, 14880, Note_on_c, 14, 59, 64
16, 14886, Note_off_c, 14, 59, 0
16, 14928, Note_on_c, 14, 59, 64
16, 14934, Note_off_c, 14, 59, 0
16, 14976, Note_on_c, 14, 59, 64
16, 14982, Note_off_c, 14, 59, 0
16, 15024, Note_on_c, 14, 59, 64
16, 15030, Note_off_c, 14, 59, 0
16, 15072, Note_on_c, 14, 59, 64
16, 15078, Note_off_c, 14, 59, 0
16, 15120, Note_on_c, 14, 59, 64
16, 15126, Note_off_c, 14, 59, 0
16, 15168, Note_on_c, 14, 59, 64
16, 15174, Note_off_c, 14, 59, 0
16, 15216, Note_on_c, 14, 59, 64
16, 15222, Note_off_c, 14, 59, 0
16, 15264, Note_on_c, 14, 59, 64
16, 15270, Note_off_c, 14, 59, 0
16, 15312, Note_on_c, 14, 59, 64
16, 15318, Note_off_c, 14, 59, 0
16, 15360, Note_on_c, 14, 59, 64
16, 15366, Note_off_c, 14, 59, 0
16, 15408, Note_on_c, 14, 59, 64
16, 15414, Note_off_c, 14, 59, 0
16, 15456, Note_on_c, 14, 59, 64
16, 15462, Note_off_c, 14, 59, 0
16, 15504, Note_on_c, 14, 59, 64
16, 15510, Note_off_c, 14, 59, 0
16, 15552, Note_on_c, 14, 59, 64
16, 15558, Note_off_c, 14, 59, 0
16, 15600, Note_on_c, 14, 59, 64
16, 15606, Note_off_c, 14, 59, 0
16, 15648, Note_on_c, 14, 59, 64
16, 15654, Note_off_c, 14, 59, 0
16, 15696, Note_on_c, 14, 59, 64
16, 15702, Note_off_c, 14, 59, 0
16, 15744, Note_on_c, 14, 59, 64
16, 15750, Note_off_c, 14, 59, 0
16, 15792, Note_on_c, 14, 59, 64
16, 15798, Note_off_c, 14, 59, 0
16, 15888, Note_on_c, 14, 59, 64
16, 15894, Note_off_c, 14, 59, 0
16, 15936, Note_on_c, 14, 59, 64
16, 15942, Note_off_c, 14, 59, 0
16, 16032, Note_on_c, 14, 59, 64
16, 16038, Note_off_c, 14, 59, 0
16, 16080, Note_on_c, 14, 59, 64
16, 16086, Note_off_c, 14, 59, 0
16, 16128, Note_on_c, 14, 59, 64
16, 16134, Note_off_c, 14, 59, 0
16, 16176, Note_on_c, 14, 59, 64
16, 16182, Note_off_c, 14, 59, 0
16, 16224, Note_on_c, 14, 59, 64
16, 16230, Note_off_c, 14, 59, 0
16, 16272, Note_on_c, 14, 59, 64
16, 16278, Note_off_c, 14, 59, 0
16, 16320, Note_on_c, 14, 59, 64
16, 16326, Note_off_c, 14, 59, 0
16, 16368, Note_on_c, 14, 59, 64
16, 16374, Note_off_c, 14, 59, 0
16, 16416, Note_on_c, 14, 59, 64
16, 16422, Note_off_c, 14, 59, 0
16, 16464, Note_on_c, 14, 59, 64
16, 16470, Note_off_c, 14, 59, 0
16, 16512, Note_on_c, 14, 59, 64
16, 16518, Note_off_c, 14, 59, 0
16, 16560, Note_on_c, 14, 59, 64
16, 16566, Note_off_c, 14, 59, 0
16, 16608, Note_on_c, 14, 59, 64
16, 16614, Note_off_c, 14, 59, 0
16, 16656, Note_on_c, 14, 59, 64
16, 16662, Note_off_c, 14, 59, 0
16, 16704, Note_on_c, 14, 59, 64
16, 16710, Note_off_c, 14, 59, 0
16, 16752, Note_on_c, 14, 59, 64
16, 16758, Note_off_c, 14, 59, 0
16, 16800, Note_on_c, 14, 59, 64
16, 16806, Note_off_c, 14, 59, 0
16, 16848, Note_on_c, 14, 59, 64
16, 16854, Note_off_c, 14, 59, 0
16, 16896, Note_on_c, 14, 59, 64
16, 16902, Note_off_c, 14, 59, 0
16, 16944, Note_on_c, 14, 59, 64
16, 16950, Note_off_c, 14, 59, 0
16, 16992, Note_on_c, 14, 59, 64
16, 16998, Note_off_c, 14, 59, 0
16, 17040, Note_on_c, 14, 59, 64
16, 17046, Note_off_c, 14, 59, 0
16, 17088, Note_on_c, 14, 59, 64
16, 17094, Note_off_c, 14, 59, 0
16, 17136, Note_on_c, 14, 59, 64
16, 17142, Note_off_c, 14, 59, 0
16, 17184, Note_on_c, 14, 59, 64
16, 17190, Note_off_c, 14, 59, 0
16, 17232, Note_on_c, 14, 59, 64
16, 17238, Note_off_c, 14, 59, 0
16, 17280, Note_on_c, 14, 59, 64
16, 17286, Note_off_c, 14, 59, 0
16, 17328, Note_on_c, 14, 59, 64
16, 17334, Note_off_c, 14, 59, 0
16, 17424, Note_on_c, 14, 59, 64
16, 17430, Note_off_c, 14, 59, 0
16, 17472, Note_on_c, 14, 59, 64
16, 17478, Note_off_c, 14, 59, 0
16, 17568, Note_on_c, 14, 59, 64
16, 17574, Note_off_c, 14, 59, 0
16, 17616, Note_on_c, 14, 59, 64
16, 17622, Note_off_c, 14, 59, 0
16, 43776, Note_on_c, 14, 59, 64
16, 43782, Note_off_c, 14, 59, 0
16, 43824, Note_on_c, 14, 59, 64
16, 43830, Note_off_c, 14, 59, 0
16, 43872, Note_on_c, 14, 59, 64
16, 43878, Note_off_c, 14, 59, 0
16, 43920, Note_on_c, 14, 59, 64
16, 43926, Note_off_c, 14, 59, 0
16, 43968, Note_on_c, 14, 59, 64
16, 43974, Note_off_c, 14, 59, 0
16, 44016, Note_on_c, 14, 59, 64
16, 44022, Note_off_c, 14, 59, 0
16, 44064, Note_on_c, 14, 59, 64
16, 44070, Note_off_c, 14, 59, 0
16, 44112, Note_on_c, 14, 59, 64
16, 44118, Note_off_c, 14, 59, 0
16, 44160, Note_on_c, 14, 59, 64
16, 44166, Note_off_c, 14, 59, 0
16, 44208, Note_on_c, 14, 59, 64
16, 44214, Note_off_c, 14, 59, 0
16, 44256, Note_on_c, 14, 59, 64
16, 44262, Note_off_c, 14, 59, 0
16, 44304, Note_on_c, 14, 59, 64
16, 44310, Note_off_c, 14, 59, 0
16, 44352, Note_on_c, 14, 59, 64
16, 44358, Note_off_c, 14, 59, 0
16, 44400, Note_on_c, 14, 59, 64
16, 44406, Note_off_c, 14, 59, 0
16, 44448, Note_on_c, 14, 59, 64
16, 44454, Note_off_c, 14, 59, 0
16, 44496, Note_on_c, 14, 59, 64
16, 44502, Note_off_c, 14, 59, 0
16, 44544, Note_on_c, 14, 59, 64
16, 44550, Note_off_c, 14, 59, 0
16, 44592, Note_on_c, 14, 59, 64
16, 44598, Note_off_c, 14, 59, 0
16, 44640, Note_on_c, 14, 59, 64
16, 44646, Note_off_c, 14, 59, 0
16, 44688, Note_on_c, 14, 59, 64
16, 44694, Note_off_c, 14, 59, 0
16, 44736, Note_on_c, 14, 59, 64
16, 44742, Note_off_c, 14, 59, 0
16, 44784, Note_on_c, 14, 59, 64
16, 44790, Note_off_c, 14, 59, 0
16, 44832, Note_on_c, 14, 59, 64
16, 44838, Note_off_c, 14, 59, 0
16, 44880, Note_on_c, 14, 59, 64
16, 44886, Note_off_c, 14, 59, 0
16, 44928, Note_on_c, 14, 59, 64
16, 44934, Note_off_c, 14, 59, 0
16, 44976, Note_on_c, 14, 59, 64
16, 44982, Note_off_c, 14, 59, 0
16, 45072, Note_on_c, 14, 59, 64
16, 45078, Note_off_c, 14, 59, 0
16, 45120, Note_on_c, 14, 59, 64
16, 45126, Note_off_c, 14, 59, 0
16, 45216, Note_on_c, 14, 59, 64
16, 45222, Note_off_c, 14, 59, 0
16, 45264, Note_on_c, 14, 59, 64
16, 45270, Note_off_c, 14, 59, 0
16, 45312, Note_on_c, 14, 59, 64
16, 45318, Note_off_c, 14, 59, 0
16, 45360, Note_on_c, 14, 59, 64
16, 45366, Note_off_c, 14, 59, 0
16, 45408, Note_on_c, 14, 59, 64
16, 45414, Note_off_c, 14, 59, 0
16, 45456, Note_on_c, 14, 59, 64
16, 45462, Note_off_c, 14, 59, 0
16, 45504, Note_on_c, 14, 59, 64
16, 45510, Note_off_c, 14, 59, 0
16, 45552, Note_on_c, 14, 59, 64
16, 45558, Note_off_c, 14, 59, 0
16, 45600, Note_on_c, 14, 59, 64
16, 45606, Note_off_c, 14, 59, 0
16, 45648, Note_on_c, 14, 59, 64
16, 45654, Note_off_c, 14, 59, 0
16, 45696, Note_on_c, 14, 59, 64
16, 45702, Note_off_c, 14, 59, 0
16, 45744, Note_on_c, 14, 59, 64
16, 45750, Note_off_c, 14, 59, 0
16, 45792, Note_on_c, 14, 59, 64
16, 45798, Note_off_c, 14, 59, 0
16, 45840, Note_on_c, 14, 59, 64
16, 45846, Note_off_c, 14, 59, 0
16, 45888, Note_on_c, 14, 59, 64
16, 45894, Note_off_c, 14, 59, 0
16, 45936, Note_on_c, 14, 59, 64
16, 45942, Note_off_c, 14, 59, 0
16, 45984, Note_on_c, 14, 59, 64
16, 45990, Note_off_c, 14, 59, 0
16, 46032, Note_on_c, 14, 59, 64
16, 46038, Note_off_c, 14, 59, 0
16, 46080, Note_on_c, 14, 59, 64
16, 46086, Note_off_c, 14, 59, 0
16, 46128, Note_on_c, 14, 59, 64
16, 46134, Note_off_c, 14, 59, 0
16, 46176, Note_on_c, 14, 59, 64
16, 46182, Note_off_c, 14, 59, 0
16, 46224, Note_on_c, 14, 59, 64
16, 46230, Note_off_c, 14, 59, 0
16, 46272, Note_on_c, 14, 59, 64
16, 46278, Note_off_c, 14, 59, 0
16, 46320, Note_on_c, 14, 59, 64
16, 46326, Note_off_c, 14, 59, 0
16, 46368, Note_on_c, 14, 59, 64
16, 46374, Note_off_c, 14, 59, 0
16, 46416, Note_on_c, 14, 59, 64
16, 46422, Note_off_c, 14, 59, 0
16, 46464, Note_on_c, 14, 59, 64
16, 46470, Note_off_c, 14, 59, 0
16, 46512, Note_on_c, 14, 59, 64
16, 46518, Note_off_c, 14, 59, 0
16, 46608, Note_on_c, 14, 59, 64
16, 46614, Note_off_c, 14, 59, 0
16, 46656, Note_on_c, 14, 59, 64
16, 46662, Note_off_c, 14, 59, 0
16, 46752, Note_on_c, 14, 59, 64
16, 46758, Note_off_c, 14, 59, 0
16, 46800, Note_on_c, 14, 59, 64
16, 46806, Note_off_c, 14, 59, 0
16, 46848, Note_on_c, 14, 59, 64
16, 46854, Note_off_c, 14, 59, 0
16, 46896, Note_on_c, 14, 59, 64
16, 46902, Note_off_c, 14, 59, 0
16, 46944, Note_on_c, 14, 59, 64
16, 46950, Note_off_c, 14, 59, 0
16, 46992, Note_on_c, 14, 59, 64
16, 46998, Note_off_c, 14, 59, 0
16, 47040, Note_on_c, 14, 59, 64
16, 47046, Note_off_c, 14, 59, 0
16, 47088, Note_on_c, 14, 59, 64
16, 47094, Note_off_c, 14, 59, 0
16, 47136, Note_on_c, 14, 59, 64
16, 47142, Note_off_c, 14, 59, 0
16, 47184, Note_on_c, 14, 59, 64
16, 47190, Note_off_c, 14, 59, 0
16, 47232, Note_on_c, 14, 59, 64
16, 47238, Note_off_c, 14, 59, 0
16, 47280, Note_on_c, 14, 59, 64
16, 47286, Note_off_c, 14, 59, 0
16, 47328, Note_on_c, 14, 59, 64
16, 47334, Note_off_c, 14, 59, 0
16, 47376, Note_on_c, 14, 59, 64
16, 47382, Note_off_c, 14, 59, 0
16, 47424, Note_on_c, 14, 59, 64
16, 47430, Note_off_c, 14, 59, 0
16, 47472, Note_on_c, 14, 59, 64
16, 47478, Note_off_c, 14, 59, 0
16, 47520, Note_on_c, 14, 59, 64
16, 47526, Note_off_c, 14, 59, 0
16, 47568, Note_on_c, 14, 59, 64
16, 47574, Note_off_c, 14, 59, 0
16, 47616, Note_on_c, 14, 59, 64
16, 47622, Note_off_c, 14, 59, 0
16, 47664, Note_on_c, 14, 59, 64
16, 47670, Note_off_c, 14, 59, 0
16, 47712, Note_on_c, 14, 59, 64
16, 47718, Note_off_c, 14, 59, 0
16, 47760, Note_on_c, 14, 59, 64
16, 47766, Note_off_c, 14, 59, 0
16, 47808, Note_on_c, 14, 59, 64
16, 47814, Note_off_c, 14, 59, 0
16, 47856, Note_on_c, 14, 59, 64
16, 47862, Note_off_c, 14, 59, 0
16, 47904, Note_on_c, 14, 59, 64
16, 47910, Note_off_c, 14, 59, 0
16, 47952, Note_on_c, 14, 59, 64
16, 47958, Note_off_c, 14, 59, 0
16, 48000, Note_on_c, 14, 59, 64
16, 48006, Note_off_c, 14, 59, 0
16, 48048, Note_on_c, 14, 59, 64
16, 48054, Note_off_c, 14, 59, 0
16, 48144, Note_on_c, 14, 59, 64
16, 48150, Note_off_c, 14, 59, 0
16, 48192, Note_on_c, 14, 59, 64
16, 48198, Note_off_c, 14, 59, 0
16, 48288, Note_on_c, 14, 59, 64
16, 48294, Note_off_c, 14, 59, 0
16, 48336, Note_on_c, 14, 59, 64
16, 48342, Note_off_c, 14, 59, 0
16, 62976, Control_c, 14, 10, 64
16, 62976, Control_c, 14, 7, 100
16, 62976, Pitch_bend_c, 14, 8192
16, 62976, End_track
17, 0, Start_track
17, 0, Control_c, 15, 0, 0
17, 0, Control_c, 15, 32, 0
17, 0, Program_c, 15, 112
17, 0, Title_t, "Cymbals"
17, 0, Control_c, 15, 7, 127
17, 0, Control_c, 15, 10, 64
17, 0, Control_c, 15, 7, 100
17, 0, Pitch_bend_c, 15, 8192
17, 0, Control_c, 15, 7, 100
17, 0, Pitch_bend_c, 15, 8192
17, 0, Control_c, 15, 7, 100
17, 0, Pitch_bend_c, 15, 8192
17, 0, Control_c, 15, 7, 100
17, 0, Pitch_bend_c, 15, 8192
17, 0, Note_on_c, 15, 64, 127
17, 192, Note_on_c, 15, 59, 127
17, 384, Note_off_c, 15, 64, 0
17, 384, Note_on_c, 15, 60, 80
17, 480, Note_off_c, 15, 60, 0
17, 480, Note_on_c, 15, 60, 89
17, 576, Note_off_c, 15, 60, 0
17, 576, Note_off_c, 15, 59, 0
17, 576, Note_on_c, 15, 60, 99
17, 672, Note_off_c, 15, 60, 0
17, 672, Note_on_c, 15, 60, 127
17, 768, Note_off_c, 15, 60, 0
17, 768, Note_on_c, 15, 60, 127
17, 1152, Note_off_c, 15, 60, 0
17, 1528, Control_c, 15, 10, 84
17, 1536, Note_on_c, 15, 60, 127
17, 1764, Control_c, 15, 10, 85
17, 1920, Note_off_c, 15, 60, 0
17, 1936, Control_c, 15, 10, 64
17, 2256, Note_on_c, 15, 59, 112
17, 2280, Control_c, 15, 10, 40
17, 2304, Note_on_c, 15, 60, 127
17, 2471, Control_c, 15, 10, 39
17, 2640, Note_off_c, 15, 59, 0
17, 2688, Note_off_c, 15, 60, 0
17, 2735, Control_c, 15, 10, 64
17, 3072, Note_on_c, 15, 60, 127
17, 3456, Note_off_c, 15, 60, 0
17, 3800, Control_c, 15, 10, 92
17, 3840, Note_on_c, 15, 62, 127
17, 4003, Control_c, 15, 10, 93
17, 4183, Control_c, 15, 10, 64
17, 4224, Note_off_c, 15, 62, 0
17, 4584, Control_c, 15, 10, 40
17, 4608, Note_on_c, 15, 59, 127
17, 4657, Control_c, 15, 10, 41
17, 4910, Control_c, 15, 10, 42
17, 4983, Control_c, 15, 10, 64
17, 4992, Note_off_c, 15, 59, 0
17, 5376, Note_on_c, 15, 60, 127
17, 5760, Note_off_c, 15, 60, 0
17, 6144, Note_on_c, 15, 62, 127
17, 6528, Note_off_c, 15, 62, 0
17, 6912, Note_on_c, 15, 60, 127
17, 7296, Note_off_c, 15, 60, 0
17, 7680, Note_on_c, 15, 60, 127
17, 8064, Note_off_c, 15, 60, 0
17, 8448, Note_on_c, 15, 60, 127
17, 8832, Note_off_c, 15, 60, 0
17, 9216, Note_on_c, 15, 60, 127
17, 9600, Note_off_c, 15, 60, 0
17, 9984, Note_on_c, 15, 60, 127
17, 10368, Note_off_c, 15, 60, 0
17, 10752, Note_on_c, 15, 60, 127
17, 11136, Note_off_c, 15, 60, 0
17, 11520, Note_on_c, 15, 60, 127
17, 11904, Note_off_c, 15, 60, 0
17, 12288, Note_on_c, 15, 60, 127
17, 12672, Note_off_c, 15, 60, 0
17, 13056, Note_on_c, 15, 60, 127
17, 13440, Note_off_c, 15, 60, 0
17, 14592, Note_on_c, 15, 60, 127
17, 14976, Note_off_c, 15, 60, 0
17, 16128, Note_on_c, 15, 60, 127
17, 16512, Note_off_c, 15, 60, 0
17, 17664, Note_on_c, 15, 60, 127
17, 17760, Note_off_c, 15, 60, 0
17, 17760, Note_on_c, 15, 60, 90
17, 17856, Note_off_c, 15, 60, 0
17, 17856, Note_on_c, 15, 60, 127
17, 17952, Note_off_c, 15, 60, 0
17, 17952, Note_on_c, 15, 60, 101
17, 18048, Note_off_c, 15, 60, 0
17, 18048, Note_on_c, 15, 60, 127
17, 18144, Note_off_c, 15, 60, 0
17, 18144, Note_on_c, 15, 60, 99
17, 18240, Note_off_c, 15, 60, 0
17, 18240, Note_on_c, 15, 60, 127
17, 18336, Note_off_c, 15, 60, 0
17, 18336, Note_on_c, 15, 60, 101
17, 18432, Note_off_c, 15, 60, 0
17, 18432, Note_on_c, 15, 60, 127
17, 18528, Note_off_c, 15, 60, 0
17, 18528, Note_on_c, 15, 60, 90
17, 18624, Note_off_c, 15, 60, 0
17, 18624, Note_on_c, 15, 60, 127
17, 18720, Note_off_c, 15, 60, 0
17, 18720, Note_on_c, 15, 60, 89
17, 18816, Note_off_c, 15, 60, 0
17, 19200, Note_on_c, 15, 60, 127
17, 19584, Note_off_c, 15, 60, 0
17, 19968, Note_on_c, 15, 60, 127
17, 20352, Note_off_c, 15, 60, 0
17, 20736, Note_on_c, 15, 60, 127
17, 21120, Note_off_c, 15, 60, 0
17, 21504, Note_on_c, 15, 60, 127
17, 21888, Note_off_c, 15, 60, 0
17, 22272, Note_on_c, 15, 60, 127
17, 22656, Note_off_c, 15, 60, 0
17, 23040, Note_on_c, 15, 60, 127
17, 23424, Note_off_c, 15, 60, 0
17, 23808, Note_on_c, 15, 60, 127
17, 23904, Note_off_c, 15, 60, 0
17, 23904, Note_on_c, 15, 60, 90
17, 24000, Note_off_c, 15, 60, 0
17, 24000, Note_on_c, 15, 60, 127
17, 24096, Note_off_c, 15, 60, 0
17, 24096, Note_on_c, 15, 60, 101
17, 24192, Note_off_c, 15, 60, 0
17, 24192, Note_on_c, 15, 60, 127
17, 24288, Note_off_c, 15, 60, 0
17, 24288, Note_on_c, 15, 60, 99
17, 24384, Note_off_c, 15, 60, 0
17, 24384, Note_on_c, 15, 60, 127
17, 24480, Note_off_c, 15, 60, 0
17, 24480, Note_on_c, 15, 60, 101
17, 24576, Note_off_c, 15, 60, 0
17, 24576, Note_on_c, 15, 60, 127
17, 24672, Note_off_c, 15, 60, 0
17, 24672, Note_on_c, 15, 60, 90
17, 24768, Note_off_c, 15, 60, 0
17, 24768, Note_on_c, 15, 60, 127
17, 24864, Note_off_c, 15, 60, 0
17, 24864, Note_on_c, 15, 60, 89
17, 24960, Note_off_c, 15, 60, 0
17, 25344, Note_on_c, 15, 60, 127
17, 25728, Note_off_c, 15, 60, 0
17, 26112, Note_on_c, 15, 60, 127
17, 26496, Note_off_c, 15, 60, 0
17, 26880, Note_on_c, 15, 60, 127
17, 27264, Note_off_c, 15, 60, 0
17, 27648, Note_on_c, 15, 60, 127
17, 28032, Note_off_c, 15, 60, 0
17, 28416, Note_on_c, 15, 60, 127
17, 28800, Note_off_c, 15, 60, 0
17, 29184, Note_on_c, 15, 60, 127
17, 29568, Note_off_c, 15, 60, 0
17, 29952, Note_on_c, 15, 60, 127
17, 30048, Note_off_c, 15, 60, 0
17, 30048, Note_on_c, 15, 60, 90
17, 30144, Note_off_c, 15, 60, 0
17, 30144, Note_on_c, 15, 60, 127
17, 30240, Note_off_c, 15, 60, 0
17, 30240, Note_on_c, 15, 60, 101
17, 30336, Note_off_c, 15, 60, 0
17, 30336, Note_on_c, 15, 60, 127
17, 30432, Note_off_c, 15, 60, 0
17, 30432, Note_on_c, 15, 60, 99
17, 30528, Note_off_c, 15, 60, 0
17, 30528, Note_on_c, 15, 60, 127
17, 30624, Note_off_c, 15, 60, 0
17, 30624, Note_on_c, 15, 60, 101
17, 30720, Note_off_c, 15, 60, 0
17, 30720, Note_on_c, 15, 60, 127
17, 30816, Note_off_c, 15, 60, 0
17, 30816, Note_on_c, 15, 60, 90
17, 30912, Note_off_c, 15, 60, 0
17, 30912, Note_on_c, 15, 60, 127
17, 31008, Note_off_c, 15, 60, 0
17, 31008, Note_on_c, 15, 60, 89
17, 31104, Note_off_c, 15, 60, 0
17, 31488, Note_on_c, 15, 60, 127
17, 31872, Note_off_c, 15, 60, 0
17, 32256, Note_on_c, 15, 60, 127
17, 32640, Note_off_c, 15, 60, 0
17, 33024, Note_on_c, 15, 60, 127
17, 33408, Note_off_c, 15, 60, 0
17, 33792, Note_on_c, 15, 60, 127
17, 34176, Note_off_c, 15, 60, 0
17, 34560, Note_on_c, 15, 60, 127
17, 34944, Note_off_c, 15, 60, 0
17, 35328, Note_on_c, 15, 60, 127
17, 35712, Note_off_c, 15, 60, 0
17, 36096, Note_on_c, 15, 60, 127
17, 36480, Note_off_c, 15, 60, 0
17, 36864, Note_on_c, 15, 60, 127
17, 37248, Note_off_c, 15, 60, 0
17, 37632, Note_on_c, 15, 60, 127
17, 38016, Note_off_c, 15, 60, 0
17, 38400, Note_on_c, 15, 60, 127
17, 38784, Note_off_c, 15, 60, 0
17, 39168, Note_on_c, 15, 60, 127
17, 39552, Note_off_c, 15, 60, 0
17, 39936, Note_on_c, 15, 60, 127
17, 40320, Note_off_c, 15, 60, 0
17, 40704, Note_on_c, 15, 60, 127
17, 41088, Note_off_c, 15, 60, 0
17, 41472, Note_on_c, 15, 60, 127
17, 41856, Note_off_c, 15, 60, 0
17, 42240, Note_on_c, 15, 60, 127
17, 42624, Note_off_c, 15, 60, 0
17, 43008, Note_on_c, 15, 60, 127
17, 43392, Note_off_c, 15, 60, 0
17, 43776, Note_on_c, 15, 60, 127
17, 44160, Note_off_c, 15, 60, 0
17, 45312, Note_on_c, 15, 60, 127
17, 45696, Note_off_c, 15, 60, 0
17, 46848, Note_on_c, 15, 60, 127
17, 47232, Note_off_c, 15, 60, 0
17, 48384, Note_on_c, 15, 60, 127
17, 48480, Note_off_c, 15, 60, 0
17, 48480, Note_on_c, 15, 60, 127
17, 48576, Note_off_c, 15, 60, 0
17, 48576, Note_on_c, 15, 60, 127
17, 48672, Note_off_c, 15, 60, 0
17, 48672, Note_on_c, 15, 60, 127
17, 48768, Note_off_c, 15, 60, 0
17, 48768, Note_on_c, 15, 60, 127
17, 48864, Note_off_c, 15, 60, 0
17, 48864, Note_on_c, 15, 60, 127
17, 48960, Note_off_c, 15, 60, 0
17, 48960, Note_on_c, 15, 60, 127
17, 49056, Note_off_c, 15, 60, 0
17, 49056, Note_on_c, 15, 60, 127
17, 49152, Note_off_c, 15, 60, 0
17, 49152, Note_on_c, 15, 60, 127
17, 49248, Note_off_c, 15, 60, 0
17, 49248, Note_on_c, 15, 60, 127
17, 49344, Note_off_c, 15, 60, 0
17, 49344, Note_on_c, 15, 60, 127
17, 49440, Note_off_c, 15, 60, 0
17, 49440, Note_on_c, 15, 60, 127
17, 49536, Note_off_c, 15, 60, 0
17, 49920, Note_on_c, 15, 60, 127
17, 50016, Note_off_c, 15, 60, 0
17, 50688, Note_on_c, 15, 60, 127
17, 50784, Note_off_c, 15, 60, 0
17, 51456, Note_on_c, 15, 60, 127
17, 51552, Note_off_c, 15, 60, 0
17, 52224, Note_on_c, 15, 60, 127
17, 52320, Note_off_c, 15, 60, 0
17, 52992, Note_on_c, 15, 60, 127
17, 53088, Note_off_c, 15, 60, 0
17, 53760, Note_on_c, 15, 60, 127
17, 53856, Note_off_c, 15, 60, 0
17, 54528, Note_on_c, 15, 60, 127
17, 54624, Note_off_c, 15, 60, 0
17, 54624, Note_on_c, 15, 60, 127
17, 54720, Note_off_c, 15, 60, 0
17, 54720, Note_on_c, 15, 60, 127
17, 54816, Note_off_c, 15, 60, 0
17, 54816, Note_on_c, 15, 60, 127
17, 54912, Note_off_c, 15, 60, 0
17, 54912, Note_on_c, 15, 60, 127
17, 55008, Note_off_c, 15, 60, 0
17, 55008, Note_on_c, 15, 60, 127
17, 55104, Note_off_c, 15, 60, 0
17, 55104, Note_on_c, 15, 60, 127
17, 55200, Note_off_c, 15, 60, 0
17, 55200, Note_on_c, 15, 60, 127
17, 55296, Note_off_c, 15, 60, 0
17, 55296, Note_on_c, 15, 60, 127
17, 55392, Note_off_c, 15, 60, 0
17, 55392, Note_on_c, 15, 60, 127
17, 55488, Note_off_c, 15, 60, 0
17, 55488, Note_on_c, 15, 60, 127
17, 55584, Note_off_c, 15, 60, 0
17, 55584, Note_on_c, 15, 60, 127
17, 55680, Note_off_c, 15, 60, 0
17, 56064, Note_on_c, 15, 60, 127
17, 56160, Note_off_c, 15, 60, 0
17, 56832, Note_on_c, 15, 60, 127
17, 56928, Note_off_c, 15, 60, 0
17, 57600, Note_on_c, 15, 60, 127
17, 57696, Note_off_c, 15, 60, 0
17, 58368, Note_on_c, 15, 60, 127
17, 58464, Note_off_c, 15, 60, 0
17, 59136, Note_on_c, 15, 60, 127
17, 59232, Note_off_c, 15, 60, 0
17, 59904, Note_on_c, 15, 60, 127
17, 60000, Note_off_c, 15, 60, 0
17, 60672, Note_on_c, 15, 60, 127
17, 60768, Note_off_c, 15, 60, 0
17, 60768, Note_on_c, 15, 60, 127
17, 60864, Note_off_c, 15, 60, 0
17, 60864, Note_on_c, 15, 60, 127
17, 60960, Note_off_c, 15, 60, 0
17, 60960, Note_on_c, 15, 60, 127
17, 61056, Note_off_c, 15, 60, 0
17, 61056, Note_on_c, 15, 60, 127
17, 61152, Note_off_c, 15, 60, 0
17, 61152, Note_on_c, 15, 60, 127
17, 61248, Note_off_c, 15, 60, 0
17, 61248, Note_on_c, 15, 60, 127
17, 61344, Note_off_c, 15, 60, 0
17, 61344, Note_on_c, 15, 60, 127
17, 61440, Note_off_c, 15, 60, 0
17, 61440, Note_on_c, 15, 60, 127
17, 61536, Note_off_c, 15, 60, 0
17, 61536, Note_on_c, 15, 60, 127
17, 61632, Note_off_c, 15, 60, 0
17, 61632, Note_on_c, 15, 60, 127
17, 61728, Note_off_c, 15, 60, 0
17, 61728, Note_on_c, 15, 60, 127
17, 61824, Note_off_c, 15, 60, 0
17, 62208, Note_on_c, 15, 60, 127
17, 62304, Note_off_c, 15, 60, 0
17, 62592, Note_on_c, 15, 60, 127
17, 62688, Note_off_c, 15, 60, 0
17, 62976, Control_c, 15, 10, 64
17, 62976, Control_c, 15, 7, 100
17, 62976, Pitch_bend_c, 15, 8192
17, 62976, End_track
0, 0, End_of_file
